<?xml version="1.0" encoding="utf-8" standalone="no"?>
<!DOCTYPE svg PUBLIC "-//W3C//DTD SVG 1.1//EN"
  "http://www.w3.org/Graphics/SVG/1.1/DTD/svg11.dtd">
<svg xmlns:xlink="http://www.w3.org/1999/xlink" width="506.1057pt" height="378.165pt" viewBox="0 0 506.1057 378.165" xmlns="http://www.w3.org/2000/svg" version="1.1">
 <metadata>
  <rdf:RDF xmlns:dc="http://purl.org/dc/elements/1.1/" xmlns:cc="http://creativecommons.org/ns#" xmlns:rdf="http://www.w3.org/1999/02/22-rdf-syntax-ns#">
   <cc:Work>
    <dc:type rdf:resource="http://purl.org/dc/dcmitype/StillImage"/>
    <dc:date>2026-09-05T14:21:21.768946</dc:date>
    <dc:format>image/svg+xml</dc:format>
    <dc:creator>
     <cc:Agent>
      <dc:title>Matplotlib v3.11.1, https://matplotlib.org/</dc:title>
     </cc:Agent>
    </dc:creator>
   </cc:Work>
  </rdf:RDF>
 </metadata>
 <defs>
  <style type="text/css">*{stroke-linejoin: round; stroke-linecap: butt}</style>
 </defs>
 <g id="figure_1">
  <g id="patch_1">
   <path d="M 0 378.165 
L 506.1057 378.165 
L 506.1057 0 
L 0 0 
z
" style="fill: #ffffff"/>
  </g>
  <g id="axes_1">
   <g id="patch_2">
    <path d="M 47.8164 334.680825 
L 498.9057 334.680825 
L 498.9057 27.9534 
L 47.8164 27.9534 
z
" style="fill: #ffffff"/>
   </g>
   <g id="matplotlib.axis_1">
    <g id="xtick_1">
     <g id="line2d_1">
      <path d="M 109.135329 334.680825 
L 109.135329 27.9534 
" clip-path="url(#p9fecdc582a)" style="fill: none; stroke: #e0e0e0; stroke-width: 0.7; stroke-linecap: round"/>
     </g>
     <g id="text_1">
      <!-- $\mathdefault{10^{-1}}$ -->
      <g style="fill: #262626" transform="translate(96.727329 352.801625) scale(0.1056 -0.1056)">
       <defs>
        <path id="DejaVuSans-14" d="M 794 531 
L 1825 531 
L 1825 4091 
L 703 3866 
L 703 4441 
L 1819 4666 
L 2450 4666 
L 2450 531 
L 3481 531 
L 3481 0 
L 794 0 
L 794 531 
z
" transform="scale(0.015625)"/>
        <path id="DejaVuSans-13" d="M 2034 4250 
Q 1547 4250 1301 3770 
Q 1056 3291 1056 2328 
Q 1056 1369 1301 889 
Q 1547 409 2034 409 
Q 2525 409 2770 889 
Q 3016 1369 3016 2328 
Q 3016 3291 2770 3770 
Q 2525 4250 2034 4250 
z
M 2034 4750 
Q 2819 4750 3233 4129 
Q 3647 3509 3647 2328 
Q 3647 1150 3233 529 
Q 2819 -91 2034 -91 
Q 1250 -91 836 529 
Q 422 1150 422 2328 
Q 422 3509 836 4129 
Q 1250 4750 2034 4750 
z
" transform="scale(0.015625)"/>
        <path id="DejaVuSans-c9c" d="M 678 2272 
L 4684 2272 
L 4684 1741 
L 678 1741 
L 678 2272 
z
" transform="scale(0.015625)"/>
       </defs>
       <use xlink:href="#DejaVuSans-14" transform="translate(0 0.665625)"/>
       <use xlink:href="#DejaVuSans-13" transform="translate(63.623047 0.665625)"/>
       <use xlink:href="#DejaVuSans-c9c" transform="translate(128.203125 41.965625) scale(0.7)"/>
       <use xlink:href="#DejaVuSans-14" transform="translate(186.855469 41.965625) scale(0.7)"/>
      </g>
     </g>
    </g>
    <g id="xtick_2">
     <g id="line2d_2">
      <path d="M 270.048005 334.680825 
L 270.048005 27.9534 
" clip-path="url(#p9fecdc582a)" style="fill: none; stroke: #e0e0e0; stroke-width: 0.7; stroke-linecap: round"/>
     </g>
     <g id="text_2">
      <!-- $\mathdefault{10^{0}}$ -->
      <g style="fill: #262626" transform="translate(260.755205 352.907225) scale(0.1056 -0.1056)">
       <use xlink:href="#DejaVuSans-14" transform="translate(0 0.746875)"/>
       <use xlink:href="#DejaVuSans-13" transform="translate(63.623047 0.746875)"/>
       <use xlink:href="#DejaVuSans-13" transform="translate(128.203125 42.046875) scale(0.7)"/>
      </g>
     </g>
    </g>
    <g id="xtick_3">
     <g id="line2d_3">
      <path d="M 430.960682 334.680825 
L 430.960682 27.9534 
" clip-path="url(#p9fecdc582a)" style="fill: none; stroke: #e0e0e0; stroke-width: 0.7; stroke-linecap: round"/>
     </g>
     <g id="text_3">
      <!-- $\mathdefault{10^{1}}$ -->
      <g style="fill: #262626" transform="translate(421.667882 352.801625) scale(0.1056 -0.1056)">
       <use xlink:href="#DejaVuSans-14" transform="translate(0 0.665625)"/>
       <use xlink:href="#DejaVuSans-13" transform="translate(63.623047 0.665625)"/>
       <use xlink:href="#DejaVuSans-14" transform="translate(128.203125 41.965625) scale(0.7)"/>
      </g>
     </g>
    </g>
    <g id="xtick_4"/>
    <g id="xtick_5"/>
    <g id="xtick_6"/>
    <g id="xtick_7"/>
    <g id="xtick_8"/>
    <g id="xtick_9"/>
    <g id="xtick_10"/>
    <g id="xtick_11"/>
    <g id="xtick_12"/>
    <g id="xtick_13"/>
    <g id="xtick_14"/>
    <g id="xtick_15"/>
    <g id="xtick_16"/>
    <g id="xtick_17"/>
    <g id="xtick_18"/>
    <g id="xtick_19"/>
    <g id="xtick_20"/>
    <g id="xtick_21"/>
    <g id="xtick_22"/>
    <g id="xtick_23"/>
    <g id="xtick_24"/>
    <g id="xtick_25"/>
    <g id="text_4">
     <!-- Total time (ms) -->
     <g style="fill: #262626" transform="translate(230.12865 368.1975) scale(0.1152 -0.1152)">
      <defs>
       <path id="DejaVuSans-37" d="M -19 4666 
L 3928 4666 
L 3928 4134 
L 2272 4134 
L 2272 0 
L 1638 0 
L 1638 4134 
L -19 4134 
L -19 4666 
z
" transform="scale(0.015625)"/>
       <path id="DejaVuSans-52" d="M 1959 3097 
Q 1497 3097 1228 2736 
Q 959 2375 959 1747 
Q 959 1119 1226 758 
Q 1494 397 1959 397 
Q 2419 397 2687 759 
Q 2956 1122 2956 1747 
Q 2956 2369 2687 2733 
Q 2419 3097 1959 3097 
z
M 1959 3584 
Q 2709 3584 3137 3096 
Q 3566 2609 3566 1747 
Q 3566 888 3137 398 
Q 2709 -91 1959 -91 
Q 1206 -91 779 398 
Q 353 888 353 1747 
Q 353 2609 779 3096 
Q 1206 3584 1959 3584 
z
" transform="scale(0.015625)"/>
       <path id="DejaVuSans-57" d="M 1172 4494 
L 1172 3500 
L 2356 3500 
L 2356 3053 
L 1172 3053 
L 1172 1153 
Q 1172 725 1289 603 
Q 1406 481 1766 481 
L 2356 481 
L 2356 0 
L 1766 0 
Q 1100 0 847 248 
Q 594 497 594 1153 
L 594 3053 
L 172 3053 
L 172 3500 
L 594 3500 
L 594 4494 
L 1172 4494 
z
" transform="scale(0.015625)"/>
       <path id="DejaVuSans-44" d="M 2194 1759 
Q 1497 1759 1228 1600 
Q 959 1441 959 1056 
Q 959 750 1161 570 
Q 1363 391 1709 391 
Q 2188 391 2477 730 
Q 2766 1069 2766 1631 
L 2766 1759 
L 2194 1759 
z
M 3341 1997 
L 3341 0 
L 2766 0 
L 2766 531 
Q 2569 213 2275 61 
Q 1981 -91 1556 -91 
Q 1019 -91 701 211 
Q 384 513 384 1019 
Q 384 1609 779 1909 
Q 1175 2209 1959 2209 
L 2766 2209 
L 2766 2266 
Q 2766 2663 2505 2880 
Q 2244 3097 1772 3097 
Q 1472 3097 1187 3025 
Q 903 2953 641 2809 
L 641 3341 
Q 956 3463 1253 3523 
Q 1550 3584 1831 3584 
Q 2591 3584 2966 3190 
Q 3341 2797 3341 1997 
z
" transform="scale(0.015625)"/>
       <path id="DejaVuSans-4f" d="M 603 4863 
L 1178 4863 
L 1178 0 
L 603 0 
L 603 4863 
z
" transform="scale(0.015625)"/>
       <path id="DejaVuSans-3" transform="scale(0.015625)"/>
       <path id="DejaVuSans-4c" d="M 603 3500 
L 1178 3500 
L 1178 0 
L 603 0 
L 603 3500 
z
M 603 4863 
L 1178 4863 
L 1178 4134 
L 603 4134 
L 603 4863 
z
" transform="scale(0.015625)"/>
       <path id="DejaVuSans-50" d="M 3328 2828 
Q 3544 3216 3844 3400 
Q 4144 3584 4550 3584 
Q 5097 3584 5394 3201 
Q 5691 2819 5691 2113 
L 5691 0 
L 5113 0 
L 5113 2094 
Q 5113 2597 4934 2840 
Q 4756 3084 4391 3084 
Q 3944 3084 3684 2787 
Q 3425 2491 3425 1978 
L 3425 0 
L 2847 0 
L 2847 2094 
Q 2847 2600 2669 2842 
Q 2491 3084 2119 3084 
Q 1678 3084 1418 2786 
Q 1159 2488 1159 1978 
L 1159 0 
L 581 0 
L 581 3500 
L 1159 3500 
L 1159 2956 
Q 1356 3278 1631 3431 
Q 1906 3584 2284 3584 
Q 2666 3584 2933 3390 
Q 3200 3197 3328 2828 
z
" transform="scale(0.015625)"/>
       <path id="DejaVuSans-48" d="M 3597 1894 
L 3597 1613 
L 953 1613 
Q 991 1019 1311 708 
Q 1631 397 2203 397 
Q 2534 397 2845 478 
Q 3156 559 3463 722 
L 3463 178 
Q 3153 47 2828 -22 
Q 2503 -91 2169 -91 
Q 1331 -91 842 396 
Q 353 884 353 1716 
Q 353 2575 817 3079 
Q 1281 3584 2069 3584 
Q 2775 3584 3186 3129 
Q 3597 2675 3597 1894 
z
M 3022 2063 
Q 3016 2534 2758 2815 
Q 2500 3097 2075 3097 
Q 1594 3097 1305 2825 
Q 1016 2553 972 2059 
L 3022 2063 
z
" transform="scale(0.015625)"/>
       <path id="DejaVuSans-b" d="M 1984 4856 
Q 1566 4138 1362 3434 
Q 1159 2731 1159 2009 
Q 1159 1288 1364 580 
Q 1569 -128 1984 -844 
L 1484 -844 
Q 1016 -109 783 600 
Q 550 1309 550 2009 
Q 550 2706 781 3412 
Q 1013 4119 1484 4856 
L 1984 4856 
z
" transform="scale(0.015625)"/>
       <path id="DejaVuSans-56" d="M 2834 3397 
L 2834 2853 
Q 2591 2978 2328 3040 
Q 2066 3103 1784 3103 
Q 1356 3103 1142 2972 
Q 928 2841 928 2578 
Q 928 2378 1081 2264 
Q 1234 2150 1697 2047 
L 1894 2003 
Q 2506 1872 2764 1633 
Q 3022 1394 3022 966 
Q 3022 478 2636 193 
Q 2250 -91 1575 -91 
Q 1294 -91 989 -36 
Q 684 19 347 128 
L 347 722 
Q 666 556 975 473 
Q 1284 391 1588 391 
Q 1994 391 2212 530 
Q 2431 669 2431 922 
Q 2431 1156 2273 1281 
Q 2116 1406 1581 1522 
L 1381 1569 
Q 847 1681 609 1914 
Q 372 2147 372 2553 
Q 372 3047 722 3315 
Q 1072 3584 1716 3584 
Q 2034 3584 2315 3537 
Q 2597 3491 2834 3397 
z
" transform="scale(0.015625)"/>
       <path id="DejaVuSans-c" d="M 513 4856 
L 1013 4856 
Q 1481 4119 1714 3412 
Q 1947 2706 1947 2009 
Q 1947 1309 1714 600 
Q 1481 -109 1013 -844 
L 513 -844 
Q 928 -128 1133 580 
Q 1338 1288 1338 2009 
Q 1338 2731 1133 3434 
Q 928 4138 513 4856 
z
" transform="scale(0.015625)"/>
      </defs>
      <use xlink:href="#DejaVuSans-37"/>
      <use xlink:href="#DejaVuSans-52" transform="translate(44.09375 0)"/>
      <use xlink:href="#DejaVuSans-57" transform="translate(105.28125 0)"/>
      <use xlink:href="#DejaVuSans-44" transform="translate(144.484375 0)"/>
      <use xlink:href="#DejaVuSans-4f" transform="translate(205.765625 0)"/>
      <use xlink:href="#DejaVuSans-3" transform="translate(233.546875 0)"/>
      <use xlink:href="#DejaVuSans-57" transform="translate(265.328125 0)"/>
      <use xlink:href="#DejaVuSans-4c" transform="translate(304.53125 0)"/>
      <use xlink:href="#DejaVuSans-50" transform="translate(332.3125 0)"/>
      <use xlink:href="#DejaVuSans-48" transform="translate(429.71875 0)"/>
      <use xlink:href="#DejaVuSans-3" transform="translate(491.25 0)"/>
      <use xlink:href="#DejaVuSans-b" transform="translate(523.03125 0)"/>
      <use xlink:href="#DejaVuSans-50" transform="translate(562.046875 0)"/>
      <use xlink:href="#DejaVuSans-56" transform="translate(659.453125 0)"/>
      <use xlink:href="#DejaVuSans-c" transform="translate(711.546875 0)"/>
     </g>
    </g>
   </g>
   <g id="matplotlib.axis_2">
    <g id="ytick_1">
     <g id="line2d_4">
      <path d="M 47.8164 334.680825 
L 498.9057 334.680825 
" clip-path="url(#p9fecdc582a)" style="fill: none; stroke: #e0e0e0; stroke-width: 0.7; stroke-linecap: round"/>
     </g>
     <g id="text_5">
      <!-- 0.0 -->
      <g style="fill: #262626" transform="translate(22.7227 338.692387) scale(0.1056 -0.1056)">
       <defs>
        <path id="DejaVuSans-11" d="M 684 794 
L 1344 794 
L 1344 0 
L 684 0 
L 684 794 
z
" transform="scale(0.015625)"/>
       </defs>
       <use xlink:href="#DejaVuSans-13"/>
       <use xlink:href="#DejaVuSans-11" transform="translate(63.625 0)"/>
       <use xlink:href="#DejaVuSans-13" transform="translate(95.40625 0)"/>
      </g>
     </g>
    </g>
    <g id="ytick_2">
     <g id="line2d_5">
      <path d="M 47.8164 274.538193 
L 498.9057 274.538193 
" clip-path="url(#p9fecdc582a)" style="fill: none; stroke: #e0e0e0; stroke-width: 0.7; stroke-linecap: round"/>
     </g>
     <g id="text_6">
      <!-- 0.2 -->
      <g style="fill: #262626" transform="translate(22.7227 278.549755) scale(0.1056 -0.1056)">
       <defs>
        <path id="DejaVuSans-15" d="M 1228 531 
L 3431 531 
L 3431 0 
L 469 0 
L 469 531 
Q 828 903 1448 1529 
Q 2069 2156 2228 2338 
Q 2531 2678 2651 2914 
Q 2772 3150 2772 3378 
Q 2772 3750 2511 3984 
Q 2250 4219 1831 4219 
Q 1534 4219 1204 4116 
Q 875 4013 500 3803 
L 500 4441 
Q 881 4594 1212 4672 
Q 1544 4750 1819 4750 
Q 2544 4750 2975 4387 
Q 3406 4025 3406 3419 
Q 3406 3131 3298 2873 
Q 3191 2616 2906 2266 
Q 2828 2175 2409 1742 
Q 1991 1309 1228 531 
z
" transform="scale(0.015625)"/>
       </defs>
       <use xlink:href="#DejaVuSans-13"/>
       <use xlink:href="#DejaVuSans-11" transform="translate(63.625 0)"/>
       <use xlink:href="#DejaVuSans-15" transform="translate(95.40625 0)"/>
      </g>
     </g>
    </g>
    <g id="ytick_3">
     <g id="line2d_6">
      <path d="M 47.8164 214.39556 
L 498.9057 214.39556 
" clip-path="url(#p9fecdc582a)" style="fill: none; stroke: #e0e0e0; stroke-width: 0.7; stroke-linecap: round"/>
     </g>
     <g id="text_7">
      <!-- 0.4 -->
      <g style="fill: #262626" transform="translate(22.7227 218.407123) scale(0.1056 -0.1056)">
       <defs>
        <path id="DejaVuSans-17" d="M 2419 4116 
L 825 1625 
L 2419 1625 
L 2419 4116 
z
M 2253 4666 
L 3047 4666 
L 3047 1625 
L 3713 1625 
L 3713 1100 
L 3047 1100 
L 3047 0 
L 2419 0 
L 2419 1100 
L 313 1100 
L 313 1709 
L 2253 4666 
z
" transform="scale(0.015625)"/>
       </defs>
       <use xlink:href="#DejaVuSans-13"/>
       <use xlink:href="#DejaVuSans-11" transform="translate(63.625 0)"/>
       <use xlink:href="#DejaVuSans-17" transform="translate(95.40625 0)"/>
      </g>
     </g>
    </g>
    <g id="ytick_4">
     <g id="line2d_7">
      <path d="M 47.8164 154.252928 
L 498.9057 154.252928 
" clip-path="url(#p9fecdc582a)" style="fill: none; stroke: #e0e0e0; stroke-width: 0.7; stroke-linecap: round"/>
     </g>
     <g id="text_8">
      <!-- 0.6 -->
      <g style="fill: #262626" transform="translate(22.7227 158.26449) scale(0.1056 -0.1056)">
       <defs>
        <path id="DejaVuSans-19" d="M 2113 2584 
Q 1688 2584 1439 2293 
Q 1191 2003 1191 1497 
Q 1191 994 1439 701 
Q 1688 409 2113 409 
Q 2538 409 2786 701 
Q 3034 994 3034 1497 
Q 3034 2003 2786 2293 
Q 2538 2584 2113 2584 
z
M 3366 4563 
L 3366 3988 
Q 3128 4100 2886 4159 
Q 2644 4219 2406 4219 
Q 1781 4219 1451 3797 
Q 1122 3375 1075 2522 
Q 1259 2794 1537 2939 
Q 1816 3084 2150 3084 
Q 2853 3084 3261 2657 
Q 3669 2231 3669 1497 
Q 3669 778 3244 343 
Q 2819 -91 2113 -91 
Q 1303 -91 875 529 
Q 447 1150 447 2328 
Q 447 3434 972 4092 
Q 1497 4750 2381 4750 
Q 2619 4750 2861 4703 
Q 3103 4656 3366 4563 
z
" transform="scale(0.015625)"/>
       </defs>
       <use xlink:href="#DejaVuSans-13"/>
       <use xlink:href="#DejaVuSans-11" transform="translate(63.625 0)"/>
       <use xlink:href="#DejaVuSans-19" transform="translate(95.40625 0)"/>
      </g>
     </g>
    </g>
    <g id="ytick_5">
     <g id="line2d_8">
      <path d="M 47.8164 94.110296 
L 498.9057 94.110296 
" clip-path="url(#p9fecdc582a)" style="fill: none; stroke: #e0e0e0; stroke-width: 0.7; stroke-linecap: round"/>
     </g>
     <g id="text_9">
      <!-- 0.8 -->
      <g style="fill: #262626" transform="translate(22.7227 98.121858) scale(0.1056 -0.1056)">
       <defs>
        <path id="DejaVuSans-1b" d="M 2034 2216 
Q 1584 2216 1326 1975 
Q 1069 1734 1069 1313 
Q 1069 891 1326 650 
Q 1584 409 2034 409 
Q 2484 409 2743 651 
Q 3003 894 3003 1313 
Q 3003 1734 2745 1975 
Q 2488 2216 2034 2216 
z
M 1403 2484 
Q 997 2584 770 2862 
Q 544 3141 544 3541 
Q 544 4100 942 4425 
Q 1341 4750 2034 4750 
Q 2731 4750 3128 4425 
Q 3525 4100 3525 3541 
Q 3525 3141 3298 2862 
Q 3072 2584 2669 2484 
Q 3125 2378 3379 2068 
Q 3634 1759 3634 1313 
Q 3634 634 3220 271 
Q 2806 -91 2034 -91 
Q 1263 -91 848 271 
Q 434 634 434 1313 
Q 434 1759 690 2068 
Q 947 2378 1403 2484 
z
M 1172 3481 
Q 1172 3119 1398 2916 
Q 1625 2713 2034 2713 
Q 2441 2713 2670 2916 
Q 2900 3119 2900 3481 
Q 2900 3844 2670 4047 
Q 2441 4250 2034 4250 
Q 1625 4250 1398 4047 
Q 1172 3844 1172 3481 
z
" transform="scale(0.015625)"/>
       </defs>
       <use xlink:href="#DejaVuSans-13"/>
       <use xlink:href="#DejaVuSans-11" transform="translate(63.625 0)"/>
       <use xlink:href="#DejaVuSans-1b" transform="translate(95.40625 0)"/>
      </g>
     </g>
    </g>
    <g id="ytick_6">
     <g id="line2d_9">
      <path d="M 47.8164 33.967663 
L 498.9057 33.967663 
" clip-path="url(#p9fecdc582a)" style="fill: none; stroke: #e0e0e0; stroke-width: 0.7; stroke-linecap: round"/>
     </g>
     <g id="text_10">
      <!-- 1.0 -->
      <g style="fill: #262626" transform="translate(22.7227 37.979226) scale(0.1056 -0.1056)">
       <use xlink:href="#DejaVuSans-14"/>
       <use xlink:href="#DejaVuSans-11" transform="translate(63.625 0)"/>
       <use xlink:href="#DejaVuSans-13" transform="translate(95.40625 0)"/>
      </g>
     </g>
    </g>
    <g id="text_11">
     <!-- Fraction of solved trials $\leq x$ -->
     <g style="fill: #262626" transform="translate(15.9552 260.805112) rotate(-90) scale(0.1152 -0.1152)">
      <defs>
       <path id="DejaVuSans-29" d="M 628 4666 
L 3309 4666 
L 3309 4134 
L 1259 4134 
L 1259 2759 
L 3109 2759 
L 3109 2228 
L 1259 2228 
L 1259 0 
L 628 0 
L 628 4666 
z
" transform="scale(0.015625)"/>
       <path id="DejaVuSans-55" d="M 2631 2963 
Q 2534 3019 2420 3045 
Q 2306 3072 2169 3072 
Q 1681 3072 1420 2755 
Q 1159 2438 1159 1844 
L 1159 0 
L 581 0 
L 581 3500 
L 1159 3500 
L 1159 2956 
Q 1341 3275 1631 3429 
Q 1922 3584 2338 3584 
Q 2397 3584 2469 3576 
Q 2541 3569 2628 3553 
L 2631 2963 
z
" transform="scale(0.015625)"/>
       <path id="DejaVuSans-46" d="M 3122 3366 
L 3122 2828 
Q 2878 2963 2633 3030 
Q 2388 3097 2138 3097 
Q 1578 3097 1268 2742 
Q 959 2388 959 1747 
Q 959 1106 1268 751 
Q 1578 397 2138 397 
Q 2388 397 2633 464 
Q 2878 531 3122 666 
L 3122 134 
Q 2881 22 2623 -34 
Q 2366 -91 2075 -91 
Q 1284 -91 818 406 
Q 353 903 353 1747 
Q 353 2603 823 3093 
Q 1294 3584 2113 3584 
Q 2378 3584 2631 3529 
Q 2884 3475 3122 3366 
z
" transform="scale(0.015625)"/>
       <path id="DejaVuSans-51" d="M 3513 2113 
L 3513 0 
L 2938 0 
L 2938 2094 
Q 2938 2591 2744 2837 
Q 2550 3084 2163 3084 
Q 1697 3084 1428 2787 
Q 1159 2491 1159 1978 
L 1159 0 
L 581 0 
L 581 3500 
L 1159 3500 
L 1159 2956 
Q 1366 3272 1645 3428 
Q 1925 3584 2291 3584 
Q 2894 3584 3203 3211 
Q 3513 2838 3513 2113 
z
" transform="scale(0.015625)"/>
       <path id="DejaVuSans-49" d="M 2375 4863 
L 2375 4384 
L 1825 4384 
Q 1516 4384 1395 4259 
Q 1275 4134 1275 3809 
L 1275 3500 
L 2222 3500 
L 2222 3053 
L 1275 3053 
L 1275 0 
L 697 0 
L 697 3053 
L 147 3053 
L 147 3500 
L 697 3500 
L 697 3744 
Q 697 4328 969 4595 
Q 1241 4863 1831 4863 
L 2375 4863 
z
" transform="scale(0.015625)"/>
       <path id="DejaVuSans-59" d="M 191 3500 
L 800 3500 
L 1894 563 
L 2988 3500 
L 3597 3500 
L 2284 0 
L 1503 0 
L 191 3500 
z
" transform="scale(0.015625)"/>
       <path id="DejaVuSans-47" d="M 2906 2969 
L 2906 4863 
L 3481 4863 
L 3481 0 
L 2906 0 
L 2906 525 
Q 2725 213 2448 61 
Q 2172 -91 1784 -91 
Q 1150 -91 751 415 
Q 353 922 353 1747 
Q 353 2572 751 3078 
Q 1150 3584 1784 3584 
Q 2172 3584 2448 3432 
Q 2725 3281 2906 2969 
z
M 947 1747 
Q 947 1113 1208 752 
Q 1469 391 1925 391 
Q 2381 391 2643 752 
Q 2906 1113 2906 1747 
Q 2906 2381 2643 2742 
Q 2381 3103 1925 3103 
Q 1469 3103 1208 2742 
Q 947 2381 947 1747 
z
" transform="scale(0.015625)"/>
       <path id="DejaVuSans-cee" d="M 4684 3175 
L 1684 2309 
L 4684 1453 
L 4684 897 
L 678 2047 
L 678 2578 
L 4684 3725 
L 4684 3175 
z
M 678 531 
L 4684 531 
L 4684 0 
L 678 0 
L 678 531 
z
" transform="scale(0.015625)"/>
       <path id="DejaVuSans-Oblique-5b" d="M 3841 3500 
L 2234 1784 
L 3219 0 
L 2559 0 
L 1819 1388 
L 531 0 
L -166 0 
L 1556 1844 
L 641 3500 
L 1300 3500 
L 1972 2234 
L 3144 3500 
L 3841 3500 
z
" transform="scale(0.015625)"/>
      </defs>
      <use xlink:href="#DejaVuSans-29" transform="translate(0 0.015625)"/>
      <use xlink:href="#DejaVuSans-55" transform="translate(50.519531 0.015625)"/>
      <use xlink:href="#DejaVuSans-44" transform="translate(91.632812 0.015625)"/>
      <use xlink:href="#DejaVuSans-46" transform="translate(152.912109 0.015625)"/>
      <use xlink:href="#DejaVuSans-57" transform="translate(207.892578 0.015625)"/>
      <use xlink:href="#DejaVuSans-4c" transform="translate(247.101562 0.015625)"/>
      <use xlink:href="#DejaVuSans-52" transform="translate(274.884766 0.015625)"/>
      <use xlink:href="#DejaVuSans-51" transform="translate(336.066406 0.015625)"/>
      <use xlink:href="#DejaVuSans-3" transform="translate(399.445312 0.015625)"/>
      <use xlink:href="#DejaVuSans-52" transform="translate(431.232422 0.015625)"/>
      <use xlink:href="#DejaVuSans-49" transform="translate(492.414062 0.015625)"/>
      <use xlink:href="#DejaVuSans-3" transform="translate(527.619141 0.015625)"/>
      <use xlink:href="#DejaVuSans-56" transform="translate(559.40625 0.015625)"/>
      <use xlink:href="#DejaVuSans-52" transform="translate(611.505859 0.015625)"/>
      <use xlink:href="#DejaVuSans-4f" transform="translate(672.6875 0.015625)"/>
      <use xlink:href="#DejaVuSans-59" transform="translate(700.470703 0.015625)"/>
      <use xlink:href="#DejaVuSans-48" transform="translate(759.650391 0.015625)"/>
      <use xlink:href="#DejaVuSans-47" transform="translate(821.173828 0.015625)"/>
      <use xlink:href="#DejaVuSans-3" transform="translate(884.650391 0.015625)"/>
      <use xlink:href="#DejaVuSans-57" transform="translate(916.4375 0.015625)"/>
      <use xlink:href="#DejaVuSans-55" transform="translate(955.646484 0.015625)"/>
      <use xlink:href="#DejaVuSans-4c" transform="translate(996.759766 0.015625)"/>
      <use xlink:href="#DejaVuSans-44" transform="translate(1024.542969 0.015625)"/>
      <use xlink:href="#DejaVuSans-4f" transform="translate(1085.822266 0.015625)"/>
      <use xlink:href="#DejaVuSans-56" transform="translate(1113.605469 0.015625)"/>
      <use xlink:href="#DejaVuSans-3" transform="translate(1165.705078 0.015625)"/>
      <use xlink:href="#DejaVuSans-cee" transform="translate(1216.974609 0.015625)"/>
      <use xlink:href="#DejaVuSans-Oblique-5b" transform="translate(1320.246094 0.015625)"/>
     </g>
    </g>
   </g>
   <g id="line2d_10">
    <path d="M 47.8164 184.324244 
L 498.9057 184.324244 
" clip-path="url(#p9fecdc582a)" style="fill: none; stroke-dasharray: 4.07,1.76; stroke-dashoffset: 0; stroke: #d1d1d1; stroke-width: 1.1"/>
   </g>
   <g id="FillBetweenPolyCollection_1">
    <defs>
     <path id="m13492d7919" d="M 177.505484 -43.484175 
L 177.505484 -46.491307 
L 187.741391 -46.491307 
L 187.741391 -49.498438 
L 209.099662 -49.498438 
L 209.099662 -52.50557 
L 230.398861 -52.50557 
L 230.398861 -55.512701 
L 233.423958 -55.512701 
L 233.423958 -58.519833 
L 240.624704 -58.519833 
L 240.624704 -61.526965 
L 242.440808 -61.526965 
L 242.440808 -64.534096 
L 242.508827 -64.534096 
L 242.508827 -67.541228 
L 247.149304 -67.541228 
L 247.149304 -70.54836 
L 261.621204 -70.54836 
L 261.621204 -73.555491 
L 261.877906 -73.555491 
L 261.877906 -76.562623 
L 266.756494 -76.562623 
L 266.756494 -79.569754 
L 266.811998 -79.569754 
L 266.811998 -82.576886 
L 269.613098 -82.576886 
L 269.613098 -85.584018 
L 272.890814 -85.584018 
L 272.890814 -88.591149 
L 274.531206 -88.591149 
L 274.531206 -91.598281 
L 279.897046 -91.598281 
L 279.897046 -94.605412 
L 286.413322 -94.605412 
L 286.413322 -97.612544 
L 291.221439 -97.612544 
L 291.221439 -100.619676 
L 294.86352 -100.619676 
L 294.86352 -103.626807 
L 297.46279 -103.626807 
L 297.46279 -106.633939 
L 300.336773 -106.633939 
L 300.336773 -109.641071 
L 301.365197 -109.641071 
L 301.365197 -112.648202 
L 302.935896 -112.648202 
L 302.935896 -115.655334 
L 306.247612 -115.655334 
L 306.247612 -118.662465 
L 307.774016 -118.662465 
L 307.774016 -121.669597 
L 307.99443 -121.669597 
L 307.99443 -124.676729 
L 309.051844 -124.676729 
L 309.051844 -127.68386 
L 310.397603 -127.68386 
L 310.397603 -130.690992 
L 310.756225 -130.690992 
L 310.756225 -133.698124 
L 311.798191 -133.698124 
L 311.798191 -136.705255 
L 312.402226 -136.705255 
L 312.402226 -139.712387 
L 313.91081 -139.712387 
L 313.91081 -142.719518 
L 314.343753 -142.719518 
L 314.343753 -145.72665 
L 315.993451 -145.72665 
L 315.993451 -148.733782 
L 317.981968 -148.733782 
L 317.981968 -151.740913 
L 318.998862 -151.740913 
L 318.998862 -154.748045 
L 321.459802 -154.748045 
L 321.459802 -157.755176 
L 321.648413 -157.755176 
L 321.648413 -160.762308 
L 323.76082 -160.762308 
L 323.76082 -163.76944 
L 324.595901 -163.76944 
L 324.595901 -166.776571 
L 325.310573 -166.776571 
L 325.310573 -169.783703 
L 330.853494 -169.783703 
L 330.853494 -172.790835 
L 330.966784 -172.790835 
L 330.966784 -175.797966 
L 331.292524 -175.797966 
L 331.292524 -178.805098 
L 331.446308 -178.805098 
L 331.446308 -181.812229 
L 331.520405 -181.812229 
L 331.520405 -184.819361 
L 334.101581 -184.819361 
L 334.101581 -187.826493 
L 336.228287 -187.826493 
L 336.228287 -190.833624 
L 338.455272 -190.833624 
L 338.455272 -193.840756 
L 339.286014 -193.840756 
L 339.286014 -196.847887 
L 340.019263 -196.847887 
L 340.019263 -199.855019 
L 341.227212 -199.855019 
L 341.227212 -202.862151 
L 347.46606 -202.862151 
L 347.46606 -205.869282 
L 350.879623 -205.869282 
L 350.879623 -208.876414 
L 351.945043 -208.876414 
L 351.945043 -211.883546 
L 358.595698 -211.883546 
L 358.595698 -214.890677 
L 361.387201 -214.890677 
L 361.387201 -217.897809 
L 362.854465 -217.897809 
L 362.854465 -220.90494 
L 363.799602 -220.90494 
L 363.799602 -223.912072 
L 364.156571 -223.912072 
L 364.156571 -226.919204 
L 365.971003 -226.919204 
L 365.971003 -229.926335 
L 366.574074 -229.926335 
L 366.574074 -232.933467 
L 367.226805 -232.933467 
L 367.226805 -235.940599 
L 367.427234 -235.940599 
L 367.427234 -238.94773 
L 367.652131 -238.94773 
L 367.652131 -241.954862 
L 368.070638 -241.954862 
L 368.070638 -244.961993 
L 368.890848 -244.961993 
L 368.890848 -247.969125 
L 371.545453 -247.969125 
L 371.545453 -250.976257 
L 372.217323 -250.976257 
L 372.217323 -253.983388 
L 373.741954 -253.983388 
L 373.741954 -256.99052 
L 377.860747 -256.99052 
L 377.860747 -259.997651 
L 377.896894 -259.997651 
L 377.896894 -263.004783 
L 378.43313 -263.004783 
L 378.43313 -266.011915 
L 379.754013 -266.011915 
L 379.754013 -269.019046 
L 381.206075 -269.019046 
L 381.206075 -272.026178 
L 383.159909 -272.026178 
L 383.159909 -275.03331 
L 383.272153 -275.03331 
L 383.272153 -278.040441 
L 384.713423 -278.040441 
L 384.713423 -281.047573 
L 387.917703 -281.047573 
L 387.917703 -284.054704 
L 393.689558 -284.054704 
L 393.689558 -287.061836 
L 394.061032 -287.061836 
L 394.061032 -290.068968 
L 394.455079 -290.068968 
L 394.455079 -293.076099 
L 396.287656 -293.076099 
L 396.287656 -296.083231 
L 396.33994 -296.083231 
L 396.33994 -299.090362 
L 396.425218 -299.090362 
L 396.425218 -302.097494 
L 398.892007 -302.097494 
L 398.892007 -305.104626 
L 399.450739 -305.104626 
L 399.450739 -308.111757 
L 405.110617 -308.111757 
L 405.110617 -311.118889 
L 411.064175 -311.118889 
L 411.064175 -314.126021 
L 412.429346 -314.126021 
L 412.429346 -317.133152 
L 419.345085 -317.133152 
L 419.345085 -320.140284 
L 423.747128 -320.140284 
L 423.747128 -323.147415 
L 424.188035 -323.147415 
L 424.188035 -326.154547 
L 425.0654 -326.154547 
L 425.0654 -329.161679 
L 425.33169 -329.161679 
L 425.33169 -332.16881 
L 429.463572 -332.16881 
L 429.463572 -335.175942 
L 444.78841 -335.175942 
L 444.78841 -338.183074 
L 460.798352 -338.183074 
L 460.798352 -341.190205 
L 478.401641 -341.190205 
L 478.401641 -344.197337 
L 478.401641 -43.484175 
L 478.401641 -43.484175 
L 478.401641 -43.484175 
L 460.798352 -43.484175 
L 460.798352 -43.484175 
L 444.78841 -43.484175 
L 444.78841 -43.484175 
L 429.463572 -43.484175 
L 429.463572 -43.484175 
L 425.33169 -43.484175 
L 425.33169 -43.484175 
L 425.0654 -43.484175 
L 425.0654 -43.484175 
L 424.188035 -43.484175 
L 424.188035 -43.484175 
L 423.747128 -43.484175 
L 423.747128 -43.484175 
L 419.345085 -43.484175 
L 419.345085 -43.484175 
L 412.429346 -43.484175 
L 412.429346 -43.484175 
L 411.064175 -43.484175 
L 411.064175 -43.484175 
L 405.110617 -43.484175 
L 405.110617 -43.484175 
L 399.450739 -43.484175 
L 399.450739 -43.484175 
L 398.892007 -43.484175 
L 398.892007 -43.484175 
L 396.425218 -43.484175 
L 396.425218 -43.484175 
L 396.33994 -43.484175 
L 396.33994 -43.484175 
L 396.287656 -43.484175 
L 396.287656 -43.484175 
L 394.455079 -43.484175 
L 394.455079 -43.484175 
L 394.061032 -43.484175 
L 394.061032 -43.484175 
L 393.689558 -43.484175 
L 393.689558 -43.484175 
L 387.917703 -43.484175 
L 387.917703 -43.484175 
L 384.713423 -43.484175 
L 384.713423 -43.484175 
L 383.272153 -43.484175 
L 383.272153 -43.484175 
L 383.159909 -43.484175 
L 383.159909 -43.484175 
L 381.206075 -43.484175 
L 381.206075 -43.484175 
L 379.754013 -43.484175 
L 379.754013 -43.484175 
L 378.43313 -43.484175 
L 378.43313 -43.484175 
L 377.896894 -43.484175 
L 377.896894 -43.484175 
L 377.860747 -43.484175 
L 377.860747 -43.484175 
L 373.741954 -43.484175 
L 373.741954 -43.484175 
L 372.217323 -43.484175 
L 372.217323 -43.484175 
L 371.545453 -43.484175 
L 371.545453 -43.484175 
L 368.890848 -43.484175 
L 368.890848 -43.484175 
L 368.070638 -43.484175 
L 368.070638 -43.484175 
L 367.652131 -43.484175 
L 367.652131 -43.484175 
L 367.427234 -43.484175 
L 367.427234 -43.484175 
L 367.226805 -43.484175 
L 367.226805 -43.484175 
L 366.574074 -43.484175 
L 366.574074 -43.484175 
L 365.971003 -43.484175 
L 365.971003 -43.484175 
L 364.156571 -43.484175 
L 364.156571 -43.484175 
L 363.799602 -43.484175 
L 363.799602 -43.484175 
L 362.854465 -43.484175 
L 362.854465 -43.484175 
L 361.387201 -43.484175 
L 361.387201 -43.484175 
L 358.595698 -43.484175 
L 358.595698 -43.484175 
L 351.945043 -43.484175 
L 351.945043 -43.484175 
L 350.879623 -43.484175 
L 350.879623 -43.484175 
L 347.46606 -43.484175 
L 347.46606 -43.484175 
L 341.227212 -43.484175 
L 341.227212 -43.484175 
L 340.019263 -43.484175 
L 340.019263 -43.484175 
L 339.286014 -43.484175 
L 339.286014 -43.484175 
L 338.455272 -43.484175 
L 338.455272 -43.484175 
L 336.228287 -43.484175 
L 336.228287 -43.484175 
L 334.101581 -43.484175 
L 334.101581 -43.484175 
L 331.520405 -43.484175 
L 331.520405 -43.484175 
L 331.446308 -43.484175 
L 331.446308 -43.484175 
L 331.292524 -43.484175 
L 331.292524 -43.484175 
L 330.966784 -43.484175 
L 330.966784 -43.484175 
L 330.853494 -43.484175 
L 330.853494 -43.484175 
L 325.310573 -43.484175 
L 325.310573 -43.484175 
L 324.595901 -43.484175 
L 324.595901 -43.484175 
L 323.76082 -43.484175 
L 323.76082 -43.484175 
L 321.648413 -43.484175 
L 321.648413 -43.484175 
L 321.459802 -43.484175 
L 321.459802 -43.484175 
L 318.998862 -43.484175 
L 318.998862 -43.484175 
L 317.981968 -43.484175 
L 317.981968 -43.484175 
L 315.993451 -43.484175 
L 315.993451 -43.484175 
L 314.343753 -43.484175 
L 314.343753 -43.484175 
L 313.91081 -43.484175 
L 313.91081 -43.484175 
L 312.402226 -43.484175 
L 312.402226 -43.484175 
L 311.798191 -43.484175 
L 311.798191 -43.484175 
L 310.756225 -43.484175 
L 310.756225 -43.484175 
L 310.397603 -43.484175 
L 310.397603 -43.484175 
L 309.051844 -43.484175 
L 309.051844 -43.484175 
L 307.99443 -43.484175 
L 307.99443 -43.484175 
L 307.774016 -43.484175 
L 307.774016 -43.484175 
L 306.247612 -43.484175 
L 306.247612 -43.484175 
L 302.935896 -43.484175 
L 302.935896 -43.484175 
L 301.365197 -43.484175 
L 301.365197 -43.484175 
L 300.336773 -43.484175 
L 300.336773 -43.484175 
L 297.46279 -43.484175 
L 297.46279 -43.484175 
L 294.86352 -43.484175 
L 294.86352 -43.484175 
L 291.221439 -43.484175 
L 291.221439 -43.484175 
L 286.413322 -43.484175 
L 286.413322 -43.484175 
L 279.897046 -43.484175 
L 279.897046 -43.484175 
L 274.531206 -43.484175 
L 274.531206 -43.484175 
L 272.890814 -43.484175 
L 272.890814 -43.484175 
L 269.613098 -43.484175 
L 269.613098 -43.484175 
L 266.811998 -43.484175 
L 266.811998 -43.484175 
L 266.756494 -43.484175 
L 266.756494 -43.484175 
L 261.877906 -43.484175 
L 261.877906 -43.484175 
L 261.621204 -43.484175 
L 261.621204 -43.484175 
L 247.149304 -43.484175 
L 247.149304 -43.484175 
L 242.508827 -43.484175 
L 242.508827 -43.484175 
L 242.440808 -43.484175 
L 242.440808 -43.484175 
L 240.624704 -43.484175 
L 240.624704 -43.484175 
L 233.423958 -43.484175 
L 233.423958 -43.484175 
L 230.398861 -43.484175 
L 230.398861 -43.484175 
L 209.099662 -43.484175 
L 209.099662 -43.484175 
L 187.741391 -43.484175 
L 187.741391 -43.484175 
L 177.505484 -43.484175 
z
" style="stroke: #66c2a5; stroke-opacity: 0.18; stroke-width: 0.8"/>
    </defs>
    <g clip-path="url(#p9fecdc582a)">
     <use xlink:href="#m13492d7919" x="0" y="378.165" style="fill: #66c2a5; fill-opacity: 0.18; stroke: #66c2a5; stroke-opacity: 0.18; stroke-width: 0.8"/>
    </g>
   </g>
   <g id="FillBetweenPolyCollection_2">
    <defs>
     <path id="ma7969b73c0" d="M 68.320459 -43.484175 
L 68.320459 -46.491307 
L 74.15663 -46.491307 
L 74.15663 -49.498438 
L 80.800363 -49.498438 
L 80.800363 -52.50557 
L 83.296209 -52.50557 
L 83.296209 -55.512701 
L 83.945581 -55.512701 
L 83.945581 -58.519833 
L 85.15956 -58.519833 
L 85.15956 -61.526965 
L 85.553376 -61.526965 
L 85.553376 -64.534096 
L 92.102697 -64.534096 
L 92.102697 -67.541228 
L 94.800865 -67.541228 
L 94.800865 -70.54836 
L 94.828314 -70.54836 
L 94.828314 -73.555491 
L 96.918453 -73.555491 
L 96.918453 -76.562623 
L 97.45656 -76.562623 
L 97.45656 -79.569754 
L 98.41141 -79.569754 
L 98.41141 -82.576886 
L 101.419734 -82.576886 
L 101.419734 -85.584018 
L 104.040537 -85.584018 
L 104.040537 -88.591149 
L 105.513984 -88.591149 
L 105.513984 -91.598281 
L 108.238585 -91.598281 
L 108.238585 -94.605412 
L 109.345362 -94.605412 
L 109.345362 -97.612544 
L 110.745617 -97.612544 
L 110.745617 -100.619676 
L 110.967213 -100.619676 
L 110.967213 -103.626807 
L 111.274916 -103.626807 
L 111.274916 -106.633939 
L 113.357517 -106.633939 
L 113.357517 -109.641071 
L 114.751352 -109.641071 
L 114.751352 -112.648202 
L 117.229001 -112.648202 
L 117.229001 -115.655334 
L 119.301096 -115.655334 
L 119.301096 -118.662465 
L 120.495654 -118.662465 
L 120.495654 -121.669597 
L 121.315866 -121.669597 
L 121.315866 -124.676729 
L 121.920841 -124.676729 
L 121.920841 -127.68386 
L 122.230357 -127.68386 
L 122.230357 -130.690992 
L 122.705601 -130.690992 
L 122.705601 -133.698124 
L 123.429267 -133.698124 
L 123.429267 -136.705255 
L 124.039449 -136.705255 
L 124.039449 -139.712387 
L 124.206375 -139.712387 
L 124.206375 -142.719518 
L 124.400433 -142.719518 
L 124.400433 -145.72665 
L 124.907494 -145.72665 
L 124.907494 -148.733782 
L 126.245224 -148.733782 
L 126.245224 -151.740913 
L 127.054021 -151.740913 
L 127.054021 -154.748045 
L 127.152373 -154.748045 
L 127.152373 -157.755176 
L 128.370767 -157.755176 
L 128.370767 -160.762308 
L 128.645121 -160.762308 
L 128.645121 -163.76944 
L 130.605445 -163.76944 
L 130.605445 -166.776571 
L 131.870148 -166.776571 
L 131.870148 -169.783703 
L 132.216565 -169.783703 
L 132.216565 -172.790835 
L 134.312913 -172.790835 
L 134.312913 -175.797966 
L 134.460933 -175.797966 
L 134.460933 -178.805098 
L 135.231493 -178.805098 
L 135.231493 -181.812229 
L 135.930334 -181.812229 
L 135.930334 -184.819361 
L 135.939382 -184.819361 
L 135.939382 -187.826493 
L 136.202232 -187.826493 
L 136.202232 -190.833624 
L 136.514652 -190.833624 
L 136.514652 -193.840756 
L 136.791818 -193.840756 
L 136.791818 -196.847887 
L 138.618438 -196.847887 
L 138.618438 -199.855019 
L 138.8979 -199.855019 
L 138.8979 -202.862151 
L 141.066822 -202.862151 
L 141.066822 -205.869282 
L 141.208727 -205.869282 
L 141.208727 -208.876414 
L 141.318605 -208.876414 
L 141.318605 -211.883546 
L 141.963349 -211.883546 
L 141.963349 -214.890677 
L 142.05067 -214.890677 
L 142.05067 -217.897809 
L 143.030326 -217.897809 
L 143.030326 -220.90494 
L 144.0838 -220.90494 
L 144.0838 -223.912072 
L 145.524264 -223.912072 
L 145.524264 -226.919204 
L 146.418621 -226.919204 
L 146.418621 -229.926335 
L 146.964923 -229.926335 
L 146.964923 -232.933467 
L 148.49834 -232.933467 
L 148.49834 -235.940599 
L 149.065003 -235.940599 
L 149.065003 -238.94773 
L 149.325391 -238.94773 
L 149.325391 -241.954862 
L 149.411449 -241.954862 
L 149.411449 -244.961993 
L 150.133831 -244.961993 
L 150.133831 -247.969125 
L 151.170858 -247.969125 
L 151.170858 -250.976257 
L 151.985983 -250.976257 
L 151.985983 -253.983388 
L 153.005408 -253.983388 
L 153.005408 -256.99052 
L 153.887255 -256.99052 
L 153.887255 -259.997651 
L 153.959046 -259.997651 
L 153.959046 -263.004783 
L 156.173018 -263.004783 
L 156.173018 -266.011915 
L 156.847102 -266.011915 
L 156.847102 -269.019046 
L 156.947656 -269.019046 
L 156.947656 -272.026178 
L 157.681711 -272.026178 
L 157.681711 -275.03331 
L 157.889337 -275.03331 
L 157.889337 -278.040441 
L 158.144886 -278.040441 
L 158.144886 -281.047573 
L 160.664633 -281.047573 
L 160.664633 -284.054704 
L 161.616902 -284.054704 
L 161.616902 -287.061836 
L 164.65479 -287.061836 
L 164.65479 -290.068968 
L 164.67026 -290.068968 
L 164.67026 -293.076099 
L 166.066373 -293.076099 
L 166.066373 -296.083231 
L 167.960834 -296.083231 
L 167.960834 -299.090362 
L 173.716058 -299.090362 
L 173.716058 -302.097494 
L 174.452971 -302.097494 
L 174.452971 -305.104626 
L 177.519406 -305.104626 
L 177.519406 -308.111757 
L 179.750452 -308.111757 
L 179.750452 -311.118889 
L 181.06476 -311.118889 
L 181.06476 -314.126021 
L 182.956388 -314.126021 
L 182.956388 -317.133152 
L 183.120222 -317.133152 
L 183.120222 -320.140284 
L 184.381544 -320.140284 
L 184.381544 -323.147415 
L 191.227426 -323.147415 
L 191.227426 -326.154547 
L 197.769848 -326.154547 
L 197.769848 -329.161679 
L 206.641937 -329.161679 
L 206.641937 -332.16881 
L 211.920028 -332.16881 
L 211.920028 -335.175942 
L 237.144681 -335.175942 
L 237.144681 -338.183074 
L 252.681523 -338.183074 
L 252.681523 -341.190205 
L 255.637916 -341.190205 
L 255.637916 -344.197337 
L 255.637916 -43.484175 
L 255.637916 -43.484175 
L 255.637916 -43.484175 
L 252.681523 -43.484175 
L 252.681523 -43.484175 
L 237.144681 -43.484175 
L 237.144681 -43.484175 
L 211.920028 -43.484175 
L 211.920028 -43.484175 
L 206.641937 -43.484175 
L 206.641937 -43.484175 
L 197.769848 -43.484175 
L 197.769848 -43.484175 
L 191.227426 -43.484175 
L 191.227426 -43.484175 
L 184.381544 -43.484175 
L 184.381544 -43.484175 
L 183.120222 -43.484175 
L 183.120222 -43.484175 
L 182.956388 -43.484175 
L 182.956388 -43.484175 
L 181.06476 -43.484175 
L 181.06476 -43.484175 
L 179.750452 -43.484175 
L 179.750452 -43.484175 
L 177.519406 -43.484175 
L 177.519406 -43.484175 
L 174.452971 -43.484175 
L 174.452971 -43.484175 
L 173.716058 -43.484175 
L 173.716058 -43.484175 
L 167.960834 -43.484175 
L 167.960834 -43.484175 
L 166.066373 -43.484175 
L 166.066373 -43.484175 
L 164.67026 -43.484175 
L 164.67026 -43.484175 
L 164.65479 -43.484175 
L 164.65479 -43.484175 
L 161.616902 -43.484175 
L 161.616902 -43.484175 
L 160.664633 -43.484175 
L 160.664633 -43.484175 
L 158.144886 -43.484175 
L 158.144886 -43.484175 
L 157.889337 -43.484175 
L 157.889337 -43.484175 
L 157.681711 -43.484175 
L 157.681711 -43.484175 
L 156.947656 -43.484175 
L 156.947656 -43.484175 
L 156.847102 -43.484175 
L 156.847102 -43.484175 
L 156.173018 -43.484175 
L 156.173018 -43.484175 
L 153.959046 -43.484175 
L 153.959046 -43.484175 
L 153.887255 -43.484175 
L 153.887255 -43.484175 
L 153.005408 -43.484175 
L 153.005408 -43.484175 
L 151.985983 -43.484175 
L 151.985983 -43.484175 
L 151.170858 -43.484175 
L 151.170858 -43.484175 
L 150.133831 -43.484175 
L 150.133831 -43.484175 
L 149.411449 -43.484175 
L 149.411449 -43.484175 
L 149.325391 -43.484175 
L 149.325391 -43.484175 
L 149.065003 -43.484175 
L 149.065003 -43.484175 
L 148.49834 -43.484175 
L 148.49834 -43.484175 
L 146.964923 -43.484175 
L 146.964923 -43.484175 
L 146.418621 -43.484175 
L 146.418621 -43.484175 
L 145.524264 -43.484175 
L 145.524264 -43.484175 
L 144.0838 -43.484175 
L 144.0838 -43.484175 
L 143.030326 -43.484175 
L 143.030326 -43.484175 
L 142.05067 -43.484175 
L 142.05067 -43.484175 
L 141.963349 -43.484175 
L 141.963349 -43.484175 
L 141.318605 -43.484175 
L 141.318605 -43.484175 
L 141.208727 -43.484175 
L 141.208727 -43.484175 
L 141.066822 -43.484175 
L 141.066822 -43.484175 
L 138.8979 -43.484175 
L 138.8979 -43.484175 
L 138.618438 -43.484175 
L 138.618438 -43.484175 
L 136.791818 -43.484175 
L 136.791818 -43.484175 
L 136.514652 -43.484175 
L 136.514652 -43.484175 
L 136.202232 -43.484175 
L 136.202232 -43.484175 
L 135.939382 -43.484175 
L 135.939382 -43.484175 
L 135.930334 -43.484175 
L 135.930334 -43.484175 
L 135.231493 -43.484175 
L 135.231493 -43.484175 
L 134.460933 -43.484175 
L 134.460933 -43.484175 
L 134.312913 -43.484175 
L 134.312913 -43.484175 
L 132.216565 -43.484175 
L 132.216565 -43.484175 
L 131.870148 -43.484175 
L 131.870148 -43.484175 
L 130.605445 -43.484175 
L 130.605445 -43.484175 
L 128.645121 -43.484175 
L 128.645121 -43.484175 
L 128.370767 -43.484175 
L 128.370767 -43.484175 
L 127.152373 -43.484175 
L 127.152373 -43.484175 
L 127.054021 -43.484175 
L 127.054021 -43.484175 
L 126.245224 -43.484175 
L 126.245224 -43.484175 
L 124.907494 -43.484175 
L 124.907494 -43.484175 
L 124.400433 -43.484175 
L 124.400433 -43.484175 
L 124.206375 -43.484175 
L 124.206375 -43.484175 
L 124.039449 -43.484175 
L 124.039449 -43.484175 
L 123.429267 -43.484175 
L 123.429267 -43.484175 
L 122.705601 -43.484175 
L 122.705601 -43.484175 
L 122.230357 -43.484175 
L 122.230357 -43.484175 
L 121.920841 -43.484175 
L 121.920841 -43.484175 
L 121.315866 -43.484175 
L 121.315866 -43.484175 
L 120.495654 -43.484175 
L 120.495654 -43.484175 
L 119.301096 -43.484175 
L 119.301096 -43.484175 
L 117.229001 -43.484175 
L 117.229001 -43.484175 
L 114.751352 -43.484175 
L 114.751352 -43.484175 
L 113.357517 -43.484175 
L 113.357517 -43.484175 
L 111.274916 -43.484175 
L 111.274916 -43.484175 
L 110.967213 -43.484175 
L 110.967213 -43.484175 
L 110.745617 -43.484175 
L 110.745617 -43.484175 
L 109.345362 -43.484175 
L 109.345362 -43.484175 
L 108.238585 -43.484175 
L 108.238585 -43.484175 
L 105.513984 -43.484175 
L 105.513984 -43.484175 
L 104.040537 -43.484175 
L 104.040537 -43.484175 
L 101.419734 -43.484175 
L 101.419734 -43.484175 
L 98.41141 -43.484175 
L 98.41141 -43.484175 
L 97.45656 -43.484175 
L 97.45656 -43.484175 
L 96.918453 -43.484175 
L 96.918453 -43.484175 
L 94.828314 -43.484175 
L 94.828314 -43.484175 
L 94.800865 -43.484175 
L 94.800865 -43.484175 
L 92.102697 -43.484175 
L 92.102697 -43.484175 
L 85.553376 -43.484175 
L 85.553376 -43.484175 
L 85.15956 -43.484175 
L 85.15956 -43.484175 
L 83.945581 -43.484175 
L 83.945581 -43.484175 
L 83.296209 -43.484175 
L 83.296209 -43.484175 
L 80.800363 -43.484175 
L 80.800363 -43.484175 
L 74.15663 -43.484175 
L 74.15663 -43.484175 
L 68.320459 -43.484175 
z
" style="stroke: #fc8d62; stroke-opacity: 0.18; stroke-width: 0.8"/>
    </defs>
    <g clip-path="url(#p9fecdc582a)">
     <use xlink:href="#ma7969b73c0" x="0" y="378.165" style="fill: #fc8d62; fill-opacity: 0.18; stroke: #fc8d62; stroke-opacity: 0.18; stroke-width: 0.8"/>
    </g>
   </g>
   <g id="FillBetweenPolyCollection_3">
    <defs>
     <path id="m0b19565d1a" d="M 142.414932 -43.484175 
L 142.414932 -46.491307 
L 167.349215 -46.491307 
L 167.349215 -49.498438 
L 167.928903 -49.498438 
L 167.928903 -52.50557 
L 177.59921 -52.50557 
L 177.59921 -55.512701 
L 179.135903 -55.512701 
L 179.135903 -58.519833 
L 179.991977 -58.519833 
L 179.991977 -61.526965 
L 180.037852 -61.526965 
L 180.037852 -64.534096 
L 181.486922 -64.534096 
L 181.486922 -67.541228 
L 181.814724 -67.541228 
L 181.814724 -70.54836 
L 187.015116 -70.54836 
L 187.015116 -73.555491 
L 189.025908 -73.555491 
L 189.025908 -76.562623 
L 189.316042 -76.562623 
L 189.316042 -79.569754 
L 190.73783 -79.569754 
L 190.73783 -82.576886 
L 191.025288 -82.576886 
L 191.025288 -85.584018 
L 195.044827 -85.584018 
L 195.044827 -88.591149 
L 197.038274 -88.591149 
L 197.038274 -91.598281 
L 198.286721 -91.598281 
L 198.286721 -94.605412 
L 199.32548 -94.605412 
L 199.32548 -97.612544 
L 200.069198 -97.612544 
L 200.069198 -100.619676 
L 200.321736 -100.619676 
L 200.321736 -103.626807 
L 201.362089 -103.626807 
L 201.362089 -106.633939 
L 201.75128 -106.633939 
L 201.75128 -109.641071 
L 201.980982 -109.641071 
L 201.980982 -112.648202 
L 202.467917 -112.648202 
L 202.467917 -115.655334 
L 203.561224 -115.655334 
L 203.561224 -118.662465 
L 203.973118 -118.662465 
L 203.973118 -121.669597 
L 205.018677 -121.669597 
L 205.018677 -124.676729 
L 205.369391 -124.676729 
L 205.369391 -127.68386 
L 206.710988 -127.68386 
L 206.710988 -130.690992 
L 207.990808 -130.690992 
L 207.990808 -133.698124 
L 208.522915 -133.698124 
L 208.522915 -136.705255 
L 210.664054 -136.705255 
L 210.664054 -139.712387 
L 214.608419 -139.712387 
L 214.608419 -142.719518 
L 214.744857 -142.719518 
L 214.744857 -145.72665 
L 214.746553 -145.72665 
L 214.746553 -148.733782 
L 214.939637 -148.733782 
L 214.939637 -151.740913 
L 215.217699 -151.740913 
L 215.217699 -154.748045 
L 215.675649 -154.748045 
L 215.675649 -157.755176 
L 215.972169 -157.755176 
L 215.972169 -160.762308 
L 216.474874 -160.762308 
L 216.474874 -163.76944 
L 217.631165 -163.76944 
L 217.631165 -166.776571 
L 218.093757 -166.776571 
L 218.093757 -169.783703 
L 218.748982 -169.783703 
L 218.748982 -172.790835 
L 219.208308 -172.790835 
L 219.208308 -175.797966 
L 219.261519 -175.797966 
L 219.261519 -178.805098 
L 221.047147 -178.805098 
L 221.047147 -181.812229 
L 221.315738 -181.812229 
L 221.315738 -184.819361 
L 221.865998 -184.819361 
L 221.865998 -187.826493 
L 222.483494 -187.826493 
L 222.483494 -190.833624 
L 224.598597 -190.833624 
L 224.598597 -193.840756 
L 225.58246 -193.840756 
L 225.58246 -196.847887 
L 226.975897 -196.847887 
L 226.975897 -199.855019 
L 231.053798 -199.855019 
L 231.053798 -202.862151 
L 231.856719 -202.862151 
L 231.856719 -205.869282 
L 231.95912 -205.869282 
L 231.95912 -208.876414 
L 232.292542 -208.876414 
L 232.292542 -211.883546 
L 232.684642 -211.883546 
L 232.684642 -214.890677 
L 232.825848 -214.890677 
L 232.825848 -217.897809 
L 232.980191 -217.897809 
L 232.980191 -220.90494 
L 233.104441 -220.90494 
L 233.104441 -223.912072 
L 233.560969 -223.912072 
L 233.560969 -226.919204 
L 234.561621 -226.919204 
L 234.561621 -229.926335 
L 235.117361 -229.926335 
L 235.117361 -232.933467 
L 235.195883 -232.933467 
L 235.195883 -235.940599 
L 237.196586 -235.940599 
L 237.196586 -238.94773 
L 237.215817 -238.94773 
L 237.215817 -241.954862 
L 238.895167 -241.954862 
L 238.895167 -244.961993 
L 239.175307 -244.961993 
L 239.175307 -247.969125 
L 240.466844 -247.969125 
L 240.466844 -250.976257 
L 240.75894 -250.976257 
L 240.75894 -253.983388 
L 241.480992 -253.983388 
L 241.480992 -256.99052 
L 243.695708 -256.99052 
L 243.695708 -259.997651 
L 245.846537 -259.997651 
L 245.846537 -263.004783 
L 247.253867 -263.004783 
L 247.253867 -266.011915 
L 247.95807 -266.011915 
L 247.95807 -269.019046 
L 249.75381 -269.019046 
L 249.75381 -272.026178 
L 250.646892 -272.026178 
L 250.646892 -275.03331 
L 250.788805 -275.03331 
L 250.788805 -278.040441 
L 252.536133 -278.040441 
L 252.536133 -281.047573 
L 257.175935 -281.047573 
L 257.175935 -284.054704 
L 258.527226 -284.054704 
L 258.527226 -287.061836 
L 260.490858 -287.061836 
L 260.490858 -290.068968 
L 260.986194 -290.068968 
L 260.986194 -293.076099 
L 262.221973 -293.076099 
L 262.221973 -296.083231 
L 262.4454 -296.083231 
L 262.4454 -299.090362 
L 266.245443 -299.090362 
L 266.245443 -302.097494 
L 268.032141 -302.097494 
L 268.032141 -305.104626 
L 269.71611 -305.104626 
L 269.71611 -308.111757 
L 270.046188 -308.111757 
L 270.046188 -311.118889 
L 272.905105 -311.118889 
L 272.905105 -314.126021 
L 273.889837 -314.126021 
L 273.889837 -317.133152 
L 275.019351 -317.133152 
L 275.019351 -320.140284 
L 282.438919 -320.140284 
L 282.438919 -323.147415 
L 283.456088 -323.147415 
L 283.456088 -326.154547 
L 288.457187 -326.154547 
L 288.457187 -329.161679 
L 288.644776 -329.161679 
L 288.644776 -332.16881 
L 300.565053 -332.16881 
L 300.565053 -335.175942 
L 304.865987 -335.175942 
L 304.865987 -338.183074 
L 327.512491 -338.183074 
L 327.512491 -341.190205 
L 328.788048 -341.190205 
L 328.788048 -344.197337 
L 328.788048 -43.484175 
L 328.788048 -43.484175 
L 328.788048 -43.484175 
L 327.512491 -43.484175 
L 327.512491 -43.484175 
L 304.865987 -43.484175 
L 304.865987 -43.484175 
L 300.565053 -43.484175 
L 300.565053 -43.484175 
L 288.644776 -43.484175 
L 288.644776 -43.484175 
L 288.457187 -43.484175 
L 288.457187 -43.484175 
L 283.456088 -43.484175 
L 283.456088 -43.484175 
L 282.438919 -43.484175 
L 282.438919 -43.484175 
L 275.019351 -43.484175 
L 275.019351 -43.484175 
L 273.889837 -43.484175 
L 273.889837 -43.484175 
L 272.905105 -43.484175 
L 272.905105 -43.484175 
L 270.046188 -43.484175 
L 270.046188 -43.484175 
L 269.71611 -43.484175 
L 269.71611 -43.484175 
L 268.032141 -43.484175 
L 268.032141 -43.484175 
L 266.245443 -43.484175 
L 266.245443 -43.484175 
L 262.4454 -43.484175 
L 262.4454 -43.484175 
L 262.221973 -43.484175 
L 262.221973 -43.484175 
L 260.986194 -43.484175 
L 260.986194 -43.484175 
L 260.490858 -43.484175 
L 260.490858 -43.484175 
L 258.527226 -43.484175 
L 258.527226 -43.484175 
L 257.175935 -43.484175 
L 257.175935 -43.484175 
L 252.536133 -43.484175 
L 252.536133 -43.484175 
L 250.788805 -43.484175 
L 250.788805 -43.484175 
L 250.646892 -43.484175 
L 250.646892 -43.484175 
L 249.75381 -43.484175 
L 249.75381 -43.484175 
L 247.95807 -43.484175 
L 247.95807 -43.484175 
L 247.253867 -43.484175 
L 247.253867 -43.484175 
L 245.846537 -43.484175 
L 245.846537 -43.484175 
L 243.695708 -43.484175 
L 243.695708 -43.484175 
L 241.480992 -43.484175 
L 241.480992 -43.484175 
L 240.75894 -43.484175 
L 240.75894 -43.484175 
L 240.466844 -43.484175 
L 240.466844 -43.484175 
L 239.175307 -43.484175 
L 239.175307 -43.484175 
L 238.895167 -43.484175 
L 238.895167 -43.484175 
L 237.215817 -43.484175 
L 237.215817 -43.484175 
L 237.196586 -43.484175 
L 237.196586 -43.484175 
L 235.195883 -43.484175 
L 235.195883 -43.484175 
L 235.117361 -43.484175 
L 235.117361 -43.484175 
L 234.561621 -43.484175 
L 234.561621 -43.484175 
L 233.560969 -43.484175 
L 233.560969 -43.484175 
L 233.104441 -43.484175 
L 233.104441 -43.484175 
L 232.980191 -43.484175 
L 232.980191 -43.484175 
L 232.825848 -43.484175 
L 232.825848 -43.484175 
L 232.684642 -43.484175 
L 232.684642 -43.484175 
L 232.292542 -43.484175 
L 232.292542 -43.484175 
L 231.95912 -43.484175 
L 231.95912 -43.484175 
L 231.856719 -43.484175 
L 231.856719 -43.484175 
L 231.053798 -43.484175 
L 231.053798 -43.484175 
L 226.975897 -43.484175 
L 226.975897 -43.484175 
L 225.58246 -43.484175 
L 225.58246 -43.484175 
L 224.598597 -43.484175 
L 224.598597 -43.484175 
L 222.483494 -43.484175 
L 222.483494 -43.484175 
L 221.865998 -43.484175 
L 221.865998 -43.484175 
L 221.315738 -43.484175 
L 221.315738 -43.484175 
L 221.047147 -43.484175 
L 221.047147 -43.484175 
L 219.261519 -43.484175 
L 219.261519 -43.484175 
L 219.208308 -43.484175 
L 219.208308 -43.484175 
L 218.748982 -43.484175 
L 218.748982 -43.484175 
L 218.093757 -43.484175 
L 218.093757 -43.484175 
L 217.631165 -43.484175 
L 217.631165 -43.484175 
L 216.474874 -43.484175 
L 216.474874 -43.484175 
L 215.972169 -43.484175 
L 215.972169 -43.484175 
L 215.675649 -43.484175 
L 215.675649 -43.484175 
L 215.217699 -43.484175 
L 215.217699 -43.484175 
L 214.939637 -43.484175 
L 214.939637 -43.484175 
L 214.746553 -43.484175 
L 214.746553 -43.484175 
L 214.744857 -43.484175 
L 214.744857 -43.484175 
L 214.608419 -43.484175 
L 214.608419 -43.484175 
L 210.664054 -43.484175 
L 210.664054 -43.484175 
L 208.522915 -43.484175 
L 208.522915 -43.484175 
L 207.990808 -43.484175 
L 207.990808 -43.484175 
L 206.710988 -43.484175 
L 206.710988 -43.484175 
L 205.369391 -43.484175 
L 205.369391 -43.484175 
L 205.018677 -43.484175 
L 205.018677 -43.484175 
L 203.973118 -43.484175 
L 203.973118 -43.484175 
L 203.561224 -43.484175 
L 203.561224 -43.484175 
L 202.467917 -43.484175 
L 202.467917 -43.484175 
L 201.980982 -43.484175 
L 201.980982 -43.484175 
L 201.75128 -43.484175 
L 201.75128 -43.484175 
L 201.362089 -43.484175 
L 201.362089 -43.484175 
L 200.321736 -43.484175 
L 200.321736 -43.484175 
L 200.069198 -43.484175 
L 200.069198 -43.484175 
L 199.32548 -43.484175 
L 199.32548 -43.484175 
L 198.286721 -43.484175 
L 198.286721 -43.484175 
L 197.038274 -43.484175 
L 197.038274 -43.484175 
L 195.044827 -43.484175 
L 195.044827 -43.484175 
L 191.025288 -43.484175 
L 191.025288 -43.484175 
L 190.73783 -43.484175 
L 190.73783 -43.484175 
L 189.316042 -43.484175 
L 189.316042 -43.484175 
L 189.025908 -43.484175 
L 189.025908 -43.484175 
L 187.015116 -43.484175 
L 187.015116 -43.484175 
L 181.814724 -43.484175 
L 181.814724 -43.484175 
L 181.486922 -43.484175 
L 181.486922 -43.484175 
L 180.037852 -43.484175 
L 180.037852 -43.484175 
L 179.991977 -43.484175 
L 179.991977 -43.484175 
L 179.135903 -43.484175 
L 179.135903 -43.484175 
L 177.59921 -43.484175 
L 177.59921 -43.484175 
L 167.928903 -43.484175 
L 167.928903 -43.484175 
L 167.349215 -43.484175 
L 167.349215 -43.484175 
L 142.414932 -43.484175 
z
" style="stroke: #8da0cb; stroke-opacity: 0.18; stroke-width: 0.8"/>
    </defs>
    <g clip-path="url(#p9fecdc582a)">
     <use xlink:href="#m0b19565d1a" x="0" y="378.165" style="fill: #8da0cb; fill-opacity: 0.18; stroke: #8da0cb; stroke-opacity: 0.18; stroke-width: 0.8"/>
    </g>
   </g>
   <g id="patch_3">
    <path d="M 47.8164 334.680825 
L 47.8164 27.9534 
" style="fill: none; stroke: #4c4c4c; stroke-width: 0.9; stroke-linejoin: miter; stroke-linecap: square"/>
   </g>
   <g id="patch_4">
    <path d="M 47.8164 334.680825 
L 498.9057 334.680825 
" style="fill: none; stroke: #4c4c4c; stroke-width: 0.9; stroke-linejoin: miter; stroke-linecap: square"/>
   </g>
   <g id="line2d_11">
    <path d="M 177.505484 331.673693 
L 187.741391 331.673693 
L 187.741391 328.666562 
L 209.099662 328.666562 
L 209.099662 325.65943 
L 230.398861 325.65943 
L 230.398861 322.652299 
L 233.423958 322.652299 
L 233.423958 319.645167 
L 240.624704 319.645167 
L 240.624704 316.638035 
L 242.440808 316.638035 
L 242.508827 310.623772 
L 247.149304 310.623772 
L 247.149304 307.61664 
L 261.621204 307.61664 
L 261.621204 304.609509 
L 261.877906 304.609509 
L 261.877906 301.602377 
L 266.756494 301.602377 
L 266.811998 295.588114 
L 269.613098 295.588114 
L 269.613098 292.580982 
L 272.890814 292.580982 
L 272.890814 289.573851 
L 274.531206 289.573851 
L 274.531206 286.566719 
L 279.897046 286.566719 
L 279.897046 283.559587 
L 286.413322 283.559587 
L 286.413322 280.552456 
L 291.221439 280.552456 
L 291.221439 277.545324 
L 294.86352 277.545324 
L 294.86352 274.538193 
L 297.46279 274.538193 
L 297.46279 271.531061 
L 300.336773 271.531061 
L 300.336773 268.523929 
L 301.365197 268.523929 
L 301.365197 265.516798 
L 302.935896 265.516798 
L 302.935896 262.509666 
L 306.247612 262.509666 
L 306.247612 259.502535 
L 307.774016 259.502535 
L 307.774016 256.495403 
L 307.99443 256.495403 
L 307.99443 253.488271 
L 309.051844 253.488271 
L 309.051844 250.48114 
L 310.397603 250.48114 
L 310.397603 247.474008 
L 310.756225 247.474008 
L 310.756225 244.466876 
L 311.798191 244.466876 
L 311.798191 241.459745 
L 312.402226 241.459745 
L 312.402226 238.452613 
L 313.91081 238.452613 
L 313.91081 235.445482 
L 314.343753 235.445482 
L 314.343753 232.43835 
L 315.993451 232.43835 
L 315.993451 229.431218 
L 317.981968 229.431218 
L 317.981968 226.424087 
L 318.998862 226.424087 
L 318.998862 223.416955 
L 321.459802 223.416955 
L 321.459802 220.409824 
L 321.648413 220.409824 
L 321.648413 217.402692 
L 323.76082 217.402692 
L 323.76082 214.39556 
L 324.595901 214.39556 
L 324.595901 211.388429 
L 325.310573 211.388429 
L 325.310573 208.381297 
L 330.853494 208.381297 
L 330.853494 205.374165 
L 330.966784 205.374165 
L 330.966784 202.367034 
L 331.292524 202.367034 
L 331.292524 199.359902 
L 331.446308 199.359902 
L 331.520405 193.345639 
L 334.101581 193.345639 
L 334.101581 190.338507 
L 336.228287 190.338507 
L 336.228287 187.331376 
L 338.455272 187.331376 
L 338.455272 184.324244 
L 339.286014 184.324244 
L 339.286014 181.317112 
L 340.019263 181.317112 
L 340.019263 178.309981 
L 341.227212 178.309981 
L 341.227212 175.302849 
L 347.46606 175.302849 
L 347.46606 172.295718 
L 350.879623 172.295718 
L 350.879623 169.288586 
L 351.945043 169.288586 
L 351.945043 166.281454 
L 358.595698 166.281454 
L 358.595698 163.274323 
L 361.387201 163.274323 
L 361.387201 160.267191 
L 362.854465 160.267191 
L 362.854465 157.26006 
L 363.799602 157.26006 
L 363.799602 154.252928 
L 364.156571 154.252928 
L 364.156571 151.245796 
L 365.971003 151.245796 
L 365.971003 148.238665 
L 366.574074 148.238665 
L 366.574074 145.231533 
L 367.226805 145.231533 
L 367.226805 142.224401 
L 367.427234 142.224401 
L 367.427234 139.21727 
L 367.652131 139.21727 
L 367.652131 136.210138 
L 368.070638 136.210138 
L 368.070638 133.203007 
L 368.890848 133.203007 
L 368.890848 130.195875 
L 371.545453 130.195875 
L 371.545453 127.188743 
L 372.217323 127.188743 
L 372.217323 124.181612 
L 373.741954 124.181612 
L 373.741954 121.17448 
L 377.860747 121.17448 
L 377.896894 115.160217 
L 378.43313 115.160217 
L 378.43313 112.153085 
L 379.754013 112.153085 
L 379.754013 109.145954 
L 381.206075 109.145954 
L 381.206075 106.138822 
L 383.159909 106.138822 
L 383.159909 103.13169 
L 383.272153 103.13169 
L 383.272153 100.124559 
L 384.713423 100.124559 
L 384.713423 97.117427 
L 387.917703 97.117427 
L 387.917703 94.110296 
L 393.689558 94.110296 
L 393.689558 91.103164 
L 394.061032 91.103164 
L 394.061032 88.096032 
L 394.455079 88.096032 
L 394.455079 85.088901 
L 396.287656 85.088901 
L 396.33994 79.074637 
L 396.425218 79.074637 
L 396.425218 76.067506 
L 398.892007 76.067506 
L 398.892007 73.060374 
L 399.450739 73.060374 
L 399.450739 70.053243 
L 405.110617 70.053243 
L 405.110617 67.046111 
L 411.064175 67.046111 
L 411.064175 64.038979 
L 412.429346 64.038979 
L 412.429346 61.031848 
L 419.345085 61.031848 
L 419.345085 58.024716 
L 423.747128 58.024716 
L 423.747128 55.017585 
L 424.188035 55.017585 
L 424.188035 52.010453 
L 425.0654 52.010453 
L 425.0654 49.003321 
L 425.33169 49.003321 
L 425.33169 45.99619 
L 429.463572 45.99619 
L 429.463572 42.989058 
L 444.78841 42.989058 
L 444.78841 39.981926 
L 460.798352 39.981926 
L 460.798352 36.974795 
L 478.401641 36.974795 
L 478.401641 33.967663 
L 478.401641 33.967663 
" clip-path="url(#p9fecdc582a)" style="fill: none; stroke: #66c2a5; stroke-width: 2.2; stroke-linecap: round"/>
   </g>
   <g id="text_12">
    <!-- 2.7 ms -->
    <g style="fill: #66c2a5" transform="translate(346.871877 190.662135) scale(0.09 -0.09)">
     <defs>
      <path id="DejaVuSans-Bold-15" d="M 1844 884 
L 3897 884 
L 3897 0 
L 506 0 
L 506 884 
L 2209 2388 
Q 2438 2594 2547 2791 
Q 2656 2988 2656 3200 
Q 2656 3528 2436 3728 
Q 2216 3928 1850 3928 
Q 1569 3928 1234 3808 
Q 900 3688 519 3450 
L 519 4475 
Q 925 4609 1322 4679 
Q 1719 4750 2100 4750 
Q 2938 4750 3402 4381 
Q 3866 4013 3866 3353 
Q 3866 2972 3669 2642 
Q 3472 2313 2841 1759 
L 1844 884 
z
" transform="scale(0.015625)"/>
      <path id="DejaVuSans-Bold-11" d="M 653 1209 
L 1778 1209 
L 1778 0 
L 653 0 
L 653 1209 
z
" transform="scale(0.015625)"/>
      <path id="DejaVuSans-Bold-1a" d="M 428 4666 
L 3944 4666 
L 3944 3988 
L 2125 0 
L 953 0 
L 2675 3781 
L 428 3781 
L 428 4666 
z
" transform="scale(0.015625)"/>
      <path id="DejaVuSans-Bold-3" transform="scale(0.015625)"/>
      <path id="DejaVuSans-Bold-50" d="M 3781 2919 
Q 3994 3244 4286 3414 
Q 4578 3584 4928 3584 
Q 5531 3584 5847 3212 
Q 6163 2841 6163 2131 
L 6163 0 
L 5038 0 
L 5038 1825 
Q 5041 1866 5042 1909 
Q 5044 1953 5044 2034 
Q 5044 2406 4934 2573 
Q 4825 2741 4581 2741 
Q 4263 2741 4089 2478 
Q 3916 2216 3909 1719 
L 3909 0 
L 2784 0 
L 2784 1825 
Q 2784 2406 2684 2573 
Q 2584 2741 2328 2741 
Q 2006 2741 1831 2477 
Q 1656 2213 1656 1722 
L 1656 0 
L 531 0 
L 531 3500 
L 1656 3500 
L 1656 2988 
Q 1863 3284 2130 3434 
Q 2397 3584 2719 3584 
Q 3081 3584 3359 3409 
Q 3638 3234 3781 2919 
z
" transform="scale(0.015625)"/>
      <path id="DejaVuSans-Bold-56" d="M 3272 3391 
L 3272 2541 
Q 2913 2691 2578 2766 
Q 2244 2841 1947 2841 
Q 1628 2841 1473 2761 
Q 1319 2681 1319 2516 
Q 1319 2381 1436 2309 
Q 1553 2238 1856 2203 
L 2053 2175 
Q 2913 2066 3209 1816 
Q 3506 1566 3506 1031 
Q 3506 472 3093 190 
Q 2681 -91 1863 -91 
Q 1516 -91 1145 -36 
Q 775 19 384 128 
L 384 978 
Q 719 816 1070 734 
Q 1422 653 1784 653 
Q 2113 653 2278 743 
Q 2444 834 2444 1013 
Q 2444 1163 2330 1236 
Q 2216 1309 1875 1350 
L 1678 1375 
Q 931 1469 631 1722 
Q 331 1975 331 2491 
Q 331 3047 712 3315 
Q 1094 3584 1881 3584 
Q 2191 3584 2531 3537 
Q 2872 3491 3272 3391 
z
" transform="scale(0.015625)"/>
     </defs>
     <use xlink:href="#DejaVuSans-Bold-15"/>
     <use xlink:href="#DejaVuSans-Bold-11" transform="translate(69.578125 0)"/>
     <use xlink:href="#DejaVuSans-Bold-1a" transform="translate(107.5625 0)"/>
     <use xlink:href="#DejaVuSans-Bold-3" transform="translate(177.140625 0)"/>
     <use xlink:href="#DejaVuSans-Bold-50" transform="translate(211.953125 0)"/>
     <use xlink:href="#DejaVuSans-Bold-56" transform="translate(316.15625 0)"/>
    </g>
   </g>
   <g id="line2d_12">
    <path d="M 68.320459 331.673693 
L 74.15663 331.673693 
L 74.15663 328.666562 
L 80.800363 328.666562 
L 80.800363 325.65943 
L 83.296209 325.65943 
L 83.296209 322.652299 
L 83.945581 322.652299 
L 83.945581 319.645167 
L 85.15956 319.645167 
L 85.15956 316.638035 
L 85.553376 316.638035 
L 85.553376 313.630904 
L 92.102697 313.630904 
L 92.102697 310.623772 
L 94.800865 310.623772 
L 94.828314 304.609509 
L 96.918453 304.609509 
L 96.918453 301.602377 
L 97.45656 301.602377 
L 97.45656 298.595246 
L 98.41141 298.595246 
L 98.41141 295.588114 
L 101.419734 295.588114 
L 101.419734 292.580982 
L 104.040537 292.580982 
L 104.040537 289.573851 
L 105.513984 289.573851 
L 105.513984 286.566719 
L 108.238585 286.566719 
L 108.238585 283.559587 
L 109.345362 283.559587 
L 109.345362 280.552456 
L 110.745617 280.552456 
L 110.745617 277.545324 
L 110.967213 277.545324 
L 110.967213 274.538193 
L 111.274916 274.538193 
L 111.274916 271.531061 
L 113.357517 271.531061 
L 113.357517 268.523929 
L 114.751352 268.523929 
L 114.751352 265.516798 
L 117.229001 265.516798 
L 117.229001 262.509666 
L 119.301096 262.509666 
L 119.301096 259.502535 
L 120.495654 259.502535 
L 120.495654 256.495403 
L 121.315866 256.495403 
L 121.315866 253.488271 
L 121.920841 253.488271 
L 121.920841 250.48114 
L 122.230357 250.48114 
L 122.230357 247.474008 
L 122.705601 247.474008 
L 122.705601 244.466876 
L 123.429267 244.466876 
L 123.429267 241.459745 
L 124.039449 241.459745 
L 124.039449 238.452613 
L 124.206375 238.452613 
L 124.206375 235.445482 
L 124.400433 235.445482 
L 124.400433 232.43835 
L 124.907494 232.43835 
L 124.907494 229.431218 
L 126.245224 229.431218 
L 126.245224 226.424087 
L 127.054021 226.424087 
L 127.152373 220.409824 
L 128.370767 220.409824 
L 128.370767 217.402692 
L 128.645121 217.402692 
L 128.645121 214.39556 
L 130.605445 214.39556 
L 130.605445 211.388429 
L 131.870148 211.388429 
L 131.870148 208.381297 
L 132.216565 208.381297 
L 132.216565 205.374165 
L 134.312913 205.374165 
L 134.312913 202.367034 
L 134.460933 202.367034 
L 134.460933 199.359902 
L 135.231493 199.359902 
L 135.231493 196.352771 
L 135.930334 196.352771 
L 135.939382 190.338507 
L 136.202232 190.338507 
L 136.202232 187.331376 
L 136.514652 187.331376 
L 136.514652 184.324244 
L 136.791818 184.324244 
L 136.791818 181.317112 
L 138.618438 181.317112 
L 138.618438 178.309981 
L 138.8979 178.309981 
L 138.8979 175.302849 
L 141.066822 175.302849 
L 141.066822 172.295718 
L 141.208727 172.295718 
L 141.318605 166.281454 
L 141.963349 166.281454 
L 142.05067 160.267191 
L 143.030326 160.267191 
L 143.030326 157.26006 
L 144.0838 157.26006 
L 144.0838 154.252928 
L 145.524264 154.252928 
L 145.524264 151.245796 
L 146.418621 151.245796 
L 146.418621 148.238665 
L 146.964923 148.238665 
L 146.964923 145.231533 
L 148.49834 145.231533 
L 148.49834 142.224401 
L 149.065003 142.224401 
L 149.065003 139.21727 
L 149.325391 139.21727 
L 149.411449 133.203007 
L 150.133831 133.203007 
L 150.133831 130.195875 
L 151.170858 130.195875 
L 151.170858 127.188743 
L 151.985983 127.188743 
L 151.985983 124.181612 
L 153.005408 124.181612 
L 153.005408 121.17448 
L 153.887255 121.17448 
L 153.959046 115.160217 
L 156.173018 115.160217 
L 156.173018 112.153085 
L 156.847102 112.153085 
L 156.947656 106.138822 
L 157.681711 106.138822 
L 157.681711 103.13169 
L 157.889337 103.13169 
L 157.889337 100.124559 
L 158.144886 100.124559 
L 158.144886 97.117427 
L 160.664633 97.117427 
L 160.664633 94.110296 
L 161.616902 94.110296 
L 161.616902 91.103164 
L 164.65479 91.103164 
L 164.67026 85.088901 
L 166.066373 85.088901 
L 166.066373 82.081769 
L 167.960834 82.081769 
L 167.960834 79.074637 
L 173.716058 79.074637 
L 173.716058 76.067506 
L 174.452971 76.067506 
L 174.452971 73.060374 
L 177.519406 73.060374 
L 177.519406 70.053243 
L 179.750452 70.053243 
L 179.750452 67.046111 
L 181.06476 67.046111 
L 181.06476 64.038979 
L 182.956388 64.038979 
L 182.956388 61.031848 
L 183.120222 61.031848 
L 183.120222 58.024716 
L 184.381544 58.024716 
L 184.381544 55.017585 
L 191.227426 55.017585 
L 191.227426 52.010453 
L 197.769848 52.010453 
L 197.769848 49.003321 
L 206.641937 49.003321 
L 206.641937 45.99619 
L 211.920028 45.99619 
L 211.920028 42.989058 
L 237.144681 42.989058 
L 237.144681 39.981926 
L 252.681523 39.981926 
L 252.681523 36.974795 
L 255.637916 36.974795 
L 255.637916 33.967663 
L 255.637916 33.967663 
" clip-path="url(#p9fecdc582a)" style="fill: none; stroke: #fc8d62; stroke-width: 2.2; stroke-linecap: round"/>
   </g>
   <g id="text_13">
    <!-- 0.15 ms -->
    <g style="fill: #fc8d62" transform="translate(144.653372 178.662135) scale(0.09 -0.09)">
     <defs>
      <path id="DejaVuSans-Bold-13" d="M 2944 2338 
Q 2944 3213 2780 3570 
Q 2616 3928 2228 3928 
Q 1841 3928 1675 3570 
Q 1509 3213 1509 2338 
Q 1509 1453 1675 1090 
Q 1841 728 2228 728 
Q 2613 728 2778 1090 
Q 2944 1453 2944 2338 
z
M 4147 2328 
Q 4147 1169 3647 539 
Q 3147 -91 2228 -91 
Q 1306 -91 806 539 
Q 306 1169 306 2328 
Q 306 3491 806 4120 
Q 1306 4750 2228 4750 
Q 3147 4750 3647 4120 
Q 4147 3491 4147 2328 
z
" transform="scale(0.015625)"/>
      <path id="DejaVuSans-Bold-14" d="M 750 831 
L 1813 831 
L 1813 3847 
L 722 3622 
L 722 4441 
L 1806 4666 
L 2950 4666 
L 2950 831 
L 4013 831 
L 4013 0 
L 750 0 
L 750 831 
z
" transform="scale(0.015625)"/>
      <path id="DejaVuSans-Bold-18" d="M 678 4666 
L 3669 4666 
L 3669 3781 
L 1638 3781 
L 1638 3059 
Q 1775 3097 1914 3117 
Q 2053 3138 2203 3138 
Q 3056 3138 3531 2711 
Q 4006 2284 4006 1522 
Q 4006 766 3489 337 
Q 2972 -91 2053 -91 
Q 1656 -91 1267 -14 
Q 878 63 494 219 
L 494 1166 
Q 875 947 1217 837 
Q 1559 728 1863 728 
Q 2300 728 2551 942 
Q 2803 1156 2803 1522 
Q 2803 1891 2551 2103 
Q 2300 2316 1863 2316 
Q 1603 2316 1309 2248 
Q 1016 2181 678 2041 
L 678 4666 
z
" transform="scale(0.015625)"/>
     </defs>
     <use xlink:href="#DejaVuSans-Bold-13"/>
     <use xlink:href="#DejaVuSans-Bold-11" transform="translate(69.578125 0)"/>
     <use xlink:href="#DejaVuSans-Bold-14" transform="translate(107.5625 0)"/>
     <use xlink:href="#DejaVuSans-Bold-18" transform="translate(177.140625 0)"/>
     <use xlink:href="#DejaVuSans-Bold-3" transform="translate(246.71875 0)"/>
     <use xlink:href="#DejaVuSans-Bold-50" transform="translate(281.53125 0)"/>
     <use xlink:href="#DejaVuSans-Bold-56" transform="translate(385.734375 0)"/>
    </g>
   </g>
   <g id="line2d_13">
    <path d="M 142.414932 331.673693 
L 167.349215 331.673693 
L 167.349215 328.666562 
L 167.928903 328.666562 
L 167.928903 325.65943 
L 177.59921 325.65943 
L 177.59921 322.652299 
L 179.135903 322.652299 
L 179.135903 319.645167 
L 179.991977 319.645167 
L 180.037852 313.630904 
L 181.486922 313.630904 
L 181.486922 310.623772 
L 181.814724 310.623772 
L 181.814724 307.61664 
L 187.015116 307.61664 
L 187.015116 304.609509 
L 189.025908 304.609509 
L 189.025908 301.602377 
L 189.316042 301.602377 
L 189.316042 298.595246 
L 190.73783 298.595246 
L 190.73783 295.588114 
L 191.025288 295.588114 
L 191.025288 292.580982 
L 195.044827 292.580982 
L 195.044827 289.573851 
L 197.038274 289.573851 
L 197.038274 286.566719 
L 198.286721 286.566719 
L 198.286721 283.559587 
L 199.32548 283.559587 
L 199.32548 280.552456 
L 200.069198 280.552456 
L 200.069198 277.545324 
L 200.321736 277.545324 
L 200.321736 274.538193 
L 201.362089 274.538193 
L 201.362089 271.531061 
L 201.75128 271.531061 
L 201.75128 268.523929 
L 201.980982 268.523929 
L 201.980982 265.516798 
L 202.467917 265.516798 
L 202.467917 262.509666 
L 203.561224 262.509666 
L 203.561224 259.502535 
L 203.973118 259.502535 
L 203.973118 256.495403 
L 205.018677 256.495403 
L 205.018677 253.488271 
L 205.369391 253.488271 
L 205.369391 250.48114 
L 206.710988 250.48114 
L 206.710988 247.474008 
L 207.990808 247.474008 
L 207.990808 244.466876 
L 208.522915 244.466876 
L 208.522915 241.459745 
L 210.664054 241.459745 
L 210.664054 238.452613 
L 214.608419 238.452613 
L 214.608419 235.445482 
L 214.744857 235.445482 
L 214.746553 229.431218 
L 214.939637 229.431218 
L 214.939637 226.424087 
L 215.217699 226.424087 
L 215.217699 223.416955 
L 215.675649 223.416955 
L 215.675649 220.409824 
L 215.972169 220.409824 
L 215.972169 217.402692 
L 216.474874 217.402692 
L 216.474874 214.39556 
L 217.631165 214.39556 
L 217.631165 211.388429 
L 218.093757 211.388429 
L 218.093757 208.381297 
L 218.748982 208.381297 
L 218.748982 205.374165 
L 219.208308 205.374165 
L 219.261519 199.359902 
L 221.047147 199.359902 
L 221.047147 196.352771 
L 221.315738 196.352771 
L 221.315738 193.345639 
L 221.865998 193.345639 
L 221.865998 190.338507 
L 222.483494 190.338507 
L 222.483494 187.331376 
L 224.598597 187.331376 
L 224.598597 184.324244 
L 225.58246 184.324244 
L 225.58246 181.317112 
L 226.975897 181.317112 
L 226.975897 178.309981 
L 231.053798 178.309981 
L 231.053798 175.302849 
L 231.856719 175.302849 
L 231.95912 169.288586 
L 232.292542 169.288586 
L 232.292542 166.281454 
L 232.684642 166.281454 
L 232.684642 163.274323 
L 232.825848 163.274323 
L 232.825848 160.267191 
L 232.980191 160.267191 
L 232.980191 157.26006 
L 233.104441 157.26006 
L 233.104441 154.252928 
L 233.560969 154.252928 
L 233.560969 151.245796 
L 234.561621 151.245796 
L 234.561621 148.238665 
L 235.117361 148.238665 
L 235.195883 142.224401 
L 237.196586 142.224401 
L 237.215817 136.210138 
L 238.895167 136.210138 
L 238.895167 133.203007 
L 239.175307 133.203007 
L 239.175307 130.195875 
L 240.466844 130.195875 
L 240.466844 127.188743 
L 240.75894 127.188743 
L 240.75894 124.181612 
L 241.480992 124.181612 
L 241.480992 121.17448 
L 243.695708 121.17448 
L 243.695708 118.167349 
L 245.846537 118.167349 
L 245.846537 115.160217 
L 247.253867 115.160217 
L 247.253867 112.153085 
L 247.95807 112.153085 
L 247.95807 109.145954 
L 249.75381 109.145954 
L 249.75381 106.138822 
L 250.646892 106.138822 
L 250.646892 103.13169 
L 250.788805 103.13169 
L 250.788805 100.124559 
L 252.536133 100.124559 
L 252.536133 97.117427 
L 257.175935 97.117427 
L 257.175935 94.110296 
L 258.527226 94.110296 
L 258.527226 91.103164 
L 260.490858 91.103164 
L 260.490858 88.096032 
L 260.986194 88.096032 
L 260.986194 85.088901 
L 262.221973 85.088901 
L 262.221973 82.081769 
L 262.4454 82.081769 
L 262.4454 79.074637 
L 266.245443 79.074637 
L 266.245443 76.067506 
L 268.032141 76.067506 
L 268.032141 73.060374 
L 269.71611 73.060374 
L 269.71611 70.053243 
L 270.046188 70.053243 
L 270.046188 67.046111 
L 272.905105 67.046111 
L 272.905105 64.038979 
L 273.889837 64.038979 
L 273.889837 61.031848 
L 275.019351 61.031848 
L 275.019351 58.024716 
L 282.438919 58.024716 
L 282.438919 55.017585 
L 283.456088 55.017585 
L 283.456088 52.010453 
L 288.457187 52.010453 
L 288.457187 49.003321 
L 288.644776 49.003321 
L 288.644776 45.99619 
L 300.565053 45.99619 
L 300.565053 42.989058 
L 304.865987 42.989058 
L 304.865987 39.981926 
L 327.512491 39.981926 
L 327.512491 36.974795 
L 328.788048 36.974795 
L 328.788048 33.967663 
L 328.788048 33.967663 
" clip-path="url(#p9fecdc582a)" style="fill: none; stroke: #8da0cb; stroke-width: 2.2; stroke-linecap: round"/>
   </g>
   <g id="text_14">
    <!-- 0.53 ms -->
    <g style="fill: #8da0cb" transform="translate(233.09226 166.662135) scale(0.09 -0.09)">
     <defs>
      <path id="DejaVuSans-Bold-16" d="M 2981 2516 
Q 3453 2394 3698 2092 
Q 3944 1791 3944 1325 
Q 3944 631 3412 270 
Q 2881 -91 1863 -91 
Q 1503 -91 1142 -33 
Q 781 25 428 141 
L 428 1069 
Q 766 900 1098 814 
Q 1431 728 1753 728 
Q 2231 728 2486 893 
Q 2741 1059 2741 1369 
Q 2741 1688 2480 1852 
Q 2219 2016 1709 2016 
L 1228 2016 
L 1228 2791 
L 1734 2791 
Q 2188 2791 2409 2933 
Q 2631 3075 2631 3366 
Q 2631 3634 2415 3781 
Q 2200 3928 1806 3928 
Q 1516 3928 1219 3862 
Q 922 3797 628 3669 
L 628 4550 
Q 984 4650 1334 4700 
Q 1684 4750 2022 4750 
Q 2931 4750 3382 4451 
Q 3834 4153 3834 3553 
Q 3834 3144 3618 2883 
Q 3403 2622 2981 2516 
z
" transform="scale(0.015625)"/>
     </defs>
     <use xlink:href="#DejaVuSans-Bold-13"/>
     <use xlink:href="#DejaVuSans-Bold-11" transform="translate(69.578125 0)"/>
     <use xlink:href="#DejaVuSans-Bold-18" transform="translate(107.5625 0)"/>
     <use xlink:href="#DejaVuSans-Bold-16" transform="translate(177.140625 0)"/>
     <use xlink:href="#DejaVuSans-Bold-3" transform="translate(246.71875 0)"/>
     <use xlink:href="#DejaVuSans-Bold-50" transform="translate(281.53125 0)"/>
     <use xlink:href="#DejaVuSans-Bold-56" transform="translate(385.734375 0)"/>
    </g>
   </g>
   <g id="text_15">
    <!-- Total time (ms): empirical CDF -->
    <g style="fill: #262626" transform="translate(174.92715 15.9534) scale(0.1152 -0.1152)">
     <defs>
      <path id="DejaVuSans-Bold-37" d="M 31 4666 
L 4331 4666 
L 4331 3756 
L 2784 3756 
L 2784 0 
L 1581 0 
L 1581 3756 
L 31 3756 
L 31 4666 
z
" transform="scale(0.015625)"/>
      <path id="DejaVuSans-Bold-52" d="M 2203 2784 
Q 1831 2784 1636 2517 
Q 1441 2250 1441 1747 
Q 1441 1244 1636 976 
Q 1831 709 2203 709 
Q 2569 709 2762 976 
Q 2956 1244 2956 1747 
Q 2956 2250 2762 2517 
Q 2569 2784 2203 2784 
z
M 2203 3584 
Q 3106 3584 3614 3096 
Q 4122 2609 4122 1747 
Q 4122 884 3614 396 
Q 3106 -91 2203 -91 
Q 1297 -91 786 396 
Q 275 884 275 1747 
Q 275 2609 786 3096 
Q 1297 3584 2203 3584 
z
" transform="scale(0.015625)"/>
      <path id="DejaVuSans-Bold-57" d="M 1759 4494 
L 1759 3500 
L 2913 3500 
L 2913 2700 
L 1759 2700 
L 1759 1216 
Q 1759 972 1856 886 
Q 1953 800 2241 800 
L 2816 800 
L 2816 0 
L 1856 0 
Q 1194 0 917 276 
Q 641 553 641 1216 
L 641 2700 
L 84 2700 
L 84 3500 
L 641 3500 
L 641 4494 
L 1759 4494 
z
" transform="scale(0.015625)"/>
      <path id="DejaVuSans-Bold-44" d="M 2106 1575 
Q 1756 1575 1579 1456 
Q 1403 1338 1403 1106 
Q 1403 894 1545 773 
Q 1688 653 1941 653 
Q 2256 653 2472 879 
Q 2688 1106 2688 1447 
L 2688 1575 
L 2106 1575 
z
M 3816 1997 
L 3816 0 
L 2688 0 
L 2688 519 
Q 2463 200 2181 54 
Q 1900 -91 1497 -91 
Q 953 -91 614 226 
Q 275 544 275 1050 
Q 275 1666 698 1953 
Q 1122 2241 2028 2241 
L 2688 2241 
L 2688 2328 
Q 2688 2594 2478 2717 
Q 2269 2841 1825 2841 
Q 1466 2841 1156 2769 
Q 847 2697 581 2553 
L 581 3406 
Q 941 3494 1303 3539 
Q 1666 3584 2028 3584 
Q 2975 3584 3395 3211 
Q 3816 2838 3816 1997 
z
" transform="scale(0.015625)"/>
      <path id="DejaVuSans-Bold-4f" d="M 538 4863 
L 1656 4863 
L 1656 0 
L 538 0 
L 538 4863 
z
" transform="scale(0.015625)"/>
      <path id="DejaVuSans-Bold-4c" d="M 538 3500 
L 1656 3500 
L 1656 0 
L 538 0 
L 538 3500 
z
M 538 4863 
L 1656 4863 
L 1656 3950 
L 538 3950 
L 538 4863 
z
" transform="scale(0.015625)"/>
      <path id="DejaVuSans-Bold-48" d="M 4031 1759 
L 4031 1441 
L 1416 1441 
Q 1456 1047 1700 850 
Q 1944 653 2381 653 
Q 2734 653 3104 758 
Q 3475 863 3866 1075 
L 3866 213 
Q 3469 63 3072 -14 
Q 2675 -91 2278 -91 
Q 1328 -91 801 392 
Q 275 875 275 1747 
Q 275 2603 792 3093 
Q 1309 3584 2216 3584 
Q 3041 3584 3536 3087 
Q 4031 2591 4031 1759 
z
M 2881 2131 
Q 2881 2450 2695 2645 
Q 2509 2841 2209 2841 
Q 1884 2841 1681 2658 
Q 1478 2475 1428 2131 
L 2881 2131 
z
" transform="scale(0.015625)"/>
      <path id="DejaVuSans-Bold-b" d="M 2413 -844 
L 1484 -844 
Q 1006 -72 778 623 
Q 550 1319 550 2003 
Q 550 2688 779 3389 
Q 1009 4091 1484 4856 
L 2413 4856 
Q 2013 4116 1813 3408 
Q 1613 2700 1613 2009 
Q 1613 1319 1811 609 
Q 2009 -100 2413 -844 
z
" transform="scale(0.015625)"/>
      <path id="DejaVuSans-Bold-c" d="M 513 -844 
Q 913 -100 1113 609 
Q 1313 1319 1313 2009 
Q 1313 2700 1113 3408 
Q 913 4116 513 4856 
L 1441 4856 
Q 1916 4091 2145 3389 
Q 2375 2688 2375 2003 
Q 2375 1319 2147 623 
Q 1919 -72 1441 -844 
L 513 -844 
z
" transform="scale(0.015625)"/>
      <path id="DejaVuSans-Bold-1d" d="M 716 3500 
L 1844 3500 
L 1844 2291 
L 716 2291 
L 716 3500 
z
M 716 1209 
L 1844 1209 
L 1844 0 
L 716 0 
L 716 1209 
z
" transform="scale(0.015625)"/>
      <path id="DejaVuSans-Bold-53" d="M 1656 506 
L 1656 -1331 
L 538 -1331 
L 538 3500 
L 1656 3500 
L 1656 2988 
Q 1888 3294 2169 3439 
Q 2450 3584 2816 3584 
Q 3463 3584 3878 3070 
Q 4294 2556 4294 1747 
Q 4294 938 3878 423 
Q 3463 -91 2816 -91 
Q 2450 -91 2169 54 
Q 1888 200 1656 506 
z
M 2400 2772 
Q 2041 2772 1848 2508 
Q 1656 2244 1656 1747 
Q 1656 1250 1848 986 
Q 2041 722 2400 722 
Q 2759 722 2948 984 
Q 3138 1247 3138 1747 
Q 3138 2247 2948 2509 
Q 2759 2772 2400 2772 
z
" transform="scale(0.015625)"/>
      <path id="DejaVuSans-Bold-55" d="M 3138 2547 
Q 2991 2616 2845 2648 
Q 2700 2681 2553 2681 
Q 2122 2681 1889 2404 
Q 1656 2128 1656 1613 
L 1656 0 
L 538 0 
L 538 3500 
L 1656 3500 
L 1656 2925 
Q 1872 3269 2151 3426 
Q 2431 3584 2822 3584 
Q 2878 3584 2943 3579 
Q 3009 3575 3134 3559 
L 3138 2547 
z
" transform="scale(0.015625)"/>
      <path id="DejaVuSans-Bold-46" d="M 3366 3391 
L 3366 2478 
Q 3138 2634 2908 2709 
Q 2678 2784 2431 2784 
Q 1963 2784 1702 2511 
Q 1441 2238 1441 1747 
Q 1441 1256 1702 982 
Q 1963 709 2431 709 
Q 2694 709 2930 787 
Q 3166 866 3366 1019 
L 3366 103 
Q 3103 6 2833 -42 
Q 2563 -91 2291 -91 
Q 1344 -91 809 395 
Q 275 881 275 1747 
Q 275 2613 809 3098 
Q 1344 3584 2291 3584 
Q 2566 3584 2833 3536 
Q 3100 3488 3366 3391 
z
" transform="scale(0.015625)"/>
      <path id="DejaVuSans-Bold-26" d="M 4288 256 
Q 3956 84 3597 -3 
Q 3238 -91 2847 -91 
Q 1681 -91 1000 561 
Q 319 1213 319 2328 
Q 319 3447 1000 4098 
Q 1681 4750 2847 4750 
Q 3238 4750 3597 4662 
Q 3956 4575 4288 4403 
L 4288 3438 
Q 3953 3666 3628 3772 
Q 3303 3878 2944 3878 
Q 2300 3878 1931 3465 
Q 1563 3053 1563 2328 
Q 1563 1606 1931 1193 
Q 2300 781 2944 781 
Q 3303 781 3628 887 
Q 3953 994 4288 1222 
L 4288 256 
z
" transform="scale(0.015625)"/>
      <path id="DejaVuSans-Bold-27" d="M 1791 3756 
L 1791 909 
L 2222 909 
Q 2959 909 3348 1275 
Q 3738 1641 3738 2338 
Q 3738 3031 3350 3393 
Q 2963 3756 2222 3756 
L 1791 3756 
z
M 588 4666 
L 1856 4666 
Q 2919 4666 3439 4514 
Q 3959 4363 4331 4000 
Q 4659 3684 4818 3271 
Q 4978 2859 4978 2338 
Q 4978 1809 4818 1395 
Q 4659 981 4331 666 
Q 3956 303 3431 151 
Q 2906 0 1856 0 
L 588 0 
L 588 4666 
z
" transform="scale(0.015625)"/>
      <path id="DejaVuSans-Bold-29" d="M 588 4666 
L 3834 4666 
L 3834 3756 
L 1791 3756 
L 1791 2888 
L 3713 2888 
L 3713 1978 
L 1791 1978 
L 1791 0 
L 588 0 
L 588 4666 
z
" transform="scale(0.015625)"/>
     </defs>
     <use xlink:href="#DejaVuSans-Bold-37"/>
     <use xlink:href="#DejaVuSans-Bold-52" transform="translate(54.9375 0)"/>
     <use xlink:href="#DejaVuSans-Bold-57" transform="translate(123.640625 0)"/>
     <use xlink:href="#DejaVuSans-Bold-44" transform="translate(171.4375 0)"/>
     <use xlink:href="#DejaVuSans-Bold-4f" transform="translate(238.921875 0)"/>
     <use xlink:href="#DejaVuSans-Bold-3" transform="translate(273.203125 0)"/>
     <use xlink:href="#DejaVuSans-Bold-57" transform="translate(308.015625 0)"/>
     <use xlink:href="#DejaVuSans-Bold-4c" transform="translate(355.8125 0)"/>
     <use xlink:href="#DejaVuSans-Bold-50" transform="translate(390.09375 0)"/>
     <use xlink:href="#DejaVuSans-Bold-48" transform="translate(494.296875 0)"/>
     <use xlink:href="#DejaVuSans-Bold-3" transform="translate(562.125 0)"/>
     <use xlink:href="#DejaVuSans-Bold-b" transform="translate(596.9375 0)"/>
     <use xlink:href="#DejaVuSans-Bold-50" transform="translate(642.640625 0)"/>
     <use xlink:href="#DejaVuSans-Bold-56" transform="translate(746.84375 0)"/>
     <use xlink:href="#DejaVuSans-Bold-c" transform="translate(806.359375 0)"/>
     <use xlink:href="#DejaVuSans-Bold-1d" transform="translate(852.0625 0)"/>
     <use xlink:href="#DejaVuSans-Bold-3" transform="translate(892.046875 0)"/>
     <use xlink:href="#DejaVuSans-Bold-48" transform="translate(926.859375 0)"/>
     <use xlink:href="#DejaVuSans-Bold-50" transform="translate(994.6875 0)"/>
     <use xlink:href="#DejaVuSans-Bold-53" transform="translate(1098.890625 0)"/>
     <use xlink:href="#DejaVuSans-Bold-4c" transform="translate(1170.46875 0)"/>
     <use xlink:href="#DejaVuSans-Bold-55" transform="translate(1204.75 0)"/>
     <use xlink:href="#DejaVuSans-Bold-4c" transform="translate(1254.0625 0)"/>
     <use xlink:href="#DejaVuSans-Bold-46" transform="translate(1288.34375 0)"/>
     <use xlink:href="#DejaVuSans-Bold-44" transform="translate(1347.625 0)"/>
     <use xlink:href="#DejaVuSans-Bold-4f" transform="translate(1415.109375 0)"/>
     <use xlink:href="#DejaVuSans-Bold-3" transform="translate(1449.390625 0)"/>
     <use xlink:href="#DejaVuSans-Bold-26" transform="translate(1484.203125 0)"/>
     <use xlink:href="#DejaVuSans-Bold-27" transform="translate(1557.59375 0)"/>
     <use xlink:href="#DejaVuSans-Bold-29" transform="translate(1640.609375 0)"/>
    </g>
   </g>
   <g id="line2d_14">
    <path d="M 338.871877 184.324244 
" clip-path="url(#p9fecdc582a)" style="fill: none; stroke: #66c2a5; stroke-width: 1.2; stroke-linecap: round"/>
    <defs>
     <path id="mf797974241" d="M 0 3.75 
C 0.994512 3.75 1.948425 3.354876 2.65165 2.65165 
C 3.354876 1.948425 3.75 0.994512 3.75 0 
C 3.75 -0.994512 3.354876 -1.948425 2.65165 -2.65165 
C 1.948425 -3.354876 0.994512 -3.75 0 -3.75 
C -0.994512 -3.75 -1.948425 -3.354876 -2.65165 -2.65165 
C -3.354876 -1.948425 -3.75 -0.994512 -3.75 0 
C -3.75 0.994512 -3.354876 1.948425 -2.65165 2.65165 
C -1.948425 3.354876 -0.994512 3.75 0 3.75 
z
" style="stroke: #ffffff; stroke-width: 1.3"/>
    </defs>
    <g clip-path="url(#p9fecdc582a)">
     <use xlink:href="#mf797974241" x="338.871877" y="184.324244" style="fill: #66c2a5; stroke: #ffffff; stroke-width: 1.3"/>
    </g>
   </g>
   <g id="line2d_15">
    <path d="M 136.653372 184.324244 
" clip-path="url(#p9fecdc582a)" style="fill: none; stroke: #fc8d62; stroke-width: 1.2; stroke-linecap: round"/>
    <defs>
     <path id="mc27db7ccd4" d="M 0 3.75 
C 0.994512 3.75 1.948425 3.354876 2.65165 2.65165 
C 3.354876 1.948425 3.75 0.994512 3.75 0 
C 3.75 -0.994512 3.354876 -1.948425 2.65165 -2.65165 
C 1.948425 -3.354876 0.994512 -3.75 0 -3.75 
C -0.994512 -3.75 -1.948425 -3.354876 -2.65165 -2.65165 
C -3.354876 -1.948425 -3.75 -0.994512 -3.75 0 
C -3.75 0.994512 -3.354876 1.948425 -2.65165 2.65165 
C -1.948425 3.354876 -0.994512 3.75 0 3.75 
z
" style="stroke: #ffffff; stroke-width: 1.3"/>
    </defs>
    <g clip-path="url(#p9fecdc582a)">
     <use xlink:href="#mc27db7ccd4" x="136.653372" y="184.324244" style="fill: #fc8d62; stroke: #ffffff; stroke-width: 1.3"/>
    </g>
   </g>
   <g id="line2d_16">
    <path d="M 225.09226 184.324244 
" clip-path="url(#p9fecdc582a)" style="fill: none; stroke: #8da0cb; stroke-width: 1.2; stroke-linecap: round"/>
    <defs>
     <path id="mbfa814dc53" d="M 0 3.75 
C 0.994512 3.75 1.948425 3.354876 2.65165 2.65165 
C 3.354876 1.948425 3.75 0.994512 3.75 0 
C 3.75 -0.994512 3.354876 -1.948425 2.65165 -2.65165 
C 1.948425 -3.354876 0.994512 -3.75 0 -3.75 
C -0.994512 -3.75 -1.948425 -3.354876 -2.65165 -2.65165 
C -3.354876 -1.948425 -3.75 -0.994512 -3.75 0 
C -3.75 0.994512 -3.354876 1.948425 -2.65165 2.65165 
C -1.948425 3.354876 -0.994512 3.75 0 3.75 
z
" style="stroke: #ffffff; stroke-width: 1.3"/>
    </defs>
    <g clip-path="url(#p9fecdc582a)">
     <use xlink:href="#mbfa814dc53" x="225.09226" y="184.324244" style="fill: #8da0cb; stroke: #ffffff; stroke-width: 1.3"/>
    </g>
   </g>
   <g id="legend_1">
    <g id="line2d_17">
     <path d="M 379.6602 287.2623 
L 390.2202 287.2623 
L 390.2202 287.2623 
L 400.7802 287.2623 
L 400.7802 287.2623 
" style="fill: none; stroke: #66c2a5; stroke-width: 2.2; stroke-linecap: round"/>
    </g>
    <g id="text_16">
     <!-- McVAMP -->
     <g style="fill: #262626" transform="translate(409.2282 290.9583) scale(0.1056 -0.1056)">
      <defs>
       <path id="DejaVuSans-30" d="M 628 4666 
L 1569 4666 
L 2759 1491 
L 3956 4666 
L 4897 4666 
L 4897 0 
L 4281 0 
L 4281 4097 
L 3078 897 
L 2444 897 
L 1241 4097 
L 1241 0 
L 628 0 
L 628 4666 
z
" transform="scale(0.015625)"/>
       <path id="DejaVuSans-39" d="M 1831 0 
L 50 4666 
L 709 4666 
L 2188 738 
L 3669 4666 
L 4325 4666 
L 2547 0 
L 1831 0 
z
" transform="scale(0.015625)"/>
       <path id="DejaVuSans-24" d="M 2188 4044 
L 1331 1722 
L 3047 1722 
L 2188 4044 
z
M 1831 4666 
L 2547 4666 
L 4325 0 
L 3669 0 
L 3244 1197 
L 1141 1197 
L 716 0 
L 50 0 
L 1831 4666 
z
" transform="scale(0.015625)"/>
       <path id="DejaVuSans-33" d="M 1259 4147 
L 1259 2394 
L 2053 2394 
Q 2494 2394 2734 2622 
Q 2975 2850 2975 3272 
Q 2975 3691 2734 3919 
Q 2494 4147 2053 4147 
L 1259 4147 
z
M 628 4666 
L 2053 4666 
Q 2838 4666 3239 4311 
Q 3641 3956 3641 3272 
Q 3641 2581 3239 2228 
Q 2838 1875 2053 1875 
L 1259 1875 
L 1259 0 
L 628 0 
L 628 4666 
z
" transform="scale(0.015625)"/>
      </defs>
      <use xlink:href="#DejaVuSans-30"/>
      <use xlink:href="#DejaVuSans-46" transform="translate(86.28125 0)"/>
      <use xlink:href="#DejaVuSans-39" transform="translate(141.265625 0)"/>
      <use xlink:href="#DejaVuSans-24" transform="translate(203.28125 0)"/>
      <use xlink:href="#DejaVuSans-30" transform="translate(271.6875 0)"/>
      <use xlink:href="#DejaVuSans-33" transform="translate(357.96875 0)"/>
     </g>
    </g>
    <g id="line2d_18">
     <path d="M 379.6602 303.103125 
L 390.2202 303.103125 
L 390.2202 303.103125 
L 400.7802 303.103125 
L 400.7802 303.103125 
" style="fill: none; stroke: #fc8d62; stroke-width: 2.2; stroke-linecap: round"/>
    </g>
    <g id="text_17">
     <!-- DualFollower -->
     <g style="fill: #262626" transform="translate(409.2282 306.799125) scale(0.1056 -0.1056)">
      <defs>
       <path id="DejaVuSans-27" d="M 1259 4147 
L 1259 519 
L 2022 519 
Q 2988 519 3436 956 
Q 3884 1394 3884 2338 
Q 3884 3275 3436 3711 
Q 2988 4147 2022 4147 
L 1259 4147 
z
M 628 4666 
L 1925 4666 
Q 3281 4666 3915 4102 
Q 4550 3538 4550 2338 
Q 4550 1131 3912 565 
Q 3275 0 1925 0 
L 628 0 
L 628 4666 
z
" transform="scale(0.015625)"/>
       <path id="DejaVuSans-58" d="M 544 1381 
L 544 3500 
L 1119 3500 
L 1119 1403 
Q 1119 906 1312 657 
Q 1506 409 1894 409 
Q 2359 409 2629 706 
Q 2900 1003 2900 1516 
L 2900 3500 
L 3475 3500 
L 3475 0 
L 2900 0 
L 2900 538 
Q 2691 219 2414 64 
Q 2138 -91 1772 -91 
Q 1169 -91 856 284 
Q 544 659 544 1381 
z
M 1991 3584 
L 1991 3584 
z
" transform="scale(0.015625)"/>
       <path id="DejaVuSans-5a" d="M 269 3500 
L 844 3500 
L 1563 769 
L 2278 3500 
L 2956 3500 
L 3675 769 
L 4391 3500 
L 4966 3500 
L 4050 0 
L 3372 0 
L 2619 2869 
L 1863 0 
L 1184 0 
L 269 3500 
z
" transform="scale(0.015625)"/>
      </defs>
      <use xlink:href="#DejaVuSans-27"/>
      <use xlink:href="#DejaVuSans-58" transform="translate(77 0)"/>
      <use xlink:href="#DejaVuSans-44" transform="translate(140.375 0)"/>
      <use xlink:href="#DejaVuSans-4f" transform="translate(201.65625 0)"/>
      <use xlink:href="#DejaVuSans-29" transform="translate(229.4375 0)"/>
      <use xlink:href="#DejaVuSans-52" transform="translate(283.390625 0)"/>
      <use xlink:href="#DejaVuSans-4f" transform="translate(344.578125 0)"/>
      <use xlink:href="#DejaVuSans-4f" transform="translate(372.359375 0)"/>
      <use xlink:href="#DejaVuSans-52" transform="translate(400.140625 0)"/>
      <use xlink:href="#DejaVuSans-5a" transform="translate(461.328125 0)"/>
      <use xlink:href="#DejaVuSans-48" transform="translate(543.109375 0)"/>
      <use xlink:href="#DejaVuSans-55" transform="translate(604.640625 0)"/>
     </g>
    </g>
    <g id="line2d_19">
     <path d="M 379.6602 318.94395 
L 390.2202 318.94395 
L 390.2202 318.94395 
L 400.7802 318.94395 
L 400.7802 318.94395 
" style="fill: none; stroke: #8da0cb; stroke-width: 2.2; stroke-linecap: round"/>
    </g>
    <g id="text_18">
     <!-- LeaderFollower -->
     <g style="fill: #262626" transform="translate(409.2282 322.63995) scale(0.1056 -0.1056)">
      <defs>
       <path id="DejaVuSans-2f" d="M 628 4666 
L 1259 4666 
L 1259 531 
L 3531 531 
L 3531 0 
L 628 0 
L 628 4666 
z
" transform="scale(0.015625)"/>
      </defs>
      <use xlink:href="#DejaVuSans-2f"/>
      <use xlink:href="#DejaVuSans-48" transform="translate(53.96875 0)"/>
      <use xlink:href="#DejaVuSans-44" transform="translate(115.5 0)"/>
      <use xlink:href="#DejaVuSans-47" transform="translate(176.78125 0)"/>
      <use xlink:href="#DejaVuSans-48" transform="translate(240.265625 0)"/>
      <use xlink:href="#DejaVuSans-55" transform="translate(301.796875 0)"/>
      <use xlink:href="#DejaVuSans-29" transform="translate(342.90625 0)"/>
      <use xlink:href="#DejaVuSans-52" transform="translate(396.859375 0)"/>
      <use xlink:href="#DejaVuSans-4f" transform="translate(458.046875 0)"/>
      <use xlink:href="#DejaVuSans-4f" transform="translate(485.828125 0)"/>
      <use xlink:href="#DejaVuSans-52" transform="translate(513.609375 0)"/>
      <use xlink:href="#DejaVuSans-5a" transform="translate(574.796875 0)"/>
      <use xlink:href="#DejaVuSans-48" transform="translate(656.578125 0)"/>
      <use xlink:href="#DejaVuSans-55" transform="translate(718.109375 0)"/>
     </g>
    </g>
   </g>
  </g>
 </g>
 <defs>
  <clipPath id="p9fecdc582a">
   <rect x="47.8164" y="27.9534" width="451.0893" height="306.727425"/>
  </clipPath>
 </defs>
</svg>
