<?xml version="1.0" encoding="UTF-8" standalone="no" ?>
<COLLADA xmlns="http://www.collada.org/2005/11/COLLADASchema" version="1.4.1">
  <asset>
    <contributor>
      <author>Assimp</author>
      <authoring_tool>Assimp Exporter</authoring_tool>
    </contributor>
    <created>2026-04-22T16:09:44</created>
    <modified>2026-04-22T16:09:44</modified>
    <unit name="meter" meter="1" />
    <up_axis>Y_UP</up_axis>
  </asset>
  <library_images>
  </library_images>
  <library_effects>
    <effect id="material_0-fx" name="">
      <profile_COMMON>
        <technique sid="standard">
          <phong>
            <emission>
              <color sid="emission">0   0   0   -1.80123341</color>
            </emission>
            <ambient>
              <color sid="ambient">0.74000001   0.74000001   0.74000001   1.16160011</color>
            </ambient>
            <diffuse>
              <color sid="diffuse">0.74000001   0.74000001   0.74000001   1.16160011</color>
            </diffuse>
            <specular>
              <color sid="specular">0.25   0.25   0.25   -1.80123341</color>
            </specular>
          </phong>
        </technique>
      </profile_COMMON>
    </effect>
  </library_effects>
  <library_materials>
    <material id="material_0" name="">
      <instance_effect url="#material_0-fx"/>
    </material>
  </library_materials>
  <library_geometries>
    <geometry id="mesh_0" name="" >
      <mesh>
        <source id="mesh_0-positions" name="mesh_0-positions">
          <float_array id="mesh_0-positions-array" count="1332"> -0.21323131 0.0398716219 1.74308622 -0.213199988 0.0213037916 1.74275088 -0.216684788 0.0395694077 1.74196708 -0.27910763 0.0341076516 1.75125873 -0.195314005 0.0414404608 1.78830516 -0.27111277 0.0348069891 1.74372089 -0.27111277 0.0348069891 1.74372089 -0.195314005 0.0414404608 1.78830516 -0.266522259 0.0352086052 1.74069273 -0.2082524 0.0217367671 1.74294698 -0.213199988 0.0213037916 1.74275088 -0.21323131 0.0398716219 1.74308622 -0.266522259 0.0352086052 1.74069273 -0.195314005 0.0414404608 1.78830516 -0.25645715 0.0360892005 1.7363168 -0.25645715 0.0360892005 1.7363168 -0.195314005 0.0414404608 1.78830516 -0.251116514 0.0365565084 1.73502731 -0.251116514 0.0365565084 1.73502731 -0.195314005 0.0414404608 1.78830516 -0.24566327 0.0370336622 1.73436224 -0.24566327 0.0370336622 1.73436224 -0.195314005 0.0414404608 1.78830516 -0.240170196 0.0375142731 1.73433065 -0.289423406 0.0281865858 1.78325295 -0.28984946 0.0331685655 1.78925729 -0.289868057 0.0331666023 1.77527118 -0.289023459 0.0237045456 1.78915584 -0.28984946 0.0331685655 1.78925729 -0.289423406 0.0281865858 1.78325295 -0.240170196 0.0375142731 1.73433065 -0.195314005 0.0414404608 1.78830516 -0.230617598 0.0383501574 1.73583162 -0.289441288 0.0236677621 1.77911615 -0.289023459 0.0237045456 1.78915584 -0.289423406 0.0281865858 1.78325295 -0.289441288 0.0236677621 1.77911615 -0.289423406 0.0281865858 1.78325295 -0.289868057 0.0331666023 1.77527118 -0.196321741 0.0413509645 1.73092926 -0.196877494 0.0213683583 1.73093271 -0.197693899 0.0329123177 1.73093212 -0.196321741 0.0413509645 1.73092926 -0.192844406 0.0100370189 1.7309289 -0.196877494 0.0213683583 1.73093271 -0.192844406 0.0100370189 1.7309289 -0.196321741 0.0413509645 1.73092926 -0.133963272 0.0661268383 1.73084414 -0.230617598 0.0383501574 1.73583162 -0.195314005 0.0414404608 1.78830516 -0.219827071 0.0392944925 1.74010539 -0.194886893 0.0140156588 1.73678207 -0.19749479 0.025427362 1.73521245 -0.196877494 0.0213683583 1.73093271 -0.196993545 0.0412922949 1.73810589 -0.200311437 0.0410011187 1.74174535 -0.196321741 0.0413509645 1.73092926 -0.219827071 0.0392944925 1.74010539 -0.195314005 0.0414404608 1.78830516 -0.216684788 0.0395694077 1.74196708 -0.28984946 0.0331685655 1.78925729 -0.195314005 0.0414404608 1.78830516 -0.289868057 0.0331666023 1.77527118 -0.245480299 0.0370517746 1.83002961 -0.195314005 0.0414404608 1.78830516 -0.250919551 0.0365758277 1.8293885 -0.250919551 0.0365758277 1.8293885 -0.195314005 0.0414404608 1.78830516 -0.256249756 0.0361093804 1.82812643 -0.256249756 0.0361093804 1.82812643 -0.195314005 0.0414404608 1.78830516 -0.261400729 0.0356586017 1.82625985 -0.261400729 0.0356586017 1.82625985 -0.195314005 0.0414404608 1.78830516 -0.266305149 0.0352294445 1.82381332 -0.266305149 0.0352294445 1.82381332 -0.195314005 0.0414404608 1.78830516 -0.270897985 0.034827508 1.82081926 -0.270897985 0.034827508 1.82081926 -0.195314005 0.0414404608 1.78830516 -0.275118768 0.0344580822 1.81731689 -0.275118768 0.0344580822 1.81731689 -0.195314005 0.0414404608 1.78830516 -0.278912783 0.0341260508 1.81335211 -0.278912783 0.0341260508 1.81335211 -0.195314005 0.0414404608 1.78830516 -0.282229036 0.0338357538 1.80897737 -0.282229036 0.0338357538 1.80897737 -0.195314005 0.0414404608 1.78830516 -0.285024822 0.0335910209 1.80425012 -0.285024822 0.0335910209 1.80425012 -0.195314005 0.0414404608 1.78830516 -0.28726241 0.0333951227 1.7992326 -0.28726241 0.0333951227 1.7992326 -0.195314005 0.0414404608 1.78830516 -0.28984946 0.0331685655 1.78925729 -0.19749479 0.025427362 1.73521245 -0.197693899 0.0329123177 1.73093212 -0.196877494 0.0213683583 1.73093271 -0.245480299 0.0370517746 1.83002961 -0.240004316 0.0375309214 1.83004153 -0.195314005 0.0414404608 1.78830516 -0.240004316 0.0375309214 1.83004153 -0.234562337 0.0380070806 1.82942355 -0.195314005 0.0414404608 1.78830516 -0.19749479 0.025427362 1.73521245 -0.196993545 0.0412922949 1.73810589 -0.197693899 0.0329123177 1.73093212 -0.196993545 0.0412922949 1.73810589 -0.196321741 0.0413509645 1.73092926 -0.197693899 0.0329123177 1.73093212 -0.234562337 0.0380070806 1.82942355 -0.229226843 0.0384739339 1.82818389 -0.195314005 0.0414404608 1.78830516 -0.195314005 0.0414404608 1.78830516 -0.198092788 0.0411975794 1.79942274 -0.196420059 0.0413437672 1.7941885 -0.229226843 0.0384739339 1.82818389 -0.22406821 0.0389252715 1.82633913 -0.195314005 0.0414404608 1.78830516 -0.195314005 0.0414404608 1.78830516 -0.200352028 0.0409999788 1.8044306 -0.198092788 0.0411975794 1.79942274 -0.22406821 0.0389252715 1.82633913 -0.219153613 0.0393551849 1.82391381 -0.195314005 0.0414404608 1.78830516 -0.195314005 0.0414404608 1.78830516 -0.20316723 0.0407536924 1.80914593 -0.200352028 0.0409999788 1.8044306 -0.219153613 0.0393551849 1.82391381 -0.214548036 0.0397581942 1.82093883 -0.195314005 0.0414404608 1.78830516 -0.195314005 0.0414404608 1.78830516 -0.206502408 0.040461991 1.81350625 -0.20316723 0.0407536924 1.80914593 -0.214548036 0.0397581942 1.82093883 -0.210312411 0.0401286446 1.81745481 -0.195314005 0.0414404608 1.78830516 -0.195314005 0.0414404608 1.78830516 -0.210312411 0.0401286446 1.81745481 -0.206502408 0.040461991 1.81350625 -0.194886893 0.0140156588 1.73678207 -0.196877494 0.0213683583 1.73093271 -0.192844406 0.0100370189 1.7309289 -0.216684788 0.0395694077 1.74196708 -0.195314005 0.0414404608 1.78830516 -0.21323131 0.0398716219 1.74308622 -0.288668603 0.0147010442 1.77920616 -0.289023459 0.0237045456 1.78915584 -0.289441288 0.0236677621 1.77911615 -0.288668603 0.0147010442 1.77920616 -0.287855536 0.0147724571 1.791471 -0.289023459 0.0237045456 1.78915584 -0.20415324 0.0406659469 1.74292755 -0.195314005 0.0414404608 1.78830516 -0.200311437 0.0410011187 1.74174535 -0.289023459 0.0237045456 1.78915584 -0.287855536 0.0147724571 1.791471 -0.28984946 0.0331685655 1.78925729 -0.21323131 0.0398716219 1.74308622 -0.195314005 0.0414404608 1.78830516 -0.20415324 0.0406659469 1.74292755 -0.287855536 0.0147724571 1.791471 -0.284807503 0.0150393751 1.80130863 -0.28984946 0.0331685655 1.78925729 -0.284807503 0.0150393751 1.80130863 -0.28726241 0.0333951227 1.7992326 -0.28984946 0.0331685655 1.78925729 -0.284807503 0.0150393751 1.80130863 -0.285024822 0.0335910209 1.80425012 -0.28726241 0.0333951227 1.7992326 -0.284807503 0.0150393751 1.80130863 -0.282335877 0.01525578 1.8062197 -0.285024822 0.0335910209 1.80425012 -0.282335877 0.01525578 1.8062197 -0.282229036 0.0338357538 1.80897737 -0.285024822 0.0335910209 1.80425012 -0.282335877 0.01525578 1.8062197 -0.279319495 0.0155198118 1.81081474 -0.282229036 0.0338357538 1.80897737 -0.200311437 0.0410011187 1.74174535 -0.195314005 0.0414404608 1.78830516 -0.196321741 0.0413509645 1.73092926 -0.279319495 0.0155198118 1.81081474 -0.278912783 0.0341260508 1.81335211 -0.282229036 0.0338357538 1.80897737 -0.279319495 0.0155198118 1.81081474 -0.275798678 0.0158279762 1.81503201 -0.278912783 0.0341260508 1.81335211 -0.275798678 0.0158279762 1.81503201 -0.275118768 0.0344580822 1.81731689 -0.278912783 0.0341260508 1.81335211 -0.275798678 0.0158279762 1.81503201 -0.271819085 0.0161762703 1.81881618 -0.275118768 0.0344580822 1.81731689 -0.271819085 0.0161762703 1.81881618 -0.270897985 0.034827508 1.82081926 -0.275118768 0.0344580822 1.81731689 -0.289868057 0.0331666023 1.77527118 -0.195314005 0.0414404608 1.78830516 -0.287386149 0.0333836116 1.76547778 -0.287386149 0.0333836116 1.76547778 -0.195314005 0.0414404608 1.78830516 -0.285177439 0.0335766561 1.76042891 -0.285177439 0.0335766561 1.76042891 -0.195314005 0.0414404608 1.78830516 -0.282405347 0.0338191539 1.75566804 -0.282405347 0.0338191539 1.75566804 -0.195314005 0.0414404608 1.78830516 -0.27910763 0.0341076516 1.75125873 -0.271819085 0.0161762703 1.81881618 -0.267433763 0.0165600572 1.82211769 -0.270897985 0.034827508 1.82081926 -0.267433763 0.0165600572 1.82211769 -0.266305149 0.0352294445 1.82381332 -0.270897985 0.034827508 1.82081926 -0.267433763 0.0165600572 1.82211769 -0.262700528 0.0169742461 1.82489276 -0.266305149 0.0352294445 1.82381332 -0.213199988 0.0213037916 1.74275088 -0.219827071 0.0392944925 1.74010539 -0.216684788 0.0395694077 1.74196708 -0.262700528 0.0169742461 1.82489276 -0.261400729 0.0356586017 1.82625985 -0.266305149 0.0352294445 1.82381332 -0.262700528 0.0169742461 1.82489276 -0.2576814 0.0174134634 1.82710516 -0.261400729 0.0356586017 1.82625985 -0.213199988 0.0213037916 1.74275088 -0.223539308 0.0203989167 1.73761916 -0.219827071 0.0392944925 1.74010539 -0.223539308 0.0203989167 1.73761916 -0.230617598 0.0383501574 1.73583162 -0.219827071 0.0392944925 1.74010539 -0.2576814 0.0174134634 1.82710516 -0.256249756 0.0361093804 1.82812643 -0.261400729 0.0356586017 1.82625985 -0.2576814 0.0174134634 1.82710516 -0.252442896 0.0178719573 1.8287251 -0.256249756 0.0361093804 1.82812643 -0.223539308 0.0203989167 1.73761916 -0.232695997 0.0195976831 1.73500216 -0.230617598 0.0383501574 1.73583162 -0.252442896 0.0178719573 1.8287251 -0.250919551 0.0365758277 1.8293885 -0.256249756 0.0361093804 1.82812643 -0.252442896 0.0178719573 1.8287251 -0.247053862 0.018343458 1.82973194 -0.250919551 0.0365758277 1.8293885 -0.232695997 0.0195976831 1.73500216 -0.240170196 0.0375142731 1.73433065 -0.230617598 0.0383501574 1.73583162 -0.199414328 0.034543056 1.74007893 -0.200311437 0.0410011187 1.74174535 -0.196993545 0.0412922949 1.73810589 -0.232695997 0.0195976831 1.73500216 -0.238145635 0.0191207975 1.73435426 -0.240170196 0.0375142731 1.73433065 -0.247053862 0.018343458 1.82973194 -0.245480299 0.0370517746 1.83002961 -0.250919551 0.0365758277 1.8293885 -0.247053862 0.018343458 1.82973194 -0.241585284 0.018821964 1.83011162 -0.245480299 0.0370517746 1.83002961 -0.238145635 0.0191207975 1.73435426 -0.243633315 0.0186406877 1.73433793 -0.240170196 0.0375142731 1.73433065 -0.243633315 0.0186406877 1.73433793 -0.24566327 0.0370336622 1.73436224 -0.240170196 0.0375142731 1.73433065 -0.241585284 0.018821964 1.83011162 -0.240004316 0.0375309214 1.83004153 -0.245480299 0.0370517746 1.83002961 -0.241585284 0.018821964 1.83011162 -0.236109495 0.0193011481 1.82985985 -0.240004316 0.0375309214 1.83004153 -0.243633315 0.0186406877 1.73433793 -0.251116514 0.0365565084 1.73502731 -0.24566327 0.0370336622 1.73436224 -0.236109495 0.0193011481 1.82985985 -0.234562337 0.0380070806 1.82942355 -0.240004316 0.0375309214 1.83004153 -0.236109495 0.0193011481 1.82985985 -0.23069869 0.0197745711 1.82897973 -0.234562337 0.0380070806 1.82942355 -0.243633315 0.0186406877 1.73433793 -0.254433841 0.0176955964 1.73619449 -0.251116514 0.0365565084 1.73502731 -0.254433841 0.0176955964 1.73619449 -0.25645715 0.0360892005 1.7363168 -0.251116514 0.0365565084 1.73502731 -0.23069869 0.0197745711 1.82897973 -0.229226843 0.0384739339 1.82818389 -0.234562337 0.0380070806 1.82942355 -0.23069869 0.0197745711 1.82897973 -0.225423828 0.0202361159 1.82748282 -0.229226843 0.0384739339 1.82818389 -0.254433841 0.0176955964 1.73619449 -0.266522259 0.0352086052 1.74069273 -0.25645715 0.0360892005 1.7363168 -0.225423828 0.0202361159 1.82748282 -0.22406821 0.0389252715 1.82633913 -0.229226843 0.0384739339 1.82818389 -0.225423828 0.0202361159 1.82748282 -0.220354423 0.0206796117 1.82538843 -0.22406821 0.0389252715 1.82633913 -0.254433841 0.0176955964 1.73619449 -0.264528215 0.0168124959 1.74047422 -0.266522259 0.0352086052 1.74069273 -0.220354423 0.0206796117 1.82538843 -0.219153613 0.0393551849 1.82391381 -0.22406821 0.0389252715 1.82633913 -0.195179433 0.00983064063 1.74042821 -0.203562811 0.0260838605 1.74269068 -0.197696164 0.0170919057 1.74007916 -0.220354423 0.0206796117 1.82538843 -0.215557754 0.0210992303 1.82272434 -0.219153613 0.0393551849 1.82391381 -0.264528215 0.0168124959 1.74047422 -0.27111277 0.0348069891 1.74372089 -0.266522259 0.0352086052 1.74069273 -0.215557754 0.0210992303 1.82272434 -0.214548036 0.0397581942 1.82093883 -0.219153613 0.0393551849 1.82391381 -0.215557754 0.0210992303 1.82272434 -0.211096898 0.0214894842 1.81952667 -0.214548036 0.0397581942 1.82093883 -0.264528215 0.0168124959 1.74047422 -0.273384541 0.016037656 1.74695122 -0.27111277 0.0348069891 1.74372089 -0.273384541 0.016037656 1.74695122 -0.27910763 0.0341076516 1.75125873 -0.27111277 0.0348069891 1.74372089 -0.211096898 0.0214894842 1.81952667 -0.210312411 0.0401286446 1.81745481 -0.214548036 0.0397581942 1.82093883 -0.203562811 0.0260838605 1.74269068 -0.20415324 0.0406659469 1.74292755 -0.200311437 0.0410011187 1.74174535 -0.211096898 0.0214894842 1.81952667 -0.207030609 0.0218452308 1.81583619 -0.210312411 0.0401286446 1.81745481 -0.207030609 0.0218452308 1.81583619 -0.206502408 0.040461991 1.81350625 -0.210312411 0.0401286446 1.81745481 -0.207030609 0.0218452308 1.81583619 -0.203412846 0.0221616924 1.81170225 -0.206502408 0.040461991 1.81350625 -0.273384541 0.016037656 1.74695122 -0.280536383 0.015412054 1.75528514 -0.27910763 0.0341076516 1.75125873 -0.280536383 0.015412054 1.75528514 -0.282405347 0.0338191539 1.75566804 -0.27910763 0.0341076516 1.75125873 -0.203412846 0.0221616924 1.81170225 -0.20316723 0.0407536924 1.80914593 -0.206502408 0.040461991 1.81350625 -0.203412846 0.0221616924 1.81170225 -0.20029065 0.0224347245 1.80717933 -0.20316723 0.0407536924 1.80914593 -0.192844406 0.0100370189 1.7309289 -0.195179433 0.00983064063 1.74042821 -0.194886893 0.0140156588 1.73678207 -0.280536383 0.015412054 1.75528514 -0.285177439 0.0335766561 1.76042891 -0.282405347 0.0338191539 1.75566804 -0.20029065 0.0224347245 1.80717933 -0.200352028 0.0409999788 1.8044306 -0.20316723 0.0407536924 1.80914593 -0.20029065 0.0224347245 1.80717933 -0.196134567 0.0227982178 1.79843652 -0.200352028 0.0409999788 1.8044306 -0.280536383 0.015412054 1.75528514 -0.285607219 0.0149686029 1.76503611 -0.285177439 0.0335766561 1.76042891 -0.285607219 0.0149686029 1.76503611 -0.287386149 0.0333836116 1.76547778 -0.285177439 0.0335766561 1.76042891 -0.196134567 0.0227982178 1.79843652 -0.198092788 0.0411975794 1.79942274 -0.200352028 0.0409999788 1.8044306 -0.285607219 0.0149686029 1.76503611 -0.287273735 0.0148228677 1.77028489 -0.287386149 0.0333836116 1.76547778 -0.287273735 0.0148228677 1.77028489 -0.289868057 0.0331666023 1.77527118 -0.287386149 0.0333836116 1.76547778 -0.196134567 0.0227982178 1.79843652 -0.196420059 0.0413437672 1.7941885 -0.198092788 0.0411975794 1.79942274 -0.196134567 0.0227982178 1.79843652 -0.195314005 0.0414404608 1.78830516 -0.196420059 0.0413437672 1.7941885 -0.287273735 0.0148228677 1.77028489 -0.289441288 0.0236677621 1.77911615 -0.289868057 0.0331666023 1.77527118 -0.287273735 0.0148228677 1.77028489 -0.288668603 0.0147010442 1.77920616 -0.289441288 0.0236677621 1.77911615 -0.206819624 0.00881244801 1.7434473 -0.2082524 0.0217367671 1.74294698 -0.200519204 0.00936373696 1.74290943 -0.20415324 0.0406659469 1.74292755 -0.203562811 0.0260838605 1.74269068 -0.21323131 0.0398716219 1.74308622 -0.21323131 0.0398716219 1.74308622 -0.203562811 0.0260838605 1.74269068 -0.2082524 0.0217367671 1.74294698 -0.203562811 0.0260838605 1.74269068 -0.200519204 0.00936373696 1.74290943 -0.2082524 0.0217367671 1.74294698 -0.203562811 0.0260838605 1.74269068 -0.200311437 0.0410011187 1.74174535 -0.199414328 0.034543056 1.74007893 -0.199414328 0.034543056 1.74007893 -0.196993545 0.0412922949 1.73810589 -0.198071986 0.0344182886 1.73777485 -0.200519204 0.00936373696 1.74290943 -0.203562811 0.0260838605 1.74269068 -0.195179433 0.00983064063 1.74042821 -0.197125509 0.0201894082 1.73777568 -0.199414328 0.034543056 1.74007893 -0.194886893 0.0140156588 1.73678207 -0.194886893 0.0140156588 1.73678207 -0.199414328 0.034543056 1.74007893 -0.19749479 0.025427362 1.73521245 -0.197696164 0.0170919057 1.74007916 -0.203562811 0.0260838605 1.74269068 -0.199414328 0.034543056 1.74007893 -0.194886893 0.0140156588 1.73678207 -0.197696164 0.0170919057 1.74007916 -0.197125509 0.0201894082 1.73777568 -0.19749479 0.025427362 1.73521245 -0.198071986 0.0344182886 1.73777485 -0.196993545 0.0412922949 1.73810589 -0.197696164 0.0170919057 1.74007916 -0.199414328 0.034543056 1.74007893 -0.197125509 0.0201894082 1.73777568 -0.195179433 0.00983064063 1.74042821 -0.197696164 0.0170919057 1.74007916 -0.194886893 0.0140156588 1.73678207 -0.199414328 0.034543056 1.74007893 -0.198071986 0.0344182886 1.73777485 -0.19749479 0.025427362 1.73521245 </float_array>
          <technique_common>
            <accessor count="444" offset="0" source="#mesh_0-positions-array" stride="3">
              <param name="X" type="float" />
              <param name="Y" type="float" />
              <param name="Z" type="float" />
            </accessor>
          </technique_common>
        </source>
        <vertices id="mesh_0-vertices">
          <input semantic="POSITION" source="#mesh_0-positions" />
        </vertices>
        <polylist count="148" material="defaultMaterial">
          <input offset="0" semantic="VERTEX" source="#mesh_0-vertices" />
          <vcount>3 3 3 3 3 3 3 3 3 3 3 3 3 3 3 3 3 3 3 3 3 3 3 3 3 3 3 3 3 3 3 3 3 3 3 3 3 3 3 3 3 3 3 3 3 3 3 3 3 3 3 3 3 3 3 3 3 3 3 3 3 3 3 3 3 3 3 3 3 3 3 3 3 3 3 3 3 3 3 3 3 3 3 3 3 3 3 3 3 3 3 3 3 3 3 3 3 3 3 3 3 3 3 3 3 3 3 3 3 3 3 3 3 3 3 3 3 3 3 3 3 3 3 3 3 3 3 3 3 3 3 3 3 3 3 3 3 3 3 3 3 3 3 3 3 3 3 3 </vcount>
          <p>0 1 2 3 4 5 6 7 8 9 10 11 12 13 14 15 16 17 18 19 20 21 22 23 24 25 26 27 28 29 30 31 32 33 34 35 36 37 38 39 40 41 42 43 44 45 46 47 48 49 50 51 52 53 54 55 56 57 58 59 60 61 62 63 64 65 66 67 68 69 70 71 72 73 74 75 76 77 78 79 80 81 82 83 84 85 86 87 88 89 90 91 92 93 94 95 96 97 98 99 100 101 102 103 104 105 106 107 108 109 110 111 112 113 114 115 116 117 118 119 120 121 122 123 124 125 126 127 128 129 130 131 132 133 134 135 136 137 138 139 140 141 142 143 144 145 146 147 148 149 150 151 152 153 154 155 156 157 158 159 160 161 162 163 164 165 166 167 168 169 170 171 172 173 174 175 176 177 178 179 180 181 182 183 184 185 186 187 188 189 190 191 192 193 194 195 196 197 198 199 200 201 202 203 204 205 206 207 208 209 210 211 212 213 214 215 216 217 218 219 220 221 222 223 224 225 226 227 228 229 230 231 232 233 234 235 236 237 238 239 240 241 242 243 244 245 246 247 248 249 250 251 252 253 254 255 256 257 258 259 260 261 262 263 264 265 266 267 268 269 270 271 272 273 274 275 276 277 278 279 280 281 282 283 284 285 286 287 288 289 290 291 292 293 294 295 296 297 298 299 300 301 302 303 304 305 306 307 308 309 310 311 312 313 314 315 316 317 318 319 320 321 322 323 324 325 326 327 328 329 330 331 332 333 334 335 336 337 338 339 340 341 342 343 344 345 346 347 348 349 350 351 352 353 354 355 356 357 358 359 360 361 362 363 364 365 366 367 368 369 370 371 372 373 374 375 376 377 378 379 380 381 382 383 384 385 386 387 388 389 390 391 392 393 394 395 396 397 398 399 400 401 402 403 404 405 406 407 408 409 410 411 412 413 414 415 416 417 418 419 420 421 422 423 424 425 426 427 428 429 430 431 432 433 434 435 436 437 438 439 440 441 442 443 </p>
        </polylist>
      </mesh>
    </geometry>
  </library_geometries>
  <library_controllers>
  </library_controllers>
  <library_visual_scenes>
    <visual_scene id="Scene" name="Scene">
      <node id="node" name="" type="NODE">
        <matrix sid="matrix">1 0 0 0 0 1 0 0 0 0 1 0 0 0 0 1</matrix>
        <instance_geometry url="#mesh_0">
          <bind_material>
            <technique_common>
              <instance_material symbol="defaultMaterial" target="#material_0">
              </instance_material>
            </technique_common>
          </bind_material>
        </instance_geometry>
      </node>
    </visual_scene>
  </library_visual_scenes>
  <scene>
    <instance_visual_scene url="#Scene" />
  </scene>
</COLLADA>
