<?xml version="1.0" encoding="UTF-8" standalone="no" ?>
<COLLADA xmlns="http://www.collada.org/2005/11/COLLADASchema" version="1.4.1">
  <asset>
    <contributor>
      <author>Assimp</author>
      <authoring_tool>Assimp Exporter</authoring_tool>
    </contributor>
    <created>2026-04-22T16:09:44</created>
    <modified>2026-04-22T16:09:44</modified>
    <unit name="meter" meter="1" />
    <up_axis>Y_UP</up_axis>
  </asset>
  <library_images>
  </library_images>
  <library_effects>
    <effect id="material_0-fx" name="">
      <profile_COMMON>
        <technique sid="standard">
          <phong>
            <emission>
              <color sid="emission">0   0   0   1.29948342</color>
            </emission>
            <ambient>
              <color sid="ambient">0.699999988   0.699999988   0.699999988   -1.2913686</color>
            </ambient>
            <diffuse>
              <color sid="diffuse">0.699999988   0.699999988   0.699999988   -1.2913686</color>
            </diffuse>
            <specular>
              <color sid="specular">0.300000012   0.300000012   0.300000012   -0.421389788</color>
            </specular>
          </phong>
        </technique>
      </profile_COMMON>
    </effect>
  </library_effects>
  <library_materials>
    <material id="material_0" name="">
      <instance_effect url="#material_0-fx"/>
    </material>
  </library_materials>
  <library_geometries>
    <geometry id="mesh_0" name="" >
      <mesh>
        <source id="mesh_0-positions" name="mesh_0-positions">
          <float_array id="mesh_0-positions-array" count="3258"> -0.161357284 0.0332733691 1.57110381 -0.162432328 0.0372549109 1.57364631 -0.16200614 0.0324976929 1.57284451 -0.160623848 0.0341511145 1.57043362 -0.162432328 0.0372549109 1.57364631 -0.161357284 0.0332733691 1.57110381 -0.160623848 0.0341511145 1.57043362 -0.159269243 0.0357682295 1.57026875 -0.162432328 0.0372549109 1.57364631 -0.159269243 0.0357682295 1.57026875 -0.15818803 0.0370408893 1.57133853 -0.162432328 0.0372549109 1.57364631 -0.157620907 0.0377324931 1.57317805 -0.162432328 0.0372549109 1.57364631 -0.15818803 0.0370408893 1.57133853 -0.159963042 0.048823338 1.61466944 -0.174260572 0.0337877795 1.61465788 -0.16103524 0.0495942533 1.61463487 -0.159963042 0.048823338 1.61466944 -0.173203304 0.0327716507 1.61465907 -0.174260572 0.0337877795 1.61465788 -0.159267932 0.0481361225 1.61232114 -0.172489226 0.0324258246 1.61354601 -0.159220606 0.048195228 1.61386311 -0.159267932 0.0481361225 1.61232114 -0.172551453 0.0323046632 1.61230743 -0.172489226 0.0324258246 1.61354601 -0.147873789 0.0386097953 1.61681914 -0.152020022 0.0422386453 1.6168828 -0.147830963 0.0385979973 1.61848569 -0.15207088 0.042113442 1.61478567 -0.153990239 0.0439323634 1.61481786 -0.152020022 0.0422386453 1.6168828 -0.155715033 0.045202855 1.59977639 -0.158885792 0.0480240919 1.60091782 -0.154785141 0.0444188006 1.60085464 -0.154785141 0.0444188006 1.60085464 -0.158885792 0.0480240919 1.60091782 -0.154647544 0.0443590581 1.61382818 -0.154647544 0.0443590581 1.61382818 -0.158885792 0.0480240919 1.60091782 -0.159220606 0.048195228 1.61386311 -0.155715033 0.045202855 1.59977639 -0.158366337 0.0473676659 1.59980416 -0.158885792 0.0480240919 1.60091782 -0.159220606 0.048195228 1.61386311 -0.159963042 0.048823338 1.61466944 -0.153990239 0.0439323634 1.61481786 -0.154647544 0.0443590581 1.61382818 -0.159220606 0.048195228 1.61386311 -0.153990239 0.0439323634 1.61481786 -0.153990239 0.0439323634 1.61481786 -0.161735296 0.0503906049 1.61689448 -0.152020022 0.0422386453 1.6168828 -0.159963042 0.048823338 1.61466944 -0.161735296 0.0503906049 1.61689448 -0.153990239 0.0439323634 1.61481786 -0.159963042 0.048823338 1.61466944 -0.161905423 0.0502585545 1.6147157 -0.161735296 0.0503906049 1.61689448 -0.161735296 0.0503906049 1.61689448 -0.166031897 0.0539018027 1.61847723 -0.152020022 0.0422386453 1.6168828 -0.152020022 0.0422386453 1.6168828 -0.166031897 0.0539018027 1.61847723 -0.147830963 0.0385979973 1.61848569 -0.161735296 0.0503906049 1.61689448 -0.166029125 0.0538437217 1.61684084 -0.166031897 0.0539018027 1.61847723 -0.167006508 0.0278186854 1.61463165 -0.162955433 0.028895352 1.61472094 -0.165361553 0.0262739677 1.6148088 -0.167006508 0.0278186854 1.61463165 -0.153861225 0.0434482433 1.61461127 -0.162955433 0.028895352 1.61472094 -0.162955433 0.028895352 1.61472094 -0.153861225 0.0434482433 1.61461127 -0.154261678 0.039187137 1.6147151 -0.153861225 0.0434482433 1.61461127 -0.15207088 0.042113442 1.61478567 -0.154261678 0.039187137 1.6147151 -0.153900042 0.0367232561 1.61475313 -0.151415169 0.0344311818 1.61475027 -0.160541385 0.029351946 1.61464143 -0.160541385 0.029351946 1.61464143 -0.151415169 0.0344311818 1.61475027 -0.15764387 0.0269301124 1.61481106 -0.162955433 0.028895352 1.61472094 -0.154261678 0.039187137 1.6147151 -0.160541385 0.029351946 1.61464143 -0.154261678 0.039187137 1.6147151 -0.153900042 0.0367232561 1.61475313 -0.160541385 0.029351946 1.61464143 -0.161179334 0.0227525998 1.61684227 -0.15758954 0.0269051194 1.61687446 -0.161173552 0.0227136519 1.61848962 -0.15764387 0.0269301124 1.61481106 -0.151339769 0.0343534201 1.61686361 -0.15758954 0.0269051194 1.61687446 -0.151415169 0.0344311818 1.61475027 -0.151339769 0.0343534201 1.61686361 -0.15764387 0.0269301124 1.61481106 -0.147873789 0.0386097953 1.61681914 -0.147830963 0.0385979973 1.61848569 -0.151339769 0.0343534201 1.61686361 -0.147830963 0.0385979973 1.61848569 -0.161173552 0.0227136519 1.61848962 -0.15758954 0.0269051194 1.61687446 -0.147830963 0.0385979973 1.61848569 -0.15758954 0.0269051194 1.61687446 -0.151339769 0.0343534201 1.61686361 -0.179370075 0.0379679315 1.61853063 -0.175894797 0.042214103 1.61689734 -0.179334685 0.0379865281 1.61686397 -0.175894797 0.042214103 1.61689734 -0.169601291 0.0496432967 1.61480856 -0.175786138 0.0422006734 1.61477315 -0.169563383 0.0497124456 1.61686814 -0.169601291 0.0496432967 1.61480856 -0.175894797 0.042214103 1.61689734 -0.166031897 0.0539018027 1.61847723 -0.166029125 0.0538437217 1.61684084 -0.169563383 0.0497124456 1.61686814 -0.179370075 0.0379679315 1.61853063 -0.166031897 0.0539018027 1.61847723 -0.175894797 0.042214103 1.61689734 -0.175894797 0.042214103 1.61689734 -0.166031897 0.0539018027 1.61847723 -0.169563383 0.0497124456 1.61686814 -0.167204469 0.0475043952 1.61465263 -0.175786138 0.0422006734 1.61477315 -0.169601291 0.0496432967 1.61480856 -0.167204469 0.0475043952 1.61465263 -0.173316061 0.0402611941 1.61466491 -0.175786138 0.0422006734 1.61477315 -0.147830963 0.0385979973 1.61848569 -0.179370075 0.0379679315 1.61853063 -0.161173552 0.0227136519 1.61848962 -0.147830963 0.0385979973 1.61848569 -0.166031897 0.0539018027 1.61847723 -0.179370075 0.0379679315 1.61853063 -0.16817531 0.0285229851 1.600932 -0.154785141 0.0444188006 1.60085464 -0.167988524 0.0283998586 1.61389852 -0.154785141 0.0444188006 1.60085464 -0.154647544 0.0443590581 1.61382818 -0.167988524 0.0283998586 1.61389852 -0.158366337 0.0473676659 1.59980416 -0.155715033 0.045202855 1.59977639 -0.171525449 0.0314383283 1.59978116 -0.171525449 0.0314383283 1.59978116 -0.155715033 0.045202855 1.59977639 -0.168922126 0.0291824304 1.59985161 -0.175071821 0.0345133394 1.61472702 -0.173203304 0.0327716507 1.61465907 -0.175221041 0.0343936831 1.61691403 -0.179370075 0.0379679315 1.61853063 -0.175221041 0.0343936831 1.61691403 -0.165472999 0.0262057483 1.61690617 -0.179370075 0.0379679315 1.61853063 -0.165472999 0.0262057483 1.61690617 -0.161173552 0.0227136519 1.61848962 -0.165472999 0.0262057483 1.61690617 -0.161179334 0.0227525998 1.61684227 -0.161173552 0.0227136519 1.61848962 -0.179334685 0.0379865281 1.61686397 -0.175221041 0.0343936831 1.61691403 -0.179370075 0.0379679315 1.61853063 -0.167474866 0.0278392993 1.61485076 -0.165361553 0.0262739677 1.6148088 -0.165472999 0.0262057483 1.61690617 -0.172385827 0.031935215 1.60094118 -0.167988524 0.0283998586 1.61389852 -0.172516078 0.0320672579 1.61392558 -0.172385827 0.031935215 1.60094118 -0.16817531 0.0285229851 1.600932 -0.167988524 0.0283998586 1.61389852 -0.172385827 0.031935215 1.60094118 -0.168922126 0.0291824304 1.59985161 -0.16817531 0.0285229851 1.600932 -0.171525449 0.0314383283 1.59978116 -0.168922126 0.0291824304 1.59985161 -0.172385827 0.031935215 1.60094118 -0.172516078 0.0320672579 1.61392558 -0.167988524 0.0283998586 1.61389852 -0.167474866 0.0278392993 1.61485076 -0.173203304 0.0327716507 1.61465907 -0.172516078 0.0320672579 1.61392558 -0.167474866 0.0278392993 1.61485076 -0.175221041 0.0343936831 1.61691403 -0.167474866 0.0278392993 1.61485076 -0.165472999 0.0262057483 1.61690617 -0.175221041 0.0343936831 1.61691403 -0.173203304 0.0327716507 1.61465907 -0.167474866 0.0278392993 1.61485076 -0.179334685 0.0379865281 1.61686397 -0.173200816 0.0371179432 1.61675549 -0.175221041 0.0343936831 1.61691403 -0.173177421 0.0395346321 1.61675489 -0.173200816 0.0371179432 1.61675549 -0.179334685 0.0379865281 1.61686397 -0.175894797 0.042214103 1.61689734 -0.173177421 0.0395346321 1.61675489 -0.179334685 0.0379865281 1.61686397 -0.173685327 0.0401877165 1.61495471 -0.173092872 0.0390042514 1.61495459 -0.173177421 0.0395346321 1.61675489 -0.173177421 0.0395346321 1.61675489 -0.173151121 0.0372024663 1.61495638 -0.173200816 0.0371179432 1.61675549 -0.173092872 0.0390042514 1.61495459 -0.173151121 0.0372024663 1.61495638 -0.173177421 0.0395346321 1.61675489 -0.175786138 0.0422006734 1.61477315 -0.173685327 0.0401877165 1.61495471 -0.175894797 0.042214103 1.61689734 -0.175894797 0.042214103 1.61689734 -0.173685327 0.0401877165 1.61495471 -0.173177421 0.0395346321 1.61675489 -0.173151121 0.0372024663 1.61495638 -0.175221041 0.0343936831 1.61691403 -0.173200816 0.0371179432 1.61675549 -0.173151121 0.0372024663 1.61495638 -0.175071821 0.0345133394 1.61472702 -0.175221041 0.0343936831 1.61691403 -0.160576835 0.0290335249 1.61673975 -0.15758954 0.0269051194 1.61687446 -0.161179334 0.0227525998 1.61684227 -0.163042873 0.0286990404 1.61674333 -0.161179334 0.0227525998 1.61684227 -0.165472999 0.0262057483 1.61690617 -0.163042873 0.0286990404 1.61674333 -0.160576835 0.0290335249 1.61673975 -0.161179334 0.0227525998 1.61684227 -0.163042873 0.0286990404 1.61674333 -0.162955433 0.028895352 1.61472094 -0.160576835 0.0290335249 1.61673975 -0.162955433 0.028895352 1.61472094 -0.160424605 0.0289425533 1.61494553 -0.160576835 0.0290335249 1.61673975 -0.165361553 0.0262739677 1.6148088 -0.163042873 0.0286990404 1.61674333 -0.165472999 0.0262057483 1.61690617 -0.165361553 0.0262739677 1.6148088 -0.162955433 0.028895352 1.61472094 -0.163042873 0.0286990404 1.61674333 -0.160424605 0.0289425533 1.61494553 -0.15764387 0.0269301124 1.61481106 -0.160576835 0.0290335249 1.61673975 -0.160576835 0.0290335249 1.61673975 -0.15764387 0.0269301124 1.61481106 -0.15758954 0.0269051194 1.61687446 -0.166029125 0.0538437217 1.61684084 -0.161735296 0.0503906049 1.61689448 -0.164076731 0.0479691662 1.61673963 -0.166029125 0.0538437217 1.61684084 -0.166484565 0.047510989 1.61674321 -0.169563383 0.0497124456 1.61686814 -0.166029125 0.0538437217 1.61684084 -0.164076731 0.0479691662 1.61673963 -0.166484565 0.047510989 1.61674321 -0.164076731 0.0479691662 1.61673963 -0.164199442 0.0478851981 1.61495101 -0.166484565 0.047510989 1.61674321 -0.164199442 0.0478851981 1.61495101 -0.165950194 0.0475167036 1.61494219 -0.166484565 0.047510989 1.61674321 -0.165950194 0.0475167036 1.61494219 -0.16721113 0.047890421 1.61494112 -0.166484565 0.047510989 1.61674321 -0.161905423 0.0502585545 1.6147157 -0.164199442 0.0478851981 1.61495101 -0.164076731 0.0479691662 1.61673963 -0.161905423 0.0502585545 1.6147157 -0.164076731 0.0479691662 1.61673963 -0.161735296 0.0503906049 1.61689448 -0.16721113 0.047890421 1.61494112 -0.169601291 0.0496432967 1.61480856 -0.169563383 0.0497124456 1.61686814 -0.16721113 0.047890421 1.61494112 -0.169563383 0.0497124456 1.61686814 -0.166484565 0.047510989 1.61674321 -0.147873789 0.0386097953 1.61681914 -0.151339769 0.0343534201 1.61686361 -0.153640375 0.0365317538 1.61672783 -0.153972298 0.0395568758 1.61672759 -0.153640375 0.0365317538 1.61672783 -0.154183134 0.0379358903 1.61672831 -0.153972298 0.0395568758 1.61672759 -0.147873789 0.0386097953 1.61681914 -0.153640375 0.0365317538 1.61672783 -0.152020022 0.0422386453 1.6168828 -0.147873789 0.0386097953 1.61681914 -0.153972298 0.0395568758 1.61672759 -0.153640375 0.0365317538 1.61672783 -0.153900042 0.0367232561 1.61475313 -0.154183134 0.0379358903 1.61672831 -0.153900042 0.0367232561 1.61475313 -0.154261678 0.039187137 1.6147151 -0.154183134 0.0379358903 1.61672831 -0.154183134 0.0379358903 1.61672831 -0.154261678 0.039187137 1.6147151 -0.153972298 0.0395568758 1.61672759 -0.151415169 0.0344311818 1.61475027 -0.153900042 0.0367232561 1.61475313 -0.153640375 0.0365317538 1.61672783 -0.151415169 0.0344311818 1.61475027 -0.153640375 0.0365317538 1.61672783 -0.151339769 0.0343534201 1.61686361 -0.153972298 0.0395568758 1.61672759 -0.15207088 0.042113442 1.61478567 -0.152020022 0.0422386453 1.6168828 -0.154261678 0.039187137 1.6147151 -0.15207088 0.042113442 1.61478567 -0.153972298 0.0395568758 1.61672759 -0.167988524 0.0283998586 1.61389852 -0.154647544 0.0443590581 1.61382818 -0.167006508 0.0278186854 1.61463165 -0.154647544 0.0443590581 1.61382818 -0.153861225 0.0434482433 1.61461127 -0.167006508 0.0278186854 1.61463165 -0.159963042 0.048823338 1.61466944 -0.159220606 0.048195228 1.61386311 -0.173203304 0.0327716507 1.61465907 -0.173203304 0.0327716507 1.61465907 -0.159220606 0.048195228 1.61386311 -0.172489226 0.0324258246 1.61354601 -0.172419369 0.0323593281 1.60088515 -0.159324318 0.0479909293 1.60095191 -0.158366337 0.0473676659 1.59980416 -0.171525449 0.0314383283 1.59978116 -0.172419369 0.0323593281 1.60088515 -0.158366337 0.0473676659 1.59980416 -0.168922126 0.0291824304 1.59985161 -0.155715033 0.045202855 1.59977639 -0.154785141 0.0444188006 1.60085464 -0.16817531 0.0285229851 1.600932 -0.168922126 0.0291824304 1.59985161 -0.154785141 0.0444188006 1.60085464 -0.164199442 0.0478851981 1.61495101 -0.161905423 0.0502585545 1.6147157 -0.164293438 0.0474452637 1.61464262 -0.164199442 0.0478851981 1.61495101 -0.164293438 0.0474452637 1.61464262 -0.165950194 0.0475167036 1.61494219 -0.164293438 0.0474452637 1.61464262 -0.167204469 0.0475043952 1.61465263 -0.165950194 0.0475167036 1.61494219 -0.165950194 0.0475167036 1.61494219 -0.167204469 0.0475043952 1.61465263 -0.16721113 0.047890421 1.61494112 -0.169601291 0.0496432967 1.61480856 -0.16721113 0.047890421 1.61494112 -0.167204469 0.0475043952 1.61465263 -0.16103524 0.0495942533 1.61463487 -0.161905423 0.0502585545 1.6147157 -0.159963042 0.048823338 1.61466944 -0.159324318 0.0479909293 1.60095191 -0.159267932 0.0481361225 1.61232114 -0.158885792 0.0480240919 1.60091782 -0.159267932 0.0481361225 1.61232114 -0.159220606 0.048195228 1.61386311 -0.158885792 0.0480240919 1.60091782 -0.158366337 0.0473676659 1.59980416 -0.159324318 0.0479909293 1.60095191 -0.158885792 0.0480240919 1.60091782 -0.175786138 0.0422006734 1.61477315 -0.173316061 0.0402611941 1.61466491 -0.173685327 0.0401877165 1.61495471 -0.173685327 0.0401877165 1.61495471 -0.173316061 0.0402611941 1.61466491 -0.173092872 0.0390042514 1.61495459 -0.173316061 0.0402611941 1.61466491 -0.172740191 0.0373422839 1.61465764 -0.173092872 0.0390042514 1.61495459 -0.173092872 0.0390042514 1.61495459 -0.172740191 0.0373422839 1.61465764 -0.173151121 0.0372024663 1.61495638 -0.172740191 0.0373422839 1.61465764 -0.175071821 0.0345133394 1.61472702 -0.173151121 0.0372024663 1.61495638 -0.154647544 0.0443590581 1.61382818 -0.153990239 0.0439323634 1.61481786 -0.153861225 0.0434482433 1.61461127 -0.173203304 0.0327716507 1.61465907 -0.175071821 0.0345133394 1.61472702 -0.174260572 0.0337877795 1.61465788 -0.15207088 0.042113442 1.61478567 -0.153861225 0.0434482433 1.61461127 -0.153990239 0.0439323634 1.61481786 -0.172489226 0.0324258246 1.61354601 -0.172516078 0.0320672579 1.61392558 -0.173203304 0.0327716507 1.61465907 -0.172551453 0.0323046632 1.61230743 -0.172516078 0.0320672579 1.61392558 -0.172489226 0.0324258246 1.61354601 -0.172385827 0.031935215 1.60094118 -0.172551453 0.0323046632 1.61230743 -0.172419369 0.0323593281 1.60088515 -0.172385827 0.031935215 1.60094118 -0.172516078 0.0320672579 1.61392558 -0.172551453 0.0323046632 1.61230743 -0.172419369 0.0323593281 1.60088515 -0.171525449 0.0314383283 1.59978116 -0.172385827 0.031935215 1.60094118 -0.167006508 0.0278186854 1.61463165 -0.167474866 0.0278392993 1.61485076 -0.167988524 0.0283998586 1.61389852 -0.165361553 0.0262739677 1.6148088 -0.167474866 0.0278392993 1.61485076 -0.167006508 0.0278186854 1.61463165 -0.160541385 0.029351946 1.61464143 -0.15764387 0.0269301124 1.61481106 -0.160424605 0.0289425533 1.61494553 -0.162955433 0.028895352 1.61472094 -0.160541385 0.029351946 1.61464143 -0.160424605 0.0289425533 1.61494553 -0.164293438 0.0474452637 1.61464262 -0.163695768 0.0518086776 1.61462903 -0.167204469 0.0475043952 1.61465263 -0.164293438 0.0474452637 1.61464262 -0.161905423 0.0502585545 1.6147157 -0.163695768 0.0518086776 1.61462903 -0.15894337 0.045828484 1.58270741 -0.17027244 0.0323517174 1.58274317 -0.165229708 0.0531987846 1.59945226 -0.17027244 0.0323517174 1.58274317 -0.178617865 0.0372944847 1.59962654 -0.165229708 0.0531987846 1.59945226 -0.15894337 0.045828484 1.58270741 -0.169273585 0.0315879919 1.58264697 -0.17027244 0.0323517174 1.58274317 -0.15802823 0.044990547 1.58262718 -0.169273585 0.0315879919 1.58264697 -0.15894337 0.045828484 1.58270741 -0.160166293 0.0422962382 1.56482553 -0.158107921 0.0449172631 1.56879961 -0.158527121 0.0441491976 1.56634152 -0.166700646 0.0345544256 1.56481528 -0.158107921 0.0449172631 1.56879961 -0.160166293 0.0422962382 1.56482553 -0.169161767 0.0317456983 1.5681175 -0.158107921 0.0449172631 1.56879961 -0.166700646 0.0345544256 1.56481528 -0.169273585 0.0315879919 1.58264697 -0.15802823 0.044990547 1.58262718 -0.169161767 0.0317456983 1.5681175 -0.169161767 0.0317456983 1.5681175 -0.15802823 0.044990547 1.58262718 -0.158107921 0.0449172631 1.56879961 -0.169161767 0.0317456983 1.5681175 -0.166700646 0.0345544256 1.56481528 -0.167791173 0.0331908688 1.56540263 -0.160166293 0.0422962382 1.56482553 -0.163636506 0.0310280565 1.56478584 -0.166700646 0.0345544256 1.56481528 -0.156392619 0.0393092409 1.56488371 -0.163636506 0.0310280565 1.56478584 -0.160166293 0.0422962382 1.56482553 -0.154236123 0.04182804 1.56850922 -0.15818803 0.0370408893 1.57133853 -0.155362487 0.0405562893 1.5658077 -0.155362487 0.0405562893 1.5658077 -0.15818803 0.0370408893 1.57133853 -0.156392619 0.0393092409 1.56488371 -0.15818803 0.0370408893 1.57133853 -0.159269243 0.0357682295 1.57026875 -0.156392619 0.0393092409 1.56488371 -0.154236123 0.04182804 1.56850922 -0.157620907 0.0377324931 1.57317805 -0.15818803 0.0370408893 1.57133853 -0.156392619 0.0393092409 1.56488371 -0.159269243 0.0357682295 1.57026875 -0.163376182 0.0308637489 1.56508541 -0.154236123 0.04182804 1.56850922 -0.154201716 0.0417751744 1.58262277 -0.157620907 0.0377324931 1.57317805 -0.154201716 0.0417751744 1.58262277 -0.157874852 0.0374276005 1.57514274 -0.157620907 0.0377324931 1.57317805 -0.159269243 0.0357682295 1.57026875 -0.160623848 0.0341511145 1.57043362 -0.163376182 0.0308637489 1.56508541 -0.160623848 0.0341511145 1.57043362 -0.161357284 0.0332733691 1.57110381 -0.163376182 0.0308637489 1.56508541 -0.154201716 0.0417751744 1.58262277 -0.158578768 0.0365734324 1.57647908 -0.157874852 0.0374276005 1.57514274 -0.163376182 0.0308637489 1.56508541 -0.161357284 0.0332733691 1.57110381 -0.164911315 0.0292208754 1.56640065 -0.161357284 0.0332733691 1.57110381 -0.165573582 0.028389832 1.56844437 -0.164911315 0.0292208754 1.56640065 -0.154201716 0.0417751744 1.58262277 -0.15993835 0.034976121 1.57712662 -0.158578768 0.0365734324 1.57647908 -0.16200614 0.0324976929 1.57284451 -0.165573582 0.028389832 1.56844437 -0.161357284 0.0332733691 1.57110381 -0.161878735 0.0326542445 1.57486832 -0.16544649 0.0283736885 1.58264196 -0.16200614 0.0324976929 1.57284451 -0.161087349 0.0335909799 1.57644558 -0.16544649 0.0283736885 1.58264196 -0.161878735 0.0326542445 1.57486832 -0.16200614 0.0324976929 1.57284451 -0.16544649 0.0283736885 1.58264196 -0.165573582 0.028389832 1.56844437 -0.15993835 0.034976121 1.57712662 -0.16544649 0.0283736885 1.58264196 -0.161087349 0.0335909799 1.57644558 -0.154201716 0.0417751744 1.58262277 -0.16544649 0.0283736885 1.58264196 -0.15993835 0.034976121 1.57712662 -0.154201716 0.0417751744 1.58262277 -0.16462633 0.027345255 1.58280087 -0.16544649 0.0283736885 1.58264196 -0.152978018 0.0411012359 1.5828836 -0.16462633 0.027345255 1.58280087 -0.154201716 0.0417751744 1.58262277 -0.159364909 0.0480212979 1.59938204 -0.164515942 0.0273148008 1.58306646 -0.152978018 0.0411012359 1.5828836 -0.17245996 0.0324041322 1.59940219 -0.164515942 0.0273148008 1.58306646 -0.159364909 0.0480212979 1.59938204 -0.159324318 0.0479909293 1.60095191 -0.172419369 0.0323593281 1.60088515 -0.159364909 0.0480212979 1.59938204 -0.172419369 0.0323593281 1.60088515 -0.17245996 0.0324041322 1.59940219 -0.159364909 0.0480212979 1.59938204 -0.172551453 0.0323046632 1.61230743 -0.17245996 0.0324041322 1.59940219 -0.172419369 0.0323593281 1.60088515 -0.159364909 0.0480212979 1.59938204 -0.159267932 0.0481361225 1.61232114 -0.159324318 0.0479909293 1.60095191 -0.165229708 0.0531987846 1.59945226 -0.178617865 0.0372944847 1.59962654 -0.165293232 0.053235773 1.61249554 -0.178617865 0.0372944847 1.59962654 -0.178593919 0.0373176597 1.61254454 -0.165293232 0.053235773 1.61249554 -0.175071821 0.0345133394 1.61472702 -0.172740191 0.0373422839 1.61465764 -0.17692852 0.0360382386 1.61465204 -0.17692852 0.0360382386 1.61465204 -0.172740191 0.0373422839 1.61465764 -0.173316061 0.0402611941 1.61466491 -0.172551453 0.0323046632 1.61230743 -0.178593919 0.0373176597 1.61254454 -0.178617865 0.0372944847 1.59962654 -0.172551453 0.0323046632 1.61230743 -0.178617865 0.0372944847 1.59962654 -0.172866076 0.03236432 1.59933209 -0.174260572 0.0337877795 1.61465788 -0.17692852 0.0360382386 1.61465204 -0.178593919 0.0373176597 1.61254454 -0.174260572 0.0337877795 1.61465788 -0.178593919 0.0373176597 1.61254454 -0.172551453 0.0323046632 1.61230743 -0.165293232 0.053235773 1.61249554 -0.159267932 0.0481361225 1.61232114 -0.165229708 0.0531987846 1.59945226 -0.165229708 0.0531987846 1.59945226 -0.159267932 0.0481361225 1.61232114 -0.159394175 0.0484198518 1.59930921 -0.163695768 0.0518086776 1.61462903 -0.16103524 0.0495942533 1.61463487 -0.165293232 0.053235773 1.61249554 -0.165293232 0.053235773 1.61249554 -0.16103524 0.0495942533 1.61463487 -0.159267932 0.0481361225 1.61232114 -0.159394175 0.0484198518 1.59930921 -0.158639565 0.0459043421 1.58292437 -0.165229708 0.0531987846 1.59945226 -0.159394175 0.0484198518 1.59930921 -0.152978018 0.0411012359 1.5828836 -0.158639565 0.0459043421 1.58292437 -0.157595083 0.045027975 1.58290291 -0.152978018 0.0411012359 1.5828836 -0.154233888 0.0421995372 1.58289254 -0.157595083 0.045027975 1.58290291 -0.158639565 0.0459043421 1.58292437 -0.152978018 0.0411012359 1.5828836 -0.154233888 0.0421995372 1.58289254 -0.154236123 0.04182804 1.56850922 -0.157690227 0.0449433401 1.56867099 -0.154233888 0.0421995372 1.58289254 -0.157690227 0.0449433401 1.56867099 -0.157595083 0.045027975 1.58290291 -0.169210076 0.0312190894 1.5689702 -0.165870994 0.0283373445 1.58291161 -0.169240221 0.0311561935 1.58292437 -0.165573582 0.028389832 1.56844437 -0.165870994 0.0283373445 1.58291161 -0.169210076 0.0312190894 1.5689702 -0.164515942 0.0273148008 1.58306646 -0.165870994 0.0283373445 1.58291161 -0.16462633 0.027345255 1.58280087 -0.170281351 0.0320299789 1.58294463 -0.169240221 0.0311561935 1.58292437 -0.164515942 0.0273148008 1.58306646 -0.164515942 0.0273148008 1.58306646 -0.169240221 0.0311561935 1.58292437 -0.165870994 0.0283373445 1.58291161 -0.170281351 0.0320299789 1.58294463 -0.172866076 0.03236432 1.59933209 -0.178617865 0.0372944847 1.59962654 -0.164515942 0.0273148008 1.58306646 -0.172866076 0.03236432 1.59933209 -0.170281351 0.0320299789 1.58294463 -0.174260572 0.0337877795 1.61465788 -0.159267932 0.0481361225 1.61232114 -0.16103524 0.0495942533 1.61463487 -0.172551453 0.0323046632 1.61230743 -0.159267932 0.0481361225 1.61232114 -0.174260572 0.0337877795 1.61465788 -0.17692852 0.0360382386 1.61465204 -0.173316061 0.0402611941 1.61466491 -0.178593919 0.0373176597 1.61254454 -0.167204469 0.0475043952 1.61465263 -0.165293232 0.053235773 1.61249554 -0.173316061 0.0402611941 1.61466491 -0.173316061 0.0402611941 1.61466491 -0.165293232 0.053235773 1.61249554 -0.178593919 0.0373176597 1.61254454 -0.167204469 0.0475043952 1.61465263 -0.163695768 0.0518086776 1.61462903 -0.165293232 0.053235773 1.61249554 -0.156392619 0.0393092409 1.56488371 -0.160166293 0.0422962382 1.56482553 -0.158527121 0.0441491976 1.56634152 -0.155362487 0.0405562893 1.5658077 -0.156392619 0.0393092409 1.56488371 -0.158527121 0.0441491976 1.56634152 -0.154677853 0.0416945592 1.56716681 -0.155362487 0.0405562893 1.5658077 -0.158527121 0.0441491976 1.56634152 -0.154677853 0.0416945592 1.56716681 -0.158527121 0.0441491976 1.56634152 -0.157690227 0.0449433401 1.56867099 -0.154236123 0.04182804 1.56850922 -0.154677853 0.0416945592 1.56716681 -0.157690227 0.0449433401 1.56867099 -0.165573582 0.028389832 1.56844437 -0.169210076 0.0312190894 1.5689702 -0.168715596 0.0318139941 1.56679749 -0.164911315 0.0292208754 1.56640065 -0.165573582 0.028389832 1.56844437 -0.168715596 0.0318139941 1.56679749 -0.164911315 0.0292208754 1.56640065 -0.168715596 0.0318139941 1.56679749 -0.167791173 0.0331908688 1.56540263 -0.163636506 0.0310280565 1.56478584 -0.164911315 0.0292208754 1.56640065 -0.167791173 0.0331908688 1.56540263 -0.163636506 0.0310280565 1.56478584 -0.167791173 0.0331908688 1.56540263 -0.166700646 0.0345544256 1.56481528 -0.16544649 0.0283736885 1.58264196 -0.16462633 0.027345255 1.58280087 -0.165870994 0.0283373445 1.58291161 -0.164515942 0.0273148008 1.58306646 -0.17245996 0.0324041322 1.59940219 -0.172866076 0.03236432 1.59933209 -0.165573582 0.028389832 1.56844437 -0.16544649 0.0283736885 1.58264196 -0.165870994 0.0283373445 1.58291161 -0.164911315 0.0292208754 1.56640065 -0.163636506 0.0310280565 1.56478584 -0.163376182 0.0308637489 1.56508541 -0.163636506 0.0310280565 1.56478584 -0.156392619 0.0393092409 1.56488371 -0.163376182 0.0308637489 1.56508541 -0.154677853 0.0416945592 1.56716681 -0.154236123 0.04182804 1.56850922 -0.155362487 0.0405562893 1.5658077 -0.17245996 0.0324041322 1.59940219 -0.172551453 0.0323046632 1.61230743 -0.172866076 0.03236432 1.59933209 -0.154201716 0.0417751744 1.58262277 -0.154236123 0.04182804 1.56850922 -0.154233888 0.0421995372 1.58289254 -0.174260572 0.0337877795 1.61465788 -0.175071821 0.0345133394 1.61472702 -0.17692852 0.0360382386 1.61465204 -0.152978018 0.0411012359 1.5828836 -0.154201716 0.0417751744 1.58262277 -0.154233888 0.0421995372 1.58289254 -0.159364909 0.0480212979 1.59938204 -0.152978018 0.0411012359 1.5828836 -0.159394175 0.0484198518 1.59930921 -0.178617865 0.0372944847 1.59962654 -0.17027244 0.0323517174 1.58274317 -0.170281351 0.0320299789 1.58294463 -0.159394175 0.0484198518 1.59930921 -0.159267932 0.0481361225 1.61232114 -0.159364909 0.0480212979 1.59938204 -0.170281351 0.0320299789 1.58294463 -0.169273585 0.0315879919 1.58264697 -0.169240221 0.0311561935 1.58292437 -0.17027244 0.0323517174 1.58274317 -0.169273585 0.0315879919 1.58264697 -0.170281351 0.0320299789 1.58294463 -0.16103524 0.0495942533 1.61463487 -0.163695768 0.0518086776 1.61462903 -0.161905423 0.0502585545 1.6147157 -0.169273585 0.0315879919 1.58264697 -0.169161767 0.0317456983 1.5681175 -0.169210076 0.0312190894 1.5689702 -0.169273585 0.0315879919 1.58264697 -0.169210076 0.0312190894 1.5689702 -0.169240221 0.0311561935 1.58292437 -0.168715596 0.0318139941 1.56679749 -0.169210076 0.0312190894 1.5689702 -0.169161767 0.0317456983 1.5681175 -0.168715596 0.0318139941 1.56679749 -0.169161767 0.0317456983 1.5681175 -0.167791173 0.0331908688 1.56540263 -0.157690227 0.0449433401 1.56867099 -0.158527121 0.0441491976 1.56634152 -0.158107921 0.0449172631 1.56879961 -0.158107921 0.0449172631 1.56879961 -0.15802823 0.044990547 1.58262718 -0.157595083 0.045027975 1.58290291 -0.158107921 0.0449172631 1.56879961 -0.157595083 0.045027975 1.58290291 -0.157690227 0.0449433401 1.56867099 -0.15894337 0.045828484 1.58270741 -0.165229708 0.0531987846 1.59945226 -0.158639565 0.0459043421 1.58292437 -0.15802823 0.044990547 1.58262718 -0.158639565 0.0459043421 1.58292437 -0.157595083 0.045027975 1.58290291 -0.15802823 0.044990547 1.58262718 -0.15894337 0.045828484 1.58270741 -0.158639565 0.0459043421 1.58292437 -0.16200614 0.0324976929 1.57284451 -0.162432328 0.0372549109 1.57364631 -0.161878735 0.0326542445 1.57486832 -0.161087349 0.0335909799 1.57644558 -0.161878735 0.0326542445 1.57486832 -0.162432328 0.0372549109 1.57364631 -0.157874852 0.0374276005 1.57514274 -0.162432328 0.0372549109 1.57364631 -0.157620907 0.0377324931 1.57317805 -0.157874852 0.0374276005 1.57514274 -0.158578768 0.0365734324 1.57647908 -0.162432328 0.0372549109 1.57364631 -0.158578768 0.0365734324 1.57647908 -0.15993835 0.034976121 1.57712662 -0.162432328 0.0372549109 1.57364631 -0.15993835 0.034976121 1.57712662 -0.161087349 0.0335909799 1.57644558 -0.162432328 0.0372549109 1.57364631 -0.16462633 0.027345255 1.58280087 -0.152978018 0.0411012359 1.5828836 -0.164515942 0.0273148008 1.58306646 -0.15966934 0.0478065312 1.60752535 -0.160240993 0.0471748002 1.60913646 -0.161896616 0.0496817492 1.60702157 -0.161896616 0.0496817492 1.60702157 -0.160240993 0.0471748002 1.60913646 -0.162822559 0.0485743843 1.60965955 -0.16484873 0.0461692736 1.6029247 -0.16267319 0.0445708781 1.60288632 -0.163728818 0.0475038476 1.60299766 -0.16267319 0.0445708781 1.60288632 -0.161278322 0.0462232903 1.60317755 -0.163728818 0.0475038476 1.60299766 -0.160240993 0.0471748002 1.60913646 -0.161061943 0.0464712121 1.60989344 -0.162822559 0.0485743843 1.60965955 -0.163728818 0.0475038476 1.60299766 -0.161278322 0.0462232903 1.60317755 -0.162473887 0.0489978641 1.60415077 -0.162822559 0.0485743843 1.60965955 -0.16218251 0.0451450832 1.61043084 -0.164352953 0.0467494167 1.61043251 -0.161061943 0.0464712121 1.60989344 -0.16218251 0.0451450832 1.61043084 -0.162822559 0.0485743843 1.60965955 -0.161278322 0.0462232903 1.60317755 -0.160357788 0.0473181196 1.60436046 -0.162473887 0.0489978641 1.60415077 -0.160357788 0.0473181196 1.60436046 -0.159907922 0.0478597619 1.60589039 -0.162473887 0.0489978641 1.60415077 -0.162473887 0.0489978641 1.60415077 -0.159907922 0.0478597619 1.60589039 -0.161896616 0.0496817492 1.60702157 -0.159907922 0.0478597619 1.60589039 -0.15966934 0.0478065312 1.60752535 -0.161896616 0.0496817492 1.60702157 -0.161278322 0.0462232903 1.60317755 -0.160674393 0.0464772955 1.60314631 -0.160357788 0.0473181196 1.60436046 -0.160674393 0.0464772955 1.60314631 -0.159616798 0.0477353483 1.605057 -0.160357788 0.0473181196 1.60436046 -0.164758503 0.0420724191 1.60685194 -0.16468735 0.041693829 1.60576236 -0.164374158 0.0425314046 1.60470557 -0.160357788 0.0473181196 1.60436046 -0.159616798 0.0477353483 1.605057 -0.159907922 0.0478597619 1.60589039 -0.164374158 0.0425314046 1.60470557 -0.163701773 0.0428685658 1.60344231 -0.163736224 0.0432936028 1.60360682 -0.16468735 0.041693829 1.60576236 -0.163701773 0.0428685658 1.60344231 -0.164374158 0.0425314046 1.60470557 -0.159616798 0.0477353483 1.605057 -0.15966934 0.0478065312 1.60752535 -0.159907922 0.0478597619 1.60589039 -0.163736224 0.0432936028 1.60360682 -0.163701773 0.0428685658 1.60344231 -0.16267319 0.0445708781 1.60288632 -0.163701773 0.0428685658 1.60344231 -0.162285492 0.0445585959 1.60252571 -0.16267319 0.0445708781 1.60288632 -0.16267319 0.0445708781 1.60288632 -0.162285492 0.0445585959 1.60252571 -0.161278322 0.0462232903 1.60317755 -0.162285492 0.0445585959 1.60252571 -0.160674393 0.0464772955 1.60314631 -0.161278322 0.0462232903 1.60317755 -0.161128119 0.0459259897 1.61048019 -0.163701773 0.0428685658 1.60344231 -0.162826732 0.043902602 1.61059451 -0.162826732 0.043902602 1.61059451 -0.163701773 0.0428685658 1.60344231 -0.1642856 0.0421660393 1.60888028 -0.162285492 0.0445585959 1.60252571 -0.163701773 0.0428685658 1.60344231 -0.161128119 0.0459259897 1.61048019 -0.1642856 0.0421660393 1.60888028 -0.163701773 0.0428685658 1.60344231 -0.16468735 0.041693829 1.60576236 -0.159616798 0.0477353483 1.605057 -0.160674393 0.0464772955 1.60314631 -0.15966934 0.0478065312 1.60752535 -0.160674393 0.0464772955 1.60314631 -0.162285492 0.0445585959 1.60252571 -0.15966934 0.0478065312 1.60752535 -0.15966934 0.0478065312 1.60752535 -0.162285492 0.0445585959 1.60252571 -0.160240993 0.0471748002 1.60913646 -0.160240993 0.0471748002 1.60913646 -0.162285492 0.0445585959 1.60252571 -0.161128119 0.0459259897 1.61048019 -0.163411915 0.0436632149 1.60999298 -0.1642856 0.0421660393 1.60888028 -0.164221451 0.0427070223 1.60891533 -0.162826732 0.043902602 1.61059451 -0.1642856 0.0421660393 1.60888028 -0.163411915 0.0436632149 1.60999298 -0.164221451 0.0427070223 1.60891533 -0.1642856 0.0421660393 1.60888028 -0.164758503 0.0420724191 1.60685194 -0.1642856 0.0421660393 1.60888028 -0.16468735 0.041693829 1.60576236 -0.164758503 0.0420724191 1.60685194 -0.160240993 0.0471748002 1.60913646 -0.161128119 0.0459259897 1.61048019 -0.161061943 0.0464712121 1.60989344 -0.161061943 0.0464712121 1.60989344 -0.161128119 0.0459259897 1.61048019 -0.16218251 0.0451450832 1.61043084 -0.161128119 0.0459259897 1.61048019 -0.162826732 0.043902602 1.61059451 -0.16218251 0.0451450832 1.61043084 -0.16218251 0.0451450832 1.61043084 -0.162826732 0.043902602 1.61059451 -0.163411915 0.0436632149 1.60999298 -0.164758503 0.0420724191 1.60685194 -0.164374158 0.0425314046 1.60470557 -0.166249886 0.044497665 1.60415733 -0.164374158 0.0425314046 1.60470557 -0.163736224 0.0432936028 1.60360682 -0.166249886 0.044497665 1.60415733 -0.164352953 0.0467494167 1.61043251 -0.163411915 0.0436632149 1.60999298 -0.165885523 0.0449240431 1.60966492 -0.16218251 0.0451450832 1.61043084 -0.163411915 0.0436632149 1.60999298 -0.164352953 0.0467494167 1.61043251 -0.166249886 0.044497665 1.60415733 -0.163736224 0.0432936028 1.60360682 -0.16484873 0.0461692736 1.6029247 -0.163736224 0.0432936028 1.60360682 -0.16267319 0.0445708781 1.60288632 -0.16484873 0.0461692736 1.6029247 -0.163411915 0.0436632149 1.60999298 -0.164221451 0.0427070223 1.60891533 -0.165885523 0.0449240431 1.60966492 -0.165885523 0.0449240431 1.60966492 -0.164221451 0.0427070223 1.60891533 -0.166819081 0.0438152961 1.60703015 -0.164221451 0.0427070223 1.60891533 -0.164758503 0.0420724191 1.60685194 -0.166819081 0.0438152961 1.60703015 -0.166819081 0.0438152961 1.60703015 -0.164758503 0.0420724191 1.60685194 -0.166249886 0.044497665 1.60415733 -0.166249886 0.044497665 1.60415733 -0.16484873 0.0461692736 1.6029247 -0.163728818 0.0475038476 1.60299766 -0.166249886 0.044497665 1.60415733 -0.163728818 0.0475038476 1.60299766 -0.162473887 0.0489978641 1.60415077 -0.166249886 0.044497665 1.60415733 -0.162473887 0.0489978641 1.60415077 -0.161896616 0.0496817492 1.60702157 -0.165885523 0.0449240431 1.60966492 -0.166249886 0.044497665 1.60415733 -0.161896616 0.0496817492 1.60702157 -0.165885523 0.0449240431 1.60966492 -0.161896616 0.0496817492 1.60702157 -0.162822559 0.0485743843 1.60965955 -0.165885523 0.0449240431 1.60966492 -0.166819081 0.0438152961 1.60703015 -0.166249886 0.044497665 1.60415733 -0.165885523 0.0449240431 1.60966492 -0.162822559 0.0485743843 1.60965955 -0.164352953 0.0467494167 1.61043251 -0.169609964 0.0404891856 1.60703504 -0.167598486 0.0384108759 1.60837305 -0.170535922 0.0393818244 1.60967302 -0.172562078 0.03697671 1.60293818 -0.170386508 0.035378363 1.60289979 -0.171442166 0.038311284 1.60301101 -0.170386508 0.035378363 1.60289979 -0.16899164 0.0370307751 1.60319102 -0.171442166 0.038311284 1.60301101 -0.167598486 0.0384108759 1.60837305 -0.16877529 0.0372786522 1.60990679 -0.170535922 0.0393818244 1.60967302 -0.171442166 0.038311284 1.60301101 -0.16899164 0.0370307751 1.60319102 -0.170187205 0.0398052707 1.60416424 -0.170535922 0.0393818244 1.60967302 -0.169895858 0.0359525196 1.61044431 -0.172066301 0.0375568569 1.61044598 -0.16877529 0.0372786522 1.60990679 -0.169895858 0.0359525196 1.61044431 -0.170535922 0.0393818244 1.60967302 -0.16899164 0.0370307751 1.60319102 -0.168071136 0.038125556 1.60437381 -0.170187205 0.0398052707 1.60416424 -0.168071136 0.038125556 1.60437381 -0.167449728 0.0386925712 1.60616505 -0.170187205 0.0398052707 1.60416424 -0.170187205 0.0398052707 1.60416424 -0.167449728 0.0386925712 1.60616505 -0.169609964 0.0404891856 1.60703504 -0.167449728 0.0386925712 1.60616505 -0.167598486 0.0384108759 1.60837305 -0.169609964 0.0404891856 1.60703504 -0.16899164 0.0370307751 1.60319102 -0.167707741 0.038095694 1.60400355 -0.168071136 0.038125556 1.60437381 -0.172322288 0.0325895175 1.60779166 -0.172246829 0.0326826535 1.60521328 -0.172471851 0.0328798592 1.60686541 -0.172471851 0.0328798592 1.60686541 -0.172246829 0.0326826535 1.60521328 -0.172087461 0.0333388895 1.60471904 -0.168071136 0.038125556 1.60437381 -0.167707741 0.038095694 1.60400355 -0.167449728 0.0386925712 1.60616505 -0.172246829 0.0326826535 1.60521328 -0.171434879 0.0339327604 1.6036036 -0.172087461 0.0333388895 1.60471904 -0.171434879 0.0339327604 1.6036036 -0.169738233 0.0356784649 1.60247493 -0.170386508 0.035378363 1.60289979 -0.170386508 0.035378363 1.60289979 -0.169738233 0.0356784649 1.60247493 -0.16899164 0.0370307751 1.60319102 -0.169738233 0.0356784649 1.60247493 -0.167707741 0.038095694 1.60400355 -0.16899164 0.0370307751 1.60319102 -0.171373531 0.0337168165 1.60991371 -0.172246829 0.0326826535 1.60521328 -0.172322288 0.0325895175 1.60779166 -0.169738233 0.0356784649 1.60247493 -0.172246829 0.0326826535 1.60521328 -0.171373531 0.0337168165 1.60991371 -0.169738233 0.0356784649 1.60247493 -0.171434879 0.0339327604 1.6036036 -0.172246829 0.0326826535 1.60521328 -0.167598486 0.0384108759 1.60837305 -0.167707741 0.038095694 1.60400355 -0.168591321 0.0370337702 1.61037171 -0.168591321 0.0370337702 1.61037171 -0.167707741 0.038095694 1.60400355 -0.1701525 0.0351702496 1.61068547 -0.1701525 0.0351702496 1.61068547 -0.169738233 0.0356784649 1.60247493 -0.171373531 0.0337168165 1.60991371 -0.167707741 0.038095694 1.60400355 -0.169738233 0.0356784649 1.60247493 -0.1701525 0.0351702496 1.61068547 -0.167449728 0.0386925712 1.60616505 -0.167707741 0.038095694 1.60400355 -0.167598486 0.0384108759 1.60837305 -0.1701525 0.0351702496 1.61068547 -0.171373531 0.0337168165 1.60991371 -0.171125263 0.0344706513 1.61000633 -0.171125263 0.0344706513 1.61000633 -0.171373531 0.0337168165 1.60991371 -0.171934798 0.0335144624 1.6089288 -0.171373531 0.0337168165 1.60991371 -0.172322288 0.0325895175 1.60779166 -0.171934798 0.0335144624 1.6089288 -0.171934798 0.0335144624 1.6089288 -0.172322288 0.0325895175 1.60779166 -0.172471851 0.0328798592 1.60686541 -0.167598486 0.0384108759 1.60837305 -0.168591321 0.0370337702 1.61037171 -0.16877529 0.0372786522 1.60990679 -0.16877529 0.0372786522 1.60990679 -0.168591321 0.0370337702 1.61037171 -0.169895858 0.0359525196 1.61044431 -0.168591321 0.0370337702 1.61037171 -0.1701525 0.0351702496 1.61068547 -0.169895858 0.0359525196 1.61044431 -0.169895858 0.0359525196 1.61044431 -0.1701525 0.0351702496 1.61068547 -0.171125263 0.0344706513 1.61000633 -0.172471851 0.0328798592 1.60686541 -0.172087461 0.0333388895 1.60471904 -0.173963234 0.0353051014 1.6041708 -0.172087461 0.0333388895 1.60471904 -0.171434879 0.0339327604 1.6036036 -0.173963234 0.0353051014 1.6041708 -0.172066301 0.0375568569 1.61044598 -0.171125263 0.0344706513 1.61000633 -0.173598871 0.0357314795 1.60967827 -0.169895858 0.0359525196 1.61044431 -0.171125263 0.0344706513 1.61000633 -0.172066301 0.0375568569 1.61044598 -0.173963234 0.0353051014 1.6041708 -0.171434879 0.0339327604 1.6036036 -0.172562078 0.03697671 1.60293818 -0.171434879 0.0339327604 1.6036036 -0.170386508 0.035378363 1.60289979 -0.172562078 0.03697671 1.60293818 -0.171125263 0.0344706513 1.61000633 -0.171934798 0.0335144624 1.6089288 -0.173598871 0.0357314795 1.60967827 -0.173598871 0.0357314795 1.60967827 -0.171934798 0.0335144624 1.6089288 -0.174532384 0.0346227773 1.60704362 -0.171934798 0.0335144624 1.6089288 -0.172471851 0.0328798592 1.60686541 -0.174532384 0.0346227773 1.60704362 -0.174532384 0.0346227773 1.60704362 -0.172471851 0.0328798592 1.60686541 -0.173963234 0.0353051014 1.6041708 -0.170535922 0.0393818244 1.60967302 -0.170187205 0.0398052707 1.60416424 -0.169609964 0.0404891856 1.60703504 -0.173598871 0.0357314795 1.60967827 -0.172562078 0.03697671 1.60293818 -0.171442166 0.038311284 1.60301101 -0.173598871 0.0357314795 1.60967827 -0.173963234 0.0353051014 1.6041708 -0.172562078 0.03697671 1.60293818 -0.173598871 0.0357314795 1.60967827 -0.174532384 0.0346227773 1.60704362 -0.173963234 0.0353051014 1.6041708 -0.173598871 0.0357314795 1.60967827 -0.171442166 0.038311284 1.60301101 -0.172066301 0.0375568569 1.61044598 -0.172066301 0.0375568569 1.61044598 -0.171442166 0.038311284 1.60301101 -0.170187205 0.0398052707 1.60416424 -0.172066301 0.0375568569 1.61044598 -0.170187205 0.0398052707 1.60416424 -0.170535922 0.0393818244 1.60967302 </float_array>
          <technique_common>
            <accessor count="1086" offset="0" source="#mesh_0-positions-array" stride="3">
              <param name="X" type="float" />
              <param name="Y" type="float" />
              <param name="Z" type="float" />
            </accessor>
          </technique_common>
        </source>
        <vertices id="mesh_0-vertices">
          <input semantic="POSITION" source="#mesh_0-positions" />
        </vertices>
        <polylist count="362" material="defaultMaterial">
          <input offset="0" semantic="VERTEX" source="#mesh_0-vertices" />
          <vcount>3 3 3 3 3 3 3 3 3 3 3 3 3 3 3 3 3 3 3 3 3 3 3 3 3 3 3 3 3 3 3 3 3 3 3 3 3 3 3 3 3 3 3 3 3 3 3 3 3 3 3 3 3 3 3 3 3 3 3 3 3 3 3 3 3 3 3 3 3 3 3 3 3 3 3 3 3 3 3 3 3 3 3 3 3 3 3 3 3 3 3 3 3 3 3 3 3 3 3 3 3 3 3 3 3 3 3 3 3 3 3 3 3 3 3 3 3 3 3 3 3 3 3 3 3 3 3 3 3 3 3 3 3 3 3 3 3 3 3 3 3 3 3 3 3 3 3 3 3 3 3 3 3 3 3 3 3 3 3 3 3 3 3 3 3 3 3 3 3 3 3 3 3 3 3 3 3 3 3 3 3 3 3 3 3 3 3 3 3 3 3 3 3 3 3 3 3 3 3 3 3 3 3 3 3 3 3 3 3 3 3 3 3 3 3 3 3 3 3 3 3 3 3 3 3 3 3 3 3 3 3 3 3 3 3 3 3 3 3 3 3 3 3 3 3 3 3 3 3 3 3 3 3 3 3 3 3 3 3 3 3 3 3 3 3 3 3 3 3 3 3 3 3 3 3 3 3 3 3 3 3 3 3 3 3 3 3 3 3 3 3 3 3 3 3 3 3 3 3 3 3 3 3 3 3 3 3 3 3 3 3 3 3 3 3 3 3 3 3 3 3 3 3 3 3 3 3 3 3 3 3 3 3 3 3 3 3 3 3 3 3 3 3 3 3 3 3 3 3 3 3 3 3 3 3 3 3 3 3 3 3 3 </vcount>
          <p>0 1 2 3 4 5 6 7 8 9 10 11 12 13 14 15 16 17 18 19 20 21 22 23 24 25 26 27 28 29 30 31 32 33 34 35 36 37 38 39 40 41 42 43 44 45 46 47 48 49 50 51 52 53 54 55 56 57 58 59 60 61 62 63 64 65 66 67 68 69 70 71 72 73 74 75 76 77 78 79 80 81 82 83 84 85 86 87 88 89 90 91 92 93 94 95 96 97 98 99 100 101 102 103 104 105 106 107 108 109 110 111 112 113 114 115 116 117 118 119 120 121 122 123 124 125 126 127 128 129 130 131 132 133 134 135 136 137 138 139 140 141 142 143 144 145 146 147 148 149 150 151 152 153 154 155 156 157 158 159 160 161 162 163 164 165 166 167 168 169 170 171 172 173 174 175 176 177 178 179 180 181 182 183 184 185 186 187 188 189 190 191 192 193 194 195 196 197 198 199 200 201 202 203 204 205 206 207 208 209 210 211 212 213 214 215 216 217 218 219 220 221 222 223 224 225 226 227 228 229 230 231 232 233 234 235 236 237 238 239 240 241 242 243 244 245 246 247 248 249 250 251 252 253 254 255 256 257 258 259 260 261 262 263 264 265 266 267 268 269 270 271 272 273 274 275 276 277 278 279 280 281 282 283 284 285 286 287 288 289 290 291 292 293 294 295 296 297 298 299 300 301 302 303 304 305 306 307 308 309 310 311 312 313 314 315 316 317 318 319 320 321 322 323 324 325 326 327 328 329 330 331 332 333 334 335 336 337 338 339 340 341 342 343 344 345 346 347 348 349 350 351 352 353 354 355 356 357 358 359 360 361 362 363 364 365 366 367 368 369 370 371 372 373 374 375 376 377 378 379 380 381 382 383 384 385 386 387 388 389 390 391 392 393 394 395 396 397 398 399 400 401 402 403 404 405 406 407 408 409 410 411 412 413 414 415 416 417 418 419 420 421 422 423 424 425 426 427 428 429 430 431 432 433 434 435 436 437 438 439 440 441 442 443 444 445 446 447 448 449 450 451 452 453 454 455 456 457 458 459 460 461 462 463 464 465 466 467 468 469 470 471 472 473 474 475 476 477 478 479 480 481 482 483 484 485 486 487 488 489 490 491 492 493 494 495 496 497 498 499 500 501 502 503 504 505 506 507 508 509 510 511 512 513 514 515 516 517 518 519 520 521 522 523 524 525 526 527 528 529 530 531 532 533 534 535 536 537 538 539 540 541 542 543 544 545 546 547 548 549 550 551 552 553 554 555 556 557 558 559 560 561 562 563 564 565 566 567 568 569 570 571 572 573 574 575 576 577 578 579 580 581 582 583 584 585 586 587 588 589 590 591 592 593 594 595 596 597 598 599 600 601 602 603 604 605 606 607 608 609 610 611 612 613 614 615 616 617 618 619 620 621 622 623 624 625 626 627 628 629 630 631 632 633 634 635 636 637 638 639 640 641 642 643 644 645 646 647 648 649 650 651 652 653 654 655 656 657 658 659 660 661 662 663 664 665 666 667 668 669 670 671 672 673 674 675 676 677 678 679 680 681 682 683 684 685 686 687 688 689 690 691 692 693 694 695 696 697 698 699 700 701 702 703 704 705 706 707 708 709 710 711 712 713 714 715 716 717 718 719 720 721 722 723 724 725 726 727 728 729 730 731 732 733 734 735 736 737 738 739 740 741 742 743 744 745 746 747 748 749 750 751 752 753 754 755 756 757 758 759 760 761 762 763 764 765 766 767 768 769 770 771 772 773 774 775 776 777 778 779 780 781 782 783 784 785 786 787 788 789 790 791 792 793 794 795 796 797 798 799 800 801 802 803 804 805 806 807 808 809 810 811 812 813 814 815 816 817 818 819 820 821 822 823 824 825 826 827 828 829 830 831 832 833 834 835 836 837 838 839 840 841 842 843 844 845 846 847 848 849 850 851 852 853 854 855 856 857 858 859 860 861 862 863 864 865 866 867 868 869 870 871 872 873 874 875 876 877 878 879 880 881 882 883 884 885 886 887 888 889 890 891 892 893 894 895 896 897 898 899 900 901 902 903 904 905 906 907 908 909 910 911 912 913 914 915 916 917 918 919 920 921 922 923 924 925 926 927 928 929 930 931 932 933 934 935 936 937 938 939 940 941 942 943 944 945 946 947 948 949 950 951 952 953 954 955 956 957 958 959 960 961 962 963 964 965 966 967 968 969 970 971 972 973 974 975 976 977 978 979 980 981 982 983 984 985 986 987 988 989 990 991 992 993 994 995 996 997 998 999 1000 1001 1002 1003 1004 1005 1006 1007 1008 1009 1010 1011 1012 1013 1014 1015 1016 1017 1018 1019 1020 1021 1022 1023 1024 1025 1026 1027 1028 1029 1030 1031 1032 1033 1034 1035 1036 1037 1038 1039 1040 1041 1042 1043 1044 1045 1046 1047 1048 1049 1050 1051 1052 1053 1054 1055 1056 1057 1058 1059 1060 1061 1062 1063 1064 1065 1066 1067 1068 1069 1070 1071 1072 1073 1074 1075 1076 1077 1078 1079 1080 1081 1082 1083 1084 1085 </p>
        </polylist>
      </mesh>
    </geometry>
  </library_geometries>
  <library_controllers>
  </library_controllers>
  <library_visual_scenes>
    <visual_scene id="Scene" name="Scene">
      <node id="node" name="" type="NODE">
        <matrix sid="matrix">1 0 0 0 0 1 0 0 0 0 1 0 0 0 0 1</matrix>
        <instance_geometry url="#mesh_0">
          <bind_material>
            <technique_common>
              <instance_material symbol="defaultMaterial" target="#material_0">
              </instance_material>
            </technique_common>
          </bind_material>
        </instance_geometry>
      </node>
    </visual_scene>
  </library_visual_scenes>
  <scene>
    <instance_visual_scene url="#Scene" />
  </scene>
</COLLADA>
