<?xml version="1.0" encoding="UTF-8" standalone="no" ?>
<COLLADA xmlns="http://www.collada.org/2005/11/COLLADASchema" version="1.4.1">
  <asset>
    <contributor>
      <author>Assimp</author>
      <authoring_tool>Assimp Exporter</authoring_tool>
    </contributor>
    <created>2026-04-22T16:09:44</created>
    <modified>2026-04-22T16:09:44</modified>
    <unit name="meter" meter="1" />
    <up_axis>Y_UP</up_axis>
  </asset>
  <library_images>
  </library_images>
  <library_effects>
    <effect id="material_0-fx" name="">
      <profile_COMMON>
        <technique sid="standard">
          <phong>
            <emission>
              <color sid="emission">0   0   0   4.19730929e-41</color>
            </emission>
            <ambient>
              <color sid="ambient">0.400000006   0.400000006   0.400000006   4.19744942e-41</color>
            </ambient>
            <diffuse>
              <color sid="diffuse">0.400000006   0.400000006   0.400000006   4.19744942e-41</color>
            </diffuse>
            <specular>
              <color sid="specular">0.25   0.25   0.25   4.19744942e-41</color>
            </specular>
          </phong>
        </technique>
      </profile_COMMON>
    </effect>
  </library_effects>
  <library_materials>
    <material id="material_0" name="">
      <instance_effect url="#material_0-fx"/>
    </material>
  </library_materials>
  <library_geometries>
    <geometry id="mesh_0" name="" >
      <mesh>
        <source id="mesh_0-positions" name="mesh_0-positions">
          <float_array id="mesh_0-positions-array" count="3213"> -0.193396822 -0.0409620143 1.44882703 -0.18137072 -0.0440233201 1.45318234 -0.183300599 -0.0388902687 1.4542129 -0.191965967 -0.0449238941 1.44791555 -0.18137072 -0.0440233201 1.45318234 -0.193396822 -0.0409620143 1.44882703 -0.195469141 -0.0404255167 1.45194292 -0.193635121 -0.0445581786 1.451038 -0.191965967 -0.0449238941 1.44791555 -0.195469141 -0.0404255167 1.45194292 -0.191965967 -0.0449238941 1.44791555 -0.193396822 -0.0409620143 1.44882703 -0.185041025 -0.0385541357 1.45738971 -0.183361799 -0.0436961651 1.45611644 -0.193635121 -0.0445581786 1.451038 -0.20913218 -0.0459455103 1.43520319 -0.21048139 -0.0457245074 1.43978012 -0.21298559 -0.0462807566 1.4272728 -0.193635121 -0.0445581786 1.451038 -0.177348346 -0.0428174026 1.45970047 -0.192678317 -0.0441961735 1.45574427 -0.185041025 -0.0385541357 1.45738971 -0.193635121 -0.0445581786 1.451038 -0.195469141 -0.0404255167 1.45194292 -0.20913218 -0.0459455103 1.43520319 -0.200771555 -0.0451392196 1.44538271 -0.21048139 -0.0457245074 1.43978012 -0.200771555 -0.0451392196 1.44538271 -0.192678317 -0.0441961735 1.45574427 -0.21048139 -0.0457245074 1.43978012 -0.215885982 -0.0465406328 1.41547763 -0.21298559 -0.0462807566 1.4272728 -0.21048139 -0.0457245074 1.43978012 -0.183361799 -0.0436961651 1.45611644 -0.177348346 -0.0428174026 1.45970047 -0.193635121 -0.0445581786 1.451038 -0.185041025 -0.0385541357 1.45738971 -0.183300599 -0.0388902687 1.4542129 -0.183361799 -0.0436961651 1.45611644 -0.18137072 -0.0440233201 1.45318234 -0.183361799 -0.0436961651 1.45611644 -0.183300599 -0.0388902687 1.4542129 -0.215885982 -0.0465406328 1.41547763 -0.21048139 -0.0457245074 1.43978012 -0.218546629 -0.0463562198 1.40982103 -0.199699864 -0.041574046 1.44378638 -0.200771555 -0.0451392196 1.44538271 -0.20228827 -0.0413109921 1.4463675 -0.20228827 -0.0413109921 1.4463675 -0.200771555 -0.0451392196 1.44538271 -0.20913218 -0.0459455103 1.43520319 -0.20228827 -0.0413109921 1.4463675 -0.20913218 -0.0459455103 1.43520319 -0.210713565 -0.0416700952 1.43529594 -0.199699864 -0.041574046 1.44378638 -0.197650358 -0.0467466451 1.44147408 -0.200771555 -0.0451392196 1.44538271 -0.199699864 -0.041574046 1.44378638 -0.206133679 -0.0461766981 1.43317103 -0.197650358 -0.0467466451 1.44147408 -0.207905114 -0.0413133651 1.43433881 -0.206133679 -0.0461766981 1.43317103 -0.199699864 -0.041574046 1.44378638 -0.207905114 -0.0413133651 1.43433881 -0.20913218 -0.0459455103 1.43520319 -0.206133679 -0.0461766981 1.43317103 -0.214534491 -0.0462608784 1.4142133 -0.215885982 -0.0465406328 1.41547763 -0.218546629 -0.0463562198 1.40982103 -0.207905114 -0.0413133651 1.43433881 -0.210713565 -0.0416700952 1.43529594 -0.20913218 -0.0459455103 1.43520319 -0.215600967 -0.0400414467 1.41563654 -0.212607294 -0.0467330292 1.41456974 -0.209680021 -0.0464726686 1.42603815 -0.215600967 -0.0400414467 1.41563654 -0.209680021 -0.0464726686 1.42603815 -0.211832225 -0.0406809635 1.42726731 -0.211832225 -0.0406809635 1.42726731 -0.209680021 -0.0464726686 1.42603815 -0.21298559 -0.0462807566 1.4272728 -0.21344611 -0.0463104807 1.40181804 -0.214534491 -0.0462608784 1.4142133 -0.218546629 -0.0463562198 1.40982103 -0.211832225 -0.0406809635 1.42726731 -0.21298559 -0.0462807566 1.4272728 -0.214737549 -0.0414115526 1.42863739 -0.169518128 -0.0425882861 1.45599747 -0.177348346 -0.0428174026 1.45970047 -0.183361799 -0.0436961651 1.45611644 -0.214737549 -0.0414115526 1.42863739 -0.21298559 -0.0462807566 1.4272728 -0.215885982 -0.0465406328 1.41547763 -0.214737549 -0.0414115526 1.42863739 -0.215885982 -0.0465406328 1.41547763 -0.218131468 -0.0408313498 1.41699386 -0.215600967 -0.0400414467 1.41563654 -0.218131468 -0.0408313498 1.41699386 -0.215885982 -0.0465406328 1.41547763 -0.214534491 -0.0462608784 1.4142133 -0.215600967 -0.0400414467 1.41563654 -0.215885982 -0.0465406328 1.41547763 -0.200771555 -0.0451392196 1.44538271 -0.193635121 -0.0445581786 1.451038 -0.192678317 -0.0441961735 1.45574427 -0.215600967 -0.0400414467 1.41563654 -0.21421811 -0.0462620668 1.41409922 -0.212607294 -0.0467330292 1.41456974 -0.200771555 -0.0451392196 1.44538271 -0.191965967 -0.0449238941 1.44791555 -0.193635121 -0.0445581786 1.451038 -0.21421811 -0.0462620668 1.41409922 -0.215600967 -0.0400414467 1.41563654 -0.214534491 -0.0462608784 1.4142133 -0.214534491 -0.0462608784 1.4142133 -0.215600967 -0.0400414467 1.41563654 -0.214534491 -0.0462608784 1.4142133 -0.185041025 -0.0385541357 1.45738971 -0.187511593 -0.0387123562 1.46107996 -0.183300599 -0.0388902687 1.4542129 -0.21344611 -0.0463104807 1.40181804 -0.218546629 -0.0463562198 1.40982103 -0.207730725 -0.0453098416 1.39034367 -0.209330007 -0.0410527177 1.44465244 -0.201852992 -0.0403909162 1.45213389 -0.210713565 -0.0416700952 1.43529594 -0.207140505 -0.0388004519 1.42882144 -0.207905114 -0.0413133651 1.43433881 -0.191305652 -0.0375409983 1.44025469 -0.201852992 -0.0403909162 1.45213389 -0.20228827 -0.0413109921 1.4463675 -0.210713565 -0.0416700952 1.43529594 -0.114886627 -0.0318694077 1.36413002 -0.10746754 -0.0293908715 1.38269627 -0.111371048 -0.0315641351 1.36867154 -0.187511593 -0.0387123562 1.46107996 -0.178447962 -0.0377361551 1.46167207 -0.183300599 -0.0388902687 1.4542129 -0.139829963 -0.0322404355 1.35105908 -0.132676065 -0.0333343185 1.35085201 -0.142664611 -0.0343718417 1.34745109 -0.205557331 -0.040039055 1.38159096 -0.220857307 -0.0414994545 1.40971696 -0.214197233 -0.0392641127 1.40682447 -0.220857307 -0.0414994545 1.40971696 -0.214493364 -0.0391447283 1.41170967 -0.214197233 -0.0392641127 1.40682447 -0.183300599 -0.0388902687 1.4542129 -0.178447962 -0.0377361551 1.46167207 -0.157123223 -0.0358029157 1.45465553 -0.139829963 -0.0322404355 1.35105908 -0.124715611 -0.0328044891 1.35533547 -0.132676065 -0.0333343185 1.35085201 -0.199699864 -0.041574046 1.44378638 -0.183300599 -0.0388902687 1.4542129 -0.168927789 -0.0352354869 1.44811583 -0.220857307 -0.0414994545 1.40971696 -0.215600967 -0.0400414467 1.41563654 -0.214493364 -0.0391447283 1.41170967 -0.111371048 -0.0315641351 1.36867154 -0.10746754 -0.0293908715 1.38269627 -0.107506961 -0.0312186815 1.37518656 -0.220857307 -0.0414994545 1.40971696 -0.218131468 -0.0408313498 1.41699386 -0.215600967 -0.0400414467 1.41563654 -0.217625454 -0.046399679 1.42452669 -0.218546629 -0.0463562198 1.40982103 -0.21048139 -0.0457245074 1.43978012 -0.205033004 -0.0453464314 1.44629765 -0.21048139 -0.0457245074 1.43978012 -0.192678317 -0.0441961735 1.45574427 -0.220857307 -0.0414994545 1.40971696 -0.22189489 -0.041777309 1.41881144 -0.218131468 -0.0408313498 1.41699386 -0.20228827 -0.0413109921 1.4463675 -0.193396822 -0.0409620143 1.44882703 -0.199699864 -0.041574046 1.44378638 -0.20228827 -0.0413109921 1.4463675 -0.201852992 -0.0403909162 1.45213389 -0.195469141 -0.0404255167 1.45194292 -0.168927789 -0.0352354869 1.44811583 -0.183300599 -0.0388902687 1.4542129 -0.157123223 -0.0358029157 1.45465553 -0.20228827 -0.0413109921 1.4463675 -0.195469141 -0.0404255167 1.45194292 -0.193396822 -0.0409620143 1.44882703 -0.168927789 -0.0352354869 1.44811583 -0.157123223 -0.0358029157 1.45465553 -0.151389182 -0.0336503796 1.44976807 -0.22189489 -0.041777309 1.41881144 -0.214737549 -0.0414115526 1.42863739 -0.218131468 -0.0408313498 1.41699386 -0.215600967 -0.0400414467 1.41563654 -0.213305488 -0.0390843749 1.41858304 -0.214493364 -0.0391447283 1.41170967 -0.10746754 -0.0293908715 1.38269627 -0.103537865 -0.0309121665 1.38588476 -0.107506961 -0.0312186815 1.37518656 -0.151389182 -0.0336503796 1.44976807 -0.157123223 -0.0358029157 1.45465553 -0.147506267 -0.0348405503 1.45235789 -0.10746754 -0.0293908715 1.38269627 -0.104799189 -0.0290036965 1.40342176 -0.103537865 -0.0309121665 1.38588476 -0.103537865 -0.0309121665 1.38588476 -0.104799189 -0.0290036965 1.40342176 -0.102309033 -0.0306258965 1.39297533 -0.169518128 -0.0425882861 1.45599747 -0.157828644 -0.0408830456 1.45352316 -0.177348346 -0.0428174026 1.45970047 -0.191305652 -0.0375409983 1.44025469 -0.207905114 -0.0413133651 1.43433881 -0.18287465 -0.0366943553 1.44384456 -0.139829963 -0.0322404355 1.35105908 -0.114886627 -0.0318694077 1.36413002 -0.124715611 -0.0328044891 1.35533547 -0.137143105 -0.0317081846 1.44666946 -0.151389182 -0.0336503796 1.44976807 -0.136101767 -0.0336131565 1.44827187 -0.151389182 -0.0336503796 1.44976807 -0.147506267 -0.0348405503 1.45235789 -0.136101767 -0.0336131565 1.44827187 -0.104799189 -0.0290036965 1.40342176 -0.102538027 -0.0308812987 1.40672803 -0.102309033 -0.0306258965 1.39297533 -0.136101767 -0.0336131565 1.44827187 -0.129203424 -0.0331926718 1.44490314 -0.137143105 -0.0317081846 1.44666946 -0.104799189 -0.0290036965 1.40342176 -0.104981281 -0.0311099831 1.41640007 -0.102538027 -0.0308812987 1.40672803 -0.104799189 -0.0290036965 1.40342176 -0.107482113 -0.0293906108 1.41483355 -0.104981281 -0.0311099831 1.41640007 -0.195469141 -0.0404255167 1.45194292 -0.201852992 -0.0403909162 1.45213389 -0.187511593 -0.0387123562 1.46107996 -0.167101815 -0.0442729816 1.45348585 -0.157828644 -0.0408830456 1.45352316 -0.169518128 -0.0425882861 1.45599747 -0.120740779 -0.0305604823 1.43535626 -0.137143105 -0.0317081846 1.44666946 -0.129203424 -0.0331926718 1.44490314 -0.22189489 -0.041777309 1.41881144 -0.209330007 -0.0410527177 1.44465244 -0.214737549 -0.0414115526 1.42863739 -0.107482113 -0.0293906108 1.41483355 -0.109555118 -0.0312623233 1.42593896 -0.104981281 -0.0311099831 1.41640007 -0.117115662 -0.032078255 1.43574357 -0.120740779 -0.0305604823 1.43535626 -0.129203424 -0.0331926718 1.44490314 -0.215600967 -0.0400414467 1.41563654 -0.211832225 -0.0406809635 1.42726731 -0.213305488 -0.0390843749 1.41858304 -0.18137072 -0.0440233201 1.45318234 -0.191965967 -0.0449238941 1.44791555 -0.189940274 -0.0460850447 1.44745708 -0.117115662 -0.032078255 1.43574357 -0.109555118 -0.0312623233 1.42593896 -0.120740779 -0.0305604823 1.43535626 -0.207905114 -0.0413133651 1.43433881 -0.199699864 -0.041574046 1.44378638 -0.18287465 -0.0366943553 1.44384456 -0.214737549 -0.0414115526 1.42863739 -0.209330007 -0.0410527177 1.44465244 -0.210713565 -0.0416700952 1.43529594 -0.192388639 -0.0387293883 1.36253691 -0.200038388 -0.0395537727 1.37222028 -0.195569262 -0.0374434777 1.36867166 -0.211832225 -0.0406809635 1.42726731 -0.207140505 -0.0388004519 1.42882144 -0.213305488 -0.0390843749 1.41858304 -0.195469141 -0.0404255167 1.45194292 -0.187511593 -0.0387123562 1.46107996 -0.185041025 -0.0385541357 1.45738971 -0.192388639 -0.0387293883 1.36253691 -0.195569262 -0.0374434777 1.36867166 -0.193279982 -0.0369812138 1.36750579 -0.199699864 -0.041574046 1.44378638 -0.193396822 -0.0409620143 1.44882703 -0.183300599 -0.0388902687 1.4542129 -0.195569262 -0.0374434777 1.36867166 -0.200038388 -0.0395537727 1.37222028 -0.205557331 -0.040039055 1.38159096 -0.214737549 -0.0414115526 1.42863739 -0.210713565 -0.0416700952 1.43529594 -0.207905114 -0.0413133651 1.43433881 -0.192388639 -0.0387293883 1.36253691 -0.193279982 -0.0369812138 1.36750579 -0.184398398 -0.0380097926 1.35558987 -0.205557331 -0.040039055 1.38159096 -0.214197233 -0.0392641127 1.40682447 -0.195569262 -0.0374434777 1.36867166 -0.171621412 -0.0349158086 1.35180902 -0.173235148 -0.0369138233 1.34965205 -0.184398398 -0.0380097926 1.35558987 -0.171621412 -0.0349158086 1.35180902 -0.166466296 -0.0363877229 1.34754598 -0.173235148 -0.0369138233 1.34965205 -0.169518128 -0.0425882861 1.45599747 -0.18137072 -0.0440233201 1.45318234 -0.167101815 -0.0442729816 1.45348585 -0.197650358 -0.0467466451 1.44147408 -0.189940274 -0.0460850447 1.44745708 -0.191965967 -0.0449238941 1.44791555 -0.18287465 -0.0366943553 1.44384456 -0.199699864 -0.041574046 1.44378638 -0.168927789 -0.0352354869 1.44811583 -0.166466296 -0.0363877229 1.34754598 -0.171621412 -0.0349158086 1.35180902 -0.158095837 -0.0355358385 1.34627402 -0.158095837 -0.0355358385 1.34627402 -0.171621412 -0.0349158086 1.35180902 -0.156370521 -0.0337011479 1.348876 -0.156370521 -0.0337011479 1.348876 -0.142664611 -0.0343718417 1.34745109 -0.158095837 -0.0355358385 1.34627402 -0.207905114 -0.0413133651 1.43433881 -0.207140505 -0.0388004519 1.42882144 -0.211832225 -0.0406809635 1.42726731 -0.142664611 -0.0343718417 1.34745109 -0.156370521 -0.0337011479 1.348876 -0.139829963 -0.0322404355 1.35105908 -0.207905114 -0.0413133651 1.43433881 -0.211832225 -0.0406809635 1.42726731 -0.214737549 -0.0414115526 1.42863739 -0.18137072 -0.0440233201 1.45318234 -0.169518128 -0.0425882861 1.45599747 -0.183361799 -0.0436961651 1.45611644 -0.200771555 -0.0451392196 1.44538271 -0.197650358 -0.0467466451 1.44147408 -0.191965967 -0.0449238941 1.44791555 -0.172985077 -0.0264964774 1.45011306 -0.151389182 -0.0336503796 1.44976807 -0.151947752 -0.0310116541 1.45031559 -0.172985077 -0.0264964774 1.45011306 -0.168927789 -0.0352354869 1.44811583 -0.151389182 -0.0336503796 1.44976807 -0.151389182 -0.0336503796 1.44976807 -0.137143105 -0.0317081846 1.44666946 -0.151947752 -0.0310116541 1.45031559 -0.151947752 -0.0310116541 1.45031559 -0.137143105 -0.0317081846 1.44666946 -0.16988489 -0.0264961887 1.44914687 -0.172985077 -0.0264964774 1.45011306 -0.16988489 -0.0264961887 1.44914687 -0.181815267 -0.0261552632 1.44845247 -0.151947752 -0.0310116541 1.45031559 -0.16988489 -0.0264961887 1.44914687 -0.172985077 -0.0264964774 1.45011306 -0.104799189 -0.0290036965 1.40342176 -0.10746754 -0.0293908715 1.38269627 -0.107482113 -0.0293906108 1.41483355 -0.193279982 -0.0369812138 1.36750579 -0.171621412 -0.0349158086 1.35180902 -0.184398398 -0.0380097926 1.35558987 -0.107482113 -0.0293906108 1.41483355 -0.120740779 -0.0305604823 1.43535626 -0.109555118 -0.0312623233 1.42593896 -0.139829963 -0.0322404355 1.35105908 -0.10746754 -0.0293908715 1.38269627 -0.114886627 -0.0318694077 1.36413002 -0.172985077 -0.0264964774 1.45011306 -0.18287465 -0.0366943553 1.44384456 -0.168927789 -0.0352354869 1.44811583 -0.189257413 -0.031568151 1.44458294 -0.191305652 -0.0375409983 1.44025469 -0.18287465 -0.0366943553 1.44384456 -0.189257413 -0.031568151 1.44458294 -0.194543198 -0.0281638224 1.44664192 -0.201317087 -0.0327012315 1.43892407 -0.189257413 -0.031568151 1.44458294 -0.201317087 -0.0327012315 1.43892407 -0.191305652 -0.0375409983 1.44025469 -0.201317087 -0.0327012315 1.43892407 -0.207140505 -0.0388004519 1.42882144 -0.191305652 -0.0375409983 1.44025469 -0.217169285 -0.0308388174 1.40899789 -0.208784088 -0.0362148657 1.3882724 -0.208955675 -0.0386350155 1.38992059 -0.217169285 -0.0308388174 1.40899789 -0.208955675 -0.0386350155 1.38992059 -0.214197233 -0.0392641127 1.40682447 -0.218371838 -0.0298433676 1.41918206 -0.214493364 -0.0391447283 1.41170967 -0.213305488 -0.0390843749 1.41858304 -0.210366622 -0.0483479425 1.4039396 -0.212607294 -0.0467330292 1.41456974 -0.21344611 -0.0463104807 1.40181804 -0.218371838 -0.0298433676 1.41918206 -0.214197233 -0.0392641127 1.40682447 -0.214493364 -0.0391447283 1.41170967 -0.218371838 -0.0298433676 1.41918206 -0.217169285 -0.0308388174 1.40899789 -0.214197233 -0.0392641127 1.40682447 -0.205758736 -0.029195562 1.44123542 -0.214532018 -0.029830955 1.43111169 -0.201317087 -0.0327012315 1.43892407 -0.206133679 -0.0461766981 1.43317103 -0.20913218 -0.0459455103 1.43520319 -0.209680021 -0.0464726686 1.42603815 -0.208784088 -0.0362148657 1.3882724 -0.195569262 -0.0374434777 1.36867166 -0.208955675 -0.0386350155 1.38992059 -0.214532018 -0.029830955 1.43111169 -0.207140505 -0.0388004519 1.42882144 -0.201317087 -0.0327012315 1.43892407 -0.214532018 -0.029830955 1.43111169 -0.213305488 -0.0390843749 1.41858304 -0.207140505 -0.0388004519 1.42882144 -0.22189489 -0.041777309 1.41881144 -0.217625841 -0.0416171104 1.431566 -0.209330007 -0.0410527177 1.44465244 -0.189257413 -0.031568151 1.44458294 -0.18287465 -0.0366943553 1.44384456 -0.172985077 -0.0264964774 1.45011306 -0.194543198 -0.0281638224 1.44664192 -0.189257413 -0.031568151 1.44458294 -0.172985077 -0.0264964774 1.45011306 -0.205758736 -0.029195562 1.44123542 -0.201317087 -0.0327012315 1.43892407 -0.194543198 -0.0281638224 1.44664192 -0.172985077 -0.0264964774 1.45011306 -0.181815267 -0.0261552632 1.44845247 -0.194543198 -0.0281638224 1.44664192 -0.194543198 -0.0281638224 1.44664192 -0.181815267 -0.0261552632 1.44845247 -0.205581024 -0.028234059 1.44059014 -0.194543198 -0.0281638224 1.44664192 -0.205581024 -0.028234059 1.44059014 -0.205758736 -0.029195562 1.44123542 -0.218371838 -0.0298433676 1.41918206 -0.217414841 -0.0294020027 1.4164443 -0.208386779 -0.0358365737 1.38972402 -0.218371838 -0.0298433676 1.41918206 -0.208386779 -0.0358365737 1.38972402 -0.217169285 -0.0308388174 1.40899789 -0.217169285 -0.0308388174 1.40899789 -0.208386779 -0.0358365737 1.38972402 -0.208784088 -0.0362148657 1.3882724 -0.208784088 -0.0362148657 1.3882724 -0.208386779 -0.0358365737 1.38972402 -0.195569262 -0.0374434777 1.36867166 -0.21421811 -0.0462620668 1.41409922 -0.214534491 -0.0462608784 1.4142133 -0.21344611 -0.0463104807 1.40181804 -0.195569262 -0.0374434777 1.36867166 -0.208386779 -0.0358365737 1.38972402 -0.193279982 -0.0369812138 1.36750579 -0.21421811 -0.0462620668 1.41409922 -0.21344611 -0.0463104807 1.40181804 -0.212607294 -0.0467330292 1.41456974 -0.211004317 -0.0482109934 1.41371739 -0.212607294 -0.0467330292 1.41456974 -0.210366622 -0.0483479425 1.4039396 -0.214532018 -0.029830955 1.43111169 -0.218371838 -0.0298433676 1.41918206 -0.213305488 -0.0390843749 1.41858304 -0.205758736 -0.029195562 1.44123542 -0.205581024 -0.028234059 1.44059014 -0.214532018 -0.029830955 1.43111169 -0.205581024 -0.028234059 1.44059014 -0.217414841 -0.0294020027 1.4164443 -0.218371838 -0.0298433676 1.41918206 -0.205581024 -0.028234059 1.44059014 -0.218371838 -0.0298433676 1.41918206 -0.214532018 -0.029830955 1.43111169 -0.16974856 -0.044480864 1.35337734 -0.156370521 -0.0337011479 1.348876 -0.171621412 -0.0349158086 1.35180902 -0.20913218 -0.0459455103 1.43520319 -0.21298559 -0.0462807566 1.4272728 -0.209680021 -0.0464726686 1.42603815 -0.161606565 -0.0720128864 1.36353624 -0.134721234 -0.0697017238 1.36939871 -0.183850855 -0.0739953741 1.39085174 -0.137688801 -0.0699553862 1.42953205 -0.155136332 -0.0714505017 1.4352411 -0.166962653 -0.0724922121 1.43192315 -0.117609538 -0.0681790933 1.41303027 -0.137688801 -0.0699553862 1.42953205 -0.134721234 -0.0697017238 1.36939871 -0.120766357 -0.0684538335 1.37855542 -0.134721234 -0.0697017238 1.36939871 -0.132713005 -0.0695034862 1.36716235 -0.161606565 -0.0720128864 1.36353624 -0.183850855 -0.0739953741 1.39085174 -0.172418073 -0.0729599372 1.36882615 -0.117609538 -0.0681790933 1.41303027 -0.124299817 -0.068759948 1.42349029 -0.137688801 -0.0699553862 1.42953205 -0.120766357 -0.0684538335 1.37855542 -0.117211543 -0.068127051 1.38536537 -0.134721234 -0.0697017238 1.36939871 -0.183850855 -0.0739953741 1.39085174 -0.182502404 -0.0738565773 1.41785288 -0.187842712 -0.0743222833 1.39776266 -0.172418073 -0.0729599372 1.36882615 -0.183850855 -0.0739953741 1.39085174 -0.181588694 -0.0737727508 1.37828505 -0.132713005 -0.0695034862 1.36716235 -0.134721234 -0.0697017238 1.36939871 -0.143030792 -0.0703934208 1.36296177 -0.137688801 -0.0699553862 1.42953205 -0.166962653 -0.0724922121 1.43192315 -0.177096859 -0.0733828098 1.42473888 -0.124299817 -0.068759948 1.42349029 -0.134404913 -0.0696267039 1.43131649 -0.137688801 -0.0699553862 1.42953205 -0.183850855 -0.0739953741 1.39085174 -0.137688801 -0.0699553862 1.42953205 -0.182502404 -0.0738565773 1.41785288 -0.21344611 -0.0463104807 1.40181804 -0.207730725 -0.0453098416 1.39034367 -0.210366622 -0.0483479425 1.4039396 -0.137688801 -0.0699553862 1.42953205 -0.134404913 -0.0696267039 1.43131649 -0.141692266 -0.0702849478 1.4341563 -0.183850855 -0.0739953741 1.39085174 -0.1847893 -0.0740509927 1.38422132 -0.181588694 -0.0737727508 1.37828505 -0.137688801 -0.0699553862 1.42953205 -0.177096859 -0.0733828098 1.42473888 -0.182502404 -0.0738565773 1.41785288 -0.220857307 -0.0414994545 1.40971696 -0.205557331 -0.040039055 1.38159096 -0.207730725 -0.0453098416 1.39034367 -0.207730725 -0.0453098416 1.39034367 -0.218546629 -0.0463562198 1.40982103 -0.220857307 -0.0414994545 1.40971696 -0.117211543 -0.068127051 1.38536537 -0.114706457 -0.0679191574 1.39738917 -0.134721234 -0.0697017238 1.36939871 -0.183850855 -0.0739953741 1.39085174 -0.187842712 -0.0743222833 1.39776266 -0.1847893 -0.0740509927 1.38422132 -0.114706457 -0.0679191574 1.39738917 -0.117609538 -0.0681790933 1.41303027 -0.134721234 -0.0697017238 1.36939871 -0.137688801 -0.0699553862 1.42953205 -0.141692266 -0.0702849478 1.4341563 -0.155136332 -0.0714505017 1.4352411 -0.218546629 -0.0463562198 1.40982103 -0.22189489 -0.041777309 1.41881144 -0.220857307 -0.0414994545 1.40971696 -0.143030792 -0.0703934208 1.36296177 -0.134721234 -0.0697017238 1.36939871 -0.161606565 -0.0720128864 1.36353624 -0.181588694 -0.0737727508 1.37828505 -0.191414267 -0.0635521039 1.37371564 -0.184571758 -0.063594386 1.36529446 -0.181588694 -0.0737727508 1.37828505 -0.184571758 -0.063594386 1.36529446 -0.172418073 -0.0729599372 1.36882615 -0.177096859 -0.0733828098 1.42473888 -0.194332302 -0.0663360357 1.4197371 -0.182502404 -0.0738565773 1.41785288 -0.195224553 -0.0612697043 1.42958605 -0.194332302 -0.0663360357 1.4197371 -0.177096859 -0.0733828098 1.42473888 -0.182502404 -0.0738565773 1.41785288 -0.194332302 -0.0663360357 1.4197371 -0.187842712 -0.0743222833 1.39776266 -0.187842712 -0.0743222833 1.39776266 -0.194332302 -0.0663360357 1.4197371 -0.192610323 -0.0705699101 1.40665889 -0.217625841 -0.0416171104 1.431566 -0.217625454 -0.046399679 1.42452669 -0.21048139 -0.0457245074 1.43978012 -0.198219731 -0.061404217 1.42490065 -0.194332302 -0.0663360357 1.4197371 -0.195224553 -0.0612697043 1.42958605 -0.192678317 -0.0441961735 1.45574427 -0.187511593 -0.0387123562 1.46107996 -0.201852992 -0.0403909162 1.45213389 -0.194332302 -0.0663360357 1.4197371 -0.201597765 -0.0621096082 1.41603601 -0.192610323 -0.0705699101 1.40665889 -0.194332302 -0.0663360357 1.4197371 -0.198219731 -0.061404217 1.42490065 -0.201597765 -0.0621096082 1.41603601 -0.201597765 -0.0621096082 1.41603601 -0.202761561 -0.0623259209 1.40772378 -0.192610323 -0.0705699101 1.40665889 -0.22189489 -0.041777309 1.41881144 -0.217625454 -0.046399679 1.42452669 -0.217625841 -0.0416171104 1.431566 -0.20185031 -0.0626073927 1.39852893 -0.187842712 -0.0743222833 1.39776266 -0.192610323 -0.0705699101 1.40665889 -0.192678317 -0.0441961735 1.45574427 -0.201852992 -0.0403909162 1.45213389 -0.205033004 -0.0453464314 1.44629765 -0.192610323 -0.0705699101 1.40665889 -0.202761561 -0.0623259209 1.40772378 -0.20185031 -0.0626073927 1.39852893 -0.187842712 -0.0743222833 1.39776266 -0.20185031 -0.0626073927 1.39852893 -0.200092152 -0.062863484 1.39183044 -0.209330007 -0.0410527177 1.44465244 -0.205033004 -0.0453464314 1.44629765 -0.201852992 -0.0403909162 1.45213389 -0.209330007 -0.0410527177 1.44465244 -0.21048139 -0.0457245074 1.43978012 -0.205033004 -0.0453464314 1.44629765 -0.200092152 -0.062863484 1.39183044 -0.1847893 -0.0740509927 1.38422132 -0.187842712 -0.0743222833 1.39776266 -0.218546629 -0.0463562198 1.40982103 -0.217625454 -0.046399679 1.42452669 -0.22189489 -0.041777309 1.41881144 -0.191414267 -0.0635521039 1.37371564 -0.181588694 -0.0737727508 1.37828505 -0.1847893 -0.0740509927 1.38422132 -0.1847893 -0.0740509927 1.38422132 -0.200092152 -0.062863484 1.39183044 -0.191414267 -0.0635521039 1.37371564 -0.217625841 -0.0416171104 1.431566 -0.21048139 -0.0457245074 1.43978012 -0.209330007 -0.0410527177 1.44465244 -0.195224553 -0.0612697043 1.42958605 -0.177096859 -0.0733828098 1.42473888 -0.189176932 -0.060599342 1.43673515 -0.179319099 -0.0677178055 1.43339336 -0.177096859 -0.0733828098 1.42473888 -0.166962653 -0.0724922121 1.43192315 -0.177096859 -0.0733828098 1.42473888 -0.179319099 -0.0677178055 1.43339336 -0.189176932 -0.060599342 1.43673515 -0.179319099 -0.0677178055 1.43339336 -0.178734556 -0.0599062778 1.44401395 -0.189176932 -0.060599342 1.43673515 -0.177348346 -0.0428174026 1.45970047 -0.187511593 -0.0387123562 1.46107996 -0.192678317 -0.0441961735 1.45574427 -0.177348346 -0.0428174026 1.45970047 -0.178447962 -0.0377361551 1.46167207 -0.187511593 -0.0387123562 1.46107996 -0.179319099 -0.0677178055 1.43339336 -0.166962653 -0.0724922121 1.43192315 -0.178734556 -0.0599062778 1.44401395 -0.155136332 -0.0714505017 1.4352411 -0.167942703 -0.0595606007 1.44683588 -0.166962653 -0.0724922121 1.43192315 -0.157828644 -0.0408830456 1.45352316 -0.157123223 -0.0358029157 1.45465553 -0.178447962 -0.0377361551 1.46167207 -0.178447962 -0.0377361551 1.46167207 -0.177348346 -0.0428174026 1.45970047 -0.157828644 -0.0408830456 1.45352316 -0.178734556 -0.0599062778 1.44401395 -0.166962653 -0.0724922121 1.43192315 -0.172902748 -0.0594030432 1.44627321 -0.166962653 -0.0724922121 1.43192315 -0.167942703 -0.0595606007 1.44683588 -0.172902748 -0.0594030432 1.44627321 -0.167942703 -0.0595606007 1.44683588 -0.155136332 -0.0714505017 1.4352411 -0.157643333 -0.0591925308 1.44711769 -0.155136332 -0.0714505017 1.4352411 -0.141692266 -0.0702849478 1.4341563 -0.151441202 -0.0588961281 1.44658363 -0.155136332 -0.0714505017 1.4352411 -0.151441202 -0.0588961281 1.44658363 -0.157643333 -0.0591925308 1.44711769 -0.151441202 -0.0588961281 1.44658363 -0.141692266 -0.0702849478 1.4341563 -0.136445254 -0.0586031005 1.44266582 -0.127289459 -0.0523835644 1.44016099 -0.136101767 -0.0336131565 1.44827187 -0.134797528 -0.0519186072 1.44413745 -0.157828644 -0.0408830456 1.45352316 -0.140780181 -0.0516550988 1.44649184 -0.147506267 -0.0348405503 1.45235789 -0.134404913 -0.0696267039 1.43131649 -0.124299817 -0.068759948 1.42349029 -0.128056198 -0.0583893098 1.43867147 -0.141692266 -0.0702849478 1.4341563 -0.134404913 -0.0696267039 1.43131649 -0.128056198 -0.0583893098 1.43867147 -0.136445254 -0.0586031005 1.44266582 -0.141692266 -0.0702849478 1.4341563 -0.128056198 -0.0583893098 1.43867147 -0.117609538 -0.0681790933 1.41303027 -0.106551267 -0.0592595376 1.4011246 -0.10976021 -0.0587980933 1.4164046 -0.143030792 -0.0703934208 1.36296177 -0.149444923 -0.0628899038 1.35315752 -0.14371939 -0.0626811907 1.35395443 -0.149444923 -0.0628899038 1.35315752 -0.161606565 -0.0720128864 1.36353624 -0.159515411 -0.0632439032 1.35347128 -0.161606565 -0.0720128864 1.36353624 -0.167967513 -0.063424319 1.35543752 -0.159515411 -0.0632439032 1.35347128 -0.12288069 -0.0520881265 1.43718863 -0.117115662 -0.032078255 1.43574357 -0.129203424 -0.0331926718 1.44490314 -0.172418073 -0.0729599372 1.36882615 -0.184571758 -0.063594386 1.36529446 -0.17440626 -0.0635309368 1.35813892 -0.117211543 -0.068127051 1.38536537 -0.107008673 -0.0597233251 1.39310944 -0.114706457 -0.0679191574 1.39738917 -0.117211543 -0.068127051 1.38536537 -0.10884586 -0.0600678995 1.38500202 -0.107008673 -0.0597233251 1.39310944 -0.10884586 -0.0600678995 1.38500202 -0.117211543 -0.068127051 1.38536537 -0.111936875 -0.0605366156 1.37777746 -0.189940274 -0.0460850447 1.44745708 -0.178734556 -0.0599062778 1.44401395 -0.18137072 -0.0440233201 1.45318234 -0.178734556 -0.0599062778 1.44401395 -0.172902748 -0.0594030432 1.44627321 -0.18137072 -0.0440233201 1.45318234 -0.129608572 -0.0620096922 1.35942948 -0.122609429 -0.0615503527 1.36443782 -0.132713005 -0.0695034862 1.36716235 -0.120766357 -0.0684538335 1.37855542 -0.11577718 -0.0610079914 1.37176538 -0.111936875 -0.0605366156 1.37777746 -0.172418073 -0.0729599372 1.36882615 -0.167967513 -0.063424319 1.35543752 -0.161606565 -0.0720128864 1.36353624 -0.127289459 -0.0523835644 1.44016099 -0.12288069 -0.0520881265 1.43718863 -0.129203424 -0.0331926718 1.44490314 -0.167967513 -0.063424319 1.35543752 -0.172418073 -0.0729599372 1.36882615 -0.17440626 -0.0635309368 1.35813892 -0.122609429 -0.0615503527 1.36443782 -0.120766357 -0.0684538335 1.37855542 -0.132713005 -0.0695034862 1.36716235 -0.115994014 -0.0585768782 1.42751431 -0.128056198 -0.0583893098 1.43867147 -0.124299817 -0.068759948 1.42349029 -0.124299817 -0.068759948 1.42349029 -0.117609538 -0.0681790933 1.41303027 -0.112350792 -0.0586590357 1.42195463 -0.115994014 -0.0585768782 1.42751431 -0.124299817 -0.068759948 1.42349029 -0.112350792 -0.0586590357 1.42195463 -0.117609538 -0.0681790933 1.41303027 -0.10976021 -0.0587980933 1.4164046 -0.112350792 -0.0586590357 1.42195463 -0.106551267 -0.0592595376 1.4011246 -0.117609538 -0.0681790933 1.41303027 -0.114706457 -0.0679191574 1.39738917 -0.114706457 -0.0679191574 1.39738917 -0.107008673 -0.0597233251 1.39310944 -0.106551267 -0.0592595376 1.4011246 -0.117211543 -0.068127051 1.38536537 -0.120766357 -0.0684538335 1.37855542 -0.111936875 -0.0605366156 1.37777746 -0.136101767 -0.0336131565 1.44827187 -0.127289459 -0.0523835644 1.44016099 -0.129203424 -0.0331926718 1.44490314 -0.129608572 -0.0620096922 1.35942948 -0.132713005 -0.0695034862 1.36716235 -0.143030792 -0.0703934208 1.36296177 -0.143030792 -0.0703934208 1.36296177 -0.14371939 -0.0626811907 1.35395443 -0.129608572 -0.0620096922 1.35942948 -0.189176932 -0.060599342 1.43673515 -0.178734556 -0.0599062778 1.44401395 -0.189940274 -0.0460850447 1.44745708 -0.11577718 -0.0610079914 1.37176538 -0.120766357 -0.0684538335 1.37855542 -0.122609429 -0.0615503527 1.36443782 -0.143030792 -0.0703934208 1.36296177 -0.161606565 -0.0720128864 1.36353624 -0.149444923 -0.0628899038 1.35315752 -0.191414267 -0.0635521039 1.37371564 -0.185125023 -0.0565418303 1.36211038 -0.184571758 -0.063594386 1.36529446 -0.147506267 -0.0348405503 1.45235789 -0.134797528 -0.0519186072 1.44413745 -0.136101767 -0.0336131565 1.44827187 -0.197650358 -0.0467466451 1.44147408 -0.189176932 -0.060599342 1.43673515 -0.189940274 -0.0460850447 1.44745708 -0.195224553 -0.0612697043 1.42958605 -0.189176932 -0.060599342 1.43673515 -0.206133679 -0.0461766981 1.43317103 -0.195224553 -0.0612697043 1.42958605 -0.206133679 -0.0461766981 1.43317103 -0.198219731 -0.061404217 1.42490065 -0.206133679 -0.0461766981 1.43317103 -0.209680021 -0.0464726686 1.42603815 -0.198219731 -0.061404217 1.42490065 -0.189176932 -0.060599342 1.43673515 -0.197650358 -0.0467466451 1.44147408 -0.206133679 -0.0461766981 1.43317103 -0.191414267 -0.0635521039 1.37371564 -0.192735612 -0.0570041798 1.3707701 -0.185125023 -0.0565418303 1.36211038 -0.198219731 -0.061404217 1.42490065 -0.209680021 -0.0464726686 1.42603815 -0.201597765 -0.0621096082 1.41603601 -0.201597765 -0.0621096082 1.41603601 -0.209680021 -0.0464726686 1.42603815 -0.212607294 -0.0467330292 1.41456974 -0.128056198 -0.0583893098 1.43867147 -0.12288069 -0.0520881265 1.43718863 -0.127289459 -0.0523835644 1.44016099 -0.205557331 -0.040039055 1.38159096 -0.200038388 -0.0395537727 1.37222028 -0.192735612 -0.0570041798 1.3707701 -0.201597765 -0.0621096082 1.41603601 -0.212607294 -0.0467330292 1.41456974 -0.211004317 -0.0482109934 1.41371739 -0.128056198 -0.0583893098 1.43867147 -0.127289459 -0.0523835644 1.44016099 -0.134797528 -0.0519186072 1.44413745 -0.140780181 -0.0516550988 1.44649184 -0.134797528 -0.0519186072 1.44413745 -0.147506267 -0.0348405503 1.45235789 -0.201597765 -0.0621096082 1.41603601 -0.211004317 -0.0482109934 1.41371739 -0.202761561 -0.0623259209 1.40772378 -0.185125023 -0.0565418303 1.36211038 -0.192735612 -0.0570041798 1.3707701 -0.192388639 -0.0387293883 1.36253691 -0.202761561 -0.0623259209 1.40772378 -0.210366622 -0.0483479425 1.4039396 -0.20185031 -0.0626073927 1.39852893 -0.185125023 -0.0565418303 1.36211038 -0.192388639 -0.0387293883 1.36253691 -0.184398398 -0.0380097926 1.35558987 -0.136445254 -0.0586031005 1.44266582 -0.134797528 -0.0519186072 1.44413745 -0.140780181 -0.0516550988 1.44649184 -0.20185031 -0.0626073927 1.39852893 -0.210366622 -0.0483479425 1.4039396 -0.200092152 -0.062863484 1.39183044 -0.192735612 -0.0570041798 1.3707701 -0.200038388 -0.0395537727 1.37222028 -0.192388639 -0.0387293883 1.36253691 -0.200092152 -0.062863484 1.39183044 -0.210366622 -0.0483479425 1.4039396 -0.207730725 -0.0453098416 1.39034367 -0.200092152 -0.062863484 1.39183044 -0.201678827 -0.0569797195 1.38730931 -0.191414267 -0.0635521039 1.37371564 -0.140780181 -0.0516550988 1.44649184 -0.151441202 -0.0588961281 1.44658363 -0.136445254 -0.0586031005 1.44266582 -0.201678827 -0.0569797195 1.38730931 -0.192735612 -0.0570041798 1.3707701 -0.191414267 -0.0635521039 1.37371564 -0.157828644 -0.0408830456 1.45352316 -0.147506267 -0.0348405503 1.45235789 -0.157123223 -0.0358029157 1.45465553 -0.211004317 -0.0482109934 1.41371739 -0.210366622 -0.0483479425 1.4039396 -0.202761561 -0.0623259209 1.40772378 -0.201678827 -0.0569797195 1.38730931 -0.205557331 -0.040039055 1.38159096 -0.192735612 -0.0570041798 1.3707701 -0.200092152 -0.062863484 1.39183044 -0.207730725 -0.0453098416 1.39034367 -0.201678827 -0.0569797195 1.38730931 -0.207730725 -0.0453098416 1.39034367 -0.205557331 -0.040039055 1.38159096 -0.201678827 -0.0569797195 1.38730931 -0.157828644 -0.0408830456 1.45352316 -0.151441202 -0.0588961281 1.44658363 -0.140780181 -0.0516550988 1.44649184 -0.185125023 -0.0565418303 1.36211038 -0.173701733 -0.0565614291 1.35481536 -0.17440626 -0.0635309368 1.35813892 -0.17440626 -0.0635309368 1.35813892 -0.173701733 -0.0565614291 1.35481536 -0.167967513 -0.063424319 1.35543752 -0.185125023 -0.0565418303 1.36211038 -0.17440626 -0.0635309368 1.35813892 -0.184571758 -0.063594386 1.36529446 -0.173701733 -0.0565614291 1.35481536 -0.185125023 -0.0565418303 1.36211038 -0.184398398 -0.0380097926 1.35558987 -0.151441202 -0.0588961281 1.44658363 -0.157828644 -0.0408830456 1.45352316 -0.167101815 -0.0442729816 1.45348585 -0.173701733 -0.0565614291 1.35481536 -0.184398398 -0.0380097926 1.35558987 -0.173235148 -0.0369138233 1.34965205 -0.157643333 -0.0591925308 1.44711769 -0.167101815 -0.0442729816 1.45348585 -0.167942703 -0.0595606007 1.44683588 -0.157643333 -0.0591925308 1.44711769 -0.151441202 -0.0588961281 1.44658363 -0.167101815 -0.0442729816 1.45348585 -0.106222719 -0.0501143932 1.38445735 -0.107506961 -0.0312186815 1.37518656 -0.103537865 -0.0309121665 1.38588476 -0.106222719 -0.0501143932 1.38445735 -0.103537865 -0.0309121665 1.38588476 -0.10441009 -0.0508471653 1.39457965 -0.107506961 -0.0312186815 1.37518656 -0.106222719 -0.0501143932 1.38445735 -0.11133761 -0.0516419336 1.3734566 -0.18137072 -0.0440233201 1.45318234 -0.167942703 -0.0595606007 1.44683588 -0.167101815 -0.0442729816 1.45348585 -0.117115662 -0.032078255 1.43574357 -0.12288069 -0.0520881265 1.43718863 -0.112476513 -0.0501971245 1.42631674 -0.128347412 -0.0515935421 1.35639286 -0.132676065 -0.0333343185 1.35085201 -0.124715611 -0.0328044891 1.35533547 -0.104981281 -0.0311099831 1.41640007 -0.112476513 -0.0501971245 1.42631674 -0.106054224 -0.0510691032 1.41187453 -0.109555118 -0.0312623233 1.42593896 -0.112476513 -0.0501971245 1.42631674 -0.104981281 -0.0311099831 1.41640007 -0.104981281 -0.0311099831 1.41640007 -0.106054224 -0.0510691032 1.41187453 -0.104666047 -0.0505556129 1.4056915 -0.134797528 -0.0519186072 1.44413745 -0.136445254 -0.0586031005 1.44266582 -0.128056198 -0.0583893098 1.43867147 -0.132676065 -0.0333343185 1.35085201 -0.141658857 -0.0526689254 1.35103476 -0.142664611 -0.0343718417 1.34745109 -0.104666047 -0.0505556129 1.4056915 -0.102538027 -0.0308812987 1.40672803 -0.104981281 -0.0311099831 1.41640007 -0.102538027 -0.0308812987 1.40672803 -0.104666047 -0.0505556129 1.4056915 -0.102705389 -0.0386051536 1.39698589 -0.172902748 -0.0594030432 1.44627321 -0.167942703 -0.0595606007 1.44683588 -0.18137072 -0.0440233201 1.45318234 -0.10441009 -0.0508471653 1.39457965 -0.103537865 -0.0309121665 1.38588476 -0.102705389 -0.0386051536 1.39698589 -0.102705389 -0.0386051536 1.39698589 -0.103537865 -0.0309121665 1.38588476 -0.102309033 -0.0306258965 1.39297533 -0.12154521 -0.0526407883 1.36156166 -0.114886627 -0.0318694077 1.36413002 -0.111371048 -0.0315641351 1.36867154 -0.148244783 -0.0548537709 1.35036659 -0.158095837 -0.0355358385 1.34627402 -0.142664611 -0.0343718417 1.34745109 -0.12154521 -0.0526407883 1.36156166 -0.128347412 -0.0515935421 1.35639286 -0.124715611 -0.0328044891 1.35533547 -0.128347412 -0.0515935421 1.35639286 -0.133832023 -0.0522965454 1.35366392 -0.132676065 -0.0333343185 1.35085201 -0.132676065 -0.0333343185 1.35085201 -0.133832023 -0.0522965454 1.35366392 -0.141658857 -0.0526689254 1.35103476 -0.142664611 -0.0343718417 1.34745109 -0.141658857 -0.0526689254 1.35103476 -0.148244783 -0.0548537709 1.35036659 -0.107008673 -0.0597233251 1.39310944 -0.104666047 -0.0505556129 1.4056915 -0.106551267 -0.0592595376 1.4011246 -0.158095837 -0.0355358385 1.34627402 -0.148244783 -0.0548537709 1.35036659 -0.162528351 -0.0554763637 1.35101366 -0.106222719 -0.0501143932 1.38445735 -0.10884586 -0.0600678995 1.38500202 -0.111936875 -0.0605366156 1.37777746 -0.162528351 -0.0554763637 1.35101366 -0.166466296 -0.0363877229 1.34754598 -0.158095837 -0.0355358385 1.34627402 -0.10441009 -0.0508471653 1.39457965 -0.104666047 -0.0505556129 1.4056915 -0.107008673 -0.0597233251 1.39310944 -0.114886627 -0.0318694077 1.36413002 -0.12154521 -0.0526407883 1.36156166 -0.124715611 -0.0328044891 1.35533547 -0.173235148 -0.0369138233 1.34965205 -0.162528351 -0.0554763637 1.35101366 -0.173701733 -0.0565614291 1.35481536 -0.112476513 -0.0501971245 1.42631674 -0.109555118 -0.0312623233 1.42593896 -0.117115662 -0.032078255 1.43574357 -0.12288069 -0.0520881265 1.43718863 -0.128056198 -0.0583893098 1.43867147 -0.115994014 -0.0585768782 1.42751431 -0.162528351 -0.0554763637 1.35101366 -0.173235148 -0.0369138233 1.34965205 -0.166466296 -0.0363877229 1.34754598 -0.141658857 -0.0526689254 1.35103476 -0.133832023 -0.0522965454 1.35366392 -0.14371939 -0.0626811907 1.35395443 -0.11133761 -0.0516419336 1.3734566 -0.12154521 -0.0526407883 1.36156166 -0.111371048 -0.0315641351 1.36867154 -0.104666047 -0.0505556129 1.4056915 -0.10441009 -0.0508471653 1.39457965 -0.102705389 -0.0386051536 1.39698589 -0.102705389 -0.0386051536 1.39698589 -0.102309033 -0.0306258965 1.39297533 -0.102538027 -0.0308812987 1.40672803 -0.11133761 -0.0516419336 1.3734566 -0.111371048 -0.0315641351 1.36867154 -0.107506961 -0.0312186815 1.37518656 -0.12154521 -0.0526407883 1.36156166 -0.11133761 -0.0516419336 1.3734566 -0.11577718 -0.0610079914 1.37176538 -0.12154521 -0.0526407883 1.36156166 -0.11577718 -0.0610079914 1.37176538 -0.122609429 -0.0615503527 1.36443782 -0.159515411 -0.0632439032 1.35347128 -0.148244783 -0.0548537709 1.35036659 -0.149444923 -0.0628899038 1.35315752 -0.133832023 -0.0522965454 1.35366392 -0.129608572 -0.0620096922 1.35942948 -0.14371939 -0.0626811907 1.35395443 -0.128347412 -0.0515935421 1.35639286 -0.122609429 -0.0615503527 1.36443782 -0.129608572 -0.0620096922 1.35942948 -0.11133761 -0.0516419336 1.3734566 -0.106222719 -0.0501143932 1.38445735 -0.111936875 -0.0605366156 1.37777746 -0.162528351 -0.0554763637 1.35101366 -0.167967513 -0.063424319 1.35543752 -0.173701733 -0.0565614291 1.35481536 -0.112476513 -0.0501971245 1.42631674 -0.12288069 -0.0520881265 1.43718863 -0.115994014 -0.0585768782 1.42751431 -0.106222719 -0.0501143932 1.38445735 -0.10441009 -0.0508471653 1.39457965 -0.10884586 -0.0600678995 1.38500202 -0.162528351 -0.0554763637 1.35101366 -0.159515411 -0.0632439032 1.35347128 -0.167967513 -0.063424319 1.35543752 -0.162528351 -0.0554763637 1.35101366 -0.148244783 -0.0548537709 1.35036659 -0.159515411 -0.0632439032 1.35347128 -0.133832023 -0.0522965454 1.35366392 -0.128347412 -0.0515935421 1.35639286 -0.129608572 -0.0620096922 1.35942948 -0.104666047 -0.0505556129 1.4056915 -0.106054224 -0.0510691032 1.41187453 -0.106551267 -0.0592595376 1.4011246 -0.106054224 -0.0510691032 1.41187453 -0.10976021 -0.0587980933 1.4164046 -0.106551267 -0.0592595376 1.4011246 -0.11133761 -0.0516419336 1.3734566 -0.111936875 -0.0605366156 1.37777746 -0.11577718 -0.0610079914 1.37176538 -0.10441009 -0.0508471653 1.39457965 -0.107008673 -0.0597233251 1.39310944 -0.10884586 -0.0600678995 1.38500202 -0.148244783 -0.0548537709 1.35036659 -0.141658857 -0.0526689254 1.35103476 -0.149444923 -0.0628899038 1.35315752 -0.112476513 -0.0501971245 1.42631674 -0.115994014 -0.0585768782 1.42751431 -0.112350792 -0.0586590357 1.42195463 -0.106054224 -0.0510691032 1.41187453 -0.112476513 -0.0501971245 1.42631674 -0.10976021 -0.0587980933 1.4164046 -0.149444923 -0.0628899038 1.35315752 -0.141658857 -0.0526689254 1.35103476 -0.14371939 -0.0626811907 1.35395443 -0.128347412 -0.0515935421 1.35639286 -0.12154521 -0.0526407883 1.36156166 -0.122609429 -0.0615503527 1.36443782 -0.112476513 -0.0501971245 1.42631674 -0.112350792 -0.0586590357 1.42195463 -0.10976021 -0.0587980933 1.4164046 </float_array>
          <technique_common>
            <accessor count="1071" offset="0" source="#mesh_0-positions-array" stride="3">
              <param name="X" type="float" />
              <param name="Y" type="float" />
              <param name="Z" type="float" />
            </accessor>
          </technique_common>
        </source>
        <vertices id="mesh_0-vertices">
          <input semantic="POSITION" source="#mesh_0-positions" />
        </vertices>
        <polylist count="357" material="defaultMaterial">
          <input offset="0" semantic="VERTEX" source="#mesh_0-vertices" />
          <vcount>3 3 3 3 3 3 3 3 3 3 3 3 3 3 3 3 3 3 3 3 3 3 3 3 3 3 3 3 3 3 3 3 3 3 3 3 3 3 3 3 3 3 3 3 3 3 3 3 3 3 3 3 3 3 3 3 3 3 3 3 3 3 3 3 3 3 3 3 3 3 3 3 3 3 3 3 3 3 3 3 3 3 3 3 3 3 3 3 3 3 3 3 3 3 3 3 3 3 3 3 3 3 3 3 3 3 3 3 3 3 3 3 3 3 3 3 3 3 3 3 3 3 3 3 3 3 3 3 3 3 3 3 3 3 3 3 3 3 3 3 3 3 3 3 3 3 3 3 3 3 3 3 3 3 3 3 3 3 3 3 3 3 3 3 3 3 3 3 3 3 3 3 3 3 3 3 3 3 3 3 3 3 3 3 3 3 3 3 3 3 3 3 3 3 3 3 3 3 3 3 3 3 3 3 3 3 3 3 3 3 3 3 3 3 3 3 3 3 3 3 3 3 3 3 3 3 3 3 3 3 3 3 3 3 3 3 3 3 3 3 3 3 3 3 3 3 3 3 3 3 3 3 3 3 3 3 3 3 3 3 3 3 3 3 3 3 3 3 3 3 3 3 3 3 3 3 3 3 3 3 3 3 3 3 3 3 3 3 3 3 3 3 3 3 3 3 3 3 3 3 3 3 3 3 3 3 3 3 3 3 3 3 3 3 3 3 3 3 3 3 3 3 3 3 3 3 3 3 3 3 3 3 3 3 3 3 3 3 3 3 3 3 3 3 3 3 3 3 3 3 3 3 3 3 3 3 3 </vcount>
          <p>0 1 2 3 4 5 6 7 8 9 10 11 12 13 14 15 16 17 18 19 20 21 22 23 24 25 26 27 28 29 30 31 32 33 34 35 36 37 38 39 40 41 42 43 44 45 46 47 48 49 50 51 52 53 54 55 56 57 58 59 60 61 62 63 64 65 66 67 68 69 70 71 72 73 74 75 76 77 78 79 80 81 82 83 84 85 86 87 88 89 90 91 92 93 94 95 96 97 98 99 100 101 102 103 104 105 106 107 108 109 110 111 112 113 114 115 116 117 118 119 120 121 122 123 124 125 126 127 128 129 130 131 132 133 134 135 136 137 138 139 140 141 142 143 144 145 146 147 148 149 150 151 152 153 154 155 156 157 158 159 160 161 162 163 164 165 166 167 168 169 170 171 172 173 174 175 176 177 178 179 180 181 182 183 184 185 186 187 188 189 190 191 192 193 194 195 196 197 198 199 200 201 202 203 204 205 206 207 208 209 210 211 212 213 214 215 216 217 218 219 220 221 222 223 224 225 226 227 228 229 230 231 232 233 234 235 236 237 238 239 240 241 242 243 244 245 246 247 248 249 250 251 252 253 254 255 256 257 258 259 260 261 262 263 264 265 266 267 268 269 270 271 272 273 274 275 276 277 278 279 280 281 282 283 284 285 286 287 288 289 290 291 292 293 294 295 296 297 298 299 300 301 302 303 304 305 306 307 308 309 310 311 312 313 314 315 316 317 318 319 320 321 322 323 324 325 326 327 328 329 330 331 332 333 334 335 336 337 338 339 340 341 342 343 344 345 346 347 348 349 350 351 352 353 354 355 356 357 358 359 360 361 362 363 364 365 366 367 368 369 370 371 372 373 374 375 376 377 378 379 380 381 382 383 384 385 386 387 388 389 390 391 392 393 394 395 396 397 398 399 400 401 402 403 404 405 406 407 408 409 410 411 412 413 414 415 416 417 418 419 420 421 422 423 424 425 426 427 428 429 430 431 432 433 434 435 436 437 438 439 440 441 442 443 444 445 446 447 448 449 450 451 452 453 454 455 456 457 458 459 460 461 462 463 464 465 466 467 468 469 470 471 472 473 474 475 476 477 478 479 480 481 482 483 484 485 486 487 488 489 490 491 492 493 494 495 496 497 498 499 500 501 502 503 504 505 506 507 508 509 510 511 512 513 514 515 516 517 518 519 520 521 522 523 524 525 526 527 528 529 530 531 532 533 534 535 536 537 538 539 540 541 542 543 544 545 546 547 548 549 550 551 552 553 554 555 556 557 558 559 560 561 562 563 564 565 566 567 568 569 570 571 572 573 574 575 576 577 578 579 580 581 582 583 584 585 586 587 588 589 590 591 592 593 594 595 596 597 598 599 600 601 602 603 604 605 606 607 608 609 610 611 612 613 614 615 616 617 618 619 620 621 622 623 624 625 626 627 628 629 630 631 632 633 634 635 636 637 638 639 640 641 642 643 644 645 646 647 648 649 650 651 652 653 654 655 656 657 658 659 660 661 662 663 664 665 666 667 668 669 670 671 672 673 674 675 676 677 678 679 680 681 682 683 684 685 686 687 688 689 690 691 692 693 694 695 696 697 698 699 700 701 702 703 704 705 706 707 708 709 710 711 712 713 714 715 716 717 718 719 720 721 722 723 724 725 726 727 728 729 730 731 732 733 734 735 736 737 738 739 740 741 742 743 744 745 746 747 748 749 750 751 752 753 754 755 756 757 758 759 760 761 762 763 764 765 766 767 768 769 770 771 772 773 774 775 776 777 778 779 780 781 782 783 784 785 786 787 788 789 790 791 792 793 794 795 796 797 798 799 800 801 802 803 804 805 806 807 808 809 810 811 812 813 814 815 816 817 818 819 820 821 822 823 824 825 826 827 828 829 830 831 832 833 834 835 836 837 838 839 840 841 842 843 844 845 846 847 848 849 850 851 852 853 854 855 856 857 858 859 860 861 862 863 864 865 866 867 868 869 870 871 872 873 874 875 876 877 878 879 880 881 882 883 884 885 886 887 888 889 890 891 892 893 894 895 896 897 898 899 900 901 902 903 904 905 906 907 908 909 910 911 912 913 914 915 916 917 918 919 920 921 922 923 924 925 926 927 928 929 930 931 932 933 934 935 936 937 938 939 940 941 942 943 944 945 946 947 948 949 950 951 952 953 954 955 956 957 958 959 960 961 962 963 964 965 966 967 968 969 970 971 972 973 974 975 976 977 978 979 980 981 982 983 984 985 986 987 988 989 990 991 992 993 994 995 996 997 998 999 1000 1001 1002 1003 1004 1005 1006 1007 1008 1009 1010 1011 1012 1013 1014 1015 1016 1017 1018 1019 1020 1021 1022 1023 1024 1025 1026 1027 1028 1029 1030 1031 1032 1033 1034 1035 1036 1037 1038 1039 1040 1041 1042 1043 1044 1045 1046 1047 1048 1049 1050 1051 1052 1053 1054 1055 1056 1057 1058 1059 1060 1061 1062 1063 1064 1065 1066 1067 1068 1069 1070 </p>
        </polylist>
      </mesh>
    </geometry>
  </library_geometries>
  <library_controllers>
  </library_controllers>
  <library_visual_scenes>
    <visual_scene id="Scene" name="Scene">
      <node id="node" name="" type="NODE">
        <matrix sid="matrix">1 0 0 0 0 1 0 0 0 0 1 0 0 0 0 1</matrix>
        <instance_geometry url="#mesh_0">
          <bind_material>
            <technique_common>
              <instance_material symbol="defaultMaterial" target="#material_0">
              </instance_material>
            </technique_common>
          </bind_material>
        </instance_geometry>
      </node>
    </visual_scene>
  </library_visual_scenes>
  <scene>
    <instance_visual_scene url="#Scene" />
  </scene>
</COLLADA>
