<?xml version="1.0" encoding="UTF-8" standalone="no" ?>
<COLLADA xmlns="http://www.collada.org/2005/11/COLLADASchema" version="1.4.1">
  <asset>
    <contributor>
      <author>Assimp</author>
      <authoring_tool>Assimp Exporter</authoring_tool>
    </contributor>
    <created>2026-04-22T16:09:43</created>
    <modified>2026-04-22T16:09:43</modified>
    <unit name="meter" meter="1" />
    <up_axis>Y_UP</up_axis>
  </asset>
  <library_images>
  </library_images>
  <library_effects>
    <effect id="material_0-fx" name="">
      <profile_COMMON>
        <technique sid="standard">
          <phong>
            <emission>
              <color sid="emission">0   0   0   -0</color>
            </emission>
            <ambient>
              <color sid="ambient">0.699999988   1   0.699999988   1.82499993</color>
            </ambient>
            <diffuse>
              <color sid="diffuse">0.699999988   1   0.699999988   1.82499993</color>
            </diffuse>
            <specular>
              <color sid="specular">0.25   0.25   0.25   -0</color>
            </specular>
          </phong>
        </technique>
      </profile_COMMON>
    </effect>
  </library_effects>
  <library_materials>
    <material id="material_0" name="">
      <instance_effect url="#material_0-fx"/>
    </material>
  </library_materials>
  <library_geometries>
    <geometry id="mesh_0" name="" >
      <mesh>
        <source id="mesh_0-positions" name="mesh_0-positions">
          <float_array id="mesh_0-positions-array" count="252"> 0.807728827 -0.315991521 1.57571578 0.798147082 -0.317119628 1.57198501 0.822798371 -0.341404825 1.7333101 0.791342676 -0.351199448 1.69067347 0.820535779 -0.351866484 1.72184086 0.822798371 -0.341404825 1.7333101 0.798147082 -0.317119628 1.57198501 0.791342676 -0.351199448 1.69067347 0.822798371 -0.341404825 1.7333101 0.821838677 -0.318159819 1.58765888 0.807728827 -0.315991521 1.57571578 0.822798371 -0.341404825 1.7333101 0.820535779 -0.351866484 1.72184086 0.821838677 -0.318159819 1.58765888 0.822798371 -0.341404825 1.7333101 0.815911472 -0.328956991 1.59298944 0.798147082 -0.317119628 1.57198501 0.807728827 -0.315991521 1.57571578 0.821838677 -0.318159819 1.58765888 0.815911472 -0.328956991 1.59298944 0.807728827 -0.315991521 1.57571578 0.819848955 -0.335912675 1.62580299 0.821838677 -0.318159819 1.58765888 0.820535779 -0.351866484 1.72184086 0.819848955 -0.335912675 1.62580299 0.815911472 -0.328956991 1.59298944 0.821838677 -0.318159819 1.58765888 0.805078685 -0.347610593 1.67404366 0.819848955 -0.335912675 1.62580299 0.820535779 -0.351866484 1.72184086 0.815911472 -0.328956991 1.59298944 0.804078341 -0.335073322 1.60432804 0.798147082 -0.317119628 1.57198501 0.819848955 -0.335912675 1.62580299 0.804078341 -0.335073322 1.60432804 0.815911472 -0.328956991 1.59298944 0.791342676 -0.351199448 1.69067347 0.80733037 -0.352230817 1.70570207 0.820535779 -0.351866484 1.72184086 0.80733037 -0.352230817 1.70570207 0.805078685 -0.347610593 1.67404366 0.820535779 -0.351866484 1.72184086 0.791444361 -0.34366852 1.6480056 0.791342676 -0.351199448 1.69067347 0.798147082 -0.317119628 1.57198501 0.804078341 -0.335073322 1.60432804 0.791444361 -0.34366852 1.6480056 0.798147082 -0.317119628 1.57198501 0.805090427 -0.343597203 1.65185153 0.819848955 -0.335912675 1.62580299 0.805078685 -0.347610593 1.67404366 0.805090427 -0.343597203 1.65185153 0.804078341 -0.335073322 1.60432804 0.819848955 -0.335912675 1.62580299 0.791444361 -0.34366852 1.6480056 0.794206142 -0.348211765 1.67257798 0.791342676 -0.351199448 1.69067347 0.79483211 -0.351083905 1.68910706 0.80733037 -0.352230817 1.70570207 0.791342676 -0.351199448 1.69067347 0.797141135 -0.348794907 1.6749984 0.791444361 -0.34366852 1.6480056 0.804078341 -0.335073322 1.60432804 0.797141135 -0.348794907 1.6749984 0.794206142 -0.348211765 1.67257798 0.791444361 -0.34366852 1.6480056 0.805090427 -0.343597203 1.65185153 0.797141135 -0.348794907 1.6749984 0.804078341 -0.335073322 1.60432804 0.797141135 -0.348794907 1.6749984 0.805090427 -0.343597203 1.65185153 0.805078685 -0.347610593 1.67404366 0.80733037 -0.352230817 1.70570207 0.797141135 -0.348794907 1.6749984 0.805078685 -0.347610593 1.67404366 0.79483211 -0.351083905 1.68910706 0.797141135 -0.348794907 1.6749984 0.80733037 -0.352230817 1.70570207 0.794206142 -0.348211765 1.67257798 0.797141135 -0.348794907 1.6749984 0.791342676 -0.351199448 1.69067347 0.797141135 -0.348794907 1.6749984 0.79483211 -0.351083905 1.68910706 0.791342676 -0.351199448 1.69067347 </float_array>
          <technique_common>
            <accessor count="84" offset="0" source="#mesh_0-positions-array" stride="3">
              <param name="X" type="float" />
              <param name="Y" type="float" />
              <param name="Z" type="float" />
            </accessor>
          </technique_common>
        </source>
        <vertices id="mesh_0-vertices">
          <input semantic="POSITION" source="#mesh_0-positions" />
        </vertices>
        <polylist count="28" material="defaultMaterial">
          <input offset="0" semantic="VERTEX" source="#mesh_0-vertices" />
          <vcount>3 3 3 3 3 3 3 3 3 3 3 3 3 3 3 3 3 3 3 3 3 3 3 3 3 3 3 3 </vcount>
          <p>0 1 2 3 4 5 6 7 8 9 10 11 12 13 14 15 16 17 18 19 20 21 22 23 24 25 26 27 28 29 30 31 32 33 34 35 36 37 38 39 40 41 42 43 44 45 46 47 48 49 50 51 52 53 54 55 56 57 58 59 60 61 62 63 64 65 66 67 68 69 70 71 72 73 74 75 76 77 78 79 80 81 82 83 </p>
        </polylist>
      </mesh>
    </geometry>
  </library_geometries>
  <library_controllers>
  </library_controllers>
  <library_visual_scenes>
    <visual_scene id="Scene" name="Scene">
      <node id="node" name="" type="NODE">
        <matrix sid="matrix">1 0 0 0 0 1 0 0 0 0 1 0 0 0 0 1</matrix>
        <instance_geometry url="#mesh_0">
          <bind_material>
            <technique_common>
              <instance_material symbol="defaultMaterial" target="#material_0">
              </instance_material>
            </technique_common>
          </bind_material>
        </instance_geometry>
      </node>
    </visual_scene>
  </library_visual_scenes>
  <scene>
    <instance_visual_scene url="#Scene" />
  </scene>
</COLLADA>
