<?xml version="1.0" encoding="UTF-8" standalone="no" ?>
<COLLADA xmlns="http://www.collada.org/2005/11/COLLADASchema" version="1.4.1">
  <asset>
    <contributor>
      <author>Assimp</author>
      <authoring_tool>Assimp Exporter</authoring_tool>
    </contributor>
    <created>2026-04-22T16:09:44</created>
    <modified>2026-04-22T16:09:44</modified>
    <unit name="meter" meter="1" />
    <up_axis>Y_UP</up_axis>
  </asset>
  <library_images>
  </library_images>
  <library_effects>
    <effect id="material_0-fx" name="">
      <profile_COMMON>
        <technique sid="standard">
          <phong>
            <emission>
              <color sid="emission">0   0   0   -1.80123341</color>
            </emission>
            <ambient>
              <color sid="ambient">0.400000006   0.400000006   0.400000006   1.16160011</color>
            </ambient>
            <diffuse>
              <color sid="diffuse">0.400000006   0.400000006   0.400000006   1.16160011</color>
            </diffuse>
            <specular>
              <color sid="specular">0.25   0.25   0.25   -1.80123341</color>
            </specular>
          </phong>
        </technique>
      </profile_COMMON>
    </effect>
  </library_effects>
  <library_materials>
    <material id="material_0" name="">
      <instance_effect url="#material_0-fx"/>
    </material>
  </library_materials>
  <library_geometries>
    <geometry id="mesh_0" name="" >
      <mesh>
        <source id="mesh_0-positions" name="mesh_0-positions">
          <float_array id="mesh_0-positions-array" count="3159"> -0.226362959 -0.011360798 1.82250631 -0.212475821 -0.0117254918 1.81988561 -0.200643316 -0.0120356344 1.81714976 -0.173868001 -0.0127417902 1.78369582 -0.173858613 -0.0137140872 1.78210735 -0.175917685 -0.0136204008 1.7617557 -0.176542237 -0.0126761878 1.75991797 -0.173868001 -0.0127417902 1.78369582 -0.175917685 -0.0136204008 1.7617557 -0.173868001 -0.0127417902 1.78369582 -0.173858583 -0.013714144 1.78210735 -0.173858613 -0.0137140872 1.78210735 -0.24510859 -0.0108700255 1.82536495 -0.254354268 -0.0106286239 1.82366002 -0.252196789 -0.0117226988 1.8241924 -0.246888921 -0.0118425498 1.82515883 -0.24510859 -0.0108700255 1.82536495 -0.252196789 -0.0117226988 1.8241924 -0.185505867 -0.0124323685 1.81179678 -0.185727209 -0.0129473545 1.81193388 -0.200643316 -0.0120356344 1.81714976 -0.234990284 -0.0111349495 1.82496405 -0.24510859 -0.0108700255 1.82536495 -0.246888921 -0.0118425498 1.82515883 -0.176738918 -0.0126639558 1.80093896 -0.176908374 -0.013515518 1.80187023 -0.17977035 -0.0125835286 1.80752289 -0.234990284 -0.0111349495 1.82496405 -0.246888921 -0.0118425498 1.82515883 -0.240248799 -0.0120550189 1.82540715 -0.234990284 -0.0111349495 1.82496405 -0.231944308 -0.0122623369 1.82452929 -0.214489803 -0.0126632871 1.82139432 -0.19487834 -0.0121865859 1.81662452 -0.234990284 -0.0111349495 1.82496405 -0.214489803 -0.0126632871 1.82139432 -0.193845496 -0.013153607 1.81630528 -0.19487834 -0.0121865859 1.81662452 -0.214489803 -0.0126632871 1.82139432 -0.19487834 -0.0121865859 1.81662452 -0.193845496 -0.013153607 1.81630528 -0.187771216 -0.0132849822 1.81408441 -0.181630298 -0.0125343371 1.81070948 -0.19487834 -0.0121865859 1.81662452 -0.187771216 -0.0132849822 1.81408441 -0.179934561 -0.013497347 1.80935812 -0.181630298 -0.0125343371 1.81070948 -0.187771216 -0.0132849822 1.81408441 -0.177876532 -0.0126332585 1.80694926 -0.181630298 -0.0125343371 1.81070948 -0.179934561 -0.013497347 1.80935812 -0.185505867 -0.0124323685 1.81179678 -0.17977035 -0.0125835286 1.80752289 -0.185727209 -0.0129473545 1.81193388 -0.175501585 -0.0126979919 1.79182518 -0.175879791 -0.012692065 1.76909196 -0.175038144 -0.0134202149 1.78362536 -0.176174685 -0.0135984728 1.80354333 -0.177876532 -0.0126332585 1.80694926 -0.179934561 -0.013497347 1.80935812 -0.175692335 -0.0126912836 1.80156839 -0.177876532 -0.0126332585 1.80694926 -0.176174685 -0.0135984728 1.80354333 -0.176738918 -0.0126639558 1.80093896 -0.175501585 -0.0126979919 1.79182518 -0.176253334 -0.0137067046 1.79832458 -0.175692335 -0.0126912836 1.80156839 -0.176174685 -0.0135984728 1.80354333 -0.174156666 -0.0136230132 1.7903651 -0.173868001 -0.0127417902 1.78369582 -0.175692335 -0.0126912836 1.80156839 -0.174156666 -0.0136230132 1.7903651 -0.175879791 -0.012692065 1.76909196 -0.177110672 -0.0126716653 1.76230288 -0.176117316 -0.0130804079 1.76731205 -0.173868001 -0.0127417902 1.78369582 -0.174156666 -0.0136230132 1.7903651 -0.173858583 -0.013714144 1.78210735 -0.284511864 -0.0109983562 1.78857636 -0.285090148 -0.00983079243 1.78342485 -0.284989148 -0.0109476158 1.78106546 -0.282779902 -0.0110264169 1.79585588 -0.285090148 -0.00983079243 1.78342485 -0.284511864 -0.0109983562 1.78857636 -0.282545388 -0.00989526603 1.79685199 -0.285090148 -0.00983079243 1.78342485 -0.282779902 -0.0110264169 1.79585588 -0.278136551 -0.0100088241 1.80581808 -0.282545388 -0.00989526603 1.79685199 -0.282779902 -0.0110264169 1.79585588 -0.271062523 -0.0101929 1.81416559 -0.278136551 -0.0100088241 1.80581808 -0.275720865 -0.0111821126 1.80898559 -0.264269024 -0.0103698689 1.81924295 -0.271062523 -0.0101929 1.81416559 -0.26590246 -0.0114086587 1.81810009 -0.259470165 -0.0115409484 1.82168877 -0.264269024 -0.0103698689 1.81924295 -0.26590246 -0.0114086587 1.81810009 -0.254354268 -0.0106286239 1.82366002 -0.264269024 -0.0103698689 1.81924295 -0.259470165 -0.0115409484 1.82168877 -0.254354268 -0.0106286239 1.82366002 -0.259470165 -0.0115409484 1.82168877 -0.252196789 -0.0117226988 1.8241924 -0.239462599 -0.0110328272 1.73895764 -0.204532802 -0.0119460942 1.74509823 -0.230030105 -0.0122554805 1.7401067 -0.248242497 -0.0108026629 1.73936749 -0.239462599 -0.0110328272 1.73895764 -0.243786663 -0.0119033167 1.73895705 -0.25260812 -0.0117109325 1.74029982 -0.248242497 -0.0108026629 1.73936749 -0.243786663 -0.0119033167 1.73895705 -0.261333287 -0.01045956 1.74353361 -0.248242497 -0.0108026629 1.73936749 -0.25260812 -0.0117109325 1.74029982 -0.187972799 -0.0271423515 1.78721333 -0.179478332 -0.0197923426 1.78973603 -0.189271823 -0.027474016 1.79400086 -0.234278098 -0.027536191 1.81179976 -0.2338866 -0.0193680637 1.81947029 -0.241427258 -0.0235314351 1.81574595 -0.274427474 -0.010115142 1.75366795 -0.261333287 -0.01045956 1.74353361 -0.267266184 -0.0114298752 1.74725997 -0.274427474 -0.010115142 1.75366795 -0.267266184 -0.0114298752 1.74725997 -0.274332374 -0.0112040872 1.75371337 -0.282710642 -0.00989553425 1.7679919 -0.280561924 -0.00995269697 1.76283479 -0.283220172 -0.0110114664 1.76993871 -0.269477755 -0.0246315356 1.788445 -0.276028216 -0.0203214567 1.78481817 -0.272192925 -0.0231860355 1.78207326 -0.284531355 -0.0109816128 1.77587867 -0.282710642 -0.00989553425 1.7679919 -0.283220172 -0.0110114664 1.76993871 -0.285090148 -0.00983079243 1.78342485 -0.282710642 -0.00989553425 1.7679919 -0.284531355 -0.0109816128 1.77587867 -0.221480504 -0.0175750554 1.81905913 -0.214489803 -0.0126632871 1.82139432 -0.231944308 -0.0122623369 1.82452929 -0.284989148 -0.0109476158 1.78106546 -0.285090148 -0.00983079243 1.78342485 -0.284531355 -0.0109816128 1.77587867 -0.181735739 -0.0220914595 1.78238988 -0.179478332 -0.0197923426 1.78973603 -0.187972799 -0.0271423515 1.78721333 -0.211382121 -0.0127423778 1.74357975 -0.204532802 -0.0119460942 1.74509823 -0.193632364 -0.013185041 1.74806154 -0.204532802 -0.0119460942 1.74509823 -0.211382121 -0.0127423778 1.74357975 -0.230030105 -0.0122554805 1.7401067 -0.204532802 -0.0119460942 1.74509823 -0.185998842 -0.0124298707 1.75103295 -0.193632364 -0.013185041 1.74806154 -0.185521588 -0.0201230478 1.80614722 -0.193348721 -0.0205732081 1.80966151 -0.19959864 -0.029620273 1.80180717 -0.185998842 -0.0124298707 1.75103295 -0.176542237 -0.0126761878 1.75991797 -0.179430634 -0.0135641992 1.75544369 -0.184191227 -0.0134349912 1.75195062 -0.185998842 -0.0124298707 1.75103295 -0.179430634 -0.0135641992 1.75544369 -0.193632364 -0.013185041 1.74806154 -0.185998842 -0.0124298707 1.75103295 -0.184191227 -0.0134349912 1.75195062 -0.176652864 -0.0133732287 1.7596097 -0.176542237 -0.0126761878 1.75991797 -0.17660445 -0.0133747635 1.75972497 -0.177157715 -0.0133629199 1.75849223 -0.176542237 -0.0126761878 1.75991797 -0.176652864 -0.0133732287 1.7596097 -0.279111445 -0.0111021027 1.80399072 -0.282779902 -0.0110264169 1.79585588 -0.27494818 -0.0175011232 1.80053389 -0.179430634 -0.0135641992 1.75544369 -0.176542237 -0.0126761878 1.75991797 -0.177157715 -0.0133629199 1.75849223 -0.257730722 -0.0181688666 1.81678295 -0.259470165 -0.0115409484 1.82168877 -0.265318304 -0.0153265661 1.81496942 -0.17660445 -0.0133747635 1.75972497 -0.176542237 -0.0126761878 1.75991797 -0.175917685 -0.0136204008 1.7617557 -0.19959864 -0.029620273 1.80180717 -0.205453679 -0.0304657575 1.80351257 -0.214477673 -0.0315259621 1.80539 -0.179430634 -0.0135641992 1.75544369 -0.177157715 -0.0133629199 1.75849223 -0.17660445 -0.0133747635 1.75972497 -0.283220172 -0.0110114664 1.76993871 -0.280561924 -0.00995269697 1.76283479 -0.276840597 -0.0111646652 1.75689435 -0.280561924 -0.00995269697 1.76283479 -0.274427474 -0.010115142 1.75366795 -0.276840597 -0.0111646652 1.75689435 -0.276840597 -0.0111646652 1.75689435 -0.274427474 -0.010115142 1.75366795 -0.274332374 -0.0112040872 1.75371337 -0.267266184 -0.0114298752 1.74725997 -0.261333287 -0.01045956 1.74353361 -0.261423379 -0.0115367658 1.74364758 -0.261423379 -0.0115367658 1.74364758 -0.261333287 -0.01045956 1.74353361 -0.25260812 -0.0117109325 1.74029982 -0.261595637 -0.0204943419 1.81160736 -0.257730722 -0.0181688666 1.81678295 -0.264844 -0.0203714855 1.80900729 -0.243786663 -0.0119033167 1.73895705 -0.239462599 -0.0110328272 1.73895764 -0.239040643 -0.012039098 1.73900509 -0.239040643 -0.012039098 1.73900509 -0.239462599 -0.0110328272 1.73895764 -0.230030105 -0.0122554805 1.7401067 -0.26590246 -0.0114086587 1.81810009 -0.271062523 -0.0101929 1.81416559 -0.275720865 -0.0111821126 1.80898559 -0.275720865 -0.0111821126 1.80898559 -0.278136551 -0.0100088241 1.80581808 -0.279111445 -0.0111021027 1.80399072 -0.188022181 -0.0271627139 1.77876127 -0.181735739 -0.0220914595 1.78238988 -0.187972799 -0.0271423515 1.78721333 -0.278136551 -0.0100088241 1.80581808 -0.282779902 -0.0110264169 1.79585588 -0.279111445 -0.0111021027 1.80399072 -0.231944308 -0.0122623369 1.82452929 -0.234990284 -0.0111349495 1.82496405 -0.240248799 -0.0120550189 1.82540715 -0.226634562 -0.0322611593 1.75787926 -0.239313439 -0.0305225849 1.7602675 -0.239179313 -0.0321755707 1.75798762 -0.226634562 -0.0322611593 1.75787926 -0.219506204 -0.0301922671 1.76059318 -0.239313439 -0.0305225849 1.7602675 -0.239179313 -0.0321755707 1.75798762 -0.239313439 -0.0305225849 1.7602675 -0.244275138 -0.031868428 1.75887179 -0.273998052 -0.0147914151 1.80681145 -0.279111445 -0.0111021027 1.80399072 -0.27494818 -0.0175011232 1.80053389 -0.231609493 -0.0238042418 1.81532967 -0.2338866 -0.0193680637 1.81947029 -0.234278098 -0.027536191 1.81179976 -0.244275138 -0.031868428 1.75887179 -0.239313439 -0.0305225849 1.7602675 -0.251713991 -0.0298790466 1.76540804 -0.191352963 -0.0279418994 1.76692343 -0.193966568 -0.0271234252 1.76726949 -0.196817651 -0.0291006677 1.76339757 -0.258811742 -0.0302434228 1.79300487 -0.254532039 -0.0308814365 1.79905772 -0.267825276 -0.0235808957 1.79833412 -0.244275138 -0.031868428 1.75887179 -0.251713991 -0.0298790466 1.76540804 -0.253763616 -0.0309922118 1.76453912 -0.179396361 -0.0179541856 1.8016957 -0.176174685 -0.0135984728 1.80354333 -0.181966543 -0.0182878245 1.80560863 -0.191352963 -0.0279418994 1.76692343 -0.188803241 -0.0273482371 1.77192855 -0.193966568 -0.0271234252 1.76726949 -0.196817651 -0.0291006677 1.76339757 -0.193966568 -0.0271234252 1.76726949 -0.219506204 -0.0301922671 1.76059318 -0.188803241 -0.0273482371 1.77192855 -0.190592557 -0.0263675023 1.77361488 -0.193966568 -0.0271234252 1.76726949 -0.196817651 -0.0291006677 1.76339757 -0.219506204 -0.0301922671 1.76059318 -0.203042209 -0.0301737208 1.76154339 -0.254532039 -0.0308814365 1.79905772 -0.258266777 -0.0273767617 1.80286729 -0.267825276 -0.0235808957 1.79833412 -0.253763616 -0.0309922118 1.76453912 -0.251713991 -0.0298790466 1.76540804 -0.256498277 -0.030624846 1.76761234 -0.188803241 -0.0273482371 1.77192855 -0.188022181 -0.0271627139 1.77876127 -0.190592557 -0.0263675023 1.77361488 -0.255192161 -0.015895484 1.82004011 -0.252196789 -0.0117226988 1.8241924 -0.259470165 -0.0115409484 1.82168877 -0.251713991 -0.0298790466 1.76540804 -0.258221358 -0.0289622638 1.77493024 -0.256498277 -0.030624846 1.76761234 -0.203042209 -0.0301737208 1.76154339 -0.219506204 -0.0301922671 1.76059318 -0.206814364 -0.0307138301 1.76058376 -0.258221358 -0.0289622638 1.77493024 -0.260635197 -0.0299523752 1.77610064 -0.256498277 -0.030624846 1.76761234 -0.206814364 -0.0307138301 1.76058376 -0.219506204 -0.0301922671 1.76059318 -0.218926921 -0.0318587162 1.75830841 -0.190592557 -0.0263675023 1.77361488 -0.188022181 -0.0271627139 1.77876127 -0.190344378 -0.0263078734 1.78899765 -0.258221358 -0.0289622638 1.77493024 -0.261402428 -0.0298087019 1.78161454 -0.260635197 -0.0299523752 1.77610064 -0.258221358 -0.0289622638 1.77493024 -0.259319186 -0.028738888 1.7846595 -0.261402428 -0.0298087019 1.78161454 -0.218926921 -0.0318587162 1.75830841 -0.219506204 -0.0301922671 1.76059318 -0.226634562 -0.0322611593 1.75787926 -0.22344853 -0.0321184061 1.80641198 -0.241186336 -0.0320317559 1.80621767 -0.217707232 -0.0300849676 1.80353761 -0.241186336 -0.0320317559 1.80621767 -0.237540886 -0.030550506 1.80424201 -0.217707232 -0.0300849676 1.80353761 -0.241186336 -0.0320317559 1.80621767 -0.244713753 -0.0303472783 1.80300021 -0.237540886 -0.030550506 1.80424201 -0.258266777 -0.0273767617 1.80286729 -0.261595637 -0.0204943419 1.81160736 -0.264844 -0.0203714855 1.80900729 -0.241186336 -0.0320317559 1.80621767 -0.250205964 -0.0313767083 1.80268419 -0.244713753 -0.0303472783 1.80300021 -0.277349591 -0.0173892975 1.79521358 -0.278802574 -0.0174207352 1.78961456 -0.269477755 -0.0246315356 1.788445 -0.190192252 -0.0276749823 1.79595876 -0.193531811 -0.028405387 1.79947734 -0.194951862 -0.0273205563 1.79772413 -0.193531811 -0.028405387 1.79947734 -0.19959864 -0.029620273 1.80180717 -0.194951862 -0.0273205563 1.79772413 -0.250205964 -0.0313767083 1.80268419 -0.252384454 -0.0298005249 1.79836905 -0.244713753 -0.0303472783 1.80300021 -0.234278098 -0.027536191 1.81179976 -0.241427258 -0.0235314351 1.81574595 -0.241186336 -0.0320317559 1.80621767 -0.190192252 -0.0276749823 1.79595876 -0.194951862 -0.0273205563 1.79772413 -0.190344378 -0.0263078734 1.78899765 -0.190192252 -0.0276749823 1.79595876 -0.190344378 -0.0263078734 1.78899765 -0.189271823 -0.027474016 1.79400086 -0.250205964 -0.0313767083 1.80268419 -0.254532039 -0.0308814365 1.79905772 -0.252384454 -0.0298005249 1.79836905 -0.252384454 -0.0298005249 1.79836905 -0.254532039 -0.0308814365 1.79905772 -0.256537139 -0.0292573571 1.79318082 -0.256537139 -0.0292573571 1.79318082 -0.254532039 -0.0308814365 1.79905772 -0.258811742 -0.0302434228 1.79300487 -0.189271823 -0.027474016 1.79400086 -0.190344378 -0.0263078734 1.78899765 -0.187972799 -0.0271423515 1.78721333 -0.256537139 -0.0292573571 1.79318082 -0.258811742 -0.0302434228 1.79300487 -0.259319186 -0.028738888 1.7846595 -0.19959864 -0.029620273 1.80180717 -0.214477673 -0.0315259621 1.80539 -0.194951862 -0.0273205563 1.79772413 -0.234278098 -0.027536191 1.81179976 -0.241186336 -0.0320317559 1.80621767 -0.22344853 -0.0321184061 1.80641198 -0.214477673 -0.0315259621 1.80539 -0.217707232 -0.0300849676 1.80353761 -0.194951862 -0.0273205563 1.79772413 -0.179396361 -0.0179541856 1.8016957 -0.174156666 -0.0136230132 1.7903651 -0.176174685 -0.0135984728 1.80354333 -0.259319186 -0.028738888 1.7846595 -0.258811742 -0.0302434228 1.79300487 -0.260737389 -0.0299379453 1.7879864 -0.187972799 -0.0271423515 1.78721333 -0.190344378 -0.0263078734 1.78899765 -0.188022181 -0.0271627139 1.77876127 -0.259319186 -0.028738888 1.7846595 -0.260737389 -0.0299379453 1.7879864 -0.261402428 -0.0298087019 1.78161454 -0.214477673 -0.0315259621 1.80539 -0.22344853 -0.0321184061 1.80641198 -0.217707232 -0.0300849676 1.80353761 -0.223703161 -0.0262213871 1.75226963 -0.218926921 -0.0318587162 1.75830841 -0.226634562 -0.0322611593 1.75787926 -0.212009564 -0.0192208234 1.74836791 -0.224114925 -0.0192928202 1.74622083 -0.211382121 -0.0127423778 1.74357975 -0.220122442 -0.0215546116 1.81557417 -0.2338866 -0.0193680637 1.81947029 -0.231609493 -0.0238042418 1.81532967 -0.220122442 -0.0215546116 1.81557417 -0.221480504 -0.0175750554 1.81905913 -0.2338866 -0.0193680637 1.81947029 -0.25418061 -0.0271268412 1.80709291 -0.261595637 -0.0204943419 1.81160736 -0.258266777 -0.0273767617 1.80286729 -0.223703161 -0.0262213871 1.75226963 -0.226634562 -0.0322611593 1.75787926 -0.235197037 -0.025816625 1.75077331 -0.275937289 -0.0200459138 1.77589309 -0.276028216 -0.0203214567 1.78481817 -0.281676829 -0.0151892258 1.78108037 -0.235197037 -0.025816625 1.75077331 -0.23499161 -0.0195753276 1.74496186 -0.223703161 -0.0262213871 1.75226963 -0.223703161 -0.0262213871 1.75226963 -0.23499161 -0.0195753276 1.74496186 -0.224114925 -0.0192928202 1.74622083 -0.280669957 -0.0150898807 1.77268362 -0.284531355 -0.0109816128 1.77587867 -0.283220172 -0.0110114664 1.76993871 -0.19959864 -0.029620273 1.80180717 -0.193348721 -0.0205732081 1.80966151 -0.205453679 -0.0304657575 1.80351257 -0.235197037 -0.025816625 1.75077331 -0.226634562 -0.0322611593 1.75787926 -0.239179313 -0.0321755707 1.75798762 -0.255192161 -0.015895484 1.82004011 -0.259470165 -0.0115409484 1.82168877 -0.257730722 -0.0181688666 1.81678295 -0.269477755 -0.0246315356 1.788445 -0.272192925 -0.0231860355 1.78207326 -0.267142445 -0.0264325589 1.78212535 -0.268394768 -0.0247256979 1.79244018 -0.277349591 -0.0173892975 1.79521358 -0.269477755 -0.0246315356 1.788445 -0.175717086 -0.015369962 1.79334569 -0.174156666 -0.0136230132 1.7903651 -0.179396361 -0.0179541856 1.8016957 -0.271604478 -0.0206393953 1.79938912 -0.27494818 -0.0175011232 1.80053389 -0.277349591 -0.0173892975 1.79521358 -0.235197037 -0.025816625 1.75077331 -0.240231454 -0.0201836694 1.74532688 -0.23499161 -0.0195753276 1.74496186 -0.266131967 -0.0214216989 1.75850832 -0.272320628 -0.0170432273 1.7587322 -0.268098772 -0.0166184735 1.75324881 -0.235197037 -0.025816625 1.75077331 -0.242600694 -0.0237826444 1.74903178 -0.240231454 -0.0201836694 1.74532688 -0.280669957 -0.0150898807 1.77268362 -0.275937289 -0.0200459138 1.77589309 -0.281676829 -0.0151892258 1.78108037 -0.275720865 -0.0111821126 1.80898559 -0.279111445 -0.0111021027 1.80399072 -0.273998052 -0.0147914151 1.80681145 -0.264295667 -0.0243545454 1.76222861 -0.267112583 -0.0240820721 1.7661556 -0.266131967 -0.0214216989 1.75850832 -0.250931352 -0.0184758324 1.81908226 -0.255192161 -0.015895484 1.82004011 -0.257730722 -0.0181688666 1.81678295 -0.268098772 -0.0166184735 1.75324881 -0.274332374 -0.0112040872 1.75371337 -0.26595667 -0.0147133078 1.74926448 -0.280669957 -0.0150898807 1.77268362 -0.281676829 -0.0151892258 1.78108037 -0.284531355 -0.0109816128 1.77587867 -0.242600694 -0.0237826444 1.74903178 -0.251480967 -0.022397697 1.74957538 -0.250902861 -0.0186037496 1.74538648 -0.224114925 -0.0192928202 1.74622083 -0.230030105 -0.0122554805 1.7401067 -0.211382121 -0.0127423778 1.74357975 -0.224114925 -0.0192928202 1.74622083 -0.23499161 -0.0195753276 1.74496186 -0.230030105 -0.0122554805 1.7401067 -0.23499161 -0.0195753276 1.74496186 -0.239040643 -0.012039098 1.73900509 -0.230030105 -0.0122554805 1.7401067 -0.242600694 -0.0237826444 1.74903178 -0.239179313 -0.0321755707 1.75798762 -0.244215205 -0.0266781021 1.75246263 -0.242600694 -0.0237826444 1.74903178 -0.244215205 -0.0266781021 1.75246263 -0.251480967 -0.022397697 1.74957538 -0.242600694 -0.0237826444 1.74903178 -0.235197037 -0.025816625 1.75077331 -0.239179313 -0.0321755707 1.75798762 -0.240231454 -0.0201836694 1.74532688 -0.242600694 -0.0237826444 1.74903178 -0.246856138 -0.0157416966 1.7421006 -0.23499161 -0.0195753276 1.74496186 -0.239896685 -0.0159428082 1.741768 -0.239040643 -0.012039098 1.73900509 -0.246856138 -0.0157416966 1.7421006 -0.25260812 -0.0117109325 1.74029982 -0.243786663 -0.0119033167 1.73895705 -0.239896685 -0.0159428082 1.741768 -0.23499161 -0.0195753276 1.74496186 -0.240231454 -0.0201836694 1.74532688 -0.281676829 -0.0151892258 1.78108037 -0.284989148 -0.0109476158 1.78106546 -0.284531355 -0.0109816128 1.77587867 -0.239896685 -0.0159428082 1.741768 -0.243786663 -0.0119033167 1.73895705 -0.239040643 -0.012039098 1.73900509 -0.207207263 -0.0160432402 1.8175 -0.214489803 -0.0126632871 1.82139432 -0.221480504 -0.0175750554 1.81905913 -0.239896685 -0.0159428082 1.741768 -0.246856138 -0.0157416966 1.7421006 -0.243786663 -0.0119033167 1.73895705 -0.239896685 -0.0159428082 1.741768 -0.240231454 -0.0201836694 1.74532688 -0.246856138 -0.0157416966 1.7421006 -0.242600694 -0.0237826444 1.74903178 -0.250902861 -0.0186037496 1.74538648 -0.246856138 -0.0157416966 1.7421006 -0.22344853 -0.0321184061 1.80641198 -0.231609493 -0.0238042418 1.81532967 -0.234278098 -0.027536191 1.81179976 -0.250902861 -0.0186037496 1.74538648 -0.251480967 -0.022397697 1.74957538 -0.257819891 -0.0182267725 1.74769986 -0.188022181 -0.0271627139 1.77876127 -0.181328684 -0.0213205945 1.77270579 -0.181735739 -0.0220914595 1.78238988 -0.188022181 -0.0271627139 1.77876127 -0.188803241 -0.0273482371 1.77192855 -0.181328684 -0.0213205945 1.77270579 -0.181735739 -0.0220914595 1.78238988 -0.181328684 -0.0213205945 1.77270579 -0.176563084 -0.01641839 1.77148414 -0.255159378 -0.0216773711 1.81414485 -0.257730722 -0.0181688666 1.81678295 -0.261595637 -0.0204943419 1.81160736 -0.181735739 -0.0220914595 1.78238988 -0.176563084 -0.01641839 1.77148414 -0.174901351 -0.0151127242 1.7821089 -0.246856138 -0.0157416966 1.7421006 -0.250902861 -0.0186037496 1.74538648 -0.25260812 -0.0117109325 1.74029982 -0.181328684 -0.0213205945 1.77270579 -0.179607898 -0.0188418925 1.7657038 -0.176563084 -0.01641839 1.77148414 -0.181328684 -0.0213205945 1.77270579 -0.188803241 -0.0273482371 1.77192855 -0.179607898 -0.0188418925 1.7657038 -0.250902861 -0.0186037496 1.74538648 -0.257819891 -0.0182267725 1.74769986 -0.25260812 -0.0117109325 1.74029982 -0.244215205 -0.0266781021 1.75246263 -0.239179313 -0.0321755707 1.75798762 -0.244275138 -0.031868428 1.75887179 -0.176563084 -0.01641839 1.77148414 -0.173858613 -0.0137140872 1.78210735 -0.174901351 -0.0151127242 1.7821089 -0.266131967 -0.0214216989 1.75850832 -0.267112583 -0.0240820721 1.7661556 -0.273009121 -0.0205602665 1.76781774 -0.188803241 -0.0273482371 1.77192855 -0.18331261 -0.0212236363 1.76263988 -0.179607898 -0.0188418925 1.7657038 -0.244215205 -0.0266781021 1.75246263 -0.244275138 -0.031868428 1.75887179 -0.251480967 -0.022397697 1.74957538 -0.18331261 -0.0212236363 1.76263988 -0.188803241 -0.0273482371 1.77192855 -0.191352963 -0.0279418994 1.76692343 -0.267112583 -0.0240820721 1.7661556 -0.266314268 -0.0264848247 1.77485847 -0.27068308 -0.0233392939 1.772457 -0.248010218 -0.0161044877 1.82183111 -0.252196789 -0.0117226988 1.8241924 -0.255192161 -0.015895484 1.82004011 -0.26595667 -0.0147133078 1.74926448 -0.274332374 -0.0112040872 1.75371337 -0.267266184 -0.0114298752 1.74725997 -0.248010218 -0.0161044877 1.82183111 -0.246888921 -0.0118425498 1.82515883 -0.252196789 -0.0117226988 1.8241924 -0.176563084 -0.01641839 1.77148414 -0.175917685 -0.0136204008 1.7617557 -0.173858613 -0.0137140872 1.78210735 -0.267825276 -0.0235808957 1.79833412 -0.271604478 -0.0206393953 1.79938912 -0.277349591 -0.0173892975 1.79521358 -0.207207263 -0.0160432402 1.8175 -0.221480504 -0.0175750554 1.81905913 -0.220122442 -0.0215546116 1.81557417 -0.272320628 -0.0170432273 1.7587322 -0.266131967 -0.0214216989 1.75850832 -0.275676519 -0.0167227443 1.76357961 -0.253763616 -0.0309922118 1.76453912 -0.253241807 -0.0277531669 1.75765109 -0.244275138 -0.031868428 1.75887179 -0.220122442 -0.0215546116 1.81557417 -0.231609493 -0.0238042418 1.81532967 -0.22344853 -0.0321184061 1.80641198 -0.18331261 -0.0212236363 1.76263988 -0.191352963 -0.0279418994 1.76692343 -0.184708208 -0.0212991219 1.76081085 -0.244275138 -0.031868428 1.75887179 -0.253241807 -0.0277531669 1.75765109 -0.251480967 -0.022397697 1.74957538 -0.176563084 -0.01641839 1.77148414 -0.179607898 -0.0188418925 1.7657038 -0.175917685 -0.0136204008 1.7617557 -0.253241807 -0.0277531669 1.75765109 -0.253763616 -0.0309922118 1.76453912 -0.260576278 -0.0241893437 1.75758791 -0.268098772 -0.0166184735 1.75324881 -0.272320628 -0.0170432273 1.7587322 -0.274332374 -0.0112040872 1.75371337 -0.179607898 -0.0188418925 1.7657038 -0.18331261 -0.0212236363 1.76263988 -0.181251511 -0.0189179946 1.76085877 -0.260635197 -0.0299523752 1.77610064 -0.261402428 -0.0298087019 1.78161454 -0.266314268 -0.0264848247 1.77485847 -0.273009121 -0.0205602665 1.76781774 -0.275676519 -0.0167227443 1.76357961 -0.266131967 -0.0214216989 1.75850832 -0.261402428 -0.0298087019 1.78161454 -0.267142445 -0.0264325589 1.78212535 -0.266314268 -0.0264848247 1.77485847 -0.274332374 -0.0112040872 1.75371337 -0.272320628 -0.0170432273 1.7587322 -0.276840597 -0.0111646652 1.75689435 -0.251480967 -0.022397697 1.74957538 -0.253241807 -0.0277531669 1.75765109 -0.257819891 -0.0182267725 1.74769986 -0.179607898 -0.0188418925 1.7657038 -0.17660445 -0.0133747635 1.75972497 -0.175917685 -0.0136204008 1.7617557 -0.18331261 -0.0212236363 1.76263988 -0.184708208 -0.0212991219 1.76081085 -0.181251511 -0.0189179946 1.76085877 -0.184708208 -0.0212991219 1.76081085 -0.191352963 -0.0279418994 1.76692343 -0.190585703 -0.0238505024 1.7599318 -0.214477673 -0.0315259621 1.80539 -0.220122442 -0.0215546116 1.81557417 -0.22344853 -0.0321184061 1.80641198 -0.267112583 -0.0240820721 1.7661556 -0.27068308 -0.0233392939 1.772457 -0.273009121 -0.0205602665 1.76781774 -0.179607898 -0.0188418925 1.7657038 -0.181251511 -0.0189179946 1.76085877 -0.17660445 -0.0133747635 1.75972497 -0.190585703 -0.0238505024 1.7599318 -0.18708162 -0.0189177804 1.7556566 -0.184708208 -0.0212991219 1.76081085 -0.275676519 -0.0167227443 1.76357961 -0.273009121 -0.0205602665 1.76781774 -0.277632654 -0.0173763596 1.76996732 -0.184708208 -0.0212991219 1.76081085 -0.18708162 -0.0189177804 1.7556566 -0.181251511 -0.0189179946 1.76085877 -0.213073835 -0.0242102072 1.81181467 -0.207207263 -0.0160432402 1.8175 -0.220122442 -0.0215546116 1.81557417 -0.267825276 -0.0235808957 1.79833412 -0.277349591 -0.0173892975 1.79521358 -0.268394768 -0.0247256979 1.79244018 -0.255159378 -0.0216773711 1.81414485 -0.261595637 -0.0204943419 1.81160736 -0.25418061 -0.0271268412 1.80709291 -0.256498277 -0.030624846 1.76761234 -0.264295667 -0.0243545454 1.76222861 -0.253763616 -0.0309922118 1.76453912 -0.260576278 -0.0241893437 1.75758791 -0.253763616 -0.0309922118 1.76453912 -0.264295667 -0.0243545454 1.76222861 -0.186180398 -0.0229532681 1.80195963 -0.181966543 -0.0182878245 1.80560863 -0.185521588 -0.0201230478 1.80614722 -0.186180398 -0.0229532681 1.80195963 -0.185521588 -0.0201230478 1.80614722 -0.193531811 -0.028405387 1.79947734 -0.272320628 -0.0170432273 1.7587322 -0.275676519 -0.0167227443 1.76357961 -0.278351963 -0.0134581849 1.76248527 -0.250931352 -0.0184758324 1.81908226 -0.257730722 -0.0181688666 1.81678295 -0.255159378 -0.0216773711 1.81414485 -0.272320628 -0.0170432273 1.7587322 -0.278351963 -0.0134581849 1.76248527 -0.276840597 -0.0111646652 1.75689435 -0.253241807 -0.0277531669 1.75765109 -0.260986924 -0.0212853234 1.7533927 -0.257819891 -0.0182267725 1.74769986 -0.253241807 -0.0277531669 1.75765109 -0.260576278 -0.0241893437 1.75758791 -0.260986924 -0.0212853234 1.7533927 -0.181251511 -0.0189179946 1.76085877 -0.179430634 -0.0135641992 1.75544369 -0.17660445 -0.0133747635 1.75972497 -0.190585703 -0.0238505024 1.7599318 -0.191352963 -0.0279418994 1.76692343 -0.196817651 -0.0291006677 1.76339757 -0.257819891 -0.0182267725 1.74769986 -0.261423379 -0.0115367658 1.74364758 -0.25260812 -0.0117109325 1.74029982 -0.273009121 -0.0205602665 1.76781774 -0.27068308 -0.0233392939 1.772457 -0.275937289 -0.0200459138 1.77589309 -0.186180398 -0.0229532681 1.80195963 -0.179396361 -0.0179541856 1.8016957 -0.181966543 -0.0182878245 1.80560863 -0.207207263 -0.0160432402 1.8175 -0.193845496 -0.013153607 1.81630528 -0.214489803 -0.0126632871 1.82139432 -0.193531811 -0.028405387 1.79947734 -0.185521588 -0.0201230478 1.80614722 -0.19959864 -0.029620273 1.80180717 -0.257819891 -0.0182267725 1.74769986 -0.26595667 -0.0147133078 1.74926448 -0.261423379 -0.0115367658 1.74364758 -0.260576278 -0.0241893437 1.75758791 -0.266131967 -0.0214216989 1.75850832 -0.260986924 -0.0212853234 1.7533927 -0.181251511 -0.0189179946 1.76085877 -0.18708162 -0.0189177804 1.7556566 -0.179430634 -0.0135641992 1.75544369 -0.275676519 -0.0167227443 1.76357961 -0.277632654 -0.0173763596 1.76996732 -0.278901994 -0.0147210397 1.76612556 -0.275676519 -0.0167227443 1.76357961 -0.278901994 -0.0147210397 1.76612556 -0.278351963 -0.0134581849 1.76248527 -0.250205964 -0.0313767083 1.80268419 -0.258266777 -0.0273767617 1.80286729 -0.254532039 -0.0308814365 1.79905772 -0.190585703 -0.0238505024 1.7599318 -0.196817651 -0.0291006677 1.76339757 -0.203042209 -0.0301737208 1.76154339 -0.190585703 -0.0238505024 1.7599318 -0.203042209 -0.0301737208 1.76154339 -0.193268135 -0.019011071 1.7530669 -0.266314268 -0.0264848247 1.77485847 -0.272192925 -0.0231860355 1.78207326 -0.27068308 -0.0233392939 1.772457 -0.266314268 -0.0264848247 1.77485847 -0.267142445 -0.0264325589 1.78212535 -0.272192925 -0.0231860355 1.78207326 -0.18708162 -0.0189177804 1.7556566 -0.184191227 -0.0134349912 1.75195062 -0.179430634 -0.0135641992 1.75544369 -0.273009121 -0.0205602665 1.76781774 -0.275937289 -0.0200459138 1.77589309 -0.277632654 -0.0173763596 1.76996732 -0.256498277 -0.030624846 1.76761234 -0.267112583 -0.0240820721 1.7661556 -0.264295667 -0.0243545454 1.76222861 -0.190585703 -0.0238505024 1.7599318 -0.193268135 -0.019011071 1.7530669 -0.18708162 -0.0189177804 1.7556566 -0.257819891 -0.0182267725 1.74769986 -0.260986924 -0.0212853234 1.7533927 -0.26595667 -0.0147133078 1.74926448 -0.260576278 -0.0241893437 1.75758791 -0.264295667 -0.0243545454 1.76222861 -0.266131967 -0.0214216989 1.75850832 -0.201572895 -0.0202350095 1.81259131 -0.207207263 -0.0160432402 1.8175 -0.213073835 -0.0242102072 1.81181467 -0.256498277 -0.030624846 1.76761234 -0.260635197 -0.0299523752 1.77610064 -0.267112583 -0.0240820721 1.7661556 -0.27068308 -0.0233392939 1.772457 -0.276028216 -0.0203214567 1.78481817 -0.275937289 -0.0200459138 1.77589309 -0.18708162 -0.0189177804 1.7556566 -0.193632364 -0.013185041 1.74806154 -0.184191227 -0.0134349912 1.75195062 -0.278351963 -0.0134581849 1.76248527 -0.283220172 -0.0110114664 1.76993871 -0.276840597 -0.0111646652 1.75689435 -0.278351963 -0.0134581849 1.76248527 -0.278901994 -0.0147210397 1.76612556 -0.283220172 -0.0110114664 1.76993871 -0.18708162 -0.0189177804 1.7556566 -0.193268135 -0.019011071 1.7530669 -0.193632364 -0.013185041 1.74806154 -0.193268135 -0.019011071 1.7530669 -0.203042209 -0.0301737208 1.76154339 -0.200373739 -0.0190705061 1.75095952 -0.260986924 -0.0212853234 1.7533927 -0.266131967 -0.0214216989 1.75850832 -0.268098772 -0.0166184735 1.75324881 -0.27068308 -0.0233392939 1.772457 -0.272192925 -0.0231860355 1.78207326 -0.276028216 -0.0203214567 1.78481817 -0.200373739 -0.0190705061 1.75095952 -0.203042209 -0.0301737208 1.76154339 -0.206814364 -0.0307138301 1.76058376 -0.251454502 -0.0252260994 1.81141543 -0.255159378 -0.0216773711 1.81414485 -0.25418061 -0.0271268412 1.80709291 -0.277632654 -0.0173763596 1.76996732 -0.280669957 -0.0150898807 1.77268362 -0.278901994 -0.0147210397 1.76612556 -0.266415894 -0.0225764345 1.80322933 -0.273998052 -0.0147914151 1.80681145 -0.27494818 -0.0175011232 1.80053389 -0.193268135 -0.019011071 1.7530669 -0.200373739 -0.0190705061 1.75095952 -0.193632364 -0.013185041 1.74806154 -0.200373739 -0.0190705061 1.75095952 -0.206814364 -0.0307138301 1.76058376 -0.209396765 -0.0236953776 1.7529186 -0.277632654 -0.0173763596 1.76996732 -0.275937289 -0.0200459138 1.77589309 -0.280669957 -0.0150898807 1.77268362 -0.260635197 -0.0299523752 1.77610064 -0.266314268 -0.0264848247 1.77485847 -0.267112583 -0.0240820721 1.7661556 -0.260986924 -0.0212853234 1.7533927 -0.268098772 -0.0166184735 1.75324881 -0.26595667 -0.0147133078 1.74926448 -0.200373739 -0.0190705061 1.75095952 -0.211382121 -0.0127423778 1.74357975 -0.193632364 -0.013185041 1.74806154 -0.260737389 -0.0299379453 1.7879864 -0.267142445 -0.0264325589 1.78212535 -0.261402428 -0.0298087019 1.78161454 -0.214477673 -0.0315259621 1.80539 -0.213073835 -0.0242102072 1.81181467 -0.220122442 -0.0215546116 1.81557417 -0.209396765 -0.0236953776 1.7529186 -0.212009564 -0.0192208234 1.74836791 -0.200373739 -0.0190705061 1.75095952 -0.209396765 -0.0236953776 1.7529186 -0.206814364 -0.0307138301 1.76058376 -0.218926921 -0.0318587162 1.75830841 -0.200373739 -0.0190705061 1.75095952 -0.212009564 -0.0192208234 1.74836791 -0.211382121 -0.0127423778 1.74357975 -0.251454502 -0.0252260994 1.81141543 -0.250931352 -0.0184758324 1.81908226 -0.255159378 -0.0216773711 1.81414485 -0.265318304 -0.0153265661 1.81496942 -0.275720865 -0.0111821126 1.80898559 -0.273998052 -0.0147914151 1.80681145 -0.278901994 -0.0147210397 1.76612556 -0.280669957 -0.0150898807 1.77268362 -0.283220172 -0.0110114664 1.76993871 -0.209396765 -0.0236953776 1.7529186 -0.218926921 -0.0318587162 1.75830841 -0.223703161 -0.0262213871 1.75226963 -0.242550313 -0.0148246735 1.82344234 -0.246888921 -0.0118425498 1.82515883 -0.248010218 -0.0161044877 1.82183111 -0.209396765 -0.0236953776 1.7529186 -0.223703161 -0.0262213871 1.75226963 -0.224114925 -0.0192928202 1.74622083 -0.209396765 -0.0236953776 1.7529186 -0.224114925 -0.0192928202 1.74622083 -0.212009564 -0.0192208234 1.74836791 -0.26595667 -0.0147133078 1.74926448 -0.267266184 -0.0114298752 1.74725997 -0.261423379 -0.0115367658 1.74364758 -0.258266777 -0.0273767617 1.80286729 -0.266415894 -0.0225764345 1.80322933 -0.267825276 -0.0235808957 1.79833412 -0.269477755 -0.0246315356 1.788445 -0.278802574 -0.0174207352 1.78961456 -0.276028216 -0.0203214567 1.78481817 -0.260737389 -0.0299379453 1.7879864 -0.269477755 -0.0246315356 1.788445 -0.267142445 -0.0264325589 1.78212535 -0.192766488 -0.0176642518 1.81232429 -0.207207263 -0.0160432402 1.8175 -0.201572895 -0.0202350095 1.81259131 -0.192766488 -0.0176642518 1.81232429 -0.193845496 -0.013153607 1.81630528 -0.207207263 -0.0160432402 1.8175 -0.2338866 -0.0193680637 1.81947029 -0.221480504 -0.0175750554 1.81905913 -0.239017859 -0.0148786204 1.82340014 -0.258811742 -0.0302434228 1.79300487 -0.267825276 -0.0235808957 1.79833412 -0.268394768 -0.0247256979 1.79244018 -0.27494818 -0.0175011232 1.80053389 -0.282779902 -0.0110264169 1.79585588 -0.277349591 -0.0173892975 1.79521358 -0.248010218 -0.0161044877 1.82183111 -0.255192161 -0.015895484 1.82004011 -0.250931352 -0.0184758324 1.81908226 -0.181966543 -0.0182878245 1.80560863 -0.183069304 -0.0153182866 1.81006181 -0.185521588 -0.0201230478 1.80614722 -0.241427258 -0.0235314351 1.81574595 -0.247369915 -0.0235036705 1.81483126 -0.241186336 -0.0320317559 1.80621767 -0.258266777 -0.0273767617 1.80286729 -0.264844 -0.0203714855 1.80900729 -0.266415894 -0.0225764345 1.80322933 -0.185521588 -0.0201230478 1.80614722 -0.183069304 -0.0153182866 1.81006181 -0.193348721 -0.0205732081 1.80966151 -0.18132548 -0.0206437465 1.79778838 -0.179396361 -0.0179541856 1.8016957 -0.186180398 -0.0229532681 1.80195963 -0.181966543 -0.0182878245 1.80560863 -0.176174685 -0.0135984728 1.80354333 -0.179934561 -0.013497347 1.80935812 -0.278802574 -0.0174207352 1.78961456 -0.279465139 -0.0172786843 1.78582585 -0.276028216 -0.0203214567 1.78481817 -0.181735739 -0.0220914595 1.78238988 -0.174901351 -0.0151127242 1.7821089 -0.179478332 -0.0197923426 1.78973603 -0.2338866 -0.0193680637 1.81947029 -0.242550313 -0.0148246735 1.82344234 -0.241427258 -0.0235314351 1.81574595 -0.257730722 -0.0181688666 1.81678295 -0.265318304 -0.0153265661 1.81496942 -0.264844 -0.0203714855 1.80900729 -0.2338866 -0.0193680637 1.81947029 -0.239017859 -0.0148786204 1.82340014 -0.242550313 -0.0148246735 1.82344234 -0.193348721 -0.0205732081 1.80966151 -0.201572895 -0.0202350095 1.81259131 -0.205453679 -0.0304657575 1.80351257 -0.277349591 -0.0173892975 1.79521358 -0.284511864 -0.0109983562 1.78857636 -0.278802574 -0.0174207352 1.78961456 -0.241186336 -0.0320317559 1.80621767 -0.247369915 -0.0235036705 1.81483126 -0.251454502 -0.0252260994 1.81141543 -0.221480504 -0.0175750554 1.81905913 -0.231944308 -0.0122623369 1.82452929 -0.239017859 -0.0148786204 1.82340014 -0.265318304 -0.0153265661 1.81496942 -0.26590246 -0.0114086587 1.81810009 -0.275720865 -0.0111821126 1.80898559 -0.276028216 -0.0203214567 1.78481817 -0.279465139 -0.0172786843 1.78582585 -0.281676829 -0.0151892258 1.78108037 -0.277349591 -0.0173892975 1.79521358 -0.282779902 -0.0110264169 1.79585588 -0.284511864 -0.0109983562 1.78857636 -0.265318304 -0.0153265661 1.81496942 -0.259470165 -0.0115409484 1.82168877 -0.26590246 -0.0114086587 1.81810009 -0.179478332 -0.0197923426 1.78973603 -0.18132548 -0.0206437465 1.79778838 -0.189271823 -0.027474016 1.79400086 -0.193348721 -0.0205732081 1.80966151 -0.183069304 -0.0153182866 1.81006181 -0.192766488 -0.0176642518 1.81232429 -0.205453679 -0.0304657575 1.80351257 -0.201572895 -0.0202350095 1.81259131 -0.214477673 -0.0315259621 1.80539 -0.181966543 -0.0182878245 1.80560863 -0.179934561 -0.013497347 1.80935812 -0.183069304 -0.0153182866 1.81006181 -0.258811742 -0.0302434228 1.79300487 -0.268394768 -0.0247256979 1.79244018 -0.260737389 -0.0299379453 1.7879864 -0.239017859 -0.0148786204 1.82340014 -0.231944308 -0.0122623369 1.82452929 -0.240248799 -0.0120550189 1.82540715 -0.174901351 -0.0151127242 1.7821089 -0.174156666 -0.0136230132 1.7903651 -0.179478332 -0.0197923426 1.78973603 -0.278802574 -0.0174207352 1.78961456 -0.284511864 -0.0109983562 1.78857636 -0.279465139 -0.0172786843 1.78582585 -0.183069304 -0.0153182866 1.81006181 -0.187771216 -0.0132849822 1.81408441 -0.192766488 -0.0176642518 1.81232429 -0.266415894 -0.0225764345 1.80322933 -0.27494818 -0.0175011232 1.80053389 -0.271604478 -0.0206393953 1.79938912 -0.179478332 -0.0197923426 1.78973603 -0.175717086 -0.015369962 1.79334569 -0.18132548 -0.0206437465 1.79778838 -0.241427258 -0.0235314351 1.81574595 -0.242550313 -0.0148246735 1.82344234 -0.250931352 -0.0184758324 1.81908226 -0.190192252 -0.0276749823 1.79595876 -0.186180398 -0.0229532681 1.80195963 -0.193531811 -0.028405387 1.79947734 -0.174901351 -0.0151127242 1.7821089 -0.173858583 -0.013714144 1.78210735 -0.174156666 -0.0136230132 1.7903651 -0.25418061 -0.0271268412 1.80709291 -0.258266777 -0.0273767617 1.80286729 -0.250205964 -0.0313767083 1.80268419 -0.193348721 -0.0205732081 1.80966151 -0.192766488 -0.0176642518 1.81232429 -0.201572895 -0.0202350095 1.81259131 -0.260737389 -0.0299379453 1.7879864 -0.268394768 -0.0247256979 1.79244018 -0.269477755 -0.0246315356 1.788445 -0.284511864 -0.0109983562 1.78857636 -0.284989148 -0.0109476158 1.78106546 -0.279465139 -0.0172786843 1.78582585 -0.266415894 -0.0225764345 1.80322933 -0.271604478 -0.0206393953 1.79938912 -0.267825276 -0.0235808957 1.79833412 -0.189271823 -0.027474016 1.79400086 -0.186180398 -0.0229532681 1.80195963 -0.190192252 -0.0276749823 1.79595876 -0.279465139 -0.0172786843 1.78582585 -0.284989148 -0.0109476158 1.78106546 -0.281676829 -0.0151892258 1.78108037 -0.242550313 -0.0148246735 1.82344234 -0.240248799 -0.0120550189 1.82540715 -0.246888921 -0.0118425498 1.82515883 -0.241427258 -0.0235314351 1.81574595 -0.250931352 -0.0184758324 1.81908226 -0.247369915 -0.0235036705 1.81483126 -0.241186336 -0.0320317559 1.80621767 -0.251454502 -0.0252260994 1.81141543 -0.250205964 -0.0313767083 1.80268419 -0.175717086 -0.015369962 1.79334569 -0.179396361 -0.0179541856 1.8016957 -0.18132548 -0.0206437465 1.79778838 -0.179478332 -0.0197923426 1.78973603 -0.174156666 -0.0136230132 1.7903651 -0.175717086 -0.015369962 1.79334569 -0.183069304 -0.0153182866 1.81006181 -0.179934561 -0.013497347 1.80935812 -0.187771216 -0.0132849822 1.81408441 -0.189271823 -0.027474016 1.79400086 -0.18132548 -0.0206437465 1.79778838 -0.186180398 -0.0229532681 1.80195963 -0.250205964 -0.0313767083 1.80268419 -0.251454502 -0.0252260994 1.81141543 -0.25418061 -0.0271268412 1.80709291 -0.214477673 -0.0315259621 1.80539 -0.201572895 -0.0202350095 1.81259131 -0.213073835 -0.0242102072 1.81181467 -0.239017859 -0.0148786204 1.82340014 -0.240248799 -0.0120550189 1.82540715 -0.242550313 -0.0148246735 1.82344234 -0.264844 -0.0203714855 1.80900729 -0.265318304 -0.0153265661 1.81496942 -0.273998052 -0.0147914151 1.80681145 -0.242550313 -0.0148246735 1.82344234 -0.248010218 -0.0161044877 1.82183111 -0.250931352 -0.0184758324 1.81908226 -0.187771216 -0.0132849822 1.81408441 -0.193845496 -0.013153607 1.81630528 -0.192766488 -0.0176642518 1.81232429 -0.264844 -0.0203714855 1.80900729 -0.273998052 -0.0147914151 1.80681145 -0.266415894 -0.0225764345 1.80322933 -0.247369915 -0.0235036705 1.81483126 -0.250931352 -0.0184758324 1.81908226 -0.251454502 -0.0252260994 1.81141543 </float_array>
          <technique_common>
            <accessor count="1053" offset="0" source="#mesh_0-positions-array" stride="3">
              <param name="X" type="float" />
              <param name="Y" type="float" />
              <param name="Z" type="float" />
            </accessor>
          </technique_common>
        </source>
        <vertices id="mesh_0-vertices">
          <input semantic="POSITION" source="#mesh_0-positions" />
        </vertices>
        <polylist count="351" material="defaultMaterial">
          <input offset="0" semantic="VERTEX" source="#mesh_0-vertices" />
          <vcount>3 3 3 3 3 3 3 3 3 3 3 3 3 3 3 3 3 3 3 3 3 3 3 3 3 3 3 3 3 3 3 3 3 3 3 3 3 3 3 3 3 3 3 3 3 3 3 3 3 3 3 3 3 3 3 3 3 3 3 3 3 3 3 3 3 3 3 3 3 3 3 3 3 3 3 3 3 3 3 3 3 3 3 3 3 3 3 3 3 3 3 3 3 3 3 3 3 3 3 3 3 3 3 3 3 3 3 3 3 3 3 3 3 3 3 3 3 3 3 3 3 3 3 3 3 3 3 3 3 3 3 3 3 3 3 3 3 3 3 3 3 3 3 3 3 3 3 3 3 3 3 3 3 3 3 3 3 3 3 3 3 3 3 3 3 3 3 3 3 3 3 3 3 3 3 3 3 3 3 3 3 3 3 3 3 3 3 3 3 3 3 3 3 3 3 3 3 3 3 3 3 3 3 3 3 3 3 3 3 3 3 3 3 3 3 3 3 3 3 3 3 3 3 3 3 3 3 3 3 3 3 3 3 3 3 3 3 3 3 3 3 3 3 3 3 3 3 3 3 3 3 3 3 3 3 3 3 3 3 3 3 3 3 3 3 3 3 3 3 3 3 3 3 3 3 3 3 3 3 3 3 3 3 3 3 3 3 3 3 3 3 3 3 3 3 3 3 3 3 3 3 3 3 3 3 3 3 3 3 3 3 3 3 3 3 3 3 3 3 3 3 3 3 3 3 3 3 3 3 3 3 3 3 3 3 3 3 3 3 3 3 3 3 3 3 3 3 3 3 3 3 </vcount>
          <p>0 1 2 3 4 5 6 7 8 9 10 11 12 13 14 15 16 17 18 19 20 21 22 23 24 25 26 27 28 29 30 31 32 33 34 35 36 37 38 39 40 41 42 43 44 45 46 47 48 49 50 51 52 53 54 55 56 57 58 59 60 61 62 63 64 65 66 67 68 69 70 71 72 73 74 75 76 77 78 79 80 81 82 83 84 85 86 87 88 89 90 91 92 93 94 95 96 97 98 99 100 101 102 103 104 105 106 107 108 109 110 111 112 113 114 115 116 117 118 119 120 121 122 123 124 125 126 127 128 129 130 131 132 133 134 135 136 137 138 139 140 141 142 143 144 145 146 147 148 149 150 151 152 153 154 155 156 157 158 159 160 161 162 163 164 165 166 167 168 169 170 171 172 173 174 175 176 177 178 179 180 181 182 183 184 185 186 187 188 189 190 191 192 193 194 195 196 197 198 199 200 201 202 203 204 205 206 207 208 209 210 211 212 213 214 215 216 217 218 219 220 221 222 223 224 225 226 227 228 229 230 231 232 233 234 235 236 237 238 239 240 241 242 243 244 245 246 247 248 249 250 251 252 253 254 255 256 257 258 259 260 261 262 263 264 265 266 267 268 269 270 271 272 273 274 275 276 277 278 279 280 281 282 283 284 285 286 287 288 289 290 291 292 293 294 295 296 297 298 299 300 301 302 303 304 305 306 307 308 309 310 311 312 313 314 315 316 317 318 319 320 321 322 323 324 325 326 327 328 329 330 331 332 333 334 335 336 337 338 339 340 341 342 343 344 345 346 347 348 349 350 351 352 353 354 355 356 357 358 359 360 361 362 363 364 365 366 367 368 369 370 371 372 373 374 375 376 377 378 379 380 381 382 383 384 385 386 387 388 389 390 391 392 393 394 395 396 397 398 399 400 401 402 403 404 405 406 407 408 409 410 411 412 413 414 415 416 417 418 419 420 421 422 423 424 425 426 427 428 429 430 431 432 433 434 435 436 437 438 439 440 441 442 443 444 445 446 447 448 449 450 451 452 453 454 455 456 457 458 459 460 461 462 463 464 465 466 467 468 469 470 471 472 473 474 475 476 477 478 479 480 481 482 483 484 485 486 487 488 489 490 491 492 493 494 495 496 497 498 499 500 501 502 503 504 505 506 507 508 509 510 511 512 513 514 515 516 517 518 519 520 521 522 523 524 525 526 527 528 529 530 531 532 533 534 535 536 537 538 539 540 541 542 543 544 545 546 547 548 549 550 551 552 553 554 555 556 557 558 559 560 561 562 563 564 565 566 567 568 569 570 571 572 573 574 575 576 577 578 579 580 581 582 583 584 585 586 587 588 589 590 591 592 593 594 595 596 597 598 599 600 601 602 603 604 605 606 607 608 609 610 611 612 613 614 615 616 617 618 619 620 621 622 623 624 625 626 627 628 629 630 631 632 633 634 635 636 637 638 639 640 641 642 643 644 645 646 647 648 649 650 651 652 653 654 655 656 657 658 659 660 661 662 663 664 665 666 667 668 669 670 671 672 673 674 675 676 677 678 679 680 681 682 683 684 685 686 687 688 689 690 691 692 693 694 695 696 697 698 699 700 701 702 703 704 705 706 707 708 709 710 711 712 713 714 715 716 717 718 719 720 721 722 723 724 725 726 727 728 729 730 731 732 733 734 735 736 737 738 739 740 741 742 743 744 745 746 747 748 749 750 751 752 753 754 755 756 757 758 759 760 761 762 763 764 765 766 767 768 769 770 771 772 773 774 775 776 777 778 779 780 781 782 783 784 785 786 787 788 789 790 791 792 793 794 795 796 797 798 799 800 801 802 803 804 805 806 807 808 809 810 811 812 813 814 815 816 817 818 819 820 821 822 823 824 825 826 827 828 829 830 831 832 833 834 835 836 837 838 839 840 841 842 843 844 845 846 847 848 849 850 851 852 853 854 855 856 857 858 859 860 861 862 863 864 865 866 867 868 869 870 871 872 873 874 875 876 877 878 879 880 881 882 883 884 885 886 887 888 889 890 891 892 893 894 895 896 897 898 899 900 901 902 903 904 905 906 907 908 909 910 911 912 913 914 915 916 917 918 919 920 921 922 923 924 925 926 927 928 929 930 931 932 933 934 935 936 937 938 939 940 941 942 943 944 945 946 947 948 949 950 951 952 953 954 955 956 957 958 959 960 961 962 963 964 965 966 967 968 969 970 971 972 973 974 975 976 977 978 979 980 981 982 983 984 985 986 987 988 989 990 991 992 993 994 995 996 997 998 999 1000 1001 1002 1003 1004 1005 1006 1007 1008 1009 1010 1011 1012 1013 1014 1015 1016 1017 1018 1019 1020 1021 1022 1023 1024 1025 1026 1027 1028 1029 1030 1031 1032 1033 1034 1035 1036 1037 1038 1039 1040 1041 1042 1043 1044 1045 1046 1047 1048 1049 1050 1051 1052 </p>
        </polylist>
      </mesh>
    </geometry>
  </library_geometries>
  <library_controllers>
  </library_controllers>
  <library_visual_scenes>
    <visual_scene id="Scene" name="Scene">
      <node id="node" name="" type="NODE">
        <matrix sid="matrix">1 0 0 0 0 1 0 0 0 0 1 0 0 0 0 1</matrix>
        <instance_geometry url="#mesh_0">
          <bind_material>
            <technique_common>
              <instance_material symbol="defaultMaterial" target="#material_0">
              </instance_material>
            </technique_common>
          </bind_material>
        </instance_geometry>
      </node>
    </visual_scene>
  </library_visual_scenes>
  <scene>
    <instance_visual_scene url="#Scene" />
  </scene>
</COLLADA>
