<?xml version="1.0" encoding="UTF-8" standalone="no" ?>
<COLLADA xmlns="http://www.collada.org/2005/11/COLLADASchema" version="1.4.1">
  <asset>
    <contributor>
      <author>Assimp</author>
      <authoring_tool>Assimp Exporter</authoring_tool>
    </contributor>
    <created>2026-04-22T16:09:44</created>
    <modified>2026-04-22T16:09:44</modified>
    <unit name="meter" meter="1" />
    <up_axis>Y_UP</up_axis>
  </asset>
  <library_images>
  </library_images>
  <library_effects>
    <effect id="material_0-fx" name="">
      <profile_COMMON>
        <technique sid="standard">
          <phong>
            <emission>
              <color sid="emission">0   0   0   1.29948342</color>
            </emission>
            <ambient>
              <color sid="ambient">0.100000001   0.100000001   0.100000001   -1.2913686</color>
            </ambient>
            <diffuse>
              <color sid="diffuse">0.100000001   0.100000001   0.100000001   -1.2913686</color>
            </diffuse>
            <specular>
              <color sid="specular">0.300000012   0.300000012   0.300000012   -0.421389788</color>
            </specular>
          </phong>
        </technique>
      </profile_COMMON>
    </effect>
  </library_effects>
  <library_materials>
    <material id="material_0" name="">
      <instance_effect url="#material_0-fx"/>
    </material>
  </library_materials>
  <library_geometries>
    <geometry id="mesh_0" name="" >
      <mesh>
        <source id="mesh_0-positions" name="mesh_0-positions">
          <float_array id="mesh_0-positions-array" count="2358"> -0.153534681 0.0309114903 1.57506442 -0.158696935 0.0363904685 1.57422161 -0.153110147 0.0314200521 1.57271111 -0.158696935 0.0363904685 1.57422161 -0.158986181 0.0360517427 1.57242417 -0.153110147 0.0314200521 1.57271111 -0.158986181 0.0360517427 1.57242417 -0.159919396 0.0349366441 1.57187152 -0.153110147 0.0314200521 1.57271111 -0.153110147 0.0314200521 1.57271111 -0.159919396 0.0349366441 1.57187152 -0.154645532 0.0295918938 1.57219625 -0.159713715 0.0351767316 1.57540298 -0.158696935 0.0363904685 1.57422161 -0.153534681 0.0309114903 1.57506442 -0.158508256 0.0366826616 1.57336617 -0.159580573 0.0376692675 1.57321572 -0.158908263 0.0362048969 1.57208383 -0.159580573 0.0376692675 1.57321572 -0.160276651 0.0368372947 1.57165635 -0.158908263 0.0362048969 1.57208383 -0.160311908 0.0345337614 1.57564831 -0.160502225 0.0365800299 1.57576025 -0.159398139 0.0356197506 1.57562006 -0.158908263 0.0362048969 1.57208383 -0.160276651 0.0368372947 1.57165635 -0.15984413 0.0350918509 1.57152009 -0.159398139 0.0356197506 1.57562006 -0.160502225 0.0365800299 1.57576025 -0.158682987 0.0364825577 1.57475615 -0.160502225 0.0365800299 1.57576025 -0.159700617 0.0375291966 1.57455945 -0.158682987 0.0364825577 1.57475615 -0.158682987 0.0364825577 1.57475615 -0.159700617 0.0375291966 1.57455945 -0.158508256 0.0366826616 1.57336617 -0.159700617 0.0375291966 1.57455945 -0.159580573 0.0376692675 1.57321572 -0.158508256 0.0366826616 1.57336617 -0.157995284 0.0372985862 1.57463932 -0.157941982 0.0373670608 1.57293081 -0.159035847 0.0383301191 1.57335651 -0.157995284 0.0372985862 1.57463932 -0.159035847 0.0383301191 1.57335651 -0.159390748 0.0379074551 1.57536721 -0.158702835 0.0364578366 1.57108402 -0.161209464 0.0357520394 1.5706706 -0.159780249 0.0374654904 1.57122529 -0.158702835 0.0364578366 1.57108402 -0.160190657 0.0346865691 1.57060742 -0.161209464 0.0357520394 1.5706706 -0.15870063 0.0364541747 1.57613873 -0.157995284 0.0372985862 1.57463932 -0.159390748 0.0379074551 1.57536721 -0.15870063 0.0364541747 1.57613873 -0.159390748 0.0379074551 1.57536721 -0.160335183 0.0367629044 1.57646978 -0.159859329 0.0350781381 1.57669473 -0.15870063 0.0364541747 1.57613873 -0.160335183 0.0367629044 1.57646978 -0.159859329 0.0350781381 1.57669473 -0.160335183 0.0367629044 1.57646978 -0.161625445 0.0352403782 1.57648981 -0.157941982 0.0373670608 1.57293081 -0.158702835 0.0364578366 1.57108402 -0.159780249 0.0374654904 1.57122529 -0.157941982 0.0373670608 1.57293081 -0.159780249 0.0374654904 1.57122529 -0.159035847 0.0383301191 1.57335651 -0.154018074 0.0272342172 1.57136834 -0.155736744 0.0252989344 1.56491673 -0.154067293 0.0272583682 1.5648849 -0.154018074 0.0272342172 1.57136834 -0.157168657 0.0235882271 1.56586719 -0.155736744 0.0252989344 1.56491673 -0.158202633 0.022370955 1.56831968 -0.157168657 0.0235882271 1.56586719 -0.154018074 0.0272342172 1.57136834 -0.158233613 0.0222942512 1.57136655 -0.158202633 0.022370955 1.56831968 -0.154018074 0.0272342172 1.57136834 -0.158252686 0.0223189965 1.58237255 -0.158229157 0.0222946554 1.57591033 -0.154007748 0.0272515062 1.57587898 -0.158252686 0.0223189965 1.58237255 -0.154007748 0.0272515062 1.57587898 -0.154044852 0.0272634104 1.58238232 -0.151109248 0.0307008661 1.57136333 -0.151150852 0.0307341032 1.56487989 -0.148986369 0.0333873965 1.5650183 -0.151109248 0.0307008661 1.57136333 -0.148986369 0.0333873965 1.5650183 -0.147578388 0.034984 1.56670201 -0.151109248 0.0307008661 1.57136333 -0.147578388 0.034984 1.56670201 -0.147025257 0.0356861465 1.56867933 -0.151109248 0.0307008661 1.57136333 -0.147025257 0.0356861465 1.56867933 -0.146976098 0.0357118882 1.57134688 -0.151122198 0.0307427272 1.58237636 -0.151121557 0.0306938775 1.57587039 -0.146967828 0.035712976 1.57589483 -0.151122198 0.0307427272 1.58237636 -0.146967828 0.035712976 1.57589483 -0.146994606 0.0357620604 1.58235443 -0.159485415 0.0232796166 1.57363987 -0.158202633 0.022370955 1.56831968 -0.158233613 0.0222942512 1.57136655 -0.159485415 0.0232796166 1.57363987 -0.165440872 0.0282991491 1.56807578 -0.158202633 0.022370955 1.56831968 -0.165487304 0.0281694531 1.58255672 -0.165440872 0.0282991491 1.56807578 -0.159485415 0.0232796166 1.57363987 -0.158229157 0.0222946554 1.57591033 -0.165487304 0.0281694531 1.58255672 -0.159485415 0.0232796166 1.57363987 -0.158252686 0.0223189965 1.58237255 -0.165487304 0.0281694531 1.58255672 -0.158229157 0.0222946554 1.57591033 -0.148159489 0.0367686301 1.5736202 -0.146976098 0.0357118882 1.57134688 -0.147025257 0.0356861465 1.56867933 -0.15407151 0.0418384261 1.56872761 -0.148159489 0.0367686301 1.5736202 -0.147025257 0.0356861465 1.56867933 -0.154006526 0.0418531336 1.58253682 -0.146967828 0.035712976 1.57589483 -0.148159489 0.0367686301 1.5736202 -0.154006526 0.0418531336 1.58253682 -0.146994606 0.0357620604 1.58235443 -0.146967828 0.035712976 1.57589483 -0.154006526 0.0418531336 1.58253682 -0.148159489 0.0367686301 1.5736202 -0.15407151 0.0418384261 1.56872761 -0.154018074 0.0272342172 1.57136834 -0.154067293 0.0272583682 1.5648849 -0.153831303 0.0300216936 1.56482601 -0.153764963 0.0299788658 1.57362998 -0.154018074 0.0272342172 1.57136834 -0.153831303 0.0300216936 1.56482601 -0.153808013 0.0300278328 1.58243358 -0.154044852 0.0272634104 1.58238232 -0.154007748 0.0272515062 1.57587898 -0.153808013 0.0300278328 1.58243358 -0.154007748 0.0272515062 1.57587898 -0.153764963 0.0299788658 1.57362998 -0.151109248 0.0307008661 1.57136333 -0.153764963 0.0299788658 1.57362998 -0.153831303 0.0300216936 1.56482601 -0.151109248 0.0307008661 1.57136333 -0.153831303 0.0300216936 1.56482601 -0.151150852 0.0307341032 1.56487989 -0.153808013 0.0300278328 1.58243358 -0.153764963 0.0299788658 1.57362998 -0.151121557 0.0306938775 1.57587039 -0.151122198 0.0307427272 1.58237636 -0.153808013 0.0300278328 1.58243358 -0.151121557 0.0306938775 1.57587039 -0.154006526 0.0418531336 1.58253682 -0.151122198 0.0307427272 1.58237636 -0.146994606 0.0357620604 1.58235443 -0.153808013 0.0300278328 1.58243358 -0.151122198 0.0307427272 1.58237636 -0.154006526 0.0418531336 1.58253682 -0.165487304 0.0281694531 1.58255672 -0.154044852 0.0272634104 1.58238232 -0.153808013 0.0300278328 1.58243358 -0.165487304 0.0281694531 1.58255672 -0.158252686 0.0223189965 1.58237255 -0.154044852 0.0272634104 1.58238232 -0.165487304 0.0281694531 1.58255672 -0.153808013 0.0300278328 1.58243358 -0.154006526 0.0418531336 1.58253682 -0.153831303 0.0300216936 1.56482601 -0.162840992 0.0314073637 1.56474257 -0.156371102 0.0391238332 1.56481171 -0.153831303 0.0300216936 1.56482601 -0.156371102 0.0391238332 1.56481171 -0.148986369 0.0333873965 1.5650183 -0.153831303 0.0300216936 1.56482601 -0.148986369 0.0333873965 1.5650183 -0.151150852 0.0307341032 1.56487989 -0.155736744 0.0252989344 1.56491673 -0.153831303 0.0300216936 1.56482601 -0.154067293 0.0272583682 1.5648849 -0.155736744 0.0252989344 1.56491673 -0.162840992 0.0314073637 1.56474257 -0.153831303 0.0300216936 1.56482601 -0.157995284 0.0372985862 1.57463932 -0.158068284 0.0371285453 1.57669508 -0.157288983 0.0380866453 1.57437909 -0.157995284 0.0372985862 1.57463932 -0.15870063 0.0364541747 1.57613873 -0.158068284 0.0371285453 1.57669508 -0.165440872 0.0282991491 1.56807578 -0.164636508 0.0293216296 1.57439494 -0.164641574 0.0293174628 1.57289183 -0.161227882 0.0333833322 1.57026434 -0.161492497 0.033136934 1.5718416 -0.160190657 0.0346865691 1.57060742 -0.156371102 0.0391238332 1.56481171 -0.155158341 0.0406154208 1.56793988 -0.15474844 0.041055534 1.56643701 -0.164629698 0.0293183587 1.58113873 -0.165487304 0.0281694531 1.58255672 -0.160295531 0.0344855525 1.58113539 -0.156371102 0.0391238332 1.56481171 -0.156634212 0.0388667062 1.5661937 -0.155158341 0.0406154208 1.56793988 -0.164636508 0.0293216296 1.57439494 -0.165487304 0.0281694531 1.58255672 -0.164629698 0.0293183587 1.58113873 -0.165440872 0.0282991491 1.56807578 -0.165487304 0.0281694531 1.58255672 -0.164636508 0.0293216296 1.57439494 -0.165487304 0.0281694531 1.58255672 -0.154006526 0.0418531336 1.58253682 -0.160295531 0.0344855525 1.58113539 -0.160295531 0.0344855525 1.58113539 -0.154006526 0.0418531336 1.58253682 -0.159324497 0.035641782 1.58113468 -0.154993847 0.0408020988 1.58112705 -0.154006526 0.0418531336 1.58253682 -0.155001551 0.0408040211 1.57438195 -0.155001551 0.0408040211 1.57438195 -0.154006526 0.0418531336 1.58253682 -0.15407151 0.0418384261 1.56872761 -0.15474844 0.041055534 1.56643701 -0.155158341 0.0406154208 1.56793988 -0.15407151 0.0418384261 1.56872761 -0.161227882 0.0333833322 1.57026434 -0.162032515 0.0324161053 1.57158422 -0.161492497 0.033136934 1.5718416 -0.164215118 0.0297697894 1.56554198 -0.164562225 0.0294167921 1.56831861 -0.163260117 0.0309592541 1.56628752 -0.155158341 0.0406154208 1.56793988 -0.155006707 0.0408000164 1.57287943 -0.15407151 0.0418384261 1.56872761 -0.156371102 0.0391238332 1.56481171 -0.159347445 0.0356362946 1.5661391 -0.156634212 0.0388667062 1.5661937 -0.164215118 0.0297697894 1.56554198 -0.165440872 0.0282991491 1.56807578 -0.164562225 0.0294167921 1.56831861 -0.159859329 0.0350781381 1.57669473 -0.158068284 0.0371285453 1.57669508 -0.15870063 0.0364541747 1.57613873 -0.162032515 0.0324161053 1.57158422 -0.162340522 0.0320521519 1.57290804 -0.161492497 0.033136934 1.5718416 -0.159859329 0.0350781381 1.57669473 -0.159343913 0.0356198512 1.57755625 -0.158068284 0.0371285453 1.57669508 -0.161492497 0.033136934 1.5718416 -0.162340522 0.0320521519 1.57290804 -0.161803514 0.0327585749 1.57398784 -0.156371102 0.0391238332 1.56481171 -0.160314038 0.0344848782 1.56614566 -0.159347445 0.0356362946 1.5661391 -0.155006707 0.0408000164 1.57287943 -0.155001551 0.0408040211 1.57438195 -0.15407151 0.0418384261 1.56872761 -0.162340522 0.0320521519 1.57290804 -0.162338644 0.0320529453 1.57437503 -0.161803514 0.0327585749 1.57398784 -0.159859329 0.0350781381 1.57669473 -0.160283744 0.0344967283 1.57756126 -0.159343913 0.0356198512 1.57755625 -0.161183685 0.0334955528 1.57596409 -0.161132395 0.0334809944 1.57708454 -0.159859329 0.0350781381 1.57669473 -0.159859329 0.0350781381 1.57669473 -0.161132395 0.0334809944 1.57708454 -0.160283744 0.0344967283 1.57756126 -0.162338644 0.0320529453 1.57437503 -0.161984891 0.0324732102 1.57582629 -0.161803514 0.0327585749 1.57398784 -0.156371102 0.0391238332 1.56481171 -0.162840992 0.0314073637 1.56474257 -0.160314038 0.0344848782 1.56614566 -0.160314038 0.0344848782 1.56614566 -0.159352213 0.0356187411 1.56971335 -0.159347445 0.0356362946 1.5661391 -0.155006707 0.0408000164 1.57287943 -0.157297477 0.0380629748 1.57289946 -0.155001551 0.0408040211 1.57438195 -0.161803514 0.0327585749 1.57398784 -0.161984891 0.0324732102 1.57582629 -0.161183685 0.0334955528 1.57596409 -0.158498153 0.0366302542 1.57018995 -0.158702835 0.0364578366 1.57108402 -0.157651991 0.0376432762 1.57144809 -0.161183685 0.0334955528 1.57596409 -0.161984891 0.0324732102 1.57582629 -0.161132395 0.0334809944 1.57708454 -0.154993847 0.0408020988 1.58112705 -0.159324497 0.035641782 1.58113468 -0.154006526 0.0418531336 1.58253682 -0.162340522 0.0320521519 1.57290804 -0.164641574 0.0293174628 1.57289183 -0.162338644 0.0320529453 1.57437503 -0.158702835 0.0364578366 1.57108402 -0.157941982 0.0373670608 1.57293081 -0.157651991 0.0376432762 1.57144809 -0.165440872 0.0282991491 1.56807578 -0.164641574 0.0293174628 1.57289183 -0.164562225 0.0294167921 1.56831861 -0.159352213 0.0356187411 1.56971335 -0.158702835 0.0364578366 1.57108402 -0.158498153 0.0366302542 1.57018995 -0.157651991 0.0376432762 1.57144809 -0.157941982 0.0373670608 1.57293081 -0.157297477 0.0380629748 1.57289946 -0.162840992 0.0314073637 1.56474257 -0.163260117 0.0309592541 1.56628752 -0.160314038 0.0344848782 1.56614566 -0.159352213 0.0356187411 1.56971335 -0.160190657 0.0346865691 1.57060742 -0.158702835 0.0364578366 1.57108402 -0.160283744 0.0344967283 1.57756126 -0.160295531 0.0344855525 1.58113539 -0.159343913 0.0356198512 1.57755625 -0.160314038 0.0344848782 1.56614566 -0.16029489 0.0344946422 1.56971478 -0.159352213 0.0356187411 1.56971335 -0.159343913 0.0356198512 1.57755625 -0.160295531 0.0344855525 1.58113539 -0.159324497 0.035641782 1.58113468 -0.157297477 0.0380629748 1.57289946 -0.157288983 0.0380866453 1.57437909 -0.155001551 0.0408040211 1.57438195 -0.157297477 0.0380629748 1.57289946 -0.157941982 0.0373670608 1.57293081 -0.157288983 0.0380866453 1.57437909 -0.16029489 0.0344946422 1.56971478 -0.160190657 0.0346865691 1.57060742 -0.159352213 0.0356187411 1.56971335 -0.164641574 0.0293174628 1.57289183 -0.164636508 0.0293216296 1.57439494 -0.162338644 0.0320529453 1.57437503 -0.157941982 0.0373670608 1.57293081 -0.157995284 0.0372985862 1.57463932 -0.157288983 0.0380866453 1.57437909 -0.164215118 0.0297697894 1.56554198 -0.163260117 0.0309592541 1.56628752 -0.162840992 0.0314073637 1.56474257 -0.161227882 0.0333833322 1.57026434 -0.160190657 0.0346865691 1.57060742 -0.16029489 0.0344946422 1.56971478 -0.165440872 0.0282991491 1.56807578 -0.164215118 0.0297697894 1.56554198 -0.157168657 0.0235882271 1.56586719 -0.165440872 0.0282991491 1.56807578 -0.157168657 0.0235882271 1.56586719 -0.158202633 0.022370955 1.56831968 -0.164215118 0.0297697894 1.56554198 -0.155736744 0.0252989344 1.56491673 -0.157168657 0.0235882271 1.56586719 -0.164215118 0.0297697894 1.56554198 -0.162840992 0.0314073637 1.56474257 -0.155736744 0.0252989344 1.56491673 -0.15474844 0.041055534 1.56643701 -0.147578388 0.034984 1.56670201 -0.148986369 0.0333873965 1.5650183 -0.156371102 0.0391238332 1.56481171 -0.15474844 0.041055534 1.56643701 -0.148986369 0.0333873965 1.5650183 -0.15407151 0.0418384261 1.56872761 -0.147025257 0.0356861465 1.56867933 -0.147578388 0.034984 1.56670201 -0.15474844 0.041055534 1.56643701 -0.15407151 0.0418384261 1.56872761 -0.147578388 0.034984 1.56670201 -0.164636508 0.0293216296 1.57439494 -0.158432394 0.0243336428 1.58096528 -0.158439711 0.0243332367 1.57455778 -0.164629698 0.0293183587 1.58113873 -0.158432394 0.0243336428 1.58096528 -0.164636508 0.0293216296 1.57439494 -0.162338644 0.0320529453 1.57437503 -0.158439711 0.0243332367 1.57455778 -0.156366557 0.0267913919 1.57459342 -0.164636508 0.0293216296 1.57439494 -0.158439711 0.0243332367 1.57455778 -0.162338644 0.0320529453 1.57437503 -0.154309288 0.0292493962 1.57770634 -0.160283744 0.0344967283 1.57756126 -0.161132395 0.0334809944 1.57708454 -0.155433193 0.027891526 1.57691944 -0.154309288 0.0292493962 1.57770634 -0.161132395 0.0334809944 1.57708454 -0.155433193 0.027891526 1.57691944 -0.161132395 0.0334809944 1.57708454 -0.161984891 0.0324732102 1.57582629 -0.156366557 0.0267913919 1.57459342 -0.155433193 0.027891526 1.57691944 -0.161984891 0.0324732102 1.57582629 -0.156366557 0.0267913919 1.57459342 -0.161984891 0.0324732102 1.57582629 -0.162338644 0.0320529453 1.57437503 -0.154308006 0.029249439 1.58095837 -0.160283744 0.0344967283 1.57756126 -0.154309288 0.0292493962 1.57770634 -0.154308006 0.029249439 1.58095837 -0.160295531 0.0344855525 1.58113539 -0.160283744 0.0344967283 1.57756126 -0.158432394 0.0243336428 1.58096528 -0.164629698 0.0293183587 1.58113873 -0.154308006 0.029249439 1.58095837 -0.154308006 0.029249439 1.58095837 -0.164629698 0.0293183587 1.58113873 -0.160295531 0.0344855525 1.58113539 -0.155433193 0.027891526 1.57691944 -0.154308006 0.029249439 1.58095837 -0.154309288 0.0292493962 1.57770634 -0.158432394 0.0243336428 1.58096528 -0.154308006 0.029249439 1.58095837 -0.155433193 0.027891526 1.57691944 -0.158439711 0.0243332367 1.57455778 -0.155433193 0.027891526 1.57691944 -0.156366557 0.0267913919 1.57459342 -0.158439711 0.0243332367 1.57455778 -0.158432394 0.0243336428 1.58096528 -0.155433193 0.027891526 1.57691944 -0.149005994 0.0355691537 1.58094978 -0.159324497 0.035641782 1.58113468 -0.154993847 0.0408020988 1.58112705 -0.153129891 0.0306530241 1.5809561 -0.159324497 0.035641782 1.58113468 -0.149005994 0.0355691537 1.58094978 -0.159343913 0.0356198512 1.57755625 -0.153129891 0.0306530241 1.5809561 -0.153138667 0.0306470226 1.57770216 -0.159324497 0.035641782 1.58113468 -0.153129891 0.0306530241 1.5809561 -0.159343913 0.0356198512 1.57755625 -0.151750222 0.0322684385 1.57666993 -0.157288983 0.0380866453 1.57437909 -0.158068284 0.0371285453 1.57669508 -0.151750222 0.0322684385 1.57666993 -0.151109636 0.0330697745 1.57453549 -0.157288983 0.0380866453 1.57437909 -0.153138667 0.0306470226 1.57770216 -0.158068284 0.0371285453 1.57669508 -0.159343913 0.0356198512 1.57755625 -0.153138667 0.0306470226 1.57770216 -0.151750222 0.0322684385 1.57666993 -0.158068284 0.0371285453 1.57669508 -0.157288983 0.0380866453 1.57437909 -0.149015412 0.0355665348 1.57454193 -0.155001551 0.0408040211 1.57438195 -0.157288983 0.0380866453 1.57437909 -0.151109636 0.0330697745 1.57453549 -0.149015412 0.0355665348 1.57454193 -0.149005994 0.0355691537 1.58094978 -0.155001551 0.0408040211 1.57438195 -0.149015412 0.0355665348 1.57454193 -0.149005994 0.0355691537 1.58094978 -0.154993847 0.0408020988 1.58112705 -0.155001551 0.0408040211 1.57438195 -0.151750222 0.0322684385 1.57666993 -0.153129891 0.0306530241 1.5809561 -0.149005994 0.0355691537 1.58094978 -0.151750222 0.0322684385 1.57666993 -0.149005994 0.0355691537 1.58094978 -0.149015412 0.0355665348 1.57454193 -0.153138667 0.0306470226 1.57770216 -0.153129891 0.0306530241 1.5809561 -0.151750222 0.0322684385 1.57666993 -0.151109636 0.0330697745 1.57453549 -0.151750222 0.0322684385 1.57666993 -0.149015412 0.0355665348 1.57454193 -0.149138644 0.0354107507 1.56817961 -0.155158341 0.0406154208 1.56793988 -0.150459826 0.0338405222 1.56639576 -0.155158341 0.0406154208 1.56793988 -0.156634212 0.0388667062 1.5661937 -0.150459826 0.0338405222 1.56639576 -0.149018466 0.0355667248 1.57270193 -0.155158341 0.0406154208 1.56793988 -0.149138644 0.0354107507 1.56817961 -0.149018466 0.0355667248 1.57270193 -0.155006707 0.0408000164 1.57287943 -0.155158341 0.0406154208 1.56793988 -0.149018466 0.0355667248 1.57270193 -0.157297477 0.0380629748 1.57289946 -0.155006707 0.0408000164 1.57287943 -0.15107888 0.0330955535 1.57266629 -0.157297477 0.0380629748 1.57289946 -0.149018466 0.0355667248 1.57270193 -0.153146416 0.0306463558 1.56955338 -0.159352213 0.0356187411 1.56971335 -0.158498153 0.0366302542 1.57018995 -0.152002186 0.0319877528 1.57034004 -0.153146416 0.0306463558 1.56955338 -0.158498153 0.0366302542 1.57018995 -0.152002186 0.0319877528 1.57034004 -0.158498153 0.0366302542 1.57018995 -0.157651991 0.0376432762 1.57144809 -0.15107888 0.0330955535 1.57266629 -0.152002186 0.0319877528 1.57034004 -0.157651991 0.0376432762 1.57144809 -0.15107888 0.0330955535 1.57266629 -0.157651991 0.0376432762 1.57144809 -0.157297477 0.0380629748 1.57289946 -0.159352213 0.0356187411 1.56971335 -0.153151199 0.0306498501 1.56630063 -0.159347445 0.0356362946 1.5661391 -0.159352213 0.0356187411 1.56971335 -0.153146416 0.0306463558 1.56955338 -0.153151199 0.0306498501 1.56630063 -0.156634212 0.0388667062 1.5661937 -0.153151199 0.0306498501 1.56630063 -0.150459826 0.0338405222 1.56639576 -0.159347445 0.0356362946 1.5661391 -0.153151199 0.0306498501 1.56630063 -0.156634212 0.0388667062 1.5661937 -0.15107888 0.0330955535 1.57266629 -0.149018466 0.0355667248 1.57270193 -0.149138644 0.0354107507 1.56817961 -0.152002186 0.0319877528 1.57034004 -0.15107888 0.0330955535 1.57266629 -0.149138644 0.0354107507 1.56817961 -0.150459826 0.0338405222 1.56639576 -0.152002186 0.0319877528 1.57034004 -0.149138644 0.0354107507 1.56817961 -0.150459826 0.0338405222 1.56639576 -0.153146416 0.0306463558 1.56955338 -0.152002186 0.0319877528 1.57034004 -0.153151199 0.0306498501 1.56630063 -0.153146416 0.0306463558 1.56955338 -0.150459826 0.0338405222 1.56639576 -0.157962933 0.0248664133 1.56746817 -0.164562225 0.0294167921 1.56831861 -0.158429265 0.0243439917 1.56905663 -0.156901315 0.0261715613 1.56637192 -0.163260117 0.0309592541 1.56628752 -0.157962933 0.0248664133 1.56746817 -0.163260117 0.0309592541 1.56628752 -0.164562225 0.0294167921 1.56831861 -0.157962933 0.0248664133 1.56746817 -0.163260117 0.0309592541 1.56628752 -0.154329121 0.0292468648 1.56630397 -0.160314038 0.0344848782 1.56614566 -0.163260117 0.0309592541 1.56628752 -0.156901315 0.0261715613 1.56637192 -0.154329121 0.0292468648 1.56630397 -0.154329121 0.0292468648 1.56630397 -0.16029489 0.0344946422 1.56971478 -0.160314038 0.0344848782 1.56614566 -0.154345006 0.0292076729 1.56951582 -0.16029489 0.0344946422 1.56971478 -0.154329121 0.0292468648 1.56630397 -0.15634875 0.026825387 1.572721 -0.162340522 0.0320521519 1.57290804 -0.162032515 0.0324161053 1.57158422 -0.155833974 0.0274202656 1.5709579 -0.15634875 0.026825387 1.572721 -0.162032515 0.0324161053 1.57158422 -0.155833974 0.0274202656 1.5709579 -0.162032515 0.0324161053 1.57158422 -0.161227882 0.0333833322 1.57026434 -0.154345006 0.0292076729 1.56951582 -0.155833974 0.0274202656 1.5709579 -0.161227882 0.0333833322 1.57026434 -0.154345006 0.0292076729 1.56951582 -0.161227882 0.0333833322 1.57026434 -0.16029489 0.0344946422 1.56971478 -0.158444047 0.024332555 1.57271802 -0.162340522 0.0320521519 1.57290804 -0.15634875 0.026825387 1.572721 -0.158444047 0.024332555 1.57271802 -0.164641574 0.0293174628 1.57289183 -0.162340522 0.0320521519 1.57290804 -0.164562225 0.0294167921 1.56831861 -0.158444047 0.024332555 1.57271802 -0.158429265 0.0243439917 1.56905663 -0.164641574 0.0293174628 1.57289183 -0.158444047 0.024332555 1.57271802 -0.164562225 0.0294167921 1.56831861 -0.156901315 0.0261715613 1.56637192 -0.155833974 0.0274202656 1.5709579 -0.154345006 0.0292076729 1.56951582 -0.156901315 0.0261715613 1.56637192 -0.154345006 0.0292076729 1.56951582 -0.154329121 0.0292468648 1.56630397 -0.158429265 0.0243439917 1.56905663 -0.15634875 0.026825387 1.572721 -0.155833974 0.0274202656 1.5709579 -0.158429265 0.0243439917 1.56905663 -0.158444047 0.024332555 1.57271802 -0.15634875 0.026825387 1.572721 -0.157962933 0.0248664133 1.56746817 -0.158429265 0.0243439917 1.56905663 -0.155833974 0.0274202656 1.5709579 -0.157962933 0.0248664133 1.56746817 -0.155833974 0.0274202656 1.5709579 -0.156901315 0.0261715613 1.56637192 -0.160502225 0.0365800299 1.57576025 -0.159390748 0.0379074551 1.57536721 -0.159700617 0.0375291966 1.57455945 -0.159700617 0.0375291966 1.57455945 -0.159390748 0.0379074551 1.57536721 -0.159035847 0.0383301191 1.57335651 -0.160502225 0.0365800299 1.57576025 -0.160335183 0.0367629044 1.57646978 -0.159390748 0.0379074551 1.57536721 -0.159580573 0.0376692675 1.57321572 -0.159700617 0.0375291966 1.57455945 -0.159035847 0.0383301191 1.57335651 -0.160502225 0.0365800299 1.57576025 -0.161625445 0.0352403782 1.57648981 -0.160335183 0.0367629044 1.57646978 -0.161595464 0.0352671184 1.57557333 -0.161625445 0.0352403782 1.57648981 -0.160502225 0.0365800299 1.57576025 -0.159580573 0.0376692675 1.57321572 -0.159035847 0.0383301191 1.57335651 -0.159780249 0.0374654904 1.57122529 -0.162255943 0.0344950669 1.5745548 -0.161625445 0.0352403782 1.57648981 -0.161595464 0.0352671184 1.57557333 -0.162469327 0.0342236049 1.57546198 -0.161625445 0.0352403782 1.57648981 -0.162255943 0.0344950669 1.5745548 -0.160276651 0.0368372947 1.57165635 -0.159580573 0.0376692675 1.57321572 -0.159780249 0.0374654904 1.57122529 -0.162899509 0.0337293409 1.57399714 -0.162469327 0.0342236049 1.57546198 -0.162255943 0.0344950669 1.5745548 -0.161209464 0.0357520394 1.5706706 -0.161502182 0.0353891253 1.57162035 -0.160276651 0.0368372947 1.57165635 -0.161209464 0.0357520394 1.5706706 -0.160276651 0.0368372947 1.57165635 -0.159780249 0.0374654904 1.57122529 -0.162899509 0.0337293409 1.57399714 -0.162255943 0.0344950669 1.5745548 -0.162270725 0.0344374701 1.57281649 -0.162468895 0.0342268348 1.57168591 -0.162899509 0.0337293409 1.57399714 -0.162270725 0.0344374701 1.57281649 -0.161209464 0.0357520394 1.5706706 -0.162270725 0.0344374701 1.57281649 -0.161502182 0.0353891253 1.57162035 -0.162468895 0.0342268348 1.57168591 -0.162270725 0.0344374701 1.57281649 -0.161209464 0.0357520394 1.5706706 -0.161492497 0.033136934 1.5718416 -0.161803514 0.0327585749 1.57398784 -0.162899509 0.0337293409 1.57399714 -0.161492497 0.033136934 1.5718416 -0.162899509 0.0337293409 1.57399714 -0.162468895 0.0342268348 1.57168591 -0.161183685 0.0334955528 1.57596409 -0.159859329 0.0350781381 1.57669473 -0.161625445 0.0352403782 1.57648981 -0.160190657 0.0346865691 1.57060742 -0.161492497 0.033136934 1.5718416 -0.162468895 0.0342268348 1.57168591 -0.161183685 0.0334955528 1.57596409 -0.161625445 0.0352403782 1.57648981 -0.162469327 0.0342236049 1.57546198 -0.160190657 0.0346865691 1.57060742 -0.162468895 0.0342268348 1.57168591 -0.161209464 0.0357520394 1.5706706 -0.161183685 0.0334955528 1.57596409 -0.162469327 0.0342236049 1.57546198 -0.162899509 0.0337293409 1.57399714 -0.161803514 0.0327585749 1.57398784 -0.161183685 0.0334955528 1.57596409 -0.162899509 0.0337293409 1.57399714 -0.161223829 0.0334256478 1.57407546 -0.162255943 0.0344950669 1.5745548 -0.160311908 0.0345337614 1.57564831 -0.160276651 0.0368372947 1.57165635 -0.161502182 0.0353891253 1.57162035 -0.15984413 0.0350918509 1.57152009 -0.162255943 0.0344950669 1.5745548 -0.161595464 0.0352671184 1.57557333 -0.160311908 0.0345337614 1.57564831 -0.15984413 0.0350918509 1.57152009 -0.161502182 0.0353891253 1.57162035 -0.160780862 0.0339732133 1.57207119 -0.161595464 0.0352671184 1.57557333 -0.160502225 0.0365800299 1.57576025 -0.160311908 0.0345337614 1.57564831 -0.161502182 0.0353891253 1.57162035 -0.162270725 0.0344374701 1.57281649 -0.160780862 0.0339732133 1.57207119 -0.160780862 0.0339732133 1.57207119 -0.162270725 0.0344374701 1.57281649 -0.161223829 0.0334256478 1.57407546 -0.162270725 0.0344374701 1.57281649 -0.162255943 0.0344950669 1.5745548 -0.161223829 0.0334256478 1.57407546 -0.154645532 0.0295918938 1.57219625 -0.160936445 0.0337231532 1.57305276 -0.155069187 0.0290826131 1.57454967 -0.160936445 0.0337231532 1.57305276 -0.160650566 0.0340647139 1.57485032 -0.155069187 0.0290826131 1.57454967 -0.160650566 0.0340647139 1.57485032 -0.159713715 0.0351767316 1.57540298 -0.155069187 0.0290826131 1.57454967 -0.155069187 0.0290826131 1.57454967 -0.159713715 0.0351767316 1.57540298 -0.153534681 0.0309114903 1.57506442 -0.159919396 0.0349366441 1.57187152 -0.160936445 0.0337231532 1.57305276 -0.154645532 0.0295918938 1.57219625 -0.158696935 0.0363904685 1.57422161 -0.158682987 0.0364825577 1.57475615 -0.158508256 0.0366826616 1.57336617 -0.160650566 0.0340647139 1.57485032 -0.161223829 0.0334256478 1.57407546 -0.160311908 0.0345337614 1.57564831 -0.159713715 0.0351767316 1.57540298 -0.160311908 0.0345337614 1.57564831 -0.159398139 0.0356197506 1.57562006 -0.15984413 0.0350918509 1.57152009 -0.158986181 0.0360517427 1.57242417 -0.158908263 0.0362048969 1.57208383 -0.160780862 0.0339732133 1.57207119 -0.160936445 0.0337231532 1.57305276 -0.159919396 0.0349366441 1.57187152 -0.158986181 0.0360517427 1.57242417 -0.158696935 0.0363904685 1.57422161 -0.158908263 0.0362048969 1.57208383 -0.158908263 0.0362048969 1.57208383 -0.158696935 0.0363904685 1.57422161 -0.158508256 0.0366826616 1.57336617 -0.15984413 0.0350918509 1.57152009 -0.159919396 0.0349366441 1.57187152 -0.158986181 0.0360517427 1.57242417 -0.158696935 0.0363904685 1.57422161 -0.159398139 0.0356197506 1.57562006 -0.158682987 0.0364825577 1.57475615 -0.158696935 0.0363904685 1.57422161 -0.159713715 0.0351767316 1.57540298 -0.159398139 0.0356197506 1.57562006 -0.160780862 0.0339732133 1.57207119 -0.161223829 0.0334256478 1.57407546 -0.160936445 0.0337231532 1.57305276 -0.15984413 0.0350918509 1.57152009 -0.160780862 0.0339732133 1.57207119 -0.159919396 0.0349366441 1.57187152 -0.160936445 0.0337231532 1.57305276 -0.161223829 0.0334256478 1.57407546 -0.160650566 0.0340647139 1.57485032 -0.160650566 0.0340647139 1.57485032 -0.160311908 0.0345337614 1.57564831 -0.159713715 0.0351767316 1.57540298 -0.154645532 0.0295918938 1.57219625 -0.155069187 0.0290826131 1.57454967 -0.153534681 0.0309114903 1.57506442 -0.154645532 0.0295918938 1.57219625 -0.153534681 0.0309114903 1.57506442 -0.153110147 0.0314200521 1.57271111 -0.151121557 0.0306938775 1.57587039 -0.153764963 0.0299788658 1.57362998 -0.148159489 0.0367686301 1.5736202 -0.151121557 0.0306938775 1.57587039 -0.148159489 0.0367686301 1.5736202 -0.146967828 0.035712976 1.57589483 -0.151109248 0.0307008661 1.57136333 -0.146976098 0.0357118882 1.57134688 -0.148159489 0.0367686301 1.5736202 -0.153764963 0.0299788658 1.57362998 -0.151109248 0.0307008661 1.57136333 -0.148159489 0.0367686301 1.5736202 -0.159485415 0.0232796166 1.57363987 -0.158233613 0.0222942512 1.57136655 -0.154018074 0.0272342172 1.57136834 -0.159485415 0.0232796166 1.57363987 -0.154018074 0.0272342172 1.57136834 -0.153764963 0.0299788658 1.57362998 -0.159485415 0.0232796166 1.57363987 -0.153764963 0.0299788658 1.57362998 -0.154007748 0.0272515062 1.57587898 -0.158229157 0.0222946554 1.57591033 -0.159485415 0.0232796166 1.57363987 -0.154007748 0.0272515062 1.57587898 </float_array>
          <technique_common>
            <accessor count="786" offset="0" source="#mesh_0-positions-array" stride="3">
              <param name="X" type="float" />
              <param name="Y" type="float" />
              <param name="Z" type="float" />
            </accessor>
          </technique_common>
        </source>
        <vertices id="mesh_0-vertices">
          <input semantic="POSITION" source="#mesh_0-positions" />
        </vertices>
        <polylist count="262" material="defaultMaterial">
          <input offset="0" semantic="VERTEX" source="#mesh_0-vertices" />
          <vcount>3 3 3 3 3 3 3 3 3 3 3 3 3 3 3 3 3 3 3 3 3 3 3 3 3 3 3 3 3 3 3 3 3 3 3 3 3 3 3 3 3 3 3 3 3 3 3 3 3 3 3 3 3 3 3 3 3 3 3 3 3 3 3 3 3 3 3 3 3 3 3 3 3 3 3 3 3 3 3 3 3 3 3 3 3 3 3 3 3 3 3 3 3 3 3 3 3 3 3 3 3 3 3 3 3 3 3 3 3 3 3 3 3 3 3 3 3 3 3 3 3 3 3 3 3 3 3 3 3 3 3 3 3 3 3 3 3 3 3 3 3 3 3 3 3 3 3 3 3 3 3 3 3 3 3 3 3 3 3 3 3 3 3 3 3 3 3 3 3 3 3 3 3 3 3 3 3 3 3 3 3 3 3 3 3 3 3 3 3 3 3 3 3 3 3 3 3 3 3 3 3 3 3 3 3 3 3 3 3 3 3 3 3 3 3 3 3 3 3 3 3 3 3 3 3 3 3 3 3 3 3 3 3 3 3 3 3 3 3 3 3 3 3 3 3 3 3 3 3 3 3 3 3 3 3 3 3 3 3 3 3 3 </vcount>
          <p>0 1 2 3 4 5 6 7 8 9 10 11 12 13 14 15 16 17 18 19 20 21 22 23 24 25 26 27 28 29 30 31 32 33 34 35 36 37 38 39 40 41 42 43 44 45 46 47 48 49 50 51 52 53 54 55 56 57 58 59 60 61 62 63 64 65 66 67 68 69 70 71 72 73 74 75 76 77 78 79 80 81 82 83 84 85 86 87 88 89 90 91 92 93 94 95 96 97 98 99 100 101 102 103 104 105 106 107 108 109 110 111 112 113 114 115 116 117 118 119 120 121 122 123 124 125 126 127 128 129 130 131 132 133 134 135 136 137 138 139 140 141 142 143 144 145 146 147 148 149 150 151 152 153 154 155 156 157 158 159 160 161 162 163 164 165 166 167 168 169 170 171 172 173 174 175 176 177 178 179 180 181 182 183 184 185 186 187 188 189 190 191 192 193 194 195 196 197 198 199 200 201 202 203 204 205 206 207 208 209 210 211 212 213 214 215 216 217 218 219 220 221 222 223 224 225 226 227 228 229 230 231 232 233 234 235 236 237 238 239 240 241 242 243 244 245 246 247 248 249 250 251 252 253 254 255 256 257 258 259 260 261 262 263 264 265 266 267 268 269 270 271 272 273 274 275 276 277 278 279 280 281 282 283 284 285 286 287 288 289 290 291 292 293 294 295 296 297 298 299 300 301 302 303 304 305 306 307 308 309 310 311 312 313 314 315 316 317 318 319 320 321 322 323 324 325 326 327 328 329 330 331 332 333 334 335 336 337 338 339 340 341 342 343 344 345 346 347 348 349 350 351 352 353 354 355 356 357 358 359 360 361 362 363 364 365 366 367 368 369 370 371 372 373 374 375 376 377 378 379 380 381 382 383 384 385 386 387 388 389 390 391 392 393 394 395 396 397 398 399 400 401 402 403 404 405 406 407 408 409 410 411 412 413 414 415 416 417 418 419 420 421 422 423 424 425 426 427 428 429 430 431 432 433 434 435 436 437 438 439 440 441 442 443 444 445 446 447 448 449 450 451 452 453 454 455 456 457 458 459 460 461 462 463 464 465 466 467 468 469 470 471 472 473 474 475 476 477 478 479 480 481 482 483 484 485 486 487 488 489 490 491 492 493 494 495 496 497 498 499 500 501 502 503 504 505 506 507 508 509 510 511 512 513 514 515 516 517 518 519 520 521 522 523 524 525 526 527 528 529 530 531 532 533 534 535 536 537 538 539 540 541 542 543 544 545 546 547 548 549 550 551 552 553 554 555 556 557 558 559 560 561 562 563 564 565 566 567 568 569 570 571 572 573 574 575 576 577 578 579 580 581 582 583 584 585 586 587 588 589 590 591 592 593 594 595 596 597 598 599 600 601 602 603 604 605 606 607 608 609 610 611 612 613 614 615 616 617 618 619 620 621 622 623 624 625 626 627 628 629 630 631 632 633 634 635 636 637 638 639 640 641 642 643 644 645 646 647 648 649 650 651 652 653 654 655 656 657 658 659 660 661 662 663 664 665 666 667 668 669 670 671 672 673 674 675 676 677 678 679 680 681 682 683 684 685 686 687 688 689 690 691 692 693 694 695 696 697 698 699 700 701 702 703 704 705 706 707 708 709 710 711 712 713 714 715 716 717 718 719 720 721 722 723 724 725 726 727 728 729 730 731 732 733 734 735 736 737 738 739 740 741 742 743 744 745 746 747 748 749 750 751 752 753 754 755 756 757 758 759 760 761 762 763 764 765 766 767 768 769 770 771 772 773 774 775 776 777 778 779 780 781 782 783 784 785 </p>
        </polylist>
      </mesh>
    </geometry>
  </library_geometries>
  <library_controllers>
  </library_controllers>
  <library_visual_scenes>
    <visual_scene id="Scene" name="Scene">
      <node id="node" name="" type="NODE">
        <matrix sid="matrix">1 0 0 0 0 1 0 0 0 0 1 0 0 0 0 1</matrix>
        <instance_geometry url="#mesh_0">
          <bind_material>
            <technique_common>
              <instance_material symbol="defaultMaterial" target="#material_0">
              </instance_material>
            </technique_common>
          </bind_material>
        </instance_geometry>
      </node>
    </visual_scene>
  </library_visual_scenes>
  <scene>
    <instance_visual_scene url="#Scene" />
  </scene>
</COLLADA>
