<?xml version="1.0" encoding="UTF-8" standalone="no" ?>
<COLLADA xmlns="http://www.collada.org/2005/11/COLLADASchema" version="1.4.1">
  <asset>
    <contributor>
      <author>Assimp</author>
      <authoring_tool>Assimp Exporter</authoring_tool>
    </contributor>
    <created>2026-04-22T16:09:43</created>
    <modified>2026-04-22T16:09:43</modified>
    <unit name="meter" meter="1" />
    <up_axis>Y_UP</up_axis>
  </asset>
  <library_images>
  </library_images>
  <library_effects>
    <effect id="material_0-fx" name="">
      <profile_COMMON>
        <technique sid="standard">
          <phong>
            <emission>
              <color sid="emission">0   0   0   1.80177653</color>
            </emission>
            <ambient>
              <color sid="ambient">0.734637678   0.655030191   0.691765368   1.40257168</color>
            </ambient>
            <diffuse>
              <color sid="diffuse">0.734637678   0.655030191   0.691765368   1.40257168</color>
            </diffuse>
            <specular>
              <color sid="specular">0.25   0.25   0.25   -0.531376243</color>
            </specular>
          </phong>
        </technique>
      </profile_COMMON>
    </effect>
  </library_effects>
  <library_materials>
    <material id="material_0" name="">
      <instance_effect url="#material_0-fx"/>
    </material>
  </library_materials>
  <library_geometries>
    <geometry id="mesh_0" name="" >
      <mesh>
        <source id="mesh_0-positions" name="mesh_0-positions">
          <float_array id="mesh_0-positions-array" count="1800"> 0.626484811 -0.190686226 1.61298704 0.753054619 -0.317826033 1.6138742 0.680068016 -0.265322059 1.67123234 0.781624913 -0.298077673 1.65538728 0.78365165 -0.299437076 1.62584352 0.725755453 -0.22165291 1.67632663 0.666798949 -0.170641914 1.68252873 0.725755453 -0.22165291 1.67632663 0.724790275 -0.220629856 1.67150605 0.758430004 -0.323082864 1.64716947 0.680967271 -0.266261786 1.67626739 0.758481205 -0.323898882 1.62550676 0.680967271 -0.266261786 1.67626739 0.680068016 -0.265322059 1.67123234 0.758481205 -0.323898882 1.62550676 0.622029364 -0.188811541 1.62079895 0.626484811 -0.190686226 1.61298704 0.680068016 -0.265322059 1.67123234 0.778879702 -0.295696646 1.67121148 0.725755453 -0.22165291 1.67632663 0.775788307 -0.292599231 1.67871177 0.724790275 -0.220629856 1.67150605 0.725755453 -0.22165291 1.67632663 0.78365165 -0.299437076 1.62584352 0.781624913 -0.298077673 1.65538728 0.725755453 -0.22165291 1.67632663 0.778879702 -0.295696646 1.67121148 0.760945559 -0.324447304 1.62590885 0.775570035 -0.316094339 1.67181218 0.775368989 -0.315937817 1.68670225 0.776084363 -0.311565131 1.69011414 0.776972532 -0.312715441 1.6864686 0.778879702 -0.295696646 1.67121148 0.661851585 -0.166691884 1.67224658 0.666798949 -0.170641914 1.68252873 0.724790275 -0.220629856 1.67150605 0.692264378 -0.193238467 1.6838572 0.725755453 -0.22165291 1.67632663 0.666798949 -0.170641914 1.68252873 0.636504292 -0.176878557 1.61146438 0.644671142 -0.167433143 1.61226416 0.647705853 -0.167843834 1.61174476 0.778381884 -0.294520438 1.61442471 0.777126729 -0.295785218 1.61231577 0.650087595 -0.166909888 1.61310387 0.75479269 -0.31935358 1.67192674 0.680967271 -0.266261786 1.67626739 0.758430004 -0.323082864 1.64716947 0.753054619 -0.317826033 1.6138742 0.755952835 -0.321396917 1.61904156 0.680068016 -0.265322059 1.67123234 0.755952835 -0.321396917 1.61904156 0.758481205 -0.323898882 1.62550676 0.680068016 -0.265322059 1.67123234 0.764042139 -0.322272927 1.62060106 0.775570035 -0.316094339 1.67181218 0.760945559 -0.324447304 1.62590885 0.620194793 -0.182728589 1.62274301 0.61876601 -0.186564863 1.63247263 0.619656742 -0.183140919 1.63154554 0.732821465 -0.276136845 1.70313871 0.652464926 -0.232671589 1.68378139 0.75796175 -0.303954154 1.70194221 0.621168792 -0.190951779 1.63410723 0.680068016 -0.265322059 1.67123234 0.626612127 -0.203180149 1.67391729 0.725755453 -0.22165291 1.67632663 0.763665855 -0.299126565 1.70210326 0.771842957 -0.28905189 1.68262124 0.778381884 -0.294520438 1.61442471 0.724790275 -0.220629856 1.67150605 0.78365165 -0.299437076 1.62584352 0.782728195 -0.303450733 1.62148178 0.783808351 -0.30171293 1.62820816 0.775570035 -0.316094339 1.67181218 0.776084363 -0.311565131 1.69011414 0.775788307 -0.292599231 1.67871177 0.766323805 -0.302380502 1.70138276 0.636504292 -0.176878557 1.61146438 0.647705853 -0.167843834 1.61174476 0.776636004 -0.298806787 1.61179328 0.776636004 -0.298806787 1.61179328 0.768127561 -0.307950795 1.61154592 0.636504292 -0.176878557 1.61146438 0.626946807 -0.186628357 1.61173177 0.636504292 -0.176878557 1.61146438 0.768127561 -0.307950795 1.61154592 0.768127561 -0.307950795 1.61154592 0.757556915 -0.317080885 1.61176014 0.626946807 -0.186628357 1.61173177 0.661851585 -0.166691884 1.67224658 0.724790275 -0.220629856 1.67150605 0.646864176 -0.160214499 1.62684619 0.758430004 -0.323082864 1.64716947 0.758481205 -0.323898882 1.62550676 0.760945559 -0.324447304 1.62590885 0.75796175 -0.303954154 1.70194221 0.680967271 -0.266261786 1.67626739 0.750492156 -0.314497918 1.68135989 0.772160113 -0.317694813 1.68553007 0.75479269 -0.31935358 1.67192674 0.758430004 -0.323082864 1.64716947 0.680967271 -0.266261786 1.67626739 0.75796175 -0.303954154 1.70194221 0.652464926 -0.232671589 1.68378139 0.622029364 -0.188811541 1.62079895 0.621168792 -0.190951779 1.63410723 0.61876601 -0.186564863 1.63247263 0.621168792 -0.190951779 1.63410723 0.622029364 -0.188811541 1.62079895 0.680068016 -0.265322059 1.67123234 0.621168792 -0.190951779 1.63410723 0.626612127 -0.203180149 1.67391729 0.621209025 -0.195543453 1.67304695 0.621168792 -0.190951779 1.63410723 0.619679034 -0.192363739 1.66307449 0.61876601 -0.186564863 1.63247263 0.619679034 -0.192363739 1.66307449 0.621168792 -0.190951779 1.63410723 0.621209025 -0.195543453 1.67304695 0.680967271 -0.266261786 1.67626739 0.652464926 -0.232671589 1.68378139 0.630351841 -0.207755461 1.68245077 0.680967271 -0.266261786 1.67626739 0.630351841 -0.207755461 1.68245077 0.626612127 -0.203180149 1.67391729 0.680967271 -0.266261786 1.67626739 0.626612127 -0.203180149 1.67391729 0.680068016 -0.265322059 1.67123234 0.631861985 -0.207545295 1.68457663 0.652464926 -0.232671589 1.68378139 0.732821465 -0.276136845 1.70313871 0.735485375 -0.273967743 1.70340598 0.645840406 -0.185248405 1.68475354 0.63068372 -0.203740001 1.68481958 0.645840406 -0.185248405 1.68475354 0.735485375 -0.273967743 1.70340598 0.661406457 -0.169804201 1.68435264 0.63068372 -0.203740001 1.68481958 0.631861985 -0.207545295 1.68457663 0.732821465 -0.276136845 1.70313871 0.763665855 -0.299126565 1.70210326 0.725755453 -0.22165291 1.67632663 0.692264378 -0.193238467 1.6838572 0.772294879 -0.31293878 1.69466245 0.776084363 -0.311565131 1.69011414 0.766323805 -0.302380502 1.70138276 0.771842957 -0.28905189 1.68262124 0.763665855 -0.299126565 1.70210326 0.766323805 -0.302380502 1.70138276 0.775788307 -0.292599231 1.67871177 0.771842957 -0.28905189 1.68262124 0.766323805 -0.302380502 1.70138276 0.775788307 -0.292599231 1.67871177 0.725755453 -0.22165291 1.67632663 0.771842957 -0.28905189 1.68262124 0.783489645 -0.300514847 1.62277555 0.778381884 -0.294520438 1.61442471 0.78365165 -0.299437076 1.62584352 0.772294879 -0.31293878 1.69466245 0.771005809 -0.316695631 1.69012773 0.775368989 -0.315937817 1.68670225 0.783808351 -0.30171293 1.62820816 0.783489645 -0.300514847 1.62277555 0.78365165 -0.299437076 1.62584352 0.775570035 -0.316094339 1.67181218 0.783808351 -0.30171293 1.62820816 0.775368989 -0.315937817 1.68670225 0.634268701 -0.172518313 1.61511815 0.636504292 -0.176878557 1.61146438 0.626946807 -0.186628357 1.61173177 0.636504292 -0.176878557 1.61146438 0.634268701 -0.172518313 1.61511815 0.644671142 -0.167433143 1.61226416 0.626484811 -0.190686226 1.61298704 0.626946807 -0.186628357 1.61173177 0.755830288 -0.318598479 1.61257768 0.757556915 -0.317080885 1.61176014 0.755830288 -0.318598479 1.61257768 0.626946807 -0.186628357 1.61173177 0.778381884 -0.294520438 1.61442471 0.650025964 -0.164474607 1.61904311 0.724790275 -0.220629856 1.67150605 0.650025964 -0.164474607 1.61904311 0.778381884 -0.294520438 1.61442471 0.650087595 -0.166909888 1.61310387 0.650025964 -0.164474607 1.61904311 0.646864176 -0.160214499 1.62684619 0.724790275 -0.220629856 1.67150605 0.764640629 -0.304358244 1.70245874 0.772294879 -0.31293878 1.69466245 0.766323805 -0.302380502 1.70138276 0.762021542 -0.306975216 1.70147395 0.75796175 -0.303954154 1.70194221 0.750492156 -0.314497918 1.68135989 0.755830288 -0.318598479 1.61257768 0.753054619 -0.317826033 1.6138742 0.626484811 -0.190686226 1.61298704 0.619656742 -0.183140919 1.63154554 0.61876601 -0.186564863 1.63247263 0.619421899 -0.187992334 1.6565007 0.624280334 -0.17887862 1.6190778 0.634268701 -0.172518313 1.61511815 0.626946807 -0.186628357 1.61173177 0.61876601 -0.186564863 1.63247263 0.619879186 -0.184645653 1.62311006 0.622029364 -0.188811541 1.62079895 0.635331869 -0.175463542 1.6698513 0.632389486 -0.172928527 1.65034246 0.619421899 -0.187992334 1.6565007 0.630351841 -0.207755461 1.68245077 0.652464926 -0.232671589 1.68378139 0.631861985 -0.207545295 1.68457663 0.641035557 -0.181143135 1.68159235 0.623825729 -0.195965886 1.67935002 0.627240181 -0.199471727 1.68294477 0.652792931 -0.163215682 1.67645836 0.657668829 -0.166104466 1.68156135 0.65859282 -0.164534256 1.67927456 0.760084987 -0.303295702 1.70301926 0.735485375 -0.273967743 1.70340598 0.732821465 -0.276136845 1.70313871 0.735485375 -0.273967743 1.70340598 0.665221632 -0.170947835 1.68437755 0.661406457 -0.169804201 1.68435264 0.781624913 -0.298077673 1.65538728 0.783808351 -0.30171293 1.62820816 0.78365165 -0.299437076 1.62584352 0.772160113 -0.317694813 1.68553007 0.760945559 -0.324447304 1.62590885 0.775368989 -0.315937817 1.68670225 0.772294879 -0.31293878 1.69466245 0.775368989 -0.315937817 1.68670225 0.776084363 -0.311565131 1.69011414 0.666798949 -0.170641914 1.68252873 0.661851585 -0.166691884 1.67224658 0.65859282 -0.164534256 1.67927456 0.647705853 -0.167843834 1.61174476 0.777126729 -0.295785218 1.61231577 0.776636004 -0.298806787 1.61179328 0.650087595 -0.166909888 1.61310387 0.777126729 -0.295785218 1.61231577 0.647705853 -0.167843834 1.61174476 0.768127561 -0.307950795 1.61154592 0.75926882 -0.318389028 1.6128093 0.757556915 -0.317080885 1.61176014 0.782728195 -0.303450733 1.62148178 0.775570035 -0.316094339 1.67181218 0.779334426 -0.306692392 1.61901712 0.646424055 -0.160022959 1.65280688 0.632389486 -0.172928527 1.65034246 0.635331869 -0.175463542 1.6698513 0.634268701 -0.172518313 1.61511815 0.63421154 -0.168394491 1.6193068 0.644671142 -0.167433143 1.61226416 0.619656742 -0.183140919 1.63154554 0.641554415 -0.161414951 1.62169623 0.63421154 -0.168394491 1.6193068 0.750492156 -0.314497918 1.68135989 0.75479269 -0.31935358 1.67192674 0.771005809 -0.316695631 1.69012773 0.771005809 -0.316695631 1.69012773 0.75479269 -0.31935358 1.67192674 0.772160113 -0.317694813 1.68553007 0.771005809 -0.316695631 1.69012773 0.772160113 -0.317694813 1.68553007 0.775368989 -0.315937817 1.68670225 0.755830288 -0.318598479 1.61257768 0.761162639 -0.324060589 1.62252283 0.755952835 -0.321396917 1.61904156 0.761162639 -0.324060589 1.62252283 0.764042139 -0.322272927 1.62060106 0.760945559 -0.324447304 1.62590885 0.75926882 -0.318389028 1.6128093 0.761162639 -0.324060589 1.62252283 0.755830288 -0.318598479 1.61257768 0.761162639 -0.324060589 1.62252283 0.75926882 -0.318389028 1.6128093 0.764042139 -0.322272927 1.62060106 0.758430004 -0.323082864 1.64716947 0.760945559 -0.324447304 1.62590885 0.772160113 -0.317694813 1.68553007 0.761162639 -0.324060589 1.62252283 0.760945559 -0.324447304 1.62590885 0.758481205 -0.323898882 1.62550676 0.758481205 -0.323898882 1.62550676 0.755952835 -0.321396917 1.61904156 0.761162639 -0.324060589 1.62252283 0.63421154 -0.168394491 1.6193068 0.634268701 -0.172518313 1.61511815 0.624280334 -0.17887862 1.6190778 0.732821465 -0.276136845 1.70313871 0.75796175 -0.303954154 1.70194221 0.760084987 -0.303295702 1.70301926 0.635331869 -0.175463542 1.6698513 0.619421899 -0.187992334 1.6565007 0.620218456 -0.190976322 1.66847289 0.632389486 -0.172928527 1.65034246 0.619656742 -0.183140919 1.63154554 0.619421899 -0.187992334 1.6565007 0.661406457 -0.169804201 1.68435264 0.657668829 -0.166104466 1.68156135 0.641035557 -0.181143135 1.68159235 0.623825729 -0.195965886 1.67935002 0.637787819 -0.178123668 1.67685056 0.621910155 -0.192871079 1.67473173 0.641035557 -0.181143135 1.68159235 0.627240181 -0.199471727 1.68294477 0.645840406 -0.185248405 1.68475354 0.645840406 -0.185248405 1.68475354 0.627240181 -0.199471727 1.68294477 0.63068372 -0.203740001 1.68481958 0.732821465 -0.276136845 1.70313871 0.735485375 -0.273967743 1.70340598 0.63068372 -0.203740001 1.68481958 0.692264378 -0.193238467 1.6838572 0.665221632 -0.170947835 1.68437755 0.735485375 -0.273967743 1.70340598 0.692264378 -0.193238467 1.6838572 0.666798949 -0.170641914 1.68252873 0.665221632 -0.170947835 1.68437755 0.626897097 -0.202152178 1.68246961 0.623825729 -0.195965886 1.67935002 0.623893142 -0.199448302 1.67864823 0.763665855 -0.299126565 1.70210326 0.692264378 -0.193238467 1.6838572 0.735485375 -0.273967743 1.70340598 0.64968127 -0.161041439 1.66789842 0.646424055 -0.160022959 1.65280688 0.635331869 -0.175463542 1.6698513 0.641554415 -0.161414951 1.62169623 0.644671142 -0.167433143 1.61226416 0.63421154 -0.168394491 1.6193068 0.75479269 -0.31935358 1.67192674 0.750492156 -0.314497918 1.68135989 0.680967271 -0.266261786 1.67626739 0.772124946 -0.314352542 1.61887789 0.75926882 -0.318389028 1.6128093 0.770059824 -0.311264455 1.61442161 0.620194793 -0.182728589 1.62274301 0.619656742 -0.183140919 1.63154554 0.624280334 -0.17887862 1.6190778 0.624280334 -0.17887862 1.6190778 0.619656742 -0.183140919 1.63154554 0.63421154 -0.168394491 1.6193068 0.621209025 -0.195543453 1.67304695 0.620218456 -0.190976322 1.66847289 0.619679034 -0.192363739 1.66307449 0.619879186 -0.184645653 1.62311006 0.61876601 -0.186564863 1.63247263 0.620194793 -0.182728589 1.62274301 0.626946807 -0.186628357 1.61173177 0.625467658 -0.18777667 1.61286223 0.624280334 -0.17887862 1.6190778 0.625467658 -0.18777667 1.61286223 0.620194793 -0.182728589 1.62274301 0.624280334 -0.17887862 1.6190778 0.625467658 -0.18777667 1.61286223 0.622029364 -0.188811541 1.62079895 0.619879186 -0.184645653 1.62311006 0.657668829 -0.166104466 1.68156135 0.652792931 -0.163215682 1.67645836 0.641035557 -0.181143135 1.68159235 0.623893142 -0.199448302 1.67864823 0.630351841 -0.207755461 1.68245077 0.626897097 -0.202152178 1.68246961 0.620218456 -0.190976322 1.66847289 0.621209025 -0.195543453 1.67304695 0.621910155 -0.192871079 1.67473173 0.652792931 -0.163215682 1.67645836 0.635331869 -0.175463542 1.6698513 0.637787819 -0.178123668 1.67685056 0.637787819 -0.178123668 1.67685056 0.635331869 -0.175463542 1.6698513 0.621910155 -0.192871079 1.67473173 0.760973513 -0.300351024 1.70336533 0.735485375 -0.273967743 1.70340598 0.760084987 -0.303295702 1.70301926 0.763665855 -0.299126565 1.70210326 0.735485375 -0.273967743 1.70340598 0.760973513 -0.300351024 1.70336533 0.775788307 -0.292599231 1.67871177 0.776084363 -0.311565131 1.69011414 0.778879702 -0.295696646 1.67121148 0.783808351 -0.30171293 1.62820816 0.782728195 -0.303450733 1.62148178 0.783489645 -0.300514847 1.62277555 0.776972532 -0.312715441 1.6864686 0.775368989 -0.315937817 1.68670225 0.783808351 -0.30171293 1.62820816 0.776972532 -0.312715441 1.6864686 0.781624913 -0.298077673 1.65538728 0.778879702 -0.295696646 1.67121148 0.768127561 -0.307950795 1.61154592 0.770059824 -0.311264455 1.61442161 0.75926882 -0.318389028 1.6128093 0.772124946 -0.314352542 1.61887789 0.770059824 -0.311264455 1.61442161 0.779334426 -0.306692392 1.61901712 0.775570035 -0.316094339 1.67181218 0.764042139 -0.322272927 1.62060106 0.772124946 -0.314352542 1.61887789 0.772124946 -0.314352542 1.61887789 0.779334426 -0.306692392 1.61901712 0.775570035 -0.316094339 1.67181218 0.654203415 -0.161468655 1.6728313 0.65859282 -0.164534256 1.67927456 0.661851585 -0.166691884 1.67224658 0.762021542 -0.306975216 1.70147395 0.772294879 -0.31293878 1.69466245 0.764640629 -0.304358244 1.70245874 0.764640629 -0.304358244 1.70245874 0.760084987 -0.303295702 1.70301926 0.762021542 -0.306975216 1.70147395 0.772294879 -0.31293878 1.69466245 0.762021542 -0.306975216 1.70147395 0.771005809 -0.316695631 1.69012773 0.750492156 -0.314497918 1.68135989 0.771005809 -0.316695631 1.69012773 0.762021542 -0.306975216 1.70147395 0.753054619 -0.317826033 1.6138742 0.755830288 -0.318598479 1.61257768 0.755952835 -0.321396917 1.61904156 0.75926882 -0.318389028 1.6128093 0.755830288 -0.318598479 1.61257768 0.757556915 -0.317080885 1.61176014 0.75926882 -0.318389028 1.6128093 0.772124946 -0.314352542 1.61887789 0.764042139 -0.322272927 1.62060106 0.760084987 -0.303295702 1.70301926 0.75796175 -0.303954154 1.70194221 0.762021542 -0.306975216 1.70147395 0.625467658 -0.18777667 1.61286223 0.619879186 -0.184645653 1.62311006 0.620194793 -0.182728589 1.62274301 0.625467658 -0.18777667 1.61286223 0.626946807 -0.186628357 1.61173177 0.626484811 -0.190686226 1.61298704 0.622029364 -0.188811541 1.62079895 0.625467658 -0.18777667 1.61286223 0.626484811 -0.190686226 1.61298704 0.635331869 -0.175463542 1.6698513 0.620218456 -0.190976322 1.66847289 0.621910155 -0.192871079 1.67473173 0.619421899 -0.187992334 1.6565007 0.619679034 -0.192363739 1.66307449 0.620218456 -0.190976322 1.66847289 0.619679034 -0.192363739 1.66307449 0.619421899 -0.187992334 1.6565007 0.61876601 -0.186564863 1.63247263 0.63068372 -0.203740001 1.68481958 0.626897097 -0.202152178 1.68246961 0.631861985 -0.207545295 1.68457663 0.630351841 -0.207755461 1.68245077 0.623893142 -0.199448302 1.67864823 0.626612127 -0.203180149 1.67391729 0.623893142 -0.199448302 1.67864823 0.621209025 -0.195543453 1.67304695 0.626612127 -0.203180149 1.67391729 0.652792931 -0.163215682 1.67645836 0.637787819 -0.178123668 1.67685056 0.641035557 -0.181143135 1.68159235 0.641035557 -0.181143135 1.68159235 0.637787819 -0.178123668 1.67685056 0.623825729 -0.195965886 1.67935002 0.645840406 -0.185248405 1.68475354 0.661406457 -0.169804201 1.68435264 0.641035557 -0.181143135 1.68159235 0.783808351 -0.30171293 1.62820816 0.781624913 -0.298077673 1.65538728 0.776972532 -0.312715441 1.6864686 0.776972532 -0.312715441 1.6864686 0.776084363 -0.311565131 1.69011414 0.775368989 -0.315937817 1.68670225 0.778456092 -0.29832384 1.61300647 0.779334426 -0.306692392 1.61901712 0.776636004 -0.298806787 1.61179328 0.779334426 -0.306692392 1.61901712 0.770059824 -0.311264455 1.61442161 0.776636004 -0.298806787 1.61179328 0.782728195 -0.303450733 1.62148178 0.778456092 -0.29832384 1.61300647 0.783489645 -0.300514847 1.62277555 0.777126729 -0.295785218 1.61231577 0.778456092 -0.29832384 1.61300647 0.776636004 -0.298806787 1.61179328 0.652608573 -0.160619035 1.66756141 0.649965405 -0.159669772 1.6556803 0.64968127 -0.161041439 1.66789842 0.644530714 -0.159351841 1.63361907 0.619656742 -0.183140919 1.63154554 0.632389486 -0.172928527 1.65034246 0.641554415 -0.161414951 1.62169623 0.619656742 -0.183140919 1.63154554 0.644530714 -0.159351841 1.63361907 0.654203415 -0.161468655 1.6728313 0.652792931 -0.163215682 1.67645836 0.65859282 -0.164534256 1.67927456 0.760973513 -0.300351024 1.70336533 0.760084987 -0.303295702 1.70301926 0.764640629 -0.304358244 1.70245874 0.623825729 -0.195965886 1.67935002 0.626897097 -0.202152178 1.68246961 0.627240181 -0.199471727 1.68294477 0.630351841 -0.207755461 1.68245077 0.631861985 -0.207545295 1.68457663 0.626897097 -0.202152178 1.68246961 0.623825729 -0.195965886 1.67935002 0.621910155 -0.192871079 1.67473173 0.621209025 -0.195543453 1.67304695 0.623893142 -0.199448302 1.67864823 0.623825729 -0.195965886 1.67935002 0.621209025 -0.195543453 1.67304695 0.782728195 -0.303450733 1.62148178 0.779334426 -0.306692392 1.61901712 0.778456092 -0.29832384 1.61300647 0.776636004 -0.298806787 1.61179328 0.770059824 -0.311264455 1.61442161 0.768127561 -0.307950795 1.61154592 0.778381884 -0.294520438 1.61442471 0.778456092 -0.29832384 1.61300647 0.777126729 -0.295785218 1.61231577 0.647485912 -0.165329278 1.61381769 0.646864176 -0.160214499 1.62684619 0.650025964 -0.164474607 1.61904311 0.650025964 -0.164474607 1.61904311 0.650087595 -0.166909888 1.61310387 0.647485912 -0.165329278 1.61381769 0.643799961 -0.160307541 1.62331796 0.646864176 -0.160214499 1.62684619 0.647485912 -0.165329278 1.61381769 0.654203415 -0.161468655 1.6728313 0.652608573 -0.160619035 1.66756141 0.64968127 -0.161041439 1.66789842 0.646864176 -0.160214499 1.62684619 0.649965405 -0.159669772 1.6556803 0.661851585 -0.166691884 1.67224658 0.649965405 -0.159669772 1.6556803 0.652608573 -0.160619035 1.66756141 0.661851585 -0.166691884 1.67224658 0.652608573 -0.160619035 1.66756141 0.654203415 -0.161468655 1.6728313 0.661851585 -0.166691884 1.67224658 0.654203415 -0.161468655 1.6728313 0.64968127 -0.161041439 1.66789842 0.652792931 -0.163215682 1.67645836 0.641554415 -0.161414951 1.62169623 0.647485912 -0.165329278 1.61381769 0.644671142 -0.167433143 1.61226416 0.650087595 -0.166909888 1.61310387 0.647705853 -0.167843834 1.61174476 0.647485912 -0.165329278 1.61381769 0.626897097 -0.202152178 1.68246961 0.63068372 -0.203740001 1.68481958 0.627240181 -0.199471727 1.68294477 0.65859282 -0.164534256 1.67927456 0.657668829 -0.166104466 1.68156135 0.665221632 -0.170947835 1.68437755 0.665221632 -0.170947835 1.68437755 0.657668829 -0.166104466 1.68156135 0.661406457 -0.169804201 1.68435264 0.665221632 -0.170947835 1.68437755 0.666798949 -0.170641914 1.68252873 0.65859282 -0.164534256 1.67927456 0.643799961 -0.160307541 1.62331796 0.641554415 -0.161414951 1.62169623 0.644530714 -0.159351841 1.63361907 0.64968127 -0.161041439 1.66789842 0.649965405 -0.159669772 1.6556803 0.646424055 -0.160022959 1.65280688 0.646864176 -0.160214499 1.62684619 0.644530714 -0.159351841 1.63361907 0.649965405 -0.159669772 1.6556803 0.644530714 -0.159351841 1.63361907 0.646864176 -0.160214499 1.62684619 0.643799961 -0.160307541 1.62331796 0.652792931 -0.163215682 1.67645836 0.64968127 -0.161041439 1.66789842 0.635331869 -0.175463542 1.6698513 0.641554415 -0.161414951 1.62169623 0.643799961 -0.160307541 1.62331796 0.647485912 -0.165329278 1.61381769 0.647705853 -0.167843834 1.61174476 0.644671142 -0.167433143 1.61226416 0.647485912 -0.165329278 1.61381769 0.766323805 -0.302380502 1.70138276 0.760973513 -0.300351024 1.70336533 0.764640629 -0.304358244 1.70245874 0.778381884 -0.294520438 1.61442471 0.783489645 -0.300514847 1.62277555 0.778456092 -0.29832384 1.61300647 0.646424055 -0.160022959 1.65280688 0.644530714 -0.159351841 1.63361907 0.632389486 -0.172928527 1.65034246 0.766323805 -0.302380502 1.70138276 0.763665855 -0.299126565 1.70210326 0.760973513 -0.300351024 1.70336533 0.644530714 -0.159351841 1.63361907 0.646424055 -0.160022959 1.65280688 0.649965405 -0.159669772 1.6556803 </float_array>
          <technique_common>
            <accessor count="600" offset="0" source="#mesh_0-positions-array" stride="3">
              <param name="X" type="float" />
              <param name="Y" type="float" />
              <param name="Z" type="float" />
            </accessor>
          </technique_common>
        </source>
        <vertices id="mesh_0-vertices">
          <input semantic="POSITION" source="#mesh_0-positions" />
        </vertices>
        <polylist count="200" material="defaultMaterial">
          <input offset="0" semantic="VERTEX" source="#mesh_0-vertices" />
          <vcount>3 3 3 3 3 3 3 3 3 3 3 3 3 3 3 3 3 3 3 3 3 3 3 3 3 3 3 3 3 3 3 3 3 3 3 3 3 3 3 3 3 3 3 3 3 3 3 3 3 3 3 3 3 3 3 3 3 3 3 3 3 3 3 3 3 3 3 3 3 3 3 3 3 3 3 3 3 3 3 3 3 3 3 3 3 3 3 3 3 3 3 3 3 3 3 3 3 3 3 3 3 3 3 3 3 3 3 3 3 3 3 3 3 3 3 3 3 3 3 3 3 3 3 3 3 3 3 3 3 3 3 3 3 3 3 3 3 3 3 3 3 3 3 3 3 3 3 3 3 3 3 3 3 3 3 3 3 3 3 3 3 3 3 3 3 3 3 3 3 3 3 3 3 3 3 3 3 3 3 3 3 3 3 3 3 3 3 3 3 3 3 3 3 3 3 3 3 3 3 3 </vcount>
          <p>0 1 2 3 4 5 6 7 8 9 10 11 12 13 14 15 16 17 18 19 20 21 22 23 24 25 26 27 28 29 30 31 32 33 34 35 36 37 38 39 40 41 42 43 44 45 46 47 48 49 50 51 52 53 54 55 56 57 58 59 60 61 62 63 64 65 66 67 68 69 70 71 72 73 74 75 76 77 78 79 80 81 82 83 84 85 86 87 88 89 90 91 92 93 94 95 96 97 98 99 100 101 102 103 104 105 106 107 108 109 110 111 112 113 114 115 116 117 118 119 120 121 122 123 124 125 126 127 128 129 130 131 132 133 134 135 136 137 138 139 140 141 142 143 144 145 146 147 148 149 150 151 152 153 154 155 156 157 158 159 160 161 162 163 164 165 166 167 168 169 170 171 172 173 174 175 176 177 178 179 180 181 182 183 184 185 186 187 188 189 190 191 192 193 194 195 196 197 198 199 200 201 202 203 204 205 206 207 208 209 210 211 212 213 214 215 216 217 218 219 220 221 222 223 224 225 226 227 228 229 230 231 232 233 234 235 236 237 238 239 240 241 242 243 244 245 246 247 248 249 250 251 252 253 254 255 256 257 258 259 260 261 262 263 264 265 266 267 268 269 270 271 272 273 274 275 276 277 278 279 280 281 282 283 284 285 286 287 288 289 290 291 292 293 294 295 296 297 298 299 300 301 302 303 304 305 306 307 308 309 310 311 312 313 314 315 316 317 318 319 320 321 322 323 324 325 326 327 328 329 330 331 332 333 334 335 336 337 338 339 340 341 342 343 344 345 346 347 348 349 350 351 352 353 354 355 356 357 358 359 360 361 362 363 364 365 366 367 368 369 370 371 372 373 374 375 376 377 378 379 380 381 382 383 384 385 386 387 388 389 390 391 392 393 394 395 396 397 398 399 400 401 402 403 404 405 406 407 408 409 410 411 412 413 414 415 416 417 418 419 420 421 422 423 424 425 426 427 428 429 430 431 432 433 434 435 436 437 438 439 440 441 442 443 444 445 446 447 448 449 450 451 452 453 454 455 456 457 458 459 460 461 462 463 464 465 466 467 468 469 470 471 472 473 474 475 476 477 478 479 480 481 482 483 484 485 486 487 488 489 490 491 492 493 494 495 496 497 498 499 500 501 502 503 504 505 506 507 508 509 510 511 512 513 514 515 516 517 518 519 520 521 522 523 524 525 526 527 528 529 530 531 532 533 534 535 536 537 538 539 540 541 542 543 544 545 546 547 548 549 550 551 552 553 554 555 556 557 558 559 560 561 562 563 564 565 566 567 568 569 570 571 572 573 574 575 576 577 578 579 580 581 582 583 584 585 586 587 588 589 590 591 592 593 594 595 596 597 598 599 </p>
        </polylist>
      </mesh>
    </geometry>
  </library_geometries>
  <library_controllers>
  </library_controllers>
  <library_visual_scenes>
    <visual_scene id="Scene" name="Scene">
      <node id="node" name="" type="NODE">
        <matrix sid="matrix">1 0 0 0 0 1 0 0 0 0 1 0 0 0 0 1</matrix>
        <instance_geometry url="#mesh_0">
          <bind_material>
            <technique_common>
              <instance_material symbol="defaultMaterial" target="#material_0">
              </instance_material>
            </technique_common>
          </bind_material>
        </instance_geometry>
      </node>
    </visual_scene>
  </library_visual_scenes>
  <scene>
    <instance_visual_scene url="#Scene" />
  </scene>
</COLLADA>
