<?xml version="1.0" encoding="UTF-8" standalone="no" ?>
<COLLADA xmlns="http://www.collada.org/2005/11/COLLADASchema" version="1.4.1">
  <asset>
    <contributor>
      <author>Assimp</author>
      <authoring_tool>Assimp Exporter</authoring_tool>
    </contributor>
    <created>2026-04-22T16:09:44</created>
    <modified>2026-04-22T16:09:44</modified>
    <unit name="meter" meter="1" />
    <up_axis>Y_UP</up_axis>
  </asset>
  <library_images>
  </library_images>
  <library_effects>
    <effect id="material_0-fx" name="">
      <profile_COMMON>
        <technique sid="standard">
          <phong>
            <emission>
              <color sid="emission">0   0   0   -1.29948092</color>
            </emission>
            <ambient>
              <color sid="ambient">0.400000006   0.400000006   0.400000006   -1.40118456</color>
            </ambient>
            <diffuse>
              <color sid="diffuse">0.400000006   0.400000006   0.400000006   -1.40118456</color>
            </diffuse>
            <specular>
              <color sid="specular">0.25   0.25   0.25   -0.337564439</color>
            </specular>
          </phong>
        </technique>
      </profile_COMMON>
    </effect>
  </library_effects>
  <library_materials>
    <material id="material_0" name="">
      <instance_effect url="#material_0-fx"/>
    </material>
  </library_materials>
  <library_geometries>
    <geometry id="mesh_0" name="" >
      <mesh>
        <source id="mesh_0-positions" name="mesh_0-positions">
          <float_array id="mesh_0-positions-array" count="441"> -0.0777859613 0.00908090919 1.69010496 -0.077606678 0.00586085767 1.69739211 -0.0797445104 0.00768786576 1.6875391 -0.0777859613 0.00908090919 1.69010496 -0.0797445104 0.00768786576 1.6875391 -0.0800174549 0.0110343136 1.68887389 -0.0800174549 0.0110343136 1.68887389 -0.0797445104 0.00768786576 1.6875391 -0.0939875394 0.0244406685 1.68862545 -0.0939875394 0.0244406685 1.68862545 -0.0797445104 0.00768786576 1.6875391 -0.097032316 0.0246285461 1.68756783 -0.097032316 0.0246285461 1.68756783 -0.0991955027 0.0272469502 1.70507252 -0.0984768495 0.0263443887 1.69187093 -0.0784466863 0.00956081878 1.70490181 -0.081374146 0.00909518916 1.70656419 -0.0780115724 0.00621242914 1.70175087 -0.0770436227 0.00833252817 1.70191026 -0.0780115724 0.00621242914 1.70175087 -0.077606678 0.00586085767 1.69739211 -0.077606678 0.00586085767 1.69739211 -0.0777859613 0.00908090919 1.69010496 -0.0770436227 0.00833252817 1.70191026 -0.0984768495 0.0263443887 1.69187093 -0.0991955027 0.0272469502 1.70507252 -0.0973918438 0.0286368318 1.70370317 -0.0939875394 0.0244406685 1.68862545 -0.0939871594 0.0244408213 1.68862545 -0.0800174549 0.0110343136 1.68887389 -0.0972276255 0.0284272004 1.69610608 -0.0984768495 0.0263443887 1.69187093 -0.0973918438 0.0286368318 1.70370317 -0.097032316 0.0246285461 1.68756783 -0.0984768495 0.0263443887 1.69187093 -0.0945300609 0.0250570718 1.68867254 -0.0945300609 0.0250570718 1.68867254 -0.0939875394 0.0244406685 1.68862545 -0.097032316 0.0246285461 1.68756783 -0.0909737796 0.0214665178 1.71048701 -0.0968152881 0.0244183838 1.71051598 -0.0923360437 0.019522097 1.71232486 -0.0973918438 0.0286368318 1.70370317 -0.0991955027 0.0272469502 1.70507252 -0.0966492891 0.0277256034 1.70792902 -0.0909737796 0.0214665178 1.71048701 -0.0923360437 0.019522097 1.71232486 -0.0897261351 0.0201394707 1.71007597 -0.0966492891 0.0277256034 1.70792902 -0.0991955027 0.0272469502 1.70507252 -0.0968152881 0.0244183838 1.71051598 -0.0909737796 0.0214665178 1.71048701 -0.0966492891 0.0277256034 1.70792902 -0.0968152881 0.0244183838 1.71051598 -0.0780115724 0.00621242914 1.70175087 -0.0770436227 0.00833252817 1.70191026 -0.0784466863 0.00956081878 1.70490181 -0.0938674659 0.0245511401 1.68885803 -0.0800174549 0.0110343136 1.68887389 -0.0939871594 0.0244408213 1.68862545 -0.0800174549 0.0110343136 1.68887389 -0.0938674659 0.0245511401 1.68885803 -0.0777859613 0.00908090919 1.69010496 -0.0780115724 0.00621242914 1.70175087 -0.0797445104 0.00768786576 1.6875391 -0.077606678 0.00586085767 1.69739211 -0.0938117877 0.0245308168 1.6892029 -0.0945300609 0.0250570718 1.68867254 -0.0972276255 0.0284272004 1.69610608 -0.0938796625 0.0245452244 1.68879712 -0.0945300609 0.0250570718 1.68867254 -0.0938117877 0.0245308168 1.6892029 -0.0966492891 0.0277256034 1.70792902 -0.0972276255 0.0284272004 1.69610608 -0.0973918438 0.0286368318 1.70370317 -0.0928012431 0.0208409298 1.70387328 -0.0938117877 0.0245308168 1.6892029 -0.0966492891 0.0277256034 1.70792902 -0.097032316 0.0246285461 1.68756783 -0.0923360437 0.019522097 1.71232486 -0.0968152881 0.0244183838 1.71051598 -0.0972276255 0.0284272004 1.69610608 -0.0966492891 0.0277256034 1.70792902 -0.0938117877 0.0245308168 1.6892029 -0.0966492891 0.0277256034 1.70792902 -0.08972767 0.0201887954 1.70996165 -0.0928012431 0.0208409298 1.70387328 -0.0909737796 0.0214665178 1.71048701 -0.08972767 0.0201887954 1.70996165 -0.0966492891 0.0277256034 1.70792902 -0.0784466863 0.00956081878 1.70490181 -0.08972767 0.0201887954 1.70996165 -0.0897261351 0.0201394707 1.71007597 -0.0921288803 0.0204809345 1.69395304 -0.0777859613 0.00908090919 1.69010496 -0.0938674659 0.0245511401 1.68885803 -0.0921288803 0.0204809345 1.69395304 -0.0938674659 0.0245511401 1.68885803 -0.0938117877 0.0245308168 1.6892029 -0.0928012431 0.0208409298 1.70387328 -0.0921288803 0.0204809345 1.69395304 -0.0938117877 0.0245308168 1.6892029 -0.0928012431 0.0208409298 1.70387328 -0.08972767 0.0201887954 1.70996165 -0.0784466863 0.00956081878 1.70490181 -0.097032316 0.0246285461 1.68756783 -0.0968152881 0.0244183838 1.71051598 -0.0991955027 0.0272469502 1.70507252 -0.081374146 0.00909518916 1.70656419 -0.0797445104 0.00768786576 1.6875391 -0.0780115724 0.00621242914 1.70175087 -0.0770436227 0.00833252817 1.70191026 -0.0928012431 0.0208409298 1.70387328 -0.0784466863 0.00956081878 1.70490181 -0.0923360437 0.019522097 1.71232486 -0.0797445104 0.00768786576 1.6875391 -0.081374146 0.00909518916 1.70656419 -0.0777859613 0.00908090919 1.69010496 -0.0928012431 0.0208409298 1.70387328 -0.0770436227 0.00833252817 1.70191026 -0.0921288803 0.0204809345 1.69395304 -0.0928012431 0.0208409298 1.70387328 -0.0777859613 0.00908090919 1.69010496 -0.0984768495 0.0263443887 1.69187093 -0.0972276255 0.0284272004 1.69610608 -0.0945300609 0.0250570718 1.68867254 -0.0945300609 0.0250570718 1.68867254 -0.0938796625 0.0245452244 1.68879712 -0.0939871594 0.0244408213 1.68862545 -0.0945300609 0.0250570718 1.68867254 -0.0939871594 0.0244408213 1.68862545 -0.0939875394 0.0244406685 1.68862545 -0.0939875394 0.0244406685 1.68862545 -0.0939871594 0.0244408213 1.68862545 -0.0939875394 0.0244406685 1.68862545 -0.0939875394 0.0244406685 1.68862545 -0.0939875394 0.0244406685 1.68862545 -0.0939875394 0.0244406685 1.68862545 -0.0938796625 0.0245452244 1.68879712 -0.0938674659 0.0245511401 1.68885803 -0.0939871594 0.0244408213 1.68862545 -0.0897261351 0.0201394707 1.71007597 -0.081374146 0.00909518916 1.70656419 -0.0784466863 0.00956081878 1.70490181 -0.0923360437 0.019522097 1.71232486 -0.081374146 0.00909518916 1.70656419 -0.0897261351 0.0201394707 1.71007597 </float_array>
          <technique_common>
            <accessor count="147" offset="0" source="#mesh_0-positions-array" stride="3">
              <param name="X" type="float" />
              <param name="Y" type="float" />
              <param name="Z" type="float" />
            </accessor>
          </technique_common>
        </source>
        <vertices id="mesh_0-vertices">
          <input semantic="POSITION" source="#mesh_0-positions" />
        </vertices>
        <polylist count="49" material="defaultMaterial">
          <input offset="0" semantic="VERTEX" source="#mesh_0-vertices" />
          <vcount>3 3 3 3 3 3 3 3 3 3 3 3 3 3 3 3 3 3 3 3 3 3 3 3 3 3 3 3 3 3 3 3 3 3 3 3 3 3 3 3 3 3 3 3 3 3 3 3 3 </vcount>
          <p>0 1 2 3 4 5 6 7 8 9 10 11 12 13 14 15 16 17 18 19 20 21 22 23 24 25 26 27 28 29 30 31 32 33 34 35 36 37 38 39 40 41 42 43 44 45 46 47 48 49 50 51 52 53 54 55 56 57 58 59 60 61 62 63 64 65 66 67 68 69 70 71 72 73 74 75 76 77 78 79 80 81 82 83 84 85 86 87 88 89 90 91 92 93 94 95 96 97 98 99 100 101 102 103 104 105 106 107 108 109 110 111 112 113 114 115 116 117 118 119 120 121 122 123 124 125 126 127 128 129 130 131 132 133 134 135 136 137 138 139 140 141 142 143 144 145 146 </p>
        </polylist>
      </mesh>
    </geometry>
  </library_geometries>
  <library_controllers>
  </library_controllers>
  <library_visual_scenes>
    <visual_scene id="Scene" name="Scene">
      <node id="node" name="" type="NODE">
        <matrix sid="matrix">1 0 0 0 0 1 0 0 0 0 1 0 0 0 0 1</matrix>
        <instance_geometry url="#mesh_0">
          <bind_material>
            <technique_common>
              <instance_material symbol="defaultMaterial" target="#material_0">
              </instance_material>
            </technique_common>
          </bind_material>
        </instance_geometry>
      </node>
    </visual_scene>
  </library_visual_scenes>
  <scene>
    <instance_visual_scene url="#Scene" />
  </scene>
</COLLADA>
