<?xml version="1.0" encoding="UTF-8" standalone="no" ?>
<COLLADA xmlns="http://www.collada.org/2005/11/COLLADASchema" version="1.4.1">
  <asset>
    <contributor>
      <author>Assimp</author>
      <authoring_tool>Assimp Exporter</authoring_tool>
    </contributor>
    <created>2026-04-22T16:09:44</created>
    <modified>2026-04-22T16:09:44</modified>
    <unit name="meter" meter="1" />
    <up_axis>Y_UP</up_axis>
  </asset>
  <library_images>
  </library_images>
  <library_effects>
    <effect id="material_0-fx" name="">
      <profile_COMMON>
        <technique sid="standard">
          <phong>
            <emission>
              <color sid="emission">0   0   0   1.24774945</color>
            </emission>
            <ambient>
              <color sid="ambient">0.699999988   0.699999988   0.699999988   1.40256</color>
            </ambient>
            <diffuse>
              <color sid="diffuse">0.699999988   0.699999988   0.699999988   1.40256</color>
            </diffuse>
            <specular>
              <color sid="specular">0.25   0.25   0.25   -1.80161154</color>
            </specular>
          </phong>
        </technique>
      </profile_COMMON>
    </effect>
  </library_effects>
  <library_materials>
    <material id="material_0" name="">
      <instance_effect url="#material_0-fx"/>
    </material>
  </library_materials>
  <library_geometries>
    <geometry id="mesh_0" name="" >
      <mesh>
        <source id="mesh_0-positions" name="mesh_0-positions">
          <float_array id="mesh_0-positions-array" count="2484"> -0.184008166 0.0369542614 1.67609203 -0.173395857 0.0527341291 1.67607343 -0.185560405 0.0402676575 1.67609346 -0.131560907 0.00536763901 1.67602682 -0.119396068 0.0178343281 1.67600656 -0.120948605 0.0211474318 1.67600787 -0.140069723 0.0209312774 1.67953515 -0.141449749 0.0176953338 1.67854226 -0.137017563 0.0258343853 1.67851961 -0.140069723 0.0209312774 1.67953515 -0.137017563 0.0258343853 1.67851961 -0.138548911 0.0341396369 1.67952943 -0.14540197 0.0431667715 1.67853665 -0.152431697 0.0438492298 1.67954624 -0.140911475 0.0382961296 1.67953157 -0.14540197 0.0431667715 1.67853665 -0.155540809 0.0445247516 1.67854297 -0.152431697 0.0438492298 1.67954624 -0.152431697 0.0438492298 1.67954624 -0.155540809 0.0445247516 1.67854297 -0.162350714 0.0401007608 1.6795615 -0.131560907 0.00536763901 1.67602682 -0.120948605 0.0211474318 1.67600787 -0.129009083 0.00935969595 1.67702234 -0.141449749 0.0176953338 1.67854226 -0.140069723 0.0209312774 1.67953515 -0.155065909 0.0144550754 1.67955744 -0.155065909 0.0144550754 1.67955744 -0.152962551 0.0132707786 1.67854381 -0.141449749 0.0176953338 1.67854226 -0.120948605 0.0211474318 1.67600787 -0.124201506 0.0173539128 1.6770134 -0.129009083 0.00935969595 1.67702234 -0.120948605 0.0211474318 1.67600787 -0.123558074 0.0390631706 1.67700696 -0.124201506 0.0173539128 1.6770134 -0.120948605 0.0211474318 1.67600787 -0.120972708 0.030153051 1.67600596 -0.123558074 0.0390631706 1.67700696 -0.120972708 0.030153051 1.67600596 -0.124268726 0.0431233644 1.67600715 -0.123558074 0.0390631706 1.67700696 -0.124268726 0.0431233644 1.67600715 -0.129367262 0.0504911765 1.67601252 -0.123558074 0.0390631706 1.67700696 -0.162582651 0.0182683244 1.67956686 -0.152962551 0.0132707786 1.67854381 -0.155065909 0.0144550754 1.67955744 -0.129367262 0.0504911765 1.67601252 -0.133661434 0.0531866737 1.67701745 -0.123558074 0.0390631706 1.67700696 -0.129367262 0.0504911765 1.67601252 -0.136332333 0.0561269 1.67602086 -0.133661434 0.0531866737 1.67701745 -0.136332333 0.0561269 1.67602086 -0.144601479 0.0595757701 1.67603147 -0.133661434 0.0531866737 1.67701745 -0.144601479 0.0595757701 1.67603147 -0.14982307 0.0595386922 1.67703867 -0.133661434 0.0531866737 1.67701745 -0.162582651 0.0182683244 1.67956686 -0.167747468 0.0250409003 1.67707229 -0.165916964 0.0206917003 1.67707086 -0.168247893 0.028356785 1.67856276 -0.167747468 0.0250409003 1.67707229 -0.162582651 0.0182683244 1.67956686 -0.144601479 0.0595757701 1.67603147 -0.153507531 0.0605588853 1.67604363 -0.14982307 0.0595386922 1.67703867 -0.153507531 0.0605588853 1.67604363 -0.165993154 0.0587012582 1.67606127 -0.14982307 0.0595386922 1.67703867 -0.165993154 0.0587012582 1.67606127 -0.165913284 0.0565000772 1.6770618 -0.14982307 0.0595386922 1.67703867 -0.165993154 0.0587012582 1.67606127 -0.173395857 0.0527341291 1.67607343 -0.165913284 0.0565000772 1.6770618 -0.173395857 0.0527341291 1.67607343 -0.180752367 0.0407483652 1.67708671 -0.165913284 0.0565000772 1.6770618 -0.12116769 0.0221539903 1.66945803 -0.121501707 0.0226568244 1.66689348 -0.121989921 0.0252367463 1.66922092 -0.164727032 0.0586957373 1.6695205 -0.152896509 0.0605712719 1.67054272 -0.160681352 0.0585522018 1.66949368 -0.152896509 0.0605712719 1.67054272 -0.147090435 0.0591724515 1.66953468 -0.160681352 0.0585522018 1.66949368 -0.152896509 0.0605712719 1.67054272 -0.144033939 0.0594200902 1.67053032 -0.147090435 0.0591724515 1.66953468 -0.131560907 0.00536763901 1.67602682 -0.129009083 0.00935969595 1.67702234 -0.142541438 0.000169513412 1.67704332 -0.142320737 -0.000823807379 1.67604256 -0.131560907 0.00536763901 1.67602682 -0.142541438 0.000169513412 1.67704332 -0.144033939 0.0594200902 1.67053032 -0.133217901 0.0527596921 1.6695224 -0.147090435 0.0591724515 1.66953468 -0.144033939 0.0594200902 1.67053032 -0.1358504 0.0558276027 1.67051959 -0.133217901 0.0527596921 1.6695224 -0.1358504 0.0558276027 1.67051959 -0.131121248 0.0500175133 1.66951489 -0.133217901 0.0527596921 1.6695224 -0.1358504 0.0558276027 1.67051959 -0.126259699 0.0465415642 1.67050874 -0.131121248 0.0500175133 1.66951489 -0.142320737 -0.000823807379 1.67604256 -0.142541438 0.000169513412 1.67704332 -0.162640572 0.000185009339 1.67707157 -0.157051891 -0.00214037928 1.67606449 -0.142320737 -0.000823807379 1.67604256 -0.162640572 0.000185009339 1.67707157 -0.126259699 0.0465415642 1.67050874 -0.124590464 0.0416305028 1.66950762 -0.131121248 0.0500175133 1.66951489 -0.126259699 0.0465415642 1.67050874 -0.122404516 0.0384786986 1.6705054 -0.124590464 0.0416305028 1.66950762 -0.165642053 0.000406215549 1.67607594 -0.157051891 -0.00214037928 1.67606449 -0.162640572 0.000185009339 1.67707157 -0.122404516 0.0384786986 1.6705054 -0.12096715 0.0296581686 1.67050576 -0.124590464 0.0416305028 1.66950762 -0.12096715 0.0296581686 1.67050576 -0.121989921 0.0252367463 1.66922092 -0.124590464 0.0416305028 1.66950762 -0.173169002 0.00526613742 1.67608535 -0.165642053 0.000406215549 1.67607594 -0.162640572 0.000185009339 1.67707157 -0.12096715 0.0296581686 1.67050576 -0.12116769 0.0221539903 1.66945803 -0.121989921 0.0252367463 1.66922092 -0.173169002 0.00526613742 1.67608535 -0.162640572 0.000185009339 1.67707157 -0.17671065 0.0103623318 1.67708874 -0.179024607 0.012047682 1.67609179 -0.173169002 0.00526613742 1.67608535 -0.17671065 0.0103623318 1.67708874 -0.164727032 0.0586957373 1.6695205 -0.160681352 0.0585522018 1.66949368 -0.164155424 0.0584562942 1.667032 -0.18306601 0.0337329134 1.66889644 -0.182937294 0.0316041186 1.66957033 -0.183810249 0.0359607115 1.66955996 -0.182735831 0.0202028193 1.67609489 -0.179024607 0.012047682 1.67609179 -0.17671065 0.0103623318 1.67708874 -0.183810249 0.0359607115 1.66955996 -0.183480665 0.0354402475 1.66697705 -0.18306601 0.0337329134 1.66889644 -0.182735831 0.0202028193 1.67609489 -0.17671065 0.0103623318 1.67708874 -0.18297796 0.0265575498 1.67709351 -0.140247762 -0.000597012113 1.6695013 -0.149266511 -0.0023651931 1.67055273 -0.144295797 -0.000462437369 1.66948867 -0.184008166 0.0369542614 1.67609203 -0.182735831 0.0202028193 1.67609489 -0.18297796 0.0265575498 1.67709351 -0.149266511 -0.0023651931 1.67055273 -0.157884419 -0.00107382936 1.66956484 -0.144295797 -0.000462437369 1.66948867 -0.149266511 -0.0023651931 1.67055273 -0.155433789 -0.00233708811 1.67056191 -0.157884419 -0.00107382936 1.66956484 -0.184008166 0.0369542614 1.67609203 -0.18297796 0.0265575498 1.67709351 -0.180752367 0.0407483652 1.67708671 -0.155433789 -0.00233708811 1.67056191 -0.164123714 -0.000248530909 1.67057347 -0.157884419 -0.00107382936 1.66956484 -0.164123714 -0.000248530909 1.67057347 -0.171756878 0.00533897942 1.66958833 -0.157884419 -0.00107382936 1.66956484 -0.173395857 0.0527341291 1.67607343 -0.184008166 0.0369542614 1.67609203 -0.180752367 0.0407483652 1.67708671 -0.125647515 0.0336188078 1.67051136 -0.127366424 0.0343214385 1.67694175 -0.130475879 0.0322645232 1.6705184 -0.164123714 -0.000248530909 1.67057347 -0.171878368 0.00419492321 1.67058313 -0.171756878 0.00533897942 1.66958833 -0.127366424 0.0343214385 1.67694175 -0.130122691 0.0329982378 1.67695713 -0.130475879 0.0322645232 1.6705184 -0.126634985 0.0280679408 1.67701244 -0.124532282 0.031792786 1.67693281 -0.125451222 0.0290638767 1.67051208 -0.125451222 0.0290638767 1.67051208 -0.124532282 0.031792786 1.67693281 -0.125647515 0.0336188078 1.67051136 -0.171878368 0.00419492321 1.67058313 -0.17385383 0.00808082614 1.66958535 -0.171756878 0.00533897942 1.66958833 -0.171878368 0.00419492321 1.67058313 -0.178074077 0.0106359608 1.67059016 -0.17385383 0.00808082614 1.66958535 -0.178074077 0.0106359608 1.67059016 -0.180384457 0.0164678693 1.66959202 -0.17385383 0.00808082614 1.66958535 -0.178074077 0.0106359608 1.67059016 -0.182213247 0.0185567643 1.6705941 -0.180384457 0.0164678693 1.66959202 -0.182213247 0.0185567643 1.6705941 -0.183963105 0.0273206215 1.67059445 -0.180384457 0.0164678693 1.66959202 -0.124532282 0.031792786 1.67693281 -0.127366424 0.0343214385 1.67694175 -0.125647515 0.0336188078 1.67051136 -0.183963105 0.0273206215 1.67059445 -0.182937294 0.0316041186 1.66957033 -0.180384457 0.0164678693 1.66959202 -0.183963105 0.0273206215 1.67059445 -0.183810249 0.0359607115 1.66955996 -0.182937294 0.0316041186 1.66957033 -0.140247762 -0.000597012113 1.6695013 -0.144295797 -0.000462437369 1.66948867 -0.140826344 -0.000358882622 1.66701412 -0.130411565 0.0300809965 1.67051888 -0.125647515 0.0336188078 1.67051136 -0.130475879 0.0322645232 1.6705184 -0.152746633 0.0132257827 1.67705441 -0.141336665 0.0178083796 1.67703724 -0.141449749 0.0176953338 1.67854226 -0.152746633 0.0132257827 1.67705441 -0.141449749 0.0176953338 1.67854226 -0.152962551 0.0132707786 1.67854381 -0.130411565 0.0300809965 1.67051888 -0.125451222 0.0290638767 1.67051208 -0.125647515 0.0336188078 1.67051136 -0.129403338 0.0284867864 1.67701626 -0.126634985 0.0280679408 1.67701244 -0.125451222 0.0290638767 1.67051208 -0.130411565 0.0300809965 1.67051888 -0.129403338 0.0284867864 1.67701626 -0.125451222 0.0290638767 1.67051208 -0.158517405 0.014395345 1.67706203 -0.152746633 0.0132257827 1.67705441 -0.152962551 0.0132707786 1.67854381 -0.158517405 0.014395345 1.67706203 -0.152962551 0.0132707786 1.67854381 -0.162582651 0.0182683244 1.67956686 -0.130122691 0.0329982378 1.67695713 -0.129403338 0.0284867864 1.67701626 -0.130411565 0.0300809965 1.67051888 -0.130475879 0.0322645232 1.6705184 -0.130122691 0.0329982378 1.67695713 -0.130411565 0.0300809965 1.67051888 -0.158517405 0.014395345 1.67706203 -0.162582651 0.0182683244 1.67956686 -0.165916964 0.0206917003 1.67707086 -0.120948605 0.0211474318 1.67600787 -0.119396068 0.0178343281 1.67600656 -0.12116769 0.0221539903 1.66945803 -0.169845313 0.0600428134 1.67606652 -0.165993154 0.0587012582 1.67606127 -0.164727032 0.0586957373 1.6695205 -0.184008166 0.0369542614 1.67609203 -0.185560405 0.0402676575 1.67609346 -0.183810249 0.0359607115 1.66955996 -0.138963252 -0.0005991332 1.6760385 -0.142320737 -0.000823807379 1.67604256 -0.140247762 -0.000597012113 1.6695013 -0.135111541 -0.0019411362 1.67603362 -0.138963252 -0.0005991332 1.6760385 -0.140247762 -0.000597012113 1.6695013 -0.167845413 0.0328356586 1.6770705 -0.167747468 0.0250409003 1.67707229 -0.168247893 0.028356785 1.67856276 -0.121989921 0.0252367463 1.66922092 -0.121501707 0.0226568244 1.66689348 -0.160681352 0.0585522018 1.66949368 -0.167845413 0.0328356586 1.6770705 -0.168247893 0.028356785 1.67856276 -0.166547716 0.0362495184 1.67857301 -0.163617283 0.040293999 1.67706275 -0.167845413 0.0328356586 1.6770705 -0.166547716 0.0362495184 1.67857301 -0.160681352 0.0585522018 1.66949368 -0.121501707 0.0226568244 1.66689348 -0.164155424 0.0584562942 1.667032 -0.144295797 -0.000462437369 1.66948867 -0.182937294 0.0316041186 1.66957033 -0.18306601 0.0337329134 1.66889644 -0.144295797 -0.000462437369 1.66948867 -0.18306601 0.0337329134 1.66889644 -0.140826344 -0.000358882622 1.66701412 -0.18306601 0.0337329134 1.66889644 -0.183480665 0.0354402475 1.66697705 -0.140826344 -0.000358882622 1.66701412 -0.168247893 0.028356785 1.67856276 -0.162582651 0.0182683244 1.67956686 -0.166547716 0.0362495184 1.67857301 -0.162582651 0.0182683244 1.67956686 -0.152431697 0.0438492298 1.67954624 -0.162350714 0.0401007608 1.6795615 -0.162582651 0.0182683244 1.67956686 -0.140069723 0.0209312774 1.67953515 -0.152431697 0.0438492298 1.67954624 -0.164924175 0.0141084865 1.67307115 -0.163018003 0.00986434799 1.66956961 -0.163579419 0.00745896297 1.67307091 -0.165041357 0.0142018553 1.66957128 -0.163018003 0.00986434799 1.66956961 -0.164924175 0.0141084865 1.67307115 -0.171823308 0.0143713653 1.66958082 -0.165041357 0.0142018553 1.66957128 -0.172160387 0.0141629409 1.67308128 -0.172160387 0.0141629409 1.67308128 -0.165041357 0.0142018553 1.66957128 -0.164924175 0.0141084865 1.67307115 -0.162582651 0.0182683244 1.67956686 -0.162350714 0.0401007608 1.6795615 -0.166547716 0.0362495184 1.67857301 -0.162582651 0.0182683244 1.67956686 -0.155065909 0.0144550754 1.67955744 -0.140069723 0.0209312774 1.67953515 -0.163018003 0.00986434799 1.66956961 -0.165859222 0.00507831248 1.66957486 -0.163579419 0.00745896297 1.67307091 -0.152431697 0.0438492298 1.67954624 -0.140069723 0.0209312774 1.67953515 -0.140911475 0.0382961296 1.67953157 -0.140911475 0.0382961296 1.67953157 -0.140069723 0.0209312774 1.67953515 -0.138548911 0.0341396369 1.67952943 -0.163579419 0.00745896297 1.67307091 -0.165859222 0.00507831248 1.66957486 -0.165553033 0.00516801607 1.67307436 -0.133217901 0.0527596921 1.6695224 -0.131121248 0.0500175133 1.66951489 -0.132464319 0.0521745309 1.67301607 -0.132464319 0.0521745309 1.67301607 -0.131121248 0.0500175133 1.66951489 -0.130848482 0.0488430522 1.67301476 -0.141336665 0.0178083796 1.67703724 -0.137017563 0.0258343853 1.67851961 -0.141449749 0.0176953338 1.67854226 -0.141336665 0.0178083796 1.67703724 -0.137108505 0.0252666511 1.67702937 -0.137017563 0.0258343853 1.67851961 -0.137108505 0.0252666511 1.67702937 -0.138548911 0.0341396369 1.67952943 -0.137017563 0.0258343853 1.67851961 -0.131121248 0.0500175133 1.66951489 -0.130973145 0.0472711213 1.66951525 -0.130848482 0.0488430522 1.67301476 -0.130848482 0.0488430522 1.67301476 -0.130973145 0.0472711213 1.66951525 -0.13307713 0.0437981151 1.67301917 -0.137108505 0.0252666511 1.67702937 -0.13838996 0.0361480154 1.67702854 -0.138548911 0.0341396369 1.67952943 -0.139115453 0.0530204736 1.66952527 -0.133217901 0.0527596921 1.6695224 -0.135805547 0.0537698753 1.67302036 -0.135805547 0.0537698753 1.67302036 -0.133217901 0.0527596921 1.6695224 -0.132464319 0.0521745309 1.67301607 -0.13838996 0.0361480154 1.67702854 -0.140911475 0.0382961296 1.67953157 -0.138548911 0.0341396369 1.67952943 -0.133640125 0.0500366949 1.67301834 -0.134274483 0.0456244834 1.67302036 -0.133699238 0.0501318797 1.6770184 -0.139256939 0.049961336 1.67702615 -0.138329685 0.0508934781 1.67302465 -0.137257189 0.0513958782 1.67702305 -0.133699238 0.0501318797 1.6770184 -0.134274483 0.0456244834 1.67302036 -0.134180397 0.04570169 1.67702007 -0.13838996 0.0361480154 1.67702854 -0.143472344 0.0420416929 1.67703402 -0.140911475 0.0382961296 1.67953157 -0.143472344 0.0420416929 1.67703402 -0.14540197 0.0431667715 1.67853665 -0.140911475 0.0382961296 1.67953157 -0.143472344 0.0420416929 1.67703402 -0.150902703 0.0447854809 1.67704368 -0.14540197 0.0431667715 1.67853665 -0.138329685 0.0508934781 1.67302465 -0.133640125 0.0500366949 1.67301834 -0.137257189 0.0513958782 1.67702305 -0.137257189 0.0513958782 1.67702305 -0.133640125 0.0500366949 1.67301834 -0.133699238 0.0501318797 1.6770184 -0.150902703 0.0447854809 1.67704368 -0.155540809 0.0445247516 1.67854297 -0.14540197 0.0431667715 1.67853665 -0.150902703 0.0447854809 1.67704368 -0.163617283 0.040293999 1.67706275 -0.155540809 0.0445247516 1.67854297 -0.171713606 0.00899985991 1.67708206 -0.170553967 0.0125001268 1.67307949 -0.168566361 0.0132179819 1.67707646 -0.163617283 0.040293999 1.67706275 -0.162350714 0.0401007608 1.6795615 -0.155540809 0.0445247516 1.67854297 -0.165677145 0.0115043763 1.67707288 -0.165820763 0.00800228491 1.67307389 -0.167099506 0.00694811903 1.6770761 -0.163617283 0.040293999 1.67706275 -0.166547716 0.0362495184 1.67857301 -0.162350714 0.0401007608 1.6795615 -0.169159681 0.00433025649 1.67307961 -0.171756878 0.00533897942 1.66958833 -0.172500908 0.00592570473 1.6730839 -0.170553967 0.0125001268 1.67307949 -0.167519361 0.0130256927 1.67307508 -0.168566361 0.0132179819 1.67707646 -0.168566361 0.0132179819 1.67707646 -0.167519361 0.0130256927 1.67307508 -0.165677145 0.0115043763 1.67707288 -0.165859222 0.00507831248 1.66957486 -0.171756878 0.00533897942 1.66958833 -0.169159681 0.00433025649 1.67307961 -0.174116686 0.00925706327 1.67308533 -0.171823308 0.0143713653 1.66958082 -0.172160387 0.0141629409 1.67308128 -0.167519361 0.0130256927 1.67307508 -0.165820763 0.00800228491 1.67307389 -0.165677145 0.0115043763 1.67707288 -0.120948605 0.0211474318 1.67600787 -0.12116769 0.0221539903 1.66945803 -0.12096715 0.0296581686 1.67050576 -0.120972708 0.030153051 1.67600596 -0.120948605 0.0211474318 1.67600787 -0.12096715 0.0296581686 1.67050576 -0.17385383 0.00808082614 1.66958535 -0.171823308 0.0143713653 1.66958082 -0.174116686 0.00925706327 1.67308533 -0.165553033 0.00516801607 1.67307436 -0.165859222 0.00507831248 1.66957486 -0.169159681 0.00433025649 1.67307961 -0.120972708 0.030153051 1.67600596 -0.12096715 0.0296581686 1.67050576 -0.122404516 0.0384786986 1.6705054 -0.124268726 0.0431233644 1.67600715 -0.120972708 0.030153051 1.67600596 -0.122404516 0.0384786986 1.6705054 -0.172500908 0.00592570473 1.6730839 -0.17385383 0.00808082614 1.66958535 -0.174116686 0.00925706327 1.67308533 -0.171756878 0.00533897942 1.66958833 -0.17385383 0.00808082614 1.66958535 -0.172500908 0.00592570473 1.6730839 -0.124268726 0.0431233644 1.67600715 -0.122404516 0.0384786986 1.6705054 -0.126259699 0.0465415642 1.67050874 -0.129367262 0.0504911765 1.67601252 -0.124268726 0.0431233644 1.67600715 -0.126259699 0.0465415642 1.67050874 -0.169159681 0.00433025649 1.67307961 -0.172500908 0.00592570473 1.6730839 -0.17046243 0.0071489769 1.67308068 -0.165553033 0.00516801607 1.67307436 -0.17046243 0.0071489769 1.67308068 -0.165820763 0.00800228491 1.67307389 -0.129367262 0.0504911765 1.67601252 -0.126259699 0.0465415642 1.67050874 -0.1358504 0.0558276027 1.67051959 -0.136332333 0.0561269 1.67602086 -0.129367262 0.0504911765 1.67601252 -0.1358504 0.0558276027 1.67051959 -0.165553033 0.00516801607 1.67307436 -0.165820763 0.00800228491 1.67307389 -0.163579419 0.00745896297 1.67307091 -0.172500908 0.00592570473 1.6730839 -0.171709299 0.00900179986 1.67308199 -0.17046243 0.0071489769 1.67308068 -0.172500908 0.00592570473 1.6730839 -0.174116686 0.00925706327 1.67308533 -0.171709299 0.00900179986 1.67308199 -0.144601479 0.0595757701 1.67603147 -0.136332333 0.0561269 1.67602086 -0.1358504 0.0558276027 1.67051959 -0.144601479 0.0595757701 1.67603147 -0.1358504 0.0558276027 1.67051959 -0.144033939 0.0594200902 1.67053032 -0.165820763 0.00800228491 1.67307389 -0.164924175 0.0141084865 1.67307115 -0.163579419 0.00745896297 1.67307091 -0.165820763 0.00800228491 1.67307389 -0.167519361 0.0130256927 1.67307508 -0.164924175 0.0141084865 1.67307115 -0.153507531 0.0605588853 1.67604363 -0.144601479 0.0595757701 1.67603147 -0.144033939 0.0594200902 1.67053032 -0.153507531 0.0605588853 1.67604363 -0.144033939 0.0594200902 1.67053032 -0.152896509 0.0605712719 1.67054272 -0.171709299 0.00900179986 1.67308199 -0.174116686 0.00925706327 1.67308533 -0.172160387 0.0141629409 1.67308128 -0.171709299 0.00900179986 1.67308199 -0.172160387 0.0141629409 1.67308128 -0.170553967 0.0125001268 1.67307949 -0.165993154 0.0587012582 1.67606127 -0.153507531 0.0605588853 1.67604363 -0.152896509 0.0605712719 1.67054272 -0.165993154 0.0587012582 1.67606127 -0.152896509 0.0605712719 1.67054272 -0.164727032 0.0586957373 1.6695205 -0.167519361 0.0130256927 1.67307508 -0.170553967 0.0125001268 1.67307949 -0.164924175 0.0141084865 1.67307115 -0.130122691 0.0329982378 1.67695713 -0.137108505 0.0252666511 1.67702937 -0.129403338 0.0284867864 1.67701626 -0.139256939 0.049961336 1.67702615 -0.143472344 0.0420416929 1.67703402 -0.136871666 0.0448859371 1.67702401 -0.170553967 0.0125001268 1.67307949 -0.172160387 0.0141629409 1.67308128 -0.164924175 0.0141084865 1.67307115 -0.133661434 0.0531866737 1.67701745 -0.133699238 0.0501318797 1.6770184 -0.123558074 0.0390631706 1.67700696 -0.165677145 0.0115043763 1.67707288 -0.162640572 0.000185009339 1.67707157 -0.158517405 0.014395345 1.67706203 -0.169159681 0.00433025649 1.67307961 -0.17046243 0.0071489769 1.67308068 -0.165553033 0.00516801607 1.67307436 -0.152746633 0.0132257827 1.67705441 -0.142541438 0.000169513412 1.67704332 -0.141336665 0.0178083796 1.67703724 -0.14195469 0.0486148223 1.67303026 -0.139115453 0.0530204736 1.66952527 -0.135805547 0.0537698753 1.67302036 -0.158517405 0.014395345 1.67706203 -0.162640572 0.000185009339 1.67707157 -0.152746633 0.0132257827 1.67705441 -0.135048389 0.0428148992 1.66952217 -0.141025975 0.0451266207 1.66952991 -0.138640031 0.0431295335 1.67302704 -0.141934037 0.047525879 1.66953063 -0.139115453 0.0530204736 1.66952527 -0.14195469 0.0486148223 1.67303026 -0.13307713 0.0437981151 1.67301917 -0.135048389 0.0428148992 1.66952217 -0.138640031 0.0431295335 1.67302704 -0.141025975 0.0451266207 1.66952991 -0.141934037 0.047525879 1.66953063 -0.14195469 0.0486148223 1.67303026 -0.138640031 0.0431295335 1.67302704 -0.141025975 0.0451266207 1.66952991 -0.14195469 0.0486148223 1.67303026 -0.180752367 0.0407483652 1.67708671 -0.163617283 0.040293999 1.67706275 -0.165913284 0.0565000772 1.6770618 -0.152746633 0.0132257827 1.67705441 -0.162640572 0.000185009339 1.67707157 -0.142541438 0.000169513412 1.67704332 -0.126634985 0.0280679408 1.67701244 -0.123558074 0.0390631706 1.67700696 -0.124532282 0.031792786 1.67693281 -0.130973145 0.0472711213 1.66951525 -0.135048389 0.0428148992 1.66952217 -0.13307713 0.0437981151 1.67301917 -0.18297796 0.0265575498 1.67709351 -0.17671065 0.0103623318 1.67708874 -0.167747468 0.0250409003 1.67707229 -0.143472344 0.0420416929 1.67703402 -0.13838996 0.0361480154 1.67702854 -0.136871666 0.0448859371 1.67702401 -0.13307713 0.0437981151 1.67301917 -0.139027089 0.0461892933 1.6730268 -0.134274483 0.0456244834 1.67302036 -0.133699238 0.0501318797 1.6770184 -0.134180397 0.04570169 1.67702007 -0.123558074 0.0390631706 1.67700696 -0.138640031 0.0431295335 1.67302704 -0.14195469 0.0486148223 1.67303026 -0.139027089 0.0461892933 1.6730268 -0.13307713 0.0437981151 1.67301917 -0.134274483 0.0456244834 1.67302036 -0.130848482 0.0488430522 1.67301476 -0.126634985 0.0280679408 1.67701244 -0.124201506 0.0173539128 1.6770134 -0.123558074 0.0390631706 1.67700696 -0.134274483 0.0456244834 1.67302036 -0.133640125 0.0500366949 1.67301834 -0.130848482 0.0488430522 1.67301476 -0.141336665 0.0178083796 1.67703724 -0.129009083 0.00935969595 1.67702234 -0.124201506 0.0173539128 1.6770134 -0.139027089 0.0461892933 1.6730268 -0.14195469 0.0486148223 1.67303026 -0.138329685 0.0508934781 1.67302465 -0.133640125 0.0500366949 1.67301834 -0.132464319 0.0521745309 1.67301607 -0.130848482 0.0488430522 1.67301476 -0.167747468 0.0250409003 1.67707229 -0.17671065 0.0103623318 1.67708874 -0.165916964 0.0206917003 1.67707086 -0.180752367 0.0407483652 1.67708671 -0.167845413 0.0328356586 1.6770705 -0.163617283 0.040293999 1.67706275 -0.138329685 0.0508934781 1.67302465 -0.14195469 0.0486148223 1.67303026 -0.135805547 0.0537698753 1.67302036 -0.133640125 0.0500366949 1.67301834 -0.135805547 0.0537698753 1.67302036 -0.132464319 0.0521745309 1.67301607 -0.136871666 0.0448859371 1.67702401 -0.13838996 0.0361480154 1.67702854 -0.134180397 0.04570169 1.67702007 -0.133640125 0.0500366949 1.67301834 -0.138329685 0.0508934781 1.67302465 -0.135805547 0.0537698753 1.67302036 -0.138640031 0.0431295335 1.67302704 -0.139027089 0.0461892933 1.6730268 -0.13307713 0.0437981151 1.67301917 -0.173395857 0.0527341291 1.67607343 -0.165993154 0.0587012582 1.67606127 -0.169845313 0.0600428134 1.67606652 -0.18297796 0.0265575498 1.67709351 -0.167845413 0.0328356586 1.6770705 -0.180752367 0.0407483652 1.67708671 -0.14982307 0.0595386922 1.67703867 -0.163617283 0.040293999 1.67706275 -0.150902703 0.0447854809 1.67704368 -0.129403338 0.0284867864 1.67701626 -0.124201506 0.0173539128 1.6770134 -0.126634985 0.0280679408 1.67701244 -0.142320737 -0.000823807379 1.67604256 -0.135111541 -0.0019411362 1.67603362 -0.131560907 0.00536763901 1.67602682 -0.17671065 0.0103623318 1.67708874 -0.162640572 0.000185009339 1.67707157 -0.171713606 0.00899985991 1.67708206 -0.165913284 0.0565000772 1.6770618 -0.163617283 0.040293999 1.67706275 -0.14982307 0.0595386922 1.67703867 -0.137108505 0.0252666511 1.67702937 -0.124201506 0.0173539128 1.6770134 -0.129403338 0.0284867864 1.67701626 -0.130122691 0.0329982378 1.67695713 -0.127366424 0.0343214385 1.67694175 -0.123558074 0.0390631706 1.67700696 -0.134180397 0.04570169 1.67702007 -0.130122691 0.0329982378 1.67695713 -0.123558074 0.0390631706 1.67700696 -0.133661434 0.0531866737 1.67701745 -0.139256939 0.049961336 1.67702615 -0.137257189 0.0513958782 1.67702305 -0.131560907 0.00536763901 1.67602682 -0.135111541 -0.0019411362 1.67603362 -0.119396068 0.0178343281 1.67600656 -0.13838996 0.0361480154 1.67702854 -0.130122691 0.0329982378 1.67695713 -0.134180397 0.04570169 1.67702007 -0.14982307 0.0595386922 1.67703867 -0.150902703 0.0447854809 1.67704368 -0.133661434 0.0531866737 1.67701745 -0.171713606 0.00899985991 1.67708206 -0.162640572 0.000185009339 1.67707157 -0.167099506 0.00694811903 1.6770761 -0.142320737 -0.000823807379 1.67604256 -0.138963252 -0.0005991332 1.6760385 -0.135111541 -0.0019411362 1.67603362 -0.137257189 0.0513958782 1.67702305 -0.133699238 0.0501318797 1.6770184 -0.133661434 0.0531866737 1.67701745 -0.171823308 0.0143713653 1.66958082 -0.180384457 0.0164678693 1.66959202 -0.182937294 0.0316041186 1.66957033 -0.133661434 0.0531866737 1.67701745 -0.150902703 0.0447854809 1.67704368 -0.139256939 0.049961336 1.67702615 -0.171823308 0.0143713653 1.66958082 -0.182937294 0.0316041186 1.66957033 -0.165041357 0.0142018553 1.66957128 -0.165041357 0.0142018553 1.66957128 -0.182937294 0.0316041186 1.66957033 -0.144295797 -0.000462437369 1.66948867 -0.18297796 0.0265575498 1.67709351 -0.167747468 0.0250409003 1.67707229 -0.167845413 0.0328356586 1.6770705 -0.17385383 0.00808082614 1.66958535 -0.180384457 0.0164678693 1.66959202 -0.171823308 0.0143713653 1.66958082 -0.141336665 0.0178083796 1.67703724 -0.124201506 0.0173539128 1.6770134 -0.137108505 0.0252666511 1.67702937 -0.171756878 0.00533897942 1.66958833 -0.165859222 0.00507831248 1.66957486 -0.157884419 -0.00107382936 1.66956484 -0.165916964 0.0206917003 1.67707086 -0.168566361 0.0132179819 1.67707646 -0.158517405 0.014395345 1.67706203 -0.157884419 -0.00107382936 1.66956484 -0.165859222 0.00507831248 1.66957486 -0.163018003 0.00986434799 1.66956961 -0.163018003 0.00986434799 1.66956961 -0.165041357 0.0142018553 1.66957128 -0.144295797 -0.000462437369 1.66948867 -0.17671065 0.0103623318 1.67708874 -0.168566361 0.0132179819 1.67707646 -0.165916964 0.0206917003 1.67707086 -0.157884419 -0.00107382936 1.66956484 -0.163018003 0.00986434799 1.66956961 -0.144295797 -0.000462437369 1.66948867 -0.141336665 0.0178083796 1.67703724 -0.142541438 0.000169513412 1.67704332 -0.129009083 0.00935969595 1.67702234 -0.142320737 -0.000823807379 1.67604256 -0.149266511 -0.0023651931 1.67055273 -0.140247762 -0.000597012113 1.6695013 -0.168566361 0.0132179819 1.67707646 -0.165677145 0.0115043763 1.67707288 -0.158517405 0.014395345 1.67706203 -0.127366424 0.0343214385 1.67694175 -0.124532282 0.031792786 1.67693281 -0.123558074 0.0390631706 1.67700696 -0.142320737 -0.000823807379 1.67604256 -0.157051891 -0.00214037928 1.67606449 -0.149266511 -0.0023651931 1.67055273 -0.13838996 0.0361480154 1.67702854 -0.137108505 0.0252666511 1.67702937 -0.130122691 0.0329982378 1.67695713 -0.157051891 -0.00214037928 1.67606449 -0.155433789 -0.00233708811 1.67056191 -0.149266511 -0.0023651931 1.67055273 -0.157051891 -0.00214037928 1.67606449 -0.165642053 0.000406215549 1.67607594 -0.155433789 -0.00233708811 1.67056191 -0.165642053 0.000406215549 1.67607594 -0.164123714 -0.000248530909 1.67057347 -0.155433789 -0.00233708811 1.67056191 -0.165642053 0.000406215549 1.67607594 -0.173169002 0.00526613742 1.67608535 -0.164123714 -0.000248530909 1.67057347 -0.173169002 0.00526613742 1.67608535 -0.171878368 0.00419492321 1.67058313 -0.164123714 -0.000248530909 1.67057347 -0.17671065 0.0103623318 1.67708874 -0.171713606 0.00899985991 1.67708206 -0.168566361 0.0132179819 1.67707646 -0.173169002 0.00526613742 1.67608535 -0.179024607 0.012047682 1.67609179 -0.171878368 0.00419492321 1.67058313 -0.179024607 0.012047682 1.67609179 -0.178074077 0.0106359608 1.67059016 -0.171878368 0.00419492321 1.67058313 -0.167099506 0.00694811903 1.6770761 -0.162640572 0.000185009339 1.67707157 -0.165677145 0.0115043763 1.67707288 -0.150902703 0.0447854809 1.67704368 -0.143472344 0.0420416929 1.67703402 -0.139256939 0.049961336 1.67702615 -0.179024607 0.012047682 1.67609179 -0.182735831 0.0202028193 1.67609489 -0.178074077 0.0106359608 1.67059016 -0.182735831 0.0202028193 1.67609489 -0.182213247 0.0185567643 1.6705941 -0.178074077 0.0106359608 1.67059016 -0.182735831 0.0202028193 1.67609489 -0.183963105 0.0273206215 1.67059445 -0.182213247 0.0185567643 1.6705941 -0.165820763 0.00800228491 1.67307389 -0.17046243 0.0071489769 1.67308068 -0.167099506 0.00694811903 1.6770761 -0.182735831 0.0202028193 1.67609489 -0.184008166 0.0369542614 1.67609203 -0.183963105 0.0273206215 1.67059445 -0.171709299 0.00900179986 1.67308199 -0.170553967 0.0125001268 1.67307949 -0.171713606 0.00899985991 1.67708206 -0.184008166 0.0369542614 1.67609203 -0.183810249 0.0359607115 1.66955996 -0.183963105 0.0273206215 1.67059445 -0.167099506 0.00694811903 1.6770761 -0.17046243 0.0071489769 1.67308068 -0.171713606 0.00899985991 1.67708206 -0.121989921 0.0252367463 1.66922092 -0.135048389 0.0428148992 1.66952217 -0.124590464 0.0416305028 1.66950762 -0.17046243 0.0071489769 1.67308068 -0.171709299 0.00900179986 1.67308199 -0.171713606 0.00899985991 1.67708206 -0.124590464 0.0416305028 1.66950762 -0.135048389 0.0428148992 1.66952217 -0.130973145 0.0472711213 1.66951525 -0.139027089 0.0461892933 1.6730268 -0.138329685 0.0508934781 1.67302465 -0.139256939 0.049961336 1.67702615 -0.134180397 0.04570169 1.67702007 -0.134274483 0.0456244834 1.67302036 -0.136871666 0.0448859371 1.67702401 -0.134274483 0.0456244834 1.67302036 -0.139027089 0.0461892933 1.6730268 -0.136871666 0.0448859371 1.67702401 -0.124590464 0.0416305028 1.66950762 -0.130973145 0.0472711213 1.66951525 -0.131121248 0.0500175133 1.66951489 -0.121989921 0.0252367463 1.66922092 -0.141025975 0.0451266207 1.66952991 -0.135048389 0.0428148992 1.66952217 -0.121989921 0.0252367463 1.66922092 -0.160681352 0.0585522018 1.66949368 -0.141025975 0.0451266207 1.66952991 -0.141025975 0.0451266207 1.66952991 -0.160681352 0.0585522018 1.66949368 -0.141934037 0.047525879 1.66953063 -0.136871666 0.0448859371 1.67702401 -0.139027089 0.0461892933 1.6730268 -0.139256939 0.049961336 1.67702615 -0.141934037 0.047525879 1.66953063 -0.160681352 0.0585522018 1.66949368 -0.147090435 0.0591724515 1.66953468 -0.141934037 0.047525879 1.66953063 -0.147090435 0.0591724515 1.66953468 -0.139115453 0.0530204736 1.66952527 -0.185560405 0.0402676575 1.67609346 -0.173395857 0.0527341291 1.67607343 -0.169845313 0.0600428134 1.67606652 -0.139115453 0.0530204736 1.66952527 -0.147090435 0.0591724515 1.66953468 -0.133217901 0.0527596921 1.6695224 </float_array>
          <technique_common>
            <accessor count="828" offset="0" source="#mesh_0-positions-array" stride="3">
              <param name="X" type="float" />
              <param name="Y" type="float" />
              <param name="Z" type="float" />
            </accessor>
          </technique_common>
        </source>
        <vertices id="mesh_0-vertices">
          <input semantic="POSITION" source="#mesh_0-positions" />
        </vertices>
        <polylist count="276" material="defaultMaterial">
          <input offset="0" semantic="VERTEX" source="#mesh_0-vertices" />
          <vcount>3 3 3 3 3 3 3 3 3 3 3 3 3 3 3 3 3 3 3 3 3 3 3 3 3 3 3 3 3 3 3 3 3 3 3 3 3 3 3 3 3 3 3 3 3 3 3 3 3 3 3 3 3 3 3 3 3 3 3 3 3 3 3 3 3 3 3 3 3 3 3 3 3 3 3 3 3 3 3 3 3 3 3 3 3 3 3 3 3 3 3 3 3 3 3 3 3 3 3 3 3 3 3 3 3 3 3 3 3 3 3 3 3 3 3 3 3 3 3 3 3 3 3 3 3 3 3 3 3 3 3 3 3 3 3 3 3 3 3 3 3 3 3 3 3 3 3 3 3 3 3 3 3 3 3 3 3 3 3 3 3 3 3 3 3 3 3 3 3 3 3 3 3 3 3 3 3 3 3 3 3 3 3 3 3 3 3 3 3 3 3 3 3 3 3 3 3 3 3 3 3 3 3 3 3 3 3 3 3 3 3 3 3 3 3 3 3 3 3 3 3 3 3 3 3 3 3 3 3 3 3 3 3 3 3 3 3 3 3 3 3 3 3 3 3 3 3 3 3 3 3 3 3 3 3 3 3 3 3 3 3 3 3 3 3 3 3 3 3 3 3 3 3 3 3 3 </vcount>
          <p>0 1 2 3 4 5 6 7 8 9 10 11 12 13 14 15 16 17 18 19 20 21 22 23 24 25 26 27 28 29 30 31 32 33 34 35 36 37 38 39 40 41 42 43 44 45 46 47 48 49 50 51 52 53 54 55 56 57 58 59 60 61 62 63 64 65 66 67 68 69 70 71 72 73 74 75 76 77 78 79 80 81 82 83 84 85 86 87 88 89 90 91 92 93 94 95 96 97 98 99 100 101 102 103 104 105 106 107 108 109 110 111 112 113 114 115 116 117 118 119 120 121 122 123 124 125 126 127 128 129 130 131 132 133 134 135 136 137 138 139 140 141 142 143 144 145 146 147 148 149 150 151 152 153 154 155 156 157 158 159 160 161 162 163 164 165 166 167 168 169 170 171 172 173 174 175 176 177 178 179 180 181 182 183 184 185 186 187 188 189 190 191 192 193 194 195 196 197 198 199 200 201 202 203 204 205 206 207 208 209 210 211 212 213 214 215 216 217 218 219 220 221 222 223 224 225 226 227 228 229 230 231 232 233 234 235 236 237 238 239 240 241 242 243 244 245 246 247 248 249 250 251 252 253 254 255 256 257 258 259 260 261 262 263 264 265 266 267 268 269 270 271 272 273 274 275 276 277 278 279 280 281 282 283 284 285 286 287 288 289 290 291 292 293 294 295 296 297 298 299 300 301 302 303 304 305 306 307 308 309 310 311 312 313 314 315 316 317 318 319 320 321 322 323 324 325 326 327 328 329 330 331 332 333 334 335 336 337 338 339 340 341 342 343 344 345 346 347 348 349 350 351 352 353 354 355 356 357 358 359 360 361 362 363 364 365 366 367 368 369 370 371 372 373 374 375 376 377 378 379 380 381 382 383 384 385 386 387 388 389 390 391 392 393 394 395 396 397 398 399 400 401 402 403 404 405 406 407 408 409 410 411 412 413 414 415 416 417 418 419 420 421 422 423 424 425 426 427 428 429 430 431 432 433 434 435 436 437 438 439 440 441 442 443 444 445 446 447 448 449 450 451 452 453 454 455 456 457 458 459 460 461 462 463 464 465 466 467 468 469 470 471 472 473 474 475 476 477 478 479 480 481 482 483 484 485 486 487 488 489 490 491 492 493 494 495 496 497 498 499 500 501 502 503 504 505 506 507 508 509 510 511 512 513 514 515 516 517 518 519 520 521 522 523 524 525 526 527 528 529 530 531 532 533 534 535 536 537 538 539 540 541 542 543 544 545 546 547 548 549 550 551 552 553 554 555 556 557 558 559 560 561 562 563 564 565 566 567 568 569 570 571 572 573 574 575 576 577 578 579 580 581 582 583 584 585 586 587 588 589 590 591 592 593 594 595 596 597 598 599 600 601 602 603 604 605 606 607 608 609 610 611 612 613 614 615 616 617 618 619 620 621 622 623 624 625 626 627 628 629 630 631 632 633 634 635 636 637 638 639 640 641 642 643 644 645 646 647 648 649 650 651 652 653 654 655 656 657 658 659 660 661 662 663 664 665 666 667 668 669 670 671 672 673 674 675 676 677 678 679 680 681 682 683 684 685 686 687 688 689 690 691 692 693 694 695 696 697 698 699 700 701 702 703 704 705 706 707 708 709 710 711 712 713 714 715 716 717 718 719 720 721 722 723 724 725 726 727 728 729 730 731 732 733 734 735 736 737 738 739 740 741 742 743 744 745 746 747 748 749 750 751 752 753 754 755 756 757 758 759 760 761 762 763 764 765 766 767 768 769 770 771 772 773 774 775 776 777 778 779 780 781 782 783 784 785 786 787 788 789 790 791 792 793 794 795 796 797 798 799 800 801 802 803 804 805 806 807 808 809 810 811 812 813 814 815 816 817 818 819 820 821 822 823 824 825 826 827 </p>
        </polylist>
      </mesh>
    </geometry>
  </library_geometries>
  <library_controllers>
  </library_controllers>
  <library_visual_scenes>
    <visual_scene id="Scene" name="Scene">
      <node id="node" name="" type="NODE">
        <matrix sid="matrix">1 0 0 0 0 1 0 0 0 0 1 0 0 0 0 1</matrix>
        <instance_geometry url="#mesh_0">
          <bind_material>
            <technique_common>
              <instance_material symbol="defaultMaterial" target="#material_0">
              </instance_material>
            </technique_common>
          </bind_material>
        </instance_geometry>
      </node>
    </visual_scene>
  </library_visual_scenes>
  <scene>
    <instance_visual_scene url="#Scene" />
  </scene>
</COLLADA>
