<?xml version="1.0" encoding="UTF-8" standalone="no" ?>
<COLLADA xmlns="http://www.collada.org/2005/11/COLLADASchema" version="1.4.1">
  <asset>
    <contributor>
      <author>Assimp</author>
      <authoring_tool>Assimp Exporter</authoring_tool>
    </contributor>
    <created>2026-04-22T16:09:44</created>
    <modified>2026-04-22T16:09:44</modified>
    <unit name="meter" meter="1" />
    <up_axis>Y_UP</up_axis>
  </asset>
  <library_images>
  </library_images>
  <library_effects>
    <effect id="material_0-fx" name="">
      <profile_COMMON>
        <technique sid="standard">
          <phong>
            <emission>
              <color sid="emission">0   0   0   4.19744942e-41</color>
            </emission>
            <ambient>
              <color sid="ambient">0.400000006   0.400000006   0.400000006   4.19730929e-41</color>
            </ambient>
            <diffuse>
              <color sid="diffuse">0.400000006   0.400000006   0.400000006   4.19730929e-41</color>
            </diffuse>
            <specular>
              <color sid="specular">0.25   0.25   0.25   4.19744942e-41</color>
            </specular>
          </phong>
        </technique>
      </profile_COMMON>
    </effect>
  </library_effects>
  <library_materials>
    <material id="material_0" name="">
      <instance_effect url="#material_0-fx"/>
    </material>
  </library_materials>
  <library_geometries>
    <geometry id="mesh_0" name="" >
      <mesh>
        <source id="mesh_0-positions" name="mesh_0-positions">
          <float_array id="mesh_0-positions-array" count="3240"> -0.195119813 0.0974059254 1.34158099 -0.205173254 0.0962549597 1.34184182 -0.206779942 0.0963976681 1.34730422 -0.195285439 0.0928059444 1.34340668 -0.204583481 0.0970965326 1.34966886 -0.194110394 0.0980680212 1.34444869 -0.205017373 0.0929184854 1.34868181 -0.204583481 0.0970965326 1.34966886 -0.195285439 0.0928059444 1.34340668 -0.206779942 0.0963976681 1.34730422 -0.204583481 0.0970965326 1.34966886 -0.205017373 0.0929184854 1.34868181 -0.207380012 0.0920847356 1.34583414 -0.206779942 0.0963976681 1.34730422 -0.205017373 0.0929184854 1.34868181 -0.221641362 0.0951236859 1.36241364 -0.222939104 0.0946705043 1.35783756 -0.225428373 0.0947909355 1.37029958 -0.195119813 0.0974059254 1.34158099 -0.189854041 0.0975655392 1.33785772 -0.205173254 0.0962549597 1.34184182 -0.19660753 0.0920327827 1.34018743 -0.195119813 0.0974059254 1.34158099 -0.207380012 0.0920847356 1.34583414 -0.221641362 0.0951236859 1.36241364 -0.213257447 0.0957091376 1.35222661 -0.222939104 0.0946705043 1.35783756 -0.213257447 0.0957091376 1.35222661 -0.205173254 0.0962549597 1.34184182 -0.222939104 0.0946705043 1.35783756 -0.225428373 0.0947909355 1.37029958 -0.222939104 0.0946705043 1.35783756 -0.231776491 0.0939934924 1.38197434 -0.207380012 0.0920847356 1.34583414 -0.195119813 0.0974059254 1.34158099 -0.206779942 0.0963976681 1.34730422 -0.194110394 0.0980680212 1.34444869 -0.195119813 0.0974059254 1.34158099 -0.19660753 0.0920327827 1.34018743 -0.195285439 0.0928059444 1.34340668 -0.194110394 0.0980680212 1.34444869 -0.19660753 0.0920327827 1.34018743 -0.228297487 0.0944798812 1.38183129 -0.225428373 0.0947909355 1.37029958 -0.231776491 0.0939934924 1.38197434 -0.212686375 0.0921258181 1.35131776 -0.213257447 0.0957091376 1.35222661 -0.219631702 0.0910807028 1.3571291 -0.219631702 0.0910807028 1.3571291 -0.213257447 0.0957091376 1.35222661 -0.221641362 0.0951236859 1.36241364 -0.219631702 0.0910807028 1.3571291 -0.221641362 0.0951236859 1.36241364 -0.222465336 0.0906323716 1.3622787 -0.211629659 0.0924653262 1.35384178 -0.210449085 0.0979091227 1.35608256 -0.212686375 0.0921258181 1.35131776 -0.212686375 0.0921258181 1.35131776 -0.210449085 0.0979091227 1.35608256 -0.213257447 0.0957091376 1.35222661 -0.211629659 0.0924653262 1.35384178 -0.21873711 0.0958775431 1.36445689 -0.210449085 0.0979091227 1.35608256 -0.219611853 0.0907802135 1.36326694 -0.21873711 0.0958775431 1.36445689 -0.211629659 0.0924653262 1.35384178 -0.222465336 0.0906323716 1.3622787 -0.221641362 0.0951236859 1.36241364 -0.21873711 0.0958775431 1.36445689 -0.222465336 0.0906323716 1.3622787 -0.21873711 0.0958775431 1.36445689 -0.219611853 0.0907802135 1.36326694 -0.223371014 0.0894714743 1.37035453 -0.225185871 0.0952957794 1.38314974 -0.221118152 0.0966925099 1.37189162 -0.226450518 0.0881059244 1.38131773 -0.225185871 0.0952957794 1.38314974 -0.223371014 0.0894714743 1.37035453 -0.223371014 0.0894714743 1.37035453 -0.221118152 0.0966925099 1.37189162 -0.225428373 0.0947909355 1.37029958 -0.226745009 0.0945420116 1.38350403 -0.228297487 0.0944798812 1.38183129 -0.231776491 0.0939934924 1.38197434 -0.223371014 0.0894714743 1.37035453 -0.225428373 0.0947909355 1.37029958 -0.226361573 0.0896862149 1.36898994 -0.182893798 0.0986106396 1.34141898 -0.189854041 0.0975655392 1.33785772 -0.195119813 0.0974059254 1.34158099 -0.226361573 0.0896862149 1.36898994 -0.225428373 0.0947909355 1.37029958 -0.228297487 0.0944798812 1.38183129 -0.226361573 0.0896862149 1.36898994 -0.228297487 0.0944798812 1.38183129 -0.229581267 0.0885292292 1.38062513 -0.223639697 0.0951434299 1.39887071 -0.226745009 0.0945420116 1.38350403 -0.231776491 0.0939934924 1.38197434 -0.226450518 0.0881059244 1.38131773 -0.226745009 0.0945420116 1.38350403 -0.225185871 0.0952957794 1.38314974 -0.213257447 0.0957091376 1.35222661 -0.206779942 0.0963976681 1.34730422 -0.205173254 0.0962549597 1.34184182 -0.213257447 0.0957091376 1.35222661 -0.204583481 0.0970965326 1.34966886 -0.206779942 0.0963976681 1.34730422 -0.226976395 0.0944995359 1.38341415 -0.229581267 0.0885292292 1.38062513 -0.228297487 0.0944798812 1.38183129 -0.226745009 0.0945420116 1.38350403 -0.229581267 0.0885292292 1.38062513 -0.22697632 0.094499588 1.38341415 -0.230935827 0.0938974246 1.38781345 -0.220630288 0.0946221799 1.40609014 -0.223639697 0.0951434299 1.39887071 -0.22697632 0.094499588 1.38341415 -0.229581267 0.0885292292 1.38062513 -0.226976395 0.0944995359 1.38341415 -0.229581267 0.0885292292 1.38062513 -0.226745009 0.0945420116 1.38350403 -0.226450518 0.0881059244 1.38131773 -0.228297487 0.0944798812 1.38183129 -0.226745009 0.0945420116 1.38350403 -0.226976395 0.0944995359 1.38341415 -0.153789565 0.0951327309 1.44997776 -0.164878547 0.0941300318 1.45136404 -0.151146606 0.0936604962 1.44649494 -0.229253009 0.0893889517 1.36607647 -0.221004188 0.0902693495 1.35296416 -0.219631702 0.0910807028 1.3571291 -0.151146606 0.0936604962 1.44649494 -0.138500333 0.0965527445 1.44367349 -0.153789565 0.0951327309 1.44997776 -0.195941016 0.0921975151 1.35110402 -0.176883772 0.0927973613 1.34619248 -0.180300966 0.0915575549 1.34944141 -0.231776491 0.0939934924 1.38197434 -0.230935827 0.0938974246 1.38781345 -0.223639697 0.0951434299 1.39887071 -0.151146606 0.0936604962 1.44649494 -0.136478454 0.094786033 1.43954837 -0.138500333 0.0965527445 1.44367349 -0.209209323 0.0893271565 1.36110353 -0.218405753 0.088432759 1.36875689 -0.219611853 0.0907802135 1.36326694 -0.205017373 0.0929184854 1.34868181 -0.19660753 0.0920327827 1.34018743 -0.177439556 0.0931366086 1.34044576 -0.205017373 0.0929184854 1.34868181 -0.177439556 0.0931366086 1.34044576 -0.195941016 0.0921975151 1.35110402 -0.219631702 0.0910807028 1.3571291 -0.221004188 0.0902693495 1.35296416 -0.212686375 0.0921258181 1.35131776 -0.123782501 0.0960083827 1.42566788 -0.12018504 0.0979855135 1.42461956 -0.126569062 0.0976405665 1.43367457 -0.23236759 0.0887131542 1.38792205 -0.229581267 0.0885292292 1.38062513 -0.225414693 0.0876688883 1.39080226 -0.228532344 0.0941110924 1.36835742 -0.231776491 0.0939934924 1.38197434 -0.222939104 0.0946705043 1.35783756 -0.217520639 0.095243752 1.35131109 -0.222939104 0.0946705043 1.35783756 -0.205173254 0.0962549597 1.34184182 -0.19660753 0.0920327827 1.34018743 -0.189815596 0.0925876051 1.33598197 -0.177439556 0.0931366086 1.34044576 -0.23236759 0.0887131542 1.38792205 -0.233455107 0.0888048783 1.37883079 -0.229581267 0.0885292292 1.38062513 -0.219611853 0.0907802135 1.36326694 -0.211629659 0.0924653262 1.35384178 -0.195941016 0.0921975151 1.35110402 -0.212686375 0.0921258181 1.35131776 -0.221004188 0.0902693495 1.35296416 -0.21354048 0.0909147933 1.34546888 -0.195941016 0.0921975151 1.35110402 -0.177439556 0.0931366086 1.34044576 -0.176883772 0.0927973613 1.34619248 -0.219611853 0.0907802135 1.36326694 -0.195941016 0.0921975151 1.35110402 -0.209209323 0.0893271565 1.36110353 -0.123782501 0.0960083827 1.42566788 -0.115771711 0.0984527171 1.41446257 -0.12018504 0.0979855135 1.42461956 -0.211629659 0.0924653262 1.35384178 -0.212686375 0.0921258181 1.35131776 -0.205017373 0.0929184854 1.34868181 -0.180300966 0.0915575549 1.34944141 -0.176883772 0.0927973613 1.34619248 -0.162641734 0.0930444151 1.34773922 -0.229581267 0.0885292292 1.38062513 -0.226450518 0.0881059244 1.38131773 -0.225414693 0.0876688883 1.39080226 -0.233455107 0.0888048783 1.37883079 -0.226361573 0.0896862149 1.36898994 -0.229581267 0.0885292292 1.38062513 -0.115771711 0.0984527171 1.41446257 -0.123782501 0.0960083827 1.42566788 -0.116169944 0.0967070609 1.40348697 -0.212686375 0.0921258181 1.35131776 -0.207380012 0.0920847356 1.34583414 -0.205017373 0.0929184854 1.34868181 -0.226450518 0.0881059244 1.38131773 -0.224421799 0.087665759 1.37874568 -0.225414693 0.0876688883 1.39080226 -0.181987837 0.100592084 1.34405518 -0.170300454 0.0990410894 1.34398961 -0.189854041 0.0975655392 1.33785772 -0.182893798 0.0986106396 1.34141898 -0.181987837 0.100592084 1.34405518 -0.189854041 0.0975655392 1.33785772 -0.226450518 0.0881059244 1.38131773 -0.223371014 0.0894714743 1.37035453 -0.224421799 0.087665759 1.37874568 -0.162641734 0.0930444151 1.34773922 -0.176883772 0.0927973613 1.34619248 -0.159032211 0.0948816761 1.34514821 -0.211629659 0.0924653262 1.35384178 -0.205017373 0.0929184854 1.34868181 -0.195941016 0.0921975151 1.35110402 -0.115771711 0.0984527171 1.41446257 -0.116169944 0.0967070609 1.40348697 -0.1142525 0.0987796336 1.40815306 -0.176883772 0.0927973613 1.34619248 -0.177439556 0.0931366086 1.34044576 -0.159032211 0.0948816761 1.34514821 -0.116169944 0.0967070609 1.40348697 -0.113395266 0.0986591056 1.39945769 -0.1142525 0.0987796336 1.40815306 -0.209209323 0.0893271565 1.36110353 -0.195941016 0.0921975151 1.35110402 -0.193420678 0.090623863 1.35341239 -0.212686375 0.0921258181 1.35131776 -0.21354048 0.0909147933 1.34546888 -0.207380012 0.0920847356 1.34583414 -0.116169944 0.0967070609 1.40348697 -0.113627724 0.0986228362 1.39386451 -0.113395266 0.0986591056 1.39945769 -0.206381083 0.112666331 1.36248481 -0.1996319 0.113638416 1.35694098 -0.210449085 0.0979091227 1.35608256 -0.162641734 0.0930444151 1.34773922 -0.159032211 0.0948816761 1.34514821 -0.149039701 0.0955694541 1.34858644 -0.14754656 0.0942998677 1.3512795 -0.162641734 0.0930444151 1.34773922 -0.149039701 0.0955694541 1.34858644 -0.11935965 0.0964080989 1.38051319 -0.118024133 0.0984063745 1.37714291 -0.113627724 0.0986228362 1.39386451 -0.14754656 0.0942998677 1.3512795 -0.149039701 0.0955694541 1.34858644 -0.134907126 0.0968639776 1.35628414 -0.14754656 0.0942998677 1.3512795 -0.134907126 0.0968639776 1.35628414 -0.133719966 0.0950375199 1.35909927 -0.143119752 0.113961153 1.35618031 -0.138314277 0.116399392 1.35998833 -0.134907126 0.0968639776 1.35628414 -0.133719966 0.0950375199 1.35909927 -0.134907126 0.0968639776 1.35628414 -0.131288797 0.0971411988 1.35919309 -0.136478454 0.094786033 1.43954837 -0.132767454 0.0971965417 1.43962133 -0.138500333 0.0965527445 1.44367349 -0.233455107 0.0888048783 1.37883079 -0.229253009 0.0893889517 1.36607647 -0.226361573 0.0896862149 1.36898994 -0.11935965 0.0964080989 1.38051319 -0.1294543 0.0955336988 1.36457396 -0.122453846 0.0978828073 1.36921906 -0.131288797 0.0971411988 1.35919309 -0.1294543 0.0955336988 1.36457396 -0.133719966 0.0950375199 1.35909927 -0.11935965 0.0964080989 1.38051319 -0.122453846 0.0978828073 1.36921906 -0.118024133 0.0984063745 1.37714291 -0.149039701 0.0955694541 1.34858644 -0.143119752 0.113961153 1.35618031 -0.134907126 0.0968639776 1.35628414 -0.180601031 0.115991674 1.35035241 -0.194110394 0.0980680212 1.34444869 -0.194316298 0.0990457162 1.34577692 -0.1294543 0.0955336988 1.36457396 -0.131288797 0.0971411988 1.35919309 -0.122453846 0.0978828073 1.36921906 -0.132767454 0.0971965417 1.43962133 -0.136478454 0.094786033 1.43954837 -0.126569062 0.0976405665 1.43367457 -0.226361573 0.0896862149 1.36898994 -0.229253009 0.0893889517 1.36607647 -0.222465336 0.0906323716 1.3622787 -0.2050239 0.0906713381 1.433586 -0.212222651 0.0903426334 1.42425072 -0.206680939 0.0891174525 1.42891848 -0.223371014 0.0894714743 1.37035453 -0.218405753 0.088432759 1.36875689 -0.224421799 0.087665759 1.37874568 -0.150288358 0.114006661 1.3530575 -0.143119752 0.113961153 1.35618031 -0.149039701 0.0955694541 1.34858644 -0.2050239 0.0906713381 1.433586 -0.206680939 0.0891174525 1.42891848 -0.195708767 0.091634497 1.44201541 -0.216712773 0.0899016634 1.41655886 -0.206680939 0.0891174525 1.42891848 -0.212222651 0.0903426334 1.42425072 -0.21354048 0.0909147933 1.34546888 -0.19660753 0.0920327827 1.34018743 -0.207380012 0.0920847356 1.34583414 -0.1996319 0.113638416 1.35694098 -0.193832517 0.114333697 1.35349905 -0.204583481 0.0970965326 1.34966886 -0.126569062 0.0976405665 1.43367457 -0.136478454 0.094786033 1.43954837 -0.123782501 0.0960083827 1.42566788 -0.159032211 0.0948816761 1.34514821 -0.150288358 0.114006661 1.3530575 -0.149039701 0.0955694541 1.34858644 -0.23236759 0.0887131542 1.38792205 -0.225414693 0.0876688883 1.39080226 -0.216712773 0.0899016634 1.41655886 -0.1996319 0.113638416 1.35694098 -0.204583481 0.0970965326 1.34966886 -0.210449085 0.0979091227 1.35608256 -0.195708767 0.091634497 1.44201541 -0.206680939 0.0891174525 1.42891848 -0.181117997 0.0910388008 1.44618487 -0.182719037 0.0926104411 1.44857681 -0.195708767 0.091634497 1.44201541 -0.181117997 0.0910388008 1.44618487 -0.195941016 0.0921975151 1.35110402 -0.180300966 0.0915575549 1.34944141 -0.193420678 0.090623863 1.35341239 -0.182719037 0.0926104411 1.44857681 -0.181117997 0.0910388008 1.44618487 -0.17457366 0.0933376327 1.45063114 -0.210449085 0.0979091227 1.35608256 -0.21873711 0.0958775431 1.36445689 -0.206381083 0.112666331 1.36248481 -0.19660753 0.0920327827 1.34018743 -0.21354048 0.0909147933 1.34546888 -0.19846113 0.091786772 1.3362087 -0.216712773 0.0899016634 1.41655886 -0.225414693 0.0876688883 1.39080226 -0.206680939 0.0891174525 1.42891848 -0.219611853 0.0907802135 1.36326694 -0.218405753 0.088432759 1.36875689 -0.223371014 0.0894714743 1.37035453 -0.219611853 0.0907802135 1.36326694 -0.223371014 0.0894714743 1.37035453 -0.226361573 0.0896862149 1.36898994 -0.140251249 0.122094847 1.3613584 -0.138314277 0.116399392 1.35998833 -0.143119752 0.113961153 1.35618031 -0.219611853 0.0907802135 1.36326694 -0.226361573 0.0896862149 1.36898994 -0.222465336 0.0906323716 1.3622787 -0.195285439 0.0928059444 1.34340668 -0.19660753 0.0920327827 1.34018743 -0.205017373 0.0929184854 1.34868181 -0.222465336 0.0906323716 1.3622787 -0.229253009 0.0893889517 1.36607647 -0.219631702 0.0910807028 1.3571291 -0.152250856 0.120207749 1.35481787 -0.143119752 0.113961153 1.35618031 -0.150288358 0.114006661 1.3530575 -0.19846113 0.091786772 1.3362087 -0.189815596 0.0925876051 1.33598197 -0.19660753 0.0920327827 1.34018743 -0.167427838 0.0884937122 1.34692466 -0.180300966 0.0915575549 1.34944141 -0.162641734 0.0930444151 1.34773922 -0.161729082 0.11145971 1.34914076 -0.150288358 0.114006661 1.3530575 -0.159032211 0.0948816761 1.34514821 -0.162641734 0.0930444151 1.34773922 -0.14754656 0.0942998677 1.3512795 -0.167427838 0.0884937122 1.34692466 -0.14754656 0.0942998677 1.3512795 -0.1294543 0.0955336988 1.36457396 -0.164630249 0.089498952 1.34812832 -0.133719966 0.0950375199 1.35909927 -0.1294543 0.0955336988 1.36457396 -0.14754656 0.0942998677 1.3512795 -0.14754656 0.0942998677 1.3512795 -0.164630249 0.089498952 1.34812832 -0.167427838 0.0884937122 1.34692466 -0.161729082 0.11145971 1.34914076 -0.152250856 0.120207749 1.35481787 -0.150288358 0.114006661 1.3530575 -0.167427838 0.0884937122 1.34692466 -0.188501269 0.0806526318 1.3487767 -0.188936576 0.0812397823 1.34786463 -0.167427838 0.0884937122 1.34692466 -0.164630249 0.089498952 1.34812832 -0.188501269 0.0806526318 1.3487767 -0.113627724 0.0986228362 1.39386451 -0.116169944 0.0967070609 1.40348697 -0.11935965 0.0964080989 1.38051319 -0.161729082 0.11145971 1.34914076 -0.177439556 0.0931366086 1.34044576 -0.170300454 0.0990410894 1.34398961 -0.161729082 0.11145971 1.34914076 -0.159032211 0.0948816761 1.34514821 -0.177439556 0.0931366086 1.34044576 -0.161729082 0.11145971 1.34914076 -0.167151764 0.117889799 1.3509208 -0.152250856 0.120207749 1.35481787 -0.167151764 0.117889799 1.3509208 -0.170300454 0.0990410894 1.34398961 -0.181987837 0.100592084 1.34405518 -0.136478454 0.094786033 1.43954837 -0.151146606 0.0936604962 1.44649494 -0.123782501 0.0960083827 1.42566788 -0.181117997 0.0910388008 1.44618487 -0.151146606 0.0936604962 1.44649494 -0.17457366 0.0933376327 1.45063114 -0.167151764 0.117889799 1.3509208 -0.161729082 0.11145971 1.34914076 -0.170300454 0.0990410894 1.34398961 -0.151146606 0.0936604962 1.44649494 -0.164878547 0.0941300318 1.45136404 -0.17457366 0.0933376327 1.45063114 -0.20034717 0.0840522721 1.35306168 -0.193420678 0.090623863 1.35341239 -0.180300966 0.0915575549 1.34944141 -0.143119752 0.113961153 1.35618031 -0.152250856 0.120207749 1.35481787 -0.140251249 0.122094847 1.3613584 -0.193420678 0.090623863 1.35341239 -0.20034717 0.0840522721 1.35306168 -0.209209323 0.0893271565 1.36110353 -0.20034717 0.0840522721 1.35306168 -0.202993348 0.0802442953 1.35059321 -0.211686149 0.0834208578 1.35869026 -0.20034717 0.0840522721 1.35306168 -0.211686149 0.0834208578 1.35869026 -0.209209323 0.0893271565 1.36110353 -0.211686149 0.0834208578 1.35869026 -0.218405753 0.088432759 1.36875689 -0.209209323 0.0893271565 1.36110353 -0.227887794 0.0776565745 1.37835681 -0.225414693 0.0876688883 1.39080226 -0.224421799 0.087665759 1.37874568 -0.224516988 0.0818272159 1.39754069 -0.218899742 0.0880686939 1.4100281 -0.225414693 0.0876688883 1.39080226 -0.224516988 0.0818272159 1.39754069 -0.219135299 0.0852664113 1.40774608 -0.218899742 0.0880686939 1.4100281 -0.227887794 0.0776565745 1.37835681 -0.224516988 0.0818272159 1.39754069 -0.225414693 0.0876688883 1.39080226 -0.194110394 0.0980680212 1.34444869 -0.180601031 0.115991674 1.35035241 -0.181987837 0.100592084 1.34405518 -0.180601031 0.115991674 1.35035241 -0.167151764 0.117889799 1.3509208 -0.181987837 0.100592084 1.34405518 -0.224152684 0.0783168077 1.36651325 -0.211686149 0.0834208578 1.35869026 -0.212186724 0.0795004442 1.35427892 -0.219135299 0.0852664113 1.40774608 -0.206680939 0.0891174525 1.42891848 -0.218899742 0.0880686939 1.4100281 -0.224152684 0.0783168077 1.36651325 -0.218405753 0.088432759 1.36875689 -0.211686149 0.0834208578 1.35869026 -0.224152684 0.0783168077 1.36651325 -0.224421799 0.087665759 1.37874568 -0.218405753 0.088432759 1.36875689 -0.212186724 0.0795004442 1.35427892 -0.211686149 0.0834208578 1.35869026 -0.202993348 0.0802442953 1.35059321 -0.167427838 0.0884937122 1.34692466 -0.188936576 0.0812397823 1.34786463 -0.180300966 0.0915575549 1.34944141 -0.188936576 0.0812397823 1.34786463 -0.20034717 0.0840522721 1.35306168 -0.180300966 0.0915575549 1.34944141 -0.193832517 0.114333697 1.35349905 -0.180601031 0.115991674 1.35035241 -0.194316298 0.0990457162 1.34577692 -0.202993348 0.0802442953 1.35059321 -0.20034717 0.0840522721 1.35306168 -0.188936576 0.0812397823 1.34786463 -0.188936576 0.0812397823 1.34786463 -0.188501269 0.0806526318 1.3487767 -0.202993348 0.0802442953 1.35059321 -0.193832517 0.114333697 1.35349905 -0.194316298 0.0990457162 1.34577692 -0.204583481 0.0970965326 1.34966886 -0.188501269 0.0806526318 1.3487767 -0.204121977 0.079258725 1.35161543 -0.202993348 0.0802442953 1.35059321 -0.202993348 0.0802442953 1.35059321 -0.204121977 0.079258725 1.35161543 -0.212186724 0.0795004442 1.35427892 -0.212186724 0.0795004442 1.35427892 -0.204121977 0.079258725 1.35161543 -0.221756473 0.0777162164 1.36415184 -0.227887794 0.0776565745 1.37835681 -0.221756473 0.0777162164 1.36415184 -0.225672618 0.0788580254 1.38868475 -0.227887794 0.0776565745 1.37835681 -0.225672618 0.0788580254 1.38868475 -0.224516988 0.0818272159 1.39754069 -0.224516988 0.0818272159 1.39754069 -0.225672618 0.0788580254 1.38868475 -0.219135299 0.0852664113 1.40774608 -0.130892813 0.126273006 1.42381215 -0.122355275 0.115644582 1.41819906 -0.126270458 0.126535401 1.41494989 -0.224152684 0.0783168077 1.36651325 -0.227887794 0.0776565745 1.37835681 -0.224421799 0.087665759 1.37874568 -0.212186724 0.0795004442 1.35427892 -0.221756473 0.0777162164 1.36415184 -0.224152684 0.0783168077 1.36651325 -0.221756473 0.0777162164 1.36415184 -0.227887794 0.0776565745 1.37835681 -0.224152684 0.0783168077 1.36651325 -0.158104405 0.130942926 1.36688972 -0.169834808 0.129887745 1.36207855 -0.176177621 0.129324511 1.36273241 -0.202410996 0.127069414 1.39960361 -0.204447329 0.126872644 1.38999355 -0.205401346 0.126783758 1.40118396 -0.134137407 0.133020297 1.38756621 -0.137016028 0.132760972 1.38097858 -0.158104405 0.130942926 1.36688972 -0.143443868 0.132209092 1.42507434 -0.136267841 0.132837713 1.41514003 -0.156085715 0.131124556 1.42992294 -0.172911867 0.129615262 1.43528199 -0.156085715 0.131124556 1.42992294 -0.189198583 0.128196672 1.42928433 -0.143443868 0.132209092 1.42507434 -0.156085715 0.131124556 1.42992294 -0.157804802 0.130938485 1.4337641 -0.158104405 0.130942926 1.36688972 -0.176177621 0.129324511 1.36273241 -0.192516387 0.12790978 1.37070751 -0.137016028 0.132760972 1.38097858 -0.147400796 0.13184312 1.36916769 -0.158104405 0.130942926 1.36688972 -0.136267841 0.132837713 1.41514003 -0.132794052 0.133132949 1.40403032 -0.156085715 0.131124556 1.42992294 -0.156085715 0.131124556 1.42992294 -0.201005384 0.12703231 1.41671038 -0.189198583 0.128196672 1.42928433 -0.202410996 0.127069414 1.39960361 -0.198414519 0.127402514 1.37701046 -0.204447329 0.126872644 1.38999355 -0.158104405 0.130942926 1.36688972 -0.147400796 0.13184312 1.36916769 -0.158991829 0.130819529 1.36343968 -0.156085715 0.131124556 1.42992294 -0.202410996 0.127069414 1.39960361 -0.201005384 0.12703231 1.41671038 -0.202410996 0.127069414 1.39960361 -0.202814788 0.127005264 1.41245854 -0.201005384 0.12703231 1.41671038 -0.202410996 0.127069414 1.39960361 -0.158104405 0.130942926 1.36688972 -0.198414519 0.127402514 1.37701046 -0.158104405 0.130942926 1.36688972 -0.192516387 0.12790978 1.37070751 -0.198414519 0.127402514 1.37701046 -0.158104405 0.130942926 1.36688972 -0.158991829 0.130819529 1.36343968 -0.169834808 0.129887745 1.36207855 -0.132794052 0.133132949 1.40403032 -0.158104405 0.130942926 1.36688972 -0.156085715 0.131124556 1.42992294 -0.132794052 0.133132949 1.40403032 -0.132423982 0.133160949 1.396294 -0.158104405 0.130942926 1.36688972 -0.202410996 0.127069414 1.39960361 -0.205401346 0.126783758 1.40118396 -0.202814788 0.127005264 1.41245854 -0.127525598 0.107096538 1.36642849 -0.140251249 0.122094847 1.3613584 -0.131054863 0.123921096 1.37137187 -0.127525598 0.107096538 1.36642849 -0.138314277 0.116399392 1.35998833 -0.140251249 0.122094847 1.3613584 -0.132423982 0.133160949 1.396294 -0.134137407 0.133020297 1.38756621 -0.158104405 0.130942926 1.36688972 -0.127813995 0.120530486 1.37305474 -0.131054863 0.123921096 1.37137187 -0.125319943 0.125252098 1.38293731 -0.155361146 0.115090705 1.4457829 -0.147120818 0.118744507 1.44171023 -0.156874508 0.12341316 1.44275355 -0.157804802 0.130938485 1.4337641 -0.156085715 0.131124556 1.42992294 -0.172911867 0.129615262 1.43528199 -0.201005384 0.12703231 1.41671038 -0.20756653 0.115344033 1.42335391 -0.198677912 0.117067926 1.43378448 -0.210394114 0.12160784 1.39762807 -0.217376053 0.112788334 1.39861345 -0.215355113 0.113434456 1.40656829 -0.215355113 0.113434456 1.40656829 -0.202814788 0.127005264 1.41245854 -0.210394114 0.12160784 1.39762807 -0.202020019 0.121287428 1.36980498 -0.204447329 0.126872644 1.38999355 -0.198414519 0.127402514 1.37701046 -0.202020019 0.121287428 1.36980498 -0.209389344 0.121085934 1.38427722 -0.204447329 0.126872644 1.38999355 -0.202020019 0.121287428 1.36980498 -0.206381083 0.112666331 1.36248481 -0.21397683 0.112108007 1.37329471 -0.202020019 0.121287428 1.36980498 -0.21397683 0.112108007 1.37329471 -0.209389344 0.121085934 1.38427722 -0.209389344 0.121085934 1.38427722 -0.217944786 0.112110958 1.38523686 -0.204447329 0.126872644 1.38999355 -0.204447329 0.126872644 1.38999355 -0.210394114 0.12160784 1.39762807 -0.205401346 0.126783758 1.40118396 -0.13958779 0.116709039 1.43831611 -0.132506922 0.119242094 1.43114924 -0.13801831 0.125623792 1.43217564 -0.162325129 0.114879437 1.44695437 -0.156874508 0.12341316 1.44275355 -0.165890574 0.122163013 1.44436562 -0.217944786 0.112110958 1.38523686 -0.210394114 0.12160784 1.39762807 -0.204447329 0.126872644 1.38999355 -0.209389344 0.121085934 1.38427722 -0.21397683 0.112108007 1.37329471 -0.217944786 0.112110958 1.38523686 -0.210394114 0.12160784 1.39762807 -0.202814788 0.127005264 1.41245854 -0.205401346 0.126783758 1.40118396 -0.217944786 0.112110958 1.38523686 -0.217376053 0.112788334 1.39861345 -0.210394114 0.12160784 1.39762807 -0.202814788 0.127005264 1.41245854 -0.20756653 0.115344033 1.42335391 -0.201005384 0.12703231 1.41671038 -0.202814788 0.127005264 1.41245854 -0.215355113 0.113434456 1.40656829 -0.20756653 0.115344033 1.42335391 -0.198677912 0.117067926 1.43378448 -0.189198583 0.128196672 1.42928433 -0.201005384 0.12703231 1.41671038 -0.202020019 0.121287428 1.36980498 -0.198414519 0.127402514 1.37701046 -0.192516387 0.12790978 1.37070751 -0.202020019 0.121287428 1.36980498 -0.192516387 0.12790978 1.37070751 -0.198234454 0.120158643 1.36396289 -0.206381083 0.112666331 1.36248481 -0.202020019 0.121287428 1.36980498 -0.198234454 0.120158643 1.36396289 -0.162325129 0.114879437 1.44695437 -0.155361146 0.115090705 1.4457829 -0.156874508 0.12341316 1.44275355 -0.198234454 0.120158643 1.36396289 -0.193832517 0.114333697 1.35349905 -0.1996319 0.113638416 1.35694098 -0.198234454 0.120158643 1.36396289 -0.1996319 0.113638416 1.35694098 -0.206381083 0.112666331 1.36248481 -0.120044455 0.118318744 1.40784132 -0.120395131 0.121285878 1.39985573 -0.122955121 0.126287088 1.40035915 -0.192516387 0.12790978 1.37070751 -0.176177621 0.129324511 1.36273241 -0.185035855 0.121881478 1.35737062 -0.147120818 0.118744507 1.44171023 -0.13801831 0.125623792 1.43217564 -0.156874508 0.12341316 1.44275355 -0.192516387 0.12790978 1.37070751 -0.185035855 0.121881478 1.35737062 -0.198234454 0.120158643 1.36396289 -0.198234454 0.120158643 1.36396289 -0.185035855 0.121881478 1.35737062 -0.193832517 0.114333697 1.35349905 -0.176177621 0.129324511 1.36273241 -0.169834808 0.129887745 1.36207855 -0.185035855 0.121881478 1.35737062 -0.193832517 0.114333697 1.35349905 -0.185035855 0.121881478 1.35737062 -0.180601031 0.115991674 1.35035241 -0.185035855 0.121881478 1.35737062 -0.169834808 0.129887745 1.36207855 -0.180601031 0.115991674 1.35035241 -0.169834808 0.129887745 1.36207855 -0.158991829 0.130819529 1.36343968 -0.167151764 0.117889799 1.3509208 -0.180601031 0.115991674 1.35035241 -0.169834808 0.129887745 1.36207855 -0.167151764 0.117889799 1.3509208 -0.147120818 0.118744507 1.44171023 -0.13958779 0.116709039 1.43831611 -0.13801831 0.125623792 1.43217564 -0.172002077 0.113332883 1.44724417 -0.162325129 0.114879437 1.44695437 -0.165890574 0.122163013 1.44436562 -0.120044455 0.118318744 1.40784132 -0.122955121 0.126287088 1.40035915 -0.126270458 0.126535401 1.41494989 -0.167151764 0.117889799 1.3509208 -0.158991829 0.130819529 1.36343968 -0.152250856 0.120207749 1.35481787 -0.12903586 0.120437428 1.42632568 -0.122355275 0.115644582 1.41819906 -0.130892813 0.126273006 1.42381215 -0.147400796 0.13184312 1.36916769 -0.152250856 0.120207749 1.35481787 -0.158991829 0.130819529 1.36343968 -0.147400796 0.13184312 1.36916769 -0.140251249 0.122094847 1.3613584 -0.152250856 0.120207749 1.35481787 -0.165890574 0.122163013 1.44436562 -0.157804802 0.130938485 1.4337641 -0.172911867 0.129615262 1.43528199 -0.165890574 0.122163013 1.44436562 -0.172911867 0.129615262 1.43528199 -0.178790465 0.120343588 1.44349754 -0.131054863 0.123921096 1.37137187 -0.140251249 0.122094847 1.3613584 -0.147400796 0.13184312 1.36916769 -0.189406827 0.118643403 1.43988252 -0.189198583 0.128196672 1.42928433 -0.198677912 0.117067926 1.43378448 -0.172911867 0.129615262 1.43528199 -0.189198583 0.128196672 1.42928433 -0.178790465 0.120343588 1.44349754 -0.178790465 0.120343588 1.44349754 -0.189198583 0.128196672 1.42928433 -0.189406827 0.118643403 1.43988252 -0.125319943 0.125252098 1.38293731 -0.132423982 0.133160949 1.396294 -0.122955121 0.126287088 1.40035915 -0.172002077 0.113332883 1.44724417 -0.165890574 0.122163013 1.44436562 -0.178790465 0.120343588 1.44349754 -0.130892813 0.126273006 1.42381215 -0.143443868 0.132209092 1.42507434 -0.13801831 0.125623792 1.43217564 -0.136267841 0.132837713 1.41514003 -0.130892813 0.126273006 1.42381215 -0.126270458 0.126535401 1.41494989 -0.136267841 0.132837713 1.41514003 -0.143443868 0.132209092 1.42507434 -0.130892813 0.126273006 1.42381215 -0.137016028 0.132760972 1.38097858 -0.134137407 0.133020297 1.38756621 -0.125319943 0.125252098 1.38293731 -0.137016028 0.132760972 1.38097858 -0.125319943 0.125252098 1.38293731 -0.131054863 0.123921096 1.37137187 -0.125319943 0.125252098 1.38293731 -0.134137407 0.133020297 1.38756621 -0.132423982 0.133160949 1.396294 -0.180276781 0.101082794 1.44803321 -0.172002077 0.113332883 1.44724417 -0.178790465 0.120343588 1.44349754 -0.122955121 0.126287088 1.40035915 -0.132423982 0.133160949 1.396294 -0.132794052 0.133132949 1.40403032 -0.132794052 0.133132949 1.40403032 -0.126270458 0.126535401 1.41494989 -0.122955121 0.126287088 1.40035915 -0.132794052 0.133132949 1.40403032 -0.136267841 0.132837713 1.41514003 -0.126270458 0.126535401 1.41494989 -0.13801831 0.125623792 1.43217564 -0.143443868 0.132209092 1.42507434 -0.157804802 0.130938485 1.4337641 -0.157804802 0.130938485 1.4337641 -0.156874508 0.12341316 1.44275355 -0.13801831 0.125623792 1.43217564 -0.156874508 0.12341316 1.44275355 -0.157804802 0.130938485 1.4337641 -0.165890574 0.122163013 1.44436562 -0.178790465 0.120343588 1.44349754 -0.189406827 0.118643403 1.43988252 -0.18592903 0.112089187 1.44378972 -0.178790465 0.120343588 1.44349754 -0.18592903 0.112089187 1.44378972 -0.180276781 0.101082794 1.44803321 -0.131054863 0.123921096 1.37137187 -0.147400796 0.13184312 1.36916769 -0.137016028 0.132760972 1.38097858 -0.20756653 0.115344033 1.42335391 -0.207142532 0.109239817 1.42690778 -0.198677912 0.117067926 1.43378448 -0.127813995 0.120530486 1.37305474 -0.127525598 0.107096538 1.36642849 -0.131054863 0.123921096 1.37137187 -0.206381083 0.112666331 1.36248481 -0.21873711 0.0958775431 1.36445689 -0.21397683 0.112108007 1.37329471 -0.215307891 0.106297344 1.41303742 -0.220630288 0.0946221799 1.40609014 -0.216712773 0.0899016634 1.41655886 -0.127813995 0.120530486 1.37305474 -0.125319943 0.125252098 1.38293731 -0.123682916 0.116009921 1.37685668 -0.198677912 0.117067926 1.43378448 -0.207142532 0.109239817 1.42690778 -0.19971028 0.109755509 1.43544936 -0.21873711 0.0958775431 1.36445689 -0.221118152 0.0966925099 1.37189162 -0.21397683 0.112108007 1.37329471 -0.21397683 0.112108007 1.37329471 -0.221118152 0.0966925099 1.37189162 -0.217944786 0.112110958 1.38523686 -0.217944786 0.112110958 1.38523686 -0.221186385 0.104995973 1.38955164 -0.217376053 0.112788334 1.39861345 -0.216712773 0.0899016634 1.41655886 -0.212222651 0.0903426334 1.42425072 -0.207142532 0.109239817 1.42690778 -0.121137872 0.120655887 1.38902569 -0.123682916 0.116009921 1.37685668 -0.125319943 0.125252098 1.38293731 -0.120395131 0.121285878 1.39985573 -0.121137872 0.120655887 1.38902569 -0.125319943 0.125252098 1.38293731 -0.120395131 0.121285878 1.39985573 -0.125319943 0.125252098 1.38293731 -0.122955121 0.126287088 1.40035915 -0.217944786 0.112110958 1.38523686 -0.223932266 0.0968547463 1.38446343 -0.221186385 0.104995973 1.38955164 -0.221186385 0.104995973 1.38955164 -0.223932266 0.0968547463 1.38446343 -0.225185871 0.0952957794 1.38314974 -0.12903586 0.120437428 1.42632568 -0.130892813 0.126273006 1.42381215 -0.13801831 0.125623792 1.43217564 -0.132506922 0.119242094 1.43114924 -0.12903586 0.120437428 1.42632568 -0.13801831 0.125623792 1.43217564 -0.207142532 0.109239817 1.42690778 -0.212222651 0.0903426334 1.42425072 -0.2050239 0.0906713381 1.433586 -0.207142532 0.109239817 1.42690778 -0.2050239 0.0906713381 1.433586 -0.19971028 0.109755509 1.43544936 -0.19971028 0.109755509 1.43544936 -0.2050239 0.0906713381 1.433586 -0.195708767 0.091634497 1.44201541 -0.215355113 0.113434456 1.40656829 -0.215307891 0.106297344 1.41303742 -0.20756653 0.115344033 1.42335391 -0.122355275 0.115644582 1.41819906 -0.120044455 0.118318744 1.40784132 -0.126270458 0.126535401 1.41494989 -0.215355113 0.113434456 1.40656829 -0.220630288 0.0946221799 1.40609014 -0.215307891 0.106297344 1.41303742 -0.207142532 0.109239817 1.42690778 -0.215307891 0.106297344 1.41303742 -0.216712773 0.0899016634 1.41655886 -0.217944786 0.112110958 1.38523686 -0.221118152 0.0966925099 1.37189162 -0.223932266 0.0968547463 1.38446343 -0.217376053 0.112788334 1.39861345 -0.221186385 0.104995973 1.38955164 -0.215355113 0.113434456 1.40656829 -0.221186385 0.104995973 1.38955164 -0.220630288 0.0946221799 1.40609014 -0.215355113 0.113434456 1.40656829 -0.221186385 0.104995973 1.38955164 -0.225185871 0.0952957794 1.38314974 -0.220630288 0.0946221799 1.40609014 -0.215307891 0.106297344 1.41303742 -0.207142532 0.109239817 1.42690778 -0.20756653 0.115344033 1.42335391 -0.19971028 0.109755509 1.43544936 -0.189406827 0.118643403 1.43988252 -0.198677912 0.117067926 1.43378448 -0.195092916 0.111425996 1.43877232 -0.18592903 0.112089187 1.44378972 -0.189406827 0.118643403 1.43988252 -0.195092916 0.111425996 1.43877232 -0.189406827 0.118643403 1.43988252 -0.19971028 0.109755509 1.43544936 -0.195708767 0.091634497 1.44201541 -0.195092916 0.111425996 1.43877232 -0.19971028 0.109755509 1.43544936 -0.18592903 0.112089187 1.44378972 -0.195708767 0.091634497 1.44201541 -0.182719037 0.0926104411 1.44857681 -0.18592903 0.112089187 1.44378972 -0.195092916 0.111425996 1.43877232 -0.195708767 0.091634497 1.44201541 -0.138500333 0.0965527445 1.44367349 -0.13958779 0.116709039 1.43831611 -0.147120818 0.118744507 1.44171023 -0.134907126 0.0968639776 1.35628414 -0.138314277 0.116399392 1.35998833 -0.131288797 0.0971411988 1.35919309 -0.122355275 0.115644582 1.41819906 -0.12018504 0.0979855135 1.42461956 -0.115771711 0.0984527171 1.41446257 -0.120395131 0.121285878 1.39985573 -0.120044455 0.118318744 1.40784132 -0.113395266 0.0986591056 1.39945769 -0.113395266 0.0986591056 1.39945769 -0.120044455 0.118318744 1.40784132 -0.1142525 0.0987796336 1.40815306 -0.122355275 0.115644582 1.41819906 -0.115771711 0.0984527171 1.41446257 -0.120044455 0.118318744 1.40784132 -0.13958779 0.116709039 1.43831611 -0.138500333 0.0965527445 1.44367349 -0.132767454 0.0971965417 1.43962133 -0.131288797 0.0971411988 1.35919309 -0.138314277 0.116399392 1.35998833 -0.127525598 0.107096538 1.36642849 -0.127525598 0.107096538 1.36642849 -0.127813995 0.120530486 1.37305474 -0.123682916 0.116009921 1.37685668 -0.118024133 0.0984063745 1.37714291 -0.123682916 0.116009921 1.37685668 -0.121137872 0.120655887 1.38902569 -0.116897285 0.107589237 1.38846874 -0.118024133 0.0984063745 1.37714291 -0.121137872 0.120655887 1.38902569 -0.155361146 0.115090705 1.4457829 -0.153789565 0.0951327309 1.44997776 -0.138500333 0.0965527445 1.44367349 -0.120044455 0.118318744 1.40784132 -0.115771711 0.0984527171 1.41446257 -0.1142525 0.0987796336 1.40815306 -0.155361146 0.115090705 1.4457829 -0.162325129 0.114879437 1.44695437 -0.153789565 0.0951327309 1.44997776 -0.122355275 0.115644582 1.41819906 -0.12903586 0.120437428 1.42632568 -0.12018504 0.0979855135 1.42461956 -0.210449085 0.0979091227 1.35608256 -0.204583481 0.0970965326 1.34966886 -0.213257447 0.0957091376 1.35222661 -0.162325129 0.114879437 1.44695437 -0.164878547 0.0941300318 1.45136404 -0.153789565 0.0951327309 1.44997776 -0.126569062 0.0976405665 1.43367457 -0.132506922 0.119242094 1.43114924 -0.132767454 0.0971965417 1.43962133 -0.132767454 0.0971965417 1.43962133 -0.132506922 0.119242094 1.43114924 -0.13958779 0.116709039 1.43831611 -0.172002077 0.113332883 1.44724417 -0.17457366 0.0933376327 1.45063114 -0.164878547 0.0941300318 1.45136404 -0.194110394 0.0980680212 1.34444869 -0.181987837 0.100592084 1.34405518 -0.182893798 0.0986106396 1.34141898 -0.172002077 0.113332883 1.44724417 -0.180276781 0.101082794 1.44803321 -0.17457366 0.0933376327 1.45063114 -0.147120818 0.118744507 1.44171023 -0.155361146 0.115090705 1.4457829 -0.138500333 0.0965527445 1.44367349 -0.180276781 0.101082794 1.44803321 -0.182719037 0.0926104411 1.44857681 -0.17457366 0.0933376327 1.45063114 -0.164878547 0.0941300318 1.45136404 -0.162325129 0.114879437 1.44695437 -0.172002077 0.113332883 1.44724417 -0.180276781 0.101082794 1.44803321 -0.18592903 0.112089187 1.44378972 -0.182719037 0.0926104411 1.44857681 -0.194316298 0.0990457162 1.34577692 -0.194110394 0.0980680212 1.34444869 -0.204583481 0.0970965326 1.34966886 -0.127525598 0.107096538 1.36642849 -0.122453846 0.0978828073 1.36921906 -0.131288797 0.0971411988 1.35919309 -0.127525598 0.107096538 1.36642849 -0.123682916 0.116009921 1.37685668 -0.122453846 0.0978828073 1.36921906 -0.123682916 0.116009921 1.37685668 -0.118024133 0.0984063745 1.37714291 -0.122453846 0.0978828073 1.36921906 -0.116897285 0.107589237 1.38846874 -0.120395131 0.121285878 1.39985573 -0.113395266 0.0986591056 1.39945769 -0.116897285 0.107589237 1.38846874 -0.113627724 0.0986228362 1.39386451 -0.118024133 0.0984063745 1.37714291 -0.116897285 0.107589237 1.38846874 -0.121137872 0.120655887 1.38902569 -0.120395131 0.121285878 1.39985573 -0.116897285 0.107589237 1.38846874 -0.113395266 0.0986591056 1.39945769 -0.113627724 0.0986228362 1.39386451 -0.12903586 0.120437428 1.42632568 -0.132506922 0.119242094 1.43114924 -0.126569062 0.0976405665 1.43367457 -0.12903586 0.120437428 1.42632568 -0.126569062 0.0976405665 1.43367457 -0.12018504 0.0979855135 1.42461956 -0.189815596 0.0925876051 1.33598197 -0.189854041 0.0975655392 1.33785772 -0.170300454 0.0990410894 1.34398961 -0.194110394 0.0980680212 1.34444869 -0.182893798 0.0986106396 1.34141898 -0.195119813 0.0974059254 1.34158099 -0.170300454 0.0990410894 1.34398961 -0.177439556 0.0931366086 1.34044576 -0.189815596 0.0925876051 1.33598197 -0.189854041 0.0975655392 1.33785772 -0.19846113 0.091786772 1.3362087 -0.205173254 0.0962549597 1.34184182 -0.189815596 0.0925876051 1.33598197 -0.19846113 0.091786772 1.3362087 -0.189854041 0.0975655392 1.33785772 -0.229253009 0.0893889517 1.36607647 -0.222939104 0.0946705043 1.35783756 -0.221004188 0.0902693495 1.35296416 -0.221004188 0.0902693495 1.35296416 -0.222939104 0.0946705043 1.35783756 -0.217520639 0.095243752 1.35131109 -0.221004188 0.0902693495 1.35296416 -0.217520639 0.095243752 1.35131109 -0.21354048 0.0909147933 1.34546888 -0.205173254 0.0962549597 1.34184182 -0.21354048 0.0909147933 1.34546888 -0.217520639 0.095243752 1.35131109 -0.233455107 0.0888048783 1.37883079 -0.228532344 0.0941110924 1.36835742 -0.229253009 0.0893889517 1.36607647 -0.205173254 0.0962549597 1.34184182 -0.19846113 0.091786772 1.3362087 -0.21354048 0.0909147933 1.34546888 -0.228532344 0.0941110924 1.36835742 -0.222939104 0.0946705043 1.35783756 -0.229253009 0.0893889517 1.36607647 -0.233455107 0.0888048783 1.37883079 -0.231776491 0.0939934924 1.38197434 -0.228532344 0.0941110924 1.36835742 -0.231776491 0.0939934924 1.38197434 -0.233455107 0.0888048783 1.37883079 -0.23236759 0.0887131542 1.38792205 -0.225185871 0.0952957794 1.38314974 -0.226745009 0.0945420116 1.38350403 -0.223639697 0.0951434299 1.39887071 -0.231776491 0.0939934924 1.38197434 -0.23236759 0.0887131542 1.38792205 -0.230935827 0.0938974246 1.38781345 -0.221118152 0.0966925099 1.37189162 -0.225185871 0.0952957794 1.38314974 -0.223932266 0.0968547463 1.38446343 -0.220630288 0.0946221799 1.40609014 -0.23236759 0.0887131542 1.38792205 -0.216712773 0.0899016634 1.41655886 -0.220630288 0.0946221799 1.40609014 -0.230935827 0.0938974246 1.38781345 -0.23236759 0.0887131542 1.38792205 -0.223639697 0.0951434299 1.39887071 -0.220630288 0.0946221799 1.40609014 -0.225185871 0.0952957794 1.38314974 -0.21873711 0.0958775431 1.36445689 -0.221641362 0.0951236859 1.36241364 -0.225428373 0.0947909355 1.37029958 -0.21873711 0.0958775431 1.36445689 -0.225428373 0.0947909355 1.37029958 -0.221118152 0.0966925099 1.37189162 </float_array>
          <technique_common>
            <accessor count="1080" offset="0" source="#mesh_0-positions-array" stride="3">
              <param name="X" type="float" />
              <param name="Y" type="float" />
              <param name="Z" type="float" />
            </accessor>
          </technique_common>
        </source>
        <vertices id="mesh_0-vertices">
          <input semantic="POSITION" source="#mesh_0-positions" />
        </vertices>
        <polylist count="360" material="defaultMaterial">
          <input offset="0" semantic="VERTEX" source="#mesh_0-vertices" />
          <vcount>3 3 3 3 3 3 3 3 3 3 3 3 3 3 3 3 3 3 3 3 3 3 3 3 3 3 3 3 3 3 3 3 3 3 3 3 3 3 3 3 3 3 3 3 3 3 3 3 3 3 3 3 3 3 3 3 3 3 3 3 3 3 3 3 3 3 3 3 3 3 3 3 3 3 3 3 3 3 3 3 3 3 3 3 3 3 3 3 3 3 3 3 3 3 3 3 3 3 3 3 3 3 3 3 3 3 3 3 3 3 3 3 3 3 3 3 3 3 3 3 3 3 3 3 3 3 3 3 3 3 3 3 3 3 3 3 3 3 3 3 3 3 3 3 3 3 3 3 3 3 3 3 3 3 3 3 3 3 3 3 3 3 3 3 3 3 3 3 3 3 3 3 3 3 3 3 3 3 3 3 3 3 3 3 3 3 3 3 3 3 3 3 3 3 3 3 3 3 3 3 3 3 3 3 3 3 3 3 3 3 3 3 3 3 3 3 3 3 3 3 3 3 3 3 3 3 3 3 3 3 3 3 3 3 3 3 3 3 3 3 3 3 3 3 3 3 3 3 3 3 3 3 3 3 3 3 3 3 3 3 3 3 3 3 3 3 3 3 3 3 3 3 3 3 3 3 3 3 3 3 3 3 3 3 3 3 3 3 3 3 3 3 3 3 3 3 3 3 3 3 3 3 3 3 3 3 3 3 3 3 3 3 3 3 3 3 3 3 3 3 3 3 3 3 3 3 3 3 3 3 3 3 3 3 3 3 3 3 3 3 3 3 3 3 3 3 3 3 3 3 3 3 3 3 3 3 3 3 3 3 </vcount>
          <p>0 1 2 3 4 5 6 7 8 9 10 11 12 13 14 15 16 17 18 19 20 21 22 23 24 25 26 27 28 29 30 31 32 33 34 35 36 37 38 39 40 41 42 43 44 45 46 47 48 49 50 51 52 53 54 55 56 57 58 59 60 61 62 63 64 65 66 67 68 69 70 71 72 73 74 75 76 77 78 79 80 81 82 83 84 85 86 87 88 89 90 91 92 93 94 95 96 97 98 99 100 101 102 103 104 105 106 107 108 109 110 111 112 113 114 115 116 117 118 119 120 121 122 123 124 125 126 127 128 129 130 131 132 133 134 135 136 137 138 139 140 141 142 143 144 145 146 147 148 149 150 151 152 153 154 155 156 157 158 159 160 161 162 163 164 165 166 167 168 169 170 171 172 173 174 175 176 177 178 179 180 181 182 183 184 185 186 187 188 189 190 191 192 193 194 195 196 197 198 199 200 201 202 203 204 205 206 207 208 209 210 211 212 213 214 215 216 217 218 219 220 221 222 223 224 225 226 227 228 229 230 231 232 233 234 235 236 237 238 239 240 241 242 243 244 245 246 247 248 249 250 251 252 253 254 255 256 257 258 259 260 261 262 263 264 265 266 267 268 269 270 271 272 273 274 275 276 277 278 279 280 281 282 283 284 285 286 287 288 289 290 291 292 293 294 295 296 297 298 299 300 301 302 303 304 305 306 307 308 309 310 311 312 313 314 315 316 317 318 319 320 321 322 323 324 325 326 327 328 329 330 331 332 333 334 335 336 337 338 339 340 341 342 343 344 345 346 347 348 349 350 351 352 353 354 355 356 357 358 359 360 361 362 363 364 365 366 367 368 369 370 371 372 373 374 375 376 377 378 379 380 381 382 383 384 385 386 387 388 389 390 391 392 393 394 395 396 397 398 399 400 401 402 403 404 405 406 407 408 409 410 411 412 413 414 415 416 417 418 419 420 421 422 423 424 425 426 427 428 429 430 431 432 433 434 435 436 437 438 439 440 441 442 443 444 445 446 447 448 449 450 451 452 453 454 455 456 457 458 459 460 461 462 463 464 465 466 467 468 469 470 471 472 473 474 475 476 477 478 479 480 481 482 483 484 485 486 487 488 489 490 491 492 493 494 495 496 497 498 499 500 501 502 503 504 505 506 507 508 509 510 511 512 513 514 515 516 517 518 519 520 521 522 523 524 525 526 527 528 529 530 531 532 533 534 535 536 537 538 539 540 541 542 543 544 545 546 547 548 549 550 551 552 553 554 555 556 557 558 559 560 561 562 563 564 565 566 567 568 569 570 571 572 573 574 575 576 577 578 579 580 581 582 583 584 585 586 587 588 589 590 591 592 593 594 595 596 597 598 599 600 601 602 603 604 605 606 607 608 609 610 611 612 613 614 615 616 617 618 619 620 621 622 623 624 625 626 627 628 629 630 631 632 633 634 635 636 637 638 639 640 641 642 643 644 645 646 647 648 649 650 651 652 653 654 655 656 657 658 659 660 661 662 663 664 665 666 667 668 669 670 671 672 673 674 675 676 677 678 679 680 681 682 683 684 685 686 687 688 689 690 691 692 693 694 695 696 697 698 699 700 701 702 703 704 705 706 707 708 709 710 711 712 713 714 715 716 717 718 719 720 721 722 723 724 725 726 727 728 729 730 731 732 733 734 735 736 737 738 739 740 741 742 743 744 745 746 747 748 749 750 751 752 753 754 755 756 757 758 759 760 761 762 763 764 765 766 767 768 769 770 771 772 773 774 775 776 777 778 779 780 781 782 783 784 785 786 787 788 789 790 791 792 793 794 795 796 797 798 799 800 801 802 803 804 805 806 807 808 809 810 811 812 813 814 815 816 817 818 819 820 821 822 823 824 825 826 827 828 829 830 831 832 833 834 835 836 837 838 839 840 841 842 843 844 845 846 847 848 849 850 851 852 853 854 855 856 857 858 859 860 861 862 863 864 865 866 867 868 869 870 871 872 873 874 875 876 877 878 879 880 881 882 883 884 885 886 887 888 889 890 891 892 893 894 895 896 897 898 899 900 901 902 903 904 905 906 907 908 909 910 911 912 913 914 915 916 917 918 919 920 921 922 923 924 925 926 927 928 929 930 931 932 933 934 935 936 937 938 939 940 941 942 943 944 945 946 947 948 949 950 951 952 953 954 955 956 957 958 959 960 961 962 963 964 965 966 967 968 969 970 971 972 973 974 975 976 977 978 979 980 981 982 983 984 985 986 987 988 989 990 991 992 993 994 995 996 997 998 999 1000 1001 1002 1003 1004 1005 1006 1007 1008 1009 1010 1011 1012 1013 1014 1015 1016 1017 1018 1019 1020 1021 1022 1023 1024 1025 1026 1027 1028 1029 1030 1031 1032 1033 1034 1035 1036 1037 1038 1039 1040 1041 1042 1043 1044 1045 1046 1047 1048 1049 1050 1051 1052 1053 1054 1055 1056 1057 1058 1059 1060 1061 1062 1063 1064 1065 1066 1067 1068 1069 1070 1071 1072 1073 1074 1075 1076 1077 1078 1079 </p>
        </polylist>
      </mesh>
    </geometry>
  </library_geometries>
  <library_controllers>
  </library_controllers>
  <library_visual_scenes>
    <visual_scene id="Scene" name="Scene">
      <node id="node" name="" type="NODE">
        <matrix sid="matrix">1 0 0 0 0 1 0 0 0 0 1 0 0 0 0 1</matrix>
        <instance_geometry url="#mesh_0">
          <bind_material>
            <technique_common>
              <instance_material symbol="defaultMaterial" target="#material_0">
              </instance_material>
            </technique_common>
          </bind_material>
        </instance_geometry>
      </node>
    </visual_scene>
  </library_visual_scenes>
  <scene>
    <instance_visual_scene url="#Scene" />
  </scene>
</COLLADA>
