<?xml version="1.0" encoding="UTF-8" standalone="no" ?>
<COLLADA xmlns="http://www.collada.org/2005/11/COLLADASchema" version="1.4.1">
  <asset>
    <contributor>
      <author>Assimp</author>
      <authoring_tool>Assimp Exporter</authoring_tool>
    </contributor>
    <created>2026-04-22T16:09:43</created>
    <modified>2026-04-22T16:09:43</modified>
    <unit name="meter" meter="1" />
    <up_axis>Y_UP</up_axis>
  </asset>
  <library_images>
  </library_images>
  <library_effects>
    <effect id="material_0-fx" name="">
      <profile_COMMON>
        <technique sid="standard">
          <phong>
            <emission>
              <color sid="emission">0   0   0   -1.80123341</color>
            </emission>
            <ambient>
              <color sid="ambient">0.74000001   0.74000001   0.74000001   1.16159952</color>
            </ambient>
            <diffuse>
              <color sid="diffuse">0.74000001   0.74000001   0.74000001   1.16159952</color>
            </diffuse>
            <specular>
              <color sid="specular">0.25   0.25   0.25   -1.80123341</color>
            </specular>
          </phong>
        </technique>
      </profile_COMMON>
    </effect>
  </library_effects>
  <library_materials>
    <material id="material_0" name="">
      <instance_effect url="#material_0-fx"/>
    </material>
  </library_materials>
  <library_geometries>
    <geometry id="mesh_0" name="" >
      <mesh>
        <source id="mesh_0-positions" name="mesh_0-positions">
          <float_array id="mesh_0-positions-array" count="1332"> 0.761650264 -0.258651197 1.74336755 0.763237715 -0.240151331 1.74303126 0.765116096 -0.258651227 1.74224591 0.82778424 -0.258652896 1.75149155 0.743697584 -0.258652329 1.78859973 0.819753349 -0.258652419 1.74395955 0.819753349 -0.258652419 1.74395955 0.743697584 -0.258652329 1.78859973 0.815143049 -0.25865224 1.74093485 0.758271396 -0.240151286 1.74323106 0.763237715 -0.240151331 1.74303126 0.761650264 -0.258651197 1.74336755 0.815143049 -0.25865224 1.74093485 0.743697584 -0.258652329 1.78859973 0.805036306 -0.258651882 1.73656642 0.805036306 -0.258651882 1.73656642 0.743697584 -0.258652329 1.78859973 0.799674332 -0.258651763 1.73528075 0.799674332 -0.258651763 1.73528075 0.743697584 -0.258652329 1.78859973 0.794199765 -0.258651644 1.73461974 0.794199765 -0.258651644 1.73461974 0.743697584 -0.258652329 1.78859973 0.788685679 -0.258651495 1.7345922 0.838600457 -0.253654093 1.7834779 0.838594913 -0.258654326 1.78948224 0.838603377 -0.258653849 1.77549613 0.838597119 -0.249154314 1.78938091 0.838594913 -0.258654326 1.78948224 0.838600457 -0.253654093 1.7834779 0.788685679 -0.258651495 1.7345922 0.743697584 -0.258652329 1.78859973 0.779097676 -0.258651316 1.7361002 0.839009225 -0.249154001 1.77934098 0.838597119 -0.249154314 1.78938091 0.838600457 -0.253654093 1.7834779 0.839009225 -0.249154001 1.77934098 0.838600457 -0.253654093 1.7834779 0.838603377 -0.258653849 1.77549613 0.744667232 -0.258650452 1.73122311 0.746963084 -0.238792405 1.73122501 0.746769905 -0.250363588 1.73122454 0.744667232 -0.258650452 1.73122311 0.74393332 -0.227152586 1.73122358 0.746963084 -0.238792405 1.73122501 0.74393332 -0.227152586 1.73122358 0.744667232 -0.258650452 1.73122311 0.680386007 -0.277895063 1.73118484 0.779097676 -0.258651316 1.7361002 0.743697584 -0.258652329 1.78859973 0.768269062 -0.258651286 1.74038196 0.745625436 -0.2312942 1.73707545 0.747227252 -0.242889822 1.73550463 0.746963084 -0.238792405 1.73122501 0.745346844 -0.258650661 1.73839927 0.748680115 -0.258649915 1.74203622 0.744667232 -0.258650452 1.73122311 0.768269062 -0.258651286 1.74038196 0.743697584 -0.258652329 1.78859973 0.765116096 -0.258651227 1.74224591 0.838594913 -0.258654326 1.78948224 0.743697584 -0.258652329 1.78859973 0.838603377 -0.258653849 1.77549613 0.794086039 -0.258654654 1.83028722 0.743697584 -0.258652329 1.78859973 0.799545586 -0.258654773 1.82964206 0.799545586 -0.258654773 1.82964206 0.743697584 -0.258652329 1.78859973 0.804895282 -0.258654803 1.82837605 0.804895282 -0.258654803 1.82837605 0.743697584 -0.258652329 1.78859973 0.810064554 -0.258654833 1.82650578 0.810064554 -0.258654833 1.82650578 0.743697584 -0.258652329 1.78859973 0.814985871 -0.258654892 1.82405567 0.814985871 -0.258654892 1.82405567 0.743697584 -0.258652329 1.78859973 0.819594085 -0.258654892 1.82105815 0.819594085 -0.258654892 1.82105815 0.743697584 -0.258652329 1.78859973 0.823828459 -0.258654863 1.81755269 0.823828459 -0.258654863 1.81755269 0.743697584 -0.258652329 1.78859973 0.827634037 -0.258654833 1.81358516 0.827634037 -0.258654833 1.81358516 0.743697584 -0.258652329 1.78859973 0.830959797 -0.258654743 1.80920792 0.830959797 -0.258654743 1.80920792 0.743697584 -0.258652329 1.78859973 0.833762825 -0.258654654 1.80447865 0.833762825 -0.258654654 1.80447865 0.743697584 -0.258652329 1.78859973 0.83600527 -0.258654535 1.79945946 0.83600527 -0.258654535 1.79945946 0.743697584 -0.258652329 1.78859973 0.838594913 -0.258654326 1.78948224 0.747227252 -0.242889822 1.73550463 0.746769905 -0.250363588 1.73122454 0.746963084 -0.238792405 1.73122501 0.794086039 -0.258654654 1.83028722 0.78858912 -0.258654535 1.83030319 0.743697584 -0.258652329 1.78859973 0.78858912 -0.258654535 1.83030319 0.783125937 -0.258654416 1.82968915 0.743697584 -0.258652329 1.78859973 0.747227252 -0.242889822 1.73550463 0.745346844 -0.258650661 1.73839927 0.746769905 -0.250363588 1.73122454 0.745346844 -0.258650661 1.73839927 0.744667232 -0.258650452 1.73122311 0.746769905 -0.250363588 1.73122454 0.783125937 -0.258654416 1.82968915 0.777769148 -0.258654267 1.82845342 0.743697584 -0.258652329 1.78859973 0.743697584 -0.258652329 1.78859973 0.746495068 -0.258652747 1.79971528 0.744812131 -0.258652478 1.79448223 0.777769148 -0.258654267 1.82845342 0.772589445 -0.258654118 1.82661259 0.743697584 -0.258652329 1.78859973 0.743697584 -0.258652329 1.78859973 0.748766601 -0.258652925 1.80472147 0.746495068 -0.258652747 1.79971528 0.772589445 -0.258654118 1.82661259 0.7676543 -0.258653849 1.82419074 0.743697584 -0.258652329 1.78859973 0.743697584 -0.258652329 1.78859973 0.751596034 -0.258653075 1.80943465 0.748766601 -0.258652925 1.80472147 0.7676543 -0.258653849 1.82419074 0.76302892 -0.25865376 1.82121921 0.743697584 -0.258652329 1.78859973 0.743697584 -0.258652329 1.78859973 0.754947126 -0.258653313 1.81379247 0.751596034 -0.258653075 1.80943465 0.76302892 -0.25865376 1.82121921 0.758774579 -0.258653462 1.81773829 0.743697584 -0.258652329 1.78859973 0.743697584 -0.258652329 1.78859973 0.758774579 -0.258653462 1.81773829 0.754947126 -0.258653313 1.81379247 0.745625436 -0.2312942 1.73707545 0.746963084 -0.238792405 1.73122501 0.74393332 -0.227152586 1.73122358 0.765116096 -0.258651227 1.74224591 0.743697584 -0.258652329 1.78859973 0.761650264 -0.258651197 1.74336755 0.839021325 -0.240154058 1.77943099 0.838597119 -0.249154314 1.78938091 0.839009225 -0.249154001 1.77934098 0.839021325 -0.240154058 1.77943099 0.838214099 -0.24015443 1.79169643 0.838597119 -0.249154314 1.78938091 0.75253737 -0.258650988 1.74321556 0.743697584 -0.258652329 1.78859973 0.748680115 -0.258649915 1.74203622 0.838597119 -0.249154314 1.78938091 0.838214099 -0.24015443 1.79169643 0.838594913 -0.258654326 1.78948224 0.761650264 -0.258651197 1.74336755 0.743697584 -0.258652329 1.78859973 0.75253737 -0.258650988 1.74321556 0.838214099 -0.24015443 1.79169643 0.835161626 -0.240154684 1.8015362 0.838594913 -0.258654326 1.78948224 0.835161626 -0.240154684 1.8015362 0.83600527 -0.258654535 1.79945946 0.838594913 -0.258654326 1.78948224 0.835161626 -0.240154684 1.8015362 0.833762825 -0.258654654 1.80447865 0.83600527 -0.258654535 1.79945946 0.835161626 -0.240154684 1.8015362 0.832684159 -0.240154818 1.80644917 0.833762825 -0.258654654 1.80447865 0.832684159 -0.240154818 1.80644917 0.830959797 -0.258654743 1.80920792 0.833762825 -0.258654654 1.80447865 0.832684159 -0.240154818 1.80644917 0.829659641 -0.240154892 1.81104636 0.830959797 -0.258654743 1.80920792 0.748680115 -0.258649915 1.74203622 0.743697584 -0.258652329 1.78859973 0.744667232 -0.258650452 1.73122311 0.829659641 -0.240154892 1.81104636 0.827634037 -0.258654833 1.81358516 0.830959797 -0.258654743 1.80920792 0.829659641 -0.240154892 1.81104636 0.826128423 -0.240154952 1.81526625 0.827634037 -0.258654833 1.81358516 0.826128423 -0.240154952 1.81526625 0.823828459 -0.258654863 1.81755269 0.827634037 -0.258654833 1.81358516 0.826128423 -0.240154952 1.81526625 0.822136402 -0.240154982 1.81905341 0.823828459 -0.258654863 1.81755269 0.822136402 -0.240154982 1.81905341 0.819594085 -0.258654892 1.82105815 0.823828459 -0.258654863 1.81755269 0.838603377 -0.258653849 1.77549613 0.743697584 -0.258652329 1.78859973 0.83610481 -0.258653551 1.76570451 0.83610481 -0.258653551 1.76570451 0.743697584 -0.258652329 1.78859973 0.833883941 -0.258653224 1.76065731 0.833883941 -0.258653224 1.76065731 0.743697584 -0.258652329 1.78859973 0.831097782 -0.258653045 1.75589848 0.831097782 -0.258653045 1.75589848 0.743697584 -0.258652329 1.78859973 0.82778424 -0.258652896 1.75149155 0.822136402 -0.240154982 1.81905341 0.817736745 -0.240154982 1.82235813 0.819594085 -0.258654892 1.82105815 0.817736745 -0.240154982 1.82235813 0.814985871 -0.258654892 1.82405567 0.819594085 -0.258654892 1.82105815 0.817736745 -0.240154982 1.82235813 0.812987447 -0.240154937 1.82513666 0.814985871 -0.258654892 1.82405567 0.763237715 -0.240151331 1.74303126 0.768269062 -0.258651286 1.74038196 0.765116096 -0.258651227 1.74224591 0.812987447 -0.240154937 1.82513666 0.810064554 -0.258654833 1.82650578 0.814985871 -0.258654892 1.82405567 0.812987447 -0.240154937 1.82513666 0.807950795 -0.240154907 1.82735276 0.810064554 -0.258654833 1.82650578 0.763237715 -0.240151331 1.74303126 0.773612797 -0.240151316 1.73789191 0.768269062 -0.258651286 1.74038196 0.773612797 -0.240151316 1.73789191 0.779097676 -0.258651316 1.7361002 0.768269062 -0.258651286 1.74038196 0.807950795 -0.240154907 1.82735276 0.804895282 -0.258654803 1.82837605 0.810064554 -0.258654833 1.82650578 0.807950795 -0.240154907 1.82735276 0.802693427 -0.240154922 1.82897663 0.804895282 -0.258654803 1.82837605 0.773612797 -0.240151316 1.73789191 0.782802522 -0.240151465 1.73526824 0.779097676 -0.258651316 1.7361002 0.802693427 -0.240154922 1.82897663 0.799545586 -0.258654773 1.82964206 0.804895282 -0.258654803 1.82837605 0.802693427 -0.240154922 1.82897663 0.797284544 -0.240154788 1.82998741 0.799545586 -0.258654773 1.82964206 0.782802522 -0.240151465 1.73526824 0.788685679 -0.258651495 1.7345922 0.779097676 -0.258651316 1.7361002 0.748348296 -0.252138197 1.74037015 0.748680115 -0.258649915 1.74203622 0.745346844 -0.258650661 1.73839927 0.782802522 -0.240151465 1.73526824 0.78827256 -0.240151539 1.73461628 0.788685679 -0.258651495 1.7345922 0.797284544 -0.240154788 1.82998741 0.794086039 -0.258654654 1.83028722 0.799545586 -0.258654773 1.82964206 0.797284544 -0.240154788 1.82998741 0.791795373 -0.240154669 1.83037102 0.794086039 -0.258654654 1.83028722 0.78827256 -0.240151539 1.73461628 0.793781161 -0.240151718 1.73459589 0.788685679 -0.258651495 1.7345922 0.793781161 -0.240151718 1.73459589 0.794199765 -0.258651644 1.73461974 0.788685679 -0.258651495 1.7345922 0.791795373 -0.240154669 1.83037102 0.78858912 -0.258654535 1.83030319 0.794086039 -0.258654654 1.83028722 0.791795373 -0.240154669 1.83037102 0.786298454 -0.240154609 1.83012331 0.78858912 -0.258654535 1.83030319 0.793781161 -0.240151718 1.73459589 0.799674332 -0.258651763 1.73528075 0.794199765 -0.258651644 1.73461974 0.786298454 -0.240154609 1.83012331 0.783125937 -0.258654416 1.82968915 0.78858912 -0.258654535 1.83030319 0.786298454 -0.240154609 1.83012331 0.780866325 -0.24015446 1.82924724 0.783125937 -0.258654416 1.82968915 0.793781161 -0.240151718 1.73459589 0.804624319 -0.240151927 1.73644447 0.799674332 -0.258651763 1.73528075 0.804624319 -0.240151927 1.73644447 0.805036306 -0.258651882 1.73656642 0.799674332 -0.258651763 1.73528075 0.780866325 -0.24015446 1.82924724 0.777769148 -0.258654267 1.82845342 0.783125937 -0.258654416 1.82968915 0.780866325 -0.24015446 1.82924724 0.775570214 -0.240154326 1.82775414 0.777769148 -0.258654267 1.82845342 0.804624319 -0.240151927 1.73644447 0.815143049 -0.25865224 1.74093485 0.805036306 -0.258651882 1.73656642 0.775570214 -0.240154326 1.82775414 0.772589445 -0.258654118 1.82661259 0.777769148 -0.258654267 1.82845342 0.775570214 -0.240154326 1.82775414 0.770479918 -0.240154117 1.82566345 0.772589445 -0.258654118 1.82661259 0.804624319 -0.240151927 1.73644447 0.814760387 -0.240152344 1.74071681 0.815143049 -0.25865224 1.74093485 0.770479918 -0.240154117 1.82566345 0.7676543 -0.258653849 1.82419074 0.772589445 -0.258654118 1.82661259 0.746284425 -0.227150664 1.74072123 0.753220439 -0.244072944 1.74297845 0.748158216 -0.234603703 1.74037063 0.770479918 -0.240154117 1.82566345 0.765662968 -0.240153894 1.82300305 0.7676543 -0.258653849 1.82419074 0.814760387 -0.240152344 1.74071681 0.819753349 -0.258652419 1.74395955 0.815143049 -0.25865224 1.74093485 0.765662968 -0.240153894 1.82300305 0.76302892 -0.25865376 1.82121921 0.7676543 -0.258653849 1.82419074 0.765662968 -0.240153894 1.82300305 0.761182725 -0.2401537 1.8198086 0.76302892 -0.25865376 1.82121921 0.814760387 -0.240152344 1.74071681 0.823655307 -0.240152672 1.74718726 0.819753349 -0.258652419 1.74395955 0.823655307 -0.240152672 1.74718726 0.82778424 -0.258652896 1.75149155 0.819753349 -0.258652419 1.74395955 0.761182725 -0.2401537 1.8198086 0.758774579 -0.258653462 1.81773829 0.76302892 -0.25865376 1.82121921 0.753220439 -0.244072944 1.74297845 0.75253737 -0.258650988 1.74321556 0.748680115 -0.258649915 1.74203622 0.761182725 -0.2401537 1.8198086 0.757098198 -0.240153521 1.8161211 0.758774579 -0.258653462 1.81773829 0.757098198 -0.240153521 1.8161211 0.754947126 -0.258653313 1.81379247 0.758774579 -0.258653462 1.81773829 0.757098198 -0.240153521 1.8161211 0.753463626 -0.240153313 1.81198978 0.754947126 -0.258653313 1.81379247 0.823655307 -0.240152672 1.74718726 0.830840588 -0.240153104 1.75551593 0.82778424 -0.258652896 1.75149155 0.830840588 -0.240153104 1.75551593 0.831097782 -0.258653045 1.75589848 0.82778424 -0.258652896 1.75149155 0.753463626 -0.240153313 1.81198978 0.751596034 -0.258653075 1.80943465 0.754947126 -0.258653313 1.81379247 0.753463626 -0.240153313 1.81198978 0.750326157 -0.240153044 1.80746925 0.751596034 -0.258653075 1.80943465 0.74393332 -0.227152586 1.73122358 0.746284425 -0.227150664 1.74072123 0.745625436 -0.2312942 1.73707545 0.830840588 -0.240153104 1.75551593 0.833883941 -0.258653224 1.76065731 0.831097782 -0.258653045 1.75589848 0.750326157 -0.240153044 1.80746925 0.748766601 -0.258652925 1.80472147 0.751596034 -0.258653075 1.80943465 0.750326157 -0.240153044 1.80746925 0.746147811 -0.240152702 1.79872942 0.748766601 -0.258652925 1.80472147 0.830840588 -0.240153104 1.75551593 0.835937917 -0.240153551 1.7652632 0.833883941 -0.258653224 1.76065731 0.835937917 -0.240153551 1.7652632 0.83610481 -0.258653551 1.76570451 0.833883941 -0.258653224 1.76065731 0.746147811 -0.240152702 1.79872942 0.746495068 -0.258652747 1.79971528 0.748766601 -0.258652925 1.80472147 0.835937917 -0.240153551 1.7652632 0.837614596 -0.240153715 1.77051067 0.83610481 -0.258653551 1.76570451 0.837614596 -0.240153715 1.77051067 0.838603377 -0.258653849 1.77549613 0.83610481 -0.258653551 1.76570451 0.746147811 -0.240152702 1.79872942 0.744812131 -0.258652478 1.79448223 0.746495068 -0.258652747 1.79971528 0.746147811 -0.240152702 1.79872942 0.743697584 -0.258652329 1.78859973 0.744812131 -0.258652478 1.79448223 0.837614596 -0.240153715 1.77051067 0.839009225 -0.249154001 1.77934098 0.838603377 -0.258653849 1.77549613 0.837614596 -0.240153715 1.77051067 0.839021325 -0.240154058 1.77943099 0.839009225 -0.249154001 1.77934098 0.757971287 -0.227151275 1.74373162 0.758271396 -0.240151286 1.74323106 0.751646399 -0.227151126 1.74319839 0.75253737 -0.258650988 1.74321556 0.753220439 -0.244072944 1.74297845 0.761650264 -0.258651197 1.74336755 0.761650264 -0.258651197 1.74336755 0.753220439 -0.244072944 1.74297845 0.758271396 -0.240151286 1.74323106 0.753220439 -0.244072944 1.74297845 0.751646399 -0.227151126 1.74319839 0.758271396 -0.240151286 1.74323106 0.753220439 -0.244072944 1.74297845 0.748680115 -0.258649915 1.74203622 0.748348296 -0.252138197 1.74037015 0.748348296 -0.252138197 1.74037015 0.745346844 -0.258650661 1.73839927 0.747020245 -0.251896858 1.73806703 0.751646399 -0.227151126 1.74319839 0.753220439 -0.244072944 1.74297845 0.746284425 -0.227150664 1.74072123 0.74731797 -0.237639636 1.73806775 0.748348296 -0.252138197 1.74037015 0.745625436 -0.2312942 1.73707545 0.745625436 -0.2312942 1.73707545 0.748348296 -0.252138197 1.74037015 0.747227252 -0.242889822 1.73550463 0.748158216 -0.234603703 1.74037063 0.753220439 -0.244072944 1.74297845 0.748348296 -0.252138197 1.74037015 0.745625436 -0.2312942 1.73707545 0.748158216 -0.234603703 1.74037063 0.74731797 -0.237639636 1.73806775 0.747227252 -0.242889822 1.73550463 0.747020245 -0.251896858 1.73806703 0.745346844 -0.258650661 1.73839927 0.748158216 -0.234603703 1.74037063 0.748348296 -0.252138197 1.74037015 0.74731797 -0.237639636 1.73806775 0.746284425 -0.227150664 1.74072123 0.748158216 -0.234603703 1.74037063 0.745625436 -0.2312942 1.73707545 0.748348296 -0.252138197 1.74037015 0.747020245 -0.251896858 1.73806703 0.747227252 -0.242889822 1.73550463 </float_array>
          <technique_common>
            <accessor count="444" offset="0" source="#mesh_0-positions-array" stride="3">
              <param name="X" type="float" />
              <param name="Y" type="float" />
              <param name="Z" type="float" />
            </accessor>
          </technique_common>
        </source>
        <vertices id="mesh_0-vertices">
          <input semantic="POSITION" source="#mesh_0-positions" />
        </vertices>
        <polylist count="148" material="defaultMaterial">
          <input offset="0" semantic="VERTEX" source="#mesh_0-vertices" />
          <vcount>3 3 3 3 3 3 3 3 3 3 3 3 3 3 3 3 3 3 3 3 3 3 3 3 3 3 3 3 3 3 3 3 3 3 3 3 3 3 3 3 3 3 3 3 3 3 3 3 3 3 3 3 3 3 3 3 3 3 3 3 3 3 3 3 3 3 3 3 3 3 3 3 3 3 3 3 3 3 3 3 3 3 3 3 3 3 3 3 3 3 3 3 3 3 3 3 3 3 3 3 3 3 3 3 3 3 3 3 3 3 3 3 3 3 3 3 3 3 3 3 3 3 3 3 3 3 3 3 3 3 3 3 3 3 3 3 3 3 3 3 3 3 3 3 3 3 3 3 </vcount>
          <p>0 1 2 3 4 5 6 7 8 9 10 11 12 13 14 15 16 17 18 19 20 21 22 23 24 25 26 27 28 29 30 31 32 33 34 35 36 37 38 39 40 41 42 43 44 45 46 47 48 49 50 51 52 53 54 55 56 57 58 59 60 61 62 63 64 65 66 67 68 69 70 71 72 73 74 75 76 77 78 79 80 81 82 83 84 85 86 87 88 89 90 91 92 93 94 95 96 97 98 99 100 101 102 103 104 105 106 107 108 109 110 111 112 113 114 115 116 117 118 119 120 121 122 123 124 125 126 127 128 129 130 131 132 133 134 135 136 137 138 139 140 141 142 143 144 145 146 147 148 149 150 151 152 153 154 155 156 157 158 159 160 161 162 163 164 165 166 167 168 169 170 171 172 173 174 175 176 177 178 179 180 181 182 183 184 185 186 187 188 189 190 191 192 193 194 195 196 197 198 199 200 201 202 203 204 205 206 207 208 209 210 211 212 213 214 215 216 217 218 219 220 221 222 223 224 225 226 227 228 229 230 231 232 233 234 235 236 237 238 239 240 241 242 243 244 245 246 247 248 249 250 251 252 253 254 255 256 257 258 259 260 261 262 263 264 265 266 267 268 269 270 271 272 273 274 275 276 277 278 279 280 281 282 283 284 285 286 287 288 289 290 291 292 293 294 295 296 297 298 299 300 301 302 303 304 305 306 307 308 309 310 311 312 313 314 315 316 317 318 319 320 321 322 323 324 325 326 327 328 329 330 331 332 333 334 335 336 337 338 339 340 341 342 343 344 345 346 347 348 349 350 351 352 353 354 355 356 357 358 359 360 361 362 363 364 365 366 367 368 369 370 371 372 373 374 375 376 377 378 379 380 381 382 383 384 385 386 387 388 389 390 391 392 393 394 395 396 397 398 399 400 401 402 403 404 405 406 407 408 409 410 411 412 413 414 415 416 417 418 419 420 421 422 423 424 425 426 427 428 429 430 431 432 433 434 435 436 437 438 439 440 441 442 443 </p>
        </polylist>
      </mesh>
    </geometry>
  </library_geometries>
  <library_controllers>
  </library_controllers>
  <library_visual_scenes>
    <visual_scene id="Scene" name="Scene">
      <node id="node" name="" type="NODE">
        <matrix sid="matrix">1 0 0 0 0 1 0 0 0 0 1 0 0 0 0 1</matrix>
        <instance_geometry url="#mesh_0">
          <bind_material>
            <technique_common>
              <instance_material symbol="defaultMaterial" target="#material_0">
              </instance_material>
            </technique_common>
          </bind_material>
        </instance_geometry>
      </node>
    </visual_scene>
  </library_visual_scenes>
  <scene>
    <instance_visual_scene url="#Scene" />
  </scene>
</COLLADA>
