<?xml version="1.0" encoding="UTF-8" standalone="no" ?>
<COLLADA xmlns="http://www.collada.org/2005/11/COLLADASchema" version="1.4.1">
  <asset>
    <contributor>
      <author>Assimp</author>
      <authoring_tool>Assimp Exporter</authoring_tool>
    </contributor>
    <created>2026-04-22T16:09:44</created>
    <modified>2026-04-22T16:09:44</modified>
    <unit name="meter" meter="1" />
    <up_axis>Y_UP</up_axis>
  </asset>
  <library_images>
  </library_images>
  <library_effects>
    <effect id="material_0-fx" name="">
      <profile_COMMON>
        <technique sid="standard">
          <phong>
            <emission>
              <color sid="emission">0   0   0   -0</color>
            </emission>
            <ambient>
              <color sid="ambient">0.699999988   1   0.699999988   1.82499993</color>
            </ambient>
            <diffuse>
              <color sid="diffuse">0.699999988   1   0.699999988   1.82499993</color>
            </diffuse>
            <specular>
              <color sid="specular">0.25   0.25   0.25   -0</color>
            </specular>
          </phong>
        </technique>
      </profile_COMMON>
    </effect>
  </library_effects>
  <library_materials>
    <material id="material_0" name="">
      <instance_effect url="#material_0-fx"/>
    </material>
  </library_materials>
  <library_geometries>
    <geometry id="mesh_0" name="" >
      <mesh>
        <source id="mesh_0-positions" name="mesh_0-positions">
          <float_array id="mesh_0-positions-array" count="342"> -0.278504759 0.0938880742 1.58747816 -0.204004288 0.127554357 1.80581236 -0.227324098 0.148745432 1.80152094 -0.204004288 0.127554357 1.80581236 -0.278504759 0.0938880742 1.58747816 -0.240601927 0.0943779349 1.57198691 -0.217532992 0.100874826 1.59538674 -0.204004288 0.127554357 1.80581236 -0.240601927 0.0943779349 1.57198691 -0.202825889 0.132585078 1.76747251 -0.217532992 0.100874826 1.59538674 -0.221148118 0.114250727 1.61160111 -0.217505753 0.146970183 1.78018892 -0.202825889 0.132585078 1.76747251 -0.221148118 0.114250727 1.61160111 -0.231380358 0.0973513648 1.57559669 -0.217532992 0.100874826 1.59538674 -0.240601927 0.0943779349 1.57198691 -0.255814433 0.103156917 1.57506299 -0.231380358 0.0973513648 1.57559669 -0.240601927 0.0943779349 1.57198691 -0.217532992 0.100874826 1.59538674 -0.200185016 0.131036878 1.7859596 -0.204004288 0.127554357 1.80581236 -0.200185016 0.131036878 1.7859596 -0.217532992 0.100874826 1.59538674 -0.202825889 0.132585078 1.76747251 -0.217505753 0.146970183 1.78018892 -0.200185016 0.131036878 1.7859596 -0.202825889 0.132585078 1.76747251 -0.204004288 0.127554357 1.80581236 -0.200185016 0.131036878 1.7859596 -0.227324098 0.148745432 1.80152094 -0.200185016 0.131036878 1.7859596 -0.217505753 0.146970183 1.78018892 -0.227324098 0.148745432 1.80152094 -0.278504759 0.0938880742 1.58747816 -0.254825056 0.0949159488 1.57178676 -0.240601927 0.0943779349 1.57198691 -0.254825056 0.0949159488 1.57178676 -0.255814433 0.103156917 1.57506299 -0.240601927 0.0943779349 1.57198691 -0.255814433 0.103156917 1.57506299 -0.254825056 0.0949159488 1.57178676 -0.278504759 0.0938880742 1.58747816 -0.273537755 0.105161585 1.59280324 -0.255814433 0.103156917 1.57506299 -0.278504759 0.0938880742 1.58747816 -0.273537755 0.105161585 1.59280324 -0.278504759 0.0938880742 1.58747816 -0.227324098 0.148745432 1.80152094 -0.220421076 0.146090761 1.77656007 -0.233891919 0.136747345 1.72932732 -0.227324098 0.148745432 1.80152094 -0.217505753 0.146970183 1.78018892 -0.220421076 0.146090761 1.77656007 -0.227324098 0.148745432 1.80152094 -0.217532992 0.100874826 1.59538674 -0.221230567 0.100618899 1.58730292 -0.221148118 0.114250727 1.61160111 -0.231380358 0.0973513648 1.57559669 -0.221230567 0.100618899 1.58730292 -0.217532992 0.100874826 1.59538674 -0.230573073 0.1067909 1.58199811 -0.231380358 0.0973513648 1.57559669 -0.255814433 0.103156917 1.57506299 -0.221230567 0.100618899 1.58730292 -0.230573073 0.1067909 1.58199811 -0.221148118 0.114250727 1.61160111 -0.230573073 0.1067909 1.58199811 -0.221230567 0.100618899 1.58730292 -0.231380358 0.0973513648 1.57559669 -0.273537755 0.105161585 1.59280324 -0.262275845 0.11228615 1.60413289 -0.255814433 0.103156917 1.57506299 -0.233891919 0.136747345 1.72932732 -0.262275845 0.11228615 1.60413289 -0.227324098 0.148745432 1.80152094 -0.262275845 0.11228615 1.60413289 -0.273537755 0.105161585 1.59280324 -0.227324098 0.148745432 1.80152094 -0.238001838 0.11714109 1.61722505 -0.217505753 0.146970183 1.78018892 -0.221148118 0.114250727 1.61160111 -0.220421076 0.146090761 1.77656007 -0.238001838 0.11714109 1.61722505 -0.233891919 0.136747345 1.72932732 -0.238001838 0.11714109 1.61722505 -0.220421076 0.146090761 1.77656007 -0.217505753 0.146970183 1.78018892 -0.238001838 0.11714109 1.61722505 -0.262275845 0.11228615 1.60413289 -0.233891919 0.136747345 1.72932732 -0.262275845 0.11228615 1.60413289 -0.238001838 0.11714109 1.61722505 -0.250076205 0.113656797 1.60468686 -0.244407371 0.111811914 1.59372354 -0.230573073 0.1067909 1.58199811 -0.255814433 0.103156917 1.57506299 -0.262275845 0.11228615 1.60413289 -0.244407371 0.111811914 1.59372354 -0.255814433 0.103156917 1.57506299 -0.244407371 0.111811914 1.59372354 -0.262275845 0.11228615 1.60413289 -0.250076205 0.113656797 1.60468686 -0.238001838 0.11714109 1.61722505 -0.244407371 0.111811914 1.59372354 -0.250076205 0.113656797 1.60468686 -0.230573073 0.1067909 1.58199811 -0.244407371 0.111811914 1.59372354 -0.221148118 0.114250727 1.61160111 -0.244407371 0.111811914 1.59372354 -0.238001838 0.11714109 1.61722505 -0.221148118 0.114250727 1.61160111 </float_array>
          <technique_common>
            <accessor count="114" offset="0" source="#mesh_0-positions-array" stride="3">
              <param name="X" type="float" />
              <param name="Y" type="float" />
              <param name="Z" type="float" />
            </accessor>
          </technique_common>
        </source>
        <vertices id="mesh_0-vertices">
          <input semantic="POSITION" source="#mesh_0-positions" />
        </vertices>
        <polylist count="38" material="defaultMaterial">
          <input offset="0" semantic="VERTEX" source="#mesh_0-vertices" />
          <vcount>3 3 3 3 3 3 3 3 3 3 3 3 3 3 3 3 3 3 3 3 3 3 3 3 3 3 3 3 3 3 3 3 3 3 3 3 3 3 </vcount>
          <p>0 1 2 3 4 5 6 7 8 9 10 11 12 13 14 15 16 17 18 19 20 21 22 23 24 25 26 27 28 29 30 31 32 33 34 35 36 37 38 39 40 41 42 43 44 45 46 47 48 49 50 51 52 53 54 55 56 57 58 59 60 61 62 63 64 65 66 67 68 69 70 71 72 73 74 75 76 77 78 79 80 81 82 83 84 85 86 87 88 89 90 91 92 93 94 95 96 97 98 99 100 101 102 103 104 105 106 107 108 109 110 111 112 113 </p>
        </polylist>
      </mesh>
    </geometry>
  </library_geometries>
  <library_controllers>
  </library_controllers>
  <library_visual_scenes>
    <visual_scene id="Scene" name="Scene">
      <node id="node" name="" type="NODE">
        <matrix sid="matrix">1 0 0 0 0 1 0 0 0 0 1 0 0 0 0 1</matrix>
        <instance_geometry url="#mesh_0">
          <bind_material>
            <technique_common>
              <instance_material symbol="defaultMaterial" target="#material_0">
              </instance_material>
            </technique_common>
          </bind_material>
        </instance_geometry>
      </node>
    </visual_scene>
  </library_visual_scenes>
  <scene>
    <instance_visual_scene url="#Scene" />
  </scene>
</COLLADA>
