<?xml version="1.0" encoding="UTF-8" standalone="no" ?>
<COLLADA xmlns="http://www.collada.org/2005/11/COLLADASchema" version="1.4.1">
  <asset>
    <contributor>
      <author>Assimp</author>
      <authoring_tool>Assimp Exporter</authoring_tool>
    </contributor>
    <created>2026-04-22T16:09:43</created>
    <modified>2026-04-22T16:09:43</modified>
    <unit name="meter" meter="1" />
    <up_axis>Y_UP</up_axis>
  </asset>
  <library_images>
  </library_images>
  <library_effects>
    <effect id="material_0-fx" name="">
      <profile_COMMON>
        <technique sid="standard">
          <phong>
            <emission>
              <color sid="emission">0   0   0   4.19744942e-41</color>
            </emission>
            <ambient>
              <color sid="ambient">0.986467957   0.826380849   0.619174063   4.19744942e-41</color>
            </ambient>
            <diffuse>
              <color sid="diffuse">0.986467957   0.826380849   0.619174063   4.19744942e-41</color>
            </diffuse>
            <specular>
              <color sid="specular">0.25   0.25   0.25   4.19744942e-41</color>
            </specular>
          </phong>
        </technique>
      </profile_COMMON>
    </effect>
  </library_effects>
  <library_materials>
    <material id="material_0" name="">
      <instance_effect url="#material_0-fx"/>
    </material>
  </library_materials>
  <library_geometries>
    <geometry id="mesh_0" name="" >
      <mesh>
        <source id="mesh_0-positions" name="mesh_0-positions">
          <float_array id="mesh_0-positions-array" count="2700"> 0.74564743 -0.213432938 1.2780019 0.737030804 -0.235785037 1.27799904 0.662717164 -0.24439925 1.36935544 0.667121291 -0.334926277 1.37906885 0.677469194 -0.344627589 1.3798604 0.663725793 -0.336640865 1.39430296 0.808623552 -0.296377778 1.27802205 0.71389538 -0.344653457 1.36215234 0.782441854 -0.298587769 1.27801418 0.782441854 -0.298587769 1.27801418 0.71389538 -0.344653457 1.36215234 0.693266034 -0.344693005 1.36593366 0.658765733 -0.309748441 1.38471675 0.661772013 -0.33034116 1.3907094 0.656728029 -0.309438676 1.39770031 0.67985183 -0.244226307 1.4456799 0.689414442 -0.244189933 1.45044744 0.786834955 -0.198708251 1.36067891 0.797976077 -0.200275302 1.36430538 0.786834955 -0.198708251 1.36067891 0.709691286 -0.244193316 1.45414281 0.786834955 -0.198708251 1.36067891 0.699957728 -0.244236797 1.45349371 0.709691286 -0.244193316 1.45414281 0.678006947 -0.335167974 1.36453247 0.677469194 -0.344627589 1.3798604 0.667121291 -0.334926277 1.37906885 0.740692019 -0.24450995 1.44446254 0.826755285 -0.229705065 1.37287855 0.822098911 -0.220476866 1.3723855 0.822098911 -0.220476866 1.3723855 0.820382714 -0.214048102 1.36885953 0.740692019 -0.24450995 1.44446254 0.814522207 -0.209819764 1.36930573 0.740692019 -0.24450995 1.44446254 0.820382714 -0.214048102 1.36885953 0.841563642 -0.268286973 1.27804375 0.843069196 -0.26023072 1.30908358 0.839969516 -0.269523561 1.2974422 0.841563642 -0.268286973 1.27804375 0.831661999 -0.281537741 1.29205477 0.829034984 -0.284643322 1.27801347 0.658765733 -0.309748441 1.38471675 0.654342473 -0.244214922 1.39376628 0.656928837 -0.244205132 1.38165677 0.694749475 -0.309934258 1.44944274 0.685430229 -0.309235901 1.44585574 0.687691033 -0.330073953 1.442276 0.675924718 -0.310169399 1.43956697 0.685430229 -0.309235901 1.44585574 0.67985183 -0.244226307 1.4456799 0.661772013 -0.33034116 1.3907094 0.667121291 -0.334926277 1.37906885 0.663725793 -0.336640865 1.39430296 0.756830096 -0.286629885 1.27800477 0.782441854 -0.298587769 1.27801418 0.678006947 -0.335167974 1.36453247 0.717164516 -0.352821589 1.38521767 0.709688723 -0.351189315 1.37855685 0.71389538 -0.344653457 1.36215234 0.756830096 -0.286629885 1.27800477 0.678006947 -0.335167974 1.36453247 0.742067099 -0.267406523 1.27799809 0.79000628 -0.189086974 1.29714358 0.799078465 -0.188952297 1.27802801 0.78621316 -0.188702762 1.27801955 0.658765733 -0.309748441 1.38471675 0.661893249 -0.30897367 1.37619495 0.667121291 -0.334926277 1.37906885 0.699957728 -0.244236797 1.45349371 0.786834955 -0.198708251 1.36067891 0.689414442 -0.244189933 1.45044744 0.67985183 -0.244226307 1.4456799 0.786834955 -0.198708251 1.36067891 0.671343863 -0.244171441 1.43902957 0.664581537 -0.244132116 1.43121648 0.659514666 -0.244233012 1.42280018 0.66603756 -0.309540182 1.42898464 0.656728029 -0.309438676 1.39770031 0.658654511 -0.309823513 1.41334856 0.655008495 -0.244168267 1.40917695 0.677341938 -0.337433934 1.4311111 0.669231057 -0.337371767 1.42038918 0.685020208 -0.344629019 1.42688215 0.667356074 -0.3094365 1.36738658 0.662717164 -0.24439925 1.36935544 0.737547576 -0.252588242 1.27799726 0.737547576 -0.252588242 1.27799726 0.662717164 -0.24439925 1.36935544 0.737030804 -0.235785037 1.27799904 0.661893249 -0.30897367 1.37619495 0.670807481 -0.328597039 1.36913478 0.667121291 -0.334926277 1.37906885 0.670807481 -0.328597039 1.36913478 0.678006947 -0.335167974 1.36453247 0.667121291 -0.334926277 1.37906885 0.659514666 -0.244233012 1.42280018 0.664581537 -0.244132116 1.43121648 0.780778408 -0.19266279 1.32338834 0.750614464 -0.33311066 1.42189264 0.831672192 -0.264537334 1.36190319 0.830514014 -0.256192118 1.36946785 0.750614464 -0.33311066 1.42189264 0.744780242 -0.344494611 1.40941656 0.828735113 -0.270837992 1.35863972 0.687691033 -0.330073953 1.442276 0.701652646 -0.335923195 1.44468701 0.694749475 -0.309934258 1.44944274 0.677341938 -0.337433934 1.4311111 0.685020208 -0.344629019 1.42688215 0.687184095 -0.337113917 1.43897378 0.687184095 -0.337113917 1.43897378 0.687691033 -0.330073953 1.442276 0.675834537 -0.329790682 1.43375862 0.687184095 -0.337113917 1.43897378 0.675834537 -0.329790682 1.43375862 0.677341938 -0.337433934 1.4311111 0.66151166 -0.330476344 1.40425658 0.656728029 -0.309438676 1.39770031 0.661772013 -0.33034116 1.3907094 0.66151166 -0.330476344 1.40425658 0.658654511 -0.309823513 1.41334856 0.656728029 -0.309438676 1.39770031 0.693266034 -0.344693005 1.36593366 0.699323952 -0.351836383 1.38304377 0.677469194 -0.344627589 1.3798604 0.74564743 -0.213432938 1.2780019 0.662717164 -0.24439925 1.36935544 0.758989394 -0.199245051 1.27800751 0.654342473 -0.244214922 1.39376628 0.773106873 -0.191830829 1.27800751 0.758989394 -0.199245051 1.27800751 0.654342473 -0.244214922 1.39376628 0.758989394 -0.199245051 1.27800751 0.656928837 -0.244205132 1.38165677 0.658765733 -0.309748441 1.38471675 0.656928837 -0.244205132 1.38165677 0.661893249 -0.30897367 1.37619495 0.661772013 -0.33034116 1.3907094 0.658765733 -0.309748441 1.38471675 0.667121291 -0.334926277 1.37906885 0.67985183 -0.244226307 1.4456799 0.685430229 -0.309235901 1.44585574 0.689414442 -0.244189933 1.45044744 0.671343863 -0.244171441 1.43902957 0.66603756 -0.309540182 1.42898464 0.675924718 -0.310169399 1.43956697 0.786834955 -0.198708251 1.36067891 0.664581537 -0.244132116 1.43121648 0.671343863 -0.244171441 1.43902957 0.742067099 -0.267406523 1.27799809 0.678006947 -0.335167974 1.36453247 0.670807481 -0.328597039 1.36913478 0.670807481 -0.328597039 1.36913478 0.737547576 -0.252588242 1.27799726 0.742067099 -0.267406523 1.27799809 0.667356074 -0.3094365 1.36738658 0.737547576 -0.252588242 1.27799726 0.670807481 -0.328597039 1.36913478 0.693266034 -0.344693005 1.36593366 0.677469194 -0.344627589 1.3798604 0.678006947 -0.335167974 1.36453247 0.79000628 -0.189086974 1.29714358 0.800244629 -0.189886749 1.30017161 0.799078465 -0.188952297 1.27802801 0.810744286 -0.19206956 1.29112589 0.817640364 -0.19462055 1.27803111 0.799078465 -0.188952297 1.27802801 0.795808673 -0.193946779 1.33895206 0.780778408 -0.19266279 1.32338834 0.7846421 -0.195843682 1.34678781 0.655008495 -0.244168267 1.40917695 0.659514666 -0.244233012 1.42280018 0.780778408 -0.19266279 1.32338834 0.796075702 -0.190869331 1.31689787 0.787327647 -0.191376656 1.32016182 0.795808673 -0.193946779 1.33895206 0.73963362 -0.333714396 1.43526697 0.750614464 -0.33311066 1.42189264 0.830514014 -0.256192118 1.36946785 0.744780242 -0.344494611 1.40941656 0.750614464 -0.33311066 1.42189264 0.738758862 -0.344533443 1.42145157 0.728150845 -0.35054785 1.38644147 0.808623552 -0.296377778 1.27802205 0.746456861 -0.344494551 1.39653194 0.808623552 -0.296377778 1.27802205 0.829034984 -0.284643322 1.27801347 0.746456861 -0.344494551 1.39653194 0.840326667 -0.255072713 1.33920741 0.843460798 -0.24457483 1.32815969 0.838071346 -0.246431425 1.35739505 0.694749475 -0.309934258 1.44944274 0.689414442 -0.244189933 1.45044744 0.685430229 -0.309235901 1.44585574 0.672504425 -0.344563067 1.39940619 0.663725793 -0.336640865 1.39430296 0.677469194 -0.344627589 1.3798604 0.69283247 -0.352289438 1.39324081 0.690310657 -0.351336718 1.40562952 0.672504425 -0.344563067 1.39940619 0.685020208 -0.344629019 1.42688215 0.669231057 -0.337371767 1.42038918 0.675511897 -0.344557762 1.41324842 0.66603756 -0.309540182 1.42898464 0.675834537 -0.329790682 1.43375862 0.675924718 -0.310169399 1.43956697 0.675834537 -0.329790682 1.43375862 0.667646766 -0.330252767 1.42335129 0.677341938 -0.337433934 1.4311111 0.661772013 -0.33034116 1.3907094 0.663725793 -0.336640865 1.39430296 0.66151166 -0.330476344 1.40425658 0.665082693 -0.336381763 1.41175246 0.66151166 -0.330476344 1.40425658 0.663725793 -0.336640865 1.39430296 0.663725793 -0.336640865 1.39430296 0.672504425 -0.344563067 1.39940619 0.665082693 -0.336381763 1.41175246 0.665082693 -0.336381763 1.41175246 0.658654511 -0.309823513 1.41334856 0.66151166 -0.330476344 1.40425658 0.717164516 -0.352821589 1.38521767 0.708952963 -0.354826808 1.39738643 0.705249667 -0.353521317 1.38701737 0.71389538 -0.344653457 1.36215234 0.709688723 -0.351189315 1.37855685 0.693266034 -0.344693005 1.36593366 0.709688723 -0.351189315 1.37855685 0.699323952 -0.351836383 1.38304377 0.693266034 -0.344693005 1.36593366 0.678006947 -0.335167974 1.36453247 0.782441854 -0.298587769 1.27801418 0.693266034 -0.344693005 1.36593366 0.667356074 -0.3094365 1.36738658 0.670807481 -0.328597039 1.36913478 0.661893249 -0.30897367 1.37619495 0.662717164 -0.24439925 1.36935544 0.667356074 -0.3094365 1.36738658 0.661893249 -0.30897367 1.37619495 0.7846421 -0.195843682 1.34678781 0.664581537 -0.244132116 1.43121648 0.786834955 -0.198708251 1.36067891 0.656728029 -0.309438676 1.39770031 0.654342473 -0.244214922 1.39376628 0.658765733 -0.309748441 1.38471675 0.708952963 -0.354826808 1.39738643 0.700701237 -0.353022039 1.41158187 0.699145973 -0.35395965 1.39986563 0.699145973 -0.35395965 1.39986563 0.700701237 -0.353022039 1.41158187 0.690310657 -0.351336718 1.40562952 0.690310657 -0.351336718 1.40562952 0.69283247 -0.352289438 1.39324081 0.699145973 -0.35395965 1.39986563 0.708952963 -0.354826808 1.39738643 0.715797722 -0.35376972 1.40844238 0.700701237 -0.353022039 1.41158187 0.716035426 -0.335996628 1.44453919 0.701652646 -0.335923195 1.44468701 0.721800864 -0.344660133 1.43402731 0.701652646 -0.335923195 1.44468701 0.706445158 -0.309605062 1.45159566 0.694749475 -0.309934258 1.44944274 0.701652646 -0.335923195 1.44468701 0.716035426 -0.335996628 1.44453919 0.714106202 -0.32943067 1.44738197 0.720395625 -0.244193688 1.45318198 0.797976077 -0.200275302 1.36430538 0.709691286 -0.244193316 1.45414281 0.807769358 -0.205242872 1.36805427 0.797976077 -0.200275302 1.36430538 0.73260355 -0.244231224 1.44910514 0.73260355 -0.244231224 1.44910514 0.797976077 -0.200275302 1.36430538 0.720395625 -0.244193688 1.45318198 0.843949437 -0.226850286 1.29669106 0.843555629 -0.224225238 1.27803874 0.838701904 -0.214079827 1.27807939 0.800244629 -0.189886749 1.30017161 0.805093944 -0.192948326 1.32135952 0.810744286 -0.19206956 1.29112589 0.836329103 -0.234915093 1.36053371 0.839654267 -0.23617287 1.34712589 0.837329984 -0.22533159 1.34353948 0.837329984 -0.22533159 1.34353948 0.832483292 -0.224621117 1.36220586 0.836329103 -0.234915093 1.36053371 0.800244629 -0.189886749 1.30017161 0.810744286 -0.19206956 1.29112589 0.799078465 -0.188952297 1.27802801 0.795983315 -0.19783476 1.35797203 0.786834955 -0.198708251 1.36067891 0.797976077 -0.200275302 1.36430538 0.7846421 -0.195843682 1.34678781 0.795983315 -0.19783476 1.35797203 0.795808673 -0.193946779 1.33895206 0.786834955 -0.198708251 1.36067891 0.795983315 -0.19783476 1.35797203 0.7846421 -0.195843682 1.34678781 0.787327647 -0.191376656 1.32016182 0.780778408 -0.19266279 1.32338834 0.795808673 -0.193946779 1.33895206 0.820865989 -0.197643742 1.30095196 0.813087642 -0.194872275 1.31456864 0.819463253 -0.199595913 1.32474828 0.805093944 -0.192948326 1.32135952 0.795808673 -0.193946779 1.33895206 0.807458162 -0.196608245 1.34048033 0.73963362 -0.333714396 1.43526697 0.738758862 -0.344533443 1.42145157 0.750614464 -0.33311066 1.42189264 0.721800864 -0.344660133 1.43402731 0.73963362 -0.333714396 1.43526697 0.728212595 -0.33419463 1.44214869 0.721800864 -0.344660133 1.43402731 0.738758862 -0.344533443 1.42145157 0.73963362 -0.333714396 1.43526697 0.716035426 -0.335996628 1.44453919 0.721800864 -0.344660133 1.43402731 0.728212595 -0.33419463 1.44214869 0.728085339 -0.351885378 1.39969349 0.746456861 -0.344494551 1.39653194 0.744780242 -0.344494611 1.40941656 0.808623552 -0.296377778 1.27802205 0.728150845 -0.35054785 1.38644147 0.717164516 -0.352821589 1.38521767 0.71389538 -0.344653457 1.36215234 0.808623552 -0.296377778 1.27802205 0.717164516 -0.352821589 1.38521767 0.839969516 -0.269523561 1.2974422 0.831661999 -0.281537741 1.29205477 0.841563642 -0.268286973 1.27804375 0.839969516 -0.269523561 1.2974422 0.836904526 -0.268650562 1.32846415 0.832301438 -0.278716445 1.31236315 0.706445158 -0.309605062 1.45159566 0.714106202 -0.32943067 1.44738197 0.72245127 -0.309171528 1.45000231 0.706445158 -0.309605062 1.45159566 0.72245127 -0.309171528 1.45000231 0.720395625 -0.244193688 1.45318198 0.706445158 -0.309605062 1.45159566 0.720395625 -0.244193688 1.45318198 0.709691286 -0.244193316 1.45414281 0.740782857 -0.310859263 1.44100869 0.829774559 -0.246349066 1.37253153 0.740692019 -0.24450995 1.44446254 0.844710946 -0.251861364 1.31162524 0.846563697 -0.252534807 1.27806747 0.846362233 -0.245631218 1.29937696 0.846563697 -0.252534807 1.27806747 0.844710946 -0.251861364 1.31162524 0.843069196 -0.26023072 1.30908358 0.701652646 -0.335923195 1.44468701 0.687691033 -0.330073953 1.442276 0.687184095 -0.337113917 1.43897378 0.687184095 -0.337113917 1.43897378 0.701866686 -0.34457317 1.43511283 0.701652646 -0.335923195 1.44468701 0.675924718 -0.310169399 1.43956697 0.687691033 -0.330073953 1.442276 0.685430229 -0.309235901 1.44585574 0.675924718 -0.310169399 1.43956697 0.675834537 -0.329790682 1.43375862 0.687691033 -0.330073953 1.442276 0.669231057 -0.337371767 1.42038918 0.665082693 -0.336381763 1.41175246 0.675511897 -0.344557762 1.41324842 0.665082693 -0.336381763 1.41175246 0.672504425 -0.344563067 1.39940619 0.675511897 -0.344557762 1.41324842 0.672504425 -0.344563067 1.39940619 0.690310657 -0.351336718 1.40562952 0.675511897 -0.344557762 1.41324842 0.667646766 -0.330252767 1.42335129 0.665082693 -0.336381763 1.41175246 0.669231057 -0.337371767 1.42038918 0.677341938 -0.337433934 1.4311111 0.667646766 -0.330252767 1.42335129 0.669231057 -0.337371767 1.42038918 0.705249667 -0.353521317 1.38701737 0.709688723 -0.351189315 1.37855685 0.717164516 -0.352821589 1.38521767 0.78621316 -0.188702762 1.27801955 0.778111398 -0.190854698 1.29782295 0.79000628 -0.189086974 1.29714358 0.662717164 -0.24439925 1.36935544 0.656928837 -0.244205132 1.38165677 0.758989394 -0.199245051 1.27800751 0.661893249 -0.30897367 1.37619495 0.656928837 -0.244205132 1.38165677 0.662717164 -0.24439925 1.36935544 0.655008495 -0.244168267 1.40917695 0.778111398 -0.190854698 1.29782295 0.773106873 -0.191830829 1.27800751 0.694749475 -0.309934258 1.44944274 0.706445158 -0.309605062 1.45159566 0.699957728 -0.244236797 1.45349371 0.699957728 -0.244236797 1.45349371 0.689414442 -0.244189933 1.45044744 0.694749475 -0.309934258 1.44944274 0.671343863 -0.244171441 1.43902957 0.675924718 -0.310169399 1.43956697 0.67985183 -0.244226307 1.4456799 0.671343863 -0.244171441 1.43902957 0.664581537 -0.244132116 1.43121648 0.66603756 -0.309540182 1.42898464 0.658654511 -0.309823513 1.41334856 0.66603756 -0.309540182 1.42898464 0.659514666 -0.244233012 1.42280018 0.655008495 -0.244168267 1.40917695 0.654342473 -0.244214922 1.39376628 0.656728029 -0.309438676 1.39770031 0.690310657 -0.351336718 1.40562952 0.700701237 -0.353022039 1.41158187 0.685020208 -0.344629019 1.42688215 0.685020208 -0.344629019 1.42688215 0.675511897 -0.344557762 1.41324842 0.690310657 -0.351336718 1.40562952 0.830514014 -0.256192118 1.36946785 0.740782857 -0.310859263 1.44100869 0.73963362 -0.333714396 1.43526697 0.837075472 -0.214031488 1.30664611 0.83999896 -0.222045124 1.31869566 0.843949437 -0.226850286 1.29669106 0.829818189 -0.203277722 1.27809608 0.817640364 -0.19462055 1.27803111 0.820865989 -0.197643742 1.30095196 0.805093944 -0.192948326 1.32135952 0.800244629 -0.189886749 1.30017161 0.796075702 -0.190869331 1.31689787 0.820865989 -0.197643742 1.30095196 0.817640364 -0.19462055 1.27803111 0.810744286 -0.19206956 1.29112589 0.828711867 -0.204907164 1.31228304 0.820865989 -0.197643742 1.30095196 0.819463253 -0.199595913 1.32474828 0.829818189 -0.203277722 1.27809608 0.837075472 -0.214031488 1.30664611 0.838701904 -0.214079827 1.27807939 0.846594155 -0.236014292 1.27804387 0.846362233 -0.245631218 1.29937696 0.846563697 -0.252534807 1.27806747 0.846594155 -0.236014292 1.27804387 0.843555629 -0.224225238 1.27803874 0.843949437 -0.226850286 1.29669106 0.845991313 -0.23841241 1.30118287 0.843460798 -0.24457483 1.32815969 0.846362233 -0.245631218 1.29937696 0.833294213 -0.216869816 1.34208465 0.832483292 -0.224621117 1.36220586 0.837329984 -0.22533159 1.34353948 0.83521235 -0.256369144 1.36094105 0.835188508 -0.245044619 1.36541736 0.830514014 -0.256192118 1.36946785 0.83521235 -0.256369144 1.36094105 0.830514014 -0.256192118 1.36946785 0.831672192 -0.264537334 1.36190319 0.819463253 -0.199595913 1.32474828 0.807458162 -0.196608245 1.34048033 0.811444342 -0.201310858 1.35541081 0.819463253 -0.199595913 1.32474828 0.813087642 -0.194872275 1.31456864 0.807458162 -0.196608245 1.34048033 0.811444342 -0.201310858 1.35541081 0.807458162 -0.196608245 1.34048033 0.805069983 -0.200593784 1.36136734 0.807458162 -0.196608245 1.34048033 0.795808673 -0.193946779 1.33895206 0.795983315 -0.19783476 1.35797203 0.805069983 -0.200593784 1.36136734 0.807458162 -0.196608245 1.34048033 0.795983315 -0.19783476 1.35797203 0.805093944 -0.192948326 1.32135952 0.796075702 -0.190869331 1.31689787 0.795808673 -0.193946779 1.33895206 0.746456861 -0.344494551 1.39653194 0.728085339 -0.351885378 1.39969349 0.728150845 -0.35054785 1.38644147 0.840326667 -0.255072713 1.33920741 0.844710946 -0.251861364 1.31162524 0.843460798 -0.24457483 1.32815969 0.840326667 -0.255072713 1.33920741 0.843069196 -0.26023072 1.30908358 0.844710946 -0.251861364 1.31162524 0.83521235 -0.256369144 1.36094105 0.837842822 -0.261888683 1.34086621 0.840326667 -0.255072713 1.33920741 0.831672192 -0.264537334 1.36190319 0.836904526 -0.268650562 1.32846415 0.837842822 -0.261888683 1.34086621 0.831672192 -0.264537334 1.36190319 0.837842822 -0.261888683 1.34086621 0.83521235 -0.256369144 1.36094105 0.750614464 -0.33311066 1.42189264 0.828735113 -0.270837992 1.35863972 0.831672192 -0.264537334 1.36190319 0.836904526 -0.268650562 1.32846415 0.843069196 -0.26023072 1.30908358 0.837842822 -0.261888683 1.34086621 0.843069196 -0.26023072 1.30908358 0.840326667 -0.255072713 1.33920741 0.837842822 -0.261888683 1.34086621 0.841563642 -0.268286973 1.27804375 0.846563697 -0.252534807 1.27806747 0.843069196 -0.26023072 1.30908358 0.744780242 -0.344494611 1.40941656 0.832301438 -0.278716445 1.31236315 0.829711437 -0.276888877 1.3355664 0.831661999 -0.281537741 1.29205477 0.839969516 -0.269523561 1.2974422 0.832301438 -0.278716445 1.31236315 0.843069196 -0.26023072 1.30908358 0.836904526 -0.268650562 1.32846415 0.839969516 -0.269523561 1.2974422 0.836904526 -0.268650562 1.32846415 0.829711437 -0.276888877 1.3355664 0.832301438 -0.278716445 1.31236315 0.829711437 -0.276888877 1.3355664 0.836904526 -0.268650562 1.32846415 0.828735113 -0.270837992 1.35863972 0.831229806 -0.239406466 1.37091696 0.829774559 -0.246349066 1.37253153 0.835188508 -0.245044619 1.36541736 0.830514014 -0.256192118 1.36946785 0.835188508 -0.245044619 1.36541736 0.829774559 -0.246349066 1.37253153 0.829774559 -0.246349066 1.37253153 0.740782857 -0.310859263 1.44100869 0.830514014 -0.256192118 1.36946785 0.795983315 -0.19783476 1.35797203 0.797976077 -0.200275302 1.36430538 0.805069983 -0.200593784 1.36136734 0.811444342 -0.201310858 1.35541081 0.805069983 -0.200593784 1.36136734 0.817158937 -0.206599519 1.36204278 0.701652646 -0.335923195 1.44468701 0.714106202 -0.32943067 1.44738197 0.706445158 -0.309605062 1.45159566 0.665082693 -0.336381763 1.41175246 0.667646766 -0.330252767 1.42335129 0.658654511 -0.309823513 1.41334856 0.699145973 -0.35395965 1.39986563 0.69283247 -0.352289438 1.39324081 0.705249667 -0.353521317 1.38701737 0.699145973 -0.35395965 1.39986563 0.705249667 -0.353521317 1.38701737 0.708952963 -0.354826808 1.39738643 0.728150845 -0.35054785 1.38644147 0.719321489 -0.354058832 1.39904392 0.717164516 -0.352821589 1.38521767 0.705249667 -0.353521317 1.38701737 0.69283247 -0.352289438 1.39324081 0.699323952 -0.351836383 1.38304377 0.677469194 -0.344627589 1.3798604 0.699323952 -0.351836383 1.38304377 0.69283247 -0.352289438 1.39324081 0.69283247 -0.352289438 1.39324081 0.672504425 -0.344563067 1.39940619 0.677469194 -0.344627589 1.3798604 0.778111398 -0.190854698 1.29782295 0.78621316 -0.188702762 1.27801955 0.773106873 -0.191830829 1.27800751 0.773106873 -0.191830829 1.27800751 0.654342473 -0.244214922 1.39376628 0.655008495 -0.244168267 1.40917695 0.658654511 -0.309823513 1.41334856 0.659514666 -0.244233012 1.42280018 0.655008495 -0.244168267 1.40917695 0.685020208 -0.344629019 1.42688215 0.706552446 -0.352307975 1.41611862 0.701866686 -0.34457317 1.43511283 0.685020208 -0.344629019 1.42688215 0.700701237 -0.353022039 1.41158187 0.706552446 -0.352307975 1.41611862 0.685020208 -0.344629019 1.42688215 0.701866686 -0.34457317 1.43511283 0.687184095 -0.337113917 1.43897378 0.701866686 -0.34457317 1.43511283 0.706552446 -0.352307975 1.41611862 0.721800864 -0.344660133 1.43402731 0.721800864 -0.344660133 1.43402731 0.701652646 -0.335923195 1.44468701 0.701866686 -0.34457317 1.43511283 0.721800864 -0.344660133 1.43402731 0.706552446 -0.352307975 1.41611862 0.71559304 -0.351899683 1.41654372 0.728212595 -0.33419463 1.44214869 0.732535839 -0.309820205 1.44618213 0.72245127 -0.309171528 1.45000231 0.728212595 -0.33419463 1.44214869 0.72245127 -0.309171528 1.45000231 0.714106202 -0.32943067 1.44738197 0.732535839 -0.309820205 1.44618213 0.73260355 -0.244231224 1.44910514 0.72245127 -0.309171528 1.45000231 0.716035426 -0.335996628 1.44453919 0.728212595 -0.33419463 1.44214869 0.714106202 -0.32943067 1.44738197 0.73260355 -0.244231224 1.44910514 0.740692019 -0.24450995 1.44446254 0.814522207 -0.209819764 1.36930573 0.838701904 -0.214079827 1.27807939 0.837075472 -0.214031488 1.30664611 0.843949437 -0.226850286 1.29669106 0.813087642 -0.194872275 1.31456864 0.820865989 -0.197643742 1.30095196 0.810744286 -0.19206956 1.29112589 0.813087642 -0.194872275 1.31456864 0.805093944 -0.192948326 1.32135952 0.807458162 -0.196608245 1.34048033 0.828711867 -0.204907164 1.31228304 0.829818189 -0.203277722 1.27809608 0.820865989 -0.197643742 1.30095196 0.845991313 -0.23841241 1.30118287 0.84290123 -0.231979012 1.32242727 0.843460798 -0.24457483 1.32815969 0.843949437 -0.226850286 1.29669106 0.845991313 -0.23841241 1.30118287 0.846594155 -0.236014292 1.27804387 0.844710946 -0.251861364 1.31162524 0.846362233 -0.245631218 1.29937696 0.843460798 -0.24457483 1.32815969 0.837075472 -0.214031488 1.30664611 0.83085072 -0.210229158 1.32914603 0.833294213 -0.216869816 1.34208465 0.837075472 -0.214031488 1.30664611 0.833294213 -0.216869816 1.34208465 0.83999896 -0.222045124 1.31869566 0.837329984 -0.22533159 1.34353948 0.839654267 -0.23617287 1.34712589 0.84290123 -0.231979012 1.32242727 0.833294213 -0.216869816 1.34208465 0.837329984 -0.22533159 1.34353948 0.83999896 -0.222045124 1.31869566 0.796075702 -0.190869331 1.31689787 0.800244629 -0.189886749 1.30017161 0.79000628 -0.189086974 1.29714358 0.79000628 -0.189086974 1.29714358 0.787327647 -0.191376656 1.32016182 0.796075702 -0.190869331 1.31689787 0.819463253 -0.199595913 1.32474828 0.811444342 -0.201310858 1.35541081 0.821345329 -0.203998491 1.34154749 0.829034984 -0.284643322 1.27801347 0.831661999 -0.281537741 1.29205477 0.746456861 -0.344494551 1.39653194 0.832301438 -0.278716445 1.31236315 0.744780242 -0.344494611 1.40941656 0.746456861 -0.344494551 1.39653194 0.836904526 -0.268650562 1.32846415 0.831672192 -0.264537334 1.36190319 0.828735113 -0.270837992 1.35863972 0.706445158 -0.309605062 1.45159566 0.709691286 -0.244193316 1.45414281 0.699957728 -0.244236797 1.45349371 0.805069983 -0.200593784 1.36136734 0.797976077 -0.200275302 1.36430538 0.807769358 -0.205242872 1.36805427 0.817158937 -0.206599519 1.36204278 0.807769358 -0.205242872 1.36805427 0.814522207 -0.209819764 1.36930573 0.805069983 -0.200593784 1.36136734 0.807769358 -0.205242872 1.36805427 0.817158937 -0.206599519 1.36204278 0.825634718 -0.212717637 1.35926926 0.821345329 -0.203998491 1.34154749 0.817158937 -0.206599519 1.36204278 0.667646766 -0.330252767 1.42335129 0.66603756 -0.309540182 1.42898464 0.658654511 -0.309823513 1.41334856 0.719321489 -0.354058832 1.39904392 0.708952963 -0.354826808 1.39738643 0.717164516 -0.352821589 1.38521767 0.705249667 -0.353521317 1.38701737 0.699323952 -0.351836383 1.38304377 0.709688723 -0.351189315 1.37855685 0.725261867 -0.35153383 1.41037023 0.728085339 -0.351885378 1.39969349 0.744780242 -0.344494611 1.40941656 0.725261867 -0.35153383 1.41037023 0.744780242 -0.344494611 1.40941656 0.738758862 -0.344533443 1.42145157 0.715797722 -0.35376972 1.40844238 0.708952963 -0.354826808 1.39738643 0.719321489 -0.354058832 1.39904392 0.706552446 -0.352307975 1.41611862 0.715797722 -0.35376972 1.40844238 0.71559304 -0.351899683 1.41654372 0.728085339 -0.351885378 1.39969349 0.725261867 -0.35153383 1.41037023 0.719321489 -0.354058832 1.39904392 0.719321489 -0.354058832 1.39904392 0.725261867 -0.35153383 1.41037023 0.715797722 -0.35376972 1.40844238 0.732535839 -0.309820205 1.44618213 0.740692019 -0.24450995 1.44446254 0.73260355 -0.244231224 1.44910514 0.740692019 -0.24450995 1.44446254 0.732535839 -0.309820205 1.44618213 0.740782857 -0.310859263 1.44100869 0.728212595 -0.33419463 1.44214869 0.73963362 -0.333714396 1.43526697 0.740782857 -0.310859263 1.44100869 0.740782857 -0.310859263 1.44100869 0.732535839 -0.309820205 1.44618213 0.728212595 -0.33419463 1.44214869 0.720395625 -0.244193688 1.45318198 0.72245127 -0.309171528 1.45000231 0.73260355 -0.244231224 1.44910514 0.810744286 -0.19206956 1.29112589 0.805093944 -0.192948326 1.32135952 0.813087642 -0.194872275 1.31456864 0.821345329 -0.203998491 1.34154749 0.83085072 -0.210229158 1.32914603 0.828711867 -0.204907164 1.31228304 0.821345329 -0.203998491 1.34154749 0.828711867 -0.204907164 1.31228304 0.819463253 -0.199595913 1.32474828 0.838071346 -0.246431425 1.35739505 0.843460798 -0.24457483 1.32815969 0.839654267 -0.23617287 1.34712589 0.837329984 -0.22533159 1.34353948 0.84290123 -0.231979012 1.32242727 0.83999896 -0.222045124 1.31869566 0.825634718 -0.212717637 1.35926926 0.827934444 -0.220684737 1.36638403 0.832483292 -0.224621117 1.36220586 0.826755285 -0.229705065 1.37287855 0.740692019 -0.24450995 1.44446254 0.831229806 -0.239406466 1.37091696 0.835188508 -0.245044619 1.36541736 0.831542552 -0.232395589 1.36863732 0.831229806 -0.239406466 1.37091696 0.835188508 -0.245044619 1.36541736 0.836329103 -0.234915093 1.36053371 0.831542552 -0.232395589 1.36863732 0.835188508 -0.245044619 1.36541736 0.838071346 -0.246431425 1.35739505 0.836329103 -0.234915093 1.36053371 0.838071346 -0.246431425 1.35739505 0.835188508 -0.245044619 1.36541736 0.83521235 -0.256369144 1.36094105 0.828735113 -0.270837992 1.35863972 0.744780242 -0.344494611 1.40941656 0.829711437 -0.276888877 1.3355664 0.746456861 -0.344494551 1.39653194 0.831661999 -0.281537741 1.29205477 0.832301438 -0.278716445 1.31236315 0.829774559 -0.246349066 1.37253153 0.831229806 -0.239406466 1.37091696 0.740692019 -0.24450995 1.44446254 0.827934444 -0.220684737 1.36638403 0.825634718 -0.212717637 1.35926926 0.820382714 -0.214048102 1.36885953 0.827934444 -0.220684737 1.36638403 0.820382714 -0.214048102 1.36885953 0.822098911 -0.220476866 1.3723855 0.83085072 -0.210229158 1.32914603 0.821345329 -0.203998491 1.34154749 0.825634718 -0.212717637 1.35926926 0.664581537 -0.244132116 1.43121648 0.7846421 -0.195843682 1.34678781 0.780778408 -0.19266279 1.32338834 0.728150845 -0.35054785 1.38644147 0.728085339 -0.351885378 1.39969349 0.719321489 -0.354058832 1.39904392 0.700701237 -0.353022039 1.41158187 0.715797722 -0.35376972 1.40844238 0.706552446 -0.352307975 1.41611862 0.828711867 -0.204907164 1.31228304 0.837075472 -0.214031488 1.30664611 0.829818189 -0.203277722 1.27809608 0.828711867 -0.204907164 1.31228304 0.83085072 -0.210229158 1.32914603 0.837075472 -0.214031488 1.30664611 0.845991313 -0.23841241 1.30118287 0.843949437 -0.226850286 1.29669106 0.84290123 -0.231979012 1.32242727 0.846362233 -0.245631218 1.29937696 0.846594155 -0.236014292 1.27804387 0.845991313 -0.23841241 1.30118287 0.84290123 -0.231979012 1.32242727 0.843949437 -0.226850286 1.29669106 0.83999896 -0.222045124 1.31869566 0.836329103 -0.234915093 1.36053371 0.838071346 -0.246431425 1.35739505 0.839654267 -0.23617287 1.34712589 0.84290123 -0.231979012 1.32242727 0.839654267 -0.23617287 1.34712589 0.843460798 -0.24457483 1.32815969 0.825634718 -0.212717637 1.35926926 0.832483292 -0.224621117 1.36220586 0.833294213 -0.216869816 1.34208465 0.831229806 -0.239406466 1.37091696 0.831542552 -0.232395589 1.36863732 0.826755285 -0.229705065 1.37287855 0.831542552 -0.232395589 1.36863732 0.832483292 -0.224621117 1.36220586 0.827934444 -0.220684737 1.36638403 0.826755285 -0.229705065 1.37287855 0.827934444 -0.220684737 1.36638403 0.822098911 -0.220476866 1.3723855 0.83521235 -0.256369144 1.36094105 0.840326667 -0.255072713 1.33920741 0.838071346 -0.246431425 1.35739505 0.780778408 -0.19266279 1.32338834 0.778111398 -0.190854698 1.29782295 0.655008495 -0.244168267 1.40917695 0.778111398 -0.190854698 1.29782295 0.787327647 -0.191376656 1.32016182 0.79000628 -0.189086974 1.29714358 0.817158937 -0.206599519 1.36204278 0.821345329 -0.203998491 1.34154749 0.811444342 -0.201310858 1.35541081 0.721800864 -0.344660133 1.43402731 0.725261867 -0.35153383 1.41037023 0.738758862 -0.344533443 1.42145157 0.725261867 -0.35153383 1.41037023 0.721800864 -0.344660133 1.43402731 0.71559304 -0.351899683 1.41654372 0.817158937 -0.206599519 1.36204278 0.814522207 -0.209819764 1.36930573 0.820382714 -0.214048102 1.36885953 0.833294213 -0.216869816 1.34208465 0.83085072 -0.210229158 1.32914603 0.825634718 -0.212717637 1.35926926 0.778111398 -0.190854698 1.29782295 0.780778408 -0.19266279 1.32338834 0.787327647 -0.191376656 1.32016182 0.825634718 -0.212717637 1.35926926 0.817158937 -0.206599519 1.36204278 0.820382714 -0.214048102 1.36885953 0.831542552 -0.232395589 1.36863732 0.836329103 -0.234915093 1.36053371 0.832483292 -0.224621117 1.36220586 0.827934444 -0.220684737 1.36638403 0.826755285 -0.229705065 1.37287855 0.831542552 -0.232395589 1.36863732 0.71559304 -0.351899683 1.41654372 0.715797722 -0.35376972 1.40844238 0.725261867 -0.35153383 1.41037023 0.675834537 -0.329790682 1.43375862 0.66603756 -0.309540182 1.42898464 0.667646766 -0.330252767 1.42335129 0.814522207 -0.209819764 1.36930573 0.807769358 -0.205242872 1.36805427 0.73260355 -0.244231224 1.44910514 0.808623552 -0.296377778 1.27802205 0.737030804 -0.235785037 1.27799904 0.74564743 -0.213432938 1.2780019 0.808623552 -0.296377778 1.27802205 0.742067099 -0.267406523 1.27799809 0.737547576 -0.252588242 1.27799726 0.808623552 -0.296377778 1.27802205 0.737547576 -0.252588242 1.27799726 0.737030804 -0.235785037 1.27799904 0.808623552 -0.296377778 1.27802205 0.756830096 -0.286629885 1.27800477 0.742067099 -0.267406523 1.27799809 0.808623552 -0.296377778 1.27802205 0.74564743 -0.213432938 1.2780019 0.758989394 -0.199245051 1.27800751 0.808623552 -0.296377778 1.27802205 0.773106873 -0.191830829 1.27800751 0.78621316 -0.188702762 1.27801955 0.808623552 -0.296377778 1.27802205 0.782441854 -0.298587769 1.27801418 0.756830096 -0.286629885 1.27800477 0.808623552 -0.296377778 1.27802205 0.846563697 -0.252534807 1.27806747 0.841563642 -0.268286973 1.27804375 0.829818189 -0.203277722 1.27809608 0.838701904 -0.214079827 1.27807939 0.808623552 -0.296377778 1.27802205 0.799078465 -0.188952297 1.27802801 0.817640364 -0.19462055 1.27803111 0.808623552 -0.296377778 1.27802205 0.838701904 -0.214079827 1.27807939 0.843555629 -0.224225238 1.27803874 0.808623552 -0.296377778 1.27802205 0.808623552 -0.296377778 1.27802205 0.841563642 -0.268286973 1.27804375 0.829034984 -0.284643322 1.27801347 0.808623552 -0.296377778 1.27802205 0.78621316 -0.188702762 1.27801955 0.799078465 -0.188952297 1.27802801 0.808623552 -0.296377778 1.27802205 0.758989394 -0.199245051 1.27800751 0.773106873 -0.191830829 1.27800751 0.843555629 -0.224225238 1.27803874 0.846594155 -0.236014292 1.27804387 0.808623552 -0.296377778 1.27802205 0.846594155 -0.236014292 1.27804387 0.846563697 -0.252534807 1.27806747 0.808623552 -0.296377778 1.27802205 0.817640364 -0.19462055 1.27803111 0.829818189 -0.203277722 1.27809608 0.808623552 -0.296377778 1.27802205 </float_array>
          <technique_common>
            <accessor count="900" offset="0" source="#mesh_0-positions-array" stride="3">
              <param name="X" type="float" />
              <param name="Y" type="float" />
              <param name="Z" type="float" />
            </accessor>
          </technique_common>
        </source>
        <vertices id="mesh_0-vertices">
          <input semantic="POSITION" source="#mesh_0-positions" />
        </vertices>
        <polylist count="300" material="defaultMaterial">
          <input offset="0" semantic="VERTEX" source="#mesh_0-vertices" />
          <vcount>3 3 3 3 3 3 3 3 3 3 3 3 3 3 3 3 3 3 3 3 3 3 3 3 3 3 3 3 3 3 3 3 3 3 3 3 3 3 3 3 3 3 3 3 3 3 3 3 3 3 3 3 3 3 3 3 3 3 3 3 3 3 3 3 3 3 3 3 3 3 3 3 3 3 3 3 3 3 3 3 3 3 3 3 3 3 3 3 3 3 3 3 3 3 3 3 3 3 3 3 3 3 3 3 3 3 3 3 3 3 3 3 3 3 3 3 3 3 3 3 3 3 3 3 3 3 3 3 3 3 3 3 3 3 3 3 3 3 3 3 3 3 3 3 3 3 3 3 3 3 3 3 3 3 3 3 3 3 3 3 3 3 3 3 3 3 3 3 3 3 3 3 3 3 3 3 3 3 3 3 3 3 3 3 3 3 3 3 3 3 3 3 3 3 3 3 3 3 3 3 3 3 3 3 3 3 3 3 3 3 3 3 3 3 3 3 3 3 3 3 3 3 3 3 3 3 3 3 3 3 3 3 3 3 3 3 3 3 3 3 3 3 3 3 3 3 3 3 3 3 3 3 3 3 3 3 3 3 3 3 3 3 3 3 3 3 3 3 3 3 3 3 3 3 3 3 3 3 3 3 3 3 3 3 3 3 3 3 3 3 3 3 3 3 3 3 3 3 3 3 </vcount>
          <p>0 1 2 3 4 5 6 7 8 9 10 11 12 13 14 15 16 17 18 19 20 21 22 23 24 25 26 27 28 29 30 31 32 33 34 35 36 37 38 39 40 41 42 43 44 45 46 47 48 49 50 51 52 53 54 55 56 57 58 59 60 61 62 63 64 65 66 67 68 69 70 71 72 73 74 75 76 77 78 79 80 81 82 83 84 85 86 87 88 89 90 91 92 93 94 95 96 97 98 99 100 101 102 103 104 105 106 107 108 109 110 111 112 113 114 115 116 117 118 119 120 121 122 123 124 125 126 127 128 129 130 131 132 133 134 135 136 137 138 139 140 141 142 143 144 145 146 147 148 149 150 151 152 153 154 155 156 157 158 159 160 161 162 163 164 165 166 167 168 169 170 171 172 173 174 175 176 177 178 179 180 181 182 183 184 185 186 187 188 189 190 191 192 193 194 195 196 197 198 199 200 201 202 203 204 205 206 207 208 209 210 211 212 213 214 215 216 217 218 219 220 221 222 223 224 225 226 227 228 229 230 231 232 233 234 235 236 237 238 239 240 241 242 243 244 245 246 247 248 249 250 251 252 253 254 255 256 257 258 259 260 261 262 263 264 265 266 267 268 269 270 271 272 273 274 275 276 277 278 279 280 281 282 283 284 285 286 287 288 289 290 291 292 293 294 295 296 297 298 299 300 301 302 303 304 305 306 307 308 309 310 311 312 313 314 315 316 317 318 319 320 321 322 323 324 325 326 327 328 329 330 331 332 333 334 335 336 337 338 339 340 341 342 343 344 345 346 347 348 349 350 351 352 353 354 355 356 357 358 359 360 361 362 363 364 365 366 367 368 369 370 371 372 373 374 375 376 377 378 379 380 381 382 383 384 385 386 387 388 389 390 391 392 393 394 395 396 397 398 399 400 401 402 403 404 405 406 407 408 409 410 411 412 413 414 415 416 417 418 419 420 421 422 423 424 425 426 427 428 429 430 431 432 433 434 435 436 437 438 439 440 441 442 443 444 445 446 447 448 449 450 451 452 453 454 455 456 457 458 459 460 461 462 463 464 465 466 467 468 469 470 471 472 473 474 475 476 477 478 479 480 481 482 483 484 485 486 487 488 489 490 491 492 493 494 495 496 497 498 499 500 501 502 503 504 505 506 507 508 509 510 511 512 513 514 515 516 517 518 519 520 521 522 523 524 525 526 527 528 529 530 531 532 533 534 535 536 537 538 539 540 541 542 543 544 545 546 547 548 549 550 551 552 553 554 555 556 557 558 559 560 561 562 563 564 565 566 567 568 569 570 571 572 573 574 575 576 577 578 579 580 581 582 583 584 585 586 587 588 589 590 591 592 593 594 595 596 597 598 599 600 601 602 603 604 605 606 607 608 609 610 611 612 613 614 615 616 617 618 619 620 621 622 623 624 625 626 627 628 629 630 631 632 633 634 635 636 637 638 639 640 641 642 643 644 645 646 647 648 649 650 651 652 653 654 655 656 657 658 659 660 661 662 663 664 665 666 667 668 669 670 671 672 673 674 675 676 677 678 679 680 681 682 683 684 685 686 687 688 689 690 691 692 693 694 695 696 697 698 699 700 701 702 703 704 705 706 707 708 709 710 711 712 713 714 715 716 717 718 719 720 721 722 723 724 725 726 727 728 729 730 731 732 733 734 735 736 737 738 739 740 741 742 743 744 745 746 747 748 749 750 751 752 753 754 755 756 757 758 759 760 761 762 763 764 765 766 767 768 769 770 771 772 773 774 775 776 777 778 779 780 781 782 783 784 785 786 787 788 789 790 791 792 793 794 795 796 797 798 799 800 801 802 803 804 805 806 807 808 809 810 811 812 813 814 815 816 817 818 819 820 821 822 823 824 825 826 827 828 829 830 831 832 833 834 835 836 837 838 839 840 841 842 843 844 845 846 847 848 849 850 851 852 853 854 855 856 857 858 859 860 861 862 863 864 865 866 867 868 869 870 871 872 873 874 875 876 877 878 879 880 881 882 883 884 885 886 887 888 889 890 891 892 893 894 895 896 897 898 899 </p>
        </polylist>
      </mesh>
    </geometry>
  </library_geometries>
  <library_controllers>
  </library_controllers>
  <library_visual_scenes>
    <visual_scene id="Scene" name="Scene">
      <node id="node" name="" type="NODE">
        <matrix sid="matrix">1 0 0 0 0 1 0 0 0 0 1 0 0 0 0 1</matrix>
        <instance_geometry url="#mesh_0">
          <bind_material>
            <technique_common>
              <instance_material symbol="defaultMaterial" target="#material_0">
              </instance_material>
            </technique_common>
          </bind_material>
        </instance_geometry>
      </node>
    </visual_scene>
  </library_visual_scenes>
  <scene>
    <instance_visual_scene url="#Scene" />
  </scene>
</COLLADA>
