<?xml version="1.0" encoding="UTF-8" standalone="no" ?>
<COLLADA xmlns="http://www.collada.org/2005/11/COLLADASchema" version="1.4.1">
  <asset>
    <contributor>
      <author>Assimp</author>
      <authoring_tool>Assimp Exporter</authoring_tool>
    </contributor>
    <created>2026-04-22T16:09:43</created>
    <modified>2026-04-22T16:09:43</modified>
    <unit name="meter" meter="1" />
    <up_axis>Y_UP</up_axis>
  </asset>
  <library_images>
  </library_images>
  <library_effects>
    <effect id="material_0-fx" name="">
      <profile_COMMON>
        <technique sid="standard">
          <phong>
            <emission>
              <color sid="emission">0   0   0   -0</color>
            </emission>
            <ambient>
              <color sid="ambient">0.699999988   1   0.699999988   1.82499993</color>
            </ambient>
            <diffuse>
              <color sid="diffuse">0.699999988   1   0.699999988   1.82499993</color>
            </diffuse>
            <specular>
              <color sid="specular">0.25   0.25   0.25   -0</color>
            </specular>
          </phong>
        </technique>
      </profile_COMMON>
    </effect>
  </library_effects>
  <library_materials>
    <material id="material_0" name="">
      <instance_effect url="#material_0-fx"/>
    </material>
  </library_materials>
  <library_geometries>
    <geometry id="mesh_0" name="" >
      <mesh>
        <source id="mesh_0-positions" name="mesh_0-positions">
          <float_array id="mesh_0-positions-array" count="504"> 0.813066781 -0.309634745 1.57014656 0.756400883 -0.304732442 1.62696183 0.81914866 -0.295931518 1.6326158 0.756400883 -0.304732442 1.62696183 0.76787138 -0.301284671 1.64066625 0.81914866 -0.295931518 1.6326158 0.768367887 -0.322426051 1.72865379 0.76787138 -0.301284671 1.64066625 0.756400883 -0.304732442 1.62696183 0.824237525 -0.309178799 1.6335597 0.813066781 -0.309634745 1.57014656 0.81914866 -0.295931518 1.6326158 0.761160254 -0.342967451 1.73162341 0.808956087 -0.321463436 1.72924674 0.768367887 -0.322426051 1.72865379 0.808956087 -0.321463436 1.72924674 0.761160254 -0.342967451 1.73162341 0.821371317 -0.343002558 1.73183513 0.788117349 -0.329656363 1.58844388 0.756400883 -0.304732442 1.62696183 0.813066781 -0.309634745 1.57014656 0.788117349 -0.329656363 1.58844388 0.769274592 -0.332203299 1.60969603 0.756400883 -0.304732442 1.62696183 0.760378718 -0.331072628 1.72179925 0.768367887 -0.322426051 1.72865379 0.756400883 -0.304732442 1.62696183 0.761160254 -0.342967451 1.73162341 0.760378718 -0.331072628 1.72179925 0.756400883 -0.304732442 1.62696183 0.760378718 -0.331072628 1.72179925 0.761160254 -0.342967451 1.73162341 0.768367887 -0.322426051 1.72865379 0.769274592 -0.332203299 1.60969603 0.76194942 -0.328299284 1.63843095 0.756400883 -0.304732442 1.62696183 0.76194942 -0.328299284 1.63843095 0.761160254 -0.342967451 1.73162341 0.756400883 -0.304732442 1.62696183 0.76787138 -0.301284671 1.64066625 0.800955474 -0.299014419 1.64118445 0.81914866 -0.295931518 1.6326158 0.822305322 -0.331845731 1.72497392 0.824237525 -0.309178799 1.6335597 0.81914866 -0.295931518 1.6326158 0.824237525 -0.309178799 1.6335597 0.822305322 -0.331845731 1.72497392 0.821371317 -0.343002558 1.73183513 0.824237525 -0.309178799 1.6335597 0.815594137 -0.326884776 1.59711695 0.813066781 -0.309634745 1.57014656 0.815594137 -0.326884776 1.59711695 0.812062562 -0.354539335 1.72743571 0.809576213 -0.340179086 1.64104939 0.792340219 -0.319402486 1.72366202 0.808956087 -0.321463436 1.72924674 0.81914866 -0.295931518 1.6326158 0.808956087 -0.321463436 1.72924674 0.792340219 -0.319402486 1.72366202 0.768367887 -0.322426051 1.72865379 0.800955474 -0.299014419 1.64118445 0.792340219 -0.319402486 1.72366202 0.81914866 -0.295931518 1.6326158 0.792340219 -0.319402486 1.72366202 0.76787138 -0.301284671 1.64066625 0.768367887 -0.322426051 1.72865379 0.792340219 -0.319402486 1.72366202 0.800955474 -0.299014419 1.64118445 0.76787138 -0.301284671 1.64066625 0.76194942 -0.328299284 1.63843095 0.764981568 -0.350550324 1.73125982 0.761160254 -0.342967451 1.73162341 0.761160254 -0.342967451 1.73162341 0.764981568 -0.350550324 1.73125982 0.821371317 -0.343002558 1.73183513 0.77145946 -0.355042338 1.72848821 0.764981568 -0.350550324 1.73125982 0.769274592 -0.332203299 1.60969603 0.764981568 -0.350550324 1.73125982 0.76194942 -0.328299284 1.63843095 0.769274592 -0.332203299 1.60969603 0.764981568 -0.350550324 1.73125982 0.812062562 -0.354539335 1.72743571 0.821371317 -0.343002558 1.73183513 0.812062562 -0.354539335 1.72743571 0.764981568 -0.350550324 1.73125982 0.77145946 -0.355042338 1.72848821 0.800442338 -0.356940538 1.72488439 0.77145946 -0.355042338 1.72848821 0.782672644 -0.357144296 1.72490799 0.800442338 -0.356940538 1.72488439 0.812062562 -0.354539335 1.72743571 0.77145946 -0.355042338 1.72848821 0.789618313 -0.343449056 1.64518034 0.800442338 -0.356940538 1.72488439 0.782672644 -0.357144296 1.72490799 0.812062562 -0.354539335 1.72743571 0.800442338 -0.356940538 1.72488439 0.809576213 -0.340179086 1.64104939 0.800442338 -0.356940538 1.72488439 0.789618313 -0.343449056 1.64518034 0.809576213 -0.340179086 1.64104939 0.817122817 -0.324718505 1.72751606 0.808956087 -0.321463436 1.72924674 0.821371317 -0.343002558 1.73183513 0.822305322 -0.331845731 1.72497392 0.817122817 -0.324718505 1.72751606 0.821371317 -0.343002558 1.73183513 0.808956087 -0.321463436 1.72924674 0.817122817 -0.324718505 1.72751606 0.81914866 -0.295931518 1.6326158 0.817122817 -0.324718505 1.72751606 0.822305322 -0.331845731 1.72497392 0.81914866 -0.295931518 1.6326158 0.801953018 -0.332763493 1.60070276 0.815594137 -0.326884776 1.59711695 0.809576213 -0.340179086 1.64104939 0.789618313 -0.343449056 1.64518034 0.801953018 -0.332763493 1.60070276 0.809576213 -0.340179086 1.64104939 0.801953018 -0.332763493 1.60070276 0.789618313 -0.343449056 1.64518034 0.788117349 -0.329656363 1.58844388 0.820171535 -0.330169082 1.64448237 0.824237525 -0.309178799 1.6335597 0.821371317 -0.343002558 1.73183513 0.820171535 -0.330169082 1.64448237 0.815594137 -0.326884776 1.59711695 0.824237525 -0.309178799 1.6335597 0.788117349 -0.329656363 1.58844388 0.773614347 -0.338790715 1.63327432 0.769274592 -0.332203299 1.60969603 0.789618313 -0.343449056 1.64518034 0.773614347 -0.338790715 1.63327432 0.788117349 -0.329656363 1.58844388 0.773614347 -0.338790715 1.63327432 0.789618313 -0.343449056 1.64518034 0.782672644 -0.357144296 1.72490799 0.77145946 -0.355042338 1.72848821 0.773614347 -0.338790715 1.63327432 0.782672644 -0.357144296 1.72490799 0.773614347 -0.338790715 1.63327432 0.77145946 -0.355042338 1.72848821 0.769274592 -0.332203299 1.60969603 0.809670746 -0.326946795 1.5897429 0.801953018 -0.332763493 1.60070276 0.788117349 -0.329656363 1.58844388 0.801953018 -0.332763493 1.60070276 0.809670746 -0.326946795 1.5897429 0.815594137 -0.326884776 1.59711695 0.809670746 -0.326946795 1.5897429 0.788117349 -0.329656363 1.58844388 0.813066781 -0.309634745 1.57014656 0.815594137 -0.326884776 1.59711695 0.809670746 -0.326946795 1.5897429 0.813066781 -0.309634745 1.57014656 0.815594137 -0.326884776 1.59711695 0.817040265 -0.349406928 1.7224555 0.812062562 -0.354539335 1.72743571 0.820171535 -0.330169082 1.64448237 0.817040265 -0.349406928 1.7224555 0.815594137 -0.326884776 1.59711695 0.812062562 -0.354539335 1.72743571 0.817040265 -0.349406928 1.7224555 0.821371317 -0.343002558 1.73183513 0.817040265 -0.349406928 1.7224555 0.820171535 -0.330169082 1.64448237 0.821371317 -0.343002558 1.73183513 </float_array>
          <technique_common>
            <accessor count="168" offset="0" source="#mesh_0-positions-array" stride="3">
              <param name="X" type="float" />
              <param name="Y" type="float" />
              <param name="Z" type="float" />
            </accessor>
          </technique_common>
        </source>
        <vertices id="mesh_0-vertices">
          <input semantic="POSITION" source="#mesh_0-positions" />
        </vertices>
        <polylist count="56" material="defaultMaterial">
          <input offset="0" semantic="VERTEX" source="#mesh_0-vertices" />
          <vcount>3 3 3 3 3 3 3 3 3 3 3 3 3 3 3 3 3 3 3 3 3 3 3 3 3 3 3 3 3 3 3 3 3 3 3 3 3 3 3 3 3 3 3 3 3 3 3 3 3 3 3 3 3 3 3 3 </vcount>
          <p>0 1 2 3 4 5 6 7 8 9 10 11 12 13 14 15 16 17 18 19 20 21 22 23 24 25 26 27 28 29 30 31 32 33 34 35 36 37 38 39 40 41 42 43 44 45 46 47 48 49 50 51 52 53 54 55 56 57 58 59 60 61 62 63 64 65 66 67 68 69 70 71 72 73 74 75 76 77 78 79 80 81 82 83 84 85 86 87 88 89 90 91 92 93 94 95 96 97 98 99 100 101 102 103 104 105 106 107 108 109 110 111 112 113 114 115 116 117 118 119 120 121 122 123 124 125 126 127 128 129 130 131 132 133 134 135 136 137 138 139 140 141 142 143 144 145 146 147 148 149 150 151 152 153 154 155 156 157 158 159 160 161 162 163 164 165 166 167 </p>
        </polylist>
      </mesh>
    </geometry>
  </library_geometries>
  <library_controllers>
  </library_controllers>
  <library_visual_scenes>
    <visual_scene id="Scene" name="Scene">
      <node id="node" name="" type="NODE">
        <matrix sid="matrix">1 0 0 0 0 1 0 0 0 0 1 0 0 0 0 1</matrix>
        <instance_geometry url="#mesh_0">
          <bind_material>
            <technique_common>
              <instance_material symbol="defaultMaterial" target="#material_0">
              </instance_material>
            </technique_common>
          </bind_material>
        </instance_geometry>
      </node>
    </visual_scene>
  </library_visual_scenes>
  <scene>
    <instance_visual_scene url="#Scene" />
  </scene>
</COLLADA>
