<?xml version="1.0" encoding="UTF-8" standalone="no" ?>
<COLLADA xmlns="http://www.collada.org/2005/11/COLLADASchema" version="1.4.1">
  <asset>
    <contributor>
      <author>Assimp</author>
      <authoring_tool>Assimp Exporter</authoring_tool>
    </contributor>
    <created>2026-04-22T16:09:43</created>
    <modified>2026-04-22T16:09:43</modified>
    <unit name="meter" meter="1" />
    <up_axis>Y_UP</up_axis>
  </asset>
  <library_images>
  </library_images>
  <library_effects>
    <effect id="material_0-fx" name="">
      <profile_COMMON>
        <technique sid="standard">
          <phong>
            <emission>
              <color sid="emission">0   0   0   -1.87499988</color>
            </emission>
            <ambient>
              <color sid="ambient">0.400000006   0.400000006   0.400000006   -1.40108883</color>
            </ambient>
            <diffuse>
              <color sid="diffuse">0.400000006   0.400000006   0.400000006   -1.40108883</color>
            </diffuse>
            <specular>
              <color sid="specular">0.25   0.25   0.25   0.264730781</color>
            </specular>
          </phong>
        </technique>
      </profile_COMMON>
    </effect>
  </library_effects>
  <library_materials>
    <material id="material_0" name="">
      <instance_effect url="#material_0-fx"/>
    </material>
  </library_materials>
  <library_geometries>
    <geometry id="mesh_0" name="" >
      <mesh>
        <source id="mesh_0-positions" name="mesh_0-positions">
          <float_array id="mesh_0-positions-array" count="441"> 0.629355609 -0.216177464 1.69052589 0.629463196 -0.21295388 1.69781291 0.631426215 -0.214960545 1.68795836 0.629355609 -0.216177464 1.69052589 0.631426215 -0.214960545 1.68795836 0.63140738 -0.218318015 1.68929338 0.63140738 -0.218318015 1.68929338 0.631426215 -0.214960545 1.68795836 0.644155204 -0.232891336 1.68903565 0.644155204 -0.232891336 1.68903565 0.631426215 -0.214960545 1.68795836 0.647171199 -0.233343974 1.68797576 0.647171199 -0.233343974 1.68797576 0.649110973 -0.236140624 1.70547915 0.648463845 -0.235179141 1.69227803 0.629983068 -0.216712818 1.70532227 0.632941186 -0.216504157 1.70698249 0.629839182 -0.213339314 1.70217144 0.628690183 -0.215366945 1.70233166 0.629839182 -0.213339314 1.70217144 0.629463196 -0.21295388 1.69781291 0.629463196 -0.21295388 1.69781291 0.629355609 -0.216177464 1.69052589 0.628690183 -0.215366945 1.70233166 0.648463845 -0.235179141 1.69227803 0.649110973 -0.236140624 1.70547915 0.647192001 -0.237367988 1.70411122 0.644155204 -0.232891336 1.68903565 0.644154847 -0.232891455 1.68903565 0.63140738 -0.218318015 1.68929338 0.647040963 -0.237145007 1.69651413 0.648463845 -0.235179141 1.69227803 0.647192001 -0.237367988 1.70411122 0.647171199 -0.233343974 1.68797576 0.648463845 -0.235179141 1.69227803 0.644641936 -0.233552679 1.68908238 0.644641936 -0.233552679 1.68908238 0.644155204 -0.232891336 1.68903565 0.647171199 -0.233343974 1.68797576 0.64142859 -0.22966525 1.71089923 0.646990538 -0.233115181 1.71092415 0.642956555 -0.227846965 1.71273589 0.647192001 -0.237367988 1.70411122 0.649110973 -0.236140624 1.70547915 0.64653486 -0.236395389 1.70833755 0.64142859 -0.22966525 1.71089923 0.642956555 -0.227846965 1.71273589 0.640301108 -0.228234485 1.71048903 0.64653486 -0.236395389 1.70833755 0.649110973 -0.236140624 1.70547915 0.646990538 -0.233115181 1.71092415 0.64142859 -0.22966525 1.71089923 0.64653486 -0.236395389 1.70833755 0.646990538 -0.233115181 1.71092415 0.629839182 -0.213339314 1.70217144 0.628690183 -0.215366945 1.70233166 0.629983068 -0.216712818 1.70532227 0.64402616 -0.232990906 1.68926835 0.63140738 -0.218318015 1.68929338 0.644154847 -0.232891455 1.68903565 0.63140738 -0.218318015 1.68929338 0.64402616 -0.232990906 1.68926835 0.629355609 -0.216177464 1.69052589 0.629839182 -0.213339314 1.70217144 0.631426215 -0.214960545 1.68795836 0.629463196 -0.21295388 1.69781291 0.643972695 -0.232965797 1.68961334 0.644641936 -0.233552679 1.68908238 0.647040963 -0.237145007 1.69651413 0.644038737 -0.232986078 1.68920743 0.644641936 -0.233552679 1.68908238 0.643972695 -0.232965797 1.68961334 0.64653486 -0.236395389 1.70833755 0.647040963 -0.237145007 1.69651413 0.647192001 -0.237367988 1.70411122 0.643298686 -0.229201525 1.70428407 0.643972695 -0.232965797 1.68961334 0.64653486 -0.236395389 1.70833755 0.647171199 -0.233343974 1.68797576 0.642956555 -0.227846965 1.71273589 0.646990538 -0.233115181 1.71092415 0.647040963 -0.237145007 1.69651413 0.64653486 -0.236395389 1.70833755 0.643972695 -0.232965797 1.68961334 0.64653486 -0.236395389 1.70833755 0.640298247 -0.228283763 1.71037471 0.643298686 -0.229201525 1.70428407 0.64142859 -0.22966525 1.71089923 0.640298247 -0.228283763 1.71037471 0.64653486 -0.236395389 1.70833755 0.629983068 -0.216712818 1.70532227 0.640298247 -0.228283763 1.71037471 0.640301108 -0.228234485 1.71048903 0.642652869 -0.228784502 1.69436431 0.629355609 -0.216177464 1.69052589 0.64402616 -0.232990906 1.68926835 0.642652869 -0.228784502 1.69436431 0.64402616 -0.232990906 1.68926835 0.643972695 -0.232965797 1.68961334 0.643298686 -0.229201525 1.70428407 0.642652869 -0.228784502 1.69436431 0.643972695 -0.232965797 1.68961334 0.643298686 -0.229201525 1.70428407 0.640298247 -0.228283763 1.71037471 0.629983068 -0.216712818 1.70532227 0.647171199 -0.233343974 1.68797576 0.646990538 -0.233115181 1.71092415 0.649110973 -0.236140624 1.70547915 0.632941186 -0.216504157 1.70698249 0.631426215 -0.214960545 1.68795836 0.629839182 -0.213339314 1.70217144 0.628690183 -0.215366945 1.70233166 0.643298686 -0.229201525 1.70428407 0.629983068 -0.216712818 1.70532227 0.642956555 -0.227846965 1.71273589 0.631426215 -0.214960545 1.68795836 0.632941186 -0.216504157 1.70698249 0.629355609 -0.216177464 1.69052589 0.643298686 -0.229201525 1.70428407 0.628690183 -0.215366945 1.70233166 0.642652869 -0.228784502 1.69436431 0.643298686 -0.229201525 1.70428407 0.629355609 -0.216177464 1.69052589 0.648463845 -0.235179141 1.69227803 0.647040963 -0.237145007 1.69651413 0.644641936 -0.233552679 1.68908238 0.644641936 -0.233552679 1.68908238 0.644038737 -0.232986078 1.68920743 0.644154847 -0.232891455 1.68903565 0.644641936 -0.233552679 1.68908238 0.644154847 -0.232891455 1.68903565 0.644155204 -0.232891336 1.68903565 0.644155204 -0.232891336 1.68903565 0.644154847 -0.232891455 1.68903565 0.644155204 -0.232891336 1.68903565 0.644155204 -0.232891336 1.68903565 0.644155204 -0.232891336 1.68903565 0.644155204 -0.232891336 1.68903565 0.644038737 -0.232986078 1.68920743 0.64402616 -0.232990906 1.68926835 0.644154847 -0.232891455 1.68903565 0.640301108 -0.228234485 1.71048903 0.632941186 -0.216504157 1.70698249 0.629983068 -0.216712818 1.70532227 0.642956555 -0.227846965 1.71273589 0.632941186 -0.216504157 1.70698249 0.640301108 -0.228234485 1.71048903 </float_array>
          <technique_common>
            <accessor count="147" offset="0" source="#mesh_0-positions-array" stride="3">
              <param name="X" type="float" />
              <param name="Y" type="float" />
              <param name="Z" type="float" />
            </accessor>
          </technique_common>
        </source>
        <vertices id="mesh_0-vertices">
          <input semantic="POSITION" source="#mesh_0-positions" />
        </vertices>
        <polylist count="49" material="defaultMaterial">
          <input offset="0" semantic="VERTEX" source="#mesh_0-vertices" />
          <vcount>3 3 3 3 3 3 3 3 3 3 3 3 3 3 3 3 3 3 3 3 3 3 3 3 3 3 3 3 3 3 3 3 3 3 3 3 3 3 3 3 3 3 3 3 3 3 3 3 3 </vcount>
          <p>0 1 2 3 4 5 6 7 8 9 10 11 12 13 14 15 16 17 18 19 20 21 22 23 24 25 26 27 28 29 30 31 32 33 34 35 36 37 38 39 40 41 42 43 44 45 46 47 48 49 50 51 52 53 54 55 56 57 58 59 60 61 62 63 64 65 66 67 68 69 70 71 72 73 74 75 76 77 78 79 80 81 82 83 84 85 86 87 88 89 90 91 92 93 94 95 96 97 98 99 100 101 102 103 104 105 106 107 108 109 110 111 112 113 114 115 116 117 118 119 120 121 122 123 124 125 126 127 128 129 130 131 132 133 134 135 136 137 138 139 140 141 142 143 144 145 146 </p>
        </polylist>
      </mesh>
    </geometry>
  </library_geometries>
  <library_controllers>
  </library_controllers>
  <library_visual_scenes>
    <visual_scene id="Scene" name="Scene">
      <node id="node" name="" type="NODE">
        <matrix sid="matrix">1 0 0 0 0 1 0 0 0 0 1 0 0 0 0 1</matrix>
        <instance_geometry url="#mesh_0">
          <bind_material>
            <technique_common>
              <instance_material symbol="defaultMaterial" target="#material_0">
              </instance_material>
            </technique_common>
          </bind_material>
        </instance_geometry>
      </node>
    </visual_scene>
  </library_visual_scenes>
  <scene>
    <instance_visual_scene url="#Scene" />
  </scene>
</COLLADA>
