<?xml version="1.0" encoding="UTF-8" standalone="no" ?>
<COLLADA xmlns="http://www.collada.org/2005/11/COLLADASchema" version="1.4.1">
  <asset>
    <contributor>
      <author>Assimp</author>
      <authoring_tool>Assimp Exporter</authoring_tool>
    </contributor>
    <created>2026-04-22T16:09:44</created>
    <modified>2026-04-22T16:09:44</modified>
    <unit name="meter" meter="1" />
    <up_axis>Y_UP</up_axis>
  </asset>
  <library_images>
  </library_images>
  <library_effects>
    <effect id="material_0-fx" name="">
      <profile_COMMON>
        <technique sid="standard">
          <phong>
            <emission>
              <color sid="emission">0   0   0   4.19744942e-41</color>
            </emission>
            <ambient>
              <color sid="ambient">0.986467957   0.826380849   0.619174063   4.19744942e-41</color>
            </ambient>
            <diffuse>
              <color sid="diffuse">0.986467957   0.826380849   0.619174063   4.19744942e-41</color>
            </diffuse>
            <specular>
              <color sid="specular">0.25   0.25   0.25   4.19744942e-41</color>
            </specular>
          </phong>
        </technique>
      </profile_COMMON>
    </effect>
  </library_effects>
  <library_materials>
    <material id="material_0" name="">
      <instance_effect url="#material_0-fx"/>
    </material>
  </library_materials>
  <library_geometries>
    <geometry id="mesh_0" name="" >
      <mesh>
        <source id="mesh_0-positions" name="mesh_0-positions">
          <float_array id="mesh_0-positions-array" count="2700"> -0.193697065 -0.00382151245 1.27781582 -0.187061563 0.0191965625 1.27780771 -0.113728575 0.0342609137 1.36912072 -0.126001045 0.124060079 1.37883592 -0.137154669 0.132822543 1.37963331 -0.122759044 0.126065031 1.39406788 -0.263663322 0.0733183622 1.27787197 -0.173454747 0.129672214 1.36194658 -0.237773895 0.0778020546 1.27784884 -0.237773895 0.0778020546 1.27784884 -0.173454747 0.129672214 1.36194658 -0.152905181 0.131509975 1.36571586 -0.115479395 0.0997067243 1.38447917 -0.120265707 0.119959392 1.39047337 -0.113414884 0.0995765254 1.39746153 -0.130738616 0.0325996354 1.44545519 -0.140258923 0.031730175 1.45022821 -0.233396336 -0.0220753197 1.36051691 -0.244629547 -0.021485135 1.36414993 -0.233396336 -0.0220753197 1.36051691 -0.160456732 0.0299663469 1.4539355 -0.233396336 -0.0220753197 1.36051691 -0.150764361 0.030858038 1.45328069 -0.160456732 0.0299663469 1.4539355 -0.136874765 0.123351172 1.36430585 -0.137154669 0.132822543 1.37963331 -0.126001045 0.124060079 1.37883592 -0.191372678 0.0275790449 1.44427323 -0.275859505 0.00532460772 1.37273967 -0.270416766 -0.00346263126 1.37224388 -0.270416766 -0.00346263126 1.37224388 -0.26814875 -0.00971754082 1.36871707 -0.191372678 0.0275790449 1.44427323 -0.261941731 -0.0134189287 1.36915982 -0.191372678 0.0275790449 1.44427323 -0.26814875 -0.00971754082 1.36871707 -0.294029474 0.042463284 1.27791309 -0.294809073 0.0343082882 1.308954 -0.292537928 0.04383526 1.29731071 -0.294029474 0.042463284 1.27791309 -0.285312384 0.0565275215 1.29191828 -0.282974243 0.0598494075 1.27787542 -0.115479395 0.0997067243 1.38447917 -0.105355546 0.0348087102 1.39352667 -0.107938237 0.0345728099 1.3814187 -0.151304752 0.0967591703 1.44922614 -0.141962245 0.0968755707 1.44563365 -0.146032855 0.11743705 1.44205511 -0.132577896 0.0986336991 1.4393394 -0.141962245 0.0968755707 1.44563365 -0.130738616 0.0325996354 1.44545519 -0.120265707 0.119959392 1.39047337 -0.126001045 0.124060079 1.37883592 -0.122759044 0.126065031 1.39406788 -0.211217299 0.0681221038 1.27782452 -0.237773895 0.0778020546 1.27784884 -0.136874765 0.123351172 1.36430585 -0.177410036 0.137525663 1.3850137 -0.169824317 0.136550829 1.37834859 -0.173454747 0.129672214 1.36194658 -0.211217299 0.0681221038 1.27782452 -0.136874765 0.123351172 1.36430585 -0.194834918 0.050258711 1.27780938 -0.235753894 -0.0319401845 1.2969836 -0.244790912 -0.0328662544 1.27787328 -0.231952816 -0.0319934562 1.2778573 -0.115479395 0.0997067243 1.38447917 -0.118532404 0.0986617878 1.37595916 -0.126001045 0.124060079 1.37883592 -0.150764361 0.030858038 1.45328069 -0.233396336 -0.0220753197 1.36051691 -0.140258923 0.031730175 1.45022821 -0.130738616 0.0325996354 1.44545519 -0.233396336 -0.0220753197 1.36051691 -0.12226215 0.0332861692 1.43879986 -0.115526676 0.0338359661 1.43098271 -0.110492751 0.0343776271 1.42256355 -0.122679695 0.0988680497 1.42875123 -0.113414884 0.0995765254 1.39746153 -0.115358479 0.0997929052 1.41311085 -0.106005974 0.0347051099 1.40893769 -0.136371106 0.125670433 1.43088412 -0.128291965 0.126314834 1.42015743 -0.144649789 0.132168606 1.42665958 -0.124019913 0.0986461565 1.367154 -0.113728575 0.0342609137 1.36912072 -0.189040989 0.0358907841 1.27780616 -0.189040989 0.0358907841 1.27780616 -0.113728575 0.0342609137 1.36912072 -0.187061563 0.0191965625 1.27780771 -0.118532404 0.0986617878 1.37595916 -0.129127249 0.117433064 1.36890399 -0.126001045 0.124060079 1.37883592 -0.129127249 0.117433064 1.36890399 -0.136874765 0.123351172 1.36430585 -0.126001045 0.124060079 1.37883592 -0.110492751 0.0343776271 1.42256355 -0.115526676 0.0338359661 1.43098271 -0.226857558 -0.0275720749 1.32322288 -0.208993286 0.114976324 1.42170835 -0.283800185 0.0395950861 1.36176682 -0.281914622 0.0313830078 1.36933088 -0.208993286 0.114976324 1.42170835 -0.204180777 0.126824722 1.4092288 -0.281425387 0.0461275689 1.35850167 -0.146032855 0.11743705 1.44205511 -0.160449758 0.122047216 1.4444741 -0.151304752 0.0967591703 1.44922614 -0.136371106 0.125670433 1.43088412 -0.144649789 0.132168606 1.42665958 -0.146143392 0.124494188 1.43875241 -0.146143392 0.124494188 1.43875241 -0.146032855 0.11743705 1.44205511 -0.134201735 0.1181878 1.43353081 -0.146143392 0.124494188 1.43875241 -0.134201735 0.1181878 1.43353081 -0.136371106 0.125670433 1.43088412 -0.120010264 0.12011756 1.40402043 -0.113414884 0.0995765254 1.39746153 -0.120265707 0.119959392 1.39047337 -0.120010264 0.12011756 1.40402043 -0.115358479 0.0997929052 1.41311085 -0.113414884 0.0995765254 1.39746153 -0.152905181 0.131509975 1.36571586 -0.159552753 0.138099149 1.38282943 -0.137154669 0.132822543 1.37963331 -0.193697065 -0.00382151245 1.27781582 -0.113728575 0.0342609137 1.36912072 -0.205751568 -0.0191183537 1.27782929 -0.105355546 0.0348087102 1.39352667 -0.21916905 -0.027734885 1.27783763 -0.205751568 -0.0191183537 1.27782929 -0.105355546 0.0348087102 1.39352667 -0.205751568 -0.0191183537 1.27782929 -0.107938237 0.0345728099 1.3814187 -0.115479395 0.0997067243 1.38447917 -0.107938237 0.0345728099 1.3814187 -0.118532404 0.0986617878 1.37595916 -0.120265707 0.119959392 1.39047337 -0.115479395 0.0997067243 1.38447917 -0.126001045 0.124060079 1.37883592 -0.130738616 0.0325996354 1.44545519 -0.141962245 0.0968755707 1.44563365 -0.140258923 0.031730175 1.45022821 -0.12226215 0.0332861692 1.43879986 -0.122679695 0.0988680497 1.42875123 -0.132577896 0.0986336991 1.4393394 -0.233396336 -0.0220753197 1.36051691 -0.115526676 0.0338359661 1.43098271 -0.12226215 0.0332861692 1.43879986 -0.194834918 0.050258711 1.27780938 -0.136874765 0.123351172 1.36430585 -0.129127249 0.117433064 1.36890399 -0.129127249 0.117433064 1.36890399 -0.189040989 0.0358907841 1.27780616 -0.194834918 0.050258711 1.27780938 -0.124019913 0.0986461565 1.367154 -0.189040989 0.0358907841 1.27780616 -0.129127249 0.117433064 1.36890399 -0.152905181 0.131509975 1.36571586 -0.137154669 0.132822543 1.37963331 -0.136874765 0.123351172 1.36430585 -0.235753894 -0.0319401845 1.2969836 -0.246021226 -0.0320356935 1.3000176 -0.244790912 -0.0328662544 1.27787328 -0.256676435 -0.0307769179 1.29097807 -0.263776183 -0.0288375095 1.27788723 -0.244790912 -0.0328662544 1.27787328 -0.241933525 -0.0276021548 1.3387953 -0.226857558 -0.0275720749 1.32322288 -0.230970219 -0.0247386862 1.34662461 -0.106005974 0.0347051099 1.40893769 -0.110492751 0.0343776271 1.42256355 -0.226857558 -0.0275720749 1.32322288 -0.241944075 -0.0306924749 1.31674135 -0.233271644 -0.0294243693 1.32000029 -0.241933525 -0.0276021548 1.3387953 -0.198099077 0.116535686 1.43507636 -0.208993286 0.114976324 1.42170835 -0.281914622 0.0313830078 1.36933088 -0.204180777 0.126824722 1.4092288 -0.208993286 0.114976324 1.42170835 -0.198178738 0.127388969 1.42126036 -0.188155651 0.134303033 1.38624394 -0.263663322 0.0733183622 1.27787197 -0.205858529 0.126677766 1.39634526 -0.263663322 0.0733183622 1.27787197 -0.282974243 0.0598494075 1.27787542 -0.205858529 0.126677766 1.39634526 -0.291609913 0.0294107534 1.33907628 -0.293823481 0.0186789986 1.32803035 -0.288599372 0.0210000388 1.35726261 -0.151304752 0.0967591703 1.44922614 -0.140258923 0.031730175 1.45022821 -0.141962245 0.0968755707 1.44563365 -0.132191822 0.133192182 1.39917636 -0.122759044 0.126065031 1.39406788 -0.137154669 0.132822543 1.37963331 -0.153119534 0.139116898 1.39302266 -0.150517091 0.138388366 1.40540993 -0.132191822 0.133192182 1.39917636 -0.144649789 0.132168606 1.42665958 -0.128291965 0.126314834 1.42015743 -0.135179386 0.13292557 1.41302025 -0.122679695 0.0988680497 1.42875123 -0.134201735 0.1181878 1.43353081 -0.132577896 0.0986336991 1.4393394 -0.134201735 0.1181878 1.43353081 -0.126091406 0.119361185 1.42311871 -0.136371106 0.125670433 1.43088412 -0.120265707 0.119959392 1.39047337 -0.122759044 0.126065031 1.39406788 -0.120010264 0.12011756 1.40402043 -0.124078102 0.125689656 1.41151822 -0.120010264 0.12011756 1.40402043 -0.122759044 0.126065031 1.39406788 -0.122759044 0.126065031 1.39406788 -0.132191822 0.133192182 1.39917636 -0.124078102 0.125689656 1.41151822 -0.124078102 0.125689656 1.41151822 -0.115358479 0.0997929052 1.41311085 -0.120010264 0.12011756 1.40402043 -0.177410036 0.137525663 1.3850137 -0.169397429 0.140239745 1.3971777 -0.165600464 0.139261395 1.38680649 -0.173454747 0.129672214 1.36194658 -0.169824317 0.136550829 1.37834859 -0.152905181 0.131509975 1.36571586 -0.169824317 0.136550829 1.37834859 -0.159552753 0.138099149 1.38282943 -0.152905181 0.131509975 1.36571586 -0.136874765 0.123351172 1.36430585 -0.237773895 0.0778020546 1.27784884 -0.152905181 0.131509975 1.36571586 -0.124019913 0.0986461565 1.367154 -0.129127249 0.117433064 1.36890399 -0.118532404 0.0986617878 1.37595916 -0.113728575 0.0342609137 1.36912072 -0.124019913 0.0986461565 1.367154 -0.118532404 0.0986617878 1.37595916 -0.230970219 -0.0247386862 1.34662461 -0.115526676 0.0338359661 1.43098271 -0.233396336 -0.0220753197 1.36051691 -0.113414884 0.0995765254 1.39746153 -0.105355546 0.0348087102 1.39352667 -0.115479395 0.0997067243 1.38447917 -0.169397429 0.140239745 1.3971777 -0.161011592 0.139161944 1.41136837 -0.159550771 0.140230849 1.39965117 -0.159550771 0.140230849 1.39965117 -0.161011592 0.139161944 1.41136837 -0.150517091 0.138388366 1.40540993 -0.150517091 0.138388366 1.40540993 -0.153119534 0.139116898 1.39302266 -0.159550771 0.140230849 1.39965117 -0.169397429 0.140239745 1.3971777 -0.176117599 0.138590708 1.40823758 -0.161011592 0.139161944 1.41136837 -0.174784258 0.120866686 1.44433475 -0.160449758 0.122047216 1.4444741 -0.181288987 0.128994048 1.43382621 -0.160449758 0.122047216 1.4444741 -0.162925988 0.095411934 1.45138586 -0.151304752 0.0967591703 1.44922614 -0.160449758 0.122047216 1.4444741 -0.174784258 0.120866686 1.44433475 -0.172288418 0.114494048 1.44717646 -0.171120927 0.0290336236 1.45298088 -0.244629547 -0.021485135 1.36414993 -0.160456732 0.0299663469 1.4539355 -0.254816413 -0.0173898805 1.36790454 -0.244629547 -0.021485135 1.36414993 -0.183288008 0.028006671 1.44891107 -0.183288008 0.028006671 1.44891107 -0.244629547 -0.021485135 1.36414993 -0.171120927 0.0290336236 1.45298088 -0.292783618 0.000977457035 1.29656219 -0.292173296 -0.00160439312 1.27790964 -0.286453724 -0.0112881083 1.27794755 -0.246021226 -0.0320356935 1.3000176 -0.25110665 -0.0294071939 1.32120824 -0.256676435 -0.0307769179 1.29097807 -0.285858184 0.009679568 1.36040032 -0.289288104 0.0106419278 1.34699452 -0.286029756 4.43020435e-05 1.34340668 -0.286029756 4.43020435e-05 1.34340668 -0.281128764 -0.000239906032 1.36207032 -0.285858184 0.009679568 1.36040032 -0.246021226 -0.0320356935 1.3000176 -0.256676435 -0.0307769179 1.29097807 -0.244790912 -0.0328662544 1.27787328 -0.242435321 -0.0237430613 1.35781538 -0.233396336 -0.0220753197 1.36051691 -0.244629547 -0.021485135 1.36414993 -0.230970219 -0.0247386862 1.34662461 -0.242435321 -0.0237430613 1.35781538 -0.241933525 -0.0276021548 1.3387953 -0.233396336 -0.0220753197 1.36051691 -0.242435321 -0.0237430613 1.35781538 -0.230970219 -0.0247386862 1.34662461 -0.233271644 -0.0294243693 1.32000029 -0.226857558 -0.0275720749 1.32322288 -0.241933525 -0.0276021548 1.3387953 -0.267239749 -0.0261056237 1.30080986 -0.259241551 -0.0281877462 1.31442201 -0.265998721 -0.024037201 1.32460546 -0.25110665 -0.0294071939 1.32120824 -0.241933525 -0.0276021548 1.3387953 -0.253769785 -0.0259661544 1.34033036 -0.198099077 0.116535686 1.43507636 -0.198178738 0.127388969 1.42126036 -0.208993286 0.114976324 1.42170835 -0.181288987 0.128994048 1.43382621 -0.198099077 0.116535686 1.43507636 -0.186759427 0.118009999 1.44195127 -0.181288987 0.128994048 1.43382621 -0.198178738 0.127388969 1.42126036 -0.198099077 0.116535686 1.43507636 -0.174784258 0.120866686 1.44433475 -0.181288987 0.128994048 1.43382621 -0.186759427 0.118009999 1.44195127 -0.188199311 0.135641977 1.39949596 -0.205858529 0.126677766 1.39634526 -0.204180777 0.126824722 1.4092288 -0.263663322 0.0733183622 1.27787197 -0.188155651 0.134303033 1.38624394 -0.177410036 0.137525663 1.3850137 -0.173454747 0.129672214 1.36194658 -0.263663322 0.0733183622 1.27787197 -0.177410036 0.137525663 1.3850137 -0.292537928 0.04383526 1.29731071 -0.285312384 0.0565275215 1.29191828 -0.294029474 0.042463284 1.27791309 -0.292537928 0.04383526 1.29731071 -0.289390534 0.0432345867 1.32833076 -0.285691708 0.0536624305 1.31222701 -0.162925988 0.095411934 1.45138586 -0.172288418 0.114494048 1.44717646 -0.178834304 0.0935847834 1.44980192 -0.162925988 0.095411934 1.45138586 -0.178834304 0.0935847834 1.44980192 -0.171120927 0.0290336236 1.45298088 -0.162925988 0.095411934 1.45138586 -0.171120927 0.0290336236 1.45298088 -0.160456732 0.0299663469 1.4539355 -0.197248444 0.093667686 1.44081891 -0.28031823 0.0216420684 1.3723942 -0.191372678 0.0275790449 1.44427323 -0.295713603 0.0258278549 1.31149662 -0.297637492 0.0263352413 1.27793992 -0.296822667 0.0194767527 1.29924941 -0.297637492 0.0263352413 1.27793992 -0.295713603 0.0258278549 1.31149662 -0.294809073 0.0343082882 1.308954 -0.160449758 0.122047216 1.4444741 -0.146032855 0.11743705 1.44205511 -0.146143392 0.124494188 1.43875241 -0.146143392 0.124494188 1.43875241 -0.161422491 0.130645037 1.43490005 -0.160449758 0.122047216 1.4444741 -0.132577896 0.0986336991 1.4393394 -0.146032855 0.11743705 1.44205511 -0.141962245 0.0968755707 1.44563365 -0.132577896 0.0986336991 1.4393394 -0.134201735 0.1181878 1.43353081 -0.146032855 0.11743705 1.44205511 -0.128291965 0.126314834 1.42015743 -0.124078102 0.125689656 1.41151822 -0.135179386 0.13292557 1.41302025 -0.124078102 0.125689656 1.41151822 -0.132191822 0.133192182 1.39917636 -0.135179386 0.13292557 1.41302025 -0.132191822 0.133192182 1.39917636 -0.150517091 0.138388366 1.40540993 -0.135179386 0.13292557 1.41302025 -0.126091406 0.119361185 1.42311871 -0.124078102 0.125689656 1.41151822 -0.128291965 0.126314834 1.42015743 -0.136371106 0.125670433 1.43088412 -0.126091406 0.119361185 1.42311871 -0.128291965 0.126314834 1.42015743 -0.165600464 0.139261395 1.38680649 -0.169824317 0.136550829 1.37834859 -0.177410036 0.137525663 1.3850137 -0.231952816 -0.0319934562 1.2778573 -0.224057928 -0.0291423332 1.29765606 -0.235753894 -0.0319401845 1.2969836 -0.113728575 0.0342609137 1.36912072 -0.107938237 0.0345728099 1.3814187 -0.205751568 -0.0191183537 1.27782929 -0.118532404 0.0986617878 1.37595916 -0.107938237 0.0345728099 1.3814187 -0.113728575 0.0342609137 1.36912072 -0.106005974 0.0347051099 1.40893769 -0.224057928 -0.0291423332 1.29765606 -0.21916905 -0.027734885 1.27783763 -0.151304752 0.0967591703 1.44922614 -0.162925988 0.095411934 1.45138586 -0.150764361 0.030858038 1.45328069 -0.150764361 0.030858038 1.45328069 -0.140258923 0.031730175 1.45022821 -0.151304752 0.0967591703 1.44922614 -0.12226215 0.0332861692 1.43879986 -0.132577896 0.0986336991 1.4393394 -0.130738616 0.0325996354 1.44545519 -0.12226215 0.0332861692 1.43879986 -0.115526676 0.0338359661 1.43098271 -0.122679695 0.0988680497 1.42875123 -0.115358479 0.0997929052 1.41311085 -0.122679695 0.0988680497 1.42875123 -0.110492751 0.0343776271 1.42256355 -0.106005974 0.0347051099 1.40893769 -0.105355546 0.0348087102 1.39352667 -0.113414884 0.0995765254 1.39746153 -0.150517091 0.138388366 1.40540993 -0.161011592 0.139161944 1.41136837 -0.144649789 0.132168606 1.42665958 -0.144649789 0.132168606 1.42665958 -0.135179386 0.13292557 1.41302025 -0.150517091 0.138388366 1.40540993 -0.281914622 0.0313830078 1.36933088 -0.197248444 0.093667686 1.44081891 -0.198099077 0.116535686 1.43507636 -0.284812689 -0.0111928042 1.30651343 -0.288416535 -0.00346377864 1.31856465 -0.292783618 0.000977457035 1.29656219 -0.27666226 -0.0212747622 1.27795923 -0.263776183 -0.0288375095 1.27788723 -0.267239749 -0.0261056237 1.30080986 -0.25110665 -0.0294071939 1.32120824 -0.246021226 -0.0320356935 1.3000176 -0.241944075 -0.0306924749 1.31674135 -0.267239749 -0.0261056237 1.30080986 -0.263776183 -0.0288375095 1.27788723 -0.256676435 -0.0307769179 1.29097807 -0.275682271 -0.0195530597 1.31214547 -0.267239749 -0.0261056237 1.30080986 -0.265998721 -0.024037201 1.32460546 -0.27666226 -0.0212747622 1.27795923 -0.284812689 -0.0111928042 1.30651343 -0.286453724 -0.0112881083 1.27794755 -0.296227813 0.00987494551 1.27791643 -0.296822667 0.0194767527 1.29924941 -0.297637492 0.0263352413 1.27793992 -0.296227813 0.00987494551 1.27791643 -0.292173296 -0.00160439312 1.27790964 -0.292783618 0.000977457035 1.29656219 -0.295822859 0.0123178549 1.30105507 -0.293823481 0.0186789986 1.32803035 -0.296822667 0.0194767527 1.29924941 -0.28127265 -0.00803357828 1.3419497 -0.281128764 -0.000239906032 1.36207032 -0.286029756 4.43020435e-05 1.34340668 -0.286615431 0.0311493557 1.36080694 -0.285601974 0.0198702645 1.36528325 -0.281914622 0.0313830078 1.36933088 -0.286615431 0.0311493557 1.36080694 -0.281914622 0.0313830078 1.36933088 -0.283800185 0.0395950861 1.36176682 -0.265998721 -0.024037201 1.32460546 -0.253769785 -0.0259661544 1.34033036 -0.258141994 -0.0216279961 1.35526323 -0.265998721 -0.024037201 1.32460546 -0.259241551 -0.0281877462 1.31442201 -0.253769785 -0.0259661544 1.34033036 -0.258141994 -0.0216279961 1.35526323 -0.253769785 -0.0259661544 1.34033036 -0.251725912 -0.0217863657 1.36121595 -0.253769785 -0.0259661544 1.34033036 -0.241933525 -0.0276021548 1.3387953 -0.242435321 -0.0237430613 1.35781538 -0.251725912 -0.0217863657 1.36121595 -0.253769785 -0.0259661544 1.34033036 -0.242435321 -0.0237430613 1.35781538 -0.25110665 -0.0294071939 1.32120824 -0.241944075 -0.0306924749 1.31674135 -0.241933525 -0.0276021548 1.3387953 -0.205858529 0.126677766 1.39634526 -0.188199311 0.135641977 1.39949596 -0.188155651 0.134303033 1.38624394 -0.291609913 0.0294107534 1.33907628 -0.295713603 0.0258278549 1.31149662 -0.293823481 0.0186789986 1.32803035 -0.291609913 0.0294107534 1.33907628 -0.294809073 0.0343082882 1.308954 -0.295713603 0.0258278549 1.31149662 -0.286615431 0.0311493557 1.36080694 -0.289728642 0.0364174098 1.34073353 -0.291609913 0.0294107534 1.33907628 -0.283800185 0.0395950861 1.36176682 -0.289390534 0.0432345867 1.32833076 -0.289728642 0.0364174098 1.34073353 -0.283800185 0.0395950861 1.36176682 -0.289728642 0.0364174098 1.34073353 -0.286615431 0.0311493557 1.36080694 -0.208993286 0.114976324 1.42170835 -0.281425387 0.0461275689 1.35850167 -0.283800185 0.0395950861 1.36176682 -0.289390534 0.0432345867 1.32833076 -0.294809073 0.0343082882 1.308954 -0.289728642 0.0364174098 1.34073353 -0.294809073 0.0343082882 1.308954 -0.291609913 0.0294107534 1.33907628 -0.289728642 0.0364174098 1.34073353 -0.294029474 0.042463284 1.27791309 -0.297637492 0.0263352413 1.27793992 -0.294809073 0.0343082882 1.308954 -0.204180777 0.126824722 1.4092288 -0.285691708 0.0536624305 1.31222701 -0.282938808 0.0520689525 1.33542871 -0.285312384 0.0565275215 1.29191828 -0.292537928 0.04383526 1.29731071 -0.285691708 0.0536624305 1.31222701 -0.294809073 0.0343082882 1.308954 -0.289390534 0.0432345867 1.32833076 -0.292537928 0.04383526 1.29731071 -0.289390534 0.0432345867 1.32833076 -0.282938808 0.0520689525 1.33542871 -0.285691708 0.0536624305 1.31222701 -0.282938808 0.0520689525 1.33542871 -0.289390534 0.0432345867 1.32833076 -0.281425387 0.0461275689 1.35850167 -0.281163752 0.0145989442 1.37078059 -0.28031823 0.0216420684 1.3723942 -0.285601974 0.0198702645 1.36528325 -0.281914622 0.0313830078 1.36933088 -0.285601974 0.0198702645 1.36528325 -0.28031823 0.0216420684 1.3723942 -0.28031823 0.0216420684 1.3723942 -0.197248444 0.093667686 1.44081891 -0.281914622 0.0313830078 1.36933088 -0.242435321 -0.0237430613 1.35781538 -0.244629547 -0.021485135 1.36414993 -0.251725912 -0.0217863657 1.36121595 -0.258141994 -0.0216279961 1.35526323 -0.251725912 -0.0217863657 1.36121595 -0.264291972 -0.016857177 1.36189854 -0.160449758 0.122047216 1.4444741 -0.172288418 0.114494048 1.44717646 -0.162925988 0.095411934 1.45138586 -0.124078102 0.125689656 1.41151822 -0.126091406 0.119361185 1.42311871 -0.115358479 0.0997929052 1.41311085 -0.159550771 0.140230849 1.39965117 -0.153119534 0.139116898 1.39302266 -0.165600464 0.139261395 1.38680649 -0.159550771 0.140230849 1.39965117 -0.165600464 0.139261395 1.38680649 -0.169397429 0.140239745 1.3971777 -0.188155651 0.134303033 1.38624394 -0.179658592 0.138571024 1.39884126 -0.177410036 0.137525663 1.3850137 -0.165600464 0.139261395 1.38680649 -0.153119534 0.139116898 1.39302266 -0.159552753 0.138099149 1.38282943 -0.137154669 0.132822543 1.37963331 -0.159552753 0.138099149 1.38282943 -0.153119534 0.139116898 1.39302266 -0.153119534 0.139116898 1.39302266 -0.132191822 0.133192182 1.39917636 -0.137154669 0.132822543 1.37963331 -0.224057928 -0.0291423332 1.29765606 -0.231952816 -0.0319934562 1.2778573 -0.21916905 -0.027734885 1.27783763 -0.21916905 -0.027734885 1.27783763 -0.105355546 0.0348087102 1.39352667 -0.106005974 0.0347051099 1.40893769 -0.115358479 0.0997929052 1.41311085 -0.110492751 0.0343776271 1.42256355 -0.106005974 0.0347051099 1.40893769 -0.144649789 0.132168606 1.42665958 -0.166775674 0.137940839 1.41590846 -0.161422491 0.130645037 1.43490005 -0.144649789 0.132168606 1.42665958 -0.161011592 0.139161944 1.41136837 -0.166775674 0.137940839 1.41590846 -0.144649789 0.132168606 1.42665958 -0.161422491 0.130645037 1.43490005 -0.146143392 0.124494188 1.43875241 -0.161422491 0.130645037 1.43490005 -0.166775674 0.137940839 1.41590846 -0.181288987 0.128994048 1.43382621 -0.181288987 0.128994048 1.43382621 -0.160449758 0.122047216 1.4444741 -0.161422491 0.130645037 1.43490005 -0.181288987 0.128994048 1.43382621 -0.166775674 0.137940839 1.41590846 -0.175745994 0.136746109 1.41633892 -0.186759427 0.118009999 1.44195127 -0.188939258 0.093351759 1.44598746 -0.178834304 0.0935847834 1.44980192 -0.186759427 0.118009999 1.44195127 -0.178834304 0.0935847834 1.44980192 -0.172288418 0.114494048 1.44717646 -0.188939258 0.093351759 1.44598746 -0.183288008 0.028006671 1.44891107 -0.178834304 0.0935847834 1.44980192 -0.174784258 0.120866686 1.44433475 -0.186759427 0.118009999 1.44195127 -0.172288418 0.114494048 1.44717646 -0.183288008 0.028006671 1.44891107 -0.191372678 0.0275790449 1.44427323 -0.261941731 -0.0134189287 1.36915982 -0.286453724 -0.0112881083 1.27794755 -0.284812689 -0.0111928042 1.30651343 -0.292783618 0.000977457035 1.29656219 -0.259241551 -0.0281877462 1.31442201 -0.267239749 -0.0261056237 1.30080986 -0.256676435 -0.0307769179 1.29097807 -0.259241551 -0.0281877462 1.31442201 -0.25110665 -0.0294071939 1.32120824 -0.253769785 -0.0259661544 1.34033036 -0.275682271 -0.0195530597 1.31214547 -0.27666226 -0.0212747622 1.27795923 -0.267239749 -0.0261056237 1.30080986 -0.295822859 0.0123178549 1.30105507 -0.292171478 0.00617955346 1.32229781 -0.293823481 0.0186789986 1.32803035 -0.292783618 0.000977457035 1.29656219 -0.295822859 0.0123178549 1.30105507 -0.296227813 0.00987494551 1.27791643 -0.295713603 0.0258278549 1.31149662 -0.296822667 0.0194767527 1.29924941 -0.293823481 0.0186789986 1.32803035 -0.284812689 -0.0111928042 1.30651343 -0.278267086 -0.0144367376 1.32900965 -0.28127265 -0.00803357828 1.3419497 -0.284812689 -0.0111928042 1.30651343 -0.28127265 -0.00803357828 1.3419497 -0.288416535 -0.00346377864 1.31856465 -0.286029756 4.43020435e-05 1.34340668 -0.289288104 0.0106419278 1.34699452 -0.292171478 0.00617955346 1.32229781 -0.28127265 -0.00803357828 1.3419497 -0.286029756 4.43020435e-05 1.34340668 -0.288416535 -0.00346377864 1.31856465 -0.241944075 -0.0306924749 1.31674135 -0.246021226 -0.0320356935 1.3000176 -0.235753894 -0.0319401845 1.2969836 -0.235753894 -0.0319401845 1.2969836 -0.233271644 -0.0294243693 1.32000029 -0.241944075 -0.0306924749 1.31674135 -0.265998721 -0.024037201 1.32460546 -0.258141994 -0.0216279961 1.35526323 -0.268247634 -0.0198144317 1.34140563 -0.282974243 0.0598494075 1.27787542 -0.285312384 0.0565275215 1.29191828 -0.205858529 0.126677766 1.39634526 -0.285691708 0.0536624305 1.31222701 -0.204180777 0.126824722 1.4092288 -0.205858529 0.126677766 1.39634526 -0.289390534 0.0432345867 1.32833076 -0.283800185 0.0395950861 1.36176682 -0.281425387 0.0461275689 1.35850167 -0.162925988 0.095411934 1.45138586 -0.160456732 0.0299663469 1.4539355 -0.150764361 0.030858038 1.45328069 -0.251725912 -0.0217863657 1.36121595 -0.244629547 -0.021485135 1.36414993 -0.254816413 -0.0173898805 1.36790454 -0.264291972 -0.016857177 1.36189854 -0.254816413 -0.0173898805 1.36790454 -0.261941731 -0.0134189287 1.36915982 -0.251725912 -0.0217863657 1.36121595 -0.254816413 -0.0173898805 1.36790454 -0.264291972 -0.016857177 1.36189854 -0.273270398 -0.0115012992 1.35912991 -0.268247634 -0.0198144317 1.34140563 -0.264291972 -0.016857177 1.36189854 -0.126091406 0.119361185 1.42311871 -0.122679695 0.0988680497 1.42875123 -0.115358479 0.0997929052 1.41311085 -0.179658592 0.138571024 1.39884126 -0.169397429 0.140239745 1.3971777 -0.177410036 0.137525663 1.3850137 -0.165600464 0.139261395 1.38680649 -0.159552753 0.138099149 1.38282943 -0.169824317 0.136550829 1.37834859 -0.185349733 0.135538504 1.41017103 -0.188199311 0.135641977 1.39949596 -0.204180777 0.126824722 1.4092288 -0.185349733 0.135538504 1.41017103 -0.204180777 0.126824722 1.4092288 -0.198178738 0.127388969 1.42126036 -0.176117599 0.138590708 1.40823758 -0.169397429 0.140239745 1.3971777 -0.179658592 0.138571024 1.39884126 -0.166775674 0.137940839 1.41590846 -0.176117599 0.138590708 1.40823758 -0.175745994 0.136746109 1.41633892 -0.188199311 0.135641977 1.39949596 -0.185349733 0.135538504 1.41017103 -0.179658592 0.138571024 1.39884126 -0.179658592 0.138571024 1.39884126 -0.185349733 0.135538504 1.41017103 -0.176117599 0.138590708 1.40823758 -0.188939258 0.093351759 1.44598746 -0.191372678 0.0275790449 1.44427323 -0.183288008 0.028006671 1.44891107 -0.191372678 0.0275790449 1.44427323 -0.188939258 0.093351759 1.44598746 -0.197248444 0.093667686 1.44081891 -0.186759427 0.118009999 1.44195127 -0.198099077 0.116535686 1.43507636 -0.197248444 0.093667686 1.44081891 -0.197248444 0.093667686 1.44081891 -0.188939258 0.093351759 1.44598746 -0.186759427 0.118009999 1.44195127 -0.171120927 0.0290336236 1.45298088 -0.178834304 0.0935847834 1.44980192 -0.183288008 0.028006671 1.44891107 -0.256676435 -0.0307769179 1.29097807 -0.25110665 -0.0294071939 1.32120824 -0.259241551 -0.0281877462 1.31442201 -0.268247634 -0.0198144317 1.34140563 -0.278267086 -0.0144367376 1.32900965 -0.275682271 -0.0195530597 1.31214547 -0.268247634 -0.0198144317 1.34140563 -0.275682271 -0.0195530597 1.31214547 -0.265998721 -0.024037201 1.32460546 -0.288599372 0.0210000388 1.35726261 -0.293823481 0.0186789986 1.32803035 -0.289288104 0.0106419278 1.34699452 -0.286029756 4.43020435e-05 1.34340668 -0.292171478 0.00617955346 1.32229781 -0.288416535 -0.00346377864 1.31856465 -0.273270398 -0.0115012992 1.35912991 -0.276251674 -0.00376455928 1.36624587 -0.281128764 -0.000239906032 1.36207032 -0.275859505 0.00532460772 1.37273967 -0.191372678 0.0275790449 1.44427323 -0.281163752 0.0145989442 1.37078059 -0.285601974 0.0198702645 1.36528325 -0.28086549 0.00758736767 1.36850119 -0.281163752 0.0145989442 1.37078059 -0.285601974 0.0198702645 1.36528325 -0.285858184 0.009679568 1.36040032 -0.28086549 0.00758736767 1.36850119 -0.285601974 0.0198702645 1.36528325 -0.288599372 0.0210000388 1.35726261 -0.285858184 0.009679568 1.36040032 -0.288599372 0.0210000388 1.35726261 -0.285601974 0.0198702645 1.36528325 -0.286615431 0.0311493557 1.36080694 -0.281425387 0.0461275689 1.35850167 -0.204180777 0.126824722 1.4092288 -0.282938808 0.0520689525 1.33542871 -0.205858529 0.126677766 1.39634526 -0.285312384 0.0565275215 1.29191828 -0.285691708 0.0536624305 1.31222701 -0.28031823 0.0216420684 1.3723942 -0.281163752 0.0145989442 1.37078059 -0.191372678 0.0275790449 1.44427323 -0.276251674 -0.00376455928 1.36624587 -0.273270398 -0.0115012992 1.35912991 -0.26814875 -0.00971754082 1.36871707 -0.276251674 -0.00376455928 1.36624587 -0.26814875 -0.00971754082 1.36871707 -0.270416766 -0.00346263126 1.37224388 -0.278267086 -0.0144367376 1.32900965 -0.268247634 -0.0198144317 1.34140563 -0.273270398 -0.0115012992 1.35912991 -0.115526676 0.0338359661 1.43098271 -0.230970219 -0.0247386862 1.34662461 -0.226857558 -0.0275720749 1.32322288 -0.188155651 0.134303033 1.38624394 -0.188199311 0.135641977 1.39949596 -0.179658592 0.138571024 1.39884126 -0.161011592 0.139161944 1.41136837 -0.176117599 0.138590708 1.40823758 -0.166775674 0.137940839 1.41590846 -0.275682271 -0.0195530597 1.31214547 -0.284812689 -0.0111928042 1.30651343 -0.27666226 -0.0212747622 1.27795923 -0.275682271 -0.0195530597 1.31214547 -0.278267086 -0.0144367376 1.32900965 -0.284812689 -0.0111928042 1.30651343 -0.295822859 0.0123178549 1.30105507 -0.292783618 0.000977457035 1.29656219 -0.292171478 0.00617955346 1.32229781 -0.296822667 0.0194767527 1.29924941 -0.296227813 0.00987494551 1.27791643 -0.295822859 0.0123178549 1.30105507 -0.292171478 0.00617955346 1.32229781 -0.292783618 0.000977457035 1.29656219 -0.288416535 -0.00346377864 1.31856465 -0.285858184 0.009679568 1.36040032 -0.288599372 0.0210000388 1.35726261 -0.289288104 0.0106419278 1.34699452 -0.292171478 0.00617955346 1.32229781 -0.289288104 0.0106419278 1.34699452 -0.293823481 0.0186789986 1.32803035 -0.273270398 -0.0115012992 1.35912991 -0.281128764 -0.000239906032 1.36207032 -0.28127265 -0.00803357828 1.3419497 -0.281163752 0.0145989442 1.37078059 -0.28086549 0.00758736767 1.36850119 -0.275859505 0.00532460772 1.37273967 -0.28086549 0.00758736767 1.36850119 -0.281128764 -0.000239906032 1.36207032 -0.276251674 -0.00376455928 1.36624587 -0.275859505 0.00532460772 1.37273967 -0.276251674 -0.00376455928 1.36624587 -0.270416766 -0.00346263126 1.37224388 -0.286615431 0.0311493557 1.36080694 -0.291609913 0.0294107534 1.33907628 -0.288599372 0.0210000388 1.35726261 -0.226857558 -0.0275720749 1.32322288 -0.224057928 -0.0291423332 1.29765606 -0.106005974 0.0347051099 1.40893769 -0.224057928 -0.0291423332 1.29765606 -0.233271644 -0.0294243693 1.32000029 -0.235753894 -0.0319401845 1.2969836 -0.264291972 -0.016857177 1.36189854 -0.268247634 -0.0198144317 1.34140563 -0.258141994 -0.0216279961 1.35526323 -0.181288987 0.128994048 1.43382621 -0.185349733 0.135538504 1.41017103 -0.198178738 0.127388969 1.42126036 -0.185349733 0.135538504 1.41017103 -0.181288987 0.128994048 1.43382621 -0.175745994 0.136746109 1.41633892 -0.264291972 -0.016857177 1.36189854 -0.261941731 -0.0134189287 1.36915982 -0.26814875 -0.00971754082 1.36871707 -0.28127265 -0.00803357828 1.3419497 -0.278267086 -0.0144367376 1.32900965 -0.273270398 -0.0115012992 1.35912991 -0.224057928 -0.0291423332 1.29765606 -0.226857558 -0.0275720749 1.32322288 -0.233271644 -0.0294243693 1.32000029 -0.273270398 -0.0115012992 1.35912991 -0.264291972 -0.016857177 1.36189854 -0.26814875 -0.00971754082 1.36871707 -0.28086549 0.00758736767 1.36850119 -0.285858184 0.009679568 1.36040032 -0.281128764 -0.000239906032 1.36207032 -0.276251674 -0.00376455928 1.36624587 -0.275859505 0.00532460772 1.37273967 -0.28086549 0.00758736767 1.36850119 -0.175745994 0.136746109 1.41633892 -0.176117599 0.138590708 1.40823758 -0.185349733 0.135538504 1.41017103 -0.134201735 0.1181878 1.43353081 -0.122679695 0.0988680497 1.42875123 -0.126091406 0.119361185 1.42311871 -0.261941731 -0.0134189287 1.36915982 -0.254816413 -0.0173898805 1.36790454 -0.183288008 0.028006671 1.44891107 -0.263663322 0.0733183622 1.27787197 -0.187061563 0.0191965625 1.27780771 -0.193697065 -0.00382151245 1.27781582 -0.263663322 0.0733183622 1.27787197 -0.194834918 0.050258711 1.27780938 -0.189040989 0.0358907841 1.27780616 -0.263663322 0.0733183622 1.27787197 -0.189040989 0.0358907841 1.27780616 -0.187061563 0.0191965625 1.27780771 -0.263663322 0.0733183622 1.27787197 -0.211217299 0.0681221038 1.27782452 -0.194834918 0.050258711 1.27780938 -0.263663322 0.0733183622 1.27787197 -0.193697065 -0.00382151245 1.27781582 -0.205751568 -0.0191183537 1.27782929 -0.263663322 0.0733183622 1.27787197 -0.21916905 -0.027734885 1.27783763 -0.231952816 -0.0319934562 1.2778573 -0.263663322 0.0733183622 1.27787197 -0.237773895 0.0778020546 1.27784884 -0.211217299 0.0681221038 1.27782452 -0.263663322 0.0733183622 1.27787197 -0.297637492 0.0263352413 1.27793992 -0.294029474 0.042463284 1.27791309 -0.27666226 -0.0212747622 1.27795923 -0.286453724 -0.0112881083 1.27794755 -0.263663322 0.0733183622 1.27787197 -0.244790912 -0.0328662544 1.27787328 -0.263776183 -0.0288375095 1.27788723 -0.263663322 0.0733183622 1.27787197 -0.286453724 -0.0112881083 1.27794755 -0.292173296 -0.00160439312 1.27790964 -0.263663322 0.0733183622 1.27787197 -0.263663322 0.0733183622 1.27787197 -0.294029474 0.042463284 1.27791309 -0.282974243 0.0598494075 1.27787542 -0.263663322 0.0733183622 1.27787197 -0.231952816 -0.0319934562 1.2778573 -0.244790912 -0.0328662544 1.27787328 -0.263663322 0.0733183622 1.27787197 -0.205751568 -0.0191183537 1.27782929 -0.21916905 -0.027734885 1.27783763 -0.292173296 -0.00160439312 1.27790964 -0.296227813 0.00987494551 1.27791643 -0.263663322 0.0733183622 1.27787197 -0.296227813 0.00987494551 1.27791643 -0.297637492 0.0263352413 1.27793992 -0.263663322 0.0733183622 1.27787197 -0.263776183 -0.0288375095 1.27788723 -0.27666226 -0.0212747622 1.27795923 -0.263663322 0.0733183622 1.27787197 </float_array>
          <technique_common>
            <accessor count="900" offset="0" source="#mesh_0-positions-array" stride="3">
              <param name="X" type="float" />
              <param name="Y" type="float" />
              <param name="Z" type="float" />
            </accessor>
          </technique_common>
        </source>
        <vertices id="mesh_0-vertices">
          <input semantic="POSITION" source="#mesh_0-positions" />
        </vertices>
        <polylist count="300" material="defaultMaterial">
          <input offset="0" semantic="VERTEX" source="#mesh_0-vertices" />
          <vcount>3 3 3 3 3 3 3 3 3 3 3 3 3 3 3 3 3 3 3 3 3 3 3 3 3 3 3 3 3 3 3 3 3 3 3 3 3 3 3 3 3 3 3 3 3 3 3 3 3 3 3 3 3 3 3 3 3 3 3 3 3 3 3 3 3 3 3 3 3 3 3 3 3 3 3 3 3 3 3 3 3 3 3 3 3 3 3 3 3 3 3 3 3 3 3 3 3 3 3 3 3 3 3 3 3 3 3 3 3 3 3 3 3 3 3 3 3 3 3 3 3 3 3 3 3 3 3 3 3 3 3 3 3 3 3 3 3 3 3 3 3 3 3 3 3 3 3 3 3 3 3 3 3 3 3 3 3 3 3 3 3 3 3 3 3 3 3 3 3 3 3 3 3 3 3 3 3 3 3 3 3 3 3 3 3 3 3 3 3 3 3 3 3 3 3 3 3 3 3 3 3 3 3 3 3 3 3 3 3 3 3 3 3 3 3 3 3 3 3 3 3 3 3 3 3 3 3 3 3 3 3 3 3 3 3 3 3 3 3 3 3 3 3 3 3 3 3 3 3 3 3 3 3 3 3 3 3 3 3 3 3 3 3 3 3 3 3 3 3 3 3 3 3 3 3 3 3 3 3 3 3 3 3 3 3 3 3 3 3 3 3 3 3 3 3 3 3 3 3 3 </vcount>
          <p>0 1 2 3 4 5 6 7 8 9 10 11 12 13 14 15 16 17 18 19 20 21 22 23 24 25 26 27 28 29 30 31 32 33 34 35 36 37 38 39 40 41 42 43 44 45 46 47 48 49 50 51 52 53 54 55 56 57 58 59 60 61 62 63 64 65 66 67 68 69 70 71 72 73 74 75 76 77 78 79 80 81 82 83 84 85 86 87 88 89 90 91 92 93 94 95 96 97 98 99 100 101 102 103 104 105 106 107 108 109 110 111 112 113 114 115 116 117 118 119 120 121 122 123 124 125 126 127 128 129 130 131 132 133 134 135 136 137 138 139 140 141 142 143 144 145 146 147 148 149 150 151 152 153 154 155 156 157 158 159 160 161 162 163 164 165 166 167 168 169 170 171 172 173 174 175 176 177 178 179 180 181 182 183 184 185 186 187 188 189 190 191 192 193 194 195 196 197 198 199 200 201 202 203 204 205 206 207 208 209 210 211 212 213 214 215 216 217 218 219 220 221 222 223 224 225 226 227 228 229 230 231 232 233 234 235 236 237 238 239 240 241 242 243 244 245 246 247 248 249 250 251 252 253 254 255 256 257 258 259 260 261 262 263 264 265 266 267 268 269 270 271 272 273 274 275 276 277 278 279 280 281 282 283 284 285 286 287 288 289 290 291 292 293 294 295 296 297 298 299 300 301 302 303 304 305 306 307 308 309 310 311 312 313 314 315 316 317 318 319 320 321 322 323 324 325 326 327 328 329 330 331 332 333 334 335 336 337 338 339 340 341 342 343 344 345 346 347 348 349 350 351 352 353 354 355 356 357 358 359 360 361 362 363 364 365 366 367 368 369 370 371 372 373 374 375 376 377 378 379 380 381 382 383 384 385 386 387 388 389 390 391 392 393 394 395 396 397 398 399 400 401 402 403 404 405 406 407 408 409 410 411 412 413 414 415 416 417 418 419 420 421 422 423 424 425 426 427 428 429 430 431 432 433 434 435 436 437 438 439 440 441 442 443 444 445 446 447 448 449 450 451 452 453 454 455 456 457 458 459 460 461 462 463 464 465 466 467 468 469 470 471 472 473 474 475 476 477 478 479 480 481 482 483 484 485 486 487 488 489 490 491 492 493 494 495 496 497 498 499 500 501 502 503 504 505 506 507 508 509 510 511 512 513 514 515 516 517 518 519 520 521 522 523 524 525 526 527 528 529 530 531 532 533 534 535 536 537 538 539 540 541 542 543 544 545 546 547 548 549 550 551 552 553 554 555 556 557 558 559 560 561 562 563 564 565 566 567 568 569 570 571 572 573 574 575 576 577 578 579 580 581 582 583 584 585 586 587 588 589 590 591 592 593 594 595 596 597 598 599 600 601 602 603 604 605 606 607 608 609 610 611 612 613 614 615 616 617 618 619 620 621 622 623 624 625 626 627 628 629 630 631 632 633 634 635 636 637 638 639 640 641 642 643 644 645 646 647 648 649 650 651 652 653 654 655 656 657 658 659 660 661 662 663 664 665 666 667 668 669 670 671 672 673 674 675 676 677 678 679 680 681 682 683 684 685 686 687 688 689 690 691 692 693 694 695 696 697 698 699 700 701 702 703 704 705 706 707 708 709 710 711 712 713 714 715 716 717 718 719 720 721 722 723 724 725 726 727 728 729 730 731 732 733 734 735 736 737 738 739 740 741 742 743 744 745 746 747 748 749 750 751 752 753 754 755 756 757 758 759 760 761 762 763 764 765 766 767 768 769 770 771 772 773 774 775 776 777 778 779 780 781 782 783 784 785 786 787 788 789 790 791 792 793 794 795 796 797 798 799 800 801 802 803 804 805 806 807 808 809 810 811 812 813 814 815 816 817 818 819 820 821 822 823 824 825 826 827 828 829 830 831 832 833 834 835 836 837 838 839 840 841 842 843 844 845 846 847 848 849 850 851 852 853 854 855 856 857 858 859 860 861 862 863 864 865 866 867 868 869 870 871 872 873 874 875 876 877 878 879 880 881 882 883 884 885 886 887 888 889 890 891 892 893 894 895 896 897 898 899 </p>
        </polylist>
      </mesh>
    </geometry>
  </library_geometries>
  <library_controllers>
  </library_controllers>
  <library_visual_scenes>
    <visual_scene id="Scene" name="Scene">
      <node id="node" name="" type="NODE">
        <matrix sid="matrix">1 0 0 0 0 1 0 0 0 0 1 0 0 0 0 1</matrix>
        <instance_geometry url="#mesh_0">
          <bind_material>
            <technique_common>
              <instance_material symbol="defaultMaterial" target="#material_0">
              </instance_material>
            </technique_common>
          </bind_material>
        </instance_geometry>
      </node>
    </visual_scene>
  </library_visual_scenes>
  <scene>
    <instance_visual_scene url="#Scene" />
  </scene>
</COLLADA>
