<?xml version="1.0" encoding="UTF-8" standalone="no" ?>
<COLLADA xmlns="http://www.collada.org/2005/11/COLLADASchema" version="1.4.1">
  <asset>
    <contributor>
      <author>Assimp</author>
      <authoring_tool>Assimp Exporter</authoring_tool>
    </contributor>
    <created>2026-04-22T16:09:44</created>
    <modified>2026-04-22T16:09:44</modified>
    <unit name="meter" meter="1" />
    <up_axis>Y_UP</up_axis>
  </asset>
  <library_images>
  </library_images>
  <library_effects>
    <effect id="material_0-fx" name="">
      <profile_COMMON>
        <technique sid="standard">
          <phong>
            <emission>
              <color sid="emission">0   0   0   -0</color>
            </emission>
            <ambient>
              <color sid="ambient">0.699999988   1   0.699999988   1.82499993</color>
            </ambient>
            <diffuse>
              <color sid="diffuse">0.699999988   1   0.699999988   1.82499993</color>
            </diffuse>
            <specular>
              <color sid="specular">0.25   0.25   0.25   -0</color>
            </specular>
          </phong>
        </technique>
      </profile_COMMON>
    </effect>
  </library_effects>
  <library_materials>
    <material id="material_0" name="">
      <instance_effect url="#material_0-fx"/>
    </material>
  </library_materials>
  <library_geometries>
    <geometry id="mesh_0" name="" >
      <mesh>
        <source id="mesh_0-positions" name="mesh_0-positions">
          <float_array id="mesh_0-positions-array" count="792"> -0.203735903 0.108963557 1.76478279 -0.206335142 0.0414680168 1.75098228 -0.23142761 0.135030389 1.72827113 -0.221874192 0.14225775 1.80484748 -0.204024583 0.124310039 1.7945559 -0.23142761 0.135030389 1.72827113 -0.211165234 0.041048374 1.81904745 -0.246070489 0.0379919149 1.83020055 -0.194900811 0.0424693115 1.77850187 -0.246070489 0.0379919149 1.83020055 -0.211165234 0.041048374 1.81904745 -0.231338978 0.0392828509 1.82913589 -0.206335142 0.0414680168 1.75098228 -0.223612934 0.0399541482 1.73760092 -0.23142761 0.135030389 1.72827113 -0.223612934 0.0399541482 1.73760092 -0.206335142 0.0414680168 1.75098228 -0.194900811 0.0424693115 1.77850187 -0.273302048 0.0356015339 1.74489677 -0.2800982 0.118683785 1.73165667 -0.250805587 0.0375764593 1.73459613 -0.223612934 0.0399541482 1.73760092 -0.273302048 0.0356015339 1.74489677 -0.250805587 0.0375764593 1.73459613 -0.290246308 0.0341258347 1.77545857 -0.273302048 0.0356015339 1.74489677 -0.289237052 0.0342143476 1.7942878 -0.246070489 0.0379919149 1.83020055 -0.273302048 0.0356015339 1.74489677 -0.194900811 0.0424693115 1.77850187 -0.273302048 0.0356015339 1.74489677 -0.223612934 0.0399541482 1.73760092 -0.194900811 0.0424693115 1.77850187 -0.280034989 0.0350207351 1.81288397 -0.294769615 0.110017516 1.79730225 -0.289237052 0.0342143476 1.7942878 -0.294769615 0.110017516 1.79730225 -0.280034989 0.0350207351 1.81288397 -0.285237193 0.108229995 1.81425047 -0.273302048 0.0356015339 1.74489677 -0.280034989 0.0350207351 1.81288397 -0.289237052 0.0342143476 1.7942878 -0.280034989 0.0350207351 1.81288397 -0.273302048 0.0356015339 1.74489677 -0.246070489 0.0379919149 1.83020055 -0.280034989 0.0350207351 1.81288397 -0.262228608 0.0365799069 1.82648563 -0.285237193 0.108229995 1.81425047 -0.262228608 0.0365799069 1.82648563 -0.280034989 0.0350207351 1.81288397 -0.246070489 0.0379919149 1.83020055 -0.203735903 0.108963557 1.76478279 -0.201470569 0.117390297 1.78109586 -0.194900811 0.0424693115 1.77850187 -0.204024583 0.124310039 1.7945559 -0.201470569 0.117390297 1.78109586 -0.23142761 0.135030389 1.72827113 -0.201470569 0.117390297 1.78109586 -0.203735903 0.108963557 1.76478279 -0.23142761 0.135030389 1.72827113 -0.206335142 0.0414680168 1.75098228 -0.198711991 0.0421358198 1.76330817 -0.194900811 0.0424693115 1.77850187 -0.198711991 0.0421358198 1.76330817 -0.203735903 0.108963557 1.76478279 -0.194900811 0.0424693115 1.77850187 -0.203735903 0.108963557 1.76478279 -0.198711991 0.0421358198 1.76330817 -0.206335142 0.0414680168 1.75098228 -0.221874192 0.14225775 1.80484748 -0.21927166 0.130038381 1.81395793 -0.204024583 0.124310039 1.7945559 -0.197134927 0.042275887 1.79801857 -0.211165234 0.041048374 1.81904745 -0.194900811 0.0424693115 1.77850187 -0.201470569 0.117390297 1.78109586 -0.197134927 0.042275887 1.79801857 -0.194900811 0.0424693115 1.77850187 -0.197134927 0.042275887 1.79801857 -0.201470569 0.117390297 1.78109586 -0.204024583 0.124310039 1.7945559 -0.289547861 0.127756491 1.79970753 -0.294769615 0.110017516 1.79730225 -0.285237193 0.108229995 1.81425047 -0.280320019 0.126472279 1.81460273 -0.289547861 0.127756491 1.79970753 -0.285237193 0.108229995 1.81425047 -0.2800982 0.118683785 1.73165667 -0.271833748 0.130989581 1.72725153 -0.250805587 0.0375764593 1.73459613 -0.271833748 0.130989581 1.72725153 -0.260468572 0.134395316 1.72469187 -0.250805587 0.0375764593 1.73459613 -0.242784679 0.136147469 1.72469938 -0.223612934 0.0399541482 1.73760092 -0.250805587 0.0375764593 1.73459613 -0.260468572 0.134395316 1.72469187 -0.242784679 0.136147469 1.72469938 -0.250805587 0.0375764593 1.73459613 -0.223612934 0.0399541482 1.73760092 -0.242784679 0.136147469 1.72469938 -0.23142761 0.135030389 1.72827113 -0.285471797 0.0345418863 1.76068103 -0.273302048 0.0356015339 1.74489677 -0.290246308 0.0341258347 1.77545857 -0.273302048 0.0356015339 1.74489677 -0.285471797 0.0345418863 1.76068103 -0.2800982 0.118683785 1.73165667 -0.295920849 0.110527478 1.77084541 -0.285471797 0.0345418863 1.76068103 -0.290246308 0.0341258347 1.77545857 -0.285471797 0.0345418863 1.76068103 -0.295920849 0.110527478 1.77084541 -0.2800982 0.118683785 1.73165667 -0.21927166 0.130038381 1.81395793 -0.209675744 0.11765565 1.80945385 -0.204024583 0.124310039 1.7945559 -0.209675744 0.11765565 1.80945385 -0.197134927 0.042275887 1.79801857 -0.204024583 0.124310039 1.7945559 -0.197134927 0.042275887 1.79801857 -0.209675744 0.11765565 1.80945385 -0.211165234 0.041048374 1.81904745 -0.297116697 0.112714484 1.78463221 -0.295920849 0.110527478 1.77084541 -0.290246308 0.0341258347 1.77545857 -0.297116697 0.112714484 1.78463221 -0.290246308 0.0341258347 1.77545857 -0.289237052 0.0342143476 1.7942878 -0.294769615 0.110017516 1.79730225 -0.297116697 0.112714484 1.78463221 -0.289237052 0.0342143476 1.7942878 -0.289547861 0.127756491 1.79970753 -0.297116697 0.112714484 1.78463221 -0.294769615 0.110017516 1.79730225 -0.262228608 0.0365799069 1.82648563 -0.271915436 0.115833223 1.82453597 -0.285237193 0.108229995 1.81425047 -0.271915436 0.115833223 1.82453597 -0.280320019 0.126472279 1.81460273 -0.285237193 0.108229995 1.81425047 -0.23448886 0.144480482 1.81234574 -0.21927166 0.130038381 1.81395793 -0.221874192 0.14225775 1.80484748 -0.21927166 0.130038381 1.81395793 -0.23448886 0.144480482 1.81234574 -0.237292916 0.116887107 1.82859552 -0.23448886 0.144480482 1.81234574 -0.251718283 0.12613073 1.82763696 -0.237292916 0.116887107 1.82859552 -0.278108627 0.143007025 1.7990135 -0.289547861 0.127756491 1.79970753 -0.280320019 0.126472279 1.81460273 -0.289547861 0.127756491 1.79970753 -0.278108627 0.143007025 1.7990135 -0.287141472 0.138376579 1.77762234 -0.223391041 0.115712717 1.82277799 -0.21927166 0.130038381 1.81395793 -0.237292916 0.116887107 1.82859552 -0.223391041 0.115712717 1.82277799 -0.209675744 0.11765565 1.80945385 -0.21927166 0.130038381 1.81395793 -0.209675744 0.11765565 1.80945385 -0.223391041 0.115712717 1.82277799 -0.211165234 0.041048374 1.81904745 -0.231338978 0.0392828509 1.82913589 -0.223391041 0.115712717 1.82277799 -0.237292916 0.116887107 1.82859552 -0.211165234 0.041048374 1.81904745 -0.223391041 0.115712717 1.82277799 -0.231338978 0.0392828509 1.82913589 -0.294763476 0.125350252 1.77904952 -0.289547861 0.127756491 1.79970753 -0.287141472 0.138376579 1.77762234 -0.294763476 0.125350252 1.77904952 -0.297116697 0.112714484 1.78463221 -0.289547861 0.127756491 1.79970753 -0.297116697 0.112714484 1.78463221 -0.294763476 0.125350252 1.77904952 -0.295920849 0.110527478 1.77084541 -0.295920849 0.110527478 1.77084541 -0.294763476 0.125350252 1.77904952 -0.2800982 0.118683785 1.73165667 -0.271833748 0.130989581 1.72725153 -0.294763476 0.125350252 1.77904952 -0.287141472 0.138376579 1.77762234 -0.294763476 0.125350252 1.77904952 -0.271833748 0.130989581 1.72725153 -0.2800982 0.118683785 1.73165667 -0.254354566 0.108939581 1.83035088 -0.262228608 0.0365799069 1.82648563 -0.246070489 0.0379919149 1.83020055 -0.254354566 0.108939581 1.83035088 -0.271915436 0.115833223 1.82453597 -0.262228608 0.0365799069 1.82648563 -0.271915436 0.115833223 1.82453597 -0.254354566 0.108939581 1.83035088 -0.251718283 0.12613073 1.82763696 -0.251718283 0.12613073 1.82763696 -0.254354566 0.108939581 1.83035088 -0.237292916 0.116887107 1.82859552 -0.254354566 0.108939581 1.83035088 -0.231338978 0.0392828509 1.82913589 -0.237292916 0.116887107 1.82859552 -0.254354566 0.108939581 1.83035088 -0.246070489 0.0379919149 1.83020055 -0.231338978 0.0392828509 1.82913589 -0.260840267 0.149823666 1.77106166 -0.277247727 0.145457566 1.77549458 -0.263985485 0.149464443 1.79942977 -0.278108627 0.143007025 1.7990135 -0.277247727 0.145457566 1.77549458 -0.287141472 0.138376579 1.77762234 -0.277247727 0.145457566 1.77549458 -0.278108627 0.143007025 1.7990135 -0.263985485 0.149464443 1.79942977 -0.277247727 0.145457566 1.77549458 -0.271833748 0.130989581 1.72725153 -0.287141472 0.138376579 1.77762234 -0.271833748 0.130989581 1.72725153 -0.277247727 0.145457566 1.77549458 -0.260468572 0.134395316 1.72469187 -0.277247727 0.145457566 1.77549458 -0.260840267 0.149823666 1.77106166 -0.260468572 0.134395316 1.72469187 -0.243354514 0.148711026 1.76183856 -0.242784679 0.136147469 1.72469938 -0.260468572 0.134395316 1.72469187 -0.260840267 0.149823666 1.77106166 -0.243354514 0.148711026 1.76183856 -0.260468572 0.134395316 1.72469187 -0.242784679 0.136147469 1.72469938 -0.243354514 0.148711026 1.76183856 -0.23142761 0.135030389 1.72827113 -0.243354514 0.148711026 1.76183856 -0.221874192 0.14225775 1.80484748 -0.23142761 0.135030389 1.72827113 -0.243354514 0.148711026 1.76183856 -0.23448886 0.144480482 1.81234574 -0.221874192 0.14225775 1.80484748 -0.243354514 0.148711026 1.76183856 -0.260840267 0.149823666 1.77106166 -0.263985485 0.149464443 1.79942977 -0.23448886 0.144480482 1.81234574 -0.243354514 0.148711026 1.76183856 -0.263985485 0.149464443 1.79942977 -0.268087417 0.137884483 1.81546545 -0.278108627 0.143007025 1.7990135 -0.280320019 0.126472279 1.81460273 -0.278108627 0.143007025 1.7990135 -0.268087417 0.137884483 1.81546545 -0.263985485 0.149464443 1.79942977 -0.271915436 0.115833223 1.82453597 -0.268087417 0.137884483 1.81546545 -0.280320019 0.126472279 1.81460273 -0.268087417 0.137884483 1.81546545 -0.271915436 0.115833223 1.82453597 -0.251718283 0.12613073 1.82763696 -0.23448886 0.144480482 1.81234574 -0.268087417 0.137884483 1.81546545 -0.251718283 0.12613073 1.82763696 -0.268087417 0.137884483 1.81546545 -0.23448886 0.144480482 1.81234574 -0.263985485 0.149464443 1.79942977 </float_array>
          <technique_common>
            <accessor count="264" offset="0" source="#mesh_0-positions-array" stride="3">
              <param name="X" type="float" />
              <param name="Y" type="float" />
              <param name="Z" type="float" />
            </accessor>
          </technique_common>
        </source>
        <vertices id="mesh_0-vertices">
          <input semantic="POSITION" source="#mesh_0-positions" />
        </vertices>
        <polylist count="88" material="defaultMaterial">
          <input offset="0" semantic="VERTEX" source="#mesh_0-vertices" />
          <vcount>3 3 3 3 3 3 3 3 3 3 3 3 3 3 3 3 3 3 3 3 3 3 3 3 3 3 3 3 3 3 3 3 3 3 3 3 3 3 3 3 3 3 3 3 3 3 3 3 3 3 3 3 3 3 3 3 3 3 3 3 3 3 3 3 3 3 3 3 3 3 3 3 3 3 3 3 3 3 3 3 3 3 3 3 3 3 3 3 </vcount>
          <p>0 1 2 3 4 5 6 7 8 9 10 11 12 13 14 15 16 17 18 19 20 21 22 23 24 25 26 27 28 29 30 31 32 33 34 35 36 37 38 39 40 41 42 43 44 45 46 47 48 49 50 51 52 53 54 55 56 57 58 59 60 61 62 63 64 65 66 67 68 69 70 71 72 73 74 75 76 77 78 79 80 81 82 83 84 85 86 87 88 89 90 91 92 93 94 95 96 97 98 99 100 101 102 103 104 105 106 107 108 109 110 111 112 113 114 115 116 117 118 119 120 121 122 123 124 125 126 127 128 129 130 131 132 133 134 135 136 137 138 139 140 141 142 143 144 145 146 147 148 149 150 151 152 153 154 155 156 157 158 159 160 161 162 163 164 165 166 167 168 169 170 171 172 173 174 175 176 177 178 179 180 181 182 183 184 185 186 187 188 189 190 191 192 193 194 195 196 197 198 199 200 201 202 203 204 205 206 207 208 209 210 211 212 213 214 215 216 217 218 219 220 221 222 223 224 225 226 227 228 229 230 231 232 233 234 235 236 237 238 239 240 241 242 243 244 245 246 247 248 249 250 251 252 253 254 255 256 257 258 259 260 261 262 263 </p>
        </polylist>
      </mesh>
    </geometry>
  </library_geometries>
  <library_controllers>
  </library_controllers>
  <library_visual_scenes>
    <visual_scene id="Scene" name="Scene">
      <node id="node" name="" type="NODE">
        <matrix sid="matrix">1 0 0 0 0 1 0 0 0 0 1 0 0 0 0 1</matrix>
        <instance_geometry url="#mesh_0">
          <bind_material>
            <technique_common>
              <instance_material symbol="defaultMaterial" target="#material_0">
              </instance_material>
            </technique_common>
          </bind_material>
        </instance_geometry>
      </node>
    </visual_scene>
  </library_visual_scenes>
  <scene>
    <instance_visual_scene url="#Scene" />
  </scene>
</COLLADA>
