<?xml version="1.0" encoding="UTF-8" standalone="no" ?>
<COLLADA xmlns="http://www.collada.org/2005/11/COLLADASchema" version="1.4.1">
  <asset>
    <contributor>
      <author>Assimp</author>
      <authoring_tool>Assimp Exporter</authoring_tool>
    </contributor>
    <created>2026-04-22T16:09:43</created>
    <modified>2026-04-22T16:09:43</modified>
    <unit name="meter" meter="1" />
    <up_axis>Y_UP</up_axis>
  </asset>
  <library_images>
  </library_images>
  <library_effects>
    <effect id="material_0-fx" name="">
      <profile_COMMON>
        <technique sid="standard">
          <phong>
            <emission>
              <color sid="emission">0   0   0   -0</color>
            </emission>
            <ambient>
              <color sid="ambient">0.699999988   1   0.699999988   1.82499993</color>
            </ambient>
            <diffuse>
              <color sid="diffuse">0.699999988   1   0.699999988   1.82499993</color>
            </diffuse>
            <specular>
              <color sid="specular">0.25   0.25   0.25   -0</color>
            </specular>
          </phong>
        </technique>
      </profile_COMMON>
    </effect>
  </library_effects>
  <library_materials>
    <material id="material_0" name="">
      <instance_effect url="#material_0-fx"/>
    </material>
  </library_materials>
  <library_geometries>
    <geometry id="mesh_0" name="" >
      <mesh>
        <source id="mesh_0-positions" name="mesh_0-positions">
          <float_array id="mesh_0-positions-array" count="954"> 0.836478114 -0.275907159 1.52358687 0.807033122 -0.297434986 1.52351201 0.846620023 -0.251143187 1.52354252 0.807033122 -0.297434986 1.52351201 0.836478114 -0.275907159 1.52358687 0.815594137 -0.326884806 1.59711981 0.736006796 -0.24089545 1.52348101 0.775197089 -0.296732694 1.52349985 0.750500023 -0.281746477 1.52348995 0.775197089 -0.296732694 1.52349985 0.736006796 -0.24089545 1.52348101 0.807033122 -0.297434986 1.52351201 0.820171297 -0.330168277 1.64448535 0.789617896 -0.343449891 1.64518261 0.815594137 -0.326884806 1.59711981 0.789617896 -0.343449891 1.64518261 0.800954461 -0.299014449 1.64118564 0.767871439 -0.301285237 1.64066815 0.789617896 -0.343449891 1.64518261 0.820171297 -0.330168277 1.64448535 0.800954461 -0.299014449 1.64118564 0.738062441 -0.258343577 1.52351081 0.736006796 -0.24089545 1.52348101 0.750500023 -0.281746477 1.52348995 0.736006796 -0.24089545 1.52348101 0.785941064 -0.188036576 1.52350867 0.807033122 -0.297434986 1.52351201 0.807033122 -0.297434986 1.52351201 0.785941064 -0.188036576 1.52350867 0.846620023 -0.251143187 1.52354252 0.766652524 -0.234281138 1.60604918 0.751241803 -0.245084181 1.5996747 0.767871439 -0.301285237 1.64066815 0.740425766 -0.223195225 1.55198741 0.736006796 -0.24089545 1.52348101 0.737344444 -0.236763895 1.54808128 0.753269255 -0.212634072 1.58087099 0.766652524 -0.234281138 1.60604918 0.768625379 -0.206903771 1.58702743 0.766652524 -0.234281138 1.60604918 0.753269255 -0.212634072 1.58087099 0.751241803 -0.245084181 1.5996747 0.740425766 -0.223195225 1.55198741 0.753269255 -0.212634072 1.58087099 0.751160622 -0.206521541 1.55795336 0.76640594 -0.195481047 1.55873394 0.753269255 -0.212634072 1.58087099 0.768625379 -0.206903771 1.58702743 0.753269255 -0.212634072 1.58087099 0.76640594 -0.195481047 1.55873394 0.751160622 -0.206521541 1.55795336 0.751160622 -0.206521541 1.55795336 0.76640594 -0.195481047 1.55873394 0.759519696 -0.198626176 1.52351284 0.76640594 -0.195481047 1.55873394 0.785941064 -0.188036576 1.52350867 0.759519696 -0.198626176 1.52351284 0.785941064 -0.188036576 1.52350867 0.76640594 -0.195481047 1.55873394 0.781588137 -0.189789787 1.54316175 0.825430751 -0.314785033 1.60728848 0.820171297 -0.330168277 1.64448535 0.815594137 -0.326884806 1.59711981 0.836478114 -0.275907159 1.52358687 0.825430751 -0.314785033 1.60728848 0.815594137 -0.326884806 1.59711981 0.820171297 -0.330168277 1.64448535 0.825430751 -0.314785033 1.60728848 0.846620023 -0.251143187 1.52354252 0.825430751 -0.314785033 1.60728848 0.836478114 -0.275907159 1.52358687 0.846620023 -0.251143187 1.52354252 0.788117766 -0.329656005 1.58844554 0.807033122 -0.297434986 1.52351201 0.815594137 -0.326884806 1.59711981 0.788117766 -0.329656005 1.58844554 0.775197089 -0.296732694 1.52349985 0.807033122 -0.297434986 1.52351201 0.789617896 -0.343449891 1.64518261 0.788117766 -0.329656005 1.58844554 0.815594137 -0.326884806 1.59711981 0.788117766 -0.329656005 1.58844554 0.789617896 -0.343449891 1.64518261 0.773613811 -0.338791847 1.63327777 0.820341229 -0.233441129 1.60367596 0.804655612 -0.229527459 1.60690999 0.800954461 -0.299014449 1.64118564 0.812118948 -0.21259357 1.59284735 0.820341229 -0.233441129 1.60367596 0.82870692 -0.212837398 1.58192444 0.820341229 -0.233441129 1.60367596 0.812118948 -0.21259357 1.59284735 0.804655612 -0.229527459 1.60690999 0.8432374 -0.251156211 1.56688368 0.820171297 -0.330168277 1.64448535 0.846620023 -0.251143187 1.52354252 0.8432374 -0.251156211 1.56688368 0.84487474 -0.231335908 1.54491997 0.838978112 -0.236977711 1.58686924 0.841455281 -0.219876319 1.52366793 0.84487474 -0.231335908 1.54491997 0.846620023 -0.251143187 1.52354252 0.84487474 -0.231335908 1.54491997 0.8432374 -0.251156211 1.56688368 0.846620023 -0.251143187 1.52354252 0.761949301 -0.32829994 1.63843274 0.789617896 -0.343449891 1.64518261 0.767871439 -0.301285237 1.64066815 0.789617896 -0.343449891 1.64518261 0.761949301 -0.32829994 1.63843274 0.773613811 -0.338791847 1.63327777 0.736006796 -0.24089545 1.52348101 0.73852706 -0.255207688 1.55912268 0.737344444 -0.236763895 1.54808128 0.738062441 -0.258343577 1.52351081 0.73852706 -0.255207688 1.55912268 0.736006796 -0.24089545 1.52348101 0.761949301 -0.32829994 1.63843274 0.73852706 -0.255207688 1.55912268 0.738062441 -0.258343577 1.52351081 0.766652524 -0.234281138 1.60604918 0.781334102 -0.224867985 1.60493433 0.768625379 -0.206903771 1.58702743 0.781334102 -0.224867985 1.60493433 0.766652524 -0.234281138 1.60604918 0.767871439 -0.301285237 1.64066815 0.800954461 -0.299014449 1.64118564 0.781334102 -0.224867985 1.60493433 0.767871439 -0.301285237 1.64066815 0.804655612 -0.229527459 1.60690999 0.781334102 -0.224867985 1.60493433 0.800954461 -0.299014449 1.64118564 0.740425766 -0.223195225 1.55198741 0.745160639 -0.213106334 1.52349114 0.736006796 -0.24089545 1.52348101 0.785941064 -0.188036576 1.52350867 0.745160639 -0.213106334 1.52349114 0.759519696 -0.198626176 1.52351284 0.745160639 -0.213106334 1.52349114 0.785941064 -0.188036576 1.52350867 0.736006796 -0.24089545 1.52348101 0.745160639 -0.213106334 1.52349114 0.751160622 -0.206521541 1.55795336 0.759519696 -0.198626176 1.52351284 0.745160639 -0.213106334 1.52349114 0.740425766 -0.223195225 1.55198741 0.751160622 -0.206521541 1.55795336 0.753269255 -0.212634072 1.58087099 0.743315458 -0.238806382 1.58673215 0.751241803 -0.245084181 1.5996747 0.743315458 -0.238806382 1.58673215 0.753269255 -0.212634072 1.58087099 0.740425766 -0.223195225 1.55198741 0.743315458 -0.238806382 1.58673215 0.740425766 -0.223195225 1.55198741 0.737344444 -0.236763895 1.54808128 0.73852706 -0.255207688 1.55912268 0.743315458 -0.238806382 1.58673215 0.737344444 -0.236763895 1.54808128 0.828822494 -0.203612506 1.55390108 0.830729604 -0.205442593 1.52353823 0.81822443 -0.195201144 1.52353323 0.830729604 -0.205442593 1.52353823 0.828822494 -0.203612506 1.55390108 0.841455281 -0.219876319 1.52366793 0.830729604 -0.205442593 1.52353823 0.841455281 -0.219876319 1.52366793 0.846620023 -0.251143187 1.52354252 0.785941064 -0.188036576 1.52350867 0.830729604 -0.205442593 1.52353823 0.846620023 -0.251143187 1.52354252 0.830729604 -0.205442593 1.52353823 0.785941064 -0.188036576 1.52350867 0.81822443 -0.195201144 1.52353323 0.806411505 -0.194763795 1.57160497 0.812118948 -0.21259357 1.59284735 0.82870692 -0.212837398 1.58192444 0.788117766 -0.329656005 1.58844554 0.771483898 -0.325824827 1.58891451 0.775197089 -0.296732694 1.52349985 0.775197089 -0.296732694 1.52349985 0.771483898 -0.325824827 1.58891451 0.750500023 -0.281746477 1.52348995 0.820171297 -0.330168277 1.64448535 0.819147646 -0.295930713 1.63261926 0.800954461 -0.299014449 1.64118564 0.819147646 -0.295930713 1.63261926 0.820341229 -0.233441129 1.60367596 0.800954461 -0.299014449 1.64118564 0.8432374 -0.251156211 1.56688368 0.82423836 -0.309179276 1.63356292 0.820171297 -0.330168277 1.64448535 0.82423836 -0.309179276 1.63356292 0.8432374 -0.251156211 1.56688368 0.838978112 -0.236977711 1.58686924 0.82423836 -0.309179276 1.63356292 0.819147646 -0.295930713 1.63261926 0.820171297 -0.330168277 1.64448535 0.828822494 -0.203612506 1.55390108 0.836665034 -0.214759812 1.56080461 0.841455281 -0.219876319 1.52366793 0.836665034 -0.214759812 1.56080461 0.84487474 -0.231335908 1.54491997 0.841455281 -0.219876319 1.52366793 0.836665034 -0.214759812 1.56080461 0.828822494 -0.203612506 1.55390108 0.82870692 -0.212837398 1.58192444 0.838978112 -0.236977711 1.58686924 0.836665034 -0.214759812 1.56080461 0.82870692 -0.212837398 1.58192444 0.84487474 -0.231335908 1.54491997 0.836665034 -0.214759812 1.56080461 0.838978112 -0.236977711 1.58686924 0.758712411 -0.315690577 1.596874 0.738062441 -0.258343577 1.52351081 0.750500023 -0.281746477 1.52348995 0.758712411 -0.315690577 1.596874 0.761949301 -0.32829994 1.63843274 0.738062441 -0.258343577 1.52351081 0.756400228 -0.304732919 1.62696409 0.73852706 -0.255207688 1.55912268 0.761949301 -0.32829994 1.63843274 0.756400228 -0.304732919 1.62696409 0.743315458 -0.238806382 1.58673215 0.73852706 -0.255207688 1.55912268 0.756400228 -0.304732919 1.62696409 0.761949301 -0.32829994 1.63843274 0.767871439 -0.301285237 1.64066815 0.751241803 -0.245084181 1.5996747 0.756400228 -0.304732919 1.62696409 0.767871439 -0.301285237 1.64066815 0.743315458 -0.238806382 1.58673215 0.756400228 -0.304732919 1.62696409 0.751241803 -0.245084181 1.5996747 0.817523956 -0.195975721 1.556319 0.828822494 -0.203612506 1.55390108 0.81822443 -0.195201144 1.52353323 0.828822494 -0.203612506 1.55390108 0.817523956 -0.195975721 1.556319 0.82870692 -0.212837398 1.58192444 0.817523956 -0.195975721 1.556319 0.806411505 -0.194763795 1.57160497 0.82870692 -0.212837398 1.58192444 0.806411505 -0.194763795 1.57160497 0.792976856 -0.200511873 1.58574104 0.812118948 -0.21259357 1.59284735 0.781334102 -0.224867985 1.60493433 0.792976856 -0.200511873 1.58574104 0.768625379 -0.206903771 1.58702743 0.812118948 -0.21259357 1.59284735 0.792976856 -0.200511873 1.58574104 0.804655612 -0.229527459 1.60690999 0.792976856 -0.200511873 1.58574104 0.781334102 -0.224867985 1.60493433 0.804655612 -0.229527459 1.60690999 0.76640594 -0.195481047 1.55873394 0.782020569 -0.193172768 1.56987536 0.781588137 -0.189789787 1.54316175 0.782020569 -0.193172768 1.56987536 0.792976856 -0.200511873 1.58574104 0.806411505 -0.194763795 1.57160497 0.782020569 -0.193172768 1.56987536 0.76640594 -0.195481047 1.55873394 0.768625379 -0.206903771 1.58702743 0.792976856 -0.200511873 1.58574104 0.782020569 -0.193172768 1.56987536 0.768625379 -0.206903771 1.58702743 0.819147646 -0.295930713 1.63261926 0.833178103 -0.242589906 1.59743679 0.820341229 -0.233441129 1.60367596 0.82423836 -0.309179276 1.63356292 0.833178103 -0.242589906 1.59743679 0.819147646 -0.295930713 1.63261926 0.833178103 -0.242589906 1.59743679 0.82423836 -0.309179276 1.63356292 0.838978112 -0.236977711 1.58686924 0.833178103 -0.242589906 1.59743679 0.838978112 -0.236977711 1.58686924 0.82870692 -0.212837398 1.58192444 0.820341229 -0.233441129 1.60367596 0.833178103 -0.242589906 1.59743679 0.82870692 -0.212837398 1.58192444 0.771483898 -0.325824827 1.58891451 0.769273996 -0.332203925 1.60969961 0.750500023 -0.281746477 1.52348995 0.769273996 -0.332203925 1.60969961 0.758712411 -0.315690577 1.596874 0.750500023 -0.281746477 1.52348995 0.769273996 -0.332203925 1.60969961 0.788117766 -0.329656005 1.58844554 0.773613811 -0.338791847 1.63327777 0.769273996 -0.332203925 1.60969961 0.771483898 -0.325824827 1.58891451 0.788117766 -0.329656005 1.58844554 0.761949301 -0.32829994 1.63843274 0.769273996 -0.332203925 1.60969961 0.773613811 -0.338791847 1.63327777 0.758712411 -0.315690577 1.596874 0.769273996 -0.332203925 1.60969961 0.761949301 -0.32829994 1.63843274 0.785941064 -0.188036576 1.52350867 0.802994788 -0.190537333 1.55031812 0.81822443 -0.195201144 1.52353323 0.802994788 -0.190537333 1.55031812 0.817523956 -0.195975721 1.556319 0.81822443 -0.195201144 1.52353323 0.817523956 -0.195975721 1.556319 0.802994788 -0.190537333 1.55031812 0.806411505 -0.194763795 1.57160497 0.802994788 -0.190537333 1.55031812 0.785941064 -0.188036576 1.52350867 0.781588137 -0.189789787 1.54316175 0.782020569 -0.193172768 1.56987536 0.802994788 -0.190537333 1.55031812 0.781588137 -0.189789787 1.54316175 0.802994788 -0.190537333 1.55031812 0.782020569 -0.193172768 1.56987536 0.806411505 -0.194763795 1.57160497 </float_array>
          <technique_common>
            <accessor count="318" offset="0" source="#mesh_0-positions-array" stride="3">
              <param name="X" type="float" />
              <param name="Y" type="float" />
              <param name="Z" type="float" />
            </accessor>
          </technique_common>
        </source>
        <vertices id="mesh_0-vertices">
          <input semantic="POSITION" source="#mesh_0-positions" />
        </vertices>
        <polylist count="106" material="defaultMaterial">
          <input offset="0" semantic="VERTEX" source="#mesh_0-vertices" />
          <vcount>3 3 3 3 3 3 3 3 3 3 3 3 3 3 3 3 3 3 3 3 3 3 3 3 3 3 3 3 3 3 3 3 3 3 3 3 3 3 3 3 3 3 3 3 3 3 3 3 3 3 3 3 3 3 3 3 3 3 3 3 3 3 3 3 3 3 3 3 3 3 3 3 3 3 3 3 3 3 3 3 3 3 3 3 3 3 3 3 3 3 3 3 3 3 3 3 3 3 3 3 3 3 3 3 3 3 </vcount>
          <p>0 1 2 3 4 5 6 7 8 9 10 11 12 13 14 15 16 17 18 19 20 21 22 23 24 25 26 27 28 29 30 31 32 33 34 35 36 37 38 39 40 41 42 43 44 45 46 47 48 49 50 51 52 53 54 55 56 57 58 59 60 61 62 63 64 65 66 67 68 69 70 71 72 73 74 75 76 77 78 79 80 81 82 83 84 85 86 87 88 89 90 91 92 93 94 95 96 97 98 99 100 101 102 103 104 105 106 107 108 109 110 111 112 113 114 115 116 117 118 119 120 121 122 123 124 125 126 127 128 129 130 131 132 133 134 135 136 137 138 139 140 141 142 143 144 145 146 147 148 149 150 151 152 153 154 155 156 157 158 159 160 161 162 163 164 165 166 167 168 169 170 171 172 173 174 175 176 177 178 179 180 181 182 183 184 185 186 187 188 189 190 191 192 193 194 195 196 197 198 199 200 201 202 203 204 205 206 207 208 209 210 211 212 213 214 215 216 217 218 219 220 221 222 223 224 225 226 227 228 229 230 231 232 233 234 235 236 237 238 239 240 241 242 243 244 245 246 247 248 249 250 251 252 253 254 255 256 257 258 259 260 261 262 263 264 265 266 267 268 269 270 271 272 273 274 275 276 277 278 279 280 281 282 283 284 285 286 287 288 289 290 291 292 293 294 295 296 297 298 299 300 301 302 303 304 305 306 307 308 309 310 311 312 313 314 315 316 317 </p>
        </polylist>
      </mesh>
    </geometry>
  </library_geometries>
  <library_controllers>
  </library_controllers>
  <library_visual_scenes>
    <visual_scene id="Scene" name="Scene">
      <node id="node" name="" type="NODE">
        <matrix sid="matrix">1 0 0 0 0 1 0 0 0 0 1 0 0 0 0 1</matrix>
        <instance_geometry url="#mesh_0">
          <bind_material>
            <technique_common>
              <instance_material symbol="defaultMaterial" target="#material_0">
              </instance_material>
            </technique_common>
          </bind_material>
        </instance_geometry>
      </node>
    </visual_scene>
  </library_visual_scenes>
  <scene>
    <instance_visual_scene url="#Scene" />
  </scene>
</COLLADA>
