<?xml version="1.0" encoding="UTF-8" standalone="no" ?>
<COLLADA xmlns="http://www.collada.org/2005/11/COLLADASchema" version="1.4.1">
  <asset>
    <contributor>
      <author>Assimp</author>
      <authoring_tool>Assimp Exporter</authoring_tool>
    </contributor>
    <created>2026-04-22T16:09:44</created>
    <modified>2026-04-22T16:09:44</modified>
    <unit name="meter" meter="1" />
    <up_axis>Y_UP</up_axis>
  </asset>
  <library_images>
  </library_images>
  <library_effects>
    <effect id="material_0-fx" name="">
      <profile_COMMON>
        <technique sid="standard">
          <phong>
            <emission>
              <color sid="emission">0   0   0   -0</color>
            </emission>
            <ambient>
              <color sid="ambient">0.699999988   1   0.699999988   1.82499993</color>
            </ambient>
            <diffuse>
              <color sid="diffuse">0.699999988   1   0.699999988   1.82499993</color>
            </diffuse>
            <specular>
              <color sid="specular">0.25   0.25   0.25   -0</color>
            </specular>
          </phong>
        </technique>
      </profile_COMMON>
    </effect>
  </library_effects>
  <library_materials>
    <material id="material_0" name="">
      <instance_effect url="#material_0-fx"/>
    </material>
  </library_materials>
  <library_geometries>
    <geometry id="mesh_0" name="" >
      <mesh>
        <source id="mesh_0-positions" name="mesh_0-positions">
          <float_array id="mesh_0-positions-array" count="936"> -0.200792015 0.111964472 1.76985514 -0.200185537 0.131037429 1.78596079 -0.199980035 0.103918716 1.79533112 -0.214367285 0.0867706463 1.74622953 -0.200792015 0.111964472 1.76985514 -0.199980035 0.103918716 1.79533112 -0.200792015 0.111964472 1.76985514 -0.214367285 0.0867706463 1.74622953 -0.218305394 0.112117052 1.72157693 -0.28654772 0.0827499256 1.75545764 -0.280061483 0.107489847 1.72479701 -0.274275124 0.100841567 1.72733593 -0.280098855 0.118684575 1.73165631 -0.280061483 0.107489847 1.72479701 -0.30112958 0.12253572 1.77612269 -0.280061483 0.107489847 1.72479701 -0.249125019 0.0977069139 1.72346485 -0.274275124 0.100841567 1.72733593 -0.249125019 0.0977069139 1.72346485 -0.280061483 0.107489847 1.72479701 -0.218305394 0.112117052 1.72157693 -0.229608059 0.0906649083 1.82854247 -0.219308302 0.123848759 1.82452798 -0.244097412 0.120962851 1.8350172 -0.212830752 0.0956974998 1.81753457 -0.219308302 0.123848759 1.82452798 -0.229608059 0.0906649083 1.82854247 -0.262417674 0.139009818 1.81939602 -0.244097412 0.120962851 1.8350172 -0.254014373 0.14782086 1.81183994 -0.231428564 0.135030702 1.72827423 -0.280061483 0.107489847 1.72479701 -0.280098855 0.118684575 1.73165631 -0.218305394 0.112117052 1.72157693 -0.231428564 0.135030702 1.72827423 -0.221029952 0.132421896 1.72753882 -0.280061483 0.107489847 1.72479701 -0.231428564 0.135030702 1.72827423 -0.218305394 0.112117052 1.72157693 -0.280091971 0.143578172 1.79847527 -0.262417674 0.139009818 1.81939602 -0.254014373 0.14782086 1.81183994 -0.262417674 0.139009818 1.81939602 -0.280091971 0.143578172 1.79847527 -0.28482157 0.119177163 1.82098234 -0.28654772 0.0827499256 1.75545764 -0.255487293 0.0873822346 1.73462892 -0.214367285 0.0867706463 1.74622953 -0.249125019 0.0977069139 1.72346485 -0.255487293 0.0873822346 1.73462892 -0.274275124 0.100841567 1.72733593 -0.296449155 0.104040511 1.76859534 -0.297464877 0.0976399258 1.78822541 -0.30112958 0.12253572 1.77612269 -0.297464877 0.0976399258 1.78822541 -0.296449155 0.104040511 1.76859534 -0.28654772 0.0827499256 1.75545764 -0.280061483 0.107489847 1.72479701 -0.296449155 0.104040511 1.76859534 -0.30112958 0.12253572 1.77612269 -0.296449155 0.104040511 1.76859534 -0.280061483 0.107489847 1.72479701 -0.28654772 0.0827499256 1.75545764 -0.290503651 0.0923131108 1.80701256 -0.297464877 0.0976399258 1.78822541 -0.28654772 0.0827499256 1.75545764 -0.28482157 0.119177163 1.82098234 -0.290503651 0.0923131108 1.80701256 -0.273655623 0.0881415978 1.82448041 -0.249575898 0.0877401382 1.83203351 -0.229608059 0.0906649083 1.82854247 -0.244097412 0.120962851 1.8350172 -0.249575898 0.0877401382 1.83203351 -0.28654772 0.0827499256 1.75545764 -0.214367285 0.0867706463 1.74622953 -0.206797764 0.0993661508 1.80688965 -0.214367285 0.0867706463 1.74622953 -0.199980035 0.103918716 1.79533112 -0.212830752 0.0956974998 1.81753457 -0.206797764 0.0993661508 1.80688965 -0.199980035 0.103918716 1.79533112 -0.206797764 0.0993661508 1.80688965 -0.212830752 0.0956974998 1.81753457 -0.214367285 0.0867706463 1.74622953 -0.218494639 0.0938441828 1.82046354 -0.229608059 0.0906649083 1.82854247 -0.214367285 0.0867706463 1.74622953 -0.212830752 0.0956974998 1.81753457 -0.218494639 0.0938441828 1.82046354 -0.214367285 0.0867706463 1.74622953 -0.218494639 0.0938441828 1.82046354 -0.212830752 0.0956974998 1.81753457 -0.229608059 0.0906649083 1.82854247 -0.244097412 0.120962851 1.8350172 -0.234003142 0.136786282 1.82103145 -0.254014373 0.14782086 1.81183994 -0.219308302 0.123848759 1.82452798 -0.234003142 0.136786282 1.82103145 -0.244097412 0.120962851 1.8350172 -0.262417674 0.139009818 1.81939602 -0.268797725 0.118802652 1.83117568 -0.244097412 0.120962851 1.8350172 -0.268797725 0.118802652 1.83117568 -0.262417674 0.139009818 1.81939602 -0.28482157 0.119177163 1.82098234 -0.268797725 0.118802652 1.83117568 -0.28482157 0.119177163 1.82098234 -0.273655623 0.0881415978 1.82448041 -0.249575898 0.0877401382 1.83203351 -0.268797725 0.118802652 1.83117568 -0.273655623 0.0881415978 1.82448041 -0.268797725 0.118802652 1.83117568 -0.249575898 0.0877401382 1.83203351 -0.244097412 0.120962851 1.8350172 -0.276286602 0.13418293 1.74874604 -0.231428564 0.135030702 1.72827423 -0.280098855 0.118684575 1.73165631 -0.231428564 0.135030702 1.72827423 -0.276286602 0.13418293 1.74874604 -0.26083979 0.149824172 1.77106571 -0.276286602 0.13418293 1.74874604 -0.287068188 0.140571848 1.78062201 -0.26083979 0.149824172 1.77106571 -0.276286602 0.13418293 1.74874604 -0.280098855 0.118684575 1.73165631 -0.30112958 0.12253572 1.77612269 -0.287068188 0.140571848 1.78062201 -0.276286602 0.13418293 1.74874604 -0.30112958 0.12253572 1.77612269 -0.243354544 0.148712531 1.76183951 -0.231428564 0.135030702 1.72827423 -0.26083979 0.149824172 1.77106571 -0.200185537 0.131037429 1.78596079 -0.204004511 0.127555996 1.80581427 -0.199980035 0.103918716 1.79533112 -0.204004511 0.127555996 1.80581427 -0.212830752 0.0956974998 1.81753457 -0.199980035 0.103918716 1.79533112 -0.204004511 0.127555996 1.80581427 -0.219308302 0.123848759 1.82452798 -0.212830752 0.0956974998 1.81753457 -0.263985276 0.149464861 1.79943311 -0.280091971 0.143578172 1.79847527 -0.254014373 0.14782086 1.81183994 -0.287068188 0.140571848 1.78062201 -0.263985276 0.149464861 1.79943311 -0.26083979 0.149824172 1.77106571 -0.263985276 0.149464861 1.79943311 -0.287068188 0.140571848 1.78062201 -0.280091971 0.143578172 1.79847527 -0.255487293 0.0873822346 1.73462892 -0.234754667 0.0883996636 1.73559916 -0.214367285 0.0867706463 1.74622953 -0.234754667 0.0883996636 1.73559916 -0.255487293 0.0873822346 1.73462892 -0.249125019 0.0977069139 1.72346485 -0.214367285 0.0867706463 1.74622953 -0.234754667 0.0883996636 1.73559916 -0.218305394 0.112117052 1.72157693 -0.234754667 0.0883996636 1.73559916 -0.249125019 0.0977069139 1.72346485 -0.218305394 0.112117052 1.72157693 -0.27386263 0.0865655169 1.74199724 -0.28654772 0.0827499256 1.75545764 -0.274275124 0.100841567 1.72733593 -0.255487293 0.0873822346 1.73462892 -0.27386263 0.0865655169 1.74199724 -0.274275124 0.100841567 1.72733593 -0.27386263 0.0865655169 1.74199724 -0.255487293 0.0873822346 1.73462892 -0.28654772 0.0827499256 1.75545764 -0.278903455 0.0892985687 1.81831932 -0.28654772 0.0827499256 1.75545764 -0.273655623 0.0881415978 1.82448041 -0.290503651 0.0923131108 1.80701256 -0.278903455 0.0892985687 1.81831932 -0.273655623 0.0881415978 1.82448041 -0.278903455 0.0892985687 1.81831932 -0.290503651 0.0923131108 1.80701256 -0.28654772 0.0827499256 1.75545764 -0.29676351 0.119543701 1.80420029 -0.290503651 0.0923131108 1.80701256 -0.28482157 0.119177163 1.82098234 -0.290503651 0.0923131108 1.80701256 -0.29676351 0.119543701 1.80420029 -0.297464877 0.0976399258 1.78822541 -0.297464877 0.0976399258 1.78822541 -0.29676351 0.119543701 1.80420029 -0.30112958 0.12253572 1.77612269 -0.280091971 0.143578172 1.79847527 -0.29676351 0.119543701 1.80420029 -0.28482157 0.119177163 1.82098234 -0.29676351 0.119543701 1.80420029 -0.287068188 0.140571848 1.78062201 -0.30112958 0.12253572 1.77612269 -0.287068188 0.140571848 1.78062201 -0.29676351 0.119543701 1.80420029 -0.280091971 0.143578172 1.79847527 -0.28654772 0.0827499256 1.75545764 -0.261977255 0.0875903219 1.82786036 -0.273655623 0.0881415978 1.82448041 -0.261977255 0.0875903219 1.82786036 -0.249575898 0.0877401382 1.83203351 -0.273655623 0.0881415978 1.82448041 -0.249575898 0.0877401382 1.83203351 -0.261977255 0.0875903219 1.82786036 -0.28654772 0.0827499256 1.75545764 -0.229608059 0.0906649083 1.82854247 -0.235986054 0.0895007104 1.82890391 -0.214367285 0.0867706463 1.74622953 -0.249575898 0.0877401382 1.83203351 -0.235986054 0.0895007104 1.82890391 -0.229608059 0.0906649083 1.82854247 -0.215008467 0.143495798 1.77745509 -0.202826321 0.132585987 1.76747608 -0.221029952 0.132421896 1.72753882 -0.202826321 0.132585987 1.76747608 -0.215008467 0.143495798 1.77745509 -0.200185537 0.131037429 1.78596079 -0.200792015 0.111964472 1.76985514 -0.202826321 0.132585987 1.76747608 -0.200185537 0.131037429 1.78596079 -0.202826321 0.132585987 1.76747608 -0.218305394 0.112117052 1.72157693 -0.221029952 0.132421896 1.72753882 -0.202826321 0.132585987 1.76747608 -0.200792015 0.111964472 1.76985514 -0.218305394 0.112117052 1.72157693 -0.245902166 0.153022304 1.79070067 -0.243354544 0.148712531 1.76183951 -0.26083979 0.149824172 1.77106571 -0.263985276 0.149464861 1.79943311 -0.245902166 0.153022304 1.79070067 -0.26083979 0.149824172 1.77106571 -0.245902166 0.153022304 1.79070067 -0.263985276 0.149464861 1.79943311 -0.254014373 0.14782086 1.81183994 -0.231428564 0.135030702 1.72827423 -0.226470321 0.135900497 1.73264909 -0.221029952 0.132421896 1.72753882 -0.243354544 0.148712531 1.76183951 -0.226470321 0.135900497 1.73264909 -0.231428564 0.135030702 1.72827423 -0.226577818 0.147675797 1.76876736 -0.245902166 0.153022304 1.79070067 -0.22746098 0.150149286 1.79096329 -0.245902166 0.153022304 1.79070067 -0.226577818 0.147675797 1.76876736 -0.243354544 0.148712531 1.76183951 -0.226577818 0.147675797 1.76876736 -0.226470321 0.135900497 1.73264909 -0.243354544 0.148712531 1.76183951 -0.226577818 0.147675797 1.76876736 -0.215008467 0.143495798 1.77745509 -0.221029952 0.132421896 1.72753882 -0.226470321 0.135900497 1.73264909 -0.226577818 0.147675797 1.76876736 -0.221029952 0.132421896 1.72753882 -0.22732389 0.148745477 1.80152154 -0.204004511 0.127555996 1.80581427 -0.200185537 0.131037429 1.78596079 -0.22732389 0.148745477 1.80152154 -0.245902166 0.153022304 1.79070067 -0.254014373 0.14782086 1.81183994 -0.245902166 0.153022304 1.79070067 -0.22732389 0.148745477 1.80152154 -0.22746098 0.150149286 1.79096329 -0.215008467 0.143495798 1.77745509 -0.22732389 0.148745477 1.80152154 -0.200185537 0.131037429 1.78596079 -0.22732389 0.148745477 1.80152154 -0.215008467 0.143495798 1.77745509 -0.22746098 0.150149286 1.79096329 -0.242755145 0.0885322616 1.83002985 -0.249575898 0.0877401382 1.83203351 -0.214367285 0.0867706463 1.74622953 -0.235986054 0.0895007104 1.82890391 -0.242755145 0.0885322616 1.83002985 -0.214367285 0.0867706463 1.74622953 -0.242755145 0.0885322616 1.83002985 -0.235986054 0.0895007104 1.82890391 -0.249575898 0.0877401382 1.83203351 -0.215008467 0.143495798 1.77745509 -0.220420718 0.146090835 1.77656078 -0.22746098 0.150149286 1.79096329 -0.220420718 0.146090835 1.77656078 -0.226577818 0.147675797 1.76876736 -0.22746098 0.150149286 1.79096329 -0.226577818 0.147675797 1.76876736 -0.220420718 0.146090835 1.77656078 -0.215008467 0.143495798 1.77745509 -0.234003142 0.136786282 1.82103145 -0.234489352 0.144479394 1.81234777 -0.254014373 0.14782086 1.81183994 -0.234489352 0.144479394 1.81234777 -0.22732389 0.148745477 1.80152154 -0.254014373 0.14782086 1.81183994 -0.234489352 0.144479394 1.81234777 -0.234003142 0.136786282 1.82103145 -0.219308302 0.123848759 1.82452798 -0.221874192 0.142258152 1.80484903 -0.234489352 0.144479394 1.81234777 -0.219308302 0.123848759 1.82452798 -0.234489352 0.144479394 1.81234777 -0.221874192 0.142258152 1.80484903 -0.22732389 0.148745477 1.80152154 -0.204004511 0.127555996 1.80581427 -0.221874192 0.142258152 1.80484903 -0.219308302 0.123848759 1.82452798 -0.22732389 0.148745477 1.80152154 -0.221874192 0.142258152 1.80484903 -0.204004511 0.127555996 1.80581427 </float_array>
          <technique_common>
            <accessor count="312" offset="0" source="#mesh_0-positions-array" stride="3">
              <param name="X" type="float" />
              <param name="Y" type="float" />
              <param name="Z" type="float" />
            </accessor>
          </technique_common>
        </source>
        <vertices id="mesh_0-vertices">
          <input semantic="POSITION" source="#mesh_0-positions" />
        </vertices>
        <polylist count="104" material="defaultMaterial">
          <input offset="0" semantic="VERTEX" source="#mesh_0-vertices" />
          <vcount>3 3 3 3 3 3 3 3 3 3 3 3 3 3 3 3 3 3 3 3 3 3 3 3 3 3 3 3 3 3 3 3 3 3 3 3 3 3 3 3 3 3 3 3 3 3 3 3 3 3 3 3 3 3 3 3 3 3 3 3 3 3 3 3 3 3 3 3 3 3 3 3 3 3 3 3 3 3 3 3 3 3 3 3 3 3 3 3 3 3 3 3 3 3 3 3 3 3 3 3 3 3 3 3 </vcount>
          <p>0 1 2 3 4 5 6 7 8 9 10 11 12 13 14 15 16 17 18 19 20 21 22 23 24 25 26 27 28 29 30 31 32 33 34 35 36 37 38 39 40 41 42 43 44 45 46 47 48 49 50 51 52 53 54 55 56 57 58 59 60 61 62 63 64 65 66 67 68 69 70 71 72 73 74 75 76 77 78 79 80 81 82 83 84 85 86 87 88 89 90 91 92 93 94 95 96 97 98 99 100 101 102 103 104 105 106 107 108 109 110 111 112 113 114 115 116 117 118 119 120 121 122 123 124 125 126 127 128 129 130 131 132 133 134 135 136 137 138 139 140 141 142 143 144 145 146 147 148 149 150 151 152 153 154 155 156 157 158 159 160 161 162 163 164 165 166 167 168 169 170 171 172 173 174 175 176 177 178 179 180 181 182 183 184 185 186 187 188 189 190 191 192 193 194 195 196 197 198 199 200 201 202 203 204 205 206 207 208 209 210 211 212 213 214 215 216 217 218 219 220 221 222 223 224 225 226 227 228 229 230 231 232 233 234 235 236 237 238 239 240 241 242 243 244 245 246 247 248 249 250 251 252 253 254 255 256 257 258 259 260 261 262 263 264 265 266 267 268 269 270 271 272 273 274 275 276 277 278 279 280 281 282 283 284 285 286 287 288 289 290 291 292 293 294 295 296 297 298 299 300 301 302 303 304 305 306 307 308 309 310 311 </p>
        </polylist>
      </mesh>
    </geometry>
  </library_geometries>
  <library_controllers>
  </library_controllers>
  <library_visual_scenes>
    <visual_scene id="Scene" name="Scene">
      <node id="node" name="" type="NODE">
        <matrix sid="matrix">1 0 0 0 0 1 0 0 0 0 1 0 0 0 0 1</matrix>
        <instance_geometry url="#mesh_0">
          <bind_material>
            <technique_common>
              <instance_material symbol="defaultMaterial" target="#material_0">
              </instance_material>
            </technique_common>
          </bind_material>
        </instance_geometry>
      </node>
    </visual_scene>
  </library_visual_scenes>
  <scene>
    <instance_visual_scene url="#Scene" />
  </scene>
</COLLADA>
