<?xml version="1.0" encoding="UTF-8" standalone="no" ?>
<COLLADA xmlns="http://www.collada.org/2005/11/COLLADASchema" version="1.4.1">
  <asset>
    <contributor>
      <author>Assimp</author>
      <authoring_tool>Assimp Exporter</authoring_tool>
    </contributor>
    <created>2026-04-22T16:09:44</created>
    <modified>2026-04-22T16:09:44</modified>
    <unit name="meter" meter="1" />
    <up_axis>Y_UP</up_axis>
  </asset>
  <library_images>
  </library_images>
  <library_effects>
    <effect id="material_0-fx" name="">
      <profile_COMMON>
        <technique sid="standard">
          <phong>
            <emission>
              <color sid="emission">0   0   0   -1.87499988</color>
            </emission>
            <ambient>
              <color sid="ambient">0.699999988   0.699999988   0.699999988   -1.29087281</color>
            </ambient>
            <diffuse>
              <color sid="diffuse">0.699999988   0.699999988   0.699999988   -1.29087281</color>
            </diffuse>
            <specular>
              <color sid="specular">0.300000012   0.300000012   0.300000012   0.610321581</color>
            </specular>
          </phong>
        </technique>
      </profile_COMMON>
    </effect>
  </library_effects>
  <library_materials>
    <material id="material_0" name="">
      <instance_effect url="#material_0-fx"/>
    </material>
  </library_materials>
  <library_geometries>
    <geometry id="mesh_0" name="" >
      <mesh>
        <source id="mesh_0-positions" name="mesh_0-positions">
          <float_array id="mesh_0-positions-array" count="3258"> 0.693749905 -0.237582862 1.57150459 0.693020761 -0.233523369 1.57404649 0.693032265 -0.238299429 1.57324362 0.694558442 -0.236772239 1.57083631 0.693020761 -0.233523369 1.57404649 0.693749905 -0.237582862 1.57150459 0.694558442 -0.236772239 1.57083631 0.696049213 -0.235279337 1.57067478 0.693020761 -0.233523369 1.57404649 0.696049213 -0.235279337 1.57067478 0.697235048 -0.234106034 1.57174742 0.693020761 -0.233523369 1.57404649 0.697856426 -0.233466938 1.57358837 0.693020761 -0.233523369 1.57404649 0.697235048 -0.234106034 1.57174742 0.696403444 -0.222224101 1.6150794 0.680849612 -0.235955954 1.6150322 0.695402622 -0.221362635 1.61504304 0.696403444 -0.222224101 1.6150794 0.681814253 -0.237060383 1.61503506 0.680849612 -0.235955954 1.6150322 0.697040915 -0.222968742 1.61273241 0.682497799 -0.237466872 1.61392331 0.69708997 -0.222914353 1.6142745 0.697040915 -0.222968742 1.61273241 0.682427824 -0.237581864 1.61268461 0.682497799 -0.237466872 1.61392331 0.707551777 -0.233453214 1.61724973 0.703737557 -0.229476735 1.61730647 0.707589924 -0.233469099 1.61891639 0.703680336 -0.229596525 1.61520922 0.701926827 -0.227617204 1.61523819 0.703737557 -0.229476735 1.61730647 0.700350761 -0.226197571 1.60019374 0.697435677 -0.223110914 1.6013298 0.701206505 -0.22705996 1.60127354 0.701206505 -0.22705996 1.60127354 0.697435677 -0.223110914 1.6013298 0.70131129 -0.227134585 1.61424732 0.70131129 -0.227134585 1.61424732 0.697435677 -0.223110914 1.6013298 0.69708997 -0.222914353 1.6142745 0.700350761 -0.226197571 1.60019374 0.697898209 -0.223809868 1.60021687 0.697435677 -0.223110914 1.6013298 0.69708997 -0.222914353 1.6142745 0.696403444 -0.222224101 1.6150794 0.701926827 -0.227617204 1.61523819 0.70131129 -0.227134585 1.61424732 0.69708997 -0.222914353 1.6142745 0.701926827 -0.227617204 1.61523819 0.701926827 -0.227617204 1.61523819 0.694769919 -0.220508829 1.61730158 0.703737557 -0.229476735 1.61730647 0.696403444 -0.222224101 1.6150794 0.694769919 -0.220508829 1.61730158 0.701926827 -0.227617204 1.61523819 0.696403444 -0.222224101 1.6150794 0.694593489 -0.220625028 1.61512232 0.694769919 -0.220508829 1.61730158 0.694769919 -0.220508829 1.61730158 0.690792501 -0.216636807 1.61887681 0.703737557 -0.229476735 1.61730647 0.703737557 -0.229476735 1.61730647 0.690792501 -0.216636807 1.61887681 0.707589924 -0.233469099 1.61891639 0.694769919 -0.220508829 1.61730158 0.690793633 -0.216694504 1.61724055 0.690792501 -0.216636807 1.61887681 0.68755573 -0.242534727 1.61501825 0.691685081 -0.241815343 1.61511648 0.689059377 -0.244217008 1.61519825 0.68755573 -0.242534727 1.61501825 0.702013552 -0.228110671 1.6150316 0.691685081 -0.241815343 1.61511648 0.691685081 -0.241815343 1.61511648 0.702013552 -0.228110671 1.6150316 0.701242924 -0.232320666 1.61513281 0.702013552 -0.228110671 1.6150316 0.703680336 -0.229596525 1.61520922 0.701242924 -0.232320666 1.61513281 0.701388299 -0.234806702 1.6151706 0.703663886 -0.237306684 1.61517191 0.694129884 -0.241570935 1.61504209 0.694129884 -0.241570935 1.61504209 0.703663886 -0.237306684 1.61517191 0.696804881 -0.244236186 1.61521673 0.691685081 -0.241815343 1.61511648 0.701242924 -0.232320666 1.61513281 0.694129884 -0.241570935 1.61504209 0.701242924 -0.232320666 1.61513281 0.701388299 -0.234806702 1.6151706 0.694129884 -0.241570935 1.61504209 0.692914426 -0.248090059 1.61723876 0.696852505 -0.244266316 1.61728024 0.692913353 -0.248129755 1.61888623 0.696804881 -0.244236186 1.61521673 0.703727841 -0.237391233 1.61728537 0.696852505 -0.244266316 1.61728024 0.703663886 -0.237306684 1.61517191 0.703727841 -0.237391233 1.61728537 0.696804881 -0.244236186 1.61521673 0.707551777 -0.233453214 1.61724973 0.707589924 -0.233469099 1.61891639 0.703727841 -0.237391233 1.61728537 0.707589924 -0.233469099 1.61891639 0.692913353 -0.248129755 1.61888623 0.696852505 -0.244266316 1.61728024 0.707589924 -0.233469099 1.61891639 0.696852505 -0.244266316 1.61728024 0.703727841 -0.237391233 1.61728537 0.67611593 -0.231347203 1.61889613 0.679951549 -0.227419779 1.61727178 0.676156282 -0.231331348 1.61722946 0.679951549 -0.227419779 1.61727178 0.686873138 -0.220567033 1.61519909 0.680063069 -0.227442116 1.61514783 0.686912596 -0.220501944 1.61725879 0.686873138 -0.220567033 1.61519909 0.679951549 -0.227419779 1.61727178 0.690792501 -0.216636807 1.61887681 0.690793633 -0.216694504 1.61724055 0.686912596 -0.220501944 1.61725879 0.67611593 -0.231347203 1.61889613 0.690792501 -0.216636807 1.61887681 0.679951549 -0.227419779 1.61727178 0.679951549 -0.227419779 1.61727178 0.690792501 -0.216636807 1.61887681 0.686912596 -0.220501944 1.61725879 0.689074695 -0.222906709 1.61504722 0.680063069 -0.227442116 1.61514783 0.686873138 -0.220567033 1.61519909 0.689074695 -0.222906709 1.61504722 0.682354867 -0.229589522 1.61504376 0.680063069 -0.227442116 1.61514783 0.707589924 -0.233469099 1.61891639 0.67611593 -0.231347203 1.61889613 0.692913353 -0.248129755 1.61888623 0.707589924 -0.233469099 1.61891639 0.690792501 -0.216636807 1.61887681 0.67611593 -0.231347203 1.61889613 0.686481416 -0.241727918 1.60131669 0.701206505 -0.22705996 1.60127354 0.686629653 -0.241869971 1.61428344 0.701206505 -0.22705996 1.60127354 0.70131129 -0.227134585 1.61424732 0.686629653 -0.241869971 1.61428344 0.697898209 -0.223809868 1.60021687 0.700350761 -0.226197571 1.60019374 0.683400571 -0.238531336 1.60016012 0.683400571 -0.238531336 1.60016012 0.700350761 -0.226197571 1.60019374 0.685797155 -0.241005614 1.60023499 0.680104554 -0.235162437 1.61509991 0.681814253 -0.237060383 1.61503506 0.679940939 -0.235269159 1.61728656 0.67611593 -0.231347203 1.61889613 0.679940939 -0.235269159 1.61728656 0.688938022 -0.244275749 1.61729538 0.67611593 -0.231347203 1.61889613 0.688938022 -0.244275749 1.61729538 0.692913353 -0.248129755 1.61888623 0.688938022 -0.244275749 1.61729538 0.692914426 -0.248090059 1.61723876 0.692913353 -0.248129755 1.61888623 0.676156282 -0.231331348 1.61722946 0.679940939 -0.235269159 1.61728656 0.67611593 -0.231347203 1.61889613 0.687090516 -0.242473409 1.6152364 0.689059377 -0.244217008 1.61519825 0.688938022 -0.244275749 1.61729538 0.682584405 -0.237961605 1.6013186 0.686629653 -0.241869971 1.61428344 0.682439029 -0.237821832 1.61430264 0.682584405 -0.237961605 1.6013186 0.686481416 -0.241727918 1.60131669 0.686629653 -0.241869971 1.61428344 0.682584405 -0.237961605 1.6013186 0.685797155 -0.241005614 1.60023499 0.686481416 -0.241727918 1.60131669 0.683400571 -0.238531336 1.60016012 0.685797155 -0.241005614 1.60023499 0.682584405 -0.237961605 1.6013186 0.682439029 -0.237821832 1.61430264 0.686629653 -0.241869971 1.61428344 0.687090516 -0.242473409 1.6152364 0.681814253 -0.237060383 1.61503506 0.682439029 -0.237821832 1.61430264 0.687090516 -0.242473409 1.6152364 0.679940939 -0.235269159 1.61728656 0.687090516 -0.242473409 1.6152364 0.688938022 -0.244275749 1.61729538 0.679940939 -0.235269159 1.61728656 0.681814253 -0.237060383 1.61503506 0.687090516 -0.242473409 1.6152364 0.676156282 -0.231331348 1.61722946 0.682191312 -0.232731357 1.61713338 0.679940939 -0.235269159 1.61728656 0.682425261 -0.230325907 1.61713374 0.682191312 -0.232731357 1.61713338 0.676156282 -0.231331348 1.61722946 0.679951549 -0.227419779 1.61727178 0.682425261 -0.230325907 1.61713374 0.676156282 -0.231331348 1.61722946 0.681980014 -0.229630604 1.61533284 0.682467043 -0.230861217 1.61533344 0.682425261 -0.230325907 1.61713374 0.682425261 -0.230325907 1.61713374 0.68225193 -0.232651055 1.61533439 0.682191312 -0.232731357 1.61713338 0.682467043 -0.230861217 1.61533344 0.68225193 -0.232651055 1.61533439 0.682425261 -0.230325907 1.61713374 0.680063069 -0.227442116 1.61514783 0.681980014 -0.229630604 1.61533284 0.679951549 -0.227419779 1.61727178 0.679951549 -0.227419779 1.61727178 0.681980014 -0.229630604 1.61533284 0.682425261 -0.230325907 1.61713374 0.68225193 -0.232651055 1.61533439 0.679940939 -0.235269159 1.61728656 0.682191312 -0.232731357 1.61713338 0.68225193 -0.232651055 1.61533439 0.680104554 -0.235162437 1.61509991 0.679940939 -0.235269159 1.61728656 0.694062412 -0.241885558 1.61714017 0.696852505 -0.244266316 1.61728024 0.692914426 -0.248090059 1.61723876 0.6915766 -0.242003769 1.6171385 0.692914426 -0.248090059 1.61723876 0.688938022 -0.244275749 1.61729538 0.6915766 -0.242003769 1.6171385 0.694062412 -0.241885558 1.61714017 0.692914426 -0.248090059 1.61723876 0.6915766 -0.242003769 1.6171385 0.691685081 -0.241815343 1.61511648 0.694062412 -0.241885558 1.61714017 0.691685081 -0.241815343 1.61511648 0.694209874 -0.241989017 1.61534631 0.694062412 -0.241885558 1.61714017 0.689059377 -0.244217008 1.61519825 0.6915766 -0.242003769 1.6171385 0.688938022 -0.244275749 1.61729538 0.689059377 -0.244217008 1.61519825 0.691685081 -0.241815343 1.61511648 0.6915766 -0.242003769 1.6171385 0.694209874 -0.241989017 1.61534631 0.696804881 -0.244236186 1.61521673 0.694062412 -0.241885558 1.61714017 0.694062412 -0.241885558 1.61714017 0.696804881 -0.244236186 1.61521673 0.696852505 -0.244266316 1.61728024 0.690793633 -0.216694504 1.61724055 0.694769919 -0.220508829 1.61730158 0.692226648 -0.222716883 1.61714089 0.690793633 -0.216694504 1.61724055 0.689788043 -0.222963408 1.61713922 0.686912596 -0.220501944 1.61725879 0.690793633 -0.216694504 1.61724055 0.692226648 -0.222716883 1.61714089 0.689788043 -0.222963408 1.61713922 0.692226648 -0.222716883 1.61714089 0.692100823 -0.222789407 1.61535192 0.689788043 -0.222963408 1.61713922 0.692100823 -0.222789407 1.61535192 0.690324664 -0.223003864 1.6153394 0.689788043 -0.222963408 1.61713922 0.690324664 -0.223003864 1.6153394 0.6891011 -0.222521648 1.61533582 0.689788043 -0.222963408 1.61713922 0.694593489 -0.220625028 1.61512232 0.692100823 -0.222789407 1.61535192 0.692226648 -0.222716883 1.61714089 0.694593489 -0.220625028 1.61512232 0.692226648 -0.222716883 1.61714089 0.694769919 -0.220508829 1.61730158 0.6891011 -0.222521648 1.61533582 0.686873138 -0.220567033 1.61519909 0.686912596 -0.220501944 1.61725879 0.6891011 -0.222521648 1.61533582 0.686912596 -0.220501944 1.61725879 0.689788043 -0.222963408 1.61713922 0.707551777 -0.233453214 1.61724973 0.703727841 -0.237391233 1.61728537 0.701626182 -0.235020593 1.61714578 0.701559246 -0.231978044 1.61714602 0.701626182 -0.235020593 1.61714578 0.701207876 -0.23357448 1.61714566 0.701559246 -0.231978044 1.61714602 0.707551777 -0.233453214 1.61724973 0.701626182 -0.235020593 1.61714578 0.703737557 -0.229476735 1.61730647 0.707551777 -0.233453214 1.61724973 0.701559246 -0.231978044 1.61714602 0.701626182 -0.235020593 1.61714578 0.701388299 -0.234806702 1.6151706 0.701207876 -0.23357448 1.61714566 0.701388299 -0.234806702 1.6151706 0.701242924 -0.232320666 1.61513281 0.701207876 -0.23357448 1.61714566 0.701207876 -0.23357448 1.61714566 0.701242924 -0.232320666 1.61513281 0.701559246 -0.231978044 1.61714602 0.703663886 -0.237306684 1.61517191 0.701388299 -0.234806702 1.6151706 0.701626182 -0.235020593 1.61714578 0.703663886 -0.237306684 1.61517191 0.701626182 -0.235020593 1.61714578 0.703727841 -0.237391233 1.61728537 0.701559246 -0.231978044 1.61714602 0.703680336 -0.229596525 1.61520922 0.703737557 -0.229476735 1.61730647 0.701242924 -0.232320666 1.61513281 0.703680336 -0.229596525 1.61520922 0.701559246 -0.231978044 1.61714602 0.686629653 -0.241869971 1.61428344 0.70131129 -0.227134585 1.61424732 0.68755573 -0.242534727 1.61501825 0.70131129 -0.227134585 1.61424732 0.702013552 -0.228110671 1.6150316 0.68755573 -0.242534727 1.61501825 0.696403444 -0.222224101 1.6150794 0.69708997 -0.222914353 1.6142745 0.681814253 -0.237060383 1.61503506 0.681814253 -0.237060383 1.61503506 0.69708997 -0.222914353 1.6142745 0.682497799 -0.237466872 1.61392331 0.682588041 -0.237536177 1.60126269 0.696995854 -0.223105729 1.60136294 0.697898209 -0.223809868 1.60021687 0.683400571 -0.238531336 1.60016012 0.682588041 -0.237536177 1.60126269 0.697898209 -0.223809868 1.60021687 0.685797155 -0.241005614 1.60023499 0.700350761 -0.226197571 1.60019374 0.701206505 -0.22705996 1.60127354 0.686481416 -0.241727918 1.60131669 0.685797155 -0.241005614 1.60023499 0.701206505 -0.22705996 1.60127354 0.692100823 -0.222789407 1.61535192 0.694593489 -0.220625028 1.61512232 0.691969454 -0.223219395 1.61504316 0.692100823 -0.222789407 1.61535192 0.691969454 -0.223219395 1.61504316 0.690324664 -0.223003864 1.6153394 0.691969454 -0.223219395 1.61504316 0.689074695 -0.222906709 1.61504722 0.690324664 -0.223003864 1.6153394 0.690324664 -0.223003864 1.6153394 0.689074695 -0.222906709 1.61504722 0.6891011 -0.222521648 1.61533582 0.686873138 -0.220567033 1.61519909 0.6891011 -0.222521648 1.61533582 0.689074695 -0.222906709 1.61504722 0.695402622 -0.221362635 1.61504304 0.694593489 -0.220625028 1.61512232 0.696403444 -0.222224101 1.6150794 0.696995854 -0.223105729 1.60136294 0.697040915 -0.222968742 1.61273241 0.697435677 -0.223110914 1.6013298 0.697040915 -0.222968742 1.61273241 0.69708997 -0.222914353 1.6142745 0.697435677 -0.223110914 1.6013298 0.697898209 -0.223809868 1.60021687 0.696995854 -0.223105729 1.60136294 0.697435677 -0.223110914 1.6013298 0.680063069 -0.227442116 1.61514783 0.682354867 -0.229589522 1.61504376 0.681980014 -0.229630604 1.61533284 0.681980014 -0.229630604 1.61533284 0.682354867 -0.229589522 1.61504376 0.682467043 -0.230861217 1.61533344 0.682354867 -0.229589522 1.61504376 0.68267411 -0.232547522 1.61503649 0.682467043 -0.230861217 1.61533344 0.682467043 -0.230861217 1.61533344 0.68267411 -0.232547522 1.61503649 0.68225193 -0.232651055 1.61533439 0.68267411 -0.232547522 1.61503649 0.680104554 -0.235162437 1.61509991 0.68225193 -0.232651055 1.61533439 0.70131129 -0.227134585 1.61424732 0.701926827 -0.227617204 1.61523819 0.702013552 -0.228110671 1.6150316 0.681814253 -0.237060383 1.61503506 0.680104554 -0.235162437 1.61509991 0.680849612 -0.235955954 1.6150322 0.703680336 -0.229596525 1.61520922 0.702013552 -0.228110671 1.6150316 0.701926827 -0.227617204 1.61523819 0.682497799 -0.237466872 1.61392331 0.682439029 -0.237821832 1.61430264 0.681814253 -0.237060383 1.61503506 0.682427824 -0.237581864 1.61268461 0.682439029 -0.237821832 1.61430264 0.682497799 -0.237466872 1.61392331 0.682584405 -0.237961605 1.6013186 0.682427824 -0.237581864 1.61268461 0.682588041 -0.237536177 1.60126269 0.682584405 -0.237961605 1.6013186 0.682439029 -0.237821832 1.61430264 0.682427824 -0.237581864 1.61268461 0.682588041 -0.237536177 1.60126269 0.683400571 -0.238531336 1.60016012 0.682584405 -0.237961605 1.6013186 0.68755573 -0.242534727 1.61501825 0.687090516 -0.242473409 1.6152364 0.686629653 -0.241869971 1.61428344 0.689059377 -0.244217008 1.61519825 0.687090516 -0.242473409 1.6152364 0.68755573 -0.242534727 1.61501825 0.694129884 -0.241570935 1.61504209 0.696804881 -0.244236186 1.61521673 0.694209874 -0.241989017 1.61534631 0.691685081 -0.241815343 1.61511648 0.694129884 -0.241570935 1.61504209 0.694209874 -0.241989017 1.61534631 0.691969454 -0.223219395 1.61504316 0.692945302 -0.218924701 1.61503267 0.689074695 -0.222906709 1.61504722 0.691969454 -0.223219395 1.61504316 0.694593489 -0.220625028 1.61512232 0.692945302 -0.218924701 1.61503267 0.697224915 -0.225288779 1.58311832 0.684764028 -0.237726569 1.58312511 0.691570103 -0.217402518 1.59985328 0.684764028 -0.237726569 1.58312511 0.676846027 -0.232079118 1.59999335 0.691570103 -0.217402518 1.59985328 0.697224915 -0.225288779 1.58311832 0.685692728 -0.238574445 1.5830307 0.684764028 -0.237726569 1.58312511 0.698063672 -0.226203293 1.58303964 0.685692728 -0.238574445 1.5830307 0.697224915 -0.225288779 1.58311832 0.69573611 -0.228696659 1.56523252 0.698006809 -0.226266026 1.56921196 0.697527349 -0.226994023 1.56675267 0.688551724 -0.235839337 1.56520557 0.698006809 -0.226266026 1.56921196 0.69573611 -0.228696659 1.56523252 0.685848176 -0.238423601 1.56850147 0.698006809 -0.226266026 1.56921196 0.688551724 -0.235839337 1.56520557 0.685692728 -0.238574445 1.5830307 0.698063672 -0.226203293 1.58303964 0.685848176 -0.238423601 1.56850147 0.685848176 -0.238423601 1.56850147 0.698063672 -0.226203293 1.58303964 0.698006809 -0.226266026 1.56921196 0.685848176 -0.238423601 1.56850147 0.688551724 -0.235839337 1.56520557 0.687345207 -0.237102762 1.56579006 0.69573611 -0.228696659 1.56523252 0.691296816 -0.239619404 1.56518102 0.688551724 -0.235839337 1.56520557 0.699234843 -0.23200129 1.56529725 0.691296816 -0.239619404 1.56518102 0.69573611 -0.228696659 1.56523252 0.701595128 -0.229680955 1.56892824 0.697235048 -0.234106034 1.57174742 0.700367868 -0.230849028 1.56622386 0.700367868 -0.230849028 1.56622386 0.697235048 -0.234106034 1.57174742 0.699234843 -0.23200129 1.56529725 0.697235048 -0.234106034 1.57174742 0.696049213 -0.235279337 1.57067478 0.699234843 -0.23200129 1.56529725 0.701595128 -0.229680955 1.56892824 0.697856426 -0.233466938 1.57358837 0.697235048 -0.234106034 1.57174742 0.699234843 -0.23200129 1.56529725 0.696049213 -0.235279337 1.57067478 0.691541195 -0.239805847 1.56548095 0.701595128 -0.229680955 1.56892824 0.701595306 -0.229740009 1.58304179 0.697856426 -0.233466938 1.57358837 0.701595306 -0.229740009 1.58304179 0.697572768 -0.233749017 1.57555234 0.697856426 -0.233466938 1.57358837 0.696049213 -0.235279337 1.57067478 0.694558442 -0.236772239 1.57083631 0.691541195 -0.239805847 1.56548095 0.694558442 -0.236772239 1.57083631 0.693749905 -0.237582862 1.57150459 0.691541195 -0.239805847 1.56548095 0.701595306 -0.229740009 1.58304179 0.696794271 -0.234538883 1.57688689 0.697572768 -0.233749017 1.57555234 0.691541195 -0.239805847 1.56548095 0.693749905 -0.237582862 1.57150459 0.689865947 -0.241308957 1.56679237 0.693749905 -0.237582862 1.57150459 0.689129472 -0.242079586 1.5688343 0.689865947 -0.241308957 1.56679237 0.701595306 -0.229740009 1.58304179 0.695299268 -0.236011744 1.57753098 0.696794271 -0.234538883 1.57688689 0.693032265 -0.238299429 1.57324362 0.689129472 -0.242079586 1.5688343 0.693749905 -0.237582862 1.57150459 0.693168581 -0.238155067 1.57526767 0.689225018 -0.242110163 1.58303225 0.693032265 -0.238299429 1.57324362 0.694035351 -0.237291276 1.57684708 0.689225018 -0.242110163 1.58303225 0.693168581 -0.238155067 1.57526767 0.693032265 -0.238299429 1.57324362 0.689225018 -0.242110163 1.58303225 0.689129472 -0.242079586 1.5688343 0.695299268 -0.236011744 1.57753098 0.689225018 -0.242110163 1.58303225 0.694035351 -0.237291276 1.57684708 0.701595306 -0.229740009 1.58304179 0.689225018 -0.242110163 1.58303225 0.695299268 -0.236011744 1.57753098 0.701595306 -0.229740009 1.58304179 0.689952075 -0.243206218 1.58319235 0.689225018 -0.242110163 1.58303225 0.702755094 -0.230518132 1.58330488 0.689952075 -0.243206218 1.58319235 0.701595306 -0.229740009 1.58304179 0.696961343 -0.22307156 1.59979308 0.690058827 -0.243246242 1.58345807 0.702755094 -0.230518132 1.58330488 0.682554603 -0.237487644 1.59977961 0.690058827 -0.243246242 1.58345807 0.696961343 -0.22307156 1.59979308 0.696995854 -0.223105729 1.60136294 0.682588041 -0.237536177 1.60126269 0.696961343 -0.22307156 1.59979308 0.682588041 -0.237536177 1.60126269 0.682554603 -0.237487644 1.59977961 0.696961343 -0.22307156 1.59979308 0.682427824 -0.237581864 1.61268461 0.682554603 -0.237487644 1.59977961 0.682588041 -0.237536177 1.60126269 0.696961343 -0.22307156 1.59979308 0.697040915 -0.222968742 1.61273241 0.696995854 -0.223105729 1.60136294 0.691570103 -0.217402518 1.59985328 0.676846027 -0.232079118 1.59999335 0.691482782 -0.217363253 1.61289644 0.676846027 -0.232079118 1.59999335 0.676844954 -0.232061222 1.61291134 0.691482782 -0.217363253 1.61289644 0.680104554 -0.235162437 1.61509991 0.68267411 -0.232547522 1.61503649 0.678388059 -0.233481467 1.61502171 0.678388059 -0.233481467 1.61502171 0.68267411 -0.232547522 1.61503649 0.682354867 -0.229589522 1.61504376 0.682427824 -0.237581864 1.61268461 0.676844954 -0.232061222 1.61291134 0.676846027 -0.232079118 1.59999335 0.682427824 -0.237581864 1.61268461 0.676846027 -0.232079118 1.59999335 0.682146728 -0.237491876 1.59970868 0.680849612 -0.235955954 1.6150322 0.678388059 -0.233481467 1.61502171 0.676844954 -0.232061222 1.61291134 0.680849612 -0.235955954 1.6150322 0.676844954 -0.232061222 1.61291134 0.682427824 -0.237581864 1.61268461 0.691482782 -0.217363253 1.61289644 0.697040915 -0.222968742 1.61273241 0.691570103 -0.217402518 1.59985328 0.691570103 -0.217402518 1.59985328 0.697040915 -0.222968742 1.61273241 0.696967065 -0.222671956 1.59972036 0.692945302 -0.218924701 1.61503267 0.695402622 -0.221362635 1.61504304 0.691482782 -0.217363253 1.61289644 0.691482782 -0.217363253 1.61289644 0.695402622 -0.221362635 1.61504304 0.697040915 -0.222968742 1.61273241 0.696967065 -0.222671956 1.59972036 0.697533727 -0.225239739 1.583336 0.691570103 -0.217402518 1.59985328 0.696967065 -0.222671956 1.59972036 0.702755094 -0.230518132 1.58330488 0.697533727 -0.225239739 1.583336 0.698497891 -0.226203829 1.58331633 0.702755094 -0.230518132 1.58330488 0.701599717 -0.229314521 1.58331168 0.698497891 -0.226203829 1.58331633 0.697533727 -0.225239739 1.583336 0.702755094 -0.230518132 1.58330488 0.701599717 -0.229314521 1.58331168 0.701595128 -0.229680955 1.56892824 0.698425472 -0.226276428 1.56908417 0.701599717 -0.229314521 1.58331168 0.698425472 -0.226276428 1.56908417 0.698497891 -0.226203829 1.58331633 0.685752392 -0.238944203 1.56935382 0.688798428 -0.242109418 1.58330095 0.685687721 -0.239007577 1.58330798 0.689129472 -0.242079586 1.5688343 0.688798428 -0.242109418 1.58330095 0.685752392 -0.238944203 1.56935382 0.690058827 -0.243246242 1.58345807 0.688798428 -0.242109418 1.58330095 0.689952075 -0.243206218 1.58319235 0.684726715 -0.238046348 1.58332646 0.685687721 -0.239007577 1.58330798 0.690058827 -0.243246242 1.58345807 0.690058827 -0.243246242 1.58345807 0.685687721 -0.239007577 1.58330798 0.688798428 -0.242109418 1.58330095 0.684726715 -0.238046348 1.58332646 0.682146728 -0.237491876 1.59970868 0.676846027 -0.232079118 1.59999335 0.690058827 -0.243246242 1.58345807 0.682146728 -0.237491876 1.59970868 0.684726715 -0.238046348 1.58332646 0.680849612 -0.235955954 1.6150322 0.697040915 -0.222968742 1.61273241 0.695402622 -0.221362635 1.61504304 0.682427824 -0.237581864 1.61268461 0.697040915 -0.222968742 1.61273241 0.680849612 -0.235955954 1.6150322 0.678388059 -0.233481467 1.61502171 0.682354867 -0.229589522 1.61504376 0.676844954 -0.232061222 1.61291134 0.689074695 -0.222906709 1.61504722 0.691482782 -0.217363253 1.61289644 0.682354867 -0.229589522 1.61504376 0.682354867 -0.229589522 1.61504376 0.691482782 -0.217363253 1.61289644 0.676844954 -0.232061222 1.61291134 0.689074695 -0.222906709 1.61504722 0.692945302 -0.218924701 1.61503267 0.691482782 -0.217363253 1.61289644 0.699234843 -0.23200129 1.56529725 0.69573611 -0.228696659 1.56523252 0.697527349 -0.226994023 1.56675267 0.700367868 -0.230849028 1.56622386 0.699234843 -0.23200129 1.56529725 0.697527349 -0.226994023 1.56675267 0.701146245 -0.229775101 1.56758487 0.700367868 -0.230849028 1.56622386 0.697527349 -0.226994023 1.56675267 0.701146245 -0.229775101 1.56758487 0.697527349 -0.226994023 1.56675267 0.698425472 -0.226276428 1.56908417 0.701595128 -0.229680955 1.56892824 0.701146245 -0.229775101 1.56758487 0.698425472 -0.226276428 1.56908417 0.689129472 -0.242079586 1.5688343 0.685752392 -0.238944203 1.56935382 0.68630141 -0.238394141 1.56718242 0.689865947 -0.241308957 1.56679237 0.689129472 -0.242079586 1.5688343 0.68630141 -0.238394141 1.56718242 0.689865947 -0.241308957 1.56679237 0.68630141 -0.238394141 1.56718242 0.687345207 -0.237102762 1.56579006 0.691296816 -0.239619404 1.56518102 0.689865947 -0.241308957 1.56679237 0.687345207 -0.237102762 1.56579006 0.691296816 -0.239619404 1.56518102 0.687345207 -0.237102762 1.56579006 0.688551724 -0.235839337 1.56520557 0.689225018 -0.242110163 1.58303225 0.689952075 -0.243206218 1.58319235 0.688798428 -0.242109418 1.58330095 0.690058827 -0.243246242 1.58345807 0.682554603 -0.237487644 1.59977961 0.682146728 -0.237491876 1.59970868 0.689129472 -0.242079586 1.5688343 0.689225018 -0.242110163 1.58303225 0.688798428 -0.242109418 1.58330095 0.689865947 -0.241308957 1.56679237 0.691296816 -0.239619404 1.56518102 0.691541195 -0.239805847 1.56548095 0.691296816 -0.239619404 1.56518102 0.699234843 -0.23200129 1.56529725 0.691541195 -0.239805847 1.56548095 0.701146245 -0.229775101 1.56758487 0.701595128 -0.229680955 1.56892824 0.700367868 -0.230849028 1.56622386 0.682554603 -0.237487644 1.59977961 0.682427824 -0.237581864 1.61268461 0.682146728 -0.237491876 1.59970868 0.701595306 -0.229740009 1.58304179 0.701595128 -0.229680955 1.56892824 0.701599717 -0.229314521 1.58331168 0.680849612 -0.235955954 1.6150322 0.680104554 -0.235162437 1.61509991 0.678388059 -0.233481467 1.61502171 0.702755094 -0.230518132 1.58330488 0.701595306 -0.229740009 1.58304179 0.701599717 -0.229314521 1.58331168 0.696961343 -0.22307156 1.59979308 0.702755094 -0.230518132 1.58330488 0.696967065 -0.222671956 1.59972036 0.676846027 -0.232079118 1.59999335 0.684764028 -0.237726569 1.58312511 0.684726715 -0.238046348 1.58332646 0.696967065 -0.222671956 1.59972036 0.697040915 -0.222968742 1.61273241 0.696961343 -0.22307156 1.59979308 0.684726715 -0.238046348 1.58332646 0.685692728 -0.238574445 1.5830307 0.685687721 -0.239007577 1.58330798 0.684764028 -0.237726569 1.58312511 0.685692728 -0.238574445 1.5830307 0.684726715 -0.238046348 1.58332646 0.695402622 -0.221362635 1.61504304 0.692945302 -0.218924701 1.61503267 0.694593489 -0.220625028 1.61512232 0.685692728 -0.238574445 1.5830307 0.685848176 -0.238423601 1.56850147 0.685752392 -0.238944203 1.56935382 0.685692728 -0.238574445 1.5830307 0.685752392 -0.238944203 1.56935382 0.685687721 -0.239007577 1.58330798 0.68630141 -0.238394141 1.56718242 0.685752392 -0.238944203 1.56935382 0.685848176 -0.238423601 1.56850147 0.68630141 -0.238394141 1.56718242 0.685848176 -0.238423601 1.56850147 0.687345207 -0.237102762 1.56579006 0.698425472 -0.226276428 1.56908417 0.697527349 -0.226994023 1.56675267 0.698006809 -0.226266026 1.56921196 0.698006809 -0.226266026 1.56921196 0.698063672 -0.226203293 1.58303964 0.698497891 -0.226203829 1.58331633 0.698006809 -0.226266026 1.56921196 0.698497891 -0.226203829 1.58331633 0.698425472 -0.226276428 1.56908417 0.697224915 -0.225288779 1.58311832 0.691570103 -0.217402518 1.59985328 0.697533727 -0.225239739 1.583336 0.698063672 -0.226203293 1.58303964 0.697533727 -0.225239739 1.583336 0.698497891 -0.226203829 1.58331633 0.698063672 -0.226203293 1.58303964 0.697224915 -0.225288779 1.58311832 0.697533727 -0.225239739 1.583336 0.693032265 -0.238299429 1.57324362 0.693020761 -0.233523369 1.57404649 0.693168581 -0.238155067 1.57526767 0.694035351 -0.237291276 1.57684708 0.693168581 -0.238155067 1.57526767 0.693020761 -0.233523369 1.57404649 0.697572768 -0.233749017 1.57555234 0.693020761 -0.233523369 1.57404649 0.697856426 -0.233466938 1.57358837 0.697572768 -0.233749017 1.57555234 0.696794271 -0.234538883 1.57688689 0.693020761 -0.233523369 1.57404649 0.696794271 -0.234538883 1.57688689 0.695299268 -0.236011744 1.57753098 0.693020761 -0.233523369 1.57404649 0.695299268 -0.236011744 1.57753098 0.694035351 -0.237291276 1.57684708 0.693020761 -0.233523369 1.57404649 0.689952075 -0.243206218 1.58319235 0.702755094 -0.230518132 1.58330488 0.690058827 -0.243246242 1.58345807 0.696622312 -0.223260924 1.60793567 0.695994437 -0.223840803 1.60954523 0.694568038 -0.221198559 1.60742807 0.694568038 -0.221198559 1.60742807 0.695994437 -0.223840803 1.60954523 0.693543613 -0.222221613 1.61006367 0.691329539 -0.224439308 1.60332358 0.693357527 -0.226221278 1.60328913 0.692561388 -0.223207474 1.6033994 0.693357527 -0.226221278 1.60328913 0.694890499 -0.22469683 1.60358381 0.692561388 -0.223207474 1.6033994 0.695994437 -0.223840803 1.60954523 0.695113659 -0.224470317 1.61030018 0.693543613 -0.222221613 1.61006367 0.692561388 -0.223207474 1.6033994 0.694890499 -0.22469683 1.60358381 0.693939388 -0.221828818 1.60455573 0.693543613 -0.222221613 1.61006367 0.693880618 -0.225693837 1.61083484 0.691858351 -0.223906398 1.61083269 0.695113659 -0.224470317 1.61030018 0.693880618 -0.225693837 1.61083484 0.693543613 -0.222221613 1.61006367 0.694890499 -0.22469683 1.60358381 0.695900559 -0.223686695 1.60476911 0.693939388 -0.221828818 1.60455573 0.695900559 -0.223686695 1.60476911 0.696392715 -0.223186716 1.60630012 0.693939388 -0.221828818 1.60455573 0.693939388 -0.221828818 1.60455573 0.696392715 -0.223186716 1.60630012 0.694568038 -0.221198559 1.60742807 0.696392715 -0.223186716 1.60630012 0.696622312 -0.223260924 1.60793567 0.694568038 -0.221198559 1.60742807 0.694890499 -0.22469683 1.60358381 0.695514381 -0.224496424 1.60355389 0.695900559 -0.223686695 1.60476911 0.695514381 -0.224496424 1.60355389 0.696673632 -0.223335832 1.60546732 0.695900559 -0.223686695 1.60476911 0.691054046 -0.228529364 1.60724938 0.69109422 -0.228912458 1.60615981 0.691481411 -0.228105128 1.60510397 0.695900559 -0.223686695 1.60476911 0.696673632 -0.223335832 1.60546732 0.696392715 -0.223186716 1.60630012 0.691481411 -0.228105128 1.60510397 0.692183316 -0.227827564 1.60384214 0.6921857 -0.227401182 1.60400689 0.69109422 -0.228912458 1.60615981 0.692183316 -0.227827564 1.60384214 0.691481411 -0.228105128 1.60510397 0.696673632 -0.223335832 1.60546732 0.696622312 -0.223260924 1.60793567 0.696392715 -0.223186716 1.60630012 0.6921857 -0.227401182 1.60400689 0.692183316 -0.227827564 1.60384214 0.693357527 -0.226221278 1.60328913 0.692183316 -0.227827564 1.60384214 0.693743408 -0.226267219 1.60292923 0.693357527 -0.226221278 1.60328913 0.693357527 -0.226221278 1.60328913 0.693743408 -0.226267219 1.60292923 0.694890499 -0.22469683 1.60358381 0.693743408 -0.226267219 1.60292923 0.695514381 -0.224496424 1.60355389 0.694890499 -0.22469683 1.60358381 0.69499898 -0.225007847 1.61088657 0.692183316 -0.227827564 1.60384214 0.693130195 -0.226875469 1.6109966 0.693130195 -0.226875469 1.6109966 0.692183316 -0.227827564 1.60384214 0.691529095 -0.228477821 1.60927856 0.693743408 -0.226267219 1.60292923 0.692183316 -0.227827564 1.60384214 0.69499898 -0.225007847 1.61088657 0.691529095 -0.228477821 1.60927856 0.692183316 -0.227827564 1.60384214 0.69109422 -0.228912458 1.60615981 0.696673632 -0.223335832 1.60546732 0.695514381 -0.224496424 1.60355389 0.696622312 -0.223260924 1.60793567 0.695514381 -0.224496424 1.60355389 0.693743408 -0.226267219 1.60292923 0.696622312 -0.223260924 1.60793567 0.696622312 -0.223260924 1.60793567 0.693743408 -0.226267219 1.60292923 0.695994437 -0.223840803 1.60954523 0.695994437 -0.223840803 1.60954523 0.693743408 -0.226267219 1.60292923 0.69499898 -0.225007847 1.61088657 0.692527652 -0.227062792 1.61039376 0.691529095 -0.228477821 1.60927856 0.691640079 -0.227944508 1.60931408 0.693130195 -0.226875469 1.6109966 0.691529095 -0.228477821 1.60927856 0.692527652 -0.227062792 1.61039376 0.691640079 -0.227944508 1.60931408 0.691529095 -0.228477821 1.60927856 0.691054046 -0.228529364 1.60724938 0.691529095 -0.228477821 1.60927856 0.69109422 -0.228912458 1.60615981 0.691054046 -0.228529364 1.60724938 0.695994437 -0.223840803 1.60954523 0.69499898 -0.225007847 1.61088657 0.695113659 -0.224470317 1.61030018 0.695113659 -0.224470317 1.61030018 0.69499898 -0.225007847 1.61088657 0.693880618 -0.225693837 1.61083484 0.69499898 -0.225007847 1.61088657 0.693130195 -0.226875469 1.6109966 0.693880618 -0.225693837 1.61083484 0.693880618 -0.225693837 1.61083484 0.693130195 -0.226875469 1.6109966 0.692527652 -0.227062792 1.61039376 0.691054046 -0.228529364 1.60724938 0.691481411 -0.228105128 1.60510397 0.689785421 -0.225982696 1.60455263 0.691481411 -0.228105128 1.60510397 0.6921857 -0.227401182 1.60400689 0.689785421 -0.225982696 1.60455263 0.691858351 -0.223906398 1.61083269 0.692527652 -0.227062792 1.61039376 0.690174043 -0.225591034 1.61006117 0.693880618 -0.225693837 1.61083484 0.692527652 -0.227062792 1.61039376 0.691858351 -0.223906398 1.61083269 0.689785421 -0.225982696 1.60455263 0.6921857 -0.227401182 1.60400689 0.691329539 -0.224439308 1.60332358 0.6921857 -0.227401182 1.60400689 0.693357527 -0.226221278 1.60328913 0.691329539 -0.224439308 1.60332358 0.692527652 -0.227062792 1.61039376 0.691640079 -0.227944508 1.60931408 0.690174043 -0.225591034 1.61006117 0.690174043 -0.225591034 1.61006117 0.691640079 -0.227944508 1.60931408 0.689152896 -0.226613536 1.60742402 0.691640079 -0.227944508 1.60931408 0.691054046 -0.228529364 1.60724938 0.689152896 -0.226613536 1.60742402 0.689152896 -0.226613536 1.60742402 0.691054046 -0.228529364 1.60724938 0.689785421 -0.225982696 1.60455263 0.689785421 -0.225982696 1.60455263 0.691329539 -0.224439308 1.60332358 0.692561388 -0.223207474 1.6033994 0.689785421 -0.225982696 1.60455263 0.692561388 -0.223207474 1.6033994 0.693939388 -0.221828818 1.60455573 0.689785421 -0.225982696 1.60455263 0.693939388 -0.221828818 1.60455573 0.694568038 -0.221198559 1.60742807 0.690174043 -0.225591034 1.61006117 0.689785421 -0.225982696 1.60455263 0.694568038 -0.221198559 1.60742807 0.690174043 -0.225591034 1.61006117 0.694568038 -0.221198559 1.60742807 0.693543613 -0.222221613 1.61006367 0.690174043 -0.225591034 1.61006117 0.689152896 -0.226613536 1.60742402 0.689785421 -0.225982696 1.60455263 0.690174043 -0.225591034 1.61006117 0.693543613 -0.222221613 1.61006367 0.691858351 -0.223906398 1.61083269 0.686082661 -0.229683667 1.60742164 0.68790251 -0.231929749 1.6087631 0.685058177 -0.230706722 1.61005735 0.682844162 -0.232924417 1.60331726 0.68487215 -0.234706342 1.60328269 0.684076011 -0.231692582 1.60339296 0.68487215 -0.234706342 1.60328269 0.686405182 -0.233181894 1.60357749 0.684076011 -0.231692582 1.60339296 0.68790251 -0.231929749 1.6087631 0.686628282 -0.232955441 1.61029387 0.685058177 -0.230706722 1.61005735 0.684076011 -0.231692582 1.60339296 0.686405182 -0.233181894 1.60357749 0.685454011 -0.230313972 1.60454941 0.685058177 -0.230706722 1.61005735 0.685395241 -0.23417896 1.61082852 0.683372915 -0.232391506 1.61082625 0.686628282 -0.232955441 1.61029387 0.685395241 -0.23417896 1.61082852 0.685058177 -0.230706722 1.61005735 0.686405182 -0.233181894 1.60357749 0.687415123 -0.232171819 1.60476267 0.685454011 -0.230313972 1.60454941 0.687415123 -0.232171819 1.60476267 0.688079834 -0.231661558 1.60655534 0.685454011 -0.230313972 1.60454941 0.685454011 -0.230313972 1.60454941 0.688079834 -0.231661558 1.60655534 0.686082661 -0.229683667 1.60742164 0.688079834 -0.231661558 1.60655534 0.68790251 -0.231929749 1.6087631 0.686082661 -0.229683667 1.60742164 0.686405182 -0.233181894 1.60357749 0.687775314 -0.232233152 1.60439312 0.687415123 -0.232171819 1.60476267 0.682690382 -0.237316981 1.60816944 0.682779074 -0.237230167 1.6055913 0.682568669 -0.237014487 1.60724294 0.682568669 -0.237014487 1.60724294 0.682779074 -0.237230167 1.6055913 0.682996094 -0.236590192 1.60509753 0.687415123 -0.232171819 1.60476267 0.687775314 -0.232233152 1.60439312 0.688079834 -0.231661558 1.60655534 0.682779074 -0.237230167 1.6055913 0.683700323 -0.23605521 1.60398376 0.682996094 -0.236590192 1.60509753 0.683700323 -0.23605521 1.60398376 0.685545027 -0.234463796 1.60285926 0.68487215 -0.234706342 1.60328269 0.68487215 -0.234706342 1.60328269 0.685545027 -0.234463796 1.60285926 0.686405182 -0.233181894 1.60357749 0.685545027 -0.234463796 1.60285926 0.687775314 -0.232233152 1.60439312 0.686405182 -0.233181894 1.60357749 0.68372941 -0.236277193 1.61029398 0.682779074 -0.237230167 1.6055913 0.682690382 -0.237316981 1.60816944 0.685545027 -0.234463796 1.60285926 0.682779074 -0.237230167 1.6055913 0.68372941 -0.236277193 1.61029398 0.685545027 -0.234463796 1.60285926 0.683700323 -0.23605521 1.60398376 0.682779074 -0.237230167 1.6055913 0.68790251 -0.231929749 1.6087631 0.687775314 -0.232233152 1.60439312 0.686789215 -0.233215541 1.61075902 0.686789215 -0.233215541 1.61075902 0.687775314 -0.232233152 1.60439312 0.685070872 -0.234935924 1.61106884 0.685070872 -0.234935924 1.61106884 0.685545027 -0.234463796 1.60285926 0.68372941 -0.236277193 1.61029398 0.687775314 -0.232233152 1.60439312 0.685545027 -0.234463796 1.60285926 0.685070872 -0.234935924 1.61106884 0.688079834 -0.231661558 1.60655534 0.687775314 -0.232233152 1.60439312 0.68790251 -0.231929749 1.6087631 0.685070872 -0.234935924 1.61106884 0.68372941 -0.236277193 1.61029398 0.684042275 -0.2355479 1.61038733 0.684042275 -0.2355479 1.61038733 0.68372941 -0.236277193 1.61029398 0.683154702 -0.236429617 1.60930765 0.68372941 -0.236277193 1.61029398 0.682690382 -0.237316981 1.60816944 0.683154702 -0.236429617 1.60930765 0.683154702 -0.236429617 1.60930765 0.682690382 -0.237316981 1.60816944 0.682568669 -0.237014487 1.60724294 0.68790251 -0.231929749 1.6087631 0.686789215 -0.233215541 1.61075902 0.686628282 -0.232955441 1.61029387 0.686628282 -0.232955441 1.61029387 0.686789215 -0.233215541 1.61075902 0.685395241 -0.23417896 1.61082852 0.686789215 -0.233215541 1.61075902 0.685070872 -0.234935924 1.61106884 0.685395241 -0.23417896 1.61082852 0.685395241 -0.23417896 1.61082852 0.685070872 -0.234935924 1.61106884 0.684042275 -0.2355479 1.61038733 0.682568669 -0.237014487 1.60724294 0.682996094 -0.236590192 1.60509753 0.681300044 -0.234467804 1.60454631 0.682996094 -0.236590192 1.60509753 0.683700323 -0.23605521 1.60398376 0.681300044 -0.234467804 1.60454631 0.683372915 -0.232391506 1.61082625 0.684042275 -0.2355479 1.61038733 0.681688666 -0.234076142 1.61005473 0.685395241 -0.23417896 1.61082852 0.684042275 -0.2355479 1.61038733 0.683372915 -0.232391506 1.61082625 0.681300044 -0.234467804 1.60454631 0.683700323 -0.23605521 1.60398376 0.682844162 -0.232924417 1.60331726 0.683700323 -0.23605521 1.60398376 0.68487215 -0.234706342 1.60328269 0.682844162 -0.232924417 1.60331726 0.684042275 -0.2355479 1.61038733 0.683154702 -0.236429617 1.60930765 0.681688666 -0.234076142 1.61005473 0.681688666 -0.234076142 1.61005473 0.683154702 -0.236429617 1.60930765 0.680667579 -0.2350986 1.60741758 0.683154702 -0.236429617 1.60930765 0.682568669 -0.237014487 1.60724294 0.680667579 -0.2350986 1.60741758 0.680667579 -0.2350986 1.60741758 0.682568669 -0.237014487 1.60724294 0.681300044 -0.234467804 1.60454631 0.685058177 -0.230706722 1.61005735 0.685454011 -0.230313972 1.60454941 0.686082661 -0.229683667 1.60742164 0.681688666 -0.234076142 1.61005473 0.682844162 -0.232924417 1.60331726 0.684076011 -0.231692582 1.60339296 0.681688666 -0.234076142 1.61005473 0.681300044 -0.234467804 1.60454631 0.682844162 -0.232924417 1.60331726 0.681688666 -0.234076142 1.61005473 0.680667579 -0.2350986 1.60741758 0.681300044 -0.234467804 1.60454631 0.681688666 -0.234076142 1.61005473 0.684076011 -0.231692582 1.60339296 0.683372915 -0.232391506 1.61082625 0.683372915 -0.232391506 1.61082625 0.684076011 -0.231692582 1.60339296 0.685454011 -0.230313972 1.60454941 0.683372915 -0.232391506 1.61082625 0.685454011 -0.230313972 1.60454941 0.685058177 -0.230706722 1.61005735 </float_array>
          <technique_common>
            <accessor count="1086" offset="0" source="#mesh_0-positions-array" stride="3">
              <param name="X" type="float" />
              <param name="Y" type="float" />
              <param name="Z" type="float" />
            </accessor>
          </technique_common>
        </source>
        <vertices id="mesh_0-vertices">
          <input semantic="POSITION" source="#mesh_0-positions" />
        </vertices>
        <polylist count="362" material="defaultMaterial">
          <input offset="0" semantic="VERTEX" source="#mesh_0-vertices" />
          <vcount>3 3 3 3 3 3 3 3 3 3 3 3 3 3 3 3 3 3 3 3 3 3 3 3 3 3 3 3 3 3 3 3 3 3 3 3 3 3 3 3 3 3 3 3 3 3 3 3 3 3 3 3 3 3 3 3 3 3 3 3 3 3 3 3 3 3 3 3 3 3 3 3 3 3 3 3 3 3 3 3 3 3 3 3 3 3 3 3 3 3 3 3 3 3 3 3 3 3 3 3 3 3 3 3 3 3 3 3 3 3 3 3 3 3 3 3 3 3 3 3 3 3 3 3 3 3 3 3 3 3 3 3 3 3 3 3 3 3 3 3 3 3 3 3 3 3 3 3 3 3 3 3 3 3 3 3 3 3 3 3 3 3 3 3 3 3 3 3 3 3 3 3 3 3 3 3 3 3 3 3 3 3 3 3 3 3 3 3 3 3 3 3 3 3 3 3 3 3 3 3 3 3 3 3 3 3 3 3 3 3 3 3 3 3 3 3 3 3 3 3 3 3 3 3 3 3 3 3 3 3 3 3 3 3 3 3 3 3 3 3 3 3 3 3 3 3 3 3 3 3 3 3 3 3 3 3 3 3 3 3 3 3 3 3 3 3 3 3 3 3 3 3 3 3 3 3 3 3 3 3 3 3 3 3 3 3 3 3 3 3 3 3 3 3 3 3 3 3 3 3 3 3 3 3 3 3 3 3 3 3 3 3 3 3 3 3 3 3 3 3 3 3 3 3 3 3 3 3 3 3 3 3 3 3 3 3 3 3 3 3 3 3 3 3 3 3 3 3 3 3 3 3 3 3 3 3 3 3 3 3 3 3 </vcount>
          <p>0 1 2 3 4 5 6 7 8 9 10 11 12 13 14 15 16 17 18 19 20 21 22 23 24 25 26 27 28 29 30 31 32 33 34 35 36 37 38 39 40 41 42 43 44 45 46 47 48 49 50 51 52 53 54 55 56 57 58 59 60 61 62 63 64 65 66 67 68 69 70 71 72 73 74 75 76 77 78 79 80 81 82 83 84 85 86 87 88 89 90 91 92 93 94 95 96 97 98 99 100 101 102 103 104 105 106 107 108 109 110 111 112 113 114 115 116 117 118 119 120 121 122 123 124 125 126 127 128 129 130 131 132 133 134 135 136 137 138 139 140 141 142 143 144 145 146 147 148 149 150 151 152 153 154 155 156 157 158 159 160 161 162 163 164 165 166 167 168 169 170 171 172 173 174 175 176 177 178 179 180 181 182 183 184 185 186 187 188 189 190 191 192 193 194 195 196 197 198 199 200 201 202 203 204 205 206 207 208 209 210 211 212 213 214 215 216 217 218 219 220 221 222 223 224 225 226 227 228 229 230 231 232 233 234 235 236 237 238 239 240 241 242 243 244 245 246 247 248 249 250 251 252 253 254 255 256 257 258 259 260 261 262 263 264 265 266 267 268 269 270 271 272 273 274 275 276 277 278 279 280 281 282 283 284 285 286 287 288 289 290 291 292 293 294 295 296 297 298 299 300 301 302 303 304 305 306 307 308 309 310 311 312 313 314 315 316 317 318 319 320 321 322 323 324 325 326 327 328 329 330 331 332 333 334 335 336 337 338 339 340 341 342 343 344 345 346 347 348 349 350 351 352 353 354 355 356 357 358 359 360 361 362 363 364 365 366 367 368 369 370 371 372 373 374 375 376 377 378 379 380 381 382 383 384 385 386 387 388 389 390 391 392 393 394 395 396 397 398 399 400 401 402 403 404 405 406 407 408 409 410 411 412 413 414 415 416 417 418 419 420 421 422 423 424 425 426 427 428 429 430 431 432 433 434 435 436 437 438 439 440 441 442 443 444 445 446 447 448 449 450 451 452 453 454 455 456 457 458 459 460 461 462 463 464 465 466 467 468 469 470 471 472 473 474 475 476 477 478 479 480 481 482 483 484 485 486 487 488 489 490 491 492 493 494 495 496 497 498 499 500 501 502 503 504 505 506 507 508 509 510 511 512 513 514 515 516 517 518 519 520 521 522 523 524 525 526 527 528 529 530 531 532 533 534 535 536 537 538 539 540 541 542 543 544 545 546 547 548 549 550 551 552 553 554 555 556 557 558 559 560 561 562 563 564 565 566 567 568 569 570 571 572 573 574 575 576 577 578 579 580 581 582 583 584 585 586 587 588 589 590 591 592 593 594 595 596 597 598 599 600 601 602 603 604 605 606 607 608 609 610 611 612 613 614 615 616 617 618 619 620 621 622 623 624 625 626 627 628 629 630 631 632 633 634 635 636 637 638 639 640 641 642 643 644 645 646 647 648 649 650 651 652 653 654 655 656 657 658 659 660 661 662 663 664 665 666 667 668 669 670 671 672 673 674 675 676 677 678 679 680 681 682 683 684 685 686 687 688 689 690 691 692 693 694 695 696 697 698 699 700 701 702 703 704 705 706 707 708 709 710 711 712 713 714 715 716 717 718 719 720 721 722 723 724 725 726 727 728 729 730 731 732 733 734 735 736 737 738 739 740 741 742 743 744 745 746 747 748 749 750 751 752 753 754 755 756 757 758 759 760 761 762 763 764 765 766 767 768 769 770 771 772 773 774 775 776 777 778 779 780 781 782 783 784 785 786 787 788 789 790 791 792 793 794 795 796 797 798 799 800 801 802 803 804 805 806 807 808 809 810 811 812 813 814 815 816 817 818 819 820 821 822 823 824 825 826 827 828 829 830 831 832 833 834 835 836 837 838 839 840 841 842 843 844 845 846 847 848 849 850 851 852 853 854 855 856 857 858 859 860 861 862 863 864 865 866 867 868 869 870 871 872 873 874 875 876 877 878 879 880 881 882 883 884 885 886 887 888 889 890 891 892 893 894 895 896 897 898 899 900 901 902 903 904 905 906 907 908 909 910 911 912 913 914 915 916 917 918 919 920 921 922 923 924 925 926 927 928 929 930 931 932 933 934 935 936 937 938 939 940 941 942 943 944 945 946 947 948 949 950 951 952 953 954 955 956 957 958 959 960 961 962 963 964 965 966 967 968 969 970 971 972 973 974 975 976 977 978 979 980 981 982 983 984 985 986 987 988 989 990 991 992 993 994 995 996 997 998 999 1000 1001 1002 1003 1004 1005 1006 1007 1008 1009 1010 1011 1012 1013 1014 1015 1016 1017 1018 1019 1020 1021 1022 1023 1024 1025 1026 1027 1028 1029 1030 1031 1032 1033 1034 1035 1036 1037 1038 1039 1040 1041 1042 1043 1044 1045 1046 1047 1048 1049 1050 1051 1052 1053 1054 1055 1056 1057 1058 1059 1060 1061 1062 1063 1064 1065 1066 1067 1068 1069 1070 1071 1072 1073 1074 1075 1076 1077 1078 1079 1080 1081 1082 1083 1084 1085 </p>
        </polylist>
      </mesh>
    </geometry>
  </library_geometries>
  <library_controllers>
  </library_controllers>
  <library_visual_scenes>
    <visual_scene id="Scene" name="Scene">
      <node id="node" name="" type="NODE">
        <matrix sid="matrix">1 0 0 0 0 1 0 0 0 0 1 0 0 0 0 1</matrix>
        <instance_geometry url="#mesh_0">
          <bind_material>
            <technique_common>
              <instance_material symbol="defaultMaterial" target="#material_0">
              </instance_material>
            </technique_common>
          </bind_material>
        </instance_geometry>
      </node>
    </visual_scene>
  </library_visual_scenes>
  <scene>
    <instance_visual_scene url="#Scene" />
  </scene>
</COLLADA>
