<?xml version="1.0" encoding="UTF-8" standalone="no" ?>
<COLLADA xmlns="http://www.collada.org/2005/11/COLLADASchema" version="1.4.1">
  <asset>
    <contributor>
      <author>Assimp</author>
      <authoring_tool>Assimp Exporter</authoring_tool>
    </contributor>
    <created>2026-04-22T16:09:44</created>
    <modified>2026-04-22T16:09:44</modified>
    <unit name="meter" meter="1" />
    <up_axis>Y_UP</up_axis>
  </asset>
  <library_images>
  </library_images>
  <library_effects>
    <effect id="material_0-fx" name="">
      <profile_COMMON>
        <technique sid="standard">
          <phong>
            <emission>
              <color sid="emission">0   0   0   1.29948342</color>
            </emission>
            <ambient>
              <color sid="ambient">0.100000001   0.100000001   0.100000001   -1.2913686</color>
            </ambient>
            <diffuse>
              <color sid="diffuse">0.100000001   0.100000001   0.100000001   -1.2913686</color>
            </diffuse>
            <specular>
              <color sid="specular">0.300000012   0.300000012   0.300000012   -0.421389788</color>
            </specular>
          </phong>
        </technique>
      </profile_COMMON>
    </effect>
  </library_effects>
  <library_materials>
    <material id="material_0" name="">
      <instance_effect url="#material_0-fx"/>
    </material>
  </library_materials>
  <library_geometries>
    <geometry id="mesh_0" name="" >
      <mesh>
        <source id="mesh_0-positions" name="mesh_0-positions">
          <float_array id="mesh_0-positions-array" count="2358"> -0.151710674 0.0271317456 1.57506013 -0.146550804 0.0216523223 1.57420564 -0.152141884 0.0266219079 1.57270825 -0.146550804 0.0216523223 1.57420564 -0.146266654 0.0219900757 1.57240713 -0.152141884 0.0266219079 1.57270825 -0.146266654 0.0219900757 1.57240713 -0.145335019 0.0231048763 1.57185125 -0.152141884 0.0266219079 1.57270825 -0.152141884 0.0266219079 1.57270825 -0.145335019 0.0231048763 1.57185125 -0.150607973 0.0284497906 1.57218814 -0.145530686 0.0228667017 1.57538342 -0.146550804 0.0216523223 1.57420564 -0.151710674 0.0271317456 1.57506013 -0.146741912 0.0213596672 1.57335091 -0.145670027 0.0203729812 1.57319796 -0.146345541 0.0218367372 1.57206726 -0.145670027 0.0203729812 1.57319796 -0.144978374 0.021204114 1.5716362 -0.146345541 0.0218367372 1.57206726 -0.144931808 0.023509806 1.57562685 -0.144741163 0.0214636009 1.57573926 -0.145845652 0.0224238019 1.5756017 -0.146345541 0.0218367372 1.57206726 -0.144978374 0.021204114 1.5716362 -0.145411283 0.0229494832 1.57150018 -0.145845652 0.0224238019 1.5756017 -0.144741163 0.0214636009 1.57573926 -0.146563247 0.0215605237 1.57474029 -0.144741163 0.0214636009 1.57573926 -0.145546168 0.0205137804 1.57454121 -0.146563247 0.0215605237 1.57474029 -0.146563247 0.0215605237 1.57474029 -0.145546168 0.0205137804 1.57454121 -0.146741912 0.0213596672 1.57335091 -0.145546168 0.0205137804 1.57454121 -0.145670027 0.0203729812 1.57319796 -0.146741912 0.0213596672 1.57335091 -0.147251263 0.0207444318 1.57462585 -0.147309422 0.0206750296 1.57291758 -0.146214336 0.0197122078 1.57334065 -0.147251263 0.0207444318 1.57462585 -0.146214336 0.0197122078 1.57334065 -0.145853743 0.0201359596 1.57535017 -0.146553814 0.0215832591 1.57106817 -0.144048363 0.0222888365 1.57064724 -0.145475999 0.0205756817 1.57120681 -0.146553814 0.0215832591 1.57106817 -0.145067334 0.0233542714 1.57058632 -0.144048363 0.0222888365 1.57064724 -0.146541685 0.0215896554 1.57612276 -0.147251263 0.0207444318 1.57462585 -0.145853743 0.0201359596 1.57535017 -0.146541685 0.0215896554 1.57612276 -0.145853743 0.0201359596 1.57535017 -0.144906193 0.0212811083 1.57644939 -0.145381421 0.0229659975 1.57667482 -0.146541685 0.0215896554 1.57612276 -0.144906193 0.0212811083 1.57644939 -0.145381421 0.0229659975 1.57667482 -0.144906193 0.0212811083 1.57644939 -0.143615887 0.0228036512 1.57646489 -0.147309422 0.0206750296 1.57291758 -0.146553814 0.0215832591 1.57106817 -0.145475999 0.0205756817 1.57120681 -0.147309422 0.0206750296 1.57291758 -0.145475999 0.0205756817 1.57120681 -0.146214336 0.0197122078 1.57334065 -0.151237786 0.0308070164 1.57136071 -0.149537414 0.0327388123 1.56490326 -0.15120694 0.0307793561 1.56487715 -0.151237786 0.0308070164 1.57136071 -0.14810282 0.0344500355 1.56584871 -0.149537414 0.0327388123 1.56490326 -0.147061899 0.0356686376 1.56829762 -0.14810282 0.0344500355 1.56584871 -0.151237786 0.0308070164 1.57136071 -0.147022277 0.0357469916 1.57134426 -0.147061899 0.0356686376 1.56829762 -0.151237786 0.0308070164 1.57136071 -0.146972001 0.0357282087 1.58235013 -0.147013843 0.035749048 1.57588816 -0.151235327 0.0307921693 1.57587135 -0.146972001 0.0357282087 1.58235013 -0.151235327 0.0307921693 1.57587135 -0.15117979 0.0307837892 1.58237457 -0.154146597 0.0273403563 1.57136583 -0.154123366 0.02730361 1.56488228 -0.156287447 0.0246503875 1.56502831 -0.154146597 0.0273403563 1.57136583 -0.156287447 0.0246503875 1.56502831 -0.157690629 0.023054691 1.56671679 -0.154146597 0.0273403563 1.57136583 -0.157690629 0.023054691 1.56671679 -0.158238143 0.0223536119 1.56869614 -0.154146597 0.0273403563 1.57136583 -0.158238143 0.0223536119 1.56869614 -0.158279747 0.0223293155 1.57136381 -0.15410243 0.0273044612 1.58237886 -0.154121503 0.0273497868 1.57587278 -0.158275127 0.0223306939 1.57591176 -0.15410243 0.0273044612 1.58237886 -0.158275127 0.0223306939 1.57591176 -0.158230036 0.0222851075 1.58237123 -0.145764038 0.0347628631 1.5736146 -0.147061899 0.0356686376 1.56829762 -0.147022277 0.0357469916 1.57134426 -0.145764038 0.0347628631 1.5736146 -0.139824361 0.0297403317 1.56803632 -0.147061899 0.0356686376 1.56829762 -0.139736876 0.0298778694 1.58251703 -0.139824361 0.0297403317 1.56803632 -0.145764038 0.0347628631 1.5736146 -0.147013843 0.035749048 1.57588816 -0.139736876 0.0298778694 1.58251703 -0.145764038 0.0347628631 1.5736146 -0.146972001 0.0357282087 1.58235013 -0.139736876 0.0298778694 1.58251703 -0.147013843 0.035749048 1.57588816 -0.157089904 0.0212738104 1.57363439 -0.158279747 0.0223293155 1.57136381 -0.158238143 0.0223536119 1.56869614 -0.151191771 0.0162013806 1.56872773 -0.157089904 0.0212738104 1.57363439 -0.158238143 0.0223536119 1.56869614 -0.15121761 0.0161941499 1.58253706 -0.158275127 0.0223306939 1.57591176 -0.157089904 0.0212738104 1.57363439 -0.15121761 0.0161941499 1.58253706 -0.158230036 0.0222851075 1.58237123 -0.158275127 0.0223306939 1.57591176 -0.15121761 0.0161941499 1.58253706 -0.157089904 0.0212738104 1.57363439 -0.151191771 0.0162013806 1.56872773 -0.151237786 0.0308070164 1.57136071 -0.15120694 0.0307793561 1.56487715 -0.151443094 0.0280159973 1.56482041 -0.151484475 0.0280635934 1.57362449 -0.151237786 0.0308070164 1.57136071 -0.151443094 0.0280159973 1.56482041 -0.151416451 0.0280193929 1.58242798 -0.15117979 0.0307837892 1.58237457 -0.151235327 0.0307921693 1.57587135 -0.151416451 0.0280193929 1.58242798 -0.151235327 0.0307921693 1.57587135 -0.151484475 0.0280635934 1.57362449 -0.154146597 0.0273403563 1.57136583 -0.151484475 0.0280635934 1.57362449 -0.151443094 0.0280159973 1.56482041 -0.154146597 0.0273403563 1.57136583 -0.151443094 0.0280159973 1.56482041 -0.154123366 0.02730361 1.56488228 -0.151416451 0.0280193929 1.58242798 -0.151484475 0.0280635934 1.57362449 -0.154121503 0.0273497868 1.57587278 -0.15410243 0.0273044612 1.58237886 -0.151416451 0.0280193929 1.58242798 -0.154121503 0.0273497868 1.57587278 -0.15121761 0.0161941499 1.58253706 -0.15410243 0.0273044612 1.58237886 -0.158230036 0.0222851075 1.58237123 -0.151416451 0.0280193929 1.58242798 -0.15410243 0.0273044612 1.58237886 -0.15121761 0.0161941499 1.58253706 -0.139736876 0.0298778694 1.58251703 -0.15117979 0.0307837892 1.58237457 -0.151416451 0.0280193929 1.58242798 -0.139736876 0.0298778694 1.58251703 -0.146972001 0.0357282087 1.58235013 -0.15117979 0.0307837892 1.58237457 -0.139736876 0.0298778694 1.58251703 -0.151416451 0.0280193929 1.58242798 -0.15121761 0.0161941499 1.58253706 -0.151443094 0.0280159973 1.56482041 -0.142433658 0.0266303066 1.56471217 -0.148903295 0.0189138576 1.56480384 -0.151443094 0.0280159973 1.56482041 -0.148903295 0.0189138576 1.56480384 -0.156287447 0.0246503875 1.56502831 -0.151443094 0.0280159973 1.56482041 -0.156287447 0.0246503875 1.56502831 -0.154123366 0.02730361 1.56488228 -0.149537414 0.0327388123 1.56490326 -0.151443094 0.0280159973 1.56482041 -0.15120694 0.0307793561 1.56487715 -0.149537414 0.0327388123 1.56490326 -0.142433658 0.0266303066 1.56471217 -0.151443094 0.0280159973 1.56482041 -0.147251263 0.0207444318 1.57462585 -0.147172451 0.0209155828 1.57668138 -0.147958294 0.0199562293 1.574368 -0.147251263 0.0207444318 1.57462585 -0.146541685 0.0215896554 1.57612276 -0.147172451 0.0209155828 1.57668138 -0.139824361 0.0297403317 1.56803632 -0.140610799 0.0287212711 1.57435834 -0.140609995 0.0287246238 1.57285523 -0.144031107 0.0246573221 1.57023954 -0.143762022 0.0249045752 1.57181597 -0.145067334 0.0233542714 1.57058632 -0.148903295 0.0189138576 1.56480384 -0.150107175 0.0174239613 1.5679363 -0.150521338 0.0169830322 1.56643474 -0.140598491 0.0287281945 1.58110201 -0.139736876 0.0298778694 1.58251703 -0.144932628 0.0235609878 1.58111393 -0.148903295 0.0189138576 1.56480384 -0.148636267 0.0191717353 1.566185 -0.150107175 0.0174239613 1.5679363 -0.140610799 0.0287212711 1.57435834 -0.139736876 0.0298778694 1.58251703 -0.140598491 0.0287281945 1.58110201 -0.139824361 0.0297403317 1.56803632 -0.139736876 0.0298778694 1.58251703 -0.140610799 0.0287212711 1.57435834 -0.139736876 0.0298778694 1.58251703 -0.15121761 0.0161941499 1.58253706 -0.144932628 0.0235609878 1.58111393 -0.144932628 0.0235609878 1.58111393 -0.15121761 0.0161941499 1.58253706 -0.145903662 0.0224047545 1.58111656 -0.150234297 0.0172444247 1.58112395 -0.15121761 0.0161941499 1.58253706 -0.150245711 0.0172388498 1.57437885 -0.150245711 0.0172388498 1.57437885 -0.15121761 0.0161941499 1.58253706 -0.151191771 0.0162013806 1.56872773 -0.150521338 0.0169830322 1.56643474 -0.150107175 0.0174239613 1.5679363 -0.151191771 0.0162013806 1.56872773 -0.144031107 0.0246573221 1.57023954 -0.143222734 0.0256252661 1.57155669 -0.143762022 0.0249045752 1.57181597 -0.141057283 0.0282683168 1.56550682 -0.140702307 0.0286228172 1.56828237 -0.142010152 0.0270792525 1.56625569 -0.150107175 0.0174239613 1.5679363 -0.150244802 0.0172420423 1.57287633 -0.151191771 0.0162013806 1.56872773 -0.148903295 0.0189138576 1.56480384 -0.145923212 0.0224021208 1.56612086 -0.148636267 0.0191717353 1.566185 -0.141057283 0.0282683168 1.56550682 -0.139824361 0.0297403317 1.56803632 -0.140702307 0.0286228172 1.56828237 -0.145381421 0.0229659975 1.57667482 -0.147172451 0.0209155828 1.57668138 -0.146541685 0.0215896554 1.57612276 -0.143222734 0.0256252661 1.57155669 -0.142910972 0.0259899404 1.57287931 -0.143762022 0.0249045752 1.57181597 -0.145381421 0.0229659975 1.57667482 -0.145894378 0.0224247482 1.57753801 -0.147172451 0.0209155828 1.57668138 -0.143762022 0.0249045752 1.57181597 -0.142910972 0.0259899404 1.57287931 -0.143444926 0.0252841003 1.57396114 -0.148903295 0.0189138576 1.56480384 -0.144956604 0.0235535465 1.56612408 -0.145923212 0.0224021208 1.56612086 -0.150244802 0.0172420423 1.57287633 -0.150245711 0.0172388498 1.57437885 -0.151191771 0.0162013806 1.56872773 -0.142910972 0.0259899404 1.57287931 -0.142908692 0.0259899385 1.5743463 -0.143444926 0.0252841003 1.57396114 -0.145381421 0.0229659975 1.57667482 -0.144954547 0.0235478766 1.57753968 -0.145894378 0.0224247482 1.57753801 -0.144059137 0.0245481879 1.57593942 -0.144107252 0.0245633554 1.5770601 -0.145381421 0.0229659975 1.57667482 -0.145381421 0.0229659975 1.57667482 -0.144107252 0.0245633554 1.5770601 -0.144954547 0.0235478766 1.57753968 -0.142908692 0.0259899385 1.5743463 -0.143258333 0.0255704597 1.57579887 -0.143444926 0.0252841003 1.57396114 -0.148903295 0.0189138576 1.56480384 -0.142433658 0.0266303066 1.56471217 -0.144956604 0.0235535465 1.56612408 -0.144956604 0.0235535465 1.56612408 -0.145908311 0.0224216096 1.56969512 -0.145923212 0.0224021208 1.56612086 -0.150244802 0.0172420423 1.57287633 -0.147954002 0.0199790988 1.57288837 -0.150245711 0.0172388498 1.57437885 -0.143444926 0.0252841003 1.57396114 -0.143258333 0.0255704597 1.57579887 -0.144059137 0.0245481879 1.57593942 -0.146761015 0.0214103553 1.57017469 -0.146553814 0.0215832591 1.57106817 -0.147603601 0.0203980096 1.57143581 -0.144059137 0.0245481879 1.57593942 -0.143258333 0.0255704597 1.57579887 -0.144107252 0.0245633554 1.5770601 -0.150234297 0.0172444247 1.58112395 -0.145903662 0.0224047545 1.58111656 -0.15121761 0.0161941499 1.58253706 -0.142910972 0.0259899404 1.57287931 -0.140609995 0.0287246238 1.57285523 -0.142908692 0.0259899385 1.5743463 -0.146553814 0.0215832591 1.57106817 -0.147309422 0.0206750296 1.57291758 -0.147603601 0.0203980096 1.57143581 -0.139824361 0.0297403317 1.56803632 -0.140609995 0.0287246238 1.57285523 -0.140702307 0.0286228172 1.56828237 -0.145908311 0.0224216096 1.56969512 -0.146553814 0.0215832591 1.57106817 -0.146761015 0.0214103553 1.57017469 -0.147603601 0.0203980096 1.57143581 -0.147309422 0.0206750296 1.57291758 -0.147954002 0.0199790988 1.57288837 -0.142433658 0.0266303066 1.56471217 -0.142010152 0.0270792525 1.56625569 -0.144956604 0.0235535465 1.56612408 -0.145908311 0.0224216096 1.56969512 -0.145067334 0.0233542714 1.57058632 -0.146553814 0.0215832591 1.57106817 -0.144954547 0.0235478766 1.57753968 -0.144932628 0.0235609878 1.58111393 -0.145894378 0.0224247482 1.57753801 -0.144956604 0.0235535465 1.56612408 -0.144965649 0.023545716 1.56969333 -0.145908311 0.0224216096 1.56969512 -0.145894378 0.0224247482 1.57753801 -0.144932628 0.0235609878 1.58111393 -0.145903662 0.0224047545 1.58111656 -0.147954002 0.0199790988 1.57288837 -0.147958294 0.0199562293 1.574368 -0.150245711 0.0172388498 1.57437885 -0.147954002 0.0199790988 1.57288837 -0.147309422 0.0206750296 1.57291758 -0.147958294 0.0199562293 1.574368 -0.144965649 0.023545716 1.56969333 -0.145067334 0.0233542714 1.57058632 -0.145908311 0.0224216096 1.56969512 -0.140609995 0.0287246238 1.57285523 -0.140610799 0.0287212711 1.57435834 -0.142908692 0.0259899385 1.5743463 -0.147309422 0.0206750296 1.57291758 -0.147251263 0.0207444318 1.57462585 -0.147958294 0.0199562293 1.574368 -0.141057283 0.0282683168 1.56550682 -0.142010152 0.0270792525 1.56625569 -0.142433658 0.0266303066 1.56471217 -0.144031107 0.0246573221 1.57023954 -0.145067334 0.0233542714 1.57058632 -0.144965649 0.023545716 1.56969333 -0.139824361 0.0297403317 1.56803632 -0.141057283 0.0282683168 1.56550682 -0.14810282 0.0344500355 1.56584871 -0.139824361 0.0297403317 1.56803632 -0.14810282 0.0344500355 1.56584871 -0.147061899 0.0356686376 1.56829762 -0.141057283 0.0282683168 1.56550682 -0.149537414 0.0327388123 1.56490326 -0.14810282 0.0344500355 1.56584871 -0.141057283 0.0282683168 1.56550682 -0.142433658 0.0266303066 1.56471217 -0.149537414 0.0327388123 1.56490326 -0.150521338 0.0169830322 1.56643474 -0.157690629 0.023054691 1.56671679 -0.156287447 0.0246503875 1.56502831 -0.148903295 0.0189138576 1.56480384 -0.150521338 0.0169830322 1.56643474 -0.156287447 0.0246503875 1.56502831 -0.151191771 0.0162013806 1.56872773 -0.158238143 0.0223536119 1.56869614 -0.157690629 0.023054691 1.56671679 -0.150521338 0.0169830322 1.56643474 -0.151191771 0.0162013806 1.56872773 -0.157690629 0.023054691 1.56671679 -0.140610799 0.0287212711 1.57435834 -0.146796271 0.0337128006 1.58094358 -0.146807134 0.0337097347 1.57453597 -0.140598491 0.0287281945 1.58110201 -0.146796271 0.0337128006 1.58094358 -0.140610799 0.0287212711 1.57435834 -0.142908692 0.0259899385 1.5743463 -0.146807134 0.0337097347 1.57453597 -0.148880169 0.0312515944 1.57457888 -0.140610799 0.0287212711 1.57435834 -0.146807134 0.0337097347 1.57453597 -0.142908692 0.0259899385 1.5743463 -0.150928587 0.0287952702 1.57769895 -0.144954547 0.0235478766 1.57753968 -0.144107252 0.0245633554 1.5770601 -0.149806932 0.0301527176 1.57690811 -0.150928587 0.0287952702 1.57769895 -0.144107252 0.0245633554 1.5770601 -0.149806932 0.0301527176 1.57690811 -0.144107252 0.0245633554 1.5770601 -0.143258333 0.0255704597 1.57579887 -0.148880169 0.0312515944 1.57457888 -0.149806932 0.0301527176 1.57690811 -0.143258333 0.0255704597 1.57579887 -0.148880169 0.0312515944 1.57457888 -0.143258333 0.0255704597 1.57579887 -0.142908692 0.0259899385 1.5743463 -0.150920644 0.0287969895 1.58095098 -0.144954547 0.0235478766 1.57753968 -0.150928587 0.0287952702 1.57769895 -0.150920644 0.0287969895 1.58095098 -0.144932628 0.0235609878 1.58111393 -0.144954547 0.0235478766 1.57753968 -0.146796271 0.0337128006 1.58094358 -0.140598491 0.0287281945 1.58110201 -0.150920644 0.0287969895 1.58095098 -0.150920644 0.0287969895 1.58095098 -0.140598491 0.0287281945 1.58110201 -0.144932628 0.0235609878 1.58111393 -0.149806932 0.0301527176 1.57690811 -0.150920644 0.0287969895 1.58095098 -0.150928587 0.0287952702 1.57769895 -0.146796271 0.0337128006 1.58094358 -0.150920644 0.0287969895 1.58095098 -0.149806932 0.0301527176 1.57690811 -0.146807134 0.0337097347 1.57453597 -0.149806932 0.0301527176 1.57690811 -0.148880169 0.0312515944 1.57457888 -0.146807134 0.0337097347 1.57453597 -0.146796271 0.0337128006 1.58094358 -0.149806932 0.0301527176 1.57690811 -0.156222627 0.0224772561 1.58096087 -0.145903662 0.0224047545 1.58111656 -0.150234297 0.0172444247 1.58112395 -0.15209876 0.0273934007 1.58095276 -0.145903662 0.0224047545 1.58111656 -0.156222627 0.0224772561 1.58096087 -0.145894378 0.0224247482 1.57753801 -0.15209876 0.0273934007 1.58095276 -0.152099207 0.0273976382 1.57769883 -0.145903662 0.0224047545 1.58111656 -0.15209876 0.0273934007 1.58095276 -0.145894378 0.0224247482 1.57753801 -0.153490573 0.0257756617 1.57667148 -0.147958294 0.0199562293 1.574368 -0.147172451 0.0209155828 1.57668138 -0.153490573 0.0257756617 1.57667148 -0.154137194 0.0249731671 1.5745393 -0.147958294 0.0199562293 1.574368 -0.152099207 0.0273976382 1.57769883 -0.147172451 0.0209155828 1.57668138 -0.145894378 0.0224247482 1.57753801 -0.152099207 0.0273976382 1.57769883 -0.153490573 0.0257756617 1.57667148 -0.147172451 0.0209155828 1.57668138 -0.147958294 0.0199562293 1.574368 -0.156231388 0.0224764049 1.57455301 -0.150245711 0.0172388498 1.57437885 -0.147958294 0.0199562293 1.574368 -0.154137194 0.0249731671 1.5745393 -0.156231388 0.0224764049 1.57455301 -0.156222627 0.0224772561 1.58096087 -0.150245711 0.0172388498 1.57437885 -0.156231388 0.0224764049 1.57455301 -0.156222627 0.0224772561 1.58096087 -0.150234297 0.0172444247 1.58112395 -0.150245711 0.0172388498 1.57437885 -0.153490573 0.0257756617 1.57667148 -0.15209876 0.0273934007 1.58095276 -0.156222627 0.0224772561 1.58096087 -0.153490573 0.0257756617 1.57667148 -0.156222627 0.0224772561 1.58096087 -0.156231388 0.0224764049 1.57455301 -0.152099207 0.0273976382 1.57769883 -0.15209876 0.0273934007 1.58095276 -0.153490573 0.0257756617 1.57667148 -0.154137194 0.0249731671 1.5745393 -0.153490573 0.0257756617 1.57667148 -0.156231388 0.0224764049 1.57455301 -0.156126186 0.0226287469 1.56819022 -0.150107175 0.0174239613 1.5679363 -0.154810086 0.0241980087 1.56640184 -0.150107175 0.0174239613 1.5679363 -0.148636267 0.0191717353 1.566185 -0.154810086 0.0241980087 1.56640184 -0.156233549 0.0224752184 1.5727129 -0.150107175 0.0174239613 1.5679363 -0.156126186 0.0226287469 1.56819022 -0.156233549 0.0224752184 1.5727129 -0.150244802 0.0172420423 1.57287633 -0.150107175 0.0174239613 1.5679363 -0.156233549 0.0224752184 1.5727129 -0.147954002 0.0199790988 1.57288837 -0.150244802 0.0172420423 1.57287633 -0.154173255 0.0249463748 1.5726701 -0.147954002 0.0199790988 1.57288837 -0.156233549 0.0224752184 1.5727129 -0.152114555 0.0273938943 1.56955004 -0.145908311 0.0224216096 1.56969512 -0.146761015 0.0214103553 1.57017469 -0.15325655 0.0260529183 1.57034063 -0.152114555 0.0273938943 1.56955004 -0.146761015 0.0214103553 1.57017469 -0.15325655 0.0260529183 1.57034063 -0.146761015 0.0214103553 1.57017469 -0.147603601 0.0203980096 1.57143581 -0.154173255 0.0249463748 1.5726701 -0.15325655 0.0260529183 1.57034063 -0.147603601 0.0203980096 1.57143581 -0.154173255 0.0249463748 1.5726701 -0.147603601 0.0203980096 1.57143581 -0.147954002 0.0199790988 1.57288837 -0.145908311 0.0224216096 1.56969512 -0.152119011 0.0273886379 1.56629729 -0.145923212 0.0224021208 1.56612086 -0.145908311 0.0224216096 1.56969512 -0.152114555 0.0273938943 1.56955004 -0.152119011 0.0273886379 1.56629729 -0.148636267 0.0191717353 1.566185 -0.152119011 0.0273886379 1.56629729 -0.154810086 0.0241980087 1.56640184 -0.145923212 0.0224021208 1.56612086 -0.152119011 0.0273886379 1.56629729 -0.148636267 0.0191717353 1.566185 -0.154173255 0.0249463748 1.5726701 -0.156233549 0.0224752184 1.5727129 -0.156126186 0.0226287469 1.56819022 -0.15325655 0.0260529183 1.57034063 -0.154173255 0.0249463748 1.5726701 -0.156126186 0.0226287469 1.56819022 -0.154810086 0.0241980087 1.56640184 -0.15325655 0.0260529183 1.57034063 -0.156126186 0.0226287469 1.56819022 -0.154810086 0.0241980087 1.56640184 -0.152114555 0.0273938943 1.56955004 -0.15325655 0.0260529183 1.57034063 -0.152119011 0.0273886379 1.56629729 -0.152114555 0.0273938943 1.56955004 -0.154810086 0.0241980087 1.56640184 -0.147304013 0.0331727192 1.56744802 -0.140702307 0.0286228172 1.56828237 -0.146833166 0.0336959995 1.56903493 -0.148368716 0.0318669751 1.56635559 -0.142010152 0.0270792525 1.56625569 -0.147304013 0.0331727192 1.56744802 -0.142010152 0.0270792525 1.56625569 -0.140702307 0.0286228172 1.56828237 -0.147304013 0.0331727192 1.56744802 -0.142010152 0.0270792525 1.56625569 -0.150941089 0.0287916269 1.56629658 -0.144956604 0.0235535465 1.56612408 -0.142010152 0.0270792525 1.56625569 -0.148368716 0.0318669751 1.56635559 -0.150941089 0.0287916269 1.56629658 -0.150941089 0.0287916269 1.56629658 -0.144965649 0.023545716 1.56969333 -0.144956604 0.0235535465 1.56612408 -0.150916085 0.0288325585 1.56950831 -0.144965649 0.023545716 1.56969333 -0.150941089 0.0287916269 1.56629658 -0.14890328 0.0312165841 1.57270658 -0.142910972 0.0259899404 1.57287931 -0.143222734 0.0256252661 1.57155669 -0.149423048 0.03062075 1.57094526 -0.14890328 0.0312165841 1.57270658 -0.143222734 0.0256252661 1.57155669 -0.149423048 0.03062075 1.57094526 -0.143222734 0.0256252661 1.57155669 -0.144031107 0.0246573221 1.57023954 -0.150916085 0.0288325585 1.56950831 -0.149423048 0.03062075 1.57094526 -0.144031107 0.0246573221 1.57023954 -0.150916085 0.0288325585 1.56950831 -0.144031107 0.0246573221 1.57023954 -0.144965649 0.023545716 1.56969333 -0.146808013 0.0337094218 1.57269621 -0.142910972 0.0259899404 1.57287931 -0.14890328 0.0312165841 1.57270658 -0.146808013 0.0337094218 1.57269621 -0.140609995 0.0287246238 1.57285523 -0.142910972 0.0259899404 1.57287931 -0.140702307 0.0286228172 1.56828237 -0.146808013 0.0337094218 1.57269621 -0.146833166 0.0336959995 1.56903493 -0.140609995 0.0287246238 1.57285523 -0.146808013 0.0337094218 1.57269621 -0.140702307 0.0286228172 1.56828237 -0.148368716 0.0318669751 1.56635559 -0.149423048 0.03062075 1.57094526 -0.150916085 0.0288325585 1.56950831 -0.148368716 0.0318669751 1.56635559 -0.150916085 0.0288325585 1.56950831 -0.150941089 0.0287916269 1.56629658 -0.146833166 0.0336959995 1.56903493 -0.14890328 0.0312165841 1.57270658 -0.149423048 0.03062075 1.57094526 -0.146833166 0.0336959995 1.56903493 -0.146808013 0.0337094218 1.57269621 -0.14890328 0.0312165841 1.57270658 -0.147304013 0.0331727192 1.56744802 -0.146833166 0.0336959995 1.56903493 -0.149423048 0.03062075 1.57094526 -0.147304013 0.0331727192 1.56744802 -0.149423048 0.03062075 1.57094526 -0.148368716 0.0318669751 1.56635559 -0.144741163 0.0214636009 1.57573926 -0.145853743 0.0201359596 1.57535017 -0.145546168 0.0205137804 1.57454121 -0.145546168 0.0205137804 1.57454121 -0.145853743 0.0201359596 1.57535017 -0.146214336 0.0197122078 1.57334065 -0.144741163 0.0214636009 1.57573926 -0.144906193 0.0212811083 1.57644939 -0.145853743 0.0201359596 1.57535017 -0.145670027 0.0203729812 1.57319796 -0.145546168 0.0205137804 1.57454121 -0.146214336 0.0197122078 1.57334065 -0.144741163 0.0214636009 1.57573926 -0.143615887 0.0228036512 1.57646489 -0.144906193 0.0212811083 1.57644939 -0.143648461 0.0227764118 1.57554853 -0.143615887 0.0228036512 1.57646489 -0.144741163 0.0214636009 1.57573926 -0.145670027 0.0203729812 1.57319796 -0.146214336 0.0197122078 1.57334065 -0.145475999 0.0205756817 1.57120681 -0.142990872 0.0235479139 1.57452774 -0.143615887 0.0228036512 1.57646489 -0.143648461 0.0227764118 1.57554853 -0.142774925 0.0238198694 1.57543421 -0.143615887 0.0228036512 1.57646489 -0.142990872 0.0235479139 1.57452774 -0.144978374 0.021204114 1.5716362 -0.145670027 0.0203729812 1.57319796 -0.145475999 0.0205756817 1.57120681 -0.1423489 0.0243133418 1.57396781 -0.142774925 0.0238198694 1.57543421 -0.142990872 0.0235479139 1.57452774 -0.144048363 0.0222888365 1.57064724 -0.143752947 0.0226522665 1.57159591 -0.144978374 0.021204114 1.5716362 -0.144048363 0.0222888365 1.57064724 -0.144978374 0.021204114 1.5716362 -0.145475999 0.0205756817 1.57120681 -0.1423489 0.0243133418 1.57396781 -0.142990872 0.0235479139 1.57452774 -0.142981023 0.02360457 1.57278931 -0.142786056 0.0238145925 1.57165813 -0.1423489 0.0243133418 1.57396781 -0.142981023 0.02360457 1.57278931 -0.144048363 0.0222888365 1.57064724 -0.142981023 0.02360457 1.57278931 -0.143752947 0.0226522665 1.57159591 -0.142786056 0.0238145925 1.57165813 -0.142981023 0.02360457 1.57278931 -0.144048363 0.0222888365 1.57064724 -0.143762022 0.0249045752 1.57181597 -0.143444926 0.0252841003 1.57396114 -0.1423489 0.0243133418 1.57396781 -0.143762022 0.0249045752 1.57181597 -0.1423489 0.0243133418 1.57396781 -0.142786056 0.0238145925 1.57165813 -0.144059137 0.0245481879 1.57593942 -0.145381421 0.0229659975 1.57667482 -0.143615887 0.0228036512 1.57646489 -0.145067334 0.0233542714 1.57058632 -0.143762022 0.0249045752 1.57181597 -0.142786056 0.0238145925 1.57165813 -0.144059137 0.0245481879 1.57593942 -0.143615887 0.0228036512 1.57646489 -0.142774925 0.0238198694 1.57543421 -0.145067334 0.0233542714 1.57058632 -0.142786056 0.0238145925 1.57165813 -0.144048363 0.0222888365 1.57064724 -0.144059137 0.0245481879 1.57593942 -0.142774925 0.0238198694 1.57543421 -0.1423489 0.0243133418 1.57396781 -0.143444926 0.0252841003 1.57396114 -0.144059137 0.0245481879 1.57593942 -0.1423489 0.0243133418 1.57396781 -0.144024342 0.0246170722 1.57405066 -0.142990872 0.0235479139 1.57452774 -0.144931808 0.023509806 1.57562685 -0.144978374 0.021204114 1.5716362 -0.143752947 0.0226522665 1.57159591 -0.145411283 0.0229494832 1.57150018 -0.142990872 0.0235479139 1.57452774 -0.143648461 0.0227764118 1.57554853 -0.144931808 0.023509806 1.57562685 -0.145411283 0.0229494832 1.57150018 -0.143752947 0.0226522665 1.57159591 -0.144472986 0.0240684208 1.57204807 -0.143648461 0.0227764118 1.57554853 -0.144741163 0.0214636009 1.57573926 -0.144931808 0.023509806 1.57562685 -0.143752947 0.0226522665 1.57159591 -0.142981023 0.02360457 1.57278931 -0.144472986 0.0240684208 1.57204807 -0.144472986 0.0240684208 1.57204807 -0.142981023 0.02360457 1.57278931 -0.144024342 0.0246170722 1.57405066 -0.142981023 0.02360457 1.57278931 -0.142990872 0.0235479139 1.57452774 -0.144024342 0.0246170722 1.57405066 -0.150607973 0.0284497906 1.57218814 -0.144314632 0.0243190117 1.57302904 -0.150177643 0.0289603453 1.57454002 -0.144314632 0.0243190117 1.57302904 -0.144595399 0.0239784233 1.57482755 -0.150177643 0.0289603453 1.57454002 -0.144595399 0.0239784233 1.57482755 -0.145530686 0.0228667017 1.57538342 -0.150177643 0.0289603453 1.57454002 -0.150177643 0.0289603453 1.57454002 -0.145530686 0.0228667017 1.57538342 -0.151710674 0.0271317456 1.57506013 -0.145335019 0.0231048763 1.57185125 -0.144314632 0.0243190117 1.57302904 -0.150607973 0.0284497906 1.57218814 -0.146550804 0.0216523223 1.57420564 -0.146563247 0.0215605237 1.57474029 -0.146741912 0.0213596672 1.57335091 -0.144595399 0.0239784233 1.57482755 -0.144024342 0.0246170722 1.57405066 -0.144931808 0.023509806 1.57562685 -0.145530686 0.0228667017 1.57538342 -0.144931808 0.023509806 1.57562685 -0.145845652 0.0224238019 1.5756017 -0.145411283 0.0229494832 1.57150018 -0.146266654 0.0219900757 1.57240713 -0.146345541 0.0218367372 1.57206726 -0.144472986 0.0240684208 1.57204807 -0.144314632 0.0243190117 1.57302904 -0.145335019 0.0231048763 1.57185125 -0.146266654 0.0219900757 1.57240713 -0.146550804 0.0216523223 1.57420564 -0.146345541 0.0218367372 1.57206726 -0.146345541 0.0218367372 1.57206726 -0.146550804 0.0216523223 1.57420564 -0.146741912 0.0213596672 1.57335091 -0.145411283 0.0229494832 1.57150018 -0.145335019 0.0231048763 1.57185125 -0.146266654 0.0219900757 1.57240713 -0.146550804 0.0216523223 1.57420564 -0.145845652 0.0224238019 1.5756017 -0.146563247 0.0215605237 1.57474029 -0.146550804 0.0216523223 1.57420564 -0.145530686 0.0228667017 1.57538342 -0.145845652 0.0224238019 1.5756017 -0.144472986 0.0240684208 1.57204807 -0.144024342 0.0246170722 1.57405066 -0.144314632 0.0243190117 1.57302904 -0.145411283 0.0229494832 1.57150018 -0.144472986 0.0240684208 1.57204807 -0.145335019 0.0231048763 1.57185125 -0.144314632 0.0243190117 1.57302904 -0.144024342 0.0246170722 1.57405066 -0.144595399 0.0239784233 1.57482755 -0.144595399 0.0239784233 1.57482755 -0.144931808 0.023509806 1.57562685 -0.145530686 0.0228667017 1.57538342 -0.150607973 0.0284497906 1.57218814 -0.150177643 0.0289603453 1.57454002 -0.151710674 0.0271317456 1.57506013 -0.150607973 0.0284497906 1.57218814 -0.151710674 0.0271317456 1.57506013 -0.152141884 0.0266219079 1.57270825 -0.154121503 0.0273497868 1.57587278 -0.151484475 0.0280635934 1.57362449 -0.157089904 0.0212738104 1.57363439 -0.154121503 0.0273497868 1.57587278 -0.157089904 0.0212738104 1.57363439 -0.158275127 0.0223306939 1.57591176 -0.154146597 0.0273403563 1.57136583 -0.158279747 0.0223293155 1.57136381 -0.157089904 0.0212738104 1.57363439 -0.151484475 0.0280635934 1.57362449 -0.154146597 0.0273403563 1.57136583 -0.157089904 0.0212738104 1.57363439 -0.145764038 0.0347628631 1.5736146 -0.147022277 0.0357469916 1.57134426 -0.151237786 0.0308070164 1.57136071 -0.145764038 0.0347628631 1.5736146 -0.151237786 0.0308070164 1.57136071 -0.151484475 0.0280635934 1.57362449 -0.145764038 0.0347628631 1.5736146 -0.151484475 0.0280635934 1.57362449 -0.151235327 0.0307921693 1.57587135 -0.147013843 0.035749048 1.57588816 -0.145764038 0.0347628631 1.5736146 -0.151235327 0.0307921693 1.57587135 </float_array>
          <technique_common>
            <accessor count="786" offset="0" source="#mesh_0-positions-array" stride="3">
              <param name="X" type="float" />
              <param name="Y" type="float" />
              <param name="Z" type="float" />
            </accessor>
          </technique_common>
        </source>
        <vertices id="mesh_0-vertices">
          <input semantic="POSITION" source="#mesh_0-positions" />
        </vertices>
        <polylist count="262" material="defaultMaterial">
          <input offset="0" semantic="VERTEX" source="#mesh_0-vertices" />
          <vcount>3 3 3 3 3 3 3 3 3 3 3 3 3 3 3 3 3 3 3 3 3 3 3 3 3 3 3 3 3 3 3 3 3 3 3 3 3 3 3 3 3 3 3 3 3 3 3 3 3 3 3 3 3 3 3 3 3 3 3 3 3 3 3 3 3 3 3 3 3 3 3 3 3 3 3 3 3 3 3 3 3 3 3 3 3 3 3 3 3 3 3 3 3 3 3 3 3 3 3 3 3 3 3 3 3 3 3 3 3 3 3 3 3 3 3 3 3 3 3 3 3 3 3 3 3 3 3 3 3 3 3 3 3 3 3 3 3 3 3 3 3 3 3 3 3 3 3 3 3 3 3 3 3 3 3 3 3 3 3 3 3 3 3 3 3 3 3 3 3 3 3 3 3 3 3 3 3 3 3 3 3 3 3 3 3 3 3 3 3 3 3 3 3 3 3 3 3 3 3 3 3 3 3 3 3 3 3 3 3 3 3 3 3 3 3 3 3 3 3 3 3 3 3 3 3 3 3 3 3 3 3 3 3 3 3 3 3 3 3 3 3 3 3 3 3 3 3 3 3 3 3 3 3 3 3 3 3 3 3 3 3 3 </vcount>
          <p>0 1 2 3 4 5 6 7 8 9 10 11 12 13 14 15 16 17 18 19 20 21 22 23 24 25 26 27 28 29 30 31 32 33 34 35 36 37 38 39 40 41 42 43 44 45 46 47 48 49 50 51 52 53 54 55 56 57 58 59 60 61 62 63 64 65 66 67 68 69 70 71 72 73 74 75 76 77 78 79 80 81 82 83 84 85 86 87 88 89 90 91 92 93 94 95 96 97 98 99 100 101 102 103 104 105 106 107 108 109 110 111 112 113 114 115 116 117 118 119 120 121 122 123 124 125 126 127 128 129 130 131 132 133 134 135 136 137 138 139 140 141 142 143 144 145 146 147 148 149 150 151 152 153 154 155 156 157 158 159 160 161 162 163 164 165 166 167 168 169 170 171 172 173 174 175 176 177 178 179 180 181 182 183 184 185 186 187 188 189 190 191 192 193 194 195 196 197 198 199 200 201 202 203 204 205 206 207 208 209 210 211 212 213 214 215 216 217 218 219 220 221 222 223 224 225 226 227 228 229 230 231 232 233 234 235 236 237 238 239 240 241 242 243 244 245 246 247 248 249 250 251 252 253 254 255 256 257 258 259 260 261 262 263 264 265 266 267 268 269 270 271 272 273 274 275 276 277 278 279 280 281 282 283 284 285 286 287 288 289 290 291 292 293 294 295 296 297 298 299 300 301 302 303 304 305 306 307 308 309 310 311 312 313 314 315 316 317 318 319 320 321 322 323 324 325 326 327 328 329 330 331 332 333 334 335 336 337 338 339 340 341 342 343 344 345 346 347 348 349 350 351 352 353 354 355 356 357 358 359 360 361 362 363 364 365 366 367 368 369 370 371 372 373 374 375 376 377 378 379 380 381 382 383 384 385 386 387 388 389 390 391 392 393 394 395 396 397 398 399 400 401 402 403 404 405 406 407 408 409 410 411 412 413 414 415 416 417 418 419 420 421 422 423 424 425 426 427 428 429 430 431 432 433 434 435 436 437 438 439 440 441 442 443 444 445 446 447 448 449 450 451 452 453 454 455 456 457 458 459 460 461 462 463 464 465 466 467 468 469 470 471 472 473 474 475 476 477 478 479 480 481 482 483 484 485 486 487 488 489 490 491 492 493 494 495 496 497 498 499 500 501 502 503 504 505 506 507 508 509 510 511 512 513 514 515 516 517 518 519 520 521 522 523 524 525 526 527 528 529 530 531 532 533 534 535 536 537 538 539 540 541 542 543 544 545 546 547 548 549 550 551 552 553 554 555 556 557 558 559 560 561 562 563 564 565 566 567 568 569 570 571 572 573 574 575 576 577 578 579 580 581 582 583 584 585 586 587 588 589 590 591 592 593 594 595 596 597 598 599 600 601 602 603 604 605 606 607 608 609 610 611 612 613 614 615 616 617 618 619 620 621 622 623 624 625 626 627 628 629 630 631 632 633 634 635 636 637 638 639 640 641 642 643 644 645 646 647 648 649 650 651 652 653 654 655 656 657 658 659 660 661 662 663 664 665 666 667 668 669 670 671 672 673 674 675 676 677 678 679 680 681 682 683 684 685 686 687 688 689 690 691 692 693 694 695 696 697 698 699 700 701 702 703 704 705 706 707 708 709 710 711 712 713 714 715 716 717 718 719 720 721 722 723 724 725 726 727 728 729 730 731 732 733 734 735 736 737 738 739 740 741 742 743 744 745 746 747 748 749 750 751 752 753 754 755 756 757 758 759 760 761 762 763 764 765 766 767 768 769 770 771 772 773 774 775 776 777 778 779 780 781 782 783 784 785 </p>
        </polylist>
      </mesh>
    </geometry>
  </library_geometries>
  <library_controllers>
  </library_controllers>
  <library_visual_scenes>
    <visual_scene id="Scene" name="Scene">
      <node id="node" name="" type="NODE">
        <matrix sid="matrix">1 0 0 0 0 1 0 0 0 0 1 0 0 0 0 1</matrix>
        <instance_geometry url="#mesh_0">
          <bind_material>
            <technique_common>
              <instance_material symbol="defaultMaterial" target="#material_0">
              </instance_material>
            </technique_common>
          </bind_material>
        </instance_geometry>
      </node>
    </visual_scene>
  </library_visual_scenes>
  <scene>
    <instance_visual_scene url="#Scene" />
  </scene>
</COLLADA>
