<?xml version="1.0" encoding="UTF-8" standalone="no" ?>
<COLLADA xmlns="http://www.collada.org/2005/11/COLLADASchema" version="1.4.1">
  <asset>
    <contributor>
      <author>Assimp</author>
      <authoring_tool>Assimp Exporter</authoring_tool>
    </contributor>
    <created>2026-04-22T16:09:44</created>
    <modified>2026-04-22T16:09:44</modified>
    <unit name="meter" meter="1" />
    <up_axis>Y_UP</up_axis>
  </asset>
  <library_images>
  </library_images>
  <library_effects>
    <effect id="material_0-fx" name="">
      <profile_COMMON>
        <technique sid="standard">
          <phong>
            <emission>
              <color sid="emission">0   0   0   1.80177653</color>
            </emission>
            <ambient>
              <color sid="ambient">0.100000001   0.100000001   0.100000001   1.40257168</color>
            </ambient>
            <diffuse>
              <color sid="diffuse">0.100000001   0.100000001   0.100000001   1.40257168</color>
            </diffuse>
            <specular>
              <color sid="specular">0.25   0.25   0.25   -0.531376243</color>
            </specular>
          </phong>
        </technique>
      </profile_COMMON>
    </effect>
  </library_effects>
  <library_materials>
    <material id="material_0" name="">
      <instance_effect url="#material_0-fx"/>
    </material>
  </library_materials>
  <library_geometries>
    <geometry id="mesh_0" name="" >
      <mesh>
        <source id="mesh_0-positions" name="mesh_0-positions">
          <float_array id="mesh_0-positions-array" count="432"> 0.771593153 -0.309338003 1.66122031 0.774695933 -0.31412679 1.66494727 0.770620167 -0.310964555 1.65880537 0.759067953 -0.300068408 1.69974327 0.76065892 -0.298478305 1.69821155 0.759070575 -0.300068051 1.695593 0.764571726 -0.304599434 1.69566095 0.759070575 -0.300068051 1.695593 0.76065892 -0.298478305 1.69821155 0.764571726 -0.304599434 1.69566095 0.771310806 -0.313299149 1.69440222 0.759070575 -0.300068051 1.695593 0.771310806 -0.313299149 1.69440222 0.759067953 -0.300068408 1.69974327 0.759070575 -0.300068051 1.695593 0.769542098 -0.307308316 1.69644487 0.764571726 -0.304599434 1.69566095 0.76065892 -0.298478305 1.69821155 0.759067953 -0.300068408 1.69974327 0.766775846 -0.307611763 1.69900727 0.76065892 -0.298478305 1.69821155 0.769542098 -0.307308316 1.69644487 0.775297642 -0.313757151 1.6888684 0.771057487 -0.309770584 1.69241452 0.77408129 -0.31375283 1.69174337 0.772489071 -0.315264523 1.69069731 0.775297642 -0.313757151 1.6888684 0.771057487 -0.309770584 1.69241452 0.775297642 -0.313757151 1.6888684 0.773906767 -0.312668473 1.68397617 0.766775846 -0.307611763 1.69900727 0.769542098 -0.307308316 1.69644487 0.76065892 -0.298478305 1.69821155 0.772489071 -0.315264523 1.69069731 0.776113153 -0.314825237 1.68413675 0.775297642 -0.313757151 1.6888684 0.766775846 -0.307611763 1.69900727 0.77408129 -0.31375283 1.69174337 0.769542098 -0.307308316 1.69644487 0.774212122 -0.316704869 1.68410158 0.776113153 -0.314825237 1.68413675 0.772489071 -0.315264523 1.69069731 0.771310806 -0.313299149 1.69440222 0.77408129 -0.31375283 1.69174337 0.766775846 -0.307611763 1.69900727 0.769542098 -0.307308316 1.69644487 0.768642128 -0.310595542 1.69307756 0.764571726 -0.304599434 1.69566095 0.768642128 -0.310595542 1.69307756 0.772695363 -0.316141635 1.68507755 0.772489071 -0.315264523 1.69069731 0.769542098 -0.307308316 1.69644487 0.771057487 -0.309770584 1.69241452 0.768642128 -0.310595542 1.69307756 0.769542098 -0.307308316 1.69644487 0.77408129 -0.31375283 1.69174337 0.775297642 -0.313757151 1.6888684 0.774868548 -0.312624514 1.66655827 0.773205221 -0.312399596 1.66884065 0.773906767 -0.312668473 1.68397617 0.773205221 -0.312399596 1.66884065 0.772114456 -0.314297408 1.68395841 0.773906767 -0.312668473 1.68397617 0.773205221 -0.312399596 1.66884065 0.772273839 -0.31568858 1.66847026 0.772114456 -0.314297408 1.68395841 0.772273839 -0.31568858 1.66847026 0.772695363 -0.316141635 1.68507755 0.772114456 -0.314297408 1.68395841 0.774868548 -0.312624514 1.66655827 0.773906767 -0.312668473 1.68397617 0.775297642 -0.313757151 1.6888684 0.770620167 -0.310964555 1.65880537 0.772273839 -0.31568858 1.66847026 0.768684804 -0.312014103 1.66163599 0.770620167 -0.310964555 1.65880537 0.774695933 -0.31412679 1.66494727 0.772273839 -0.31568858 1.66847026 0.774695933 -0.31412679 1.66494727 0.775708437 -0.315894961 1.67118812 0.772273839 -0.31568858 1.66847026 0.770620167 -0.310964555 1.65880537 0.768684804 -0.312014103 1.66163599 0.771593153 -0.309338003 1.66122031 0.772695363 -0.316141635 1.68507755 0.774212122 -0.316704869 1.68410158 0.772489071 -0.315264523 1.69069731 0.768684804 -0.312014103 1.66163599 0.772273839 -0.31568858 1.66847026 0.773205221 -0.312399596 1.66884065 0.775708437 -0.315894961 1.67118812 0.776113153 -0.314825237 1.68413675 0.774212122 -0.316704869 1.68410158 0.775708437 -0.315894961 1.67118812 0.774868548 -0.312624514 1.66655827 0.776113153 -0.314825237 1.68413675 0.774868548 -0.312624514 1.66655827 0.775297642 -0.313757151 1.6888684 0.776113153 -0.314825237 1.68413675 0.768642128 -0.310595542 1.69307756 0.772489071 -0.315264523 1.69069731 0.771310806 -0.313299149 1.69440222 0.772273839 -0.31568858 1.66847026 0.774212122 -0.316704869 1.68410158 0.772695363 -0.316141635 1.68507755 0.772273839 -0.31568858 1.66847026 0.775708437 -0.315894961 1.67118812 0.774212122 -0.316704869 1.68410158 0.771310806 -0.313299149 1.69440222 0.763441682 -0.306165099 1.69898379 0.759067953 -0.300068408 1.69974327 0.763441682 -0.306165099 1.69898379 0.771310806 -0.313299149 1.69440222 0.766775846 -0.307611763 1.69900727 0.771593153 -0.309338003 1.66122031 0.774868548 -0.312624514 1.66655827 0.774695933 -0.31412679 1.66494727 0.771593153 -0.309338003 1.66122031 0.773205221 -0.312399596 1.66884065 0.774868548 -0.312624514 1.66655827 0.774695933 -0.31412679 1.66494727 0.774868548 -0.312624514 1.66655827 0.775708437 -0.315894961 1.67118812 0.768684804 -0.312014103 1.66163599 0.773205221 -0.312399596 1.66884065 0.771593153 -0.309338003 1.66122031 0.764571726 -0.304599434 1.69566095 0.768642128 -0.310595542 1.69307756 0.771310806 -0.313299149 1.69440222 0.771057487 -0.309770584 1.69241452 0.772695363 -0.316141635 1.68507755 0.768642128 -0.310595542 1.69307756 0.772114456 -0.314297408 1.68395841 0.771057487 -0.309770584 1.69241452 0.773906767 -0.312668473 1.68397617 0.771057487 -0.309770584 1.69241452 0.772114456 -0.314297408 1.68395841 0.772695363 -0.316141635 1.68507755 0.771310806 -0.313299149 1.69440222 0.772489071 -0.315264523 1.69069731 0.77408129 -0.31375283 1.69174337 0.763441682 -0.306165099 1.69898379 0.766775846 -0.307611763 1.69900727 0.759067953 -0.300068408 1.69974327 </float_array>
          <technique_common>
            <accessor count="144" offset="0" source="#mesh_0-positions-array" stride="3">
              <param name="X" type="float" />
              <param name="Y" type="float" />
              <param name="Z" type="float" />
            </accessor>
          </technique_common>
        </source>
        <vertices id="mesh_0-vertices">
          <input semantic="POSITION" source="#mesh_0-positions" />
        </vertices>
        <polylist count="48" material="defaultMaterial">
          <input offset="0" semantic="VERTEX" source="#mesh_0-vertices" />
          <vcount>3 3 3 3 3 3 3 3 3 3 3 3 3 3 3 3 3 3 3 3 3 3 3 3 3 3 3 3 3 3 3 3 3 3 3 3 3 3 3 3 3 3 3 3 3 3 3 3 </vcount>
          <p>0 1 2 3 4 5 6 7 8 9 10 11 12 13 14 15 16 17 18 19 20 21 22 23 24 25 26 27 28 29 30 31 32 33 34 35 36 37 38 39 40 41 42 43 44 45 46 47 48 49 50 51 52 53 54 55 56 57 58 59 60 61 62 63 64 65 66 67 68 69 70 71 72 73 74 75 76 77 78 79 80 81 82 83 84 85 86 87 88 89 90 91 92 93 94 95 96 97 98 99 100 101 102 103 104 105 106 107 108 109 110 111 112 113 114 115 116 117 118 119 120 121 122 123 124 125 126 127 128 129 130 131 132 133 134 135 136 137 138 139 140 141 142 143 </p>
        </polylist>
      </mesh>
    </geometry>
  </library_geometries>
  <library_controllers>
  </library_controllers>
  <library_visual_scenes>
    <visual_scene id="Scene" name="Scene">
      <node id="node" name="" type="NODE">
        <matrix sid="matrix">1 0 0 0 0 1 0 0 0 0 1 0 0 0 0 1</matrix>
        <instance_geometry url="#mesh_0">
          <bind_material>
            <technique_common>
              <instance_material symbol="defaultMaterial" target="#material_0">
              </instance_material>
            </technique_common>
          </bind_material>
        </instance_geometry>
      </node>
    </visual_scene>
  </library_visual_scenes>
  <scene>
    <instance_visual_scene url="#Scene" />
  </scene>
</COLLADA>
