<?xml version="1.0" encoding="UTF-8" standalone="no" ?>
<COLLADA xmlns="http://www.collada.org/2005/11/COLLADASchema" version="1.4.1">
  <asset>
    <contributor>
      <author>Assimp</author>
      <authoring_tool>Assimp Exporter</authoring_tool>
    </contributor>
    <created>2026-04-22T16:09:43</created>
    <modified>2026-04-22T16:09:43</modified>
    <unit name="meter" meter="1" />
    <up_axis>Y_UP</up_axis>
  </asset>
  <library_images>
  </library_images>
  <library_effects>
    <effect id="material_0-fx" name="">
      <profile_COMMON>
        <technique sid="standard">
          <phong>
            <emission>
              <color sid="emission">0   0   0   4.19744942e-41</color>
            </emission>
            <ambient>
              <color sid="ambient">0.949018478   0.605675161   0.758588374   4.19730929e-41</color>
            </ambient>
            <diffuse>
              <color sid="diffuse">0.949018478   0.605675161   0.758588374   4.19730929e-41</color>
            </diffuse>
            <specular>
              <color sid="specular">0.25   0.25   0.25   4.19744942e-41</color>
            </specular>
          </phong>
        </technique>
      </profile_COMMON>
    </effect>
  </library_effects>
  <library_materials>
    <material id="material_0" name="">
      <instance_effect url="#material_0-fx"/>
    </material>
  </library_materials>
  <library_geometries>
    <geometry id="mesh_0" name="" >
      <mesh>
        <source id="mesh_0-positions" name="mesh_0-positions">
          <float_array id="mesh_0-positions-array" count="2700"> 0.686771572 -0.149934739 1.35938823 0.674350619 -0.149866685 1.36976445 0.681530893 -0.142683834 1.3746314 0.681530893 -0.142683834 1.3746314 0.674350619 -0.149866685 1.36976445 0.665968597 -0.149766251 1.38501763 0.736975074 -0.237507328 1.52296364 0.78165549 -0.189100713 1.52298117 0.760655403 -0.197876096 1.52297294 0.664098501 -0.242508784 1.43059862 0.746365309 -0.275461167 1.52296495 0.737446547 -0.254148513 1.52296317 0.795418203 -0.298836231 1.52295351 0.736975074 -0.237507328 1.52296364 0.783512414 -0.298209637 1.52297759 0.760655403 -0.197876096 1.52297294 0.78165549 -0.189100713 1.52298117 0.687486112 -0.142698422 1.42888558 0.736975074 -0.237507328 1.52296364 0.664098501 -0.242508784 1.43059862 0.737446547 -0.254148513 1.52296317 0.764120638 -0.29158923 1.52298307 0.737446547 -0.254148513 1.52296317 0.746365309 -0.275461167 1.52296495 0.671354353 -0.178362906 1.36245024 0.680313528 -0.15884982 1.35967636 0.682916105 -0.177909732 1.35322702 0.671354353 -0.178362906 1.36245024 0.682916105 -0.177909732 1.35322702 0.675275683 -0.243087113 1.35533178 0.671354353 -0.178362906 1.36245024 0.670617282 -0.159150705 1.36905742 0.680313528 -0.15884982 1.35967636 0.818570554 -0.195142627 1.52299988 0.801523924 -0.189336717 1.52299035 0.736975074 -0.237507328 1.52296364 0.674121857 -0.142713428 1.38809466 0.681530893 -0.142683834 1.3746314 0.665968597 -0.149766251 1.38501763 0.692763746 -0.135278076 1.39132941 0.681530893 -0.142683834 1.3746314 0.674121857 -0.142713428 1.38809466 0.674350619 -0.149866685 1.36976445 0.665734112 -0.156581134 1.37869918 0.665968597 -0.149766251 1.38501763 0.764120638 -0.29158923 1.52298307 0.783512414 -0.298209637 1.52297759 0.736975074 -0.237507328 1.52296364 0.764120638 -0.29158923 1.52298307 0.736975074 -0.237507328 1.52296364 0.737446547 -0.254148513 1.52296317 0.686764777 -0.243068501 1.34852922 0.785878539 -0.288904458 1.43880725 0.675275683 -0.243087113 1.35533178 0.665441871 -0.24310565 1.3653841 0.675275683 -0.243087113 1.35533178 0.785878539 -0.288904458 1.43880725 0.78165549 -0.189100713 1.52298117 0.707260728 -0.142837882 1.43661702 0.687486112 -0.142698422 1.42888558 0.742343128 -0.217966288 1.52296472 0.667972207 -0.17732951 1.43129325 0.736975074 -0.237507328 1.52296364 0.654970229 -0.242985204 1.40930414 0.660579205 -0.177961007 1.41936493 0.656446517 -0.178698629 1.4007715 0.680313528 -0.15884982 1.35967636 0.690718532 -0.156706586 1.35457993 0.682916105 -0.177909732 1.35322702 0.671354353 -0.178362906 1.36245024 0.675275683 -0.243087113 1.35533178 0.665441871 -0.24310565 1.3653841 0.671354353 -0.178362906 1.36245024 0.663890004 -0.178208679 1.37222767 0.670617282 -0.159150705 1.36905742 0.663890004 -0.178208679 1.37222767 0.671354353 -0.178362906 1.36245024 0.665441871 -0.24310565 1.3653841 0.686771572 -0.149934739 1.35938823 0.680313528 -0.15884982 1.35967636 0.674350619 -0.149866685 1.36976445 0.680313528 -0.15884982 1.35967636 0.670617282 -0.159150705 1.36905742 0.674350619 -0.149866685 1.36976445 0.665441871 -0.24310565 1.3653841 0.785878539 -0.288904458 1.43880725 0.782754123 -0.294187725 1.46846104 0.782754123 -0.294187725 1.46846104 0.778259099 -0.295409799 1.48747778 0.658927977 -0.242999315 1.37607658 0.831479788 -0.2067357 1.4945333 0.744265258 -0.142741948 1.3869127 0.746350944 -0.142783254 1.40171278 0.724486113 -0.134964302 1.40806901 0.801523924 -0.189336717 1.52299035 0.818570554 -0.195142627 1.52299988 0.818570554 -0.195142627 1.52299988 0.741892874 -0.142721787 1.41638792 0.724486113 -0.134964302 1.40806901 0.831479788 -0.2067357 1.4945333 0.829666197 -0.203299582 1.52296901 0.838365436 -0.213834405 1.52297628 0.818570554 -0.195142627 1.52299988 0.746350944 -0.142783254 1.40171278 0.741892874 -0.142721787 1.41638792 0.746350944 -0.142783254 1.40171278 0.724486113 -0.134964302 1.40806901 0.741892874 -0.142721787 1.41638792 0.670617282 -0.159150705 1.36905742 0.665734112 -0.156581134 1.37869918 0.674350619 -0.149866685 1.36976445 0.665968597 -0.149766251 1.38501763 0.663689613 -0.150698528 1.4035033 0.672619879 -0.142673761 1.4025383 0.663689613 -0.150698528 1.4035033 0.665968597 -0.149766251 1.38501763 0.661274433 -0.156228021 1.40222681 0.690147698 -0.135596693 1.40051436 0.674121857 -0.142713428 1.38809466 0.672619879 -0.142673761 1.4025383 0.674121857 -0.142713428 1.38809466 0.690147698 -0.135596693 1.40051436 0.692763746 -0.135278076 1.39132941 0.674121857 -0.142713428 1.38809466 0.665968597 -0.149766251 1.38501763 0.672619879 -0.142673761 1.4025383 0.681530893 -0.142683834 1.3746314 0.692763746 -0.135278076 1.39132941 0.696384609 -0.135812208 1.38383377 0.705531001 -0.132869035 1.39187396 0.692763746 -0.135278076 1.39132941 0.700472414 -0.133084744 1.40142679 0.695907891 -0.142646968 1.36460662 0.686771572 -0.149934739 1.35938823 0.681530893 -0.142683834 1.3746314 0.744265258 -0.142741948 1.3869127 0.828624666 -0.214985892 1.44254386 0.751191437 -0.153935 1.37802756 0.738077343 -0.142692193 1.37592602 0.722650945 -0.134652734 1.38906932 0.744265258 -0.142741948 1.3869127 0.78165549 -0.189100713 1.52298117 0.736975074 -0.237507328 1.52296364 0.801523924 -0.189336717 1.52299035 0.78165549 -0.189100713 1.52298117 0.801523924 -0.189336717 1.52299035 0.707260728 -0.142837882 1.43661702 0.707260728 -0.142837882 1.43661702 0.801523924 -0.189336717 1.52299035 0.715082824 -0.135527223 1.41717219 0.846881807 -0.240390196 1.52300537 0.84593749 -0.23564966 1.50358248 0.843936324 -0.225461513 1.52298748 0.783512414 -0.298209637 1.52297759 0.764120638 -0.29158923 1.52298307 0.773056984 -0.295130372 1.50690377 0.781752706 -0.297494471 1.50474679 0.773056984 -0.295130372 1.50690377 0.778259099 -0.295409799 1.48747778 0.812841475 -0.294689447 1.52298689 0.822830677 -0.289358228 1.52298009 0.736975074 -0.237507328 1.52296364 0.736975074 -0.237507328 1.52296364 0.795418203 -0.298836231 1.52295351 0.812841475 -0.294689447 1.52298689 0.795418203 -0.298836231 1.52295351 0.783512414 -0.298209637 1.52297759 0.781752706 -0.297494471 1.50474679 0.778259099 -0.295409799 1.48747778 0.773056984 -0.295130372 1.50690377 0.655291975 -0.243089184 1.38766956 0.760655403 -0.197876096 1.52297294 0.742343128 -0.217966288 1.52296472 0.736975074 -0.237507328 1.52296364 0.764120638 -0.29158923 1.52298307 0.654970229 -0.242985204 1.40930414 0.654185712 -0.243048415 1.39611626 0.659082532 -0.243059069 1.42207658 0.654970229 -0.242985204 1.40930414 0.764120638 -0.29158923 1.52298307 0.660579205 -0.177961007 1.41936493 0.664098501 -0.242508784 1.43059862 0.667972207 -0.17732951 1.43129325 0.655291975 -0.243089184 1.38766956 0.658927977 -0.242999315 1.37607658 0.778259099 -0.295409799 1.48747778 0.79649049 -0.29606843 1.47859716 0.791689038 -0.297534078 1.49190485 0.782754123 -0.294187725 1.46846104 0.675275683 -0.243087113 1.35533178 0.682916105 -0.177909732 1.35322702 0.686764777 -0.243068501 1.34852922 0.682916105 -0.177909732 1.35322702 0.690718532 -0.156706586 1.35457993 0.700191975 -0.178160429 1.34686983 0.686771572 -0.149934739 1.35938823 0.690718532 -0.156706586 1.35457993 0.680313528 -0.15884982 1.35967636 0.663890004 -0.178208679 1.37222767 0.665441871 -0.24310565 1.3653841 0.658927977 -0.242999315 1.37607658 0.818570554 -0.195142627 1.52299988 0.829666197 -0.203299582 1.52296901 0.746350944 -0.142783254 1.40171278 0.818570554 -0.195142627 1.52299988 0.736975074 -0.237507328 1.52296364 0.829666197 -0.203299582 1.52296901 0.829666197 -0.203299582 1.52296901 0.831479788 -0.2067357 1.4945333 0.746350944 -0.142783254 1.40171278 0.827549636 -0.262173414 1.42797065 0.823654592 -0.267743856 1.42761552 0.741013288 -0.242754281 1.35377014 0.725343823 -0.134483621 1.40025556 0.744265258 -0.142741948 1.3869127 0.722650945 -0.134652734 1.38906932 0.661274433 -0.156228021 1.40222681 0.666882873 -0.151431516 1.41725433 0.663689613 -0.150698528 1.4035033 0.661274433 -0.156228021 1.40222681 0.664271235 -0.158106804 1.41726243 0.666882873 -0.151431516 1.41725433 0.665734112 -0.156581134 1.37869918 0.663890004 -0.178208679 1.37222767 0.65875864 -0.177116081 1.38419056 0.665734112 -0.156581134 1.37869918 0.670617282 -0.159150705 1.36905742 0.663890004 -0.178208679 1.37222767 0.661853969 -0.157461569 1.3893621 0.665734112 -0.156581134 1.37869918 0.65875864 -0.177116081 1.38419056 0.661853969 -0.157461569 1.3893621 0.661274433 -0.156228021 1.40222681 0.665968597 -0.149766251 1.38501763 0.661853969 -0.157461569 1.3893621 0.65875864 -0.177116081 1.38419056 0.656446517 -0.178698629 1.4007715 0.724486113 -0.134964302 1.40806901 0.715082824 -0.135527223 1.41717219 0.801523924 -0.189336717 1.52299035 0.701602221 -0.1353935 1.41613746 0.687486112 -0.142698422 1.42888558 0.707260728 -0.142837882 1.43661702 0.722650945 -0.134652734 1.38906932 0.705531001 -0.132869035 1.39187396 0.713669658 -0.132575363 1.40191877 0.700472414 -0.133084744 1.40142679 0.690147698 -0.135596693 1.40051436 0.694037378 -0.13527143 1.40896225 0.738077343 -0.142692193 1.37592602 0.744265258 -0.142741948 1.3869127 0.751191437 -0.153935 1.37802756 0.742115974 -0.153622195 1.36505282 0.738077343 -0.142692193 1.37592602 0.751191437 -0.153935 1.37802756 0.830856919 -0.221376792 1.43650806 0.742115974 -0.153622195 1.36505282 0.751191437 -0.153935 1.37802756 0.731690645 -0.177474648 1.35133791 0.732866406 -0.24300985 1.34899378 0.720026791 -0.243065 1.34466791 0.703628361 -0.157483444 1.35078537 0.700191975 -0.178160429 1.34686983 0.690718532 -0.156706586 1.35457993 0.736975074 -0.237507328 1.52296364 0.843936324 -0.225461513 1.52298748 0.838365436 -0.213834405 1.52297628 0.736975074 -0.237507328 1.52296364 0.838365436 -0.213834405 1.52297628 0.829666197 -0.203299582 1.52296901 0.846881807 -0.240390196 1.52300537 0.843936324 -0.225461513 1.52298748 0.736975074 -0.237507328 1.52296364 0.783512414 -0.298209637 1.52297759 0.773056984 -0.295130372 1.50690377 0.781752706 -0.297494471 1.50474679 0.841392994 -0.267647833 1.52300262 0.845719993 -0.255046964 1.52300465 0.736975074 -0.237507328 1.52296364 0.841392994 -0.267647833 1.52300262 0.736975074 -0.237507328 1.52296364 0.834609687 -0.278299838 1.52300143 0.785878539 -0.288904458 1.43880725 0.694395244 -0.2430581 1.34580946 0.705273032 -0.24300392 1.34380114 0.705273032 -0.24300392 1.34380114 0.795315802 -0.288447917 1.43655896 0.785878539 -0.288904458 1.43880725 0.785878539 -0.288904458 1.43880725 0.686764777 -0.243068501 1.34852922 0.694395244 -0.2430581 1.34580946 0.760655403 -0.197876096 1.52297294 0.687486112 -0.142698422 1.42888558 0.677536905 -0.151952073 1.43280089 0.667972207 -0.17732951 1.43129325 0.664098501 -0.242508784 1.43059862 0.736975074 -0.237507328 1.52296364 0.659082532 -0.243059069 1.42207658 0.746365309 -0.275461167 1.52296495 0.664098501 -0.242508784 1.43059862 0.659082532 -0.243059069 1.42207658 0.764120638 -0.29158923 1.52298307 0.746365309 -0.275461167 1.52296495 0.654185712 -0.243048415 1.39611626 0.656446517 -0.178698629 1.4007715 0.655291975 -0.243089184 1.38766956 0.654970229 -0.242985204 1.40930414 0.659082532 -0.243059069 1.42207658 0.660579205 -0.177961007 1.41936493 0.664271235 -0.158106804 1.41726243 0.661274433 -0.156228021 1.40222681 0.660579205 -0.177961007 1.41936493 0.660579205 -0.177961007 1.41936493 0.661274433 -0.156228021 1.40222681 0.656446517 -0.178698629 1.4007715 0.705273032 -0.24300392 1.34380114 0.720026791 -0.243065 1.34466791 0.795315802 -0.288447917 1.43655896 0.817185879 -0.275967747 1.42919481 0.804391026 -0.283400714 1.42993736 0.732866406 -0.24300985 1.34899378 0.823654592 -0.267743856 1.42761552 0.817185879 -0.275967747 1.42919481 0.741013288 -0.242754281 1.35377014 0.817185879 -0.275967747 1.42919481 0.732866406 -0.24300985 1.34899378 0.741013288 -0.242754281 1.35377014 0.804391026 -0.283400714 1.42993736 0.795315802 -0.288447917 1.43655896 0.720026791 -0.243065 1.34466791 0.791689038 -0.297534078 1.49190485 0.795418203 -0.298836231 1.52295351 0.781752706 -0.297494471 1.50474679 0.65875864 -0.177116081 1.38419056 0.658927977 -0.242999315 1.37607658 0.655291975 -0.243089184 1.38766956 0.700191975 -0.178160429 1.34686983 0.686764777 -0.243068501 1.34852922 0.682916105 -0.177909732 1.35322702 0.782754123 -0.294187725 1.46846104 0.658927977 -0.242999315 1.37607658 0.665441871 -0.24310565 1.3653841 0.741333544 -0.176796913 1.35738909 0.742115974 -0.153622195 1.36505282 0.829989374 -0.240542501 1.42565644 0.84214294 -0.226061791 1.48427546 0.837625623 -0.228236228 1.45142376 0.836518168 -0.219763145 1.46418059 0.838663757 -0.216443837 1.494923 0.831305146 -0.209893942 1.47352207 0.831479788 -0.2067357 1.4945333 0.832897127 -0.264742196 1.44111395 0.835507989 -0.252835453 1.43539536 0.840012729 -0.256899238 1.46018422 0.832373381 -0.261352599 1.4348197 0.835507989 -0.252835453 1.43539536 0.832897127 -0.264742196 1.44111395 0.741013288 -0.242754281 1.35377014 0.829989374 -0.240542501 1.42565644 0.82980144 -0.253177851 1.4266727 0.82980144 -0.253177851 1.4266727 0.827549636 -0.262173414 1.42797065 0.741013288 -0.242754281 1.35377014 0.829989374 -0.240542501 1.42565644 0.741013288 -0.242754281 1.35377014 0.741333544 -0.176796913 1.35738909 0.744265258 -0.142741948 1.3869127 0.725343823 -0.134483621 1.40025556 0.746350944 -0.142783254 1.40171278 0.670984805 -0.157991454 1.42871201 0.660579205 -0.177961007 1.41936493 0.667972207 -0.17732951 1.43129325 0.661853969 -0.157461569 1.3893621 0.665968597 -0.149766251 1.38501763 0.665734112 -0.156581134 1.37869918 0.713669658 -0.132575363 1.40191877 0.724486113 -0.134964302 1.40806901 0.725343823 -0.134483621 1.40025556 0.700472414 -0.133084744 1.40142679 0.701602221 -0.1353935 1.41613746 0.706556141 -0.133751288 1.41124094 0.700472414 -0.133084744 1.40142679 0.694037378 -0.13527143 1.40896225 0.701602221 -0.1353935 1.41613746 0.690147698 -0.135596693 1.40051436 0.672619879 -0.142673761 1.4025383 0.676798105 -0.142661631 1.41609061 0.694037378 -0.13527143 1.40896225 0.690147698 -0.135596693 1.40051436 0.676798105 -0.142661631 1.41609061 0.687486112 -0.142698422 1.42888558 0.701602221 -0.1353935 1.41613746 0.694037378 -0.13527143 1.40896225 0.722650945 -0.134652734 1.38906932 0.714133203 -0.134870514 1.38237381 0.705531001 -0.132869035 1.39187396 0.692763746 -0.135278076 1.39132941 0.690147698 -0.135596693 1.40051436 0.700472414 -0.133084744 1.40142679 0.725513458 -0.142694712 1.36568904 0.710643888 -0.142705366 1.36216795 0.714133203 -0.134870514 1.38237381 0.725513458 -0.142694712 1.36568904 0.715967059 -0.152129471 1.35273862 0.710643888 -0.142705366 1.36216795 0.725513458 -0.142694712 1.36568904 0.722650945 -0.134652734 1.38906932 0.738077343 -0.142692193 1.37592602 0.725513458 -0.142694712 1.36568904 0.714133203 -0.134870514 1.38237381 0.722650945 -0.134652734 1.38906932 0.716688037 -0.176677585 1.34683239 0.731690645 -0.177474648 1.35133791 0.720026791 -0.243065 1.34466791 0.773056984 -0.295130372 1.50690377 0.764120638 -0.29158923 1.52298307 0.654185712 -0.243048415 1.39611626 0.803536654 -0.297119111 1.5053966 0.812841475 -0.294689447 1.52298689 0.795418203 -0.298836231 1.52295351 0.846090376 -0.247323886 1.49799931 0.84593749 -0.23564966 1.50358248 0.846881807 -0.240390196 1.52300537 0.837286532 -0.248077095 1.43884635 0.840121269 -0.24511224 1.4512161 0.840012729 -0.256899238 1.46018422 0.834609687 -0.278299838 1.52300143 0.736975074 -0.237507328 1.52296364 0.822830677 -0.289358228 1.52298009 0.782754123 -0.294187725 1.46846104 0.790336907 -0.292800009 1.45560789 0.79649049 -0.29606843 1.47859716 0.705273032 -0.24300392 1.34380114 0.694395244 -0.2430581 1.34580946 0.700191975 -0.178160429 1.34686983 0.677536905 -0.151952073 1.43280089 0.742343128 -0.217966288 1.52296472 0.760655403 -0.197876096 1.52297294 0.742343128 -0.217966288 1.52296472 0.677536905 -0.151952073 1.43280089 0.670984805 -0.157991454 1.42871201 0.670984805 -0.157991454 1.42871201 0.667972207 -0.17732951 1.43129325 0.742343128 -0.217966288 1.52296472 0.701602221 -0.1353935 1.41613746 0.707260728 -0.142837882 1.43661702 0.715082824 -0.135527223 1.41717219 0.659082532 -0.243059069 1.42207658 0.664098501 -0.242508784 1.43059862 0.660579205 -0.177961007 1.41936493 0.654185712 -0.243048415 1.39611626 0.654970229 -0.242985204 1.40930414 0.656446517 -0.178698629 1.4007715 0.705273032 -0.24300392 1.34380114 0.700191975 -0.178160429 1.34686983 0.716688037 -0.176677585 1.34683239 0.823133886 -0.276392937 1.43767953 0.814409316 -0.281431615 1.43445241 0.817185879 -0.275967747 1.42919481 0.80695045 -0.294687301 1.48423195 0.814298749 -0.290374517 1.47231555 0.814325452 -0.29326725 1.50131845 0.804391026 -0.283400714 1.42993736 0.720026791 -0.243065 1.34466791 0.732866406 -0.24300985 1.34899378 0.805221796 -0.286874592 1.43735456 0.804391026 -0.283400714 1.42993736 0.814409316 -0.281431615 1.43445241 0.663890004 -0.178208679 1.37222767 0.658927977 -0.242999315 1.37607658 0.65875864 -0.177116081 1.38419056 0.65875864 -0.177116081 1.38419056 0.655291975 -0.243089184 1.38766956 0.656446517 -0.178698629 1.4007715 0.830856919 -0.221376792 1.43650806 0.834397614 -0.228843033 1.43704522 0.831043899 -0.229313999 1.43024814 0.831043899 -0.229313999 1.43024814 0.742115974 -0.153622195 1.36505282 0.830856919 -0.221376792 1.43650806 0.84214294 -0.226061791 1.48427546 0.844564855 -0.237450778 1.48325026 0.841653585 -0.236623242 1.46241832 0.828624666 -0.214985892 1.44254386 0.836518168 -0.219763145 1.46418059 0.830856919 -0.221376792 1.43650806 0.838663757 -0.216443837 1.494923 0.836518168 -0.219763145 1.46418059 0.831305146 -0.209893942 1.47352207 0.831479788 -0.2067357 1.4945333 0.831305146 -0.209893942 1.47352207 0.744265258 -0.142741948 1.3869127 0.838663757 -0.216443837 1.494923 0.84214294 -0.226061791 1.48427546 0.836518168 -0.219763145 1.46418059 0.838365436 -0.213834405 1.52297628 0.838663757 -0.216443837 1.494923 0.831479788 -0.2067357 1.4945333 0.841653585 -0.236623242 1.46241832 0.837625623 -0.228236228 1.45142376 0.84214294 -0.226061791 1.48427546 0.84214294 -0.226061791 1.48427546 0.84593749 -0.23564966 1.50358248 0.844564855 -0.237450778 1.48325026 0.83642596 -0.267515421 1.46375072 0.832897127 -0.264742196 1.44111395 0.840012729 -0.256899238 1.46018422 0.725343823 -0.134483621 1.40025556 0.722650945 -0.134652734 1.38906932 0.713669658 -0.132575363 1.40191877 0.746350944 -0.142783254 1.40171278 0.725343823 -0.134483621 1.40025556 0.724486113 -0.134964302 1.40806901 0.660579205 -0.177961007 1.41936493 0.670984805 -0.157991454 1.42871201 0.664271235 -0.158106804 1.41726243 0.661274433 -0.156228021 1.40222681 0.661853969 -0.157461569 1.3893621 0.656446517 -0.178698629 1.4007715 0.713669658 -0.132575363 1.40191877 0.706556141 -0.133751288 1.41124094 0.715082824 -0.135527223 1.41717219 0.715082824 -0.135527223 1.41717219 0.724486113 -0.134964302 1.40806901 0.713669658 -0.132575363 1.40191877 0.676798105 -0.142661631 1.41609061 0.687486112 -0.142698422 1.42888558 0.694037378 -0.13527143 1.40896225 0.677536905 -0.151952073 1.43280089 0.687486112 -0.142698422 1.42888558 0.676798105 -0.142661631 1.41609061 0.70221287 -0.150586233 1.35373342 0.686771572 -0.149934739 1.35938823 0.695907891 -0.142646968 1.36460662 0.70221287 -0.150586233 1.35373342 0.690718532 -0.156706586 1.35457993 0.686771572 -0.149934739 1.35938823 0.703628361 -0.157483444 1.35078537 0.690718532 -0.156706586 1.35457993 0.70221287 -0.150586233 1.35373342 0.696384609 -0.135812208 1.38383377 0.695907891 -0.142646968 1.36460662 0.681530893 -0.142683834 1.3746314 0.695907891 -0.142646968 1.36460662 0.696384609 -0.135812208 1.38383377 0.705227971 -0.135714814 1.37993634 0.710643888 -0.142705366 1.36216795 0.715967059 -0.152129471 1.35273862 0.70221287 -0.150586233 1.35373342 0.710643888 -0.142705366 1.36216795 0.70221287 -0.150586233 1.35373342 0.695907891 -0.142646968 1.36460662 0.716688037 -0.176677585 1.34683239 0.726995647 -0.152793393 1.3554585 0.731690645 -0.177474648 1.35133791 0.731690645 -0.177474648 1.35133791 0.741333544 -0.176796913 1.35738909 0.741013288 -0.242754281 1.35377014 0.741013288 -0.242754281 1.35377014 0.732866406 -0.24300985 1.34899378 0.731690645 -0.177474648 1.35133791 0.716688037 -0.176677585 1.34683239 0.703628361 -0.157483444 1.35078537 0.715967059 -0.152129471 1.35273862 0.725513458 -0.142694712 1.36568904 0.735510588 -0.153084531 1.35994935 0.726995647 -0.152793393 1.3554585 0.735510588 -0.153084531 1.35994935 0.738077343 -0.142692193 1.37592602 0.742115974 -0.153622195 1.36505282 0.735510588 -0.153084531 1.35994935 0.725513458 -0.142694712 1.36568904 0.738077343 -0.142692193 1.37592602 0.781752706 -0.297494471 1.50474679 0.782754123 -0.294187725 1.46846104 0.791689038 -0.297534078 1.49190485 0.84593749 -0.23564966 1.50358248 0.84214294 -0.226061791 1.48427546 0.843936324 -0.225461513 1.52298748 0.83642596 -0.267515421 1.46375072 0.840012729 -0.256899238 1.46018422 0.84097755 -0.264453322 1.48609591 0.839046419 -0.27130127 1.5052278 0.841392994 -0.267647833 1.52300262 0.834609687 -0.278299838 1.52300143 0.781752706 -0.297494471 1.50474679 0.778259099 -0.295409799 1.48747778 0.782754123 -0.294187725 1.46846104 0.790336907 -0.292800009 1.45560789 0.782754123 -0.294187725 1.46846104 0.785878539 -0.288904458 1.43880725 0.666882873 -0.151431516 1.41725433 0.672619879 -0.142673761 1.4025383 0.663689613 -0.150698528 1.4035033 0.676798105 -0.142661631 1.41609061 0.672619879 -0.142673761 1.4025383 0.666882873 -0.151431516 1.41725433 0.716688037 -0.176677585 1.34683239 0.700191975 -0.178160429 1.34686983 0.703628361 -0.157483444 1.35078537 0.720026791 -0.243065 1.34466791 0.705273032 -0.24300392 1.34380114 0.716688037 -0.176677585 1.34683239 0.814409316 -0.281431615 1.43445241 0.823133886 -0.276392937 1.43767953 0.814773738 -0.283856779 1.44132102 0.804391026 -0.283400714 1.42993736 0.817185879 -0.275967747 1.42919481 0.814409316 -0.281431615 1.43445241 0.814325452 -0.29326725 1.50131845 0.822830677 -0.289358228 1.52298009 0.812841475 -0.294689447 1.52298689 0.686764777 -0.243068501 1.34852922 0.700191975 -0.178160429 1.34686983 0.694395244 -0.2430581 1.34580946 0.83664465 -0.237620115 1.43725526 0.835507989 -0.252835453 1.43539536 0.833959877 -0.240301386 1.43100131 0.837286532 -0.248077095 1.43884635 0.835507989 -0.252835453 1.43539536 0.83664465 -0.237620115 1.43725526 0.831043899 -0.229313999 1.43024814 0.829989374 -0.240542501 1.42565644 0.742115974 -0.153622195 1.36505282 0.84593749 -0.23564966 1.50358248 0.846090376 -0.247323886 1.49799931 0.844564855 -0.237450778 1.48325026 0.83664465 -0.237620115 1.43725526 0.834397614 -0.228843033 1.43704522 0.837625623 -0.228236228 1.45142376 0.751191437 -0.153935 1.37802756 0.828624666 -0.214985892 1.44254386 0.830856919 -0.221376792 1.43650806 0.828624666 -0.214985892 1.44254386 0.831305146 -0.209893942 1.47352207 0.836518168 -0.219763145 1.46418059 0.832897127 -0.264742196 1.44111395 0.827321649 -0.270794243 1.43577325 0.832373381 -0.261352599 1.4348197 0.677536905 -0.151952073 1.43280089 0.676798105 -0.142661631 1.41609061 0.666882873 -0.151431516 1.41725433 0.666882873 -0.151431516 1.41725433 0.670984805 -0.157991454 1.42871201 0.677536905 -0.151952073 1.43280089 0.664271235 -0.158106804 1.41726243 0.670984805 -0.157991454 1.42871201 0.666882873 -0.151431516 1.41725433 0.705531001 -0.132869035 1.39187396 0.700472414 -0.133084744 1.40142679 0.713669658 -0.132575363 1.40191877 0.713669658 -0.132575363 1.40191877 0.700472414 -0.133084744 1.40142679 0.706556141 -0.133751288 1.41124094 0.705227971 -0.135714814 1.37993634 0.696384609 -0.135812208 1.38383377 0.705531001 -0.132869035 1.39187396 0.705531001 -0.132869035 1.39187396 0.714133203 -0.134870514 1.38237381 0.705227971 -0.135714814 1.37993634 0.705227971 -0.135714814 1.37993634 0.710643888 -0.142705366 1.36216795 0.695907891 -0.142646968 1.36460662 0.741333544 -0.176796913 1.35738909 0.735510588 -0.153084531 1.35994935 0.742115974 -0.153622195 1.36505282 0.735510588 -0.153084531 1.35994935 0.731690645 -0.177474648 1.35133791 0.726995647 -0.152793393 1.3554585 0.735510588 -0.153084531 1.35994935 0.741333544 -0.176796913 1.35738909 0.731690645 -0.177474648 1.35133791 0.715967059 -0.152129471 1.35273862 0.726995647 -0.152793393 1.3554585 0.716688037 -0.176677585 1.34683239 0.715967059 -0.152129471 1.35273862 0.725513458 -0.142694712 1.36568904 0.726995647 -0.152793393 1.3554585 0.843936324 -0.225461513 1.52298748 0.838663757 -0.216443837 1.494923 0.838365436 -0.213834405 1.52297628 0.845719993 -0.255046964 1.52300465 0.846881807 -0.240390196 1.52300537 0.736975074 -0.237507328 1.52296364 0.845719993 -0.255046964 1.52300465 0.846090376 -0.247323886 1.49799931 0.846881807 -0.240390196 1.52300537 0.84482348 -0.25536111 1.49631262 0.846090376 -0.247323886 1.49799931 0.845719993 -0.255046964 1.52300465 0.843571305 -0.247918859 1.47334552 0.844564855 -0.237450778 1.48325026 0.846090376 -0.247323886 1.49799931 0.840012729 -0.256899238 1.46018422 0.840121269 -0.24511224 1.4512161 0.843571305 -0.247918859 1.47334552 0.837286532 -0.248077095 1.43884635 0.840012729 -0.256899238 1.46018422 0.835507989 -0.252835453 1.43539536 0.827321649 -0.270794243 1.43577325 0.828864276 -0.275159299 1.45303345 0.823133886 -0.276392937 1.43767953 0.828864276 -0.275159299 1.45303345 0.827321649 -0.270794243 1.43577325 0.832897127 -0.264742196 1.44111395 0.828864276 -0.275159299 1.45303345 0.832897127 -0.264742196 1.44111395 0.83642596 -0.267515421 1.46375072 0.83369267 -0.276186705 1.48146701 0.83642596 -0.267515421 1.46375072 0.84097755 -0.264453322 1.48609591 0.831239104 -0.281502903 1.50126076 0.834609687 -0.278299838 1.52300143 0.822830677 -0.289358228 1.52298009 0.839046419 -0.27130127 1.5052278 0.834609687 -0.278299838 1.52300143 0.831239104 -0.281502903 1.50126076 0.83369267 -0.276186705 1.48146701 0.839046419 -0.27130127 1.5052278 0.831239104 -0.281502903 1.50126076 0.80695045 -0.294687301 1.48423195 0.812841475 -0.294689447 1.52298689 0.803536654 -0.297119111 1.5053966 0.814325452 -0.29326725 1.50131845 0.812841475 -0.294689447 1.52298689 0.80695045 -0.294687301 1.48423195 0.814298749 -0.290374517 1.47231555 0.823717654 -0.286619246 1.48675621 0.814325452 -0.29326725 1.50131845 0.822295129 -0.283053815 1.45925796 0.814773738 -0.283856779 1.44132102 0.823133886 -0.276392937 1.43767953 0.83369267 -0.276186705 1.48146701 0.831239104 -0.281502903 1.50126076 0.823717654 -0.286619246 1.48675621 0.83664465 -0.237620115 1.43725526 0.840121269 -0.24511224 1.4512161 0.837286532 -0.248077095 1.43884635 0.833959877 -0.240301386 1.43100131 0.829989374 -0.240542501 1.42565644 0.831043899 -0.229313999 1.43024814 0.840121269 -0.24511224 1.4512161 0.83664465 -0.237620115 1.43725526 0.841653585 -0.236623242 1.46241832 0.841653585 -0.236623242 1.46241832 0.83664465 -0.237620115 1.43725526 0.837625623 -0.228236228 1.45142376 0.837625623 -0.228236228 1.45142376 0.830856919 -0.221376792 1.43650806 0.836518168 -0.219763145 1.46418059 0.837625623 -0.228236228 1.45142376 0.834397614 -0.228843033 1.43704522 0.830856919 -0.221376792 1.43650806 0.828624666 -0.214985892 1.44254386 0.744265258 -0.142741948 1.3869127 0.831305146 -0.209893942 1.47352207 0.838663757 -0.216443837 1.494923 0.843936324 -0.225461513 1.52298748 0.84214294 -0.226061791 1.48427546 0.832373381 -0.261352599 1.4348197 0.82980144 -0.253177851 1.4266727 0.835507989 -0.252835453 1.43539536 0.82980144 -0.253177851 1.4266727 0.832373381 -0.261352599 1.4348197 0.827549636 -0.262173414 1.42797065 0.715082824 -0.135527223 1.41717219 0.706556141 -0.133751288 1.41124094 0.701602221 -0.1353935 1.41613746 0.692763746 -0.135278076 1.39132941 0.705531001 -0.132869035 1.39187396 0.696384609 -0.135812208 1.38383377 0.710643888 -0.142705366 1.36216795 0.705227971 -0.135714814 1.37993634 0.714133203 -0.134870514 1.38237381 0.715967059 -0.152129471 1.35273862 0.703628361 -0.157483444 1.35078537 0.70221287 -0.150586233 1.35373342 0.773056984 -0.295130372 1.50690377 0.654185712 -0.243048415 1.39611626 0.655291975 -0.243089184 1.38766956 0.841392994 -0.267647833 1.52300262 0.843092084 -0.262851745 1.50688446 0.845719993 -0.255046964 1.52300465 0.828864276 -0.275159299 1.45303345 0.822295129 -0.283053815 1.45925796 0.823133886 -0.276392937 1.43767953 0.84097755 -0.264453322 1.48609591 0.839046419 -0.27130127 1.5052278 0.83369267 -0.276186705 1.48146701 0.814409316 -0.281431615 1.43445241 0.814773738 -0.283856779 1.44132102 0.805221796 -0.286874592 1.43735456 0.805221796 -0.286874592 1.43735456 0.814773738 -0.283856779 1.44132102 0.803023815 -0.290881872 1.45206034 0.803023815 -0.290881872 1.45206034 0.814773738 -0.283856779 1.44132102 0.814298749 -0.290374517 1.47231555 0.83369267 -0.276186705 1.48146701 0.822295129 -0.283053815 1.45925796 0.828864276 -0.275159299 1.45303345 0.83369267 -0.276186705 1.48146701 0.823717654 -0.286619246 1.48675621 0.822295129 -0.283053815 1.45925796 0.83369267 -0.276186705 1.48146701 0.828864276 -0.275159299 1.45303345 0.83642596 -0.267515421 1.46375072 0.841653585 -0.236623242 1.46241832 0.843571305 -0.247918859 1.47334552 0.840121269 -0.24511224 1.4512161 0.82980144 -0.253177851 1.4266727 0.833959877 -0.240301386 1.43100131 0.835507989 -0.252835453 1.43539536 0.841392994 -0.267647833 1.52300262 0.839046419 -0.27130127 1.5052278 0.843092084 -0.262851745 1.50688446 0.804391026 -0.283400714 1.42993736 0.805221796 -0.286874592 1.43735456 0.795315802 -0.288447917 1.43655896 0.805221796 -0.286874592 1.43735456 0.803023815 -0.290881872 1.45206034 0.795315802 -0.288447917 1.43655896 0.822295129 -0.283053815 1.45925796 0.823717654 -0.286619246 1.48675621 0.814298749 -0.290374517 1.47231555 0.822830677 -0.289358228 1.52298009 0.823717654 -0.286619246 1.48675621 0.831239104 -0.281502903 1.50126076 0.822830677 -0.289358228 1.52298009 0.814325452 -0.29326725 1.50131845 0.823717654 -0.286619246 1.48675621 0.844564855 -0.237450778 1.48325026 0.843571305 -0.247918859 1.47334552 0.841653585 -0.236623242 1.46241832 0.840012729 -0.256899238 1.46018422 0.84482348 -0.25536111 1.49631262 0.84097755 -0.264453322 1.48609591 0.833959877 -0.240301386 1.43100131 0.82980144 -0.253177851 1.4266727 0.829989374 -0.240542501 1.42565644 0.795418203 -0.298836231 1.52295351 0.791689038 -0.297534078 1.49190485 0.79649049 -0.29606843 1.47859716 0.79649049 -0.29606843 1.47859716 0.803536654 -0.297119111 1.5053966 0.795418203 -0.298836231 1.52295351 0.827549636 -0.262173414 1.42797065 0.827321649 -0.270794243 1.43577325 0.823654592 -0.267743856 1.42761552 0.827321649 -0.270794243 1.43577325 0.827549636 -0.262173414 1.42797065 0.832373381 -0.261352599 1.4348197 0.814298749 -0.290374517 1.47231555 0.814773738 -0.283856779 1.44132102 0.822295129 -0.283053815 1.45925796 0.803023815 -0.290881872 1.45206034 0.80695045 -0.294687301 1.48423195 0.79649049 -0.29606843 1.47859716 0.831043899 -0.229313999 1.43024814 0.83664465 -0.237620115 1.43725526 0.833959877 -0.240301386 1.43100131 0.831043899 -0.229313999 1.43024814 0.834397614 -0.228843033 1.43704522 0.83664465 -0.237620115 1.43725526 0.843092084 -0.262851745 1.50688446 0.84482348 -0.25536111 1.49631262 0.845719993 -0.255046964 1.52300465 0.840012729 -0.256899238 1.46018422 0.843571305 -0.247918859 1.47334552 0.84482348 -0.25536111 1.49631262 0.84097755 -0.264453322 1.48609591 0.84482348 -0.25536111 1.49631262 0.843092084 -0.262851745 1.50688446 0.839046419 -0.27130127 1.5052278 0.84097755 -0.264453322 1.48609591 0.843092084 -0.262851745 1.50688446 0.814298749 -0.290374517 1.47231555 0.80695045 -0.294687301 1.48423195 0.803023815 -0.290881872 1.45206034 0.79649049 -0.29606843 1.47859716 0.80695045 -0.294687301 1.48423195 0.803536654 -0.297119111 1.5053966 0.84482348 -0.25536111 1.49631262 0.843571305 -0.247918859 1.47334552 0.846090376 -0.247323886 1.49799931 0.795315802 -0.288447917 1.43655896 0.803023815 -0.290881872 1.45206034 0.790336907 -0.292800009 1.45560789 0.795315802 -0.288447917 1.43655896 0.790336907 -0.292800009 1.45560789 0.785878539 -0.288904458 1.43880725 0.817185879 -0.275967747 1.42919481 0.827321649 -0.270794243 1.43577325 0.823133886 -0.276392937 1.43767953 0.827321649 -0.270794243 1.43577325 0.817185879 -0.275967747 1.42919481 0.823654592 -0.267743856 1.42761552 0.803023815 -0.290881872 1.45206034 0.79649049 -0.29606843 1.47859716 0.790336907 -0.292800009 1.45560789 </float_array>
          <technique_common>
            <accessor count="900" offset="0" source="#mesh_0-positions-array" stride="3">
              <param name="X" type="float" />
              <param name="Y" type="float" />
              <param name="Z" type="float" />
            </accessor>
          </technique_common>
        </source>
        <vertices id="mesh_0-vertices">
          <input semantic="POSITION" source="#mesh_0-positions" />
        </vertices>
        <polylist count="300" material="defaultMaterial">
          <input offset="0" semantic="VERTEX" source="#mesh_0-vertices" />
          <vcount>3 3 3 3 3 3 3 3 3 3 3 3 3 3 3 3 3 3 3 3 3 3 3 3 3 3 3 3 3 3 3 3 3 3 3 3 3 3 3 3 3 3 3 3 3 3 3 3 3 3 3 3 3 3 3 3 3 3 3 3 3 3 3 3 3 3 3 3 3 3 3 3 3 3 3 3 3 3 3 3 3 3 3 3 3 3 3 3 3 3 3 3 3 3 3 3 3 3 3 3 3 3 3 3 3 3 3 3 3 3 3 3 3 3 3 3 3 3 3 3 3 3 3 3 3 3 3 3 3 3 3 3 3 3 3 3 3 3 3 3 3 3 3 3 3 3 3 3 3 3 3 3 3 3 3 3 3 3 3 3 3 3 3 3 3 3 3 3 3 3 3 3 3 3 3 3 3 3 3 3 3 3 3 3 3 3 3 3 3 3 3 3 3 3 3 3 3 3 3 3 3 3 3 3 3 3 3 3 3 3 3 3 3 3 3 3 3 3 3 3 3 3 3 3 3 3 3 3 3 3 3 3 3 3 3 3 3 3 3 3 3 3 3 3 3 3 3 3 3 3 3 3 3 3 3 3 3 3 3 3 3 3 3 3 3 3 3 3 3 3 3 3 3 3 3 3 3 3 3 3 3 3 3 3 3 3 3 3 3 3 3 3 3 3 3 3 3 3 3 3 </vcount>
          <p>0 1 2 3 4 5 6 7 8 9 10 11 12 13 14 15 16 17 18 19 20 21 22 23 24 25 26 27 28 29 30 31 32 33 34 35 36 37 38 39 40 41 42 43 44 45 46 47 48 49 50 51 52 53 54 55 56 57 58 59 60 61 62 63 64 65 66 67 68 69 70 71 72 73 74 75 76 77 78 79 80 81 82 83 84 85 86 87 88 89 90 91 92 93 94 95 96 97 98 99 100 101 102 103 104 105 106 107 108 109 110 111 112 113 114 115 116 117 118 119 120 121 122 123 124 125 126 127 128 129 130 131 132 133 134 135 136 137 138 139 140 141 142 143 144 145 146 147 148 149 150 151 152 153 154 155 156 157 158 159 160 161 162 163 164 165 166 167 168 169 170 171 172 173 174 175 176 177 178 179 180 181 182 183 184 185 186 187 188 189 190 191 192 193 194 195 196 197 198 199 200 201 202 203 204 205 206 207 208 209 210 211 212 213 214 215 216 217 218 219 220 221 222 223 224 225 226 227 228 229 230 231 232 233 234 235 236 237 238 239 240 241 242 243 244 245 246 247 248 249 250 251 252 253 254 255 256 257 258 259 260 261 262 263 264 265 266 267 268 269 270 271 272 273 274 275 276 277 278 279 280 281 282 283 284 285 286 287 288 289 290 291 292 293 294 295 296 297 298 299 300 301 302 303 304 305 306 307 308 309 310 311 312 313 314 315 316 317 318 319 320 321 322 323 324 325 326 327 328 329 330 331 332 333 334 335 336 337 338 339 340 341 342 343 344 345 346 347 348 349 350 351 352 353 354 355 356 357 358 359 360 361 362 363 364 365 366 367 368 369 370 371 372 373 374 375 376 377 378 379 380 381 382 383 384 385 386 387 388 389 390 391 392 393 394 395 396 397 398 399 400 401 402 403 404 405 406 407 408 409 410 411 412 413 414 415 416 417 418 419 420 421 422 423 424 425 426 427 428 429 430 431 432 433 434 435 436 437 438 439 440 441 442 443 444 445 446 447 448 449 450 451 452 453 454 455 456 457 458 459 460 461 462 463 464 465 466 467 468 469 470 471 472 473 474 475 476 477 478 479 480 481 482 483 484 485 486 487 488 489 490 491 492 493 494 495 496 497 498 499 500 501 502 503 504 505 506 507 508 509 510 511 512 513 514 515 516 517 518 519 520 521 522 523 524 525 526 527 528 529 530 531 532 533 534 535 536 537 538 539 540 541 542 543 544 545 546 547 548 549 550 551 552 553 554 555 556 557 558 559 560 561 562 563 564 565 566 567 568 569 570 571 572 573 574 575 576 577 578 579 580 581 582 583 584 585 586 587 588 589 590 591 592 593 594 595 596 597 598 599 600 601 602 603 604 605 606 607 608 609 610 611 612 613 614 615 616 617 618 619 620 621 622 623 624 625 626 627 628 629 630 631 632 633 634 635 636 637 638 639 640 641 642 643 644 645 646 647 648 649 650 651 652 653 654 655 656 657 658 659 660 661 662 663 664 665 666 667 668 669 670 671 672 673 674 675 676 677 678 679 680 681 682 683 684 685 686 687 688 689 690 691 692 693 694 695 696 697 698 699 700 701 702 703 704 705 706 707 708 709 710 711 712 713 714 715 716 717 718 719 720 721 722 723 724 725 726 727 728 729 730 731 732 733 734 735 736 737 738 739 740 741 742 743 744 745 746 747 748 749 750 751 752 753 754 755 756 757 758 759 760 761 762 763 764 765 766 767 768 769 770 771 772 773 774 775 776 777 778 779 780 781 782 783 784 785 786 787 788 789 790 791 792 793 794 795 796 797 798 799 800 801 802 803 804 805 806 807 808 809 810 811 812 813 814 815 816 817 818 819 820 821 822 823 824 825 826 827 828 829 830 831 832 833 834 835 836 837 838 839 840 841 842 843 844 845 846 847 848 849 850 851 852 853 854 855 856 857 858 859 860 861 862 863 864 865 866 867 868 869 870 871 872 873 874 875 876 877 878 879 880 881 882 883 884 885 886 887 888 889 890 891 892 893 894 895 896 897 898 899 </p>
        </polylist>
      </mesh>
    </geometry>
  </library_geometries>
  <library_controllers>
  </library_controllers>
  <library_visual_scenes>
    <visual_scene id="Scene" name="Scene">
      <node id="node" name="" type="NODE">
        <matrix sid="matrix">1 0 0 0 0 1 0 0 0 0 1 0 0 0 0 1</matrix>
        <instance_geometry url="#mesh_0">
          <bind_material>
            <technique_common>
              <instance_material symbol="defaultMaterial" target="#material_0">
              </instance_material>
            </technique_common>
          </bind_material>
        </instance_geometry>
      </node>
    </visual_scene>
  </library_visual_scenes>
  <scene>
    <instance_visual_scene url="#Scene" />
  </scene>
</COLLADA>
