<?xml version="1.0" encoding="UTF-8" standalone="no" ?>
<COLLADA xmlns="http://www.collada.org/2005/11/COLLADASchema" version="1.4.1">
  <asset>
    <contributor>
      <author>Assimp</author>
      <authoring_tool>Assimp Exporter</authoring_tool>
    </contributor>
    <created>2026-04-22T16:09:43</created>
    <modified>2026-04-22T16:09:43</modified>
    <unit name="meter" meter="1" />
    <up_axis>Y_UP</up_axis>
  </asset>
  <library_images>
  </library_images>
  <library_effects>
    <effect id="material_0-fx" name="">
      <profile_COMMON>
        <technique sid="standard">
          <phong>
            <emission>
              <color sid="emission">0   0   0   -0</color>
            </emission>
            <ambient>
              <color sid="ambient">0.699999988   1   0.699999988   1.82499993</color>
            </ambient>
            <diffuse>
              <color sid="diffuse">0.699999988   1   0.699999988   1.82499993</color>
            </diffuse>
            <specular>
              <color sid="specular">0.25   0.25   0.25   -0</color>
            </specular>
          </phong>
        </technique>
      </profile_COMMON>
    </effect>
  </library_effects>
  <library_materials>
    <material id="material_0" name="">
      <instance_effect url="#material_0-fx"/>
    </material>
  </library_materials>
  <library_geometries>
    <geometry id="mesh_0" name="" >
      <mesh>
        <source id="mesh_0-positions" name="mesh_0-positions">
          <float_array id="mesh_0-positions-array" count="342"> 0.821838081 -0.318159997 1.58765948 0.744849741 -0.34520486 1.80605125 0.766230106 -0.368348211 1.80174363 0.744849741 -0.34520486 1.80605125 0.821838081 -0.318159997 1.58765948 0.784025252 -0.315343499 1.5721966 0.760495245 -0.319804698 1.59561408 0.744849741 -0.34520486 1.80605125 0.784025252 -0.315343499 1.5721966 0.743208528 -0.350113392 1.76771259 0.760495245 -0.319804698 1.59561408 0.762942672 -0.333444953 1.61182654 0.756587923 -0.36572361 1.78041887 0.743208528 -0.350113392 1.76771259 0.762942672 -0.333444953 1.61182654 0.774582267 -0.317501724 1.57581353 0.760495245 -0.319804698 1.59561408 0.784025252 -0.315343499 1.5721966 0.798416793 -0.325415313 1.57526195 0.774582267 -0.317501724 1.57581353 0.784025252 -0.315343499 1.5721966 0.760495245 -0.319804698 1.59561408 0.740726531 -0.348340988 1.7862016 0.744849741 -0.34520486 1.80605125 0.740726531 -0.348340988 1.7862016 0.760495245 -0.319804698 1.59561408 0.743208528 -0.350113392 1.76771259 0.756587923 -0.36572361 1.78041887 0.740726531 -0.348340988 1.7862016 0.743208528 -0.350113392 1.76771259 0.744849741 -0.34520486 1.80605125 0.740726531 -0.348340988 1.7862016 0.766230106 -0.368348211 1.80174363 0.740726531 -0.348340988 1.7862016 0.756587923 -0.36572361 1.78041887 0.766230106 -0.368348211 1.80174363 0.821838081 -0.318159997 1.58765948 0.798147142 -0.317119449 1.57198584 0.784025252 -0.315343499 1.5721966 0.798147142 -0.317119449 1.57198584 0.798416793 -0.325415313 1.57526195 0.784025252 -0.315343499 1.5721966 0.798416793 -0.325415313 1.57526195 0.798147142 -0.317119449 1.57198584 0.821838081 -0.318159997 1.58765948 0.815911114 -0.328957587 1.59298897 0.798416793 -0.325415313 1.57526195 0.821838081 -0.318159997 1.58765948 0.815911114 -0.328957587 1.59298897 0.821838081 -0.318159997 1.58765948 0.766230106 -0.368348211 1.80174363 0.759566128 -0.365101665 1.77678776 0.773764849 -0.356967837 1.7295444 0.766230106 -0.368348211 1.80174363 0.756587923 -0.36572361 1.78041887 0.759566128 -0.365101665 1.77678776 0.766230106 -0.368348211 1.80174363 0.760495245 -0.319804698 1.59561408 0.764195025 -0.319872051 1.58752739 0.762942672 -0.333444953 1.61182654 0.774582267 -0.317501724 1.57581353 0.764195025 -0.319872051 1.58752739 0.760495245 -0.319804698 1.59561408 0.772959888 -0.326834977 1.58221602 0.774582267 -0.317501724 1.57581353 0.798416793 -0.325415313 1.57526195 0.764195025 -0.319872051 1.58752739 0.772959888 -0.326834977 1.58221602 0.762942672 -0.333444953 1.61182654 0.772959888 -0.326834977 1.58221602 0.764195025 -0.319872051 1.58752739 0.774582267 -0.317501724 1.57581353 0.815911114 -0.328957587 1.59298897 0.804079473 -0.335073322 1.60432744 0.798416793 -0.325415313 1.57526195 0.773764849 -0.356967837 1.7295444 0.804079473 -0.335073322 1.60432744 0.766230106 -0.368348211 1.80174363 0.804079473 -0.335073322 1.60432744 0.815911114 -0.328957587 1.59298897 0.766230106 -0.368348211 1.80174363 0.779484451 -0.337793678 1.61743808 0.756587923 -0.36572361 1.78041887 0.762942672 -0.333444953 1.61182654 0.759566128 -0.365101665 1.77678776 0.779484451 -0.337793678 1.61743808 0.773764849 -0.356967837 1.7295444 0.779484451 -0.337793678 1.61743808 0.759566128 -0.365101665 1.77678776 0.756587923 -0.36572361 1.78041887 0.779484451 -0.337793678 1.61743808 0.804079473 -0.335073322 1.60432744 0.773764849 -0.356967837 1.7295444 0.804079473 -0.335073322 1.60432744 0.779484451 -0.337793678 1.61743808 0.791807175 -0.33537519 1.60489058 0.78631258 -0.333043039 1.59393144 0.772959888 -0.326834977 1.58221602 0.798416793 -0.325415313 1.57526195 0.804079473 -0.335073322 1.60432744 0.78631258 -0.333043039 1.59393144 0.798416793 -0.325415313 1.57526195 0.78631258 -0.333043039 1.59393144 0.804079473 -0.335073322 1.60432744 0.791807175 -0.33537519 1.60489058 0.779484451 -0.337793678 1.61743808 0.78631258 -0.333043039 1.59393144 0.791807175 -0.33537519 1.60489058 0.772959888 -0.326834977 1.58221602 0.78631258 -0.333043039 1.59393144 0.762942672 -0.333444953 1.61182654 0.78631258 -0.333043039 1.59393144 0.779484451 -0.337793678 1.61743808 0.762942672 -0.333444953 1.61182654 </float_array>
          <technique_common>
            <accessor count="114" offset="0" source="#mesh_0-positions-array" stride="3">
              <param name="X" type="float" />
              <param name="Y" type="float" />
              <param name="Z" type="float" />
            </accessor>
          </technique_common>
        </source>
        <vertices id="mesh_0-vertices">
          <input semantic="POSITION" source="#mesh_0-positions" />
        </vertices>
        <polylist count="38" material="defaultMaterial">
          <input offset="0" semantic="VERTEX" source="#mesh_0-vertices" />
          <vcount>3 3 3 3 3 3 3 3 3 3 3 3 3 3 3 3 3 3 3 3 3 3 3 3 3 3 3 3 3 3 3 3 3 3 3 3 3 3 </vcount>
          <p>0 1 2 3 4 5 6 7 8 9 10 11 12 13 14 15 16 17 18 19 20 21 22 23 24 25 26 27 28 29 30 31 32 33 34 35 36 37 38 39 40 41 42 43 44 45 46 47 48 49 50 51 52 53 54 55 56 57 58 59 60 61 62 63 64 65 66 67 68 69 70 71 72 73 74 75 76 77 78 79 80 81 82 83 84 85 86 87 88 89 90 91 92 93 94 95 96 97 98 99 100 101 102 103 104 105 106 107 108 109 110 111 112 113 </p>
        </polylist>
      </mesh>
    </geometry>
  </library_geometries>
  <library_controllers>
  </library_controllers>
  <library_visual_scenes>
    <visual_scene id="Scene" name="Scene">
      <node id="node" name="" type="NODE">
        <matrix sid="matrix">1 0 0 0 0 1 0 0 0 0 1 0 0 0 0 1</matrix>
        <instance_geometry url="#mesh_0">
          <bind_material>
            <technique_common>
              <instance_material symbol="defaultMaterial" target="#material_0">
              </instance_material>
            </technique_common>
          </bind_material>
        </instance_geometry>
      </node>
    </visual_scene>
  </library_visual_scenes>
  <scene>
    <instance_visual_scene url="#Scene" />
  </scene>
</COLLADA>
