<?xml version="1.0" encoding="UTF-8" standalone="no" ?>
<COLLADA xmlns="http://www.collada.org/2005/11/COLLADASchema" version="1.4.1">
  <asset>
    <contributor>
      <author>Assimp</author>
      <authoring_tool>Assimp Exporter</authoring_tool>
    </contributor>
    <created>2026-04-22T16:09:44</created>
    <modified>2026-04-22T16:09:44</modified>
    <unit name="meter" meter="1" />
    <up_axis>Y_UP</up_axis>
  </asset>
  <library_images>
  </library_images>
  <library_effects>
    <effect id="material_0-fx" name="">
      <profile_COMMON>
        <technique sid="standard">
          <phong>
            <emission>
              <color sid="emission">0   0   0   4.19744942e-41</color>
            </emission>
            <ambient>
              <color sid="ambient">0.729996622   0.630066335   0.634150326   4.19730929e-41</color>
            </ambient>
            <diffuse>
              <color sid="diffuse">0.729996622   0.630066335   0.634150326   4.19730929e-41</color>
            </diffuse>
            <specular>
              <color sid="specular">0.25   0.25   0.25   4.19744942e-41</color>
            </specular>
          </phong>
        </technique>
      </profile_COMMON>
    </effect>
  </library_effects>
  <library_materials>
    <material id="material_0" name="">
      <instance_effect url="#material_0-fx"/>
    </material>
  </library_materials>
  <library_geometries>
    <geometry id="mesh_0" name="" >
      <mesh>
        <source id="mesh_0-positions" name="mesh_0-positions">
          <float_array id="mesh_0-positions-array" count="2700"> -0.188002288 0.0276846066 1.07425678 -0.192971781 0.0868587419 1.08121526 -0.187293962 0.0220293868 1.27701509 -0.188002288 0.0276846066 1.07425678 -0.19405967 0.0895184726 1.07356811 -0.192971781 0.0868587419 1.08121526 -0.207576811 -0.0204009544 1.20910048 -0.19514133 0.0268539432 1.05498099 -0.188002288 0.0276846066 1.07425678 -0.19514133 0.0268539432 1.05498099 -0.197976381 0.0895942152 1.06033957 -0.188002288 0.0276846066 1.07425678 -0.207576811 -0.0204009544 1.20910048 -0.216922268 -0.0265472606 1.20960963 -0.19514133 0.0268539432 1.05498099 -0.199376315 -0.0120795118 1.20751059 -0.188002288 0.0276846066 1.07425678 -0.19193466 9.37177811e-06 1.20627534 -0.29253906 -0.000624228851 1.27704191 -0.29027313 -0.00531106489 1.2047385 -0.286384553 -0.0111588137 1.27704048 -0.286358267 0.01887317 1.04974449 -0.284155816 0.0833011791 1.04139018 -0.274544835 0.0199253894 1.0380367 -0.268587232 0.145498097 1.10022461 -0.270459145 0.0696744919 1.27703428 -0.257713914 0.0752433464 1.27703071 -0.278460115 0.140975252 1.09923244 -0.270459145 0.0696744919 1.27703428 -0.268587232 0.145498097 1.10022461 -0.222249061 0.142938301 1.09910989 -0.225120708 0.074619554 1.27702165 -0.209224835 0.0663738698 1.27701735 -0.232083365 0.087519072 1.03026009 -0.2140771 0.0252071824 1.03574562 -0.229056627 0.0238942262 1.02957988 -0.2140771 0.0252071824 1.03574562 -0.232083365 0.087519072 1.03026009 -0.219558582 0.0892468765 1.03599703 -0.234193653 -0.032146208 1.2086066 -0.2140771 0.0252071824 1.03574562 -0.226378903 -0.030362865 1.20915294 -0.234193653 -0.032146208 1.2086066 -0.229056627 0.0238942262 1.02957988 -0.2140771 0.0252071824 1.03574562 -0.274544835 0.0199253894 1.0380367 -0.251644671 -0.032124985 1.20944488 -0.286358267 0.01887317 1.04974449 -0.216922268 -0.0265472606 1.20960963 -0.203637391 0.026118258 1.04422843 -0.19514133 0.0268539432 1.05498099 -0.226378903 -0.030362865 1.20915294 -0.203637391 0.026118258 1.04422843 -0.216922268 -0.0265472606 1.20960963 -0.226378903 -0.030362865 1.20915294 -0.2140771 0.0252071824 1.03574562 -0.203637391 0.026118258 1.04422843 -0.197976381 0.0895942152 1.06033957 -0.19405967 0.0895184726 1.07356811 -0.188002288 0.0276846066 1.07425678 -0.207576811 -0.0204009544 1.20910048 -0.188002288 0.0276846066 1.07425678 -0.199376315 -0.0120795118 1.20751059 -0.295744509 0.126607165 1.09483671 -0.297942221 0.125406548 1.08669329 -0.29327631 0.0438407958 1.2770406 -0.297184318 0.018028615 1.07661974 -0.29027313 -0.00531106489 1.2047385 -0.294573426 0.0044463044 1.20115435 -0.297844738 0.0224972516 1.27705264 -0.297184318 0.018028615 1.07661974 -0.296055943 0.00931507908 1.27704275 -0.274522811 -0.0225702394 1.20881474 -0.297184318 0.018028615 1.07661974 -0.293544978 0.0182535201 1.06248462 -0.274544835 0.0199253894 1.0380367 -0.241109714 -0.0327453986 1.2087872 -0.251644671 -0.032124985 1.20944488 -0.260412872 0.021157695 1.03090894 -0.241109714 -0.0327453986 1.2087872 -0.274544835 0.0199253894 1.0380367 -0.274544835 0.0199253894 1.0380367 -0.269487888 0.0846684501 1.0321281 -0.260412872 0.021157695 1.03090894 -0.255887806 0.0857971013 1.02852511 -0.260412872 0.021157695 1.03090894 -0.269487888 0.0846684501 1.0321281 -0.255887806 0.0857971013 1.02852511 -0.245019913 0.0224930402 1.02780831 -0.260412872 0.021157695 1.03090894 -0.299017936 0.0802640989 1.06267059 -0.293544978 0.0182535201 1.06248462 -0.297184318 0.018028615 1.07661974 -0.187293962 0.0220293868 1.27701509 -0.188098162 0.0134042036 1.20172536 -0.188002288 0.0276846066 1.07425678 -0.253009915 0.150867045 1.09044456 -0.257054865 0.148529753 1.09975994 -0.247280315 0.148666188 1.10126662 -0.257054865 0.148529753 1.09975994 -0.241664842 0.0774043128 1.27702618 -0.247280315 0.148666188 1.10126662 -0.257054865 0.148529753 1.09975994 -0.257713914 0.0752433464 1.27703071 -0.241664842 0.0774043128 1.27702618 -0.214637205 0.138707489 1.09775269 -0.222249061 0.142938301 1.09910989 -0.209224835 0.0663738698 1.27701735 -0.205772132 0.133325472 1.08601534 -0.197252631 0.0537578315 1.27701414 -0.190415114 0.0404416099 1.27701306 -0.205772132 0.133325472 1.08601534 -0.207470804 0.13355495 1.09474874 -0.197252631 0.0537578315 1.27701414 -0.214637205 0.138707489 1.09775269 -0.209224835 0.0663738698 1.27701735 -0.207470804 0.13355495 1.09474874 -0.263736308 0.14957124 1.08413815 -0.260581642 0.149731427 1.07528675 -0.268527478 0.147002131 1.0716325 -0.270459145 0.0696744919 1.27703428 -0.278460115 0.140975252 1.09923244 -0.289014459 0.13320829 1.098248 -0.234193653 -0.032146208 1.2086066 -0.245019913 0.0224930402 1.02780831 -0.229056627 0.0238942262 1.02957988 -0.197976381 0.0895942152 1.06033957 -0.19514133 0.0268539432 1.05498099 -0.203669265 0.089850381 1.05076885 -0.192971781 0.0868587419 1.08121526 -0.19405967 0.0895184726 1.07356811 -0.198032305 0.107993342 1.08138311 -0.19405967 0.0895184726 1.07356811 -0.197976381 0.0895942152 1.06033957 -0.200142696 0.105244137 1.06564784 -0.216922268 -0.0265472606 1.20960963 -0.207576811 -0.0204009544 1.20910048 -0.210152432 -0.0223816782 1.27701938 -0.199376315 -0.0120795118 1.20751059 -0.194147184 -0.00425536837 1.27701485 -0.201737449 -0.0149446279 1.27701724 -0.19193466 9.37177811e-06 1.20627534 -0.194147184 -0.00425536837 1.27701485 -0.199376315 -0.0120795118 1.20751059 -0.201737449 -0.0149446279 1.27701724 -0.207576811 -0.0204009544 1.20910048 -0.199376315 -0.0120795118 1.20751059 -0.297942221 0.125406548 1.08669329 -0.3012169 0.0991004705 1.08083093 -0.297844738 0.0224972516 1.27705264 -0.3012169 0.0991004705 1.08083093 -0.302540869 0.0782582909 1.07841074 -0.297844738 0.0224972516 1.27705264 -0.294573426 0.0044463044 1.20115435 -0.29253906 -0.000624228851 1.27704191 -0.296055943 0.00931507908 1.27704275 -0.295744509 0.126607165 1.09483671 -0.283288598 0.0594711863 1.27703822 -0.289014459 0.13320829 1.098248 -0.294573426 0.0044463044 1.20115435 -0.29027313 -0.00531106489 1.2047385 -0.29253906 -0.000624228851 1.27704191 -0.296055943 0.00931507908 1.27704275 -0.297184318 0.018028615 1.07661974 -0.294573426 0.0044463044 1.20115435 -0.302540869 0.0782582909 1.07841074 -0.297184318 0.018028615 1.07661974 -0.297844738 0.0224972516 1.27705264 -0.265895039 -0.0276777931 1.20924771 -0.274522811 -0.0225702394 1.20881474 -0.293544978 0.0182535201 1.06248462 -0.284155816 0.0833011791 1.04139018 -0.293091059 0.0814917237 1.05159116 -0.289210439 0.101592153 1.04969215 -0.241109714 -0.0327453986 1.2087872 -0.260412872 0.021157695 1.03090894 -0.245019913 0.0224930402 1.02780831 -0.241109714 -0.0327453986 1.2087872 -0.245019913 0.0224930402 1.02780831 -0.234193653 -0.032146208 1.2086066 -0.258416384 0.10574542 1.0321275 -0.269487888 0.0846684501 1.0321281 -0.269654512 0.105278902 1.0355655 -0.258416384 0.10574542 1.0321275 -0.269654512 0.105278902 1.0355655 -0.264828116 0.127737612 1.03822577 -0.275031507 0.104441009 1.03816926 -0.269487888 0.0846684501 1.0321281 -0.284155816 0.0833011791 1.04139018 -0.284155816 0.0833011791 1.04139018 -0.281041443 0.103150092 1.04208386 -0.275031507 0.104441009 1.03816926 -0.269487888 0.0846684501 1.0321281 -0.274544835 0.0199253894 1.0380367 -0.284155816 0.0833011791 1.04139018 -0.244776219 0.0867057145 1.02801883 -0.229056627 0.0238942262 1.02957988 -0.245019913 0.0224930402 1.02780831 -0.244776219 0.0867057145 1.02801883 -0.232083365 0.087519072 1.03026009 -0.229056627 0.0238942262 1.02957988 -0.189230099 0.00771448668 1.2770133 -0.188098162 0.0134042036 1.20172536 -0.187293962 0.0220293868 1.27701509 -0.188002288 0.0276846066 1.07425678 -0.188098162 0.0134042036 1.20172536 -0.19193466 9.37177811e-06 1.20627534 -0.234322995 0.147263095 1.1002512 -0.241664842 0.0774043128 1.27702618 -0.225120708 0.074619554 1.27702165 -0.234322995 0.147263095 1.1002512 -0.247280315 0.148666188 1.10126662 -0.241664842 0.0774043128 1.27702618 -0.267663062 0.147670552 1.09261227 -0.257054865 0.148529753 1.09975994 -0.253009915 0.150867045 1.09044456 -0.223340034 0.145285919 1.09168315 -0.229377255 0.148342386 1.08710742 -0.234322995 0.147263095 1.1002512 -0.222249061 0.142938301 1.09910989 -0.234322995 0.147263095 1.1002512 -0.225120708 0.074619554 1.27702165 -0.207470804 0.13355495 1.09474874 -0.209224835 0.0663738698 1.27701735 -0.197252631 0.0537578315 1.27701414 -0.190415114 0.0404416099 1.27701306 -0.187293962 0.0220293868 1.27701509 -0.192971781 0.0868587419 1.08121526 -0.192971781 0.0868587419 1.08121526 -0.198032305 0.107993342 1.08138311 -0.190415114 0.0404416099 1.27701306 -0.249838665 0.151560783 1.08250821 -0.263736308 0.14957124 1.08413815 -0.253009915 0.150867045 1.09044456 -0.263736308 0.14957124 1.08413815 -0.267663062 0.147670552 1.09261227 -0.253009915 0.150867045 1.09044456 -0.297942221 0.125406548 1.08669329 -0.297844738 0.0224972516 1.27705264 -0.29327631 0.0438407958 1.2770406 -0.274282902 0.145738259 1.08349597 -0.263736308 0.14957124 1.08413815 -0.268527478 0.147002131 1.0716325 -0.283288598 0.0594711863 1.27703822 -0.270459145 0.0696744919 1.27703428 -0.289014459 0.13320829 1.098248 -0.250712186 -0.0322931372 1.27703094 -0.241109714 -0.0327453986 1.2087872 -0.237696975 -0.0326682739 1.27702761 -0.205772132 0.133325472 1.08601534 -0.190415114 0.0404416099 1.27701306 -0.198032305 0.107993342 1.08138311 -0.203637391 0.026118258 1.04422843 -0.203669265 0.089850381 1.05076885 -0.19514133 0.0268539432 1.05498099 -0.203669265 0.089850381 1.05076885 -0.203637391 0.026118258 1.04422843 -0.211884111 0.0906676054 1.04188275 -0.203637391 0.026118258 1.04422843 -0.2140771 0.0252071824 1.03574562 -0.211884111 0.0906676054 1.04188275 -0.295744509 0.126607165 1.09483671 -0.29327631 0.0438407958 1.2770406 -0.283288598 0.0594711863 1.27703822 -0.297184318 0.018028615 1.07661974 -0.274522811 -0.0225702394 1.20881474 -0.282380998 -0.0157245621 1.20686543 -0.286358267 0.01887317 1.04974449 -0.293091059 0.0814917237 1.05159116 -0.284155816 0.0833011791 1.04139018 -0.255887806 0.0857971013 1.02852511 -0.244776219 0.0867057145 1.02801883 -0.245019913 0.0224930402 1.02780831 -0.189230099 0.00771448668 1.2770133 -0.19193466 9.37177811e-06 1.20627534 -0.188098162 0.0134042036 1.20172536 -0.244649827 0.150078714 1.07034135 -0.251144081 0.15083167 1.07445753 -0.249838665 0.151560783 1.08250821 -0.257054865 0.148529753 1.09975994 -0.268587232 0.145498097 1.10022461 -0.257713914 0.0752433464 1.27703071 -0.241832614 0.150557443 1.09133506 -0.253009915 0.150867045 1.09044456 -0.247280315 0.148666188 1.10126662 -0.257054865 0.148529753 1.09975994 -0.267663062 0.147670552 1.09261227 -0.268587232 0.145498097 1.10022461 -0.239642873 0.147321597 1.06257117 -0.236014217 0.15007776 1.07877231 -0.22727938 0.146758527 1.07331896 -0.234322995 0.147263095 1.1002512 -0.222249061 0.142938301 1.09910989 -0.223340034 0.145285919 1.09168315 -0.206137061 0.133489713 1.07627642 -0.213349283 0.139811963 1.08894587 -0.205772132 0.133325472 1.08601534 -0.206137061 0.133489713 1.07627642 -0.216487169 0.142210335 1.07973945 -0.213349283 0.139811963 1.08894587 -0.278715909 0.142785579 1.07508492 -0.276611626 0.140099376 1.06150866 -0.284945488 0.136554867 1.06722784 -0.267663062 0.147670552 1.09261227 -0.263736308 0.14957124 1.08413815 -0.274282902 0.145738259 1.08349597 -0.257906199 0.148238704 1.06592274 -0.267717451 0.14478901 1.06310129 -0.268527478 0.147002131 1.0716325 -0.244649827 0.150078714 1.07034135 -0.236014217 0.15007776 1.07877231 -0.239642873 0.147321597 1.06257117 -0.274282902 0.145738259 1.08349597 -0.268527478 0.147002131 1.0716325 -0.278715909 0.142785579 1.07508492 -0.241109714 -0.0327453986 1.2087872 -0.234193653 -0.032146208 1.2086066 -0.237696975 -0.0326682739 1.27702761 -0.198032305 0.107993342 1.08138311 -0.206137061 0.133489713 1.07627642 -0.205772132 0.133325472 1.08601534 -0.198032305 0.107993342 1.08138311 -0.202222452 0.119420543 1.07286227 -0.206137061 0.133489713 1.07627642 -0.207576811 -0.0204009544 1.20910048 -0.201737449 -0.0149446279 1.27701724 -0.210152432 -0.0223816782 1.27701938 -0.194147184 -0.00425536837 1.27701485 -0.19193466 9.37177811e-06 1.20627534 -0.189230099 0.00771448668 1.2770133 -0.297893107 0.124532506 1.07604849 -0.297942221 0.125406548 1.08669329 -0.294816792 0.12939781 1.07764566 -0.3012169 0.0991004705 1.08083093 -0.297942221 0.125406548 1.08669329 -0.297893107 0.124532506 1.07604849 -0.251644671 -0.032124985 1.20944488 -0.265895039 -0.0276777931 1.20924771 -0.286358267 0.01887317 1.04974449 -0.265895039 -0.0276777931 1.20924771 -0.293544978 0.0182535201 1.06248462 -0.286358267 0.01887317 1.04974449 -0.189230099 0.00771448668 1.2770133 -0.264894426 -0.0282154065 1.27703547 -0.250712186 -0.0322931372 1.27703094 -0.201737449 -0.0149446279 1.27701724 -0.194147184 -0.00425536837 1.27701485 -0.189230099 0.00771448668 1.2770133 -0.189230099 0.00771448668 1.2770133 -0.257713914 0.0752433464 1.27703071 -0.270459145 0.0696744919 1.27703428 -0.209224835 0.0663738698 1.27701735 -0.225120708 0.074619554 1.27702165 -0.189230099 0.00771448668 1.2770133 -0.189230099 0.00771448668 1.2770133 -0.221889541 -0.0290609002 1.27702308 -0.210152432 -0.0223816782 1.27701938 -0.189230099 0.00771448668 1.2770133 -0.190415114 0.0404416099 1.27701306 -0.197252631 0.0537578315 1.27701414 -0.189230099 0.00771448668 1.2770133 -0.225120708 0.074619554 1.27702165 -0.241664842 0.0774043128 1.27702618 -0.189230099 0.00771448668 1.2770133 -0.241664842 0.0774043128 1.27702618 -0.257713914 0.0752433464 1.27703071 -0.189230099 0.00771448668 1.2770133 -0.197252631 0.0537578315 1.27701414 -0.209224835 0.0663738698 1.27701735 -0.189230099 0.00771448668 1.2770133 -0.250712186 -0.0322931372 1.27703094 -0.237696975 -0.0326682739 1.27702761 -0.189230099 0.00771448668 1.2770133 -0.210152432 -0.0223816782 1.27701938 -0.201737449 -0.0149446279 1.27701724 -0.237696975 -0.0326682739 1.27702761 -0.221889541 -0.0290609002 1.27702308 -0.189230099 0.00771448668 1.2770133 -0.189230099 0.00771448668 1.2770133 -0.187293962 0.0220293868 1.27701509 -0.190415114 0.0404416099 1.27701306 -0.300259501 0.0922077522 1.06976902 -0.296036184 0.100053824 1.05999267 -0.299017936 0.0802640989 1.06267059 -0.293091059 0.0814917237 1.05159116 -0.293544978 0.0182535201 1.06248462 -0.299017936 0.0802640989 1.06267059 -0.293544978 0.0182535201 1.06248462 -0.293091059 0.0814917237 1.05159116 -0.286358267 0.01887317 1.04974449 -0.296036184 0.100053824 1.05999267 -0.289210439 0.101592153 1.04969215 -0.293091059 0.0814917237 1.05159116 -0.289206386 0.125873625 1.055493 -0.296036184 0.100053824 1.05999267 -0.294270843 0.125773683 1.06476557 -0.296036184 0.100053824 1.05999267 -0.293091059 0.0814917237 1.05159116 -0.299017936 0.0802640989 1.06267059 -0.264894426 -0.0282154065 1.27703547 -0.265895039 -0.0276777931 1.20924771 -0.251644671 -0.032124985 1.20944488 -0.275031507 0.104441009 1.03816926 -0.269654512 0.105278902 1.0355655 -0.269487888 0.0846684501 1.0321281 -0.289206386 0.125873625 1.055493 -0.278884172 0.13181676 1.05055106 -0.282920063 0.126444191 1.04863942 -0.269487888 0.0846684501 1.0321281 -0.258416384 0.10574542 1.0321275 -0.255887806 0.0857971013 1.02852511 -0.248118773 0.108749561 1.03182554 -0.255887806 0.0857971013 1.02852511 -0.258416384 0.10574542 1.0321275 -0.295749396 0.125098795 1.06759715 -0.300259501 0.0922077522 1.06976902 -0.297893107 0.124532506 1.07604849 -0.302540869 0.0782582909 1.07841074 -0.300259501 0.0922077522 1.06976902 -0.299017936 0.0802640989 1.06267059 -0.302540869 0.0782582909 1.07841074 -0.299017936 0.0802640989 1.06267059 -0.297184318 0.018028615 1.07661974 -0.257906199 0.148238704 1.06592274 -0.251144081 0.15083167 1.07445753 -0.253087759 0.146589965 1.05950832 -0.253009915 0.150867045 1.09044456 -0.241832614 0.150557443 1.09133506 -0.249838665 0.151560783 1.08250821 -0.236014217 0.15007776 1.07877231 -0.244649827 0.150078714 1.07034135 -0.249838665 0.151560783 1.08250821 -0.236014217 0.15007776 1.07877231 -0.229377255 0.148342386 1.08710742 -0.22727938 0.146758527 1.07331896 -0.22727938 0.146758527 1.07331896 -0.216487169 0.142210335 1.07973945 -0.219789222 0.142346308 1.06929779 -0.234322995 0.147263095 1.1002512 -0.229377255 0.148342386 1.08710742 -0.241832614 0.150557443 1.09133506 -0.213349283 0.139811963 1.08894587 -0.214637205 0.138707489 1.09775269 -0.207470804 0.13355495 1.09474874 -0.249838665 0.151560783 1.08250821 -0.260581642 0.149731427 1.07528675 -0.263736308 0.14957124 1.08413815 -0.249838665 0.151560783 1.08250821 -0.251144081 0.15083167 1.07445753 -0.260581642 0.149731427 1.07528675 -0.283246934 0.140401065 1.08078063 -0.278715909 0.142785579 1.07508492 -0.284945488 0.136554867 1.06722784 -0.288757712 0.135402516 1.07572436 -0.283246934 0.140401065 1.08078063 -0.284945488 0.136554867 1.06722784 -0.260581642 0.149731427 1.07528675 -0.257906199 0.148238704 1.06592274 -0.268527478 0.147002131 1.0716325 -0.253087759 0.146589965 1.05950832 -0.244649827 0.150078714 1.07034135 -0.239642873 0.147321597 1.06257117 -0.251144081 0.15083167 1.07445753 -0.244649827 0.150078714 1.07034135 -0.253087759 0.146589965 1.05950832 -0.253087759 0.146589965 1.05950832 -0.267717451 0.14478901 1.06310129 -0.257906199 0.148238704 1.06592274 -0.274282902 0.145738259 1.08349597 -0.284200668 0.1390277 1.09199822 -0.267663062 0.147670552 1.09261227 -0.234193653 -0.032146208 1.2086066 -0.221889541 -0.0290609002 1.27702308 -0.237696975 -0.0326682739 1.27702761 -0.221889541 -0.0290609002 1.27702308 -0.234193653 -0.032146208 1.2086066 -0.226378903 -0.030362865 1.20915294 -0.241109714 -0.0327453986 1.2087872 -0.250712186 -0.0322931372 1.27703094 -0.251644671 -0.032124985 1.20944488 -0.282380998 -0.0157245621 1.20686543 -0.29027313 -0.00531106489 1.2047385 -0.297184318 0.018028615 1.07661974 -0.274522811 -0.0225702394 1.20881474 -0.276964456 -0.0207325704 1.27703846 -0.282380998 -0.0157245621 1.20686543 -0.197976381 0.0895942152 1.06033957 -0.206838995 0.117538162 1.05905592 -0.200142696 0.105244137 1.06564784 -0.211884111 0.0906676054 1.04188275 -0.210040197 0.109418847 1.05044627 -0.203669265 0.089850381 1.05076885 -0.19405967 0.0895184726 1.07356811 -0.200142696 0.105244137 1.06564784 -0.202222452 0.119420543 1.07286227 -0.202222452 0.119420543 1.07286227 -0.198032305 0.107993342 1.08138311 -0.19405967 0.0895184726 1.07356811 -0.210152432 -0.0223816782 1.27701938 -0.221889541 -0.0290609002 1.27702308 -0.216922268 -0.0265472606 1.20960963 -0.221889541 -0.0290609002 1.27702308 -0.226378903 -0.030362865 1.20915294 -0.216922268 -0.0265472606 1.20960963 -0.295749396 0.125098795 1.06759715 -0.297893107 0.124532506 1.07604849 -0.294816792 0.12939781 1.07764566 -0.297893107 0.124532506 1.07604849 -0.300259501 0.0922077522 1.06976902 -0.3012169 0.0991004705 1.08083093 -0.296055943 0.00931507908 1.27704275 -0.276964456 -0.0207325704 1.27703846 -0.264894426 -0.0282154065 1.27703547 -0.189230099 0.00771448668 1.2770133 -0.296055943 0.00931507908 1.27704275 -0.264894426 -0.0282154065 1.27703547 -0.296055943 0.00931507908 1.27704275 -0.286384553 -0.0111588137 1.27704048 -0.276964456 -0.0207325704 1.27703846 -0.296055943 0.00931507908 1.27704275 -0.29253906 -0.000624228851 1.27704191 -0.286384553 -0.0111588137 1.27704048 -0.296055943 0.00931507908 1.27704275 -0.29327631 0.0438407958 1.2770406 -0.297844738 0.0224972516 1.27705264 -0.296055943 0.00931507908 1.27704275 -0.283288598 0.0594711863 1.27703822 -0.29327631 0.0438407958 1.2770406 -0.270459145 0.0696744919 1.27703428 -0.283288598 0.0594711863 1.27703822 -0.296055943 0.00931507908 1.27704275 -0.296055943 0.00931507908 1.27704275 -0.189230099 0.00771448668 1.2770133 -0.270459145 0.0696744919 1.27703428 -0.276964456 -0.0207325704 1.27703846 -0.274522811 -0.0225702394 1.20881474 -0.264894426 -0.0282154065 1.27703547 -0.296036184 0.100053824 1.05999267 -0.300259501 0.0922077522 1.06976902 -0.295749396 0.125098795 1.06759715 -0.264828116 0.127737612 1.03822577 -0.269654512 0.105278902 1.0355655 -0.269742519 0.128222704 1.04042494 -0.257995278 0.132265061 1.03997064 -0.264828116 0.127737612 1.03822577 -0.269742519 0.128222704 1.04042494 -0.262063086 0.13626717 1.04540718 -0.257995278 0.132265061 1.03997064 -0.269742519 0.128222704 1.04042494 -0.278884172 0.13181676 1.05055106 -0.269817799 0.13738735 1.0506717 -0.269742519 0.128222704 1.04042494 -0.278884172 0.13181676 1.05055106 -0.269742519 0.128222704 1.04042494 -0.276250899 0.127147004 1.04353571 -0.289206386 0.125873625 1.055493 -0.294270843 0.125773683 1.06476557 -0.290911913 0.130659536 1.066414 -0.284350604 0.132298514 1.05732143 -0.289206386 0.125873625 1.055493 -0.290911913 0.130659536 1.066414 -0.276611626 0.140099376 1.06150866 -0.269817799 0.13738735 1.0506717 -0.278884172 0.13181676 1.05055106 -0.278884172 0.13181676 1.05055106 -0.284350604 0.132298514 1.05732143 -0.276611626 0.140099376 1.06150866 -0.278884172 0.13181676 1.05055106 -0.289206386 0.125873625 1.055493 -0.284350604 0.132298514 1.05732143 -0.289206386 0.125873625 1.055493 -0.289210439 0.101592153 1.04969215 -0.296036184 0.100053824 1.05999267 -0.255887806 0.0857971013 1.02852511 -0.248118773 0.108749561 1.03182554 -0.244776219 0.0867057145 1.02801883 -0.302540869 0.0782582909 1.07841074 -0.3012169 0.0991004705 1.08083093 -0.300259501 0.0922077522 1.06976902 -0.269742519 0.128222704 1.04042494 -0.269817799 0.13738735 1.0506717 -0.262063086 0.13626717 1.04540718 -0.236007854 0.14275901 1.05428123 -0.249862105 0.142001182 1.05045795 -0.239642873 0.147321597 1.06257117 -0.257995278 0.132265061 1.03997064 -0.254638672 0.128976554 1.03670943 -0.264828116 0.127737612 1.03822577 -0.238584459 0.108535461 1.03296137 -0.244776219 0.0867057145 1.02801883 -0.248118773 0.108749561 1.03182554 -0.238584459 0.108535461 1.03296137 -0.232083365 0.087519072 1.03026009 -0.244776219 0.0867057145 1.02801883 -0.254638672 0.128976554 1.03670943 -0.248118773 0.108749561 1.03182554 -0.258416384 0.10574542 1.0321275 -0.209593102 0.133167163 1.06426144 -0.215447247 0.132507995 1.05451667 -0.218389943 0.138285875 1.06054425 -0.22727938 0.146758527 1.07331896 -0.229377255 0.148342386 1.08710742 -0.216487169 0.142210335 1.07973945 -0.241832614 0.150557443 1.09133506 -0.247280315 0.148666188 1.10126662 -0.234322995 0.147263095 1.1002512 -0.222249061 0.142938301 1.09910989 -0.214637205 0.138707489 1.09775269 -0.213349283 0.139811963 1.08894587 -0.213349283 0.139811963 1.08894587 -0.223340034 0.145285919 1.09168315 -0.222249061 0.142938301 1.09910989 -0.284945488 0.136554867 1.06722784 -0.284350604 0.132298514 1.05732143 -0.290911913 0.130659536 1.066414 -0.267717451 0.14478901 1.06310129 -0.276611626 0.140099376 1.06150866 -0.268527478 0.147002131 1.0716325 -0.294816792 0.12939781 1.07764566 -0.297942221 0.125406548 1.08669329 -0.289960563 0.134868354 1.08617151 -0.288757712 0.135402516 1.07572436 -0.284945488 0.136554867 1.06722784 -0.290911913 0.130659536 1.066414 -0.260581642 0.149731427 1.07528675 -0.251144081 0.15083167 1.07445753 -0.257906199 0.148238704 1.06592274 -0.257995278 0.132265061 1.03997064 -0.262063086 0.13626717 1.04540718 -0.249509707 0.135852799 1.0425303 -0.249509707 0.135852799 1.0425303 -0.262063086 0.13626717 1.04540718 -0.249862105 0.142001182 1.05045795 -0.264808297 0.141688287 1.05433321 -0.253087759 0.146589965 1.05950832 -0.249862105 0.142001182 1.05045795 -0.253087759 0.146589965 1.05950832 -0.264808297 0.141688287 1.05433321 -0.267717451 0.14478901 1.06310129 -0.284200668 0.1390277 1.09199822 -0.289014459 0.13320829 1.098248 -0.278460115 0.140975252 1.09923244 -0.282380998 -0.0157245621 1.20686543 -0.276964456 -0.0207325704 1.27703846 -0.286384553 -0.0111588137 1.27704048 -0.282380998 -0.0157245621 1.20686543 -0.286384553 -0.0111588137 1.27704048 -0.29027313 -0.00531106489 1.2047385 -0.219558582 0.0892468765 1.03599703 -0.211884111 0.0906676054 1.04188275 -0.2140771 0.0252071824 1.03574562 -0.284200668 0.1390277 1.09199822 -0.289960563 0.134868354 1.08617151 -0.289014459 0.13320829 1.098248 -0.274522811 -0.0225702394 1.20881474 -0.265895039 -0.0276777931 1.20924771 -0.264894426 -0.0282154065 1.27703547 -0.281041443 0.103150092 1.04208386 -0.276250899 0.127147004 1.04353571 -0.275031507 0.104441009 1.03816926 -0.269654512 0.105278902 1.0355655 -0.275031507 0.104441009 1.03816926 -0.276250899 0.127147004 1.04353571 -0.269654512 0.105278902 1.0355655 -0.276250899 0.127147004 1.04353571 -0.269742519 0.128222704 1.04042494 -0.282920063 0.126444191 1.04863942 -0.276250899 0.127147004 1.04353571 -0.281041443 0.103150092 1.04208386 -0.281041443 0.103150092 1.04208386 -0.284155816 0.0833011791 1.04139018 -0.289210439 0.101592153 1.04969215 -0.262063086 0.13626717 1.04540718 -0.269817799 0.13738735 1.0506717 -0.264808297 0.141688287 1.05433321 -0.236014217 0.15007776 1.07877231 -0.241832614 0.150557443 1.09133506 -0.229377255 0.148342386 1.08710742 -0.236014217 0.15007776 1.07877231 -0.249838665 0.151560783 1.08250821 -0.241832614 0.150557443 1.09133506 -0.240399599 0.135985255 1.04357135 -0.236007854 0.14275901 1.05428123 -0.231918663 0.135508761 1.04580617 -0.240399599 0.135985255 1.04357135 -0.249862105 0.142001182 1.05045795 -0.236007854 0.14275901 1.05428123 -0.243167698 0.129879519 1.03734982 -0.249509707 0.135852799 1.0425303 -0.240399599 0.135985255 1.04357135 -0.238584459 0.108535461 1.03296137 -0.248118773 0.108749561 1.03182554 -0.243167698 0.129879519 1.03734982 -0.225007206 0.140502572 1.05773056 -0.228906423 0.14485468 1.06390393 -0.219789222 0.142346308 1.06929779 -0.219789222 0.142346308 1.06929779 -0.218389943 0.138285875 1.06054425 -0.225007206 0.140502572 1.05773056 -0.22727938 0.146758527 1.07331896 -0.219789222 0.142346308 1.06929779 -0.228906423 0.14485468 1.06390393 -0.239642873 0.147321597 1.06257117 -0.22727938 0.146758527 1.07331896 -0.228906423 0.14485468 1.06390393 -0.209593102 0.133167163 1.06426144 -0.218389943 0.138285875 1.06054425 -0.213029489 0.137205184 1.06737292 -0.205772132 0.133325472 1.08601534 -0.213349283 0.139811963 1.08894587 -0.207470804 0.13355495 1.09474874 -0.213349283 0.139811963 1.08894587 -0.216487169 0.142210335 1.07973945 -0.223340034 0.145285919 1.09168315 -0.223340034 0.145285919 1.09168315 -0.216487169 0.142210335 1.07973945 -0.229377255 0.148342386 1.08710742 -0.294270843 0.125773683 1.06476557 -0.296036184 0.100053824 1.05999267 -0.295749396 0.125098795 1.06759715 -0.294816792 0.12939781 1.07764566 -0.289960563 0.134868354 1.08617151 -0.288757712 0.135402516 1.07572436 -0.278715909 0.142785579 1.07508492 -0.268527478 0.147002131 1.0716325 -0.276611626 0.140099376 1.06150866 -0.276611626 0.140099376 1.06150866 -0.264808297 0.141688287 1.05433321 -0.269817799 0.13738735 1.0506717 -0.264808297 0.141688287 1.05433321 -0.249862105 0.142001182 1.05045795 -0.262063086 0.13626717 1.04540718 -0.278460115 0.140975252 1.09923244 -0.267663062 0.147670552 1.09261227 -0.284200668 0.1390277 1.09199822 -0.278460115 0.140975252 1.09923244 -0.268587232 0.145498097 1.10022461 -0.267663062 0.147670552 1.09261227 -0.230278641 0.111729942 1.03627777 -0.225900784 0.131024182 1.0443244 -0.219558582 0.0892468765 1.03599703 -0.210040197 0.109418847 1.05044627 -0.206838995 0.117538162 1.05905592 -0.203669265 0.089850381 1.05076885 -0.197976381 0.0895942152 1.06033957 -0.203669265 0.089850381 1.05076885 -0.206838995 0.117538162 1.05905592 -0.289014459 0.13320829 1.098248 -0.289960563 0.134868354 1.08617151 -0.295744509 0.126607165 1.09483671 -0.289960563 0.134868354 1.08617151 -0.297942221 0.125406548 1.08669329 -0.295744509 0.126607165 1.09483671 -0.264894426 -0.0282154065 1.27703547 -0.251644671 -0.032124985 1.20944488 -0.250712186 -0.0322931372 1.27703094 -0.276250899 0.127147004 1.04353571 -0.282920063 0.126444191 1.04863942 -0.278884172 0.13181676 1.05055106 -0.289210439 0.101592153 1.04969215 -0.282920063 0.126444191 1.04863942 -0.281041443 0.103150092 1.04208386 -0.289210439 0.101592153 1.04969215 -0.289206386 0.125873625 1.055493 -0.282920063 0.126444191 1.04863942 -0.249509707 0.135852799 1.0425303 -0.254638672 0.128976554 1.03670943 -0.257995278 0.132265061 1.03997064 -0.254638672 0.128976554 1.03670943 -0.258416384 0.10574542 1.0321275 -0.264828116 0.127737612 1.03822577 -0.23228693 0.130817249 1.0409224 -0.243167698 0.129879519 1.03734982 -0.240399599 0.135985255 1.04357135 -0.23228693 0.130817249 1.0409224 -0.240399599 0.135985255 1.04357135 -0.231918663 0.135508761 1.04580617 -0.23228693 0.130817249 1.0409224 -0.225900784 0.131024182 1.0443244 -0.230278641 0.111729942 1.03627777 -0.209593102 0.133167163 1.06426144 -0.206838995 0.117538162 1.05905592 -0.215447247 0.132507995 1.05451667 -0.227676883 0.138328329 1.05165195 -0.231918663 0.135508761 1.04580617 -0.236007854 0.14275901 1.05428123 -0.210040197 0.109418847 1.05044627 -0.215447247 0.132507995 1.05451667 -0.206838995 0.117538162 1.05905592 -0.227676883 0.138328329 1.05165195 -0.218389943 0.138285875 1.06054425 -0.215447247 0.132507995 1.05451667 -0.294816792 0.12939781 1.07764566 -0.294270843 0.125773683 1.06476557 -0.295749396 0.125098795 1.06759715 -0.264808297 0.141688287 1.05433321 -0.276611626 0.140099376 1.06150866 -0.267717451 0.14478901 1.06310129 -0.288757712 0.135402516 1.07572436 -0.289960563 0.134868354 1.08617151 -0.283246934 0.140401065 1.08078063 -0.284200668 0.1390277 1.09199822 -0.283246934 0.140401065 1.08078063 -0.289960563 0.134868354 1.08617151 -0.283246934 0.140401065 1.08078063 -0.284200668 0.1390277 1.09199822 -0.274282902 0.145738259 1.08349597 -0.278715909 0.142785579 1.07508492 -0.283246934 0.140401065 1.08078063 -0.274282902 0.145738259 1.08349597 -0.253087759 0.146589965 1.05950832 -0.239642873 0.147321597 1.06257117 -0.249862105 0.142001182 1.05045795 -0.200142696 0.105244137 1.06564784 -0.209593102 0.133167163 1.06426144 -0.202222452 0.119420543 1.07286227 -0.206838995 0.117538162 1.05905592 -0.209593102 0.133167163 1.06426144 -0.200142696 0.105244137 1.06564784 -0.254638672 0.128976554 1.03670943 -0.249509707 0.135852799 1.0425303 -0.243167698 0.129879519 1.03734982 -0.248118773 0.108749561 1.03182554 -0.254638672 0.128976554 1.03670943 -0.243167698 0.129879519 1.03734982 -0.209593102 0.133167163 1.06426144 -0.206137061 0.133489713 1.07627642 -0.202222452 0.119420543 1.07286227 -0.225007206 0.140502572 1.05773056 -0.218389943 0.138285875 1.06054425 -0.227676883 0.138328329 1.05165195 -0.236007854 0.14275901 1.05428123 -0.239642873 0.147321597 1.06257117 -0.228906423 0.14485468 1.06390393 -0.220249891 0.13170217 1.04898918 -0.215447247 0.132507995 1.05451667 -0.210040197 0.109418847 1.05044627 -0.206137061 0.133489713 1.07627642 -0.209593102 0.133167163 1.06426144 -0.213029489 0.137205184 1.06737292 -0.213029489 0.137205184 1.06737292 -0.218389943 0.138285875 1.06054425 -0.219789222 0.142346308 1.06929779 -0.294816792 0.12939781 1.07764566 -0.290911913 0.130659536 1.066414 -0.294270843 0.125773683 1.06476557 -0.290911913 0.130659536 1.066414 -0.294816792 0.12939781 1.07764566 -0.288757712 0.135402516 1.07572436 -0.284945488 0.136554867 1.06722784 -0.276611626 0.140099376 1.06150866 -0.284350604 0.132298514 1.05732143 -0.240399599 0.135985255 1.04357135 -0.249509707 0.135852799 1.0425303 -0.249862105 0.142001182 1.05045795 -0.211884111 0.0906676054 1.04188275 -0.225900784 0.131024182 1.0443244 -0.220249891 0.13170217 1.04898918 -0.211884111 0.0906676054 1.04188275 -0.219558582 0.0892468765 1.03599703 -0.225900784 0.131024182 1.0443244 -0.232083365 0.087519072 1.03026009 -0.230278641 0.111729942 1.03627777 -0.219558582 0.0892468765 1.03599703 -0.220249891 0.13170217 1.04898918 -0.227676883 0.138328329 1.05165195 -0.215447247 0.132507995 1.05451667 -0.23228693 0.130817249 1.0409224 -0.231918663 0.135508761 1.04580617 -0.225900784 0.131024182 1.0443244 -0.230278641 0.111729942 1.03627777 -0.232083365 0.087519072 1.03026009 -0.238584459 0.108535461 1.03296137 -0.243167698 0.129879519 1.03734982 -0.23228693 0.130817249 1.0409224 -0.230278641 0.111729942 1.03627777 -0.236007854 0.14275901 1.05428123 -0.225007206 0.140502572 1.05773056 -0.227676883 0.138328329 1.05165195 -0.236007854 0.14275901 1.05428123 -0.228906423 0.14485468 1.06390393 -0.225007206 0.140502572 1.05773056 -0.220249891 0.13170217 1.04898918 -0.210040197 0.109418847 1.05044627 -0.211884111 0.0906676054 1.04188275 -0.216487169 0.142210335 1.07973945 -0.206137061 0.133489713 1.07627642 -0.213029489 0.137205184 1.06737292 -0.216487169 0.142210335 1.07973945 -0.213029489 0.137205184 1.06737292 -0.219789222 0.142346308 1.06929779 -0.231918663 0.135508761 1.04580617 -0.227676883 0.138328329 1.05165195 -0.225900784 0.131024182 1.0443244 -0.227676883 0.138328329 1.05165195 -0.220249891 0.13170217 1.04898918 -0.225900784 0.131024182 1.0443244 -0.230278641 0.111729942 1.03627777 -0.238584459 0.108535461 1.03296137 -0.243167698 0.129879519 1.03734982 </float_array>
          <technique_common>
            <accessor count="900" offset="0" source="#mesh_0-positions-array" stride="3">
              <param name="X" type="float" />
              <param name="Y" type="float" />
              <param name="Z" type="float" />
            </accessor>
          </technique_common>
        </source>
        <vertices id="mesh_0-vertices">
          <input semantic="POSITION" source="#mesh_0-positions" />
        </vertices>
        <polylist count="300" material="defaultMaterial">
          <input offset="0" semantic="VERTEX" source="#mesh_0-vertices" />
          <vcount>3 3 3 3 3 3 3 3 3 3 3 3 3 3 3 3 3 3 3 3 3 3 3 3 3 3 3 3 3 3 3 3 3 3 3 3 3 3 3 3 3 3 3 3 3 3 3 3 3 3 3 3 3 3 3 3 3 3 3 3 3 3 3 3 3 3 3 3 3 3 3 3 3 3 3 3 3 3 3 3 3 3 3 3 3 3 3 3 3 3 3 3 3 3 3 3 3 3 3 3 3 3 3 3 3 3 3 3 3 3 3 3 3 3 3 3 3 3 3 3 3 3 3 3 3 3 3 3 3 3 3 3 3 3 3 3 3 3 3 3 3 3 3 3 3 3 3 3 3 3 3 3 3 3 3 3 3 3 3 3 3 3 3 3 3 3 3 3 3 3 3 3 3 3 3 3 3 3 3 3 3 3 3 3 3 3 3 3 3 3 3 3 3 3 3 3 3 3 3 3 3 3 3 3 3 3 3 3 3 3 3 3 3 3 3 3 3 3 3 3 3 3 3 3 3 3 3 3 3 3 3 3 3 3 3 3 3 3 3 3 3 3 3 3 3 3 3 3 3 3 3 3 3 3 3 3 3 3 3 3 3 3 3 3 3 3 3 3 3 3 3 3 3 3 3 3 3 3 3 3 3 3 3 3 3 3 3 3 3 3 3 3 3 3 3 3 3 3 3 3 </vcount>
          <p>0 1 2 3 4 5 6 7 8 9 10 11 12 13 14 15 16 17 18 19 20 21 22 23 24 25 26 27 28 29 30 31 32 33 34 35 36 37 38 39 40 41 42 43 44 45 46 47 48 49 50 51 52 53 54 55 56 57 58 59 60 61 62 63 64 65 66 67 68 69 70 71 72 73 74 75 76 77 78 79 80 81 82 83 84 85 86 87 88 89 90 91 92 93 94 95 96 97 98 99 100 101 102 103 104 105 106 107 108 109 110 111 112 113 114 115 116 117 118 119 120 121 122 123 124 125 126 127 128 129 130 131 132 133 134 135 136 137 138 139 140 141 142 143 144 145 146 147 148 149 150 151 152 153 154 155 156 157 158 159 160 161 162 163 164 165 166 167 168 169 170 171 172 173 174 175 176 177 178 179 180 181 182 183 184 185 186 187 188 189 190 191 192 193 194 195 196 197 198 199 200 201 202 203 204 205 206 207 208 209 210 211 212 213 214 215 216 217 218 219 220 221 222 223 224 225 226 227 228 229 230 231 232 233 234 235 236 237 238 239 240 241 242 243 244 245 246 247 248 249 250 251 252 253 254 255 256 257 258 259 260 261 262 263 264 265 266 267 268 269 270 271 272 273 274 275 276 277 278 279 280 281 282 283 284 285 286 287 288 289 290 291 292 293 294 295 296 297 298 299 300 301 302 303 304 305 306 307 308 309 310 311 312 313 314 315 316 317 318 319 320 321 322 323 324 325 326 327 328 329 330 331 332 333 334 335 336 337 338 339 340 341 342 343 344 345 346 347 348 349 350 351 352 353 354 355 356 357 358 359 360 361 362 363 364 365 366 367 368 369 370 371 372 373 374 375 376 377 378 379 380 381 382 383 384 385 386 387 388 389 390 391 392 393 394 395 396 397 398 399 400 401 402 403 404 405 406 407 408 409 410 411 412 413 414 415 416 417 418 419 420 421 422 423 424 425 426 427 428 429 430 431 432 433 434 435 436 437 438 439 440 441 442 443 444 445 446 447 448 449 450 451 452 453 454 455 456 457 458 459 460 461 462 463 464 465 466 467 468 469 470 471 472 473 474 475 476 477 478 479 480 481 482 483 484 485 486 487 488 489 490 491 492 493 494 495 496 497 498 499 500 501 502 503 504 505 506 507 508 509 510 511 512 513 514 515 516 517 518 519 520 521 522 523 524 525 526 527 528 529 530 531 532 533 534 535 536 537 538 539 540 541 542 543 544 545 546 547 548 549 550 551 552 553 554 555 556 557 558 559 560 561 562 563 564 565 566 567 568 569 570 571 572 573 574 575 576 577 578 579 580 581 582 583 584 585 586 587 588 589 590 591 592 593 594 595 596 597 598 599 600 601 602 603 604 605 606 607 608 609 610 611 612 613 614 615 616 617 618 619 620 621 622 623 624 625 626 627 628 629 630 631 632 633 634 635 636 637 638 639 640 641 642 643 644 645 646 647 648 649 650 651 652 653 654 655 656 657 658 659 660 661 662 663 664 665 666 667 668 669 670 671 672 673 674 675 676 677 678 679 680 681 682 683 684 685 686 687 688 689 690 691 692 693 694 695 696 697 698 699 700 701 702 703 704 705 706 707 708 709 710 711 712 713 714 715 716 717 718 719 720 721 722 723 724 725 726 727 728 729 730 731 732 733 734 735 736 737 738 739 740 741 742 743 744 745 746 747 748 749 750 751 752 753 754 755 756 757 758 759 760 761 762 763 764 765 766 767 768 769 770 771 772 773 774 775 776 777 778 779 780 781 782 783 784 785 786 787 788 789 790 791 792 793 794 795 796 797 798 799 800 801 802 803 804 805 806 807 808 809 810 811 812 813 814 815 816 817 818 819 820 821 822 823 824 825 826 827 828 829 830 831 832 833 834 835 836 837 838 839 840 841 842 843 844 845 846 847 848 849 850 851 852 853 854 855 856 857 858 859 860 861 862 863 864 865 866 867 868 869 870 871 872 873 874 875 876 877 878 879 880 881 882 883 884 885 886 887 888 889 890 891 892 893 894 895 896 897 898 899 </p>
        </polylist>
      </mesh>
    </geometry>
  </library_geometries>
  <library_controllers>
  </library_controllers>
  <library_visual_scenes>
    <visual_scene id="Scene" name="Scene">
      <node id="node" name="" type="NODE">
        <matrix sid="matrix">1 0 0 0 0 1 0 0 0 0 1 0 0 0 0 1</matrix>
        <instance_geometry url="#mesh_0">
          <bind_material>
            <technique_common>
              <instance_material symbol="defaultMaterial" target="#material_0">
              </instance_material>
            </technique_common>
          </bind_material>
        </instance_geometry>
      </node>
    </visual_scene>
  </library_visual_scenes>
  <scene>
    <instance_visual_scene url="#Scene" />
  </scene>
</COLLADA>
