<?xml version="1.0" encoding="UTF-8" standalone="no" ?>
<COLLADA xmlns="http://www.collada.org/2005/11/COLLADASchema" version="1.4.1">
  <asset>
    <contributor>
      <author>Assimp</author>
      <authoring_tool>Assimp Exporter</authoring_tool>
    </contributor>
    <created>2026-04-22T16:09:43</created>
    <modified>2026-04-22T16:09:43</modified>
    <unit name="meter" meter="1" />
    <up_axis>Y_UP</up_axis>
  </asset>
  <library_images>
  </library_images>
  <library_effects>
    <effect id="material_0-fx" name="">
      <profile_COMMON>
        <technique sid="standard">
          <phong>
            <emission>
              <color sid="emission">0   0   0   4.19744942e-41</color>
            </emission>
            <ambient>
              <color sid="ambient">0.400000006   0.400000006   0.400000006   4.19744942e-41</color>
            </ambient>
            <diffuse>
              <color sid="diffuse">0.400000006   0.400000006   0.400000006   4.19744942e-41</color>
            </diffuse>
            <specular>
              <color sid="specular">0.25   0.25   0.25   4.19744942e-41</color>
            </specular>
          </phong>
        </technique>
      </profile_COMMON>
    </effect>
  </library_effects>
  <library_materials>
    <material id="material_0" name="">
      <instance_effect url="#material_0-fx"/>
    </material>
  </library_materials>
  <library_geometries>
    <geometry id="mesh_0" name="" >
      <mesh>
        <source id="mesh_0-positions" name="mesh_0-positions">
          <float_array id="mesh_0-positions-array" count="3213"> 0.748702645 -0.17640698 1.44902325 0.736991584 -0.172308803 1.453385 0.738467157 -0.177590519 1.45441484 0.747622073 -0.172335476 1.44811237 0.736991584 -0.172308803 1.453385 0.748702645 -0.17640698 1.44902325 0.750721991 -0.177122012 1.45213819 0.749254704 -0.17284523 1.45123386 0.747622073 -0.172335476 1.44811237 0.750721991 -0.177122012 1.45213819 0.747622073 -0.172335476 1.44811237 0.748702645 -0.17640698 1.44902325 0.740173399 -0.178077012 1.45759082 0.738948166 -0.1728082 1.45631802 0.749254704 -0.17284523 1.45123386 0.764805019 -0.172814623 1.43539047 0.766132355 -0.173152268 1.43996668 0.768668652 -0.172816798 1.42745805 0.749254704 -0.17284523 1.45123386 0.732882977 -0.173159286 1.45990539 0.748272598 -0.173122317 1.45594072 0.740173399 -0.178077012 1.45759082 0.749254704 -0.17284523 1.45123386 0.750721991 -0.177122012 1.45213819 0.764805019 -0.172814623 1.43539047 0.756411552 -0.172888696 1.44557464 0.766132355 -0.173152268 1.43996668 0.756411552 -0.172888696 1.44557464 0.748272598 -0.173122317 1.45594072 0.766132355 -0.173152268 1.43996668 0.77157414 -0.172811091 1.41566133 0.768668652 -0.172816798 1.42745805 0.766132355 -0.173152268 1.43996668 0.738948166 -0.1728082 1.45631802 0.732882977 -0.173159286 1.45990539 0.749254704 -0.17284523 1.45123386 0.740173399 -0.178077012 1.45759082 0.738467157 -0.177590519 1.45441484 0.738948166 -0.1728082 1.45631802 0.736991584 -0.172308803 1.453385 0.738948166 -0.1728082 1.45631802 0.738467157 -0.177590519 1.45441484 0.77157414 -0.172811091 1.41566133 0.766132355 -0.173152268 1.43996668 0.774205446 -0.173226908 1.41000319 0.755032241 -0.176346913 1.44397914 0.756411552 -0.172888696 1.44557464 0.757589281 -0.176834539 1.44655895 0.757589281 -0.176834539 1.44655895 0.756411552 -0.172888696 1.44557464 0.764805019 -0.172814623 1.43539047 0.757589281 -0.176834539 1.44655895 0.764805019 -0.172814623 1.43539047 0.766007721 -0.177211612 1.43548274 0.755032241 -0.176346913 1.44397914 0.753440201 -0.171015397 1.44166768 0.756411552 -0.172888696 1.44557464 0.755032241 -0.176346913 1.44397914 0.761837006 -0.172322959 1.43335998 0.753440201 -0.171015397 1.44166768 0.763178349 -0.177322179 1.43452716 0.761837006 -0.172322959 1.43335998 0.755032241 -0.176346913 1.44397914 0.763178349 -0.177322179 1.43452716 0.764805019 -0.172814623 1.43539047 0.761837006 -0.172322959 1.43335998 0.770202696 -0.172971994 1.41439772 0.77157414 -0.172811091 1.41566133 0.774205446 -0.173226908 1.41000319 0.763178349 -0.177322179 1.43452716 0.766007721 -0.177211612 1.43548274 0.764805019 -0.172814623 1.43539047 0.770723701 -0.179260686 1.41582072 0.768324196 -0.172333628 1.41475511 0.765391707 -0.172337487 1.42622519 0.770723701 -0.179260686 1.41582072 0.765391707 -0.172337487 1.42622519 0.767031491 -0.178294733 1.42745364 0.767031491 -0.178294733 1.42745364 0.765391707 -0.172337487 1.42622519 0.768668652 -0.172816798 1.42745805 0.769115984 -0.172828048 1.40200305 0.770202696 -0.172971994 1.41439772 0.774205446 -0.173226908 1.41000319 0.767031491 -0.178294733 1.42745364 0.768668652 -0.172816798 1.42745805 0.769990206 -0.177820161 1.42882204 0.725060523 -0.17270501 1.45620656 0.732882977 -0.173159286 1.45990539 0.738948166 -0.1728082 1.45631802 0.769990206 -0.177820161 1.42882204 0.768668652 -0.172816798 1.42745805 0.77157414 -0.172811091 1.41566133 0.769990206 -0.177820161 1.42882204 0.77157414 -0.172811091 1.41566133 0.773314178 -0.178694353 1.41717672 0.770723701 -0.179260686 1.41582072 0.773314178 -0.178694353 1.41717672 0.77157414 -0.172811091 1.41566133 0.770202696 -0.172971994 1.41439772 0.770723701 -0.179260686 1.41582072 0.77157414 -0.172811091 1.41566133 0.756411552 -0.172888696 1.44557464 0.749254704 -0.17284523 1.45123386 0.748272598 -0.173122317 1.45594072 0.770723701 -0.179260686 1.41582072 0.769887567 -0.172943234 1.41428375 0.768324196 -0.172333628 1.41475511 0.756411552 -0.172888696 1.44557464 0.747622073 -0.172335476 1.44811237 0.749254704 -0.17284523 1.45123386 0.769887567 -0.172943234 1.41428375 0.770723701 -0.179260686 1.41582072 0.770202696 -0.172971994 1.41439772 0.770202696 -0.172971994 1.41439772 0.770723701 -0.179260686 1.41582072 0.770202696 -0.172971994 1.41439772 0.740173399 -0.178077012 1.45759082 0.74265039 -0.17813468 1.46127963 0.738467157 -0.177590519 1.45441484 0.769115984 -0.172828048 1.40200305 0.774205446 -0.173226908 1.41000319 0.76332885 -0.173326924 1.3905319 0.764580727 -0.177705765 1.44484007 0.757078588 -0.177713007 1.45232558 0.766007721 -0.177211612 1.43548274 0.762194514 -0.179759026 1.42901039 0.763178349 -0.177322179 1.43452716 0.746316433 -0.179632917 1.44045234 0.757078588 -0.177713007 1.45232558 0.757589281 -0.176834539 1.44655895 0.766007721 -0.177211612 1.43548274 0.669652104 -0.178622946 1.36436975 0.662055373 -0.180444747 1.38294029 0.666125774 -0.178620443 1.36891329 0.74265039 -0.17813468 1.46127963 0.733536482 -0.178316996 1.46187675 0.738467157 -0.177590519 1.45441484 0.694525599 -0.180428207 1.35128522 0.687494218 -0.178714827 1.35108197 0.697533309 -0.178552136 1.34767556 0.760699391 -0.178388417 1.38178074 0.776083887 -0.17826663 1.40989828 0.769252717 -0.179912925 1.4070096 0.776083887 -0.17826663 1.40989828 0.769540012 -0.180057541 1.41189456 0.769252717 -0.179912925 1.4070096 0.738467157 -0.177590519 1.45441484 0.733536482 -0.178316996 1.46187675 0.712120593 -0.178384021 1.45487201 0.694525599 -0.180428207 1.35128522 0.679520369 -0.17854853 1.35556984 0.687494218 -0.178714827 1.35108197 0.755032241 -0.176346913 1.44397914 0.738467157 -0.177590519 1.45441484 0.723827124 -0.179978564 1.44832587 0.776083887 -0.17826663 1.40989828 0.770723701 -0.179260686 1.41582072 0.769540012 -0.180057541 1.41189456 0.666125774 -0.178620443 1.36891329 0.662055373 -0.180444747 1.38294029 0.662249863 -0.178627536 1.37543046 0.776083887 -0.17826663 1.40989828 0.773314178 -0.178694353 1.41717672 0.770723701 -0.179260686 1.41582072 0.773299694 -0.1731029 1.42470932 0.774205446 -0.173226908 1.41000319 0.766132355 -0.173152268 1.43996668 0.760675311 -0.173053756 1.44648719 0.766132355 -0.173152268 1.43996668 0.748272598 -0.173122317 1.45594072 0.776083887 -0.17826663 1.40989828 0.777146757 -0.178080037 1.41899216 0.773314178 -0.178694353 1.41717672 0.757589281 -0.176834539 1.44655895 0.748702645 -0.17640698 1.44902325 0.755032241 -0.176346913 1.44397914 0.757589281 -0.176834539 1.44655895 0.757078588 -0.177713007 1.45232558 0.750721991 -0.177122012 1.45213819 0.723827124 -0.179978564 1.44832587 0.738467157 -0.177590519 1.45441484 0.712120593 -0.178384021 1.45487201 0.757589281 -0.176834539 1.44655895 0.750721991 -0.177122012 1.45213819 0.748702645 -0.17640698 1.44902325 0.723827124 -0.179978564 1.44832587 0.712120593 -0.178384021 1.45487201 0.706218004 -0.180028602 1.44998777 0.777146757 -0.178080037 1.41899216 0.769990206 -0.177820161 1.42882204 0.773314178 -0.178694353 1.41717672 0.770723701 -0.179260686 1.41582072 0.768355191 -0.18001391 1.41876864 0.769540012 -0.180057541 1.41189456 0.662055373 -0.180444747 1.38294029 0.658275068 -0.178586572 1.38613081 0.662249863 -0.178627536 1.37543046 0.706218004 -0.180028602 1.44998777 0.712120593 -0.178384021 1.45487201 0.702455044 -0.178504393 1.45257962 0.662055373 -0.180444747 1.38294029 0.659374833 -0.180597246 1.40366721 0.658275068 -0.178586572 1.38613081 0.658275068 -0.178586572 1.38613081 0.659374833 -0.180597246 1.40366721 0.657029867 -0.178764433 1.39322209 0.725060523 -0.17270501 1.45620656 0.713265538 -0.173384756 1.45373881 0.732882977 -0.173159286 1.45990539 0.746316433 -0.179632917 1.44045234 0.763178349 -0.177322179 1.43452716 0.737845719 -0.179741234 1.44404697 0.694525599 -0.180428207 1.35128522 0.669652104 -0.178622946 1.36436975 0.679520369 -0.17854853 1.35556984 0.691855133 -0.180721551 1.44689715 0.706218004 -0.180028602 1.44998777 0.690984726 -0.178733006 1.44849992 0.706218004 -0.180028602 1.44998777 0.702455044 -0.178504393 1.45257962 0.690984726 -0.178733006 1.44849992 0.659374833 -0.180597246 1.40366721 0.657287776 -0.178529575 1.40697467 0.657029867 -0.178764433 1.39322209 0.690984726 -0.178733006 1.44849992 0.684074163 -0.178550586 1.445135 0.691855133 -0.180721551 1.44689715 0.659374833 -0.180597246 1.40366721 0.659747005 -0.178514495 1.41664529 0.657287776 -0.178529575 1.40697467 0.659374833 -0.180597246 1.40366721 0.66208756 -0.180445388 1.41507745 0.659747005 -0.178514495 1.41664529 0.750721991 -0.177122012 1.45213819 0.757078588 -0.177713007 1.45232558 0.74265039 -0.17813468 1.46127963 0.722798944 -0.170816138 1.45369625 0.713265538 -0.173384756 1.45373881 0.725060523 -0.17270501 1.45620656 0.675409019 -0.18043527 1.43559301 0.691855133 -0.180721551 1.44689715 0.684074163 -0.178550586 1.445135 0.777146757 -0.178080037 1.41899216 0.764580727 -0.177705765 1.44484007 0.769990206 -0.177820161 1.42882204 0.66208756 -0.180445388 1.41507745 0.664321959 -0.178761214 1.42618167 0.659747005 -0.178514495 1.41664529 0.671930254 -0.178607225 1.43598211 0.675409019 -0.18043527 1.43559301 0.684074163 -0.178550586 1.445135 0.770723701 -0.179260686 1.41582072 0.767031491 -0.178294733 1.42745364 0.768355191 -0.18001391 1.41876864 0.736991584 -0.172308803 1.453385 0.747622073 -0.172335476 1.44811237 0.745705068 -0.171002164 1.44765484 0.671930254 -0.178607225 1.43598211 0.664321959 -0.178761214 1.42618167 0.675409019 -0.18043527 1.43559301 0.763178349 -0.177322179 1.43452716 0.755032241 -0.176346913 1.44397914 0.737845719 -0.179741234 1.44404697 0.769990206 -0.177820161 1.42882204 0.764580727 -0.177705765 1.44484007 0.766007721 -0.177211612 1.43548274 0.747456193 -0.178545609 1.36273396 0.755154014 -0.17839098 1.37241304 0.750515997 -0.180103734 1.36886704 0.767031491 -0.178294733 1.42745364 0.762194514 -0.179759026 1.42901039 0.768355191 -0.18001391 1.41876864 0.750721991 -0.177122012 1.45213819 0.74265039 -0.17813468 1.46127963 0.740173399 -0.178077012 1.45759082 0.747456193 -0.178545609 1.36273396 0.750515997 -0.180103734 1.36886704 0.748194456 -0.180364698 1.36770248 0.755032241 -0.176346913 1.44397914 0.748702645 -0.17640698 1.44902325 0.738467157 -0.177590519 1.45441484 0.750515997 -0.180103734 1.36886704 0.755154014 -0.17839098 1.37241304 0.760699391 -0.178388417 1.38178074 0.769990206 -0.177820161 1.42882204 0.766007721 -0.177211612 1.43548274 0.763178349 -0.177322179 1.43452716 0.747456193 -0.178545609 1.36273396 0.748194456 -0.180364698 1.36770248 0.739429832 -0.178566083 1.35579133 0.760699391 -0.178388417 1.38178074 0.769252717 -0.179912925 1.4070096 0.750515997 -0.180103734 1.36886704 0.726429701 -0.180534512 1.35201764 0.72821027 -0.178684846 1.34985971 0.739429832 -0.178566083 1.35579133 0.726429701 -0.180534512 1.35201764 0.721420169 -0.178618908 1.34775734 0.72821027 -0.178684846 1.34985971 0.725060523 -0.17270501 1.45620656 0.736991584 -0.172308803 1.453385 0.722798944 -0.170816138 1.45369625 0.753440201 -0.171015397 1.44166768 0.745705068 -0.171002164 1.44765484 0.747622073 -0.172335476 1.44811237 0.737845719 -0.179741234 1.44404697 0.755032241 -0.176346913 1.44397914 0.723827124 -0.179978564 1.44832587 0.721420169 -0.178618908 1.34775734 0.726429701 -0.180534512 1.35201764 0.713006616 -0.178737864 1.34649003 0.713006616 -0.178737864 1.34649003 0.726429701 -0.180534512 1.35201764 0.711129367 -0.180415079 1.34909308 0.711129367 -0.180415079 1.34909308 0.697533309 -0.178552136 1.34767556 0.713006616 -0.178737864 1.34649003 0.763178349 -0.177322179 1.43452716 0.762194514 -0.179759026 1.42901039 0.767031491 -0.178294733 1.42745364 0.697533309 -0.178552136 1.34767556 0.711129367 -0.180415079 1.34909308 0.694525599 -0.180428207 1.35128522 0.763178349 -0.177322179 1.43452716 0.767031491 -0.178294733 1.42745364 0.769990206 -0.177820161 1.42882204 0.736991584 -0.172308803 1.453385 0.725060523 -0.17270501 1.45620656 0.738948166 -0.1728082 1.45631802 0.756411552 -0.172888696 1.44557464 0.753440201 -0.171015397 1.44166768 0.747622073 -0.172335476 1.44811237 0.72710824 -0.189037949 1.45032156 0.706218004 -0.180028602 1.44998777 0.706544697 -0.182705969 1.4505353 0.72710824 -0.189037949 1.45032156 0.723827124 -0.179978564 1.44832587 0.706218004 -0.180028602 1.44998777 0.706218004 -0.180028602 1.44998777 0.691855133 -0.180721551 1.44689715 0.706544697 -0.182705969 1.4505353 0.706544697 -0.182705969 1.4505353 0.691855133 -0.180721551 1.44689715 0.724019289 -0.188767999 1.44935715 0.72710824 -0.189037949 1.45032156 0.724019289 -0.188767999 1.44935715 0.735874116 -0.190147713 1.4486562 0.706544697 -0.182705969 1.4505353 0.724019289 -0.188767999 1.44935715 0.72710824 -0.189037949 1.45032156 0.659374833 -0.180597246 1.40366721 0.662055373 -0.180444747 1.38294029 0.66208756 -0.180445388 1.41507745 0.748194456 -0.180364698 1.36770248 0.726429701 -0.180534512 1.35201764 0.739429832 -0.178566083 1.35579133 0.66208756 -0.180445388 1.41507745 0.675409019 -0.18043527 1.43559301 0.664321959 -0.178761214 1.42618167 0.694525599 -0.180428207 1.35128522 0.662055373 -0.180444747 1.38294029 0.669652104 -0.178622946 1.36436975 0.72710824 -0.189037949 1.45032156 0.737845719 -0.179741234 1.44404697 0.723827124 -0.179978564 1.44832587 0.743757665 -0.18540433 1.44478214 0.746316433 -0.179632917 1.44045234 0.737845719 -0.179741234 1.44404697 0.743757665 -0.18540433 1.44478214 0.748727679 -0.189256445 1.44683862 0.755867124 -0.185327068 1.43911672 0.743757665 -0.18540433 1.44478214 0.755867124 -0.185327068 1.43911672 0.746316433 -0.179632917 1.44045234 0.755867124 -0.185327068 1.43911672 0.762194514 -0.179759026 1.42901039 0.746316433 -0.179632917 1.44045234 0.771480143 -0.18856518 1.40918195 0.763584137 -0.182479173 1.38846076 0.763966978 -0.180083141 1.39010859 0.771480143 -0.18856518 1.40918195 0.763966978 -0.180083141 1.39010859 0.769252717 -0.179912925 1.4070096 0.772596955 -0.189661399 1.41936553 0.769540012 -0.180057541 1.41189456 0.768355191 -0.18001391 1.41876864 0.766227007 -0.170529813 1.40412605 0.768324196 -0.172333628 1.41475511 0.769115984 -0.172828048 1.40200305 0.772596955 -0.189661399 1.41936553 0.769252717 -0.179912925 1.4070096 0.769540012 -0.180057541 1.41189456 0.772596955 -0.189661399 1.41936553 0.771480143 -0.18856518 1.40918195 0.769252717 -0.179912925 1.4070096 0.759987533 -0.189206541 1.4414258 0.768777192 -0.189338684 1.4312973 0.755867124 -0.185327068 1.43911672 0.761837006 -0.172322959 1.43335998 0.764805019 -0.172814623 1.43539047 0.765391707 -0.172337487 1.42622519 0.763584137 -0.182479173 1.38846076 0.750515997 -0.180103734 1.36886704 0.763966978 -0.180083141 1.39010859 0.768777192 -0.189338684 1.4312973 0.762194514 -0.179759026 1.42901039 0.755867124 -0.185327068 1.43911672 0.768777192 -0.189338684 1.4312973 0.768355191 -0.18001391 1.41876864 0.762194514 -0.179759026 1.42901039 0.777146757 -0.178080037 1.41899216 0.772886992 -0.1778671 1.43174911 0.764580727 -0.177705765 1.44484007 0.743757665 -0.18540433 1.44478214 0.737845719 -0.179741234 1.44404697 0.72710824 -0.189037949 1.45032156 0.748727679 -0.189256445 1.44683862 0.743757665 -0.18540433 1.44478214 0.72710824 -0.189037949 1.45032156 0.759987533 -0.189206541 1.4414258 0.755867124 -0.185327068 1.43911672 0.748727679 -0.189256445 1.44683862 0.72710824 -0.189037949 1.45032156 0.735874116 -0.190147713 1.4486562 0.748727679 -0.189256445 1.44683862 0.748727679 -0.189256445 1.44683862 0.735874116 -0.190147713 1.4486562 0.759726286 -0.190148905 1.44078076 0.748727679 -0.189256445 1.44683862 0.759726286 -0.190148905 1.44078076 0.759987533 -0.189206541 1.4414258 0.772596955 -0.189661399 1.41936553 0.771603584 -0.19001773 1.41662836 0.763156176 -0.182821348 1.38991261 0.772596955 -0.189661399 1.41936553 0.763156176 -0.182821348 1.38991261 0.771480143 -0.18856518 1.40918195 0.771480143 -0.18856518 1.40918195 0.763156176 -0.182821348 1.38991261 0.763584137 -0.182479173 1.38846076 0.763584137 -0.182479173 1.38846076 0.763156176 -0.182821348 1.38991261 0.750515997 -0.180103734 1.36886704 0.769887567 -0.172943234 1.41428375 0.770202696 -0.172971994 1.41439772 0.769115984 -0.172828048 1.40200305 0.750515997 -0.180103734 1.36886704 0.763156176 -0.182821348 1.38991261 0.748194456 -0.180364698 1.36770248 0.769887567 -0.172943234 1.41428375 0.769115984 -0.172828048 1.40200305 0.768324196 -0.172333628 1.41475511 0.766855717 -0.170721561 1.41390347 0.768324196 -0.172333628 1.41475511 0.766227007 -0.170529813 1.40412605 0.768777192 -0.189338684 1.4312973 0.772596955 -0.189661399 1.41936553 0.768355191 -0.18001391 1.41876864 0.759987533 -0.189206541 1.4414258 0.759726286 -0.190148905 1.44078076 0.768777192 -0.189338684 1.4312973 0.759726286 -0.190148905 1.44078076 0.771603584 -0.19001773 1.41662836 0.772596955 -0.189661399 1.41936553 0.759726286 -0.190148905 1.44078076 0.772596955 -0.189661399 1.41936553 0.768777192 -0.189338684 1.4312973 0.72539866 -0.170842558 1.3535862 0.711129367 -0.180415079 1.34909308 0.726429701 -0.180534512 1.35201764 0.764805019 -0.172814623 1.43539047 0.768668652 -0.172816798 1.42745805 0.765391707 -0.172337487 1.42622519 0.719693482 -0.142705277 1.36374748 0.692712247 -0.142663658 1.36962485 0.742040932 -0.142668799 1.3910507 0.695723653 -0.142668009 1.42975652 0.713238239 -0.14269948 1.43545592 0.725108564 -0.142692819 1.43213153 0.675556958 -0.142687529 1.41326582 0.695723653 -0.142668009 1.42975652 0.692712247 -0.142663658 1.36962485 0.678706706 -0.142689988 1.37878919 0.692712247 -0.142663658 1.36962485 0.69069314 -0.142686129 1.36738956 0.719693482 -0.142705277 1.36374748 0.742040932 -0.142668799 1.3910507 0.730549276 -0.142704219 1.36903155 0.675556958 -0.142687529 1.41326582 0.682278156 -0.142691836 1.42372215 0.695723653 -0.142668009 1.42975652 0.678706706 -0.142689988 1.37878919 0.675140738 -0.142705426 1.38560116 0.692712247 -0.142663658 1.36962485 0.742040932 -0.142668799 1.3910507 0.740700305 -0.142688766 1.41805255 0.746049881 -0.142690942 1.39795947 0.730549276 -0.142704219 1.36903155 0.742040932 -0.142668799 1.3910507 0.739761055 -0.142693698 1.37848532 0.69069314 -0.142686129 1.36738956 0.692712247 -0.142663658 1.36962485 0.701046944 -0.142699182 1.36318326 0.695723653 -0.142668009 1.42975652 0.725108564 -0.142692819 1.43213153 0.735277832 -0.142689288 1.42494154 0.682278156 -0.142691836 1.42372215 0.692424595 -0.142709106 1.43154287 0.695723653 -0.142668009 1.42975652 0.742040932 -0.142668799 1.3910507 0.695723653 -0.142668009 1.42975652 0.740700305 -0.142688766 1.41805255 0.769115984 -0.172828048 1.40200305 0.76332885 -0.173326924 1.3905319 0.766227007 -0.170529813 1.40412605 0.695723653 -0.142668009 1.42975652 0.692424595 -0.142709106 1.43154287 0.699743152 -0.142688587 1.4343785 0.742040932 -0.142668799 1.3910507 0.742976964 -0.142695382 1.3844198 0.739761055 -0.142693698 1.37848532 0.695723653 -0.142668009 1.42975652 0.735277832 -0.142689288 1.42494154 0.740700305 -0.142688766 1.41805255 0.776083887 -0.17826663 1.40989828 0.760699391 -0.178388417 1.38178074 0.76332885 -0.173326924 1.3905319 0.76332885 -0.173326924 1.3905319 0.774205446 -0.173226908 1.41000319 0.776083887 -0.17826663 1.40989828 0.675140738 -0.142705426 1.38560116 0.672633648 -0.142693818 1.3976264 0.692712247 -0.142663658 1.36962485 0.742040932 -0.142668799 1.3910507 0.746049881 -0.142690942 1.39795947 0.742976964 -0.142695382 1.3844198 0.672633648 -0.142693818 1.3976264 0.675556958 -0.142687529 1.41326582 0.692712247 -0.142663658 1.36962485 0.695723653 -0.142668009 1.42975652 0.699743152 -0.142688587 1.4343785 0.713238239 -0.14269948 1.43545592 0.774205446 -0.173226908 1.41000319 0.777146757 -0.178080037 1.41899216 0.776083887 -0.17826663 1.40989828 0.701046944 -0.142699182 1.36318326 0.692712247 -0.142663658 1.36962485 0.719693482 -0.142705277 1.36374748 0.739761055 -0.142693698 1.37848532 0.748655677 -0.153732151 1.37391126 0.741838276 -0.15309374 1.36549389 0.739761055 -0.142693698 1.37848532 0.741838276 -0.15309374 1.36549389 0.730549276 -0.142704219 1.36903155 0.735277832 -0.142689288 1.42494154 0.751830578 -0.151211932 1.41993093 0.740700305 -0.142688766 1.41805255 0.752283216 -0.156336486 1.42977977 0.751830578 -0.151211932 1.41993093 0.735277832 -0.142689288 1.42494154 0.740700305 -0.142688766 1.41805255 0.751830578 -0.151211932 1.41993093 0.746049881 -0.142690942 1.39795947 0.746049881 -0.142690942 1.39795947 0.751830578 -0.151211932 1.41993093 0.750477076 -0.146844417 1.40685332 0.772886992 -0.1778671 1.43174911 0.773299694 -0.1731029 1.42470932 0.766132355 -0.173152268 1.43996668 0.755276144 -0.156463727 1.4250927 0.751830578 -0.151211932 1.41993093 0.752283216 -0.156336486 1.42977977 0.748272598 -0.173122317 1.45594072 0.74265039 -0.17813468 1.46127963 0.757078588 -0.177713007 1.45232558 0.751830578 -0.151211932 1.41993093 0.758697927 -0.156055763 1.41622615 0.750477076 -0.146844417 1.40685332 0.751830578 -0.151211932 1.41993093 0.755276144 -0.156463727 1.4250927 0.758697927 -0.156055763 1.41622615 0.758697927 -0.156055763 1.41622615 0.759871542 -0.155941963 1.40791345 0.750477076 -0.146844417 1.40685332 0.777146757 -0.178080037 1.41899216 0.773299694 -0.1731029 1.42470932 0.772886992 -0.1778671 1.43174911 0.758983254 -0.155582368 1.39871907 0.746049881 -0.142690942 1.39795947 0.750477076 -0.146844417 1.40685332 0.748272598 -0.173122317 1.45594072 0.757078588 -0.177713007 1.45232558 0.760675311 -0.173053756 1.44648719 0.750477076 -0.146844417 1.40685332 0.759871542 -0.155941963 1.40791345 0.758983254 -0.155582368 1.39871907 0.746049881 -0.142690942 1.39795947 0.758983254 -0.155582368 1.39871907 0.757250428 -0.155174166 1.39202142 0.764580727 -0.177705765 1.44484007 0.760675311 -0.173053756 1.44648719 0.757078588 -0.177713007 1.45232558 0.764580727 -0.177705765 1.44484007 0.766132355 -0.173152268 1.43996668 0.760675311 -0.173053756 1.44648719 0.757250428 -0.155174166 1.39202142 0.742976964 -0.142695382 1.3844198 0.746049881 -0.142690942 1.39795947 0.774205446 -0.173226908 1.41000319 0.773299694 -0.1731029 1.42470932 0.777146757 -0.178080037 1.41899216 0.748655677 -0.153732151 1.37391126 0.739761055 -0.142693698 1.37848532 0.742976964 -0.142695382 1.3844198 0.742976964 -0.142695382 1.3844198 0.757250428 -0.155174166 1.39202142 0.748655677 -0.153732151 1.37391126 0.772886992 -0.1778671 1.43174911 0.766132355 -0.173152268 1.43996668 0.764580727 -0.177705765 1.44484007 0.752283216 -0.156336486 1.42977977 0.735277832 -0.142689288 1.42494154 0.746204078 -0.15647687 1.43693221 0.737002552 -0.148526222 1.4335953 0.735277832 -0.142689288 1.42494154 0.725108564 -0.142692819 1.43213153 0.735277832 -0.142689288 1.42494154 0.737002552 -0.148526222 1.4335953 0.746204078 -0.15647687 1.43693221 0.737002552 -0.148526222 1.4335953 0.735745072 -0.15625675 1.44421673 0.746204078 -0.15647687 1.43693221 0.732882977 -0.173159286 1.45990539 0.74265039 -0.17813468 1.46127963 0.748272598 -0.173122317 1.45594072 0.732882977 -0.173159286 1.45990539 0.733536482 -0.178316996 1.46187675 0.74265039 -0.17813468 1.46127963 0.737002552 -0.148526222 1.4335953 0.725108564 -0.142692819 1.43213153 0.735745072 -0.15625675 1.44421673 0.713238239 -0.14269948 1.43545592 0.724965692 -0.155660212 1.44704473 0.725108564 -0.142692819 1.43213153 0.713265538 -0.173384756 1.45373881 0.712120593 -0.178384021 1.45487201 0.733536482 -0.178316996 1.46187675 0.733536482 -0.178316996 1.46187675 0.732882977 -0.173159286 1.45990539 0.713265538 -0.173384756 1.45373881 0.735745072 -0.15625675 1.44421673 0.725108564 -0.142692819 1.43213153 0.72989285 -0.156249598 1.44647932 0.725108564 -0.142692819 1.43213153 0.724965692 -0.155660212 1.44704473 0.72989285 -0.156249598 1.44647932 0.724965692 -0.155660212 1.44704473 0.713238239 -0.14269948 1.43545592 0.714673638 -0.155129001 1.44733202 0.713238239 -0.14269948 1.43545592 0.699743152 -0.142688587 1.4343785 0.708468974 -0.154883593 1.44680142 0.713238239 -0.14269948 1.43545592 0.708468974 -0.154883593 1.44680142 0.714673638 -0.155129001 1.44733202 0.708468974 -0.154883593 1.44680142 0.699743152 -0.142688587 1.4343785 0.693502426 -0.153868303 1.44289184 0.683837891 -0.15926604 1.44039237 0.690984726 -0.178733006 1.44849992 0.691279054 -0.160383657 1.44436491 0.713265538 -0.173384756 1.45373881 0.697217226 -0.161167651 1.44671607 0.702455044 -0.178504393 1.45257962 0.692424595 -0.142709106 1.43154287 0.682278156 -0.142691836 1.42372215 0.685124457 -0.15335004 1.43890214 0.699743152 -0.142688587 1.4343785 0.692424595 -0.142709106 1.43154287 0.685124457 -0.15335004 1.43890214 0.693502426 -0.153868303 1.44289184 0.699743152 -0.142688587 1.4343785 0.685124457 -0.15335004 1.43890214 0.675556958 -0.142687529 1.41326582 0.663756609 -0.150609404 1.40136683 0.666921556 -0.151348427 1.41664517 0.701046944 -0.142699182 1.36318326 0.706777096 -0.150733575 1.35337615 0.701055586 -0.150442332 1.35417628 0.706777096 -0.150733575 1.35337615 0.719693482 -0.142705277 1.36374748 0.716840267 -0.151258841 1.35368443 0.719693482 -0.142705277 1.36374748 0.725277007 -0.151815906 1.35564601 0.716840267 -0.151258841 1.35368443 0.679418504 -0.159176081 1.43742251 0.671930254 -0.178607225 1.43598211 0.684074163 -0.178550586 1.445135 0.730549276 -0.142704219 1.36903155 0.741838276 -0.15309374 1.36549389 0.73170203 -0.152270928 1.35834384 0.675140738 -0.142705426 1.38560116 0.664248347 -0.150187477 1.39335144 0.672633648 -0.142693818 1.3976264 0.675140738 -0.142705426 1.38560116 0.666104078 -0.15000461 1.38524306 0.664248347 -0.150187477 1.39335144 0.666104078 -0.15000461 1.38524306 0.675140738 -0.142705426 1.38560116 0.669220209 -0.149807349 1.37801671 0.745705068 -0.171002164 1.44765484 0.735745072 -0.15625675 1.44421673 0.736991584 -0.172308803 1.453385 0.735745072 -0.15625675 1.44421673 0.72989285 -0.156249598 1.44647932 0.736991584 -0.172308803 1.453385 0.686942995 -0.149880975 1.35965908 0.67993319 -0.149728253 1.36467111 0.69069314 -0.142686129 1.36738956 0.678706706 -0.142689988 1.37878919 0.673083723 -0.149672717 1.3720026 0.669220209 -0.149807349 1.37801671 0.730549276 -0.142704219 1.36903155 0.725277007 -0.151815906 1.35564601 0.719693482 -0.142705277 1.36374748 0.683837891 -0.15926604 1.44039237 0.679418504 -0.159176081 1.43742251 0.684074163 -0.178550586 1.445135 0.725277007 -0.151815906 1.35564601 0.730549276 -0.142704219 1.36903155 0.73170203 -0.152270928 1.35834384 0.67993319 -0.149728253 1.36467111 0.678706706 -0.142689988 1.37878919 0.69069314 -0.142686129 1.36738956 0.673118412 -0.152111948 1.42775154 0.685124457 -0.15335004 1.43890214 0.682278156 -0.142691836 1.42372215 0.682278156 -0.142691836 1.42372215 0.675556958 -0.142687529 1.41326582 0.669493198 -0.151712641 1.42219377 0.673118412 -0.152111948 1.42775154 0.682278156 -0.142691836 1.42372215 0.669493198 -0.151712641 1.42219377 0.675556958 -0.142687529 1.41326582 0.666921556 -0.151348427 1.41664517 0.669493198 -0.151712641 1.42219377 0.663756609 -0.150609404 1.40136683 0.675556958 -0.142687529 1.41326582 0.672633648 -0.142693818 1.3976264 0.672633648 -0.142693818 1.3976264 0.664248347 -0.150187477 1.39335144 0.663756609 -0.150609404 1.40136683 0.675140738 -0.142705426 1.38560116 0.678706706 -0.142689988 1.37878919 0.669220209 -0.149807349 1.37801671 0.690984726 -0.178733006 1.44849992 0.683837891 -0.15926604 1.44039237 0.684074163 -0.178550586 1.445135 0.686942995 -0.149880975 1.35965908 0.69069314 -0.142686129 1.36738956 0.701046944 -0.142699182 1.36318326 0.701046944 -0.142699182 1.36318326 0.701055586 -0.150442332 1.35417628 0.686942995 -0.149880975 1.35965908 0.746204078 -0.15647687 1.43693221 0.735745072 -0.15625675 1.44421673 0.745705068 -0.171002164 1.44765484 0.673083723 -0.149672717 1.3720026 0.678706706 -0.142689988 1.37878919 0.67993319 -0.149728253 1.36467111 0.701046944 -0.142699182 1.36318326 0.719693482 -0.142705277 1.36374748 0.706777096 -0.150733575 1.35337615 0.748655677 -0.153732151 1.37391126 0.74177283 -0.160167769 1.36231005 0.741838276 -0.15309374 1.36549389 0.702455044 -0.178504393 1.45257962 0.691279054 -0.160383657 1.44436491 0.690984726 -0.178733006 1.44849992 0.753440201 -0.171015397 1.44166768 0.746204078 -0.15647687 1.43693221 0.745705068 -0.171002164 1.44765484 0.752283216 -0.156336486 1.42977977 0.746204078 -0.15647687 1.43693221 0.761837006 -0.172322959 1.43335998 0.752283216 -0.156336486 1.42977977 0.761837006 -0.172322959 1.43335998 0.755276144 -0.156463727 1.4250927 0.761837006 -0.172322959 1.43335998 0.765391707 -0.172337487 1.42622519 0.755276144 -0.156463727 1.4250927 0.746204078 -0.15647687 1.43693221 0.753440201 -0.171015397 1.44166768 0.761837006 -0.172322959 1.43335998 0.748655677 -0.153732151 1.37391126 0.749399543 -0.160370409 1.3709656 0.74177283 -0.160167769 1.36231005 0.755276144 -0.156463727 1.4250927 0.765391707 -0.172337487 1.42622519 0.758697927 -0.156055763 1.41622615 0.758697927 -0.156055763 1.41622615 0.765391707 -0.172337487 1.42622519 0.768324196 -0.172333628 1.41475511 0.685124457 -0.15335004 1.43890214 0.679418504 -0.159176081 1.43742251 0.683837891 -0.15926604 1.44039237 0.760699391 -0.178388417 1.38178074 0.755154014 -0.17839098 1.37241304 0.749399543 -0.160370409 1.3709656 0.758697927 -0.156055763 1.41622615 0.768324196 -0.172333628 1.41475511 0.766855717 -0.170721561 1.41390347 0.685124457 -0.15335004 1.43890214 0.683837891 -0.15926604 1.44039237 0.691279054 -0.160383657 1.44436491 0.697217226 -0.161167651 1.44671607 0.691279054 -0.160383657 1.44436491 0.702455044 -0.178504393 1.45257962 0.758697927 -0.156055763 1.41622615 0.766855717 -0.170721561 1.41390347 0.759871542 -0.155941963 1.40791345 0.74177283 -0.160167769 1.36231005 0.749399543 -0.160370409 1.3709656 0.747456193 -0.178545609 1.36273396 0.759871542 -0.155941963 1.40791345 0.766227007 -0.170529813 1.40412605 0.758983254 -0.155582368 1.39871907 0.74177283 -0.160167769 1.36231005 0.747456193 -0.178545609 1.36273396 0.739429832 -0.178566083 1.35579133 0.693502426 -0.153868303 1.44289184 0.691279054 -0.160383657 1.44436491 0.697217226 -0.161167651 1.44671607 0.758983254 -0.155582368 1.39871907 0.766227007 -0.170529813 1.40412605 0.757250428 -0.155174166 1.39202142 0.749399543 -0.160370409 1.3709656 0.755154014 -0.17839098 1.37241304 0.747456193 -0.178545609 1.36273396 0.757250428 -0.155174166 1.39202142 0.766227007 -0.170529813 1.40412605 0.76332885 -0.173326924 1.3905319 0.757250428 -0.155174166 1.39202142 0.758315682 -0.16117397 1.38749981 0.748655677 -0.153732151 1.37391126 0.697217226 -0.161167651 1.44671607 0.708468974 -0.154883593 1.44680142 0.693502426 -0.153868303 1.44289184 0.758315682 -0.16117397 1.38749981 0.749399543 -0.160370409 1.3709656 0.748655677 -0.153732151 1.37391126 0.713265538 -0.173384756 1.45373881 0.702455044 -0.178504393 1.45257962 0.712120593 -0.178384021 1.45487201 0.766855717 -0.170721561 1.41390347 0.766227007 -0.170529813 1.40412605 0.759871542 -0.155941963 1.40791345 0.758315682 -0.16117397 1.38749981 0.760699391 -0.178388417 1.38178074 0.749399543 -0.160370409 1.3709656 0.757250428 -0.155174166 1.39202142 0.76332885 -0.173326924 1.3905319 0.758315682 -0.16117397 1.38749981 0.76332885 -0.173326924 1.3905319 0.760699391 -0.178388417 1.38178074 0.758315682 -0.16117397 1.38749981 0.713265538 -0.173384756 1.45373881 0.708468974 -0.154883593 1.44680142 0.697217226 -0.161167651 1.44671607 0.74177283 -0.160167769 1.36231005 0.730390787 -0.159152582 1.35502124 0.73170203 -0.152270928 1.35834384 0.73170203 -0.152270928 1.35834384 0.730390787 -0.159152582 1.35502124 0.725277007 -0.151815906 1.35564601 0.74177283 -0.160167769 1.36231005 0.73170203 -0.152270928 1.35834384 0.741838276 -0.15309374 1.36549389 0.730390787 -0.159152582 1.35502124 0.74177283 -0.160167769 1.36231005 0.739429832 -0.178566083 1.35579133 0.708468974 -0.154883593 1.44680142 0.713265538 -0.173384756 1.45373881 0.722798944 -0.170816138 1.45369625 0.730390787 -0.159152582 1.35502124 0.739429832 -0.178566083 1.35579133 0.72821027 -0.178684846 1.34985971 0.714673638 -0.155129001 1.44733202 0.722798944 -0.170816138 1.45369625 0.724965692 -0.155660212 1.44704473 0.714673638 -0.155129001 1.44733202 0.708468974 -0.154883593 1.44680142 0.722798944 -0.170816138 1.45369625 0.662622929 -0.159691557 1.38470054 0.662249863 -0.178627536 1.37543046 0.658275068 -0.178586572 1.38613081 0.662622929 -0.159691557 1.38470054 0.658275068 -0.178586572 1.38613081 0.660886645 -0.158803269 1.39482379 0.662249863 -0.178627536 1.37543046 0.662622929 -0.159691557 1.38470054 0.667845428 -0.158616036 1.3736968 0.736991584 -0.172308803 1.453385 0.724965692 -0.155660212 1.44704473 0.722798944 -0.170816138 1.45369625 0.671930254 -0.178607225 1.43598211 0.679418504 -0.159176081 1.43742251 0.668883145 -0.16015318 1.42655647 0.684776902 -0.160147607 1.35662377 0.687494218 -0.178714827 1.35108197 0.679520369 -0.17854853 1.35556984 0.659747005 -0.178514495 1.41664529 0.668883145 -0.16015318 1.42655647 0.66255337 -0.158725023 1.4121176 0.664321959 -0.178761214 1.42618167 0.668883145 -0.16015318 1.42655647 0.659747005 -0.178514495 1.41664529 0.659747005 -0.178514495 1.41664529 0.66255337 -0.158725023 1.4121176 0.661122322 -0.159115717 1.40593553 0.691279054 -0.160383657 1.44436491 0.693502426 -0.153868303 1.44289184 0.685124457 -0.15335004 1.43890214 0.687494218 -0.178714827 1.35108197 0.698128462 -0.160236925 1.3512584 0.697533309 -0.178552136 1.34767556 0.661122322 -0.159115717 1.40593553 0.657287776 -0.178529575 1.40697467 0.659747005 -0.178514495 1.41664529 0.657287776 -0.178529575 1.40697467 0.661122322 -0.159115717 1.40593553 0.65812254 -0.170849994 1.39723182 0.72989285 -0.156249598 1.44647932 0.724965692 -0.155660212 1.44704473 0.736991584 -0.172308803 1.453385 0.660886645 -0.158803269 1.39482379 0.658275068 -0.178586572 1.38613081 0.65812254 -0.170849994 1.39723182 0.65812254 -0.170849994 1.39723182 0.658275068 -0.178586572 1.38613081 0.657029867 -0.178764433 1.39322209 0.678094745 -0.158511192 1.36179626 0.669652104 -0.178622946 1.36436975 0.666125774 -0.178620443 1.36891329 0.704879403 -0.158634573 1.35058641 0.713006616 -0.178737864 1.34649003 0.697533309 -0.178552136 1.34767556 0.678094745 -0.158511192 1.36179626 0.684776902 -0.160147607 1.35662377 0.679520369 -0.17854853 1.35556984 0.684776902 -0.160147607 1.35662377 0.690300405 -0.159925491 1.35389185 0.687494218 -0.178714827 1.35108197 0.687494218 -0.178714827 1.35108197 0.690300405 -0.159925491 1.35389185 0.698128462 -0.160236925 1.3512584 0.697533309 -0.178552136 1.34767556 0.698128462 -0.160236925 1.3512584 0.704879403 -0.158634573 1.35058641 0.664248347 -0.150187477 1.39335144 0.661122322 -0.159115717 1.40593553 0.663756609 -0.150609404 1.40136683 0.713006616 -0.178737864 1.34649003 0.704879403 -0.158634573 1.35058641 0.719163239 -0.159259543 1.35122573 0.662622929 -0.159691557 1.38470054 0.666104078 -0.15000461 1.38524306 0.669220209 -0.149807349 1.37801671 0.719163239 -0.159259543 1.35122573 0.721420169 -0.178618908 1.34775734 0.713006616 -0.178737864 1.34649003 0.660886645 -0.158803269 1.39482379 0.661122322 -0.159115717 1.40593553 0.664248347 -0.150187477 1.39335144 0.669652104 -0.178622946 1.36436975 0.678094745 -0.158511192 1.36179626 0.679520369 -0.17854853 1.35556984 0.72821027 -0.178684846 1.34985971 0.719163239 -0.159259543 1.35122573 0.730390787 -0.159152582 1.35502124 0.668883145 -0.16015318 1.42655647 0.664321959 -0.178761214 1.42618167 0.671930254 -0.178607225 1.43598211 0.679418504 -0.159176081 1.43742251 0.685124457 -0.15335004 1.43890214 0.673118412 -0.152111948 1.42775154 0.719163239 -0.159259543 1.35122573 0.72821027 -0.178684846 1.34985971 0.721420169 -0.178618908 1.34775734 0.698128462 -0.160236925 1.3512584 0.690300405 -0.159925491 1.35389185 0.701055586 -0.150442332 1.35417628 0.667845428 -0.158616036 1.3736968 0.678094745 -0.158511192 1.36179626 0.666125774 -0.178620443 1.36891329 0.661122322 -0.159115717 1.40593553 0.660886645 -0.158803269 1.39482379 0.65812254 -0.170849994 1.39723182 0.65812254 -0.170849994 1.39723182 0.657029867 -0.178764433 1.39322209 0.657287776 -0.178529575 1.40697467 0.667845428 -0.158616036 1.3736968 0.666125774 -0.178620443 1.36891329 0.662249863 -0.178627536 1.37543046 0.678094745 -0.158511192 1.36179626 0.667845428 -0.158616036 1.3736968 0.673083723 -0.149672717 1.3720026 0.678094745 -0.158511192 1.36179626 0.673083723 -0.149672717 1.3720026 0.67993319 -0.149728253 1.36467111 0.716840267 -0.151258841 1.35368443 0.704879403 -0.158634573 1.35058641 0.706777096 -0.150733575 1.35337615 0.690300405 -0.159925491 1.35389185 0.686942995 -0.149880975 1.35965908 0.701055586 -0.150442332 1.35417628 0.684776902 -0.160147607 1.35662377 0.67993319 -0.149728253 1.36467111 0.686942995 -0.149880975 1.35965908 0.667845428 -0.158616036 1.3736968 0.662622929 -0.159691557 1.38470054 0.669220209 -0.149807349 1.37801671 0.719163239 -0.159259543 1.35122573 0.725277007 -0.151815906 1.35564601 0.730390787 -0.159152582 1.35502124 0.668883145 -0.16015318 1.42655647 0.679418504 -0.159176081 1.43742251 0.673118412 -0.152111948 1.42775154 0.662622929 -0.159691557 1.38470054 0.660886645 -0.158803269 1.39482379 0.666104078 -0.15000461 1.38524306 0.719163239 -0.159259543 1.35122573 0.716840267 -0.151258841 1.35368443 0.725277007 -0.151815906 1.35564601 0.719163239 -0.159259543 1.35122573 0.704879403 -0.158634573 1.35058641 0.716840267 -0.151258841 1.35368443 0.690300405 -0.159925491 1.35389185 0.684776902 -0.160147607 1.35662377 0.686942995 -0.149880975 1.35965908 0.661122322 -0.159115717 1.40593553 0.66255337 -0.158725023 1.4121176 0.663756609 -0.150609404 1.40136683 0.66255337 -0.158725023 1.4121176 0.666921556 -0.151348427 1.41664517 0.663756609 -0.150609404 1.40136683 0.667845428 -0.158616036 1.3736968 0.669220209 -0.149807349 1.37801671 0.673083723 -0.149672717 1.3720026 0.660886645 -0.158803269 1.39482379 0.664248347 -0.150187477 1.39335144 0.666104078 -0.15000461 1.38524306 0.704879403 -0.158634573 1.35058641 0.698128462 -0.160236925 1.3512584 0.706777096 -0.150733575 1.35337615 0.668883145 -0.16015318 1.42655647 0.673118412 -0.152111948 1.42775154 0.669493198 -0.151712641 1.42219377 0.66255337 -0.158725023 1.4121176 0.668883145 -0.16015318 1.42655647 0.666921556 -0.151348427 1.41664517 0.706777096 -0.150733575 1.35337615 0.698128462 -0.160236925 1.3512584 0.701055586 -0.150442332 1.35417628 0.684776902 -0.160147607 1.35662377 0.678094745 -0.158511192 1.36179626 0.67993319 -0.149728253 1.36467111 0.668883145 -0.16015318 1.42655647 0.669493198 -0.151712641 1.42219377 0.666921556 -0.151348427 1.41664517 </float_array>
          <technique_common>
            <accessor count="1071" offset="0" source="#mesh_0-positions-array" stride="3">
              <param name="X" type="float" />
              <param name="Y" type="float" />
              <param name="Z" type="float" />
            </accessor>
          </technique_common>
        </source>
        <vertices id="mesh_0-vertices">
          <input semantic="POSITION" source="#mesh_0-positions" />
        </vertices>
        <polylist count="357" material="defaultMaterial">
          <input offset="0" semantic="VERTEX" source="#mesh_0-vertices" />
          <vcount>3 3 3 3 3 3 3 3 3 3 3 3 3 3 3 3 3 3 3 3 3 3 3 3 3 3 3 3 3 3 3 3 3 3 3 3 3 3 3 3 3 3 3 3 3 3 3 3 3 3 3 3 3 3 3 3 3 3 3 3 3 3 3 3 3 3 3 3 3 3 3 3 3 3 3 3 3 3 3 3 3 3 3 3 3 3 3 3 3 3 3 3 3 3 3 3 3 3 3 3 3 3 3 3 3 3 3 3 3 3 3 3 3 3 3 3 3 3 3 3 3 3 3 3 3 3 3 3 3 3 3 3 3 3 3 3 3 3 3 3 3 3 3 3 3 3 3 3 3 3 3 3 3 3 3 3 3 3 3 3 3 3 3 3 3 3 3 3 3 3 3 3 3 3 3 3 3 3 3 3 3 3 3 3 3 3 3 3 3 3 3 3 3 3 3 3 3 3 3 3 3 3 3 3 3 3 3 3 3 3 3 3 3 3 3 3 3 3 3 3 3 3 3 3 3 3 3 3 3 3 3 3 3 3 3 3 3 3 3 3 3 3 3 3 3 3 3 3 3 3 3 3 3 3 3 3 3 3 3 3 3 3 3 3 3 3 3 3 3 3 3 3 3 3 3 3 3 3 3 3 3 3 3 3 3 3 3 3 3 3 3 3 3 3 3 3 3 3 3 3 3 3 3 3 3 3 3 3 3 3 3 3 3 3 3 3 3 3 3 3 3 3 3 3 3 3 3 3 3 3 3 3 3 3 3 3 3 3 3 3 3 3 3 3 3 3 3 3 3 3 3 3 3 3 3 3 3 </vcount>
          <p>0 1 2 3 4 5 6 7 8 9 10 11 12 13 14 15 16 17 18 19 20 21 22 23 24 25 26 27 28 29 30 31 32 33 34 35 36 37 38 39 40 41 42 43 44 45 46 47 48 49 50 51 52 53 54 55 56 57 58 59 60 61 62 63 64 65 66 67 68 69 70 71 72 73 74 75 76 77 78 79 80 81 82 83 84 85 86 87 88 89 90 91 92 93 94 95 96 97 98 99 100 101 102 103 104 105 106 107 108 109 110 111 112 113 114 115 116 117 118 119 120 121 122 123 124 125 126 127 128 129 130 131 132 133 134 135 136 137 138 139 140 141 142 143 144 145 146 147 148 149 150 151 152 153 154 155 156 157 158 159 160 161 162 163 164 165 166 167 168 169 170 171 172 173 174 175 176 177 178 179 180 181 182 183 184 185 186 187 188 189 190 191 192 193 194 195 196 197 198 199 200 201 202 203 204 205 206 207 208 209 210 211 212 213 214 215 216 217 218 219 220 221 222 223 224 225 226 227 228 229 230 231 232 233 234 235 236 237 238 239 240 241 242 243 244 245 246 247 248 249 250 251 252 253 254 255 256 257 258 259 260 261 262 263 264 265 266 267 268 269 270 271 272 273 274 275 276 277 278 279 280 281 282 283 284 285 286 287 288 289 290 291 292 293 294 295 296 297 298 299 300 301 302 303 304 305 306 307 308 309 310 311 312 313 314 315 316 317 318 319 320 321 322 323 324 325 326 327 328 329 330 331 332 333 334 335 336 337 338 339 340 341 342 343 344 345 346 347 348 349 350 351 352 353 354 355 356 357 358 359 360 361 362 363 364 365 366 367 368 369 370 371 372 373 374 375 376 377 378 379 380 381 382 383 384 385 386 387 388 389 390 391 392 393 394 395 396 397 398 399 400 401 402 403 404 405 406 407 408 409 410 411 412 413 414 415 416 417 418 419 420 421 422 423 424 425 426 427 428 429 430 431 432 433 434 435 436 437 438 439 440 441 442 443 444 445 446 447 448 449 450 451 452 453 454 455 456 457 458 459 460 461 462 463 464 465 466 467 468 469 470 471 472 473 474 475 476 477 478 479 480 481 482 483 484 485 486 487 488 489 490 491 492 493 494 495 496 497 498 499 500 501 502 503 504 505 506 507 508 509 510 511 512 513 514 515 516 517 518 519 520 521 522 523 524 525 526 527 528 529 530 531 532 533 534 535 536 537 538 539 540 541 542 543 544 545 546 547 548 549 550 551 552 553 554 555 556 557 558 559 560 561 562 563 564 565 566 567 568 569 570 571 572 573 574 575 576 577 578 579 580 581 582 583 584 585 586 587 588 589 590 591 592 593 594 595 596 597 598 599 600 601 602 603 604 605 606 607 608 609 610 611 612 613 614 615 616 617 618 619 620 621 622 623 624 625 626 627 628 629 630 631 632 633 634 635 636 637 638 639 640 641 642 643 644 645 646 647 648 649 650 651 652 653 654 655 656 657 658 659 660 661 662 663 664 665 666 667 668 669 670 671 672 673 674 675 676 677 678 679 680 681 682 683 684 685 686 687 688 689 690 691 692 693 694 695 696 697 698 699 700 701 702 703 704 705 706 707 708 709 710 711 712 713 714 715 716 717 718 719 720 721 722 723 724 725 726 727 728 729 730 731 732 733 734 735 736 737 738 739 740 741 742 743 744 745 746 747 748 749 750 751 752 753 754 755 756 757 758 759 760 761 762 763 764 765 766 767 768 769 770 771 772 773 774 775 776 777 778 779 780 781 782 783 784 785 786 787 788 789 790 791 792 793 794 795 796 797 798 799 800 801 802 803 804 805 806 807 808 809 810 811 812 813 814 815 816 817 818 819 820 821 822 823 824 825 826 827 828 829 830 831 832 833 834 835 836 837 838 839 840 841 842 843 844 845 846 847 848 849 850 851 852 853 854 855 856 857 858 859 860 861 862 863 864 865 866 867 868 869 870 871 872 873 874 875 876 877 878 879 880 881 882 883 884 885 886 887 888 889 890 891 892 893 894 895 896 897 898 899 900 901 902 903 904 905 906 907 908 909 910 911 912 913 914 915 916 917 918 919 920 921 922 923 924 925 926 927 928 929 930 931 932 933 934 935 936 937 938 939 940 941 942 943 944 945 946 947 948 949 950 951 952 953 954 955 956 957 958 959 960 961 962 963 964 965 966 967 968 969 970 971 972 973 974 975 976 977 978 979 980 981 982 983 984 985 986 987 988 989 990 991 992 993 994 995 996 997 998 999 1000 1001 1002 1003 1004 1005 1006 1007 1008 1009 1010 1011 1012 1013 1014 1015 1016 1017 1018 1019 1020 1021 1022 1023 1024 1025 1026 1027 1028 1029 1030 1031 1032 1033 1034 1035 1036 1037 1038 1039 1040 1041 1042 1043 1044 1045 1046 1047 1048 1049 1050 1051 1052 1053 1054 1055 1056 1057 1058 1059 1060 1061 1062 1063 1064 1065 1066 1067 1068 1069 1070 </p>
        </polylist>
      </mesh>
    </geometry>
  </library_geometries>
  <library_controllers>
  </library_controllers>
  <library_visual_scenes>
    <visual_scene id="Scene" name="Scene">
      <node id="node" name="" type="NODE">
        <matrix sid="matrix">1 0 0 0 0 1 0 0 0 0 1 0 0 0 0 1</matrix>
        <instance_geometry url="#mesh_0">
          <bind_material>
            <technique_common>
              <instance_material symbol="defaultMaterial" target="#material_0">
              </instance_material>
            </technique_common>
          </bind_material>
        </instance_geometry>
      </node>
    </visual_scene>
  </library_visual_scenes>
  <scene>
    <instance_visual_scene url="#Scene" />
  </scene>
</COLLADA>
