<?xml version="1.0" encoding="UTF-8" standalone="no" ?>
<COLLADA xmlns="http://www.collada.org/2005/11/COLLADASchema" version="1.4.1">
  <asset>
    <contributor>
      <author>Assimp</author>
      <authoring_tool>Assimp Exporter</authoring_tool>
    </contributor>
    <created>2026-04-22T16:09:44</created>
    <modified>2026-04-22T16:09:44</modified>
    <unit name="meter" meter="1" />
    <up_axis>Y_UP</up_axis>
  </asset>
  <library_images>
  </library_images>
  <library_effects>
    <effect id="material_0-fx" name="">
      <profile_COMMON>
        <technique sid="standard">
          <phong>
            <emission>
              <color sid="emission">0   0   0   -0</color>
            </emission>
            <ambient>
              <color sid="ambient">0.699999988   1   0.699999988   1.82499993</color>
            </ambient>
            <diffuse>
              <color sid="diffuse">0.699999988   1   0.699999988   1.82499993</color>
            </diffuse>
            <specular>
              <color sid="specular">0.25   0.25   0.25   -0</color>
            </specular>
          </phong>
        </technique>
      </profile_COMMON>
    </effect>
  </library_effects>
  <library_materials>
    <material id="material_0" name="">
      <instance_effect url="#material_0-fx"/>
    </material>
  </library_materials>
  <library_geometries>
    <geometry id="mesh_0" name="" >
      <mesh>
        <source id="mesh_0-positions" name="mesh_0-positions">
          <float_array id="mesh_0-positions-array" count="144"> -0.301128328 0.12253423 1.77611947 -0.296448886 0.104040876 1.76859343 -0.287067175 0.140572831 1.78062034 -0.266979754 0.133324906 1.72395885 -0.266934931 0.129100636 1.70551121 -0.287067175 0.140572831 1.78062034 -0.266934931 0.129100636 1.70551121 -0.280045271 0.127586931 1.72165787 -0.287067175 0.140572831 1.78062034 -0.280045271 0.127586931 1.72165787 -0.301128328 0.12253423 1.77611947 -0.287067175 0.140572831 1.78062034 -0.301128328 0.12253423 1.77611947 -0.280045271 0.127586931 1.72165787 -0.296448886 0.104040876 1.76859343 -0.276286721 0.13418287 1.74874282 -0.266979754 0.133324906 1.72395885 -0.287067175 0.140572831 1.78062034 -0.276286721 0.13418287 1.74874282 -0.291892618 0.106828637 1.76114738 -0.266979754 0.133324906 1.72395885 -0.296448886 0.104040876 1.76859343 -0.291892618 0.106828637 1.76114738 -0.287067175 0.140572831 1.78062034 -0.291892618 0.106828637 1.76114738 -0.276286721 0.13418287 1.74874282 -0.287067175 0.140572831 1.78062034 -0.281379104 0.116969384 1.73312974 -0.280045271 0.127586931 1.72165787 -0.266934931 0.129100636 1.70551121 -0.280045271 0.127586931 1.72165787 -0.281379104 0.116969384 1.73312974 -0.296448886 0.104040876 1.76859343 -0.266979754 0.133324906 1.72395885 -0.284126848 0.113386273 1.74258029 -0.266934931 0.129100636 1.70551121 -0.291892618 0.106828637 1.76114738 -0.284126848 0.113386273 1.74258029 -0.266979754 0.133324906 1.72395885 -0.284126848 0.113386273 1.74258029 -0.281379104 0.116969384 1.73312974 -0.266934931 0.129100636 1.70551121 -0.284126848 0.113386273 1.74258029 -0.291892618 0.106828637 1.76114738 -0.296448886 0.104040876 1.76859343 -0.281379104 0.116969384 1.73312974 -0.284126848 0.113386273 1.74258029 -0.296448886 0.104040876 1.76859343 </float_array>
          <technique_common>
            <accessor count="48" offset="0" source="#mesh_0-positions-array" stride="3">
              <param name="X" type="float" />
              <param name="Y" type="float" />
              <param name="Z" type="float" />
            </accessor>
          </technique_common>
        </source>
        <vertices id="mesh_0-vertices">
          <input semantic="POSITION" source="#mesh_0-positions" />
        </vertices>
        <polylist count="16" material="defaultMaterial">
          <input offset="0" semantic="VERTEX" source="#mesh_0-vertices" />
          <vcount>3 3 3 3 3 3 3 3 3 3 3 3 3 3 3 3 </vcount>
          <p>0 1 2 3 4 5 6 7 8 9 10 11 12 13 14 15 16 17 18 19 20 21 22 23 24 25 26 27 28 29 30 31 32 33 34 35 36 37 38 39 40 41 42 43 44 45 46 47 </p>
        </polylist>
      </mesh>
    </geometry>
  </library_geometries>
  <library_controllers>
  </library_controllers>
  <library_visual_scenes>
    <visual_scene id="Scene" name="Scene">
      <node id="node" name="" type="NODE">
        <matrix sid="matrix">1 0 0 0 0 1 0 0 0 0 1 0 0 0 0 1</matrix>
        <instance_geometry url="#mesh_0">
          <bind_material>
            <technique_common>
              <instance_material symbol="defaultMaterial" target="#material_0">
              </instance_material>
            </technique_common>
          </bind_material>
        </instance_geometry>
      </node>
    </visual_scene>
  </library_visual_scenes>
  <scene>
    <instance_visual_scene url="#Scene" />
  </scene>
</COLLADA>
