<?xml version="1.0" encoding="UTF-8" standalone="no" ?>
<COLLADA xmlns="http://www.collada.org/2005/11/COLLADASchema" version="1.4.1">
  <asset>
    <contributor>
      <author>Assimp</author>
      <authoring_tool>Assimp Exporter</authoring_tool>
    </contributor>
    <created>2026-04-22T16:09:44</created>
    <modified>2026-04-22T16:09:44</modified>
    <unit name="meter" meter="1" />
    <up_axis>Y_UP</up_axis>
  </asset>
  <library_images>
  </library_images>
  <library_effects>
    <effect id="material_0-fx" name="">
      <profile_COMMON>
        <technique sid="standard">
          <phong>
            <emission>
              <color sid="emission">0   0   0   -1.29948092</color>
            </emission>
            <ambient>
              <color sid="ambient">0.61245358   0.933501363   0.791171074   -1.40118456</color>
            </ambient>
            <diffuse>
              <color sid="diffuse">0.61245358   0.933501363   0.791171074   -1.40118456</color>
            </diffuse>
            <specular>
              <color sid="specular">0.25   0.25   0.25   -0.337564439</color>
            </specular>
          </phong>
        </technique>
      </profile_COMMON>
    </effect>
  </library_effects>
  <library_materials>
    <material id="material_0" name="">
      <instance_effect url="#material_0-fx"/>
    </material>
  </library_materials>
  <library_geometries>
    <geometry id="mesh_0" name="" >
      <mesh>
        <source id="mesh_0-positions" name="mesh_0-positions">
          <float_array id="mesh_0-positions-array" count="1800"> -0.15164049 -0.000551885518 1.67518091 -0.123002492 0.0343994871 1.67513633 -0.129924849 0.00984336343 1.67513132 -0.158618957 0.073982209 1.72990501 -0.160246998 0.0736582279 1.68530393 -0.192537636 0.0677072704 1.69740915 -0.166077867 0.0020622476 1.67517877 -0.174481675 0.00760410074 1.67520952 -0.15164049 -0.000551885518 1.67518091 -0.0699958727 8.80471416e-05 1.69142759 -0.0719966739 0.00214944966 1.68738055 -0.123067431 0.0616531633 1.68525183 -0.0699958727 8.80471416e-05 1.69142759 -0.123067431 0.0616531633 1.68525183 -0.0701236054 0.000715275877 1.69954634 -0.123067431 0.0616531633 1.68525183 -0.121636808 0.0603525229 1.72980511 -0.0701236054 0.000715275877 1.69954634 -0.129114315 0.0667800307 1.7298857 -0.121636808 0.0603525229 1.72980511 -0.123067431 0.0616531633 1.68525183 -0.110467285 0.0374785773 1.72991753 -0.11034105 0.0218878165 1.72991824 -0.0715470761 0.00023862446 1.70522535 -0.0825871378 -0.0177928824 1.68750405 -0.0930679291 -0.0322053879 1.68913782 -0.0980003625 -0.0348924696 1.68701112 -0.15164049 -0.000551885518 1.67518091 -0.174481675 0.00760410074 1.67520952 -0.184804633 0.0312429797 1.67521489 -0.184804633 0.0312429797 1.67521489 -0.174481675 0.00760410074 1.67520952 -0.181242019 0.0163229648 1.67521548 -0.0733718649 0.0013948984 1.68588352 -0.131089538 0.0508505255 1.67510593 -0.123067431 0.0616531633 1.68525183 -0.131089538 0.0508505255 1.67510593 -0.140208229 0.0576031804 1.67515373 -0.129870057 0.0669683442 1.68517101 -0.0733718649 0.0013948984 1.68588352 -0.123067431 0.0616531633 1.68525183 -0.0719966739 0.00214944966 1.68738055 -0.0718330219 -0.00107992499 1.68716979 -0.0733718649 0.0013948984 1.68588352 -0.07109797 0.000237065819 1.68776405 -0.129924849 0.00984336343 1.67513132 -0.0868908316 -0.020032445 1.68607306 -0.111946128 -0.0439602062 1.68587816 -0.152881458 -0.0137012871 1.72998464 -0.11007382 -0.045653522 1.70526576 -0.136446953 -0.01044947 1.72995937 -0.192537636 0.0677072704 1.69740915 -0.19746238 0.0620234124 1.697317 -0.186433792 0.0596681423 1.72997725 -0.192537636 0.0677072704 1.69740915 -0.19354786 0.0663775429 1.69294572 -0.194878995 0.064743802 1.69230044 -0.19354786 0.0663775429 1.69294572 -0.192537636 0.0677072704 1.69740915 -0.168668315 0.0713623613 1.68501246 -0.160246998 0.0736582279 1.68530393 -0.168668315 0.0713623613 1.68501246 -0.192537636 0.0677072704 1.69740915 -0.169200391 0.0714290813 1.72993612 -0.158618957 0.073982209 1.72990501 -0.192537636 0.0677072704 1.69740915 -0.155641913 0.0740367696 1.68516767 -0.158618957 0.073982209 1.72990501 -0.14905335 0.0740493536 1.7298578 -0.14905335 0.0740493536 1.7298578 -0.13907221 0.0717749447 1.72984898 -0.142501786 0.0725775063 1.68511379 -0.155641913 0.0740367696 1.68516767 -0.160246998 0.0736582279 1.68530393 -0.158618957 0.073982209 1.72990501 -0.168668315 0.0713623613 1.68501246 -0.160246998 0.0736582279 1.68530393 -0.161738366 0.0599613003 1.67517936 -0.149584949 0.0605936386 1.67516589 -0.142501786 0.0725775063 1.68511379 -0.140208229 0.0576031804 1.67515373 -0.142501786 0.0725775063 1.68511379 -0.135715544 0.0702058896 1.68525684 -0.140208229 0.0576031804 1.67515373 -0.13907221 0.0717749447 1.72984898 -0.135715544 0.0702058896 1.68525684 -0.142501786 0.0725775063 1.68511379 -0.0703606457 -0.00172801455 1.68935752 -0.076645568 -0.0135899065 1.69332576 -0.0772350878 -0.0119613828 1.68873608 -0.0699958727 8.80471416e-05 1.69142759 -0.0701236054 0.000715275877 1.69954634 -0.0693530962 -0.00228245091 1.69604862 -0.15164049 -0.000551885518 1.67518091 -0.129924849 0.00984336343 1.67513132 -0.111946128 -0.0439602062 1.68587816 -0.123002492 0.0343994871 1.67513633 -0.0733718649 0.0013948984 1.68588352 -0.129924849 0.00984336343 1.67513132 -0.140208229 0.0576031804 1.67515373 -0.135715544 0.0702058896 1.68525684 -0.129870057 0.0669683442 1.68517101 -0.123002492 0.0343994871 1.67513633 -0.131089538 0.0508505255 1.67510593 -0.0733718649 0.0013948984 1.68588352 -0.114836231 0.0509179272 1.72988129 -0.110467285 0.0374785773 1.72991753 -0.0715470761 0.00023862446 1.70522535 -0.11007382 -0.045653522 1.70526576 -0.152881458 -0.0137012871 1.72998464 -0.163337901 -0.0126631269 1.72999382 -0.11007382 -0.045653522 1.70526576 -0.163337901 -0.0126631269 1.72999382 -0.173613861 -0.00913736504 1.72992587 -0.178235337 -0.00627036393 1.6852628 -0.173613861 -0.00913736504 1.72992587 -0.179508954 -0.0054967436 1.72990954 -0.111853033 -0.0458793417 1.68810594 -0.108772419 -0.0466414578 1.68910956 -0.109358408 -0.0471804142 1.69266331 -0.0715470761 0.00023862446 1.70522535 -0.11034105 0.0218878165 1.72991824 -0.120013654 0.00182843592 1.72994697 -0.120013654 0.00182843592 1.72994697 -0.0770021304 -0.0103146574 1.70457542 -0.0715470761 0.00023862446 1.70522535 -0.181242019 0.0163229648 1.67521548 -0.195835516 0.0174493063 1.68521667 -0.184804633 0.0312429797 1.67521489 -0.194878995 0.064743802 1.69230044 -0.196493626 0.0628803149 1.69319677 -0.192537636 0.0677072704 1.69740915 -0.192721069 0.0507766642 1.72995543 -0.19746238 0.0620234124 1.697317 -0.197239369 0.0368878767 1.72997153 -0.169200391 0.0714290813 1.72993612 -0.192537636 0.0677072704 1.69740915 -0.178494856 0.0665652156 1.73000014 -0.184804633 0.0312429797 1.67521489 -0.1793309 0.047396671 1.67520666 -0.171775267 0.0549793057 1.67519677 -0.1793309 0.047396671 1.67520666 -0.194317743 0.0454631336 1.68446088 -0.194878995 0.064743802 1.69230044 -0.1793309 0.047396671 1.67520666 -0.184804633 0.0312429797 1.67521489 -0.194317743 0.0454631336 1.68446088 -0.168668315 0.0713623613 1.68501246 -0.177090585 0.0670636967 1.68483508 -0.19354786 0.0663775429 1.69294572 -0.0699958727 8.80471416e-05 1.69142759 -0.0703606457 -0.00172801455 1.68935752 -0.07109797 0.000237065819 1.68776405 -0.111946128 -0.0439602062 1.68587816 -0.166077867 0.0020622476 1.67517877 -0.15164049 -0.000551885518 1.67518091 -0.0730635673 -0.00811996683 1.69970357 -0.0698297918 -0.00170577609 1.70189154 -0.075713113 -0.011014496 1.70221639 -0.0846423656 -0.0219285842 1.70358992 -0.075713113 -0.011014496 1.70221639 -0.0770021304 -0.0103146574 1.70457542 -0.0930679291 -0.0322053879 1.68913782 -0.100724377 -0.040895883 1.69131804 -0.10805691 -0.0457405336 1.68823862 -0.10805691 -0.0457405336 1.68823862 -0.0980003625 -0.0348924696 1.68701112 -0.0930679291 -0.0322053879 1.68913782 -0.07109797 0.000237065819 1.68776405 -0.0733718649 0.0013948984 1.68588352 -0.0719966739 0.00214944966 1.68738055 -0.0733718649 0.0013948984 1.68588352 -0.0868908316 -0.020032445 1.68607306 -0.129924849 0.00984336343 1.67513132 -0.108779408 -0.0466569141 1.70356917 -0.107233427 -0.0471182242 1.70030165 -0.101668566 -0.0406574383 1.7035172 -0.136446953 -0.01044947 1.72995937 -0.11007382 -0.045653522 1.70526576 -0.120013654 0.00182843592 1.72994697 -0.11007382 -0.045653522 1.70526576 -0.0982302129 -0.034996435 1.70527232 -0.120013654 0.00182843592 1.72994697 -0.0853642747 -0.0198328216 1.70545268 -0.0770021304 -0.0103146574 1.70457542 -0.120013654 0.00182843592 1.72994697 -0.110145368 -0.0452605449 1.68690443 -0.108772419 -0.0466414578 1.68910956 -0.111853033 -0.0458793417 1.68810594 -0.0980003625 -0.0348924696 1.68701112 -0.10805691 -0.0457405336 1.68823862 -0.110145368 -0.0452605449 1.68690443 -0.0980003625 -0.0348924696 1.68701112 -0.110145368 -0.0452605449 1.68690443 -0.111946128 -0.0439602062 1.68587816 -0.111946128 -0.0439602062 1.68587816 -0.110145368 -0.0452605449 1.68690443 -0.111853033 -0.0458793417 1.68810594 -0.178235337 -0.00627036393 1.6852628 -0.111946128 -0.0439602062 1.68587816 -0.111853033 -0.0458793417 1.68810594 -0.179508954 -0.0054967436 1.72990954 -0.182950631 -0.00264175469 1.68531573 -0.178235337 -0.00627036393 1.6852628 -0.195835516 0.0174493063 1.68521667 -0.196125299 0.0179444458 1.72993994 -0.19735308 0.0239685383 1.68538857 -0.195835516 0.0174493063 1.68521667 -0.19735308 0.0239685383 1.68538857 -0.184804633 0.0312429797 1.67521489 -0.196493626 0.0628803149 1.69319677 -0.19746238 0.0620234124 1.697317 -0.192537636 0.0677072704 1.69740915 -0.197774887 0.0279842615 1.72996378 -0.19735308 0.0239685383 1.68538857 -0.196125299 0.0179444458 1.72993994 -0.19746238 0.0620234124 1.697317 -0.192721069 0.0507766642 1.72995543 -0.186433792 0.0596681423 1.72997725 -0.197774887 0.0279842615 1.72996378 -0.197239369 0.0368878767 1.72997153 -0.19746238 0.0620234124 1.697317 -0.186433792 0.0596681423 1.72997725 -0.178494856 0.0665652156 1.73000014 -0.192537636 0.0677072704 1.69740915 -0.161738366 0.0599613003 1.67517936 -0.177090585 0.0670636967 1.68483508 -0.168668315 0.0713623613 1.68501246 -0.171775267 0.0549793057 1.67519677 -0.177090585 0.0670636967 1.68483508 -0.161738366 0.0599613003 1.67517936 -0.194317743 0.0454631336 1.68446088 -0.196493626 0.0628803149 1.69319677 -0.194878995 0.064743802 1.69230044 -0.14905335 0.0740493536 1.7298578 -0.142501786 0.0725775063 1.68511379 -0.149253488 0.0739156902 1.68535554 -0.14905335 0.0740493536 1.7298578 -0.149253488 0.0739156902 1.68535554 -0.155641913 0.0740367696 1.68516767 -0.155641913 0.0740367696 1.68516767 -0.161738366 0.0599613003 1.67517936 -0.160246998 0.0736582279 1.68530393 -0.0703606457 -0.00172801455 1.68935752 -0.0693530962 -0.00228245091 1.69604862 -0.076645568 -0.0135899065 1.69332576 -0.0772350878 -0.0119613828 1.68873608 -0.0825871378 -0.0177928824 1.68750405 -0.0718330219 -0.00107992499 1.68716979 -0.0693530962 -0.00228245091 1.69604862 -0.0698297918 -0.00170577609 1.70189154 -0.0730635673 -0.00811996683 1.69970357 -0.0733718649 0.0013948984 1.68588352 -0.0718330219 -0.00107992499 1.68716979 -0.0868908316 -0.020032445 1.68607306 -0.114836231 0.0509179272 1.72988129 -0.0709221959 0.00100827834 1.70372534 -0.121636808 0.0603525229 1.72980511 -0.0698297918 -0.00170577609 1.70189154 -0.0701236054 0.000715275877 1.69954634 -0.0709221959 0.00100827834 1.70372534 -0.0693530962 -0.00228245091 1.69604862 -0.0701236054 0.000715275877 1.69954634 -0.0698297918 -0.00170577609 1.70189154 -0.0715470761 0.00023862446 1.70522535 -0.0709221959 0.00100827834 1.70372534 -0.114836231 0.0509179272 1.72988129 -0.0933265537 -0.032686539 1.70280993 -0.083761856 -0.022999635 1.70030475 -0.0846423656 -0.0219285842 1.70358992 -0.0933265537 -0.032686539 1.70280993 -0.0931800902 -0.0340341143 1.69949508 -0.083761856 -0.022999635 1.70030475 -0.0930679291 -0.0322053879 1.68913782 -0.0821277872 -0.0199810807 1.69036186 -0.0896329358 -0.0301031377 1.69355428 -0.123067431 0.0616531633 1.68525183 -0.131089538 0.0508505255 1.67510593 -0.129870057 0.0669683442 1.68517101 -0.0772350878 -0.0119613828 1.68873608 -0.0718330219 -0.00107992499 1.68716979 -0.0703606457 -0.00172801455 1.68935752 -0.108772419 -0.0466414578 1.68910956 -0.107542619 -0.0471554846 1.69255769 -0.109358408 -0.0471804142 1.69266331 -0.178235337 -0.00627036393 1.6852628 -0.111630447 -0.0462622009 1.70254838 -0.173613861 -0.00913736504 1.72992587 -0.111853033 -0.0458793417 1.68810594 -0.111630447 -0.0462622009 1.70254838 -0.178235337 -0.00627036393 1.6852628 -0.111853033 -0.0458793417 1.68810594 -0.109358408 -0.0471804142 1.69266331 -0.111630447 -0.0462622009 1.70254838 -0.111946128 -0.0439602062 1.68587816 -0.178235337 -0.00627036393 1.6852628 -0.166077867 0.0020622476 1.67517877 -0.185708448 -0.000222957693 1.72991836 -0.182950631 -0.00264175469 1.68531573 -0.179508954 -0.0054967436 1.72990954 -0.185708448 -0.000222957693 1.72991836 -0.188124925 0.00264047715 1.68547094 -0.182950631 -0.00264175469 1.68531573 -0.192041472 0.00831190497 1.72993863 -0.188124925 0.00264047715 1.68547094 -0.185708448 -0.000222957693 1.72991836 -0.197598293 0.0330351591 1.68521404 -0.196493626 0.0628803149 1.69319677 -0.194317743 0.0454631336 1.68446088 -0.1793309 0.047396671 1.67520666 -0.194878995 0.064743802 1.69230044 -0.171775267 0.0549793057 1.67519677 -0.177090585 0.0670636967 1.68483508 -0.194878995 0.064743802 1.69230044 -0.19354786 0.0663775429 1.69294572 -0.194878995 0.064743802 1.69230044 -0.177090585 0.0670636967 1.68483508 -0.171775267 0.0549793057 1.67519677 -0.149584949 0.0605936386 1.67516589 -0.155641913 0.0740367696 1.68516767 -0.149253488 0.0739156902 1.68535554 -0.131089538 0.0508505255 1.67510593 -0.149584949 0.0605936386 1.67516589 -0.140208229 0.0576031804 1.67515373 -0.161738366 0.0599613003 1.67517936 -0.149584949 0.0605936386 1.67516589 -0.171775267 0.0549793057 1.67519677 -0.123002492 0.0343994871 1.67513633 -0.149584949 0.0605936386 1.67516589 -0.131089538 0.0508505255 1.67510593 -0.171775267 0.0549793057 1.67519677 -0.149584949 0.0605936386 1.67516589 -0.184804633 0.0312429797 1.67521489 -0.149584949 0.0605936386 1.67516589 -0.161738366 0.0599613003 1.67517936 -0.155641913 0.0740367696 1.68516767 -0.129114315 0.0667800307 1.7298857 -0.135715544 0.0702058896 1.68525684 -0.13907221 0.0717749447 1.72984898 -0.129870057 0.0669683442 1.68517101 -0.135715544 0.0702058896 1.68525684 -0.129114315 0.0667800307 1.7298857 -0.0699958727 8.80471416e-05 1.69142759 -0.0693530962 -0.00228245091 1.69604862 -0.0703606457 -0.00172801455 1.68935752 -0.0699958727 8.80471416e-05 1.69142759 -0.07109797 0.000237065819 1.68776405 -0.0719966739 0.00214944966 1.68738055 -0.0868908316 -0.020032445 1.68607306 -0.0825871378 -0.0177928824 1.68750405 -0.0980003625 -0.0348924696 1.68701112 -0.0709221959 0.00100827834 1.70372534 -0.0701236054 0.000715275877 1.69954634 -0.121636808 0.0603525229 1.72980511 -0.083761856 -0.022999635 1.70030475 -0.075713113 -0.011014496 1.70221639 -0.0846423656 -0.0219285842 1.70358992 -0.075713113 -0.011014496 1.70221639 -0.083761856 -0.022999635 1.70030475 -0.0730635673 -0.00811996683 1.69970357 -0.0821277872 -0.0199810807 1.69036186 -0.0772350878 -0.0119613828 1.68873608 -0.076645568 -0.0135899065 1.69332576 -0.0980003625 -0.0348924696 1.68701112 -0.111946128 -0.0439602062 1.68587816 -0.0868908316 -0.020032445 1.68607306 -0.0853642747 -0.0198328216 1.70545268 -0.0982302129 -0.034996435 1.70527232 -0.0846423656 -0.0219285842 1.70358992 -0.0846423656 -0.0219285842 1.70358992 -0.0982302129 -0.034996435 1.70527232 -0.0933265537 -0.032686539 1.70280993 -0.0933265537 -0.032686539 1.70280993 -0.0982302129 -0.034996435 1.70527232 -0.101668566 -0.0406574383 1.7035172 -0.0933265537 -0.032686539 1.70280993 -0.101668566 -0.0406574383 1.7035172 -0.0931800902 -0.0340341143 1.69949508 -0.107233427 -0.0471182242 1.70030165 -0.0931800902 -0.0340341143 1.69949508 -0.101668566 -0.0406574383 1.7035172 -0.0930679291 -0.0322053879 1.68913782 -0.0896329358 -0.0301031377 1.69355428 -0.100724377 -0.040895883 1.69131804 -0.106901743 -0.0471902154 1.69616175 -0.100724377 -0.040895883 1.69131804 -0.0896329358 -0.0301031377 1.69355428 -0.106901743 -0.0471902154 1.69616175 -0.0896329358 -0.0301031377 1.69355428 -0.0931800902 -0.0340341143 1.69949508 -0.0931800902 -0.0340341143 1.69949508 -0.107233427 -0.0471182242 1.70030165 -0.106901743 -0.0471902154 1.69616175 -0.195835516 0.0174493063 1.68521667 -0.181242019 0.0163229648 1.67521548 -0.192213655 0.00903638173 1.68513 -0.0718330219 -0.00107992499 1.68716979 -0.07109797 0.000237065819 1.68776405 -0.0703606457 -0.00172801455 1.68935752 -0.173613861 -0.00913736504 1.72992587 -0.111630447 -0.0462622009 1.70254838 -0.11007382 -0.045653522 1.70526576 -0.111630447 -0.0462622009 1.70254838 -0.108779408 -0.0466569141 1.70356917 -0.11007382 -0.045653522 1.70526576 -0.108779408 -0.0466569141 1.70356917 -0.109032005 -0.0473195277 1.6993643 -0.107233427 -0.0471182242 1.70030165 -0.109032005 -0.0473195277 1.6993643 -0.111630447 -0.0462622009 1.70254838 -0.109358408 -0.0471804142 1.69266331 -0.120013654 0.00182843592 1.72994697 -0.0982302129 -0.034996435 1.70527232 -0.0853642747 -0.0198328216 1.70545268 -0.188124925 0.00264047715 1.68547094 -0.192041472 0.00831190497 1.72993863 -0.192213655 0.00903638173 1.68513 -0.197598293 0.0330351591 1.68521404 -0.19746238 0.0620234124 1.697317 -0.196493626 0.0628803149 1.69319677 -0.197598293 0.0330351591 1.68521404 -0.194317743 0.0454631336 1.68446088 -0.184804633 0.0312429797 1.67521489 -0.19735308 0.0239685383 1.68538857 -0.197598293 0.0330351591 1.68521404 -0.184804633 0.0312429797 1.67521489 -0.0772350878 -0.0119613828 1.68873608 -0.0821277872 -0.0199810807 1.69036186 -0.0825871378 -0.0177928824 1.68750405 -0.0930679291 -0.0322053879 1.68913782 -0.0825871378 -0.0177928824 1.68750405 -0.0821277872 -0.0199810807 1.69036186 -0.0718330219 -0.00107992499 1.68716979 -0.0825871378 -0.0177928824 1.68750405 -0.0868908316 -0.020032445 1.68607306 -0.0931800902 -0.0340341143 1.69949508 -0.0896329358 -0.0301031377 1.69355428 -0.083761856 -0.022999635 1.70030475 -0.0730635673 -0.00811996683 1.69970357 -0.076645568 -0.0135899065 1.69332576 -0.0693530962 -0.00228245091 1.69604862 -0.076645568 -0.0135899065 1.69332576 -0.0896329358 -0.0301031377 1.69355428 -0.0821277872 -0.0199810807 1.69036186 -0.083761856 -0.022999635 1.70030475 -0.076645568 -0.0135899065 1.69332576 -0.0730635673 -0.00811996683 1.69970357 -0.11007382 -0.045653522 1.70526576 -0.108779408 -0.0466569141 1.70356917 -0.101668566 -0.0406574383 1.7035172 -0.100724377 -0.040895883 1.69131804 -0.106901743 -0.0471902154 1.69616175 -0.107542619 -0.0471554846 1.69255769 -0.182950631 -0.00264175469 1.68531573 -0.188124925 0.00264047715 1.68547094 -0.174481675 0.00760410074 1.67520952 -0.192213655 0.00903638173 1.68513 -0.181242019 0.0163229648 1.67521548 -0.188124925 0.00264047715 1.68547094 -0.174481675 0.00760410074 1.67520952 -0.188124925 0.00264047715 1.68547094 -0.181242019 0.0163229648 1.67521548 -0.109032005 -0.0473195277 1.6993643 -0.109358408 -0.0471804142 1.69266331 -0.107542619 -0.0471554846 1.69255769 -0.0982302129 -0.034996435 1.70527232 -0.11007382 -0.045653522 1.70526576 -0.101668566 -0.0406574383 1.7035172 -0.0709221959 0.00100827834 1.70372534 -0.0715470761 0.00023862446 1.70522535 -0.0698297918 -0.00170577609 1.70189154 -0.0715470761 0.00023862446 1.70522535 -0.0709025785 -0.00131728058 1.70411527 -0.0698297918 -0.00170577609 1.70189154 -0.0770021304 -0.0103146574 1.70457542 -0.0709025785 -0.00131728058 1.70411527 -0.0715470761 0.00023862446 1.70522535 -0.110145368 -0.0452605449 1.68690443 -0.10805691 -0.0457405336 1.68823862 -0.108772419 -0.0466414578 1.68910956 -0.100724377 -0.040895883 1.69131804 -0.108772419 -0.0466414578 1.68910956 -0.10805691 -0.0457405336 1.68823862 -0.107542619 -0.0471554846 1.69255769 -0.108772419 -0.0466414578 1.68910956 -0.100724377 -0.040895883 1.69131804 -0.178235337 -0.00627036393 1.6852628 -0.174481675 0.00760410074 1.67520952 -0.166077867 0.0020622476 1.67517877 -0.142501786 0.0725775063 1.68511379 -0.149584949 0.0605936386 1.67516589 -0.149253488 0.0739156902 1.68535554 -0.107542619 -0.0471554846 1.69255769 -0.106901743 -0.0471902154 1.69616175 -0.109032005 -0.0473195277 1.6993643 -0.109032005 -0.0473195277 1.6993643 -0.106901743 -0.0471902154 1.69616175 -0.107233427 -0.0471182242 1.70030165 -0.108779408 -0.0466569141 1.70356917 -0.111630447 -0.0462622009 1.70254838 -0.109032005 -0.0473195277 1.6993643 -0.0770021304 -0.0103146574 1.70457542 -0.0853642747 -0.0198328216 1.70545268 -0.0846423656 -0.0219285842 1.70358992 -0.182950631 -0.00264175469 1.68531573 -0.174481675 0.00760410074 1.67520952 -0.178235337 -0.00627036393 1.6852628 -0.192213655 0.00903638173 1.68513 -0.192041472 0.00831190497 1.72993863 -0.195835516 0.0174493063 1.68521667 -0.196125299 0.0179444458 1.72993994 -0.195835516 0.0174493063 1.68521667 -0.192041472 0.00831190497 1.72993863 -0.083761856 -0.022999635 1.70030475 -0.0896329358 -0.0301031377 1.69355428 -0.076645568 -0.0135899065 1.69332576 -0.123067431 0.0616531633 1.68525183 -0.129870057 0.0669683442 1.68517101 -0.129114315 0.0667800307 1.7298857 -0.0770021304 -0.0103146574 1.70457542 -0.075713113 -0.011014496 1.70221639 -0.0709025785 -0.00131728058 1.70411527 -0.0698297918 -0.00170577609 1.70189154 -0.0709025785 -0.00131728058 1.70411527 -0.075713113 -0.011014496 1.70221639 -0.197598293 0.0330351591 1.68521404 -0.19735308 0.0239685383 1.68538857 -0.197774887 0.0279842615 1.72996378 -0.19746238 0.0620234124 1.697317 -0.197598293 0.0330351591 1.68521404 -0.197774887 0.0279842615 1.72996378 -0.152881458 -0.0137012871 1.72998464 -0.136446953 -0.01044947 1.72995937 -0.178494856 0.0665652156 1.73000014 -0.121636808 0.0603525229 1.72980511 -0.129114315 0.0667800307 1.7298857 -0.178494856 0.0665652156 1.73000014 -0.120013654 0.00182843592 1.72994697 -0.11034105 0.0218878165 1.72991824 -0.178494856 0.0665652156 1.73000014 -0.110467285 0.0374785773 1.72991753 -0.178494856 0.0665652156 1.73000014 -0.11034105 0.0218878165 1.72991824 -0.13907221 0.0717749447 1.72984898 -0.14905335 0.0740493536 1.7298578 -0.178494856 0.0665652156 1.73000014 -0.192721069 0.0507766642 1.72995543 -0.197239369 0.0368878767 1.72997153 -0.178494856 0.0665652156 1.73000014 -0.179508954 -0.0054967436 1.72990954 -0.173613861 -0.00913736504 1.72992587 -0.178494856 0.0665652156 1.73000014 -0.185708448 -0.000222957693 1.72991836 -0.179508954 -0.0054967436 1.72990954 -0.178494856 0.0665652156 1.73000014 -0.197774887 0.0279842615 1.72996378 -0.178494856 0.0665652156 1.73000014 -0.197239369 0.0368878767 1.72997153 -0.158618957 0.073982209 1.72990501 -0.178494856 0.0665652156 1.73000014 -0.14905335 0.0740493536 1.7298578 -0.129114315 0.0667800307 1.7298857 -0.13907221 0.0717749447 1.72984898 -0.178494856 0.0665652156 1.73000014 -0.152881458 -0.0137012871 1.72998464 -0.178494856 0.0665652156 1.73000014 -0.163337901 -0.0126631269 1.72999382 -0.120013654 0.00182843592 1.72994697 -0.178494856 0.0665652156 1.73000014 -0.136446953 -0.01044947 1.72995937 -0.196125299 0.0179444458 1.72993994 -0.178494856 0.0665652156 1.73000014 -0.197774887 0.0279842615 1.72996378 -0.169200391 0.0714290813 1.72993612 -0.178494856 0.0665652156 1.73000014 -0.158618957 0.073982209 1.72990501 -0.114836231 0.0509179272 1.72988129 -0.178494856 0.0665652156 1.73000014 -0.110467285 0.0374785773 1.72991753 -0.163337901 -0.0126631269 1.72999382 -0.178494856 0.0665652156 1.73000014 -0.173613861 -0.00913736504 1.72992587 -0.192041472 0.00831190497 1.72993863 -0.185708448 -0.000222957693 1.72991836 -0.178494856 0.0665652156 1.73000014 -0.192721069 0.0507766642 1.72995543 -0.178494856 0.0665652156 1.73000014 -0.186433792 0.0596681423 1.72997725 -0.114836231 0.0509179272 1.72988129 -0.121636808 0.0603525229 1.72980511 -0.178494856 0.0665652156 1.73000014 -0.196125299 0.0179444458 1.72993994 -0.192041472 0.00831190497 1.72993863 -0.178494856 0.0665652156 1.73000014 -0.15164049 -0.000551885518 1.67518091 -0.149584949 0.0605936386 1.67516589 -0.123002492 0.0343994871 1.67513633 -0.184804633 0.0312429797 1.67521489 -0.149584949 0.0605936386 1.67516589 -0.15164049 -0.000551885518 1.67518091 </float_array>
          <technique_common>
            <accessor count="600" offset="0" source="#mesh_0-positions-array" stride="3">
              <param name="X" type="float" />
              <param name="Y" type="float" />
              <param name="Z" type="float" />
            </accessor>
          </technique_common>
        </source>
        <vertices id="mesh_0-vertices">
          <input semantic="POSITION" source="#mesh_0-positions" />
        </vertices>
        <polylist count="200" material="defaultMaterial">
          <input offset="0" semantic="VERTEX" source="#mesh_0-vertices" />
          <vcount>3 3 3 3 3 3 3 3 3 3 3 3 3 3 3 3 3 3 3 3 3 3 3 3 3 3 3 3 3 3 3 3 3 3 3 3 3 3 3 3 3 3 3 3 3 3 3 3 3 3 3 3 3 3 3 3 3 3 3 3 3 3 3 3 3 3 3 3 3 3 3 3 3 3 3 3 3 3 3 3 3 3 3 3 3 3 3 3 3 3 3 3 3 3 3 3 3 3 3 3 3 3 3 3 3 3 3 3 3 3 3 3 3 3 3 3 3 3 3 3 3 3 3 3 3 3 3 3 3 3 3 3 3 3 3 3 3 3 3 3 3 3 3 3 3 3 3 3 3 3 3 3 3 3 3 3 3 3 3 3 3 3 3 3 3 3 3 3 3 3 3 3 3 3 3 3 3 3 3 3 3 3 3 3 3 3 3 3 3 3 3 3 3 3 3 3 3 3 3 3 </vcount>
          <p>0 1 2 3 4 5 6 7 8 9 10 11 12 13 14 15 16 17 18 19 20 21 22 23 24 25 26 27 28 29 30 31 32 33 34 35 36 37 38 39 40 41 42 43 44 45 46 47 48 49 50 51 52 53 54 55 56 57 58 59 60 61 62 63 64 65 66 67 68 69 70 71 72 73 74 75 76 77 78 79 80 81 82 83 84 85 86 87 88 89 90 91 92 93 94 95 96 97 98 99 100 101 102 103 104 105 106 107 108 109 110 111 112 113 114 115 116 117 118 119 120 121 122 123 124 125 126 127 128 129 130 131 132 133 134 135 136 137 138 139 140 141 142 143 144 145 146 147 148 149 150 151 152 153 154 155 156 157 158 159 160 161 162 163 164 165 166 167 168 169 170 171 172 173 174 175 176 177 178 179 180 181 182 183 184 185 186 187 188 189 190 191 192 193 194 195 196 197 198 199 200 201 202 203 204 205 206 207 208 209 210 211 212 213 214 215 216 217 218 219 220 221 222 223 224 225 226 227 228 229 230 231 232 233 234 235 236 237 238 239 240 241 242 243 244 245 246 247 248 249 250 251 252 253 254 255 256 257 258 259 260 261 262 263 264 265 266 267 268 269 270 271 272 273 274 275 276 277 278 279 280 281 282 283 284 285 286 287 288 289 290 291 292 293 294 295 296 297 298 299 300 301 302 303 304 305 306 307 308 309 310 311 312 313 314 315 316 317 318 319 320 321 322 323 324 325 326 327 328 329 330 331 332 333 334 335 336 337 338 339 340 341 342 343 344 345 346 347 348 349 350 351 352 353 354 355 356 357 358 359 360 361 362 363 364 365 366 367 368 369 370 371 372 373 374 375 376 377 378 379 380 381 382 383 384 385 386 387 388 389 390 391 392 393 394 395 396 397 398 399 400 401 402 403 404 405 406 407 408 409 410 411 412 413 414 415 416 417 418 419 420 421 422 423 424 425 426 427 428 429 430 431 432 433 434 435 436 437 438 439 440 441 442 443 444 445 446 447 448 449 450 451 452 453 454 455 456 457 458 459 460 461 462 463 464 465 466 467 468 469 470 471 472 473 474 475 476 477 478 479 480 481 482 483 484 485 486 487 488 489 490 491 492 493 494 495 496 497 498 499 500 501 502 503 504 505 506 507 508 509 510 511 512 513 514 515 516 517 518 519 520 521 522 523 524 525 526 527 528 529 530 531 532 533 534 535 536 537 538 539 540 541 542 543 544 545 546 547 548 549 550 551 552 553 554 555 556 557 558 559 560 561 562 563 564 565 566 567 568 569 570 571 572 573 574 575 576 577 578 579 580 581 582 583 584 585 586 587 588 589 590 591 592 593 594 595 596 597 598 599 </p>
        </polylist>
      </mesh>
    </geometry>
  </library_geometries>
  <library_controllers>
  </library_controllers>
  <library_visual_scenes>
    <visual_scene id="Scene" name="Scene">
      <node id="node" name="" type="NODE">
        <matrix sid="matrix">1 0 0 0 0 1 0 0 0 0 1 0 0 0 0 1</matrix>
        <instance_geometry url="#mesh_0">
          <bind_material>
            <technique_common>
              <instance_material symbol="defaultMaterial" target="#material_0">
              </instance_material>
            </technique_common>
          </bind_material>
        </instance_geometry>
      </node>
    </visual_scene>
  </library_visual_scenes>
  <scene>
    <instance_visual_scene url="#Scene" />
  </scene>
</COLLADA>
