<?xml version="1.0" encoding="UTF-8" standalone="no" ?>
<COLLADA xmlns="http://www.collada.org/2005/11/COLLADASchema" version="1.4.1">
  <asset>
    <contributor>
      <author>Assimp</author>
      <authoring_tool>Assimp Exporter</authoring_tool>
    </contributor>
    <created>2026-04-22T16:09:44</created>
    <modified>2026-04-22T16:09:44</modified>
    <unit name="meter" meter="1" />
    <up_axis>Y_UP</up_axis>
  </asset>
  <library_images>
  </library_images>
  <library_effects>
    <effect id="material_0-fx" name="">
      <profile_COMMON>
        <technique sid="standard">
          <phong>
            <emission>
              <color sid="emission">0   0   0   1.24774945</color>
            </emission>
            <ambient>
              <color sid="ambient">0.734637678   0.655030191   0.691765368   1.40256</color>
            </ambient>
            <diffuse>
              <color sid="diffuse">0.734637678   0.655030191   0.691765368   1.40256</color>
            </diffuse>
            <specular>
              <color sid="specular">0.25   0.25   0.25   -1.80161154</color>
            </specular>
          </phong>
        </technique>
      </profile_COMMON>
    </effect>
  </library_effects>
  <library_materials>
    <material id="material_0" name="">
      <instance_effect url="#material_0-fx"/>
    </material>
  </library_materials>
  <library_geometries>
    <geometry id="mesh_0" name="" >
      <mesh>
        <source id="mesh_0-positions" name="mesh_0-positions">
          <float_array id="mesh_0-positions-array" count="1800"> -0.0727671906 -0.0160784423 1.61251807 -0.209938824 0.0995425954 1.61349809 -0.132608414 0.0536080226 1.67080176 -0.236646593 0.0773831084 1.6550343 -0.238806874 0.0785574019 1.6254921 -0.174310744 0.00612253742 1.67593348 -0.111126691 -0.0395535268 1.68209183 -0.174310744 0.00612253742 1.67593348 -0.173263758 0.00518700015 1.67111206 -0.215726361 0.104314402 1.64679742 -0.133582324 0.0544663295 1.67583752 -0.215865195 0.105120465 1.62513483 -0.133582324 0.0544663295 1.67583752 -0.132608414 0.0536080226 1.67080176 -0.215865195 0.105120465 1.62513483 -0.0681592301 -0.0175566934 1.62032652 -0.0727671906 -0.0160784423 1.61251807 -0.132608414 0.0536080226 1.67080176 -0.23369199 0.0752522498 1.67085648 -0.174310744 0.00612253742 1.67593348 -0.230336577 0.0724369437 1.6783545 -0.173263758 0.00518700015 1.67111206 -0.174310744 0.00612253742 1.67593348 -0.238806874 0.0785574019 1.6254921 -0.236646593 0.0773831084 1.6550343 -0.174310744 0.00612253742 1.67593348 -0.23369199 0.0752522498 1.67085648 -0.218367651 0.105452001 1.62553871 -0.232172817 0.0958608687 1.67145371 -0.231947452 0.0957240984 1.68634367 -0.232276216 0.0913060606 1.68975627 -0.233264104 0.0923741758 1.68611133 -0.23369199 0.0752522498 1.67085648 -0.105861709 -0.0430583172 1.6718061 -0.111126691 -0.0395535268 1.68209183 -0.173263758 0.00518700015 1.67111206 -0.138464138 -0.0192630235 1.68343914 -0.174310744 0.00612253742 1.67593348 -0.111126691 -0.0395535268 1.68209183 -0.081545867 -0.0307072215 1.61100376 -0.0888575092 -0.0408285968 1.61181021 -0.0919168815 -0.040684104 1.6112932 -0.233137324 0.0741176829 1.61406946 -0.231998831 0.0754868388 1.61195946 -0.094207108 -0.0418219939 1.61265421 -0.211758658 0.100919165 1.67155194 -0.133582324 0.0544663295 1.67583752 -0.215726361 0.104314402 1.64679742 -0.209938824 0.0995425954 1.61349809 -0.21313332 0.102847762 1.61866772 -0.132608414 0.0536080226 1.67080176 -0.21313332 0.102847762 1.61866772 -0.215865195 0.105120465 1.62513483 -0.132608414 0.0536080226 1.67080176 -0.221266985 0.103015363 1.62023342 -0.232172817 0.0958608687 1.67145371 -0.218367651 0.105452001 1.62553871 -0.0657997951 -0.0234563146 1.62226939 -0.0647034347 -0.0195090231 1.6319977 -0.0652929991 -0.0229976866 1.63107145 -0.186079293 0.05978591 1.70274878 -0.102254197 0.0234897938 1.68333077 -0.213549957 0.0853053778 1.70157063 -0.0674782991 -0.0153481131 1.63363409 -0.132608414 0.0536080226 1.67080176 -0.0739363059 -0.00363650173 1.67344785 -0.174310744 0.00612253742 1.67593348 -0.218811348 0.0799988657 1.70173621 -0.226093948 0.0692475215 1.68226099 -0.233137324 0.0741176829 1.61406946 -0.173263758 0.00518700015 1.67111206 -0.238806874 0.0785574019 1.6254921 -0.238240242 0.0826358199 1.62112951 -0.239159539 0.0808111951 1.62785673 -0.232172817 0.0958608687 1.67145371 -0.232276216 0.0913060606 1.68975627 -0.230336577 0.0724369437 1.6783545 -0.221743435 0.0830086172 1.70101774 -0.081545867 -0.0307072215 1.61100376 -0.0919168815 -0.040684104 1.6112932 -0.231773823 0.0785396174 1.61143649 -0.231773823 0.0785396174 1.61143649 -0.224095196 0.0883905888 1.61118209 -0.081545867 -0.0307072215 1.61100376 -0.0728746131 -0.020161273 1.61126316 -0.081545867 -0.0307072215 1.61100376 -0.224095196 0.0883905888 1.61118209 -0.224095196 0.0883905888 1.61118209 -0.214360595 0.0984075218 1.61138773 -0.0728746131 -0.020161273 1.61126316 -0.105861709 -0.0430583172 1.6718061 -0.173263758 0.00518700015 1.67111206 -0.0904016271 -0.0482093543 1.62639427 -0.215726361 0.104314402 1.64679742 -0.215865195 0.105120465 1.62513483 -0.218367651 0.105452001 1.62553871 -0.213549957 0.0853053778 1.70157063 -0.133582324 0.0544663295 1.67583752 -0.207043931 0.0964579359 1.68098211 -0.228904843 0.0977540389 1.68516898 -0.211758658 0.100919165 1.67155194 -0.215726361 0.104314402 1.64679742 -0.133582324 0.0544663295 1.67583752 -0.213549957 0.0853053778 1.70157063 -0.102254197 0.0234897938 1.68333077 -0.0681592301 -0.0175566934 1.62032652 -0.0674782991 -0.0153481131 1.63363409 -0.0647034347 -0.0195090231 1.6319977 -0.0674782991 -0.0153481131 1.63363409 -0.0681592301 -0.0175566934 1.62032652 -0.132608414 0.0536080226 1.67080176 -0.0674782991 -0.0153481131 1.63363409 -0.0739363059 -0.00363650173 1.67344785 -0.0678886548 -0.0107731689 1.67257357 -0.0674782991 -0.0153481131 1.63363409 -0.0660949796 -0.0138084777 1.66260004 -0.0647034347 -0.0195090231 1.6319977 -0.0660949796 -0.0138084777 1.66260004 -0.0674782991 -0.0153481131 1.63363409 -0.0678886548 -0.0107731689 1.67257357 -0.133582324 0.0544663295 1.67583752 -0.102254197 0.0234897938 1.68333077 -0.0780540779 0.000596274098 1.68198395 -0.133582324 0.0544663295 1.67583752 -0.0780540779 0.000596274098 1.68198395 -0.0739363059 -0.00363650173 1.67344785 -0.133582324 0.0544663295 1.67583752 -0.0739363059 -0.00363650173 1.67344785 -0.132608414 0.0536080226 1.67080176 -0.0795385167 0.000255482912 1.684111 -0.102254197 0.0234897938 1.68333077 -0.186079293 0.05978591 1.70274878 -0.188543722 0.0573928505 1.70301819 -0.0915196836 -0.0231751744 1.68429971 -0.0780327991 -0.00343256188 1.68435311 -0.0915196836 -0.0231751744 1.68429971 -0.188543722 0.0573928505 1.70301819 -0.105680294 -0.0399177149 1.68391156 -0.0780327991 -0.00343256188 1.68435311 -0.0795385167 0.000255482912 1.684111 -0.186079293 0.05978591 1.70274878 -0.218811348 0.0799988657 1.70173621 -0.174310744 0.00612253742 1.67593348 -0.138464138 -0.0192630235 1.68343914 -0.22861743 0.0930053741 1.69430161 -0.232276216 0.0913060606 1.68975627 -0.221743435 0.0830086172 1.70101774 -0.226093948 0.0692475215 1.68226099 -0.218811348 0.0799988657 1.70173621 -0.221743435 0.0830086172 1.70101774 -0.230336577 0.0724369437 1.6783545 -0.226093948 0.0692475215 1.68226099 -0.221743435 0.0830086172 1.70101774 -0.230336577 0.0724369437 1.6783545 -0.174310744 0.00612253742 1.67593348 -0.226093948 0.0692475215 1.68226099 -0.2387418 0.0796448588 1.62242401 -0.233137324 0.0741176829 1.61406946 -0.238806874 0.0785574019 1.6254921 -0.22861743 0.0930053741 1.69430161 -0.227664262 0.0968597978 1.68976569 -0.231947452 0.0957240984 1.68634367 -0.239159539 0.0808111951 1.62785673 -0.2387418 0.0796448588 1.62242401 -0.238806874 0.0785574019 1.6254921 -0.232172817 0.0958608687 1.67145371 -0.239159539 0.0808111951 1.62785673 -0.231947452 0.0957240984 1.68634367 -0.0789358318 -0.0348555669 1.61465597 -0.081545867 -0.0307072215 1.61100376 -0.0728746131 -0.020161273 1.61126316 -0.081545867 -0.0307072215 1.61100376 -0.0789358318 -0.0348555669 1.61465597 -0.0888575092 -0.0408285968 1.61181021 -0.0727671906 -0.0160784423 1.61251807 -0.0728746131 -0.020161273 1.61126316 -0.21277225 0.100069955 1.61220384 -0.214360595 0.0984075218 1.61138773 -0.21277225 0.100069955 1.61220384 -0.0728746131 -0.020161273 1.61126316 -0.233137324 0.0741176829 1.61406946 -0.093928799 -0.0442419872 1.61859345 -0.173263758 0.00518700015 1.67111206 -0.093928799 -0.0442419872 1.61859345 -0.233137324 0.0741176829 1.61406946 -0.094207108 -0.0418219939 1.61265421 -0.093928799 -0.0442419872 1.61859345 -0.0904016271 -0.0482093543 1.62639427 -0.173263758 0.00518700015 1.67111206 -0.220238268 0.0851256847 1.70209229 -0.22861743 0.0930053741 1.69430161 -0.221743435 0.0830086172 1.70101774 -0.217858016 0.0879609287 1.70110536 -0.213549957 0.0853053778 1.70157063 -0.207043931 0.0964579359 1.68098211 -0.21277225 0.100069955 1.61220384 -0.209938824 0.0995425954 1.61349809 -0.0727671906 -0.0160784423 1.61251807 -0.0652929991 -0.0229976866 1.63107145 -0.0647034347 -0.0195090231 1.6319977 -0.0654627383 -0.0181415305 1.65602624 -0.0695369542 -0.0276482198 1.61860752 -0.0789358318 -0.0348555669 1.61465597 -0.0728746131 -0.020161273 1.61126316 -0.0647034347 -0.0195090231 1.6319977 -0.0656522363 -0.0215189941 1.6226362 -0.0681592301 -0.0175566934 1.62032652 -0.0802095756 -0.0320082381 1.66938972 -0.077072382 -0.0342792086 1.64987874 -0.0654627383 -0.0181415305 1.65602624 -0.0780540779 0.000596274098 1.68198395 -0.102254197 0.0234897938 1.68333077 -0.0795385167 0.000255482912 1.684111 -0.0863776207 -0.0268462468 1.68113506 -0.0705273822 -0.0105797825 1.67887866 -0.0742316991 -0.00738457544 1.68247592 -0.0965312198 -0.0457310565 1.67601097 -0.101636462 -0.0432778001 1.68111753 -0.102421798 -0.0449228361 1.67883146 -0.215606868 0.0844644085 1.70264924 -0.188543722 0.0573928505 1.70301819 -0.186079293 0.05978591 1.70274878 -0.188543722 0.0573928505 1.70301819 -0.109580599 -0.039111048 1.68393946 -0.105680294 -0.0399177149 1.68391156 -0.236646593 0.0773831084 1.6550343 -0.239159539 0.0808111951 1.62785673 -0.238806874 0.0785574019 1.6254921 -0.228904843 0.0977540389 1.68516898 -0.218367651 0.105452001 1.62553871 -0.231947452 0.0957240984 1.68634367 -0.22861743 0.0930053741 1.69430161 -0.231947452 0.0957240984 1.68634367 -0.232276216 0.0913060606 1.68975627 -0.111126691 -0.0395535268 1.68209183 -0.105861709 -0.0430583172 1.6718061 -0.102421798 -0.0449228361 1.67883146 -0.0919168815 -0.040684104 1.6112932 -0.231998831 0.0754868388 1.61195946 -0.231773823 0.0785396174 1.61143649 -0.094207108 -0.0418219939 1.61265421 -0.231998831 0.0754868388 1.61195946 -0.0919168815 -0.040684104 1.6112932 -0.224095196 0.0883905888 1.61118209 -0.216179207 0.0995615423 1.61243808 -0.214360595 0.0984075218 1.61138773 -0.238240242 0.0826358199 1.62112951 -0.232172817 0.0958608687 1.67145371 -0.23514387 0.0861607343 1.618662 -0.0899264663 -0.0483589582 1.6523546 -0.077072382 -0.0342792086 1.64987874 -0.0802095756 -0.0320082381 1.66938972 -0.0789358318 -0.0348555669 1.61465597 -0.0785161331 -0.0389582328 1.61884463 -0.0888575092 -0.0408285968 1.61181021 -0.0652929991 -0.0229976866 1.63107145 -0.0852207094 -0.0465511121 1.62124014 -0.0785161331 -0.0389582328 1.61884463 -0.207043931 0.0964579359 1.68098211 -0.211758658 0.100919165 1.67155194 -0.227664262 0.0968597978 1.68976569 -0.227664262 0.0968597978 1.68976569 -0.211758658 0.100919165 1.67155194 -0.228904843 0.0977540389 1.68516898 -0.227664262 0.0968597978 1.68976569 -0.228904843 0.0977540389 1.68516898 -0.231947452 0.0957240984 1.68634367 -0.21277225 0.100069955 1.61220384 -0.218552813 0.105047479 1.62215292 -0.21313332 0.102847762 1.61866772 -0.218552813 0.105047479 1.62215292 -0.221266985 0.103015363 1.62023342 -0.218367651 0.105452001 1.62553871 -0.216179207 0.0995615423 1.61243808 -0.218552813 0.105047479 1.62215292 -0.21277225 0.100069955 1.61220384 -0.218552813 0.105047479 1.62215292 -0.216179207 0.0995615423 1.61243808 -0.221266985 0.103015363 1.62023342 -0.215726361 0.104314402 1.64679742 -0.218367651 0.105452001 1.62553871 -0.228904843 0.0977540389 1.68516898 -0.218552813 0.105047479 1.62215292 -0.218367651 0.105452001 1.62553871 -0.215865195 0.105120465 1.62513483 -0.215865195 0.105120465 1.62513483 -0.21313332 0.102847762 1.61866772 -0.218552813 0.105047479 1.62215292 -0.0785161331 -0.0389582328 1.61884463 -0.0789358318 -0.0348555669 1.61465597 -0.0695369542 -0.0276482198 1.61860752 -0.186079293 0.05978591 1.70274878 -0.213549957 0.0853053778 1.70157063 -0.215606868 0.0844644085 1.70264924 -0.0802095756 -0.0320082381 1.66938972 -0.0654627383 -0.0181415305 1.65602624 -0.0665071905 -0.015237038 1.66799891 -0.077072382 -0.0342792086 1.64987874 -0.0652929991 -0.0229976866 1.63107145 -0.0654627383 -0.0181415305 1.65602624 -0.105680294 -0.0399177149 1.68391156 -0.101636462 -0.0432778001 1.68111753 -0.0863776207 -0.0268462468 1.68113506 -0.0705273822 -0.0105797825 1.67887866 -0.0828826725 -0.0295715947 1.67639077 -0.0683528185 -0.0134963021 1.67425895 -0.0863776207 -0.0268462468 1.68113506 -0.0742316991 -0.00738457544 1.68247592 -0.0915196836 -0.0231751744 1.68429971 -0.0915196836 -0.0231751744 1.68429971 -0.0742316991 -0.00738457544 1.68247592 -0.0780327991 -0.00343256188 1.68435311 -0.186079293 0.05978591 1.70274878 -0.188543722 0.0573928505 1.70301819 -0.0780327991 -0.00343256188 1.68435311 -0.138464138 -0.0192630235 1.68343914 -0.109580599 -0.039111048 1.68393946 -0.188543722 0.0573928505 1.70301819 -0.138464138 -0.0192630235 1.68343914 -0.111126691 -0.0395535268 1.68209183 -0.109580599 -0.039111048 1.68393946 -0.0741239637 -0.00468447292 1.6820004 -0.0705273822 -0.0105797825 1.67887866 -0.070898667 -0.00711657573 1.67817676 -0.218811348 0.0799988657 1.70173621 -0.138464138 -0.0192630235 1.68343914 -0.188543722 0.0573928505 1.70301819 -0.0932484567 -0.0476266779 1.66744864 -0.0899264663 -0.0483589582 1.6523546 -0.0802095756 -0.0320082381 1.66938972 -0.0852207094 -0.0465511121 1.62124014 -0.0888575092 -0.0408285968 1.61181021 -0.0785161331 -0.0389582328 1.61884463 -0.211758658 0.100919165 1.67155194 -0.207043931 0.0964579359 1.68098211 -0.133582324 0.0544663295 1.67583752 -0.228629827 0.0944202468 1.6185168 -0.216179207 0.0995615423 1.61243808 -0.226306781 0.0915234834 1.61405909 -0.0657997951 -0.0234563146 1.62226939 -0.0652929991 -0.0229976866 1.63107145 -0.0695369542 -0.0276482198 1.61860752 -0.0695369542 -0.0276482198 1.61860752 -0.0652929991 -0.0229976866 1.63107145 -0.0785161331 -0.0389582328 1.61884463 -0.0678886548 -0.0107731689 1.67257357 -0.0665071905 -0.015237038 1.66799891 -0.0660949796 -0.0138084777 1.66260004 -0.0656522363 -0.0215189941 1.6226362 -0.0647034347 -0.0195090231 1.6319977 -0.0657997951 -0.0234563146 1.62226939 -0.0728746131 -0.020161273 1.61126316 -0.0715003461 -0.0188882463 1.61239254 -0.0695369542 -0.0276482198 1.61860752 -0.0715003461 -0.0188882463 1.61239254 -0.0657997951 -0.0234563146 1.62226939 -0.0695369542 -0.0276482198 1.61860752 -0.0715003461 -0.0188882463 1.61239254 -0.0681592301 -0.0175566934 1.62032652 -0.0656522363 -0.0215189941 1.6226362 -0.101636462 -0.0432778001 1.68111753 -0.0965312198 -0.0457310565 1.67601097 -0.0863776207 -0.0268462468 1.68113506 -0.070898667 -0.00711657573 1.67817676 -0.0780540779 0.000596274098 1.68198395 -0.0741239637 -0.00468447292 1.6820004 -0.0665071905 -0.015237038 1.66799891 -0.0678886548 -0.0107731689 1.67257357 -0.0683528185 -0.0134963021 1.67425895 -0.0965312198 -0.0457310565 1.67601097 -0.0802095756 -0.0320082381 1.66938972 -0.0828826725 -0.0295715947 1.67639077 -0.0828826725 -0.0295715947 1.67639077 -0.0802095756 -0.0320082381 1.66938972 -0.0683528185 -0.0134963021 1.67425895 -0.216235012 0.0814535245 1.70299625 -0.188543722 0.0573928505 1.70301819 -0.215606868 0.0844644085 1.70264924 -0.218811348 0.0799988657 1.70173621 -0.188543722 0.0573928505 1.70301819 -0.216235012 0.0814535245 1.70299625 -0.230336577 0.0724369437 1.6783545 -0.232276216 0.0913060606 1.68975627 -0.23369199 0.0752522498 1.67085648 -0.239159539 0.0808111951 1.62785673 -0.238240242 0.0826358199 1.62112951 -0.2387418 0.0796448588 1.62242401 -0.233264104 0.0923741758 1.68611133 -0.231947452 0.0957240984 1.68634367 -0.239159539 0.0808111951 1.62785673 -0.233264104 0.0923741758 1.68611133 -0.236646593 0.0773831084 1.6550343 -0.23369199 0.0752522498 1.67085648 -0.224095196 0.0883905888 1.61118209 -0.226306781 0.0915234834 1.61405909 -0.216179207 0.0995615423 1.61243808 -0.228629827 0.0944202468 1.6185168 -0.226306781 0.0915234834 1.61405909 -0.23514387 0.0861607343 1.618662 -0.232172817 0.0958608687 1.67145371 -0.221266985 0.103015363 1.62023342 -0.228629827 0.0944202468 1.6185168 -0.228629827 0.0944202468 1.6185168 -0.23514387 0.0861607343 1.618662 -0.232172817 0.0958608687 1.67145371 -0.097786814 -0.0475947931 1.67238498 -0.102421798 -0.0449228361 1.67883146 -0.105861709 -0.0430583172 1.6718061 -0.217858016 0.0879609287 1.70110536 -0.22861743 0.0930053741 1.69430161 -0.220238268 0.0851256847 1.70209229 -0.220238268 0.0851256847 1.70209229 -0.215606868 0.0844644085 1.70264924 -0.217858016 0.0879609287 1.70110536 -0.22861743 0.0930053741 1.69430161 -0.217858016 0.0879609287 1.70110536 -0.227664262 0.0968597978 1.68976569 -0.207043931 0.0964579359 1.68098211 -0.227664262 0.0968597978 1.68976569 -0.217858016 0.0879609287 1.70110536 -0.209938824 0.0995425954 1.61349809 -0.21277225 0.100069955 1.61220384 -0.21313332 0.102847762 1.61866772 -0.216179207 0.0995615423 1.61243808 -0.21277225 0.100069955 1.61220384 -0.214360595 0.0984075218 1.61138773 -0.216179207 0.0995615423 1.61243808 -0.228629827 0.0944202468 1.6185168 -0.221266985 0.103015363 1.62023342 -0.215606868 0.0844644085 1.70264924 -0.213549957 0.0853053778 1.70157063 -0.217858016 0.0879609287 1.70110536 -0.0715003461 -0.0188882463 1.61239254 -0.0656522363 -0.0215189941 1.6226362 -0.0657997951 -0.0234563146 1.62226939 -0.0715003461 -0.0188882463 1.61239254 -0.0728746131 -0.020161273 1.61126316 -0.0727671906 -0.0160784423 1.61251807 -0.0681592301 -0.0175566934 1.62032652 -0.0715003461 -0.0188882463 1.61239254 -0.0727671906 -0.0160784423 1.61251807 -0.0802095756 -0.0320082381 1.66938972 -0.0665071905 -0.015237038 1.66799891 -0.0683528185 -0.0134963021 1.67425895 -0.0654627383 -0.0181415305 1.65602624 -0.0660949796 -0.0138084777 1.66260004 -0.0665071905 -0.015237038 1.66799891 -0.0660949796 -0.0138084777 1.66260004 -0.0654627383 -0.0181415305 1.65602624 -0.0647034347 -0.0195090231 1.6319977 -0.0780327991 -0.00343256188 1.68435311 -0.0741239637 -0.00468447292 1.6820004 -0.0795385167 0.000255482912 1.684111 -0.0780540779 0.000596274098 1.68198395 -0.070898667 -0.00711657573 1.67817676 -0.0739363059 -0.00363650173 1.67344785 -0.070898667 -0.00711657573 1.67817676 -0.0678886548 -0.0107731689 1.67257357 -0.0739363059 -0.00363650173 1.67344785 -0.0965312198 -0.0457310565 1.67601097 -0.0828826725 -0.0295715947 1.67639077 -0.0863776207 -0.0268462468 1.68113506 -0.0863776207 -0.0268462468 1.68113506 -0.0828826725 -0.0295715947 1.67639077 -0.0705273822 -0.0105797825 1.67887866 -0.0915196836 -0.0231751744 1.68429971 -0.105680294 -0.0399177149 1.68391156 -0.0863776207 -0.0268462468 1.68113506 -0.239159539 0.0808111951 1.62785673 -0.236646593 0.0773831084 1.6550343 -0.233264104 0.0923741758 1.68611133 -0.233264104 0.0923741758 1.68611133 -0.232276216 0.0913060606 1.68975627 -0.231947452 0.0957240984 1.68634367 -0.233543918 0.0778999925 1.61265099 -0.23514387 0.0861607343 1.618662 -0.231773823 0.0785396174 1.61143649 -0.23514387 0.0861607343 1.618662 -0.226306781 0.0915234834 1.61405909 -0.231773823 0.0785396174 1.61143649 -0.238240242 0.0826358199 1.62112951 -0.233543918 0.0778999925 1.61265099 -0.2387418 0.0796448588 1.62242401 -0.231998831 0.0754868388 1.61195946 -0.233543918 0.0778999925 1.61265099 -0.231773823 0.0785396174 1.61143649 -0.0961280316 -0.0483027175 1.6671139 -0.0934213027 -0.0490192212 1.65523088 -0.0932484567 -0.0476266779 1.66744864 -0.0879965946 -0.0488645546 1.63316536 -0.0652929991 -0.0229976866 1.63107145 -0.077072382 -0.0342792086 1.64987874 -0.0852207094 -0.0465511121 1.62124014 -0.0652929991 -0.0229976866 1.63107145 -0.0879965946 -0.0488645546 1.63316536 -0.097786814 -0.0475947931 1.67238498 -0.0965312198 -0.0457310565 1.67601097 -0.102421798 -0.0449228361 1.67883146 -0.216235012 0.0814535245 1.70299625 -0.215606868 0.0844644085 1.70264924 -0.220238268 0.0851256847 1.70209229 -0.0705273822 -0.0105797825 1.67887866 -0.0741239637 -0.00468447292 1.6820004 -0.0742316991 -0.00738457544 1.68247592 -0.0780540779 0.000596274098 1.68198395 -0.0795385167 0.000255482912 1.684111 -0.0741239637 -0.00468447292 1.6820004 -0.0705273822 -0.0105797825 1.67887866 -0.0683528185 -0.0134963021 1.67425895 -0.0678886548 -0.0107731689 1.67257357 -0.070898667 -0.00711657573 1.67817676 -0.0705273822 -0.0105797825 1.67887866 -0.0678886548 -0.0107731689 1.67257357 -0.238240242 0.0826358199 1.62112951 -0.23514387 0.0861607343 1.618662 -0.233543918 0.0778999925 1.61265099 -0.231773823 0.0785396174 1.61143649 -0.226306781 0.0915234834 1.61405909 -0.224095196 0.0883905888 1.61118209 -0.233137324 0.0741176829 1.61406946 -0.233543918 0.0778999925 1.61265099 -0.231998831 0.0754868388 1.61195946 -0.0914769545 -0.043169681 1.61336613 -0.0904016271 -0.0482093543 1.62639427 -0.093928799 -0.0442419872 1.61859345 -0.093928799 -0.0442419872 1.61859345 -0.094207108 -0.0418219939 1.61265421 -0.0914769545 -0.043169681 1.61336613 -0.0873599052 -0.0478499122 1.62286353 -0.0904016271 -0.0482093543 1.62639427 -0.0914769545 -0.043169681 1.61336613 -0.097786814 -0.0475947931 1.67238498 -0.0961280316 -0.0483027175 1.6671139 -0.0932484567 -0.0476266779 1.66744864 -0.0904016271 -0.0482093543 1.62639427 -0.0934213027 -0.0490192212 1.65523088 -0.105861709 -0.0430583172 1.6718061 -0.0934213027 -0.0490192212 1.65523088 -0.0961280316 -0.0483027175 1.6671139 -0.105861709 -0.0430583172 1.6718061 -0.0961280316 -0.0483027175 1.6671139 -0.097786814 -0.0475947931 1.67238498 -0.105861709 -0.0430583172 1.6718061 -0.097786814 -0.0475947931 1.67238498 -0.0932484567 -0.0476266779 1.66744864 -0.0965312198 -0.0457310565 1.67601097 -0.0852207094 -0.0465511121 1.62124014 -0.0914769545 -0.043169681 1.61336613 -0.0888575092 -0.0408285968 1.61181021 -0.094207108 -0.0418219939 1.61265421 -0.0919168815 -0.040684104 1.6112932 -0.0914769545 -0.043169681 1.61336613 -0.0741239637 -0.00468447292 1.6820004 -0.0780327991 -0.00343256188 1.68435311 -0.0742316991 -0.00738457544 1.68247592 -0.102421798 -0.0449228361 1.67883146 -0.101636462 -0.0432778001 1.68111753 -0.109580599 -0.039111048 1.68393946 -0.109580599 -0.039111048 1.68393946 -0.101636462 -0.0432778001 1.68111753 -0.105680294 -0.0399177149 1.68391156 -0.109580599 -0.039111048 1.68393946 -0.111126691 -0.0395535268 1.68209183 -0.102421798 -0.0449228361 1.67883146 -0.0873599052 -0.0478499122 1.62286353 -0.0852207094 -0.0465511121 1.62124014 -0.0879965946 -0.0488645546 1.63316536 -0.0932484567 -0.0476266779 1.66744864 -0.0934213027 -0.0490192212 1.65523088 -0.0899264663 -0.0483589582 1.6523546 -0.0904016271 -0.0482093543 1.62639427 -0.0879965946 -0.0488645546 1.63316536 -0.0934213027 -0.0490192212 1.65523088 -0.0879965946 -0.0488645546 1.63316536 -0.0904016271 -0.0482093543 1.62639427 -0.0873599052 -0.0478499122 1.62286353 -0.0965312198 -0.0457310565 1.67601097 -0.0932484567 -0.0476266779 1.66744864 -0.0802095756 -0.0320082381 1.66938972 -0.0852207094 -0.0465511121 1.62124014 -0.0873599052 -0.0478499122 1.62286353 -0.0914769545 -0.043169681 1.61336613 -0.0919168815 -0.040684104 1.6112932 -0.0888575092 -0.0408285968 1.61181021 -0.0914769545 -0.043169681 1.61336613 -0.221743435 0.0830086172 1.70101774 -0.216235012 0.0814535245 1.70299625 -0.220238268 0.0851256847 1.70209229 -0.233137324 0.0741176829 1.61406946 -0.2387418 0.0796448588 1.62242401 -0.233543918 0.0778999925 1.61265099 -0.0899264663 -0.0483589582 1.6523546 -0.0879965946 -0.0488645546 1.63316536 -0.077072382 -0.0342792086 1.64987874 -0.221743435 0.0830086172 1.70101774 -0.218811348 0.0799988657 1.70173621 -0.216235012 0.0814535245 1.70299625 -0.0879965946 -0.0488645546 1.63316536 -0.0899264663 -0.0483589582 1.6523546 -0.0934213027 -0.0490192212 1.65523088 </float_array>
          <technique_common>
            <accessor count="600" offset="0" source="#mesh_0-positions-array" stride="3">
              <param name="X" type="float" />
              <param name="Y" type="float" />
              <param name="Z" type="float" />
            </accessor>
          </technique_common>
        </source>
        <vertices id="mesh_0-vertices">
          <input semantic="POSITION" source="#mesh_0-positions" />
        </vertices>
        <polylist count="200" material="defaultMaterial">
          <input offset="0" semantic="VERTEX" source="#mesh_0-vertices" />
          <vcount>3 3 3 3 3 3 3 3 3 3 3 3 3 3 3 3 3 3 3 3 3 3 3 3 3 3 3 3 3 3 3 3 3 3 3 3 3 3 3 3 3 3 3 3 3 3 3 3 3 3 3 3 3 3 3 3 3 3 3 3 3 3 3 3 3 3 3 3 3 3 3 3 3 3 3 3 3 3 3 3 3 3 3 3 3 3 3 3 3 3 3 3 3 3 3 3 3 3 3 3 3 3 3 3 3 3 3 3 3 3 3 3 3 3 3 3 3 3 3 3 3 3 3 3 3 3 3 3 3 3 3 3 3 3 3 3 3 3 3 3 3 3 3 3 3 3 3 3 3 3 3 3 3 3 3 3 3 3 3 3 3 3 3 3 3 3 3 3 3 3 3 3 3 3 3 3 3 3 3 3 3 3 3 3 3 3 3 3 3 3 3 3 3 3 3 3 3 3 3 3 </vcount>
          <p>0 1 2 3 4 5 6 7 8 9 10 11 12 13 14 15 16 17 18 19 20 21 22 23 24 25 26 27 28 29 30 31 32 33 34 35 36 37 38 39 40 41 42 43 44 45 46 47 48 49 50 51 52 53 54 55 56 57 58 59 60 61 62 63 64 65 66 67 68 69 70 71 72 73 74 75 76 77 78 79 80 81 82 83 84 85 86 87 88 89 90 91 92 93 94 95 96 97 98 99 100 101 102 103 104 105 106 107 108 109 110 111 112 113 114 115 116 117 118 119 120 121 122 123 124 125 126 127 128 129 130 131 132 133 134 135 136 137 138 139 140 141 142 143 144 145 146 147 148 149 150 151 152 153 154 155 156 157 158 159 160 161 162 163 164 165 166 167 168 169 170 171 172 173 174 175 176 177 178 179 180 181 182 183 184 185 186 187 188 189 190 191 192 193 194 195 196 197 198 199 200 201 202 203 204 205 206 207 208 209 210 211 212 213 214 215 216 217 218 219 220 221 222 223 224 225 226 227 228 229 230 231 232 233 234 235 236 237 238 239 240 241 242 243 244 245 246 247 248 249 250 251 252 253 254 255 256 257 258 259 260 261 262 263 264 265 266 267 268 269 270 271 272 273 274 275 276 277 278 279 280 281 282 283 284 285 286 287 288 289 290 291 292 293 294 295 296 297 298 299 300 301 302 303 304 305 306 307 308 309 310 311 312 313 314 315 316 317 318 319 320 321 322 323 324 325 326 327 328 329 330 331 332 333 334 335 336 337 338 339 340 341 342 343 344 345 346 347 348 349 350 351 352 353 354 355 356 357 358 359 360 361 362 363 364 365 366 367 368 369 370 371 372 373 374 375 376 377 378 379 380 381 382 383 384 385 386 387 388 389 390 391 392 393 394 395 396 397 398 399 400 401 402 403 404 405 406 407 408 409 410 411 412 413 414 415 416 417 418 419 420 421 422 423 424 425 426 427 428 429 430 431 432 433 434 435 436 437 438 439 440 441 442 443 444 445 446 447 448 449 450 451 452 453 454 455 456 457 458 459 460 461 462 463 464 465 466 467 468 469 470 471 472 473 474 475 476 477 478 479 480 481 482 483 484 485 486 487 488 489 490 491 492 493 494 495 496 497 498 499 500 501 502 503 504 505 506 507 508 509 510 511 512 513 514 515 516 517 518 519 520 521 522 523 524 525 526 527 528 529 530 531 532 533 534 535 536 537 538 539 540 541 542 543 544 545 546 547 548 549 550 551 552 553 554 555 556 557 558 559 560 561 562 563 564 565 566 567 568 569 570 571 572 573 574 575 576 577 578 579 580 581 582 583 584 585 586 587 588 589 590 591 592 593 594 595 596 597 598 599 </p>
        </polylist>
      </mesh>
    </geometry>
  </library_geometries>
  <library_controllers>
  </library_controllers>
  <library_visual_scenes>
    <visual_scene id="Scene" name="Scene">
      <node id="node" name="" type="NODE">
        <matrix sid="matrix">1 0 0 0 0 1 0 0 0 0 1 0 0 0 0 1</matrix>
        <instance_geometry url="#mesh_0">
          <bind_material>
            <technique_common>
              <instance_material symbol="defaultMaterial" target="#material_0">
              </instance_material>
            </technique_common>
          </bind_material>
        </instance_geometry>
      </node>
    </visual_scene>
  </library_visual_scenes>
  <scene>
    <instance_visual_scene url="#Scene" />
  </scene>
</COLLADA>
