<?xml version="1.0" encoding="UTF-8" standalone="no" ?>
<COLLADA xmlns="http://www.collada.org/2005/11/COLLADASchema" version="1.4.1">
  <asset>
    <contributor>
      <author>Assimp</author>
      <authoring_tool>Assimp Exporter</authoring_tool>
    </contributor>
    <created>2026-04-22T16:09:44</created>
    <modified>2026-04-22T16:09:44</modified>
    <unit name="meter" meter="1" />
    <up_axis>Y_UP</up_axis>
  </asset>
  <library_images>
  </library_images>
  <library_effects>
    <effect id="material_0-fx" name="">
      <profile_COMMON>
        <technique sid="standard">
          <phong>
            <emission>
              <color sid="emission">0   0   0   -1.29948092</color>
            </emission>
            <ambient>
              <color sid="ambient">0.400000006   0.400000006   0.400000006   -1.40118456</color>
            </ambient>
            <diffuse>
              <color sid="diffuse">0.400000006   0.400000006   0.400000006   -1.40118456</color>
            </diffuse>
            <specular>
              <color sid="specular">0.25   0.25   0.25   -0.337564439</color>
            </specular>
          </phong>
        </technique>
      </profile_COMMON>
    </effect>
  </library_effects>
  <library_materials>
    <material id="material_0" name="">
      <instance_effect url="#material_0-fx"/>
    </material>
  </library_materials>
  <library_geometries>
    <geometry id="mesh_0" name="" >
      <mesh>
        <source id="mesh_0-positions" name="mesh_0-positions">
          <float_array id="mesh_0-positions-array" count="801"> -0.131482497 -0.0295857694 1.71069741 -0.129457295 -0.0310148168 1.70996201 -0.119214676 -0.03850355 1.70605278 -0.136581153 -0.0262654778 1.68826735 -0.136521518 -0.0261689872 1.68824613 -0.125902653 -0.0332395397 1.68756223 -0.125902653 -0.0332395397 1.68756223 -0.120511204 -0.0374810025 1.68812239 -0.136581153 -0.0262654778 1.68826735 -0.120251298 -0.040556021 1.68943787 -0.120511204 -0.0374810025 1.68812239 -0.11741174 -0.0399937592 1.69043136 -0.132091165 -0.0305648129 1.70724702 -0.131172672 -0.0303816665 1.70078325 -0.123229422 -0.0381090194 1.70464635 -0.120251298 -0.040556021 1.68943787 -0.117525421 -0.0415026397 1.69482672 -0.11868237 -0.04191643 1.69876444 -0.120251298 -0.040556021 1.68943787 -0.11741174 -0.0399937592 1.69043136 -0.117525421 -0.0415026397 1.69482672 -0.119543657 -0.0412143432 1.70314264 -0.11868237 -0.04191643 1.69876444 -0.116798781 -0.0404606499 1.70128238 -0.133793339 -0.0283833966 1.70385659 -0.133911401 -0.028135702 1.69756281 -0.131172672 -0.0303816665 1.70078325 -0.133911401 -0.028135702 1.69756281 -0.133471087 -0.0290761758 1.69333267 -0.128243372 -0.033012528 1.69680512 -0.128243372 -0.033012528 1.69680512 -0.120251298 -0.040556021 1.68943787 -0.11868237 -0.04191643 1.69876444 -0.134457916 -0.0272442009 1.6875726 -0.14021033 -0.0237456169 1.70895433 -0.137309074 -0.0254450049 1.7112999 -0.127933592 -0.0317431465 1.71071887 -0.119214676 -0.03850355 1.70605278 -0.116798781 -0.0404606499 1.70128238 -0.14021033 -0.0237456169 1.70895433 -0.134457916 -0.0272442009 1.6875726 -0.141573966 -0.0231863167 1.70462418 -0.127933592 -0.0317431465 1.71071887 -0.116577953 -0.0406835377 1.69514191 -0.125902653 -0.0332395397 1.68756223 -0.128243372 -0.033012528 1.69680512 -0.122521967 -0.0386592709 1.69109583 -0.120251298 -0.040556021 1.68943787 -0.127933592 -0.0317431465 1.71071887 -0.116798781 -0.0404606499 1.70128238 -0.116577953 -0.0406835377 1.69514191 -0.141573966 -0.0231863167 1.70462418 -0.134457916 -0.0272442009 1.6875726 -0.14157173 -0.0230076537 1.69750428 -0.127933592 -0.0317431465 1.71071887 -0.131482497 -0.0295857694 1.71069741 -0.119214676 -0.03850355 1.70605278 -0.125902653 -0.0332395397 1.68756223 -0.136521518 -0.0261689872 1.68824613 -0.134457916 -0.0272442009 1.6875726 -0.127933592 -0.0317431465 1.71071887 -0.134457916 -0.0272442009 1.6875726 -0.131482497 -0.0295857694 1.71069741 -0.125902653 -0.0332395397 1.68756223 -0.116577953 -0.0406835377 1.69514191 -0.11741174 -0.0399937592 1.69043136 -0.14157173 -0.0230076537 1.69750428 -0.134457916 -0.0272442009 1.6875726 -0.139546603 -0.024143612 1.68973601 -0.136521518 -0.0261689872 1.68824613 -0.139546603 -0.024143612 1.68973601 -0.134457916 -0.0272442009 1.6875726 -0.134457916 -0.0272442009 1.6875726 -0.137309074 -0.0254450049 1.7112999 -0.131482497 -0.0295857694 1.71069741 -0.11741174 -0.0399937592 1.69043136 -0.120511204 -0.0374810025 1.68812239 -0.125902653 -0.0332395397 1.68756223 -0.140544757 -0.026179539 1.70921922 -0.137309074 -0.0254450049 1.7112999 -0.14021033 -0.0237456169 1.70895433 -0.132632568 -0.0297439136 1.71092522 -0.131482005 -0.029590616 1.71070814 -0.131482497 -0.0295857694 1.71069741 -0.132632568 -0.0297439136 1.71092522 -0.131482497 -0.0295857694 1.71069741 -0.134794936 -0.0297908559 1.7106595 -0.134794936 -0.0297908559 1.7106595 -0.131482497 -0.0295857694 1.71069741 -0.137309074 -0.0254450049 1.7112999 -0.119214676 -0.03850355 1.70605278 -0.129457295 -0.0310148168 1.70996201 -0.121745929 -0.0392977931 1.70605898 -0.133911401 -0.028135702 1.69756281 -0.128243372 -0.033012528 1.69680512 -0.131172672 -0.0303816665 1.70078325 -0.123229422 -0.0381090194 1.70464635 -0.131172672 -0.0303816665 1.70078325 -0.119543657 -0.0412143432 1.70314264 -0.131172672 -0.0303816665 1.70078325 -0.11868237 -0.04191643 1.69876444 -0.119543657 -0.0412143432 1.70314264 -0.128243372 -0.033012528 1.69680512 -0.11868237 -0.04191643 1.69876444 -0.131172672 -0.0303816665 1.70078325 -0.121745929 -0.0392977931 1.70605898 -0.129457295 -0.0310148168 1.70996201 -0.132632568 -0.0297439136 1.71092522 -0.133471087 -0.0290761758 1.69333267 -0.122521967 -0.0386592709 1.69109583 -0.128243372 -0.033012528 1.69680512 -0.133793339 -0.0283833966 1.70385659 -0.131172672 -0.0303816665 1.70078325 -0.132091165 -0.0305648129 1.70724702 -0.129457295 -0.0310148168 1.70996201 -0.131482005 -0.029590616 1.71070814 -0.132632568 -0.0297439136 1.71092522 -0.118480161 -0.0406325683 1.70371175 -0.116798781 -0.0404606499 1.70128238 -0.119214676 -0.03850355 1.70605278 -0.117525421 -0.0415026397 1.69482672 -0.116577953 -0.0406835377 1.69514191 -0.116798781 -0.0404606499 1.70128238 -0.117525421 -0.0415026397 1.69482672 -0.11741174 -0.0399937592 1.69043136 -0.116577953 -0.0406835377 1.69514191 -0.136581153 -0.0262654778 1.68826735 -0.120511204 -0.0374810025 1.68812239 -0.136581972 -0.0262665208 1.68826747 -0.1412016 -0.0258133654 1.69154811 -0.14157173 -0.0230076537 1.69750428 -0.139546603 -0.024143612 1.68973601 -0.132091165 -0.0305648129 1.70724702 -0.123229422 -0.0381090194 1.70464635 -0.133507505 -0.0304247737 1.70858312 -0.139546603 -0.024143612 1.68973601 -0.136521518 -0.0261689872 1.68824613 -0.139291853 -0.0269502811 1.68915641 -0.139291853 -0.0269502811 1.68915641 -0.136521518 -0.0261689872 1.68824613 -0.136581972 -0.0262665208 1.68826747 -0.119543657 -0.0412143432 1.70314264 -0.118480161 -0.0406325683 1.70371175 -0.119214676 -0.03850355 1.70605278 -0.116798781 -0.0404606499 1.70128238 -0.11868237 -0.04191643 1.69876444 -0.117525421 -0.0415026397 1.69482672 -0.119543657 -0.0412143432 1.70314264 -0.119214676 -0.03850355 1.70605278 -0.121745929 -0.0392977931 1.70605898 -0.116798781 -0.0404606499 1.70128238 -0.118480161 -0.0406325683 1.70371175 -0.119543657 -0.0412143432 1.70314264 -0.122340463 -0.0388462804 1.68872643 -0.120511204 -0.0374810025 1.68812239 -0.120251298 -0.040556021 1.68943787 -0.139291853 -0.0269502811 1.68915641 -0.136581972 -0.0262665208 1.68826747 -0.122340463 -0.0388462804 1.68872643 -0.122340463 -0.0388462804 1.68872643 -0.136581972 -0.0262665208 1.68826747 -0.120511204 -0.0374810025 1.68812239 -0.142260596 -0.025156565 1.69633579 -0.142401293 -0.0250736866 1.70471048 -0.14157173 -0.0230076537 1.69750428 -0.14157173 -0.0230076537 1.69750428 -0.142401293 -0.0250736866 1.70471048 -0.141573966 -0.0231863167 1.70462418 -0.133793339 -0.0283833966 1.70385659 -0.132091165 -0.0305648129 1.70724702 -0.134903014 -0.028004976 1.70449138 -0.1412016 -0.0258133654 1.69154811 -0.142260596 -0.025156565 1.69633579 -0.14157173 -0.0230076537 1.69750428 -0.132091165 -0.0305648129 1.70724702 -0.133507505 -0.0304247737 1.70858312 -0.137350962 -0.0277993307 1.70529854 -0.1412016 -0.0258133654 1.69154811 -0.139546603 -0.024143612 1.68973601 -0.139291853 -0.0269502811 1.68915641 -0.140544757 -0.026179539 1.70921922 -0.134794936 -0.0297908559 1.7106595 -0.137309074 -0.0254450049 1.7112999 -0.142401293 -0.0250736866 1.70471048 -0.140544757 -0.026179539 1.70921922 -0.14021033 -0.0237456169 1.70895433 -0.142401293 -0.0250736866 1.70471048 -0.14021033 -0.0237456169 1.70895433 -0.141573966 -0.0231863167 1.70462418 -0.134794936 -0.0297908559 1.7106595 -0.121745929 -0.0392977931 1.70605898 -0.132632568 -0.0297439136 1.71092522 -0.121745929 -0.0392977931 1.70605898 -0.123229422 -0.0381090194 1.70464635 -0.119543657 -0.0412143432 1.70314264 -0.139291853 -0.0269502811 1.68915641 -0.122340463 -0.0388462804 1.68872643 -0.135307655 -0.029294176 1.69098258 -0.122521967 -0.0386592709 1.69109583 -0.122340463 -0.0388462804 1.68872643 -0.120251298 -0.040556021 1.68943787 -0.139348015 -0.0271638483 1.69149518 -0.139291853 -0.0269502811 1.68915641 -0.135307655 -0.029294176 1.69098258 -0.139348015 -0.0271638483 1.69149518 -0.135307655 -0.029294176 1.69098258 -0.137609929 -0.0278892741 1.69338977 -0.139348015 -0.0271638483 1.69149518 -0.142260596 -0.025156565 1.69633579 -0.1412016 -0.0258133654 1.69154811 -0.139348015 -0.0271638483 1.69149518 -0.1412016 -0.0258133654 1.69154811 -0.139291853 -0.0269502811 1.68915641 -0.139348015 -0.0271638483 1.69149518 -0.141020313 -0.0262195878 1.70607114 -0.142260596 -0.025156565 1.69633579 -0.141020313 -0.0262195878 1.70607114 -0.142401293 -0.0250736866 1.70471048 -0.142260596 -0.025156565 1.69633579 -0.139348015 -0.0271638483 1.69149518 -0.137350962 -0.0277993307 1.70529854 -0.141020313 -0.0262195878 1.70607114 -0.139348015 -0.0271638483 1.69149518 -0.137609929 -0.0278892741 1.69338977 -0.137350962 -0.0277993307 1.70529854 -0.141020313 -0.0262195878 1.70607114 -0.137350962 -0.0277993307 1.70529854 -0.140544757 -0.026179539 1.70921922 -0.140544757 -0.026179539 1.70921922 -0.133507505 -0.0304247737 1.70858312 -0.134794936 -0.0297908559 1.7106595 -0.137350962 -0.0277993307 1.70529854 -0.133507505 -0.0304247737 1.70858312 -0.140544757 -0.026179539 1.70921922 -0.141020313 -0.0262195878 1.70607114 -0.140544757 -0.026179539 1.70921922 -0.142401293 -0.0250736866 1.70471048 -0.133507505 -0.0304247737 1.70858312 -0.123229422 -0.0381090194 1.70464635 -0.134794936 -0.0297908559 1.7106595 -0.134794936 -0.0297908559 1.7106595 -0.123229422 -0.0381090194 1.70464635 -0.121745929 -0.0392977931 1.70605898 -0.134903014 -0.028004976 1.70449138 -0.132091165 -0.0305648129 1.70724702 -0.137350962 -0.0277993307 1.70529854 -0.135307655 -0.029294176 1.69098258 -0.122521967 -0.0386592709 1.69109583 -0.133471087 -0.0290761758 1.69333267 -0.122521967 -0.0386592709 1.69109583 -0.135307655 -0.029294176 1.69098258 -0.122340463 -0.0388462804 1.68872643 -0.135307655 -0.029294176 1.69098258 -0.133471087 -0.0290761758 1.69333267 -0.137609929 -0.0278892741 1.69338977 -0.137350962 -0.0277993307 1.70529854 -0.137609929 -0.0278892741 1.69338977 -0.134903014 -0.028004976 1.70449138 -0.133911401 -0.028135702 1.69756281 -0.137609929 -0.0278892741 1.69338977 -0.133471087 -0.0290761758 1.69333267 -0.133793339 -0.0283833966 1.70385659 -0.134903014 -0.028004976 1.70449138 -0.133911401 -0.028135702 1.69756281 -0.133911401 -0.028135702 1.69756281 -0.134903014 -0.028004976 1.70449138 -0.137609929 -0.0278892741 1.69338977 </float_array>
          <technique_common>
            <accessor count="267" offset="0" source="#mesh_0-positions-array" stride="3">
              <param name="X" type="float" />
              <param name="Y" type="float" />
              <param name="Z" type="float" />
            </accessor>
          </technique_common>
        </source>
        <vertices id="mesh_0-vertices">
          <input semantic="POSITION" source="#mesh_0-positions" />
        </vertices>
        <polylist count="89" material="defaultMaterial">
          <input offset="0" semantic="VERTEX" source="#mesh_0-vertices" />
          <vcount>3 3 3 3 3 3 3 3 3 3 3 3 3 3 3 3 3 3 3 3 3 3 3 3 3 3 3 3 3 3 3 3 3 3 3 3 3 3 3 3 3 3 3 3 3 3 3 3 3 3 3 3 3 3 3 3 3 3 3 3 3 3 3 3 3 3 3 3 3 3 3 3 3 3 3 3 3 3 3 3 3 3 3 3 3 3 3 3 3 </vcount>
          <p>0 1 2 3 4 5 6 7 8 9 10 11 12 13 14 15 16 17 18 19 20 21 22 23 24 25 26 27 28 29 30 31 32 33 34 35 36 37 38 39 40 41 42 43 44 45 46 47 48 49 50 51 52 53 54 55 56 57 58 59 60 61 62 63 64 65 66 67 68 69 70 71 72 73 74 75 76 77 78 79 80 81 82 83 84 85 86 87 88 89 90 91 92 93 94 95 96 97 98 99 100 101 102 103 104 105 106 107 108 109 110 111 112 113 114 115 116 117 118 119 120 121 122 123 124 125 126 127 128 129 130 131 132 133 134 135 136 137 138 139 140 141 142 143 144 145 146 147 148 149 150 151 152 153 154 155 156 157 158 159 160 161 162 163 164 165 166 167 168 169 170 171 172 173 174 175 176 177 178 179 180 181 182 183 184 185 186 187 188 189 190 191 192 193 194 195 196 197 198 199 200 201 202 203 204 205 206 207 208 209 210 211 212 213 214 215 216 217 218 219 220 221 222 223 224 225 226 227 228 229 230 231 232 233 234 235 236 237 238 239 240 241 242 243 244 245 246 247 248 249 250 251 252 253 254 255 256 257 258 259 260 261 262 263 264 265 266 </p>
        </polylist>
      </mesh>
    </geometry>
  </library_geometries>
  <library_controllers>
  </library_controllers>
  <library_visual_scenes>
    <visual_scene id="Scene" name="Scene">
      <node id="node" name="" type="NODE">
        <matrix sid="matrix">1 0 0 0 0 1 0 0 0 0 1 0 0 0 0 1</matrix>
        <instance_geometry url="#mesh_0">
          <bind_material>
            <technique_common>
              <instance_material symbol="defaultMaterial" target="#material_0">
              </instance_material>
            </technique_common>
          </bind_material>
        </instance_geometry>
      </node>
    </visual_scene>
  </library_visual_scenes>
  <scene>
    <instance_visual_scene url="#Scene" />
  </scene>
</COLLADA>
