<?xml version="1.0" encoding="UTF-8" standalone="no" ?>
<COLLADA xmlns="http://www.collada.org/2005/11/COLLADASchema" version="1.4.1">
  <asset>
    <contributor>
      <author>Assimp</author>
      <authoring_tool>Assimp Exporter</authoring_tool>
    </contributor>
    <created>2026-04-22T16:09:44</created>
    <modified>2026-04-22T16:09:44</modified>
    <unit name="meter" meter="1" />
    <up_axis>Y_UP</up_axis>
  </asset>
  <library_images>
  </library_images>
  <library_effects>
    <effect id="material_0-fx" name="">
      <profile_COMMON>
        <technique sid="standard">
          <phong>
            <emission>
              <color sid="emission">0   0   0   1.80177653</color>
            </emission>
            <ambient>
              <color sid="ambient">0.699999988   0.699999988   0.699999988   1.40257168</color>
            </ambient>
            <diffuse>
              <color sid="diffuse">0.699999988   0.699999988   0.699999988   1.40257168</color>
            </diffuse>
            <specular>
              <color sid="specular">0.25   0.25   0.25   -0.531376243</color>
            </specular>
          </phong>
        </technique>
      </profile_COMMON>
    </effect>
  </library_effects>
  <library_materials>
    <material id="material_0" name="">
      <instance_effect url="#material_0-fx"/>
    </material>
  </library_materials>
  <library_geometries>
    <geometry id="mesh_0" name="" >
      <mesh>
        <source id="mesh_0-positions" name="mesh_0-positions">
          <float_array id="mesh_0-positions-array" count="2484"> 0.732728064 -0.25321269 1.67648113 0.720780373 -0.268007249 1.67647243 0.733985484 -0.256648779 1.67648172 0.683234274 -0.217173815 1.67645288 0.670028865 -0.228532448 1.67644334 0.671286643 -0.231968299 1.67644382 0.690356553 -0.233419865 1.67995632 0.692012668 -0.230316594 1.67896211 0.686887741 -0.238038242 1.67894375 0.690356553 -0.233419865 1.67995632 0.686887741 -0.238038242 1.67894375 0.68768996 -0.246445343 1.67995334 0.693729162 -0.256035626 1.67895615 0.700673401 -0.257328302 1.67996037 0.689681172 -0.250791967 1.67995405 0.693729162 -0.256035626 1.67895615 0.703710973 -0.25827235 1.67895484 0.700673401 -0.257328302 1.67996037 0.700673401 -0.257328302 1.67996037 0.703710973 -0.25827235 1.67895484 0.710881472 -0.254458874 1.67996764 0.683234274 -0.217173815 1.67645288 0.671286643 -0.231968299 1.67644382 0.680344939 -0.220928147 1.6774509 0.692012668 -0.230316594 1.67896211 0.690356553 -0.233419865 1.67995632 0.705860257 -0.228275731 1.67996633 0.705860257 -0.228275731 1.67996633 0.703867376 -0.226912618 1.67895424 0.692012668 -0.230316594 1.67896211 0.671286643 -0.231968299 1.67644382 0.674858689 -0.228472784 1.67744648 0.680344939 -0.220928147 1.6774509 0.671286643 -0.231968299 1.67644382 0.672325015 -0.250043273 1.67744291 0.674858689 -0.228472784 1.67744648 0.671286643 -0.231968299 1.67644382 0.670525491 -0.240941733 1.67644286 0.672325015 -0.250043273 1.67744291 0.670525491 -0.240941733 1.67644286 0.672678173 -0.254150003 1.67644298 0.672325015 -0.250043273 1.67744291 0.672678173 -0.254150003 1.67644298 0.677114964 -0.26193428 1.67644525 0.672325015 -0.250043273 1.67744291 0.713015914 -0.232729807 1.6799705 0.703867376 -0.226912618 1.67895424 0.705860257 -0.228275731 1.67996633 0.677114964 -0.26193428 1.67644525 0.681158543 -0.264993846 1.6774472 0.672325015 -0.250043273 1.67744291 0.677114964 -0.26193428 1.67644525 0.68356216 -0.268155783 1.67644882 0.681158543 -0.264993846 1.6774472 0.68356216 -0.268155783 1.67644882 0.691499174 -0.272312462 1.67645347 0.681158543 -0.264993846 1.6774472 0.691499174 -0.272312462 1.67645347 0.696704865 -0.272730708 1.67745662 0.681158543 -0.264993846 1.6774472 0.713015914 -0.232729807 1.6799705 0.717568696 -0.239926979 1.67747259 0.716124356 -0.235434756 1.67747211 0.717779279 -0.24327381 1.67896307 0.717568696 -0.239926979 1.67747259 0.713015914 -0.232729807 1.6799705 0.691499174 -0.272312462 1.67645347 0.700285614 -0.274068266 1.67645884 0.696704865 -0.272730708 1.67745662 0.700285614 -0.274068266 1.67645884 0.712885618 -0.273306251 1.6764667 0.696704865 -0.272730708 1.67745662 0.712885618 -0.273306251 1.6764667 0.712998748 -0.271106452 1.67746699 0.696704865 -0.272730708 1.67745662 0.712885618 -0.273306251 1.6764667 0.720780373 -0.268007249 1.67647243 0.712998748 -0.271106452 1.67746699 0.720780373 -0.268007249 1.67647243 0.729154646 -0.256708443 1.67747879 0.712998748 -0.271106452 1.67746699 0.671412051 -0.232990399 1.66989386 0.671698987 -0.233520553 1.66732919 0.671962202 -0.236133114 1.66965663 0.711619735 -0.273190647 1.66992688 0.699671566 -0.274027586 1.6709584 0.707601964 -0.272694945 1.66990316 0.699671566 -0.274027586 1.6709584 0.694008768 -0.272127926 1.66995466 0.707601964 -0.272694945 1.66990316 0.699671566 -0.274027586 1.6709584 0.690943062 -0.272108108 1.67095268 0.694008768 -0.272127926 1.66995466 0.683234274 -0.217173815 1.67645288 0.680344939 -0.220928147 1.6774509 0.694626987 -0.212952748 1.67746031 0.694492936 -0.211944014 1.67645967 0.683234274 -0.217173815 1.67645288 0.694626987 -0.212952748 1.67746031 0.690943062 -0.272108108 1.67095268 0.680748105 -0.264530152 1.66995239 0.694008768 -0.272127926 1.66995466 0.690943062 -0.272108108 1.67095268 0.683103919 -0.267815828 1.67094791 0.680748105 -0.264530152 1.66995239 0.683103919 -0.267815828 1.67094791 0.678898513 -0.261615604 1.66994619 0.680748105 -0.264530152 1.66995239 0.683103919 -0.267815828 1.67094791 0.674359322 -0.257729024 1.67094338 0.678898513 -0.261615604 1.66994619 0.694492936 -0.211944014 1.67645967 0.694626987 -0.212952748 1.67746031 0.714648247 -0.214720502 1.67747307 0.709282815 -0.21191676 1.67647004 0.694492936 -0.211944014 1.67645967 0.714648247 -0.214720502 1.67747307 0.674359322 -0.257729024 1.67094338 0.673123837 -0.25269115 1.66994309 0.678898513 -0.261615604 1.66994619 0.674359322 -0.257729024 1.67094338 0.671221733 -0.24936074 1.67094219 0.673123837 -0.25269115 1.66994309 0.717618227 -0.215202585 1.67647517 0.709282815 -0.21191676 1.67647004 0.714648247 -0.214720502 1.67747307 0.671221733 -0.24936074 1.67094219 0.67055887 -0.240448475 1.67094266 0.673123837 -0.25269115 1.66994309 0.67055887 -0.240448475 1.67094266 0.671962202 -0.236133114 1.66965663 0.673123837 -0.25269115 1.66994309 0.724692822 -0.220700219 1.67647934 0.717618227 -0.215202585 1.67647517 0.714648247 -0.214720502 1.67747307 0.67055887 -0.240448475 1.67094266 0.671412051 -0.232990399 1.66989386 0.671962202 -0.236133114 1.66965663 0.724692822 -0.220700219 1.67647934 0.714648247 -0.214720502 1.67747307 0.727777481 -0.226085737 1.67748058 0.729934931 -0.227966458 1.67648196 0.724692822 -0.220700219 1.67647934 0.727777481 -0.226085737 1.67748058 0.711619735 -0.273190647 1.66992688 0.707601964 -0.272694945 1.66990316 0.711069226 -0.272902399 1.66743875 0.732064724 -0.249921754 1.66928589 0.7321226 -0.247789815 1.66995978 0.732612431 -0.252205938 1.66994905 0.732921004 -0.23641409 1.67648315 0.729934931 -0.227966458 1.67648196 0.727777481 -0.226085737 1.67748058 0.732612431 -0.252205938 1.66994905 0.732327461 -0.251658827 1.66736639 0.732064724 -0.249921754 1.66928589 0.732921004 -0.23641409 1.67648315 0.727777481 -0.226085737 1.67748058 0.732608974 -0.242765695 1.67748225 0.692403018 -0.211989492 1.66991997 0.701542377 -0.211014286 1.67096424 0.696423888 -0.212476477 1.66990423 0.732728064 -0.25321269 1.67648113 0.732921004 -0.23641409 1.67648315 0.732608974 -0.242765695 1.67748225 0.701542377 -0.211014286 1.67096424 0.710014105 -0.213052109 1.66996992 0.696423888 -0.212476477 1.66990423 0.701542377 -0.211014286 1.67096424 0.707683742 -0.211579964 1.67096877 0.710014105 -0.213052109 1.66996992 0.732728064 -0.25321269 1.67648113 0.732608974 -0.242765695 1.67748225 0.729154646 -0.256708443 1.67747879 0.707683742 -0.211579964 1.67096877 0.716158509 -0.214418188 1.67097378 0.710014105 -0.213052109 1.66996992 0.716158509 -0.214418188 1.67097378 0.723274708 -0.220649943 1.66998339 0.710014105 -0.213052109 1.66996992 0.720780373 -0.268007249 1.67647243 0.732728064 -0.25321269 1.67648113 0.729154646 -0.256708443 1.67747879 0.674876094 -0.244802088 1.67094505 0.676532209 -0.245651633 1.67737424 0.679804146 -0.243873909 1.67094827 0.716158509 -0.214418188 1.67097378 0.723496258 -0.219520792 1.67097795 0.723274708 -0.220649943 1.66998339 0.676532209 -0.245651633 1.67737424 0.679393351 -0.244573772 1.67738736 0.679804146 -0.243873909 1.67094827 0.676348805 -0.239358172 1.67744482 0.673929334 -0.242885515 1.67736721 0.675077677 -0.240247384 1.67094553 0.675077677 -0.240247384 1.67094553 0.673929334 -0.242885515 1.67736721 0.674876094 -0.244802088 1.67094505 0.723496258 -0.219520792 1.67097795 0.725124598 -0.223564163 1.6699791 0.723274708 -0.220649943 1.66998339 0.723496258 -0.219520792 1.67097795 0.729106784 -0.226477474 1.67098093 0.725124598 -0.223564163 1.6699791 0.729106784 -0.226477474 1.67098093 0.730899155 -0.232488647 1.66998172 0.725124598 -0.223564163 1.6699791 0.729106784 -0.226477474 1.67098093 0.732539654 -0.234728977 1.6709826 0.730899155 -0.232488647 1.66998172 0.732539654 -0.234728977 1.6709826 0.733518779 -0.243612021 1.6709826 0.730899155 -0.232488647 1.66998172 0.673929334 -0.242885515 1.67736721 0.676532209 -0.245651633 1.67737424 0.674876094 -0.244802088 1.67094505 0.733518779 -0.243612021 1.6709826 0.7321226 -0.247789815 1.66995978 0.730899155 -0.232488647 1.66998172 0.733518779 -0.243612021 1.6709826 0.732612431 -0.252205938 1.66994905 0.7321226 -0.247789815 1.66995978 0.692403018 -0.211989492 1.66991997 0.696423888 -0.212476477 1.66990423 0.692956686 -0.212277263 1.66743243 0.679930449 -0.241693094 1.67094851 0.674876094 -0.244802088 1.67094505 0.679804146 -0.243873909 1.67094827 0.703655064 -0.226849034 1.67746496 0.691888988 -0.230419412 1.67745709 0.692012668 -0.230316594 1.67896211 0.703655064 -0.226849034 1.67746496 0.692012668 -0.230316594 1.67896211 0.703867376 -0.226912618 1.67895424 0.679930449 -0.241693094 1.67094851 0.675077677 -0.240247384 1.67094553 0.674876094 -0.244802088 1.67094505 0.679070115 -0.240016773 1.67744648 0.676348805 -0.239358172 1.67744482 0.675077677 -0.240247384 1.67094553 0.679930449 -0.241693094 1.67094851 0.679070115 -0.240016773 1.67744648 0.675077677 -0.240247384 1.67094553 0.709301889 -0.228517249 1.6774683 0.703655064 -0.226849034 1.67746496 0.703867376 -0.226912618 1.67895424 0.709301889 -0.228517249 1.6774683 0.703867376 -0.226912618 1.67895424 0.713015914 -0.232729807 1.6799705 0.679393351 -0.244573772 1.67738736 0.679070115 -0.240016773 1.67744648 0.679930449 -0.241693094 1.67094851 0.679804146 -0.243873909 1.67094827 0.679393351 -0.244573772 1.67738736 0.679930449 -0.241693094 1.67094851 0.709301889 -0.228517249 1.6774683 0.713015914 -0.232729807 1.6799705 0.716124356 -0.235434756 1.67747211 0.671286643 -0.231968299 1.67644382 0.670028865 -0.228532448 1.67644334 0.671412051 -0.232990399 1.66989386 0.7166062 -0.274978548 1.67646897 0.712885618 -0.273306251 1.6764667 0.711619735 -0.273190647 1.66992688 0.732728064 -0.25321269 1.67648113 0.733985484 -0.256648779 1.67648172 0.732612431 -0.252205938 1.66994905 0.691128671 -0.211875111 1.67645824 0.694492936 -0.211944014 1.67645967 0.692403018 -0.211989492 1.66991997 0.687408626 -0.210202411 1.67645609 0.691128671 -0.211875111 1.67645824 0.692403018 -0.211989492 1.66991997 0.716986656 -0.247700602 1.67747164 0.717568696 -0.239926979 1.67747259 0.717779279 -0.24327381 1.67896307 0.671962202 -0.236133114 1.66965663 0.671698987 -0.233520553 1.66732919 0.707601964 -0.272694945 1.66990316 0.716986656 -0.247700602 1.67747164 0.717779279 -0.24327381 1.67896307 0.715397477 -0.250988245 1.67897546 0.712124407 -0.254761904 1.67746794 0.716986656 -0.247700602 1.67747164 0.715397477 -0.250988245 1.67897546 0.707601964 -0.272694945 1.66990316 0.671698987 -0.233520553 1.66732919 0.711069226 -0.272902399 1.66743875 0.696423888 -0.212476477 1.66990423 0.7321226 -0.247789815 1.66995978 0.732064724 -0.249921754 1.66928589 0.696423888 -0.212476477 1.66990423 0.732064724 -0.249921754 1.66928589 0.692956686 -0.212277263 1.66743243 0.732064724 -0.249921754 1.66928589 0.732327461 -0.251658827 1.66736639 0.692956686 -0.212277263 1.66743243 0.717779279 -0.24327381 1.67896307 0.713015914 -0.232729807 1.6799705 0.715397477 -0.250988245 1.67897546 0.713015914 -0.232729807 1.6799705 0.700673401 -0.257328302 1.67996037 0.710881472 -0.254458874 1.67996764 0.713015914 -0.232729807 1.6799705 0.690356553 -0.233419865 1.67995632 0.700673401 -0.257328302 1.67996037 0.71570617 -0.228790224 1.6734724 0.714174569 -0.224396199 1.66997194 0.71494627 -0.222048774 1.67347264 0.715812027 -0.228893593 1.66997254 0.714174569 -0.224396199 1.66997194 0.71570617 -0.228790224 1.6734724 0.722553372 -0.229653731 1.66997683 0.715812027 -0.228893593 1.66997254 0.722910047 -0.229475334 1.67347705 0.722910047 -0.229475334 1.67347705 0.715812027 -0.228893593 1.66997254 0.71570617 -0.228790224 1.6734724 0.713015914 -0.232729807 1.6799705 0.710881472 -0.254458874 1.67996764 0.715397477 -0.250988245 1.67897546 0.713015914 -0.232729807 1.6799705 0.705860257 -0.228275731 1.67996633 0.690356553 -0.233419865 1.67995632 0.714174569 -0.224396199 1.66997194 0.717422187 -0.219876096 1.66997445 0.71494627 -0.222048774 1.67347264 0.700673401 -0.257328302 1.67996037 0.690356553 -0.233419865 1.67995632 0.689681172 -0.250791967 1.67995405 0.689681172 -0.250791967 1.67995405 0.690356553 -0.233419865 1.67995632 0.68768996 -0.246445343 1.67995334 0.71494627 -0.222048774 1.67347264 0.717422187 -0.219876096 1.66997445 0.717112064 -0.219938621 1.67347419 0.680748105 -0.264530152 1.66995239 0.678898513 -0.261615604 1.66994619 0.680051148 -0.263881356 1.67344666 0.680051148 -0.263881356 1.67344666 0.678898513 -0.261615604 1.66994619 0.678731918 -0.260421693 1.67344606 0.691888988 -0.230419412 1.67745709 0.686887741 -0.238038242 1.67894375 0.692012668 -0.230316594 1.67896211 0.691888988 -0.230419412 1.67745709 0.68702668 -0.23748067 1.67745328 0.686887741 -0.238038242 1.67894375 0.68702668 -0.23748067 1.67745328 0.68768996 -0.246445343 1.67995334 0.686887741 -0.238038242 1.67894375 0.678898513 -0.261615604 1.66994619 0.678990424 -0.258866757 1.66994643 0.678731918 -0.260421693 1.67344606 0.678731918 -0.260421693 1.67344606 0.678990424 -0.258866757 1.66994643 0.681391895 -0.25559026 1.6734482 0.68702668 -0.23748067 1.67745328 0.687354565 -0.248432323 1.67745268 0.68768996 -0.246445343 1.67995334 0.686600506 -0.265304089 1.66995072 0.680748105 -0.264530152 1.66995239 0.683240592 -0.265761942 1.67344844 0.683240592 -0.265761942 1.67344844 0.680748105 -0.264530152 1.66995239 0.680051148 -0.263881356 1.67344666 0.687354565 -0.248432323 1.67745268 0.689681172 -0.250791967 1.67995405 0.68768996 -0.246445343 1.67995334 0.681408882 -0.261854172 1.67344761 0.682425499 -0.25751406 1.67344868 0.681462586 -0.26195398 1.67744768 0.687013984 -0.262268633 1.67745125 0.68600589 -0.263116539 1.67345059 0.684896767 -0.26352337 1.67744982 0.681462586 -0.26195398 1.67744768 0.682425499 -0.25751406 1.67344868 0.682328105 -0.257582605 1.67744851 0.687354565 -0.248432323 1.67745268 0.69190377 -0.254746646 1.67745495 0.689681172 -0.250791967 1.67995405 0.69190377 -0.254746646 1.67745495 0.693729162 -0.256035626 1.67895615 0.689681172 -0.250791967 1.67995405 0.69190377 -0.254746646 1.67745495 0.699066639 -0.258127809 1.67745912 0.693729162 -0.256035626 1.67895615 0.68600589 -0.263116539 1.67345059 0.681408882 -0.261854172 1.67344761 0.684896767 -0.26352337 1.67744982 0.684896767 -0.26352337 1.67744982 0.681408882 -0.261854172 1.67344761 0.681462586 -0.26195398 1.67744768 0.699066639 -0.258127809 1.67745912 0.703710973 -0.25827235 1.67895484 0.693729162 -0.256035626 1.67895615 0.699066639 -0.258127809 1.67745912 0.712124407 -0.254761904 1.67746794 0.703710973 -0.25827235 1.67895484 0.722918212 -0.2242928 1.6774776 0.72145474 -0.227678806 1.67347622 0.719415247 -0.228220478 1.67747486 0.712124407 -0.254761904 1.67746794 0.710881472 -0.254458874 1.67996764 0.703710973 -0.25827235 1.67895484 0.716686428 -0.226261497 1.67747331 0.717131674 -0.222785428 1.67347383 0.718500555 -0.221846595 1.67747486 0.712124407 -0.254761904 1.67746794 0.715397477 -0.250988245 1.67897546 0.710881472 -0.254458874 1.67996764 0.720778048 -0.219418481 1.67347658 0.723274708 -0.220649943 1.66998339 0.723967433 -0.221299157 1.67347848 0.72145474 -0.227678806 1.67347622 0.718385875 -0.227937803 1.67347431 0.719415247 -0.228220478 1.67747486 0.719415247 -0.228220478 1.67747486 0.718385875 -0.227937803 1.67347431 0.716686428 -0.226261497 1.67747331 0.717422187 -0.219876096 1.66997445 0.723274708 -0.220649943 1.66998339 0.720778048 -0.219418481 1.67347658 0.725286663 -0.2247587 1.67347896 0.722553372 -0.229653731 1.66997683 0.722910047 -0.229475334 1.67347705 0.718385875 -0.227937803 1.67347431 0.717131674 -0.222785428 1.67347383 0.716686428 -0.226261497 1.67747331 0.671286643 -0.231968299 1.67644382 0.671412051 -0.232990399 1.66989386 0.67055887 -0.240448475 1.67094266 0.670525491 -0.240941733 1.67644286 0.671286643 -0.231968299 1.67644382 0.67055887 -0.240448475 1.67094266 0.725124598 -0.223564163 1.6699791 0.722553372 -0.229653731 1.66997683 0.725286663 -0.2247587 1.67347896 0.717112064 -0.219938621 1.67347419 0.717422187 -0.219876096 1.66997445 0.720778048 -0.219418481 1.67347658 0.670525491 -0.240941733 1.67644286 0.67055887 -0.240448475 1.67094266 0.671221733 -0.24936074 1.67094219 0.672678173 -0.254150003 1.67644298 0.670525491 -0.240941733 1.67644286 0.671221733 -0.24936074 1.67094219 0.723967433 -0.221299157 1.67347848 0.725124598 -0.223564163 1.6699791 0.725286663 -0.2247587 1.67347896 0.723274708 -0.220649943 1.66998339 0.725124598 -0.223564163 1.6699791 0.723967433 -0.221299157 1.67347848 0.672678173 -0.254150003 1.67644298 0.671221733 -0.24936074 1.67094219 0.674359322 -0.257729024 1.67094338 0.677114964 -0.26193428 1.67644525 0.672678173 -0.254150003 1.67644298 0.674359322 -0.257729024 1.67094338 0.720778048 -0.219418481 1.67347658 0.723967433 -0.221299157 1.67347848 0.72183007 -0.222340047 1.67347693 0.717112064 -0.219938621 1.67347419 0.72183007 -0.222340047 1.67347693 0.717131674 -0.222785428 1.67347383 0.677114964 -0.26193428 1.67644525 0.674359322 -0.257729024 1.67094338 0.683103919 -0.267815828 1.67094791 0.68356216 -0.268155783 1.67644882 0.677114964 -0.26193428 1.67644525 0.683103919 -0.267815828 1.67094791 0.717112064 -0.219938621 1.67347419 0.717131674 -0.222785428 1.67347383 0.71494627 -0.222048774 1.67347264 0.723967433 -0.221299157 1.67347848 0.722910643 -0.224294528 1.67347753 0.72183007 -0.222340047 1.67347693 0.723967433 -0.221299157 1.67347848 0.725286663 -0.2247587 1.67347896 0.722910643 -0.224294528 1.67347753 0.691499174 -0.272312462 1.67645347 0.68356216 -0.268155783 1.67644882 0.683103919 -0.267815828 1.67094791 0.691499174 -0.272312462 1.67645347 0.683103919 -0.267815828 1.67094791 0.690943062 -0.272108108 1.67095268 0.717131674 -0.222785428 1.67347383 0.71570617 -0.228790224 1.6734724 0.71494627 -0.222048774 1.67347264 0.717131674 -0.222785428 1.67347383 0.718385875 -0.227937803 1.67347431 0.71570617 -0.228790224 1.6734724 0.700285614 -0.274068266 1.67645884 0.691499174 -0.272312462 1.67645347 0.690943062 -0.272108108 1.67095268 0.700285614 -0.274068266 1.67645884 0.690943062 -0.272108108 1.67095268 0.699671566 -0.274027586 1.6709584 0.722910643 -0.224294528 1.67347753 0.725286663 -0.2247587 1.67347896 0.722910047 -0.229475334 1.67347705 0.722910643 -0.224294528 1.67347753 0.722910047 -0.229475334 1.67347705 0.72145474 -0.227678806 1.67347622 0.712885618 -0.273306251 1.6764667 0.700285614 -0.274068266 1.67645884 0.699671566 -0.274027586 1.6709584 0.712885618 -0.273306251 1.6764667 0.699671566 -0.274027586 1.6709584 0.711619735 -0.273190647 1.66992688 0.718385875 -0.227937803 1.67347431 0.72145474 -0.227678806 1.67347622 0.71570617 -0.228790224 1.6734724 0.679393351 -0.244573772 1.67738736 0.68702668 -0.23748067 1.67745328 0.679070115 -0.240016773 1.67744648 0.687013984 -0.262268633 1.67745125 0.69190377 -0.254746646 1.67745495 0.68508023 -0.257004589 1.6774503 0.72145474 -0.227678806 1.67347622 0.722910047 -0.229475334 1.67347705 0.71570617 -0.228790224 1.6734724 0.681158543 -0.264993846 1.6774472 0.681462586 -0.26195398 1.67744768 0.672325015 -0.250043273 1.67744291 0.716686428 -0.226261497 1.67747331 0.714648247 -0.214720502 1.67747307 0.709301889 -0.228517249 1.6774683 0.720778048 -0.219418481 1.67347658 0.72183007 -0.222340047 1.67347693 0.717112064 -0.219938621 1.67347419 0.703655064 -0.226849034 1.67746496 0.694626987 -0.212952748 1.67746031 0.691888988 -0.230419412 1.67745709 0.6898157 -0.261162609 1.67345309 0.686600506 -0.265304089 1.66995072 0.683240592 -0.265761942 1.67344844 0.709301889 -0.228517249 1.6774683 0.714648247 -0.214720502 1.67747307 0.703655064 -0.226849034 1.67746496 0.683438659 -0.254782796 1.66994965 0.689191937 -0.257606864 1.66995299 0.68699193 -0.255409211 1.67345178 0.689887404 -0.260076165 1.66995335 0.686600506 -0.265304089 1.66995072 0.6898157 -0.261162609 1.67345309 0.681391895 -0.25559026 1.6734482 0.683438659 -0.254782796 1.66994965 0.68699193 -0.255409211 1.67345178 0.689191937 -0.257606864 1.66995299 0.689887404 -0.260076165 1.66995335 0.6898157 -0.261162609 1.67345309 0.68699193 -0.255409211 1.67345178 0.689191937 -0.257606864 1.66995299 0.6898157 -0.261162609 1.67345309 0.729154646 -0.256708443 1.67747879 0.712124407 -0.254761904 1.67746794 0.712998748 -0.271106452 1.67746699 0.703655064 -0.226849034 1.67746496 0.714648247 -0.214720502 1.67747307 0.694626987 -0.212952748 1.67746031 0.676348805 -0.239358172 1.67744482 0.672325015 -0.250043273 1.67744291 0.673929334 -0.242885515 1.67736721 0.678990424 -0.258866757 1.66994643 0.683438659 -0.254782796 1.66994965 0.681391895 -0.25559026 1.6734482 0.732608974 -0.242765695 1.67748225 0.727777481 -0.226085737 1.67748058 0.717568696 -0.239926979 1.67747259 0.69190377 -0.254746646 1.67745495 0.687354565 -0.248432323 1.67745268 0.68508023 -0.257004589 1.6774503 0.681391895 -0.25559026 1.6734482 0.687110722 -0.258491069 1.67345154 0.682425499 -0.25751406 1.67344868 0.681462586 -0.26195398 1.67744768 0.682328105 -0.257582605 1.67744851 0.672325015 -0.250043273 1.67744291 0.68699193 -0.255409211 1.67345178 0.6898157 -0.261162609 1.67345309 0.687110722 -0.258491069 1.67345154 0.681391895 -0.25559026 1.6734482 0.682425499 -0.25751406 1.67344868 0.678731918 -0.260421693 1.67344606 0.676348805 -0.239358172 1.67744482 0.674858689 -0.228472784 1.67744648 0.672325015 -0.250043273 1.67744291 0.682425499 -0.25751406 1.67344868 0.681408882 -0.261854172 1.67344761 0.678731918 -0.260421693 1.67344606 0.691888988 -0.230419412 1.67745709 0.680344939 -0.220928147 1.6774509 0.674858689 -0.228472784 1.67744648 0.687110722 -0.258491069 1.67345154 0.6898157 -0.261162609 1.67345309 0.68600589 -0.263116539 1.67345059 0.681408882 -0.261854172 1.67344761 0.680051148 -0.263881356 1.67344666 0.678731918 -0.260421693 1.67344606 0.717568696 -0.239926979 1.67747259 0.727777481 -0.226085737 1.67748058 0.716124356 -0.235434756 1.67747211 0.729154646 -0.256708443 1.67747879 0.716986656 -0.247700602 1.67747164 0.712124407 -0.254761904 1.67746794 0.68600589 -0.263116539 1.67345059 0.6898157 -0.261162609 1.67345309 0.683240592 -0.265761942 1.67344844 0.681408882 -0.261854172 1.67344761 0.683240592 -0.265761942 1.67344844 0.680051148 -0.263881356 1.67344666 0.68508023 -0.257004589 1.6774503 0.687354565 -0.248432323 1.67745268 0.682328105 -0.257582605 1.67744851 0.681408882 -0.261854172 1.67344761 0.68600589 -0.263116539 1.67345059 0.683240592 -0.265761942 1.67344844 0.68699193 -0.255409211 1.67345178 0.687110722 -0.258491069 1.67345154 0.681391895 -0.25559026 1.6734482 0.720780373 -0.268007249 1.67647243 0.712885618 -0.273306251 1.6764667 0.7166062 -0.274978548 1.67646897 0.732608974 -0.242765695 1.67748225 0.716986656 -0.247700602 1.67747164 0.729154646 -0.256708443 1.67747879 0.696704865 -0.272730708 1.67745662 0.712124407 -0.254761904 1.67746794 0.699066639 -0.258127809 1.67745912 0.679070115 -0.240016773 1.67744648 0.674858689 -0.228472784 1.67744648 0.676348805 -0.239358172 1.67744482 0.694492936 -0.211944014 1.67645967 0.687408626 -0.210202411 1.67645609 0.683234274 -0.217173815 1.67645288 0.727777481 -0.226085737 1.67748058 0.714648247 -0.214720502 1.67747307 0.722918212 -0.2242928 1.6774776 0.712998748 -0.271106452 1.67746699 0.712124407 -0.254761904 1.67746794 0.696704865 -0.272730708 1.67745662 0.68702668 -0.23748067 1.67745328 0.674858689 -0.228472784 1.67744648 0.679070115 -0.240016773 1.67744648 0.679393351 -0.244573772 1.67738736 0.676532209 -0.245651633 1.67737424 0.672325015 -0.250043273 1.67744291 0.682328105 -0.257582605 1.67744851 0.679393351 -0.244573772 1.67738736 0.672325015 -0.250043273 1.67744291 0.681158543 -0.264993846 1.6774472 0.687013984 -0.262268633 1.67745125 0.684896767 -0.26352337 1.67744982 0.683234274 -0.217173815 1.67645288 0.687408626 -0.210202411 1.67645609 0.670028865 -0.228532448 1.67644334 0.687354565 -0.248432323 1.67745268 0.679393351 -0.244573772 1.67738736 0.682328105 -0.257582605 1.67744851 0.696704865 -0.272730708 1.67745662 0.699066639 -0.258127809 1.67745912 0.681158543 -0.264993846 1.6774472 0.722918212 -0.2242928 1.6774776 0.714648247 -0.214720502 1.67747307 0.718500555 -0.221846595 1.67747486 0.694492936 -0.211944014 1.67645967 0.691128671 -0.211875111 1.67645824 0.687408626 -0.210202411 1.67645609 0.684896767 -0.26352337 1.67744982 0.681462586 -0.26195398 1.67744768 0.681158543 -0.264993846 1.6774472 0.722553372 -0.229653731 1.66997683 0.730899155 -0.232488647 1.66998172 0.7321226 -0.247789815 1.66995978 0.681158543 -0.264993846 1.6774472 0.699066639 -0.258127809 1.67745912 0.687013984 -0.262268633 1.67745125 0.722553372 -0.229653731 1.66997683 0.7321226 -0.247789815 1.66995978 0.715812027 -0.228893593 1.66997254 0.715812027 -0.228893593 1.66997254 0.7321226 -0.247789815 1.66995978 0.696423888 -0.212476477 1.66990423 0.732608974 -0.242765695 1.67748225 0.717568696 -0.239926979 1.67747259 0.716986656 -0.247700602 1.67747164 0.725124598 -0.223564163 1.6699791 0.730899155 -0.232488647 1.66998172 0.722553372 -0.229653731 1.66997683 0.691888988 -0.230419412 1.67745709 0.674858689 -0.228472784 1.67744648 0.68702668 -0.23748067 1.67745328 0.723274708 -0.220649943 1.66998339 0.717422187 -0.219876096 1.66997445 0.710014105 -0.213052109 1.66996992 0.716124356 -0.235434756 1.67747211 0.719415247 -0.228220478 1.67747486 0.709301889 -0.228517249 1.6774683 0.710014105 -0.213052109 1.66996992 0.717422187 -0.219876096 1.66997445 0.714174569 -0.224396199 1.66997194 0.714174569 -0.224396199 1.66997194 0.715812027 -0.228893593 1.66997254 0.696423888 -0.212476477 1.66990423 0.727777481 -0.226085737 1.67748058 0.719415247 -0.228220478 1.67747486 0.716124356 -0.235434756 1.67747211 0.710014105 -0.213052109 1.66996992 0.714174569 -0.224396199 1.66997194 0.696423888 -0.212476477 1.66990423 0.691888988 -0.230419412 1.67745709 0.694626987 -0.212952748 1.67746031 0.680344939 -0.220928147 1.6774509 0.694492936 -0.211944014 1.67645967 0.701542377 -0.211014286 1.67096424 0.692403018 -0.211989492 1.66991997 0.719415247 -0.228220478 1.67747486 0.716686428 -0.226261497 1.67747331 0.709301889 -0.228517249 1.6774683 0.676532209 -0.245651633 1.67737424 0.673929334 -0.242885515 1.67736721 0.672325015 -0.250043273 1.67744291 0.694492936 -0.211944014 1.67645967 0.709282815 -0.21191676 1.67647004 0.701542377 -0.211014286 1.67096424 0.687354565 -0.248432323 1.67745268 0.68702668 -0.23748067 1.67745328 0.679393351 -0.244573772 1.67738736 0.709282815 -0.21191676 1.67647004 0.707683742 -0.211579964 1.67096877 0.701542377 -0.211014286 1.67096424 0.709282815 -0.21191676 1.67647004 0.717618227 -0.215202585 1.67647517 0.707683742 -0.211579964 1.67096877 0.717618227 -0.215202585 1.67647517 0.716158509 -0.214418188 1.67097378 0.707683742 -0.211579964 1.67096877 0.717618227 -0.215202585 1.67647517 0.724692822 -0.220700219 1.67647934 0.716158509 -0.214418188 1.67097378 0.724692822 -0.220700219 1.67647934 0.723496258 -0.219520792 1.67097795 0.716158509 -0.214418188 1.67097378 0.727777481 -0.226085737 1.67748058 0.722918212 -0.2242928 1.6774776 0.719415247 -0.228220478 1.67747486 0.724692822 -0.220700219 1.67647934 0.729934931 -0.227966458 1.67648196 0.723496258 -0.219520792 1.67097795 0.729934931 -0.227966458 1.67648196 0.729106784 -0.226477474 1.67098093 0.723496258 -0.219520792 1.67097795 0.718500555 -0.221846595 1.67747486 0.714648247 -0.214720502 1.67747307 0.716686428 -0.226261497 1.67747331 0.699066639 -0.258127809 1.67745912 0.69190377 -0.254746646 1.67745495 0.687013984 -0.262268633 1.67745125 0.729934931 -0.227966458 1.67648196 0.732921004 -0.23641409 1.67648315 0.729106784 -0.226477474 1.67098093 0.732921004 -0.23641409 1.67648315 0.732539654 -0.234728977 1.6709826 0.729106784 -0.226477474 1.67098093 0.732921004 -0.23641409 1.67648315 0.733518779 -0.243612021 1.6709826 0.732539654 -0.234728977 1.6709826 0.717131674 -0.222785428 1.67347383 0.72183007 -0.222340047 1.67347693 0.718500555 -0.221846595 1.67747486 0.732921004 -0.23641409 1.67648315 0.732728064 -0.25321269 1.67648113 0.733518779 -0.243612021 1.6709826 0.722910643 -0.224294528 1.67347753 0.72145474 -0.227678806 1.67347622 0.722918212 -0.2242928 1.6774776 0.732728064 -0.25321269 1.67648113 0.732612431 -0.252205938 1.66994905 0.733518779 -0.243612021 1.6709826 0.718500555 -0.221846595 1.67747486 0.72183007 -0.222340047 1.67347693 0.722918212 -0.2242928 1.6774776 0.671962202 -0.236133114 1.66965663 0.683438659 -0.254782796 1.66994965 0.673123837 -0.25269115 1.66994309 0.72183007 -0.222340047 1.67347693 0.722910643 -0.224294528 1.67347753 0.722918212 -0.2242928 1.6774776 0.673123837 -0.25269115 1.66994309 0.683438659 -0.254782796 1.66994965 0.678990424 -0.258866757 1.66994643 0.687110722 -0.258491069 1.67345154 0.68600589 -0.263116539 1.67345059 0.687013984 -0.262268633 1.67745125 0.682328105 -0.257582605 1.67744851 0.682425499 -0.25751406 1.67344868 0.68508023 -0.257004589 1.6774503 0.682425499 -0.25751406 1.67344868 0.687110722 -0.258491069 1.67345154 0.68508023 -0.257004589 1.6774503 0.673123837 -0.25269115 1.66994309 0.678990424 -0.258866757 1.66994643 0.678898513 -0.261615604 1.66994619 0.671962202 -0.236133114 1.66965663 0.689191937 -0.257606864 1.66995299 0.683438659 -0.254782796 1.66994965 0.671962202 -0.236133114 1.66965663 0.707601964 -0.272694945 1.66990316 0.689191937 -0.257606864 1.66995299 0.689191937 -0.257606864 1.66995299 0.707601964 -0.272694945 1.66990316 0.689887404 -0.260076165 1.66995335 0.68508023 -0.257004589 1.6774503 0.687110722 -0.258491069 1.67345154 0.687013984 -0.262268633 1.67745125 0.689887404 -0.260076165 1.66995335 0.707601964 -0.272694945 1.66990316 0.694008768 -0.272127926 1.66995466 0.689887404 -0.260076165 1.66995335 0.694008768 -0.272127926 1.66995466 0.686600506 -0.265304089 1.66995072 0.733985484 -0.256648779 1.67648172 0.720780373 -0.268007249 1.67647243 0.7166062 -0.274978548 1.67646897 0.686600506 -0.265304089 1.66995072 0.694008768 -0.272127926 1.66995466 0.680748105 -0.264530152 1.66995239 </float_array>
          <technique_common>
            <accessor count="828" offset="0" source="#mesh_0-positions-array" stride="3">
              <param name="X" type="float" />
              <param name="Y" type="float" />
              <param name="Z" type="float" />
            </accessor>
          </technique_common>
        </source>
        <vertices id="mesh_0-vertices">
          <input semantic="POSITION" source="#mesh_0-positions" />
        </vertices>
        <polylist count="276" material="defaultMaterial">
          <input offset="0" semantic="VERTEX" source="#mesh_0-vertices" />
          <vcount>3 3 3 3 3 3 3 3 3 3 3 3 3 3 3 3 3 3 3 3 3 3 3 3 3 3 3 3 3 3 3 3 3 3 3 3 3 3 3 3 3 3 3 3 3 3 3 3 3 3 3 3 3 3 3 3 3 3 3 3 3 3 3 3 3 3 3 3 3 3 3 3 3 3 3 3 3 3 3 3 3 3 3 3 3 3 3 3 3 3 3 3 3 3 3 3 3 3 3 3 3 3 3 3 3 3 3 3 3 3 3 3 3 3 3 3 3 3 3 3 3 3 3 3 3 3 3 3 3 3 3 3 3 3 3 3 3 3 3 3 3 3 3 3 3 3 3 3 3 3 3 3 3 3 3 3 3 3 3 3 3 3 3 3 3 3 3 3 3 3 3 3 3 3 3 3 3 3 3 3 3 3 3 3 3 3 3 3 3 3 3 3 3 3 3 3 3 3 3 3 3 3 3 3 3 3 3 3 3 3 3 3 3 3 3 3 3 3 3 3 3 3 3 3 3 3 3 3 3 3 3 3 3 3 3 3 3 3 3 3 3 3 3 3 3 3 3 3 3 3 3 3 3 3 3 3 3 3 3 3 3 3 3 3 3 3 3 3 3 3 3 3 3 3 3 3 </vcount>
          <p>0 1 2 3 4 5 6 7 8 9 10 11 12 13 14 15 16 17 18 19 20 21 22 23 24 25 26 27 28 29 30 31 32 33 34 35 36 37 38 39 40 41 42 43 44 45 46 47 48 49 50 51 52 53 54 55 56 57 58 59 60 61 62 63 64 65 66 67 68 69 70 71 72 73 74 75 76 77 78 79 80 81 82 83 84 85 86 87 88 89 90 91 92 93 94 95 96 97 98 99 100 101 102 103 104 105 106 107 108 109 110 111 112 113 114 115 116 117 118 119 120 121 122 123 124 125 126 127 128 129 130 131 132 133 134 135 136 137 138 139 140 141 142 143 144 145 146 147 148 149 150 151 152 153 154 155 156 157 158 159 160 161 162 163 164 165 166 167 168 169 170 171 172 173 174 175 176 177 178 179 180 181 182 183 184 185 186 187 188 189 190 191 192 193 194 195 196 197 198 199 200 201 202 203 204 205 206 207 208 209 210 211 212 213 214 215 216 217 218 219 220 221 222 223 224 225 226 227 228 229 230 231 232 233 234 235 236 237 238 239 240 241 242 243 244 245 246 247 248 249 250 251 252 253 254 255 256 257 258 259 260 261 262 263 264 265 266 267 268 269 270 271 272 273 274 275 276 277 278 279 280 281 282 283 284 285 286 287 288 289 290 291 292 293 294 295 296 297 298 299 300 301 302 303 304 305 306 307 308 309 310 311 312 313 314 315 316 317 318 319 320 321 322 323 324 325 326 327 328 329 330 331 332 333 334 335 336 337 338 339 340 341 342 343 344 345 346 347 348 349 350 351 352 353 354 355 356 357 358 359 360 361 362 363 364 365 366 367 368 369 370 371 372 373 374 375 376 377 378 379 380 381 382 383 384 385 386 387 388 389 390 391 392 393 394 395 396 397 398 399 400 401 402 403 404 405 406 407 408 409 410 411 412 413 414 415 416 417 418 419 420 421 422 423 424 425 426 427 428 429 430 431 432 433 434 435 436 437 438 439 440 441 442 443 444 445 446 447 448 449 450 451 452 453 454 455 456 457 458 459 460 461 462 463 464 465 466 467 468 469 470 471 472 473 474 475 476 477 478 479 480 481 482 483 484 485 486 487 488 489 490 491 492 493 494 495 496 497 498 499 500 501 502 503 504 505 506 507 508 509 510 511 512 513 514 515 516 517 518 519 520 521 522 523 524 525 526 527 528 529 530 531 532 533 534 535 536 537 538 539 540 541 542 543 544 545 546 547 548 549 550 551 552 553 554 555 556 557 558 559 560 561 562 563 564 565 566 567 568 569 570 571 572 573 574 575 576 577 578 579 580 581 582 583 584 585 586 587 588 589 590 591 592 593 594 595 596 597 598 599 600 601 602 603 604 605 606 607 608 609 610 611 612 613 614 615 616 617 618 619 620 621 622 623 624 625 626 627 628 629 630 631 632 633 634 635 636 637 638 639 640 641 642 643 644 645 646 647 648 649 650 651 652 653 654 655 656 657 658 659 660 661 662 663 664 665 666 667 668 669 670 671 672 673 674 675 676 677 678 679 680 681 682 683 684 685 686 687 688 689 690 691 692 693 694 695 696 697 698 699 700 701 702 703 704 705 706 707 708 709 710 711 712 713 714 715 716 717 718 719 720 721 722 723 724 725 726 727 728 729 730 731 732 733 734 735 736 737 738 739 740 741 742 743 744 745 746 747 748 749 750 751 752 753 754 755 756 757 758 759 760 761 762 763 764 765 766 767 768 769 770 771 772 773 774 775 776 777 778 779 780 781 782 783 784 785 786 787 788 789 790 791 792 793 794 795 796 797 798 799 800 801 802 803 804 805 806 807 808 809 810 811 812 813 814 815 816 817 818 819 820 821 822 823 824 825 826 827 </p>
        </polylist>
      </mesh>
    </geometry>
  </library_geometries>
  <library_controllers>
  </library_controllers>
  <library_visual_scenes>
    <visual_scene id="Scene" name="Scene">
      <node id="node" name="" type="NODE">
        <matrix sid="matrix">1 0 0 0 0 1 0 0 0 0 1 0 0 0 0 1</matrix>
        <instance_geometry url="#mesh_0">
          <bind_material>
            <technique_common>
              <instance_material symbol="defaultMaterial" target="#material_0">
              </instance_material>
            </technique_common>
          </bind_material>
        </instance_geometry>
      </node>
    </visual_scene>
  </library_visual_scenes>
  <scene>
    <instance_visual_scene url="#Scene" />
  </scene>
</COLLADA>
