<?xml version="1.0" encoding="UTF-8" standalone="no" ?>
<COLLADA xmlns="http://www.collada.org/2005/11/COLLADASchema" version="1.4.1">
  <asset>
    <contributor>
      <author>Assimp</author>
      <authoring_tool>Assimp Exporter</authoring_tool>
    </contributor>
    <created>2026-04-22T16:09:43</created>
    <modified>2026-04-22T16:09:43</modified>
    <unit name="meter" meter="1" />
    <up_axis>Y_UP</up_axis>
  </asset>
  <library_images>
  </library_images>
  <library_effects>
    <effect id="material_0-fx" name="">
      <profile_COMMON>
        <technique sid="standard">
          <phong>
            <emission>
              <color sid="emission">0   0   0   -1.80123341</color>
            </emission>
            <ambient>
              <color sid="ambient">0.400000006   0.400000006   0.400000006   1.16159952</color>
            </ambient>
            <diffuse>
              <color sid="diffuse">0.400000006   0.400000006   0.400000006   1.16159952</color>
            </diffuse>
            <specular>
              <color sid="specular">0.25   0.25   0.25   -1.80123341</color>
            </specular>
          </phong>
        </technique>
      </profile_COMMON>
    </effect>
  </library_effects>
  <library_materials>
    <material id="material_0" name="">
      <instance_effect url="#material_0-fx"/>
    </material>
  </library_materials>
  <library_geometries>
    <geometry id="mesh_0" name="" >
      <mesh>
        <source id="mesh_0-positions" name="mesh_0-positions">
          <float_array id="mesh_0-positions-array" count="369"> 0.69035399 -0.244009048 1.85785651 0.691201687 -0.244846046 1.85788667 0.691053271 -0.243511453 1.85848701 0.702185869 -0.252857655 1.85945547 0.701986909 -0.255803198 1.85980046 0.702438712 -0.25316608 1.86009765 0.69035399 -0.244009048 1.85785651 0.691053271 -0.243511453 1.85848701 0.691120207 -0.242859811 1.8578881 0.703040302 -0.255735427 1.86063385 0.702438712 -0.25316608 1.86009765 0.701986909 -0.255803198 1.85980046 0.694387376 -0.243102625 1.85806036 0.691120207 -0.242859811 1.8578881 0.693883061 -0.243297204 1.85854137 0.691120207 -0.242859811 1.8578881 0.691053271 -0.243511453 1.85848701 0.693883061 -0.243297204 1.85854137 0.703123868 -0.253100902 1.8603009 0.702438712 -0.25316608 1.86009765 0.703040302 -0.255735427 1.86063385 0.693883061 -0.243297204 1.85854137 0.694173932 -0.24400042 1.85858858 0.694387376 -0.243102625 1.85806036 0.694387376 -0.243102625 1.85806036 0.694173932 -0.24400042 1.85858858 0.6941697 -0.244746611 1.85804439 0.691053271 -0.243511453 1.85848701 0.694173932 -0.24400042 1.85858858 0.693883061 -0.243297204 1.85854137 0.694173932 -0.24400042 1.85858858 0.691053271 -0.243511453 1.85848701 0.691201687 -0.244846046 1.85788667 0.703968108 -0.255824894 1.86015296 0.703467965 -0.256121278 1.86050558 0.70282203 -0.2566607 1.86006868 0.694173932 -0.24400042 1.85858858 0.691201687 -0.244846046 1.85788667 0.6941697 -0.244746611 1.85804439 0.703365266 -0.231129348 1.86014724 0.703391612 -0.231969029 1.86059213 0.703951895 -0.231822774 1.86015439 0.701997221 -0.231991574 1.85977733 0.702499211 -0.231913343 1.86049008 0.703391612 -0.231969029 1.86059213 0.703391612 -0.231969029 1.86059213 0.703365266 -0.231129348 1.86014724 0.701997221 -0.231991574 1.85977733 0.703132212 -0.234635994 1.86029971 0.702499211 -0.231913343 1.86049008 0.70206207 -0.234599859 1.8594681 0.70206207 -0.234599859 1.8594681 0.702499211 -0.231913343 1.86049008 0.701997221 -0.231991574 1.85977733 0.703391612 -0.231969029 1.86059213 0.702499211 -0.231913343 1.86049008 0.703132212 -0.234635994 1.86029971 0.70206207 -0.234599859 1.8594681 0.703816772 -0.234999463 1.85972488 0.703132212 -0.234635994 1.86029971 0.703391612 -0.231969029 1.86059213 0.703132212 -0.234635994 1.86029971 0.703816772 -0.234999463 1.85972488 0.70282203 -0.2566607 1.86006868 0.703467965 -0.256121278 1.86050558 0.701986909 -0.255803198 1.85980046 0.703391612 -0.231969029 1.86059213 0.703816772 -0.234999463 1.85972488 0.703951895 -0.231822774 1.86015439 0.701986909 -0.255803198 1.85980046 0.703467965 -0.256121278 1.86050558 0.703040302 -0.255735427 1.86063385 0.714760125 -0.244631723 1.86241877 0.714449406 -0.243319958 1.86252046 0.712071717 -0.244446203 1.86174798 0.714826703 -0.244840637 1.86207795 0.715526283 -0.243503332 1.86230969 0.714760125 -0.244631723 1.86241877 0.714760125 -0.244631723 1.86241877 0.715526283 -0.243503332 1.86230969 0.714449406 -0.243319958 1.86252046 0.703123868 -0.253100902 1.8603009 0.703467965 -0.256121278 1.86050558 0.704011798 -0.253124058 1.85981095 0.704011798 -0.253124058 1.85981095 0.703467965 -0.256121278 1.86050558 0.703968108 -0.255824894 1.86015296 0.71475327 -0.242859498 1.86205387 0.714449406 -0.243319958 1.86252046 0.715526283 -0.243503332 1.86230969 0.703123868 -0.253100902 1.8603009 0.703040302 -0.255735427 1.86063385 0.703467965 -0.256121278 1.86050558 0.712030172 -0.243074507 1.86157131 0.712071717 -0.244446203 1.86174798 0.714449406 -0.243319958 1.86252046 0.71475327 -0.242859498 1.86205387 0.712030172 -0.243074507 1.86157131 0.714449406 -0.243319958 1.86252046 0.704011798 -0.253124058 1.85981095 0.703134656 -0.252337575 1.85957325 0.703123868 -0.253100902 1.8603009 0.71204108 -0.244792044 1.86121511 0.712071717 -0.244446203 1.86174798 0.711653113 -0.243170008 1.86110997 0.711653113 -0.243170008 1.86110997 0.712071717 -0.244446203 1.86174798 0.712030172 -0.243074507 1.86157131 0.711653113 -0.243170008 1.86110997 0.712030172 -0.243074507 1.86157131 0.71475327 -0.242859498 1.86205387 0.714760125 -0.244631723 1.86241877 0.712071717 -0.244446203 1.86174798 0.714826703 -0.244840637 1.86207795 0.714826703 -0.244840637 1.86207795 0.712071717 -0.244446203 1.86174798 0.71204108 -0.244792044 1.86121511 0.702438712 -0.25316608 1.86009765 0.703123868 -0.253100902 1.8603009 0.703134656 -0.252337575 1.85957325 0.702185869 -0.252857655 1.85945547 0.702438712 -0.25316608 1.86009765 0.703134656 -0.252337575 1.85957325 </float_array>
          <technique_common>
            <accessor count="123" offset="0" source="#mesh_0-positions-array" stride="3">
              <param name="X" type="float" />
              <param name="Y" type="float" />
              <param name="Z" type="float" />
            </accessor>
          </technique_common>
        </source>
        <vertices id="mesh_0-vertices">
          <input semantic="POSITION" source="#mesh_0-positions" />
        </vertices>
        <polylist count="41" material="defaultMaterial">
          <input offset="0" semantic="VERTEX" source="#mesh_0-vertices" />
          <vcount>3 3 3 3 3 3 3 3 3 3 3 3 3 3 3 3 3 3 3 3 3 3 3 3 3 3 3 3 3 3 3 3 3 3 3 3 3 3 3 3 3 </vcount>
          <p>0 1 2 3 4 5 6 7 8 9 10 11 12 13 14 15 16 17 18 19 20 21 22 23 24 25 26 27 28 29 30 31 32 33 34 35 36 37 38 39 40 41 42 43 44 45 46 47 48 49 50 51 52 53 54 55 56 57 58 59 60 61 62 63 64 65 66 67 68 69 70 71 72 73 74 75 76 77 78 79 80 81 82 83 84 85 86 87 88 89 90 91 92 93 94 95 96 97 98 99 100 101 102 103 104 105 106 107 108 109 110 111 112 113 114 115 116 117 118 119 120 121 122 </p>
        </polylist>
      </mesh>
    </geometry>
  </library_geometries>
  <library_controllers>
  </library_controllers>
  <library_visual_scenes>
    <visual_scene id="Scene" name="Scene">
      <node id="node" name="" type="NODE">
        <matrix sid="matrix">1 0 0 0 0 1 0 0 0 0 1 0 0 0 0 1</matrix>
        <instance_geometry url="#mesh_0">
          <bind_material>
            <technique_common>
              <instance_material symbol="defaultMaterial" target="#material_0">
              </instance_material>
            </technique_common>
          </bind_material>
        </instance_geometry>
      </node>
    </visual_scene>
  </library_visual_scenes>
  <scene>
    <instance_visual_scene url="#Scene" />
  </scene>
</COLLADA>
