<?xml version="1.0" encoding="UTF-8" standalone="no" ?>
<COLLADA xmlns="http://www.collada.org/2005/11/COLLADASchema" version="1.4.1">
  <asset>
    <contributor>
      <author>Assimp</author>
      <authoring_tool>Assimp Exporter</authoring_tool>
    </contributor>
    <created>2026-04-22T16:09:43</created>
    <modified>2026-04-22T16:09:43</modified>
    <unit name="meter" meter="1" />
    <up_axis>Y_UP</up_axis>
  </asset>
  <library_images>
  </library_images>
  <library_effects>
    <effect id="material_0-fx" name="">
      <profile_COMMON>
        <technique sid="standard">
          <phong>
            <emission>
              <color sid="emission">0   0   0   -1.80123341</color>
            </emission>
            <ambient>
              <color sid="ambient">0.781865597   0.734727263   0.984154046   1.16159952</color>
            </ambient>
            <diffuse>
              <color sid="diffuse">0.781865597   0.734727263   0.984154046   1.16159952</color>
            </diffuse>
            <specular>
              <color sid="specular">0.25   0.25   0.25   -1.80123341</color>
            </specular>
          </phong>
        </technique>
      </profile_COMMON>
    </effect>
  </library_effects>
  <library_materials>
    <material id="material_0" name="">
      <instance_effect url="#material_0-fx"/>
    </material>
  </library_materials>
  <library_geometries>
    <geometry id="mesh_0" name="" >
      <mesh>
        <source id="mesh_0-positions" name="mesh_0-positions">
          <float_array id="mesh_0-positions-array" count="1800"> 0.835835278 -0.215476051 1.76605308 0.839208424 -0.258601576 1.77931428 0.83513242 -0.258598655 1.76271725 0.708784819 -0.287835002 1.73101294 0.802145541 -0.258133471 1.73535025 0.816213131 -0.25859639 1.74122345 0.837906539 -0.215851203 1.79037881 0.838128984 -0.258688927 1.79320955 0.839208424 -0.258601576 1.77931428 0.839208424 -0.258601576 1.77931428 0.708784819 -0.287835002 1.73101294 0.83513242 -0.258598655 1.76271725 0.838128984 -0.258688927 1.79320955 0.708784819 -0.287835002 1.73101294 0.839208424 -0.258601576 1.77931428 0.70785445 -0.287255555 1.80279291 0.708784819 -0.287835002 1.73101294 0.838128984 -0.258688927 1.79320955 0.805740654 -0.211899742 1.73955393 0.738404572 -0.212096512 1.73123229 0.707208037 -0.199816406 1.73118687 0.838154495 -0.2141902 1.78107083 0.839208424 -0.258601576 1.77931428 0.835835278 -0.215476051 1.76605308 0.708784819 -0.287835002 1.73101294 0.816213131 -0.25859639 1.74122345 0.826339662 -0.258665353 1.74931967 0.708784819 -0.287835002 1.73101294 0.826339662 -0.258665353 1.74931967 0.83513242 -0.258598655 1.76271725 0.750745952 -0.188324347 1.80126178 0.69157654 -0.204560369 1.83098352 0.701077402 -0.207719594 1.85392189 0.69502306 -0.200534493 1.73117363 0.747767448 -0.188732401 1.7646085 0.775654495 -0.187543601 1.7584101 0.677269876 -0.208469525 1.80175281 0.687317967 -0.202806145 1.79505098 0.679039776 -0.206657052 1.73118794 0.802145541 -0.258133471 1.73535025 0.811352551 -0.222641513 1.73935533 0.816213131 -0.25859639 1.74122345 0.826339662 -0.258665353 1.74931967 0.816213131 -0.25859639 1.74122345 0.821216643 -0.214804724 1.74651098 0.838128984 -0.258688927 1.79320955 0.834201455 -0.215999424 1.80267191 0.831553042 -0.258607447 1.80880463 0.837906539 -0.215851203 1.79037881 0.839208424 -0.258601576 1.77931428 0.838154495 -0.2141902 1.78107083 0.708784819 -0.287835002 1.73101294 0.694514811 -0.287095249 1.79668689 0.694100976 -0.286993027 1.73119283 0.800397456 -0.222175375 1.73587024 0.802145541 -0.258133471 1.73535025 0.738404572 -0.212096512 1.73123229 0.826339662 -0.258665353 1.74931967 0.828837395 -0.215369254 1.75415087 0.83513242 -0.258598655 1.76271725 0.667237759 -0.218391076 1.73118198 0.669738531 -0.215189427 1.8008287 0.679039776 -0.206657052 1.73118794 0.682474017 -0.255265862 1.85647142 0.712905169 -0.219567046 1.86191499 0.69114548 -0.219730154 1.85764432 0.673138738 -0.235007212 1.85078728 0.664902329 -0.244097233 1.84079647 0.670918405 -0.250731707 1.84867764 0.731270075 -0.259398103 1.86262989 0.733394861 -0.243500561 1.8636955 0.723995686 -0.251295269 1.86409235 0.682474017 -0.255265862 1.85647142 0.71384114 -0.267362952 1.86201334 0.712905169 -0.219567046 1.86191499 0.707208037 -0.199816406 1.73118687 0.69502306 -0.200534493 1.73117363 0.775654495 -0.187543601 1.7584101 0.69502306 -0.200534493 1.73117363 0.707208037 -0.199816406 1.73118687 0.679039776 -0.206657052 1.73118794 0.667237759 -0.218391076 1.73118198 0.679039776 -0.206657052 1.73118794 0.707208037 -0.199816406 1.73118687 0.667237759 -0.218391076 1.73118198 0.707208037 -0.199816406 1.73118687 0.661895692 -0.228218719 1.73117948 0.822640419 -0.208062008 1.81150472 0.806317329 -0.191200957 1.80254352 0.809252739 -0.203305677 1.81717336 0.805740654 -0.211899742 1.73955393 0.800397456 -0.222175375 1.73587024 0.738404572 -0.212096512 1.73123229 0.69502306 -0.200534493 1.73117363 0.679039776 -0.206657052 1.73118794 0.687317967 -0.202806145 1.79505098 0.663862348 -0.224540129 1.80034196 0.667237759 -0.218391076 1.73118198 0.661895692 -0.228218719 1.73117948 0.796316564 -0.189436078 1.80651855 0.798616529 -0.189704925 1.75873244 0.775654495 -0.187543601 1.7584101 0.800397456 -0.222175375 1.73587024 0.811352551 -0.222641513 1.73935533 0.802145541 -0.258133471 1.73535025 0.811352551 -0.222641513 1.73935533 0.800397456 -0.222175375 1.73587024 0.805740654 -0.211899742 1.73955393 0.737633586 -0.274909258 1.73123181 0.738404572 -0.212096512 1.73123229 0.802145541 -0.258133471 1.73535025 0.737633586 -0.274909258 1.73123181 0.802145541 -0.258133471 1.73535025 0.708784819 -0.287835002 1.73101294 0.705110073 -0.284760475 1.83189654 0.70785445 -0.287255555 1.80279291 0.831553042 -0.258607447 1.80880463 0.838128984 -0.258688927 1.79320955 0.831553042 -0.258607447 1.80880463 0.70785445 -0.287255555 1.80279291 0.708787382 -0.280062675 1.85507345 0.831553042 -0.258607447 1.80880463 0.820105135 -0.258516163 1.82141185 0.68207258 -0.282696486 1.73118746 0.674078047 -0.276741534 1.80302644 0.668884099 -0.271715254 1.73117888 0.708784819 -0.287835002 1.73101294 0.70785445 -0.287255555 1.80279291 0.694514811 -0.287095249 1.79668689 0.69114548 -0.219730154 1.85764432 0.679762423 -0.228247762 1.85468304 0.682474017 -0.255265862 1.85647142 0.733394861 -0.243500561 1.8636955 0.725500047 -0.230519772 1.86374664 0.723995686 -0.251295269 1.86409235 0.677304149 -0.259873986 1.85281777 0.681182027 -0.271057278 1.85047841 0.691057742 -0.267755091 1.85761976 0.705110073 -0.284760475 1.83189654 0.708787382 -0.280062675 1.85507345 0.695776522 -0.279525608 1.85273135 0.71384114 -0.267362952 1.86201334 0.723995686 -0.251295269 1.86409235 0.712905169 -0.219567046 1.86191499 0.712905169 -0.219567046 1.86191499 0.723995686 -0.251295269 1.86409235 0.725500047 -0.230519772 1.86374664 0.775654495 -0.187543601 1.7584101 0.750745952 -0.188324347 1.80126178 0.776137829 -0.18764779 1.80652905 0.747767448 -0.188732401 1.7646085 0.750745952 -0.188324347 1.80126178 0.775654495 -0.187543601 1.7584101 0.69157654 -0.204560369 1.83098352 0.688725531 -0.210055694 1.85048068 0.701077402 -0.207719594 1.85392189 0.716841042 -0.209935531 1.85717642 0.776137829 -0.18764779 1.80652905 0.701077402 -0.207719594 1.85392189 0.68207258 -0.282696486 1.73118746 0.66135776 -0.258170843 1.7311753 0.694100976 -0.286993027 1.73119283 0.661895692 -0.228218719 1.73117948 0.66135776 -0.258170843 1.7311753 0.659023881 -0.242498845 1.73117447 0.707208037 -0.199816406 1.73118687 0.66135776 -0.258170843 1.7311753 0.661895692 -0.228218719 1.73117948 0.66135776 -0.258170843 1.7311753 0.708784819 -0.287835002 1.73101294 0.694100976 -0.286993027 1.73119283 0.728818357 -0.219776675 1.86022973 0.712905169 -0.219567046 1.86191499 0.725500047 -0.230519772 1.86374664 0.830942154 -0.206447646 1.77178931 0.827067912 -0.201737374 1.78814185 0.838154495 -0.2141902 1.78107083 0.831561387 -0.208397925 1.79740584 0.827067912 -0.201737374 1.78814185 0.818806112 -0.200019985 1.8038795 0.687317967 -0.202806145 1.79505098 0.747767448 -0.188732401 1.7646085 0.69502306 -0.200534493 1.73117363 0.669738531 -0.215189427 1.8008287 0.677269876 -0.208469525 1.80175281 0.679039776 -0.206657052 1.73118794 0.798616529 -0.189704925 1.75873244 0.806317329 -0.191200957 1.80254352 0.813606739 -0.192794189 1.77058172 0.796316564 -0.189436078 1.80651855 0.775654495 -0.187543601 1.7584101 0.776137829 -0.18764779 1.80652905 0.716841042 -0.209935531 1.85717642 0.796316564 -0.189436078 1.80651855 0.776137829 -0.18764779 1.80652905 0.707208037 -0.199816406 1.73118687 0.775654495 -0.187543601 1.7584101 0.798616529 -0.189704925 1.75873244 0.822999954 -0.205103204 1.75709701 0.828837395 -0.215369254 1.75415087 0.821216643 -0.214804724 1.74651098 0.811352551 -0.222641513 1.73935533 0.821216643 -0.214804724 1.74651098 0.816213131 -0.25859639 1.74122345 0.705110073 -0.284760475 1.83189654 0.831553042 -0.258607447 1.80880463 0.708787382 -0.280062675 1.85507345 0.822640419 -0.208062008 1.81150472 0.831561387 -0.208397925 1.79740584 0.818806112 -0.200019985 1.8038795 0.816351533 -0.221809328 1.82274294 0.733394861 -0.243500561 1.8636955 0.820105135 -0.258516163 1.82141185 0.668884099 -0.271715254 1.73117888 0.66135776 -0.258170843 1.7311753 0.68207258 -0.282696486 1.73118746 0.674078047 -0.276741534 1.80302644 0.66532886 -0.266086847 1.8025521 0.668884099 -0.271715254 1.73117888 0.694514811 -0.287095249 1.79668689 0.68207258 -0.282696486 1.73118746 0.694100976 -0.286993027 1.73119283 0.694514811 -0.287095249 1.79668689 0.705110073 -0.284760475 1.83189654 0.687754571 -0.282761306 1.82449913 0.828837395 -0.215369254 1.75415087 0.835835278 -0.215476051 1.76605308 0.83513242 -0.258598655 1.76271725 0.830942154 -0.206447646 1.77178931 0.835835278 -0.215476051 1.76605308 0.822999954 -0.205103204 1.75709701 0.667237759 -0.218391076 1.73118198 0.663862348 -0.224540129 1.80034196 0.669738531 -0.215189427 1.8008287 0.666413367 -0.224333361 1.82578146 0.669785082 -0.228647351 1.84547937 0.672314703 -0.217274591 1.83474803 0.677304149 -0.259873986 1.85281777 0.682474017 -0.255265862 1.85647142 0.670918405 -0.250731707 1.84867764 0.682474017 -0.255265862 1.85647142 0.673138738 -0.235007212 1.85078728 0.670918405 -0.250731707 1.84867764 0.679762423 -0.228247762 1.85468304 0.673138738 -0.235007212 1.85078728 0.682474017 -0.255265862 1.85647142 0.682474017 -0.255265862 1.85647142 0.691057742 -0.267755091 1.85761976 0.71384114 -0.267362952 1.86201334 0.704325855 -0.272904754 1.85915303 0.71384114 -0.267362952 1.86201334 0.691057742 -0.267755091 1.85761976 0.750745952 -0.188324347 1.80126178 0.701077402 -0.207719594 1.85392189 0.776137829 -0.18764779 1.80652905 0.66135776 -0.258170843 1.7311753 0.737633586 -0.274909258 1.73123181 0.708784819 -0.287835002 1.73101294 0.728818357 -0.219776675 1.86022973 0.735514045 -0.231619596 1.86187184 0.814404726 -0.212590978 1.82189214 0.806317329 -0.191200957 1.80254352 0.822640419 -0.208062008 1.81150472 0.818806112 -0.200019985 1.8038795 0.712905169 -0.219567046 1.86191499 0.702632368 -0.215873063 1.85915852 0.69114548 -0.219730154 1.85764432 0.747767448 -0.188732401 1.7646085 0.687317967 -0.202806145 1.79505098 0.750745952 -0.188324347 1.80126178 0.687317967 -0.202806145 1.79505098 0.69157654 -0.204560369 1.83098352 0.750745952 -0.188324347 1.80126178 0.659023881 -0.242498845 1.73117447 0.659767985 -0.237602144 1.80422735 0.661895692 -0.228218719 1.73117948 0.798616529 -0.189704925 1.75873244 0.813606739 -0.192794189 1.77058172 0.822999954 -0.205103204 1.75709701 0.806317329 -0.191200957 1.80254352 0.798616529 -0.189704925 1.75873244 0.796316564 -0.189436078 1.80651855 0.707208037 -0.199816406 1.73118687 0.798616529 -0.189704925 1.75873244 0.808354795 -0.203169435 1.74700546 0.828837395 -0.215369254 1.75415087 0.826339662 -0.258665353 1.74931967 0.821216643 -0.214804724 1.74651098 0.838128984 -0.258688927 1.79320955 0.837906539 -0.215851203 1.79037881 0.834201455 -0.215999424 1.80267191 0.831553042 -0.258607447 1.80880463 0.82616353 -0.215345353 1.81389678 0.820105135 -0.258516163 1.82141185 0.671066642 -0.271206856 1.8250047 0.66532886 -0.266086847 1.8025521 0.674078047 -0.276741534 1.80302644 0.681182027 -0.271057278 1.85047841 0.687578142 -0.277730972 1.84794939 0.695776522 -0.279525608 1.85273135 0.705110073 -0.284760475 1.83189654 0.694514811 -0.287095249 1.79668689 0.70785445 -0.287255555 1.80279291 0.827067912 -0.201737374 1.78814185 0.831561387 -0.208397925 1.79740584 0.838154495 -0.2141902 1.78107083 0.814897597 -0.19320333 1.79004025 0.827067912 -0.201737374 1.78814185 0.813606739 -0.192794189 1.77058172 0.835835278 -0.215476051 1.76605308 0.828837395 -0.215369254 1.75415087 0.822999954 -0.205103204 1.75709701 0.659848154 -0.2518484 1.79177058 0.659023881 -0.242498845 1.73117447 0.66135776 -0.258170843 1.7311753 0.659767985 -0.237602144 1.80422735 0.659848154 -0.2518484 1.79177058 0.662095904 -0.250483692 1.82767105 0.66680491 -0.262047142 1.83110464 0.662095904 -0.250483692 1.82767105 0.66532886 -0.266086847 1.8025521 0.688725531 -0.210055694 1.85048068 0.680596352 -0.216902614 1.85014617 0.69114548 -0.219730154 1.85764432 0.669785082 -0.228647351 1.84547937 0.666413367 -0.224333361 1.82578146 0.662957788 -0.238146156 1.83234704 0.669785082 -0.228647351 1.84547937 0.680596352 -0.216902614 1.85014617 0.672314703 -0.217274591 1.83474803 0.670918405 -0.250731707 1.84867764 0.66988796 -0.258985102 1.84565628 0.677304149 -0.259873986 1.85281777 0.66988796 -0.258985102 1.84565628 0.681182027 -0.271057278 1.85047841 0.677304149 -0.259873986 1.85281777 0.691057742 -0.267755091 1.85761976 0.695776522 -0.279525608 1.85273135 0.704325855 -0.272904754 1.85915303 0.71384114 -0.267362952 1.86201334 0.704325855 -0.272904754 1.85915303 0.721080005 -0.27480197 1.8585546 0.708787382 -0.280062675 1.85507345 0.721080005 -0.27480197 1.8585546 0.704325855 -0.272904754 1.85915303 0.820105135 -0.258516163 1.82141185 0.731270075 -0.259398103 1.86262989 0.721080005 -0.27480197 1.8585546 0.725500047 -0.230519772 1.86374664 0.733394861 -0.243500561 1.8636955 0.735514045 -0.231619596 1.86187184 0.814404726 -0.212590978 1.82189214 0.809252739 -0.203305677 1.81717336 0.716841042 -0.209935531 1.85717642 0.813606739 -0.192794189 1.77058172 0.827067912 -0.201737374 1.78814185 0.830942154 -0.206447646 1.77178931 0.712905169 -0.219567046 1.86191499 0.716841042 -0.209935531 1.85717642 0.702632368 -0.215873063 1.85915852 0.702632368 -0.215873063 1.85915852 0.716841042 -0.209935531 1.85717642 0.701077402 -0.207719594 1.85392189 0.661895692 -0.228218719 1.73117948 0.659767985 -0.237602144 1.80422735 0.663862348 -0.224540129 1.80034196 0.666413367 -0.224333361 1.82578146 0.659767985 -0.237602144 1.80422735 0.662957788 -0.238146156 1.83234704 0.659767985 -0.237602144 1.80422735 0.666413367 -0.224333361 1.82578146 0.663862348 -0.224540129 1.80034196 0.830942154 -0.206447646 1.77178931 0.822999954 -0.205103204 1.75709701 0.813606739 -0.192794189 1.77058172 0.808354795 -0.203169435 1.74700546 0.805740654 -0.211899742 1.73955393 0.707208037 -0.199816406 1.73118687 0.806317329 -0.191200957 1.80254352 0.796316564 -0.189436078 1.80651855 0.809252739 -0.203305677 1.81717336 0.708787382 -0.280062675 1.85507345 0.820105135 -0.258516163 1.82141185 0.721080005 -0.27480197 1.8585546 0.820105135 -0.258516163 1.82141185 0.82616353 -0.215345353 1.81389678 0.816351533 -0.221809328 1.82274294 0.816351533 -0.221809328 1.82274294 0.735514045 -0.231619596 1.86187184 0.733394861 -0.243500561 1.8636955 0.66532886 -0.266086847 1.8025521 0.66135776 -0.258170843 1.7311753 0.668884099 -0.271715254 1.73117888 0.687754571 -0.282761306 1.82449913 0.681704044 -0.282273024 1.79306304 0.694514811 -0.287095249 1.79668689 0.68207258 -0.282696486 1.73118746 0.681704044 -0.282273024 1.79306304 0.674078047 -0.276741534 1.80302644 0.831561387 -0.208397925 1.79740584 0.837906539 -0.215851203 1.79037881 0.838154495 -0.2141902 1.78107083 0.838154495 -0.2141902 1.78107083 0.835835278 -0.215476051 1.76605308 0.830942154 -0.206447646 1.77178931 0.811352551 -0.222641513 1.73935533 0.805740654 -0.211899742 1.73955393 0.821216643 -0.214804724 1.74651098 0.808354795 -0.203169435 1.74700546 0.821216643 -0.214804724 1.74651098 0.805740654 -0.211899742 1.73955393 0.822999954 -0.205103204 1.75709701 0.821216643 -0.214804724 1.74651098 0.808354795 -0.203169435 1.74700546 0.659848154 -0.2518484 1.79177058 0.659767985 -0.237602144 1.80422735 0.659023881 -0.242498845 1.73117447 0.672314703 -0.217274591 1.83474803 0.677269876 -0.208469525 1.80175281 0.669738531 -0.215189427 1.8008287 0.66532886 -0.266086847 1.8025521 0.659848154 -0.2518484 1.79177058 0.66135776 -0.258170843 1.7311753 0.66680491 -0.262047142 1.83110464 0.66988796 -0.258985102 1.84565628 0.662095904 -0.250483692 1.82767105 0.664902329 -0.244097233 1.84079647 0.662957788 -0.238146156 1.83234704 0.662095904 -0.250483692 1.82767105 0.669785082 -0.228647351 1.84547937 0.679762423 -0.228247762 1.85468304 0.680596352 -0.216902614 1.85014617 0.688725531 -0.210055694 1.85048068 0.672314703 -0.217274591 1.83474803 0.680596352 -0.216902614 1.85014617 0.681367874 -0.208775386 1.82843196 0.688725531 -0.210055694 1.85048068 0.69157654 -0.204560369 1.83098352 0.670918405 -0.250731707 1.84867764 0.664902329 -0.244097233 1.84079647 0.66988796 -0.258985102 1.84565628 0.664902329 -0.244097233 1.84079647 0.669785082 -0.228647351 1.84547937 0.662957788 -0.238146156 1.83234704 0.673138738 -0.235007212 1.85078728 0.679762423 -0.228247762 1.85468304 0.669785082 -0.228647351 1.84547937 0.687578142 -0.277730972 1.84794939 0.687754571 -0.282761306 1.82449913 0.695776522 -0.279525608 1.85273135 0.820105135 -0.258516163 1.82141185 0.733394861 -0.243500561 1.8636955 0.731270075 -0.259398103 1.86262989 0.712905169 -0.219567046 1.86191499 0.728818357 -0.219776675 1.86022973 0.716841042 -0.209935531 1.85717642 0.704325855 -0.272904754 1.85915303 0.695776522 -0.279525608 1.85273135 0.708787382 -0.280062675 1.85507345 0.71384114 -0.267362952 1.86201334 0.721080005 -0.27480197 1.8585546 0.731270075 -0.259398103 1.86262989 0.731270075 -0.259398103 1.86262989 0.723995686 -0.251295269 1.86409235 0.71384114 -0.267362952 1.86201334 0.796316564 -0.189436078 1.80651855 0.716841042 -0.209935531 1.85717642 0.809252739 -0.203305677 1.81717336 0.808354795 -0.203169435 1.74700546 0.798616529 -0.189704925 1.75873244 0.822999954 -0.205103204 1.75709701 0.806317329 -0.191200957 1.80254352 0.814897597 -0.19320333 1.79004025 0.813606739 -0.192794189 1.77058172 0.834201455 -0.215999424 1.80267191 0.82616353 -0.215345353 1.81389678 0.831553042 -0.258607447 1.80880463 0.834201455 -0.215999424 1.80267191 0.837906539 -0.215851203 1.79037881 0.831561387 -0.208397925 1.79740584 0.822640419 -0.208062008 1.81150472 0.82616353 -0.215345353 1.81389678 0.834201455 -0.215999424 1.80267191 0.814404726 -0.212590978 1.82189214 0.822640419 -0.208062008 1.81150472 0.809252739 -0.203305677 1.81717336 0.822640419 -0.208062008 1.81150472 0.834201455 -0.215999424 1.80267191 0.831561387 -0.208397925 1.79740584 0.694514811 -0.287095249 1.79668689 0.681704044 -0.282273024 1.79306304 0.68207258 -0.282696486 1.73118746 0.687754571 -0.282761306 1.82449913 0.678235054 -0.277027845 1.82793391 0.674078047 -0.276741534 1.80302644 0.673541367 -0.268750459 1.84144688 0.687578142 -0.277730972 1.84794939 0.681182027 -0.271057278 1.85047841 0.687754571 -0.282761306 1.82449913 0.674078047 -0.276741534 1.80302644 0.681704044 -0.282273024 1.79306304 0.669738531 -0.215189427 1.8008287 0.666413367 -0.224333361 1.82578146 0.672314703 -0.217274591 1.83474803 0.666413367 -0.224333361 1.82578146 0.669738531 -0.215189427 1.8008287 0.663862348 -0.224540129 1.80034196 0.673541367 -0.268750459 1.84144688 0.66988796 -0.258985102 1.84565628 0.66680491 -0.262047142 1.83110464 0.662095904 -0.250483692 1.82767105 0.659848154 -0.2518484 1.79177058 0.66532886 -0.266086847 1.8025521 0.679762423 -0.228247762 1.85468304 0.69114548 -0.219730154 1.85764432 0.680596352 -0.216902614 1.85014617 0.662095904 -0.250483692 1.82767105 0.66988796 -0.258985102 1.84565628 0.664902329 -0.244097233 1.84079647 0.673138738 -0.235007212 1.85078728 0.669785082 -0.228647351 1.84547937 0.664902329 -0.244097233 1.84079647 0.682474017 -0.255265862 1.85647142 0.677304149 -0.259873986 1.85281777 0.691057742 -0.267755091 1.85761976 0.681182027 -0.271057278 1.85047841 0.695776522 -0.279525608 1.85273135 0.691057742 -0.267755091 1.85761976 0.66988796 -0.258985102 1.84565628 0.673541367 -0.268750459 1.84144688 0.681182027 -0.271057278 1.85047841 0.695776522 -0.279525608 1.85273135 0.687754571 -0.282761306 1.82449913 0.705110073 -0.284760475 1.83189654 0.687578142 -0.277730972 1.84794939 0.678235054 -0.277027845 1.82793391 0.687754571 -0.282761306 1.82449913 0.716841042 -0.209935531 1.85717642 0.728818357 -0.219776675 1.86022973 0.814404726 -0.212590978 1.82189214 0.735514045 -0.231619596 1.86187184 0.728818357 -0.219776675 1.86022973 0.725500047 -0.230519772 1.86374664 0.701077402 -0.207719594 1.85392189 0.688725531 -0.210055694 1.85048068 0.69114548 -0.219730154 1.85764432 0.69157654 -0.204560369 1.83098352 0.687317967 -0.202806145 1.79505098 0.681367874 -0.208775386 1.82843196 0.681367874 -0.208775386 1.82843196 0.687317967 -0.202806145 1.79505098 0.677269876 -0.208469525 1.80175281 0.672314703 -0.217274591 1.83474803 0.681367874 -0.208775386 1.82843196 0.677269876 -0.208469525 1.80175281 0.827067912 -0.201737374 1.78814185 0.814897597 -0.19320333 1.79004025 0.818806112 -0.200019985 1.8038795 0.735514045 -0.231619596 1.86187184 0.816351533 -0.221809328 1.82274294 0.814404726 -0.212590978 1.82189214 0.814404726 -0.212590978 1.82189214 0.82616353 -0.215345353 1.81389678 0.822640419 -0.208062008 1.81150472 0.816351533 -0.221809328 1.82274294 0.82616353 -0.215345353 1.81389678 0.814404726 -0.212590978 1.82189214 0.674078047 -0.276741534 1.80302644 0.678235054 -0.277027845 1.82793391 0.671066642 -0.271206856 1.8250047 0.66532886 -0.266086847 1.8025521 0.671066642 -0.271206856 1.8250047 0.66680491 -0.262047142 1.83110464 0.673541367 -0.268750459 1.84144688 0.66680491 -0.262047142 1.83110464 0.671066642 -0.271206856 1.8250047 0.662957788 -0.238146156 1.83234704 0.659767985 -0.237602144 1.80422735 0.662095904 -0.250483692 1.82767105 0.672314703 -0.217274591 1.83474803 0.688725531 -0.210055694 1.85048068 0.681367874 -0.208775386 1.82843196 0.702632368 -0.215873063 1.85915852 0.701077402 -0.207719594 1.85392189 0.69114548 -0.219730154 1.85764432 0.814897597 -0.19320333 1.79004025 0.806317329 -0.191200957 1.80254352 0.818806112 -0.200019985 1.8038795 0.687578142 -0.277730972 1.84794939 0.673541367 -0.268750459 1.84144688 0.678235054 -0.277027845 1.82793391 0.678235054 -0.277027845 1.82793391 0.673541367 -0.268750459 1.84144688 0.671066642 -0.271206856 1.8250047 0.66135776 -0.258170843 1.7311753 0.707208037 -0.199816406 1.73118687 0.737633586 -0.274909258 1.73123181 0.707208037 -0.199816406 1.73118687 0.738404572 -0.212096512 1.73123229 0.737633586 -0.274909258 1.73123181 </float_array>
          <technique_common>
            <accessor count="600" offset="0" source="#mesh_0-positions-array" stride="3">
              <param name="X" type="float" />
              <param name="Y" type="float" />
              <param name="Z" type="float" />
            </accessor>
          </technique_common>
        </source>
        <vertices id="mesh_0-vertices">
          <input semantic="POSITION" source="#mesh_0-positions" />
        </vertices>
        <polylist count="200" material="defaultMaterial">
          <input offset="0" semantic="VERTEX" source="#mesh_0-vertices" />
          <vcount>3 3 3 3 3 3 3 3 3 3 3 3 3 3 3 3 3 3 3 3 3 3 3 3 3 3 3 3 3 3 3 3 3 3 3 3 3 3 3 3 3 3 3 3 3 3 3 3 3 3 3 3 3 3 3 3 3 3 3 3 3 3 3 3 3 3 3 3 3 3 3 3 3 3 3 3 3 3 3 3 3 3 3 3 3 3 3 3 3 3 3 3 3 3 3 3 3 3 3 3 3 3 3 3 3 3 3 3 3 3 3 3 3 3 3 3 3 3 3 3 3 3 3 3 3 3 3 3 3 3 3 3 3 3 3 3 3 3 3 3 3 3 3 3 3 3 3 3 3 3 3 3 3 3 3 3 3 3 3 3 3 3 3 3 3 3 3 3 3 3 3 3 3 3 3 3 3 3 3 3 3 3 3 3 3 3 3 3 3 3 3 3 3 3 3 3 3 3 3 3 </vcount>
          <p>0 1 2 3 4 5 6 7 8 9 10 11 12 13 14 15 16 17 18 19 20 21 22 23 24 25 26 27 28 29 30 31 32 33 34 35 36 37 38 39 40 41 42 43 44 45 46 47 48 49 50 51 52 53 54 55 56 57 58 59 60 61 62 63 64 65 66 67 68 69 70 71 72 73 74 75 76 77 78 79 80 81 82 83 84 85 86 87 88 89 90 91 92 93 94 95 96 97 98 99 100 101 102 103 104 105 106 107 108 109 110 111 112 113 114 115 116 117 118 119 120 121 122 123 124 125 126 127 128 129 130 131 132 133 134 135 136 137 138 139 140 141 142 143 144 145 146 147 148 149 150 151 152 153 154 155 156 157 158 159 160 161 162 163 164 165 166 167 168 169 170 171 172 173 174 175 176 177 178 179 180 181 182 183 184 185 186 187 188 189 190 191 192 193 194 195 196 197 198 199 200 201 202 203 204 205 206 207 208 209 210 211 212 213 214 215 216 217 218 219 220 221 222 223 224 225 226 227 228 229 230 231 232 233 234 235 236 237 238 239 240 241 242 243 244 245 246 247 248 249 250 251 252 253 254 255 256 257 258 259 260 261 262 263 264 265 266 267 268 269 270 271 272 273 274 275 276 277 278 279 280 281 282 283 284 285 286 287 288 289 290 291 292 293 294 295 296 297 298 299 300 301 302 303 304 305 306 307 308 309 310 311 312 313 314 315 316 317 318 319 320 321 322 323 324 325 326 327 328 329 330 331 332 333 334 335 336 337 338 339 340 341 342 343 344 345 346 347 348 349 350 351 352 353 354 355 356 357 358 359 360 361 362 363 364 365 366 367 368 369 370 371 372 373 374 375 376 377 378 379 380 381 382 383 384 385 386 387 388 389 390 391 392 393 394 395 396 397 398 399 400 401 402 403 404 405 406 407 408 409 410 411 412 413 414 415 416 417 418 419 420 421 422 423 424 425 426 427 428 429 430 431 432 433 434 435 436 437 438 439 440 441 442 443 444 445 446 447 448 449 450 451 452 453 454 455 456 457 458 459 460 461 462 463 464 465 466 467 468 469 470 471 472 473 474 475 476 477 478 479 480 481 482 483 484 485 486 487 488 489 490 491 492 493 494 495 496 497 498 499 500 501 502 503 504 505 506 507 508 509 510 511 512 513 514 515 516 517 518 519 520 521 522 523 524 525 526 527 528 529 530 531 532 533 534 535 536 537 538 539 540 541 542 543 544 545 546 547 548 549 550 551 552 553 554 555 556 557 558 559 560 561 562 563 564 565 566 567 568 569 570 571 572 573 574 575 576 577 578 579 580 581 582 583 584 585 586 587 588 589 590 591 592 593 594 595 596 597 598 599 </p>
        </polylist>
      </mesh>
    </geometry>
  </library_geometries>
  <library_controllers>
  </library_controllers>
  <library_visual_scenes>
    <visual_scene id="Scene" name="Scene">
      <node id="node" name="" type="NODE">
        <matrix sid="matrix">1 0 0 0 0 1 0 0 0 0 1 0 0 0 0 1</matrix>
        <instance_geometry url="#mesh_0">
          <bind_material>
            <technique_common>
              <instance_material symbol="defaultMaterial" target="#material_0">
              </instance_material>
            </technique_common>
          </bind_material>
        </instance_geometry>
      </node>
    </visual_scene>
  </library_visual_scenes>
  <scene>
    <instance_visual_scene url="#Scene" />
  </scene>
</COLLADA>
