<?xml version="1.0" encoding="UTF-8" standalone="no" ?>
<COLLADA xmlns="http://www.collada.org/2005/11/COLLADASchema" version="1.4.1">
  <asset>
    <contributor>
      <author>Assimp</author>
      <authoring_tool>Assimp Exporter</authoring_tool>
    </contributor>
    <created>2026-04-22T16:09:44</created>
    <modified>2026-04-22T16:09:44</modified>
    <unit name="meter" meter="1" />
    <up_axis>Y_UP</up_axis>
  </asset>
  <library_images>
  </library_images>
  <library_effects>
    <effect id="material_0-fx" name="">
      <profile_COMMON>
        <technique sid="standard">
          <phong>
            <emission>
              <color sid="emission">0   0   0   1.29948342</color>
            </emission>
            <ambient>
              <color sid="ambient">0.699999988   0.699999988   0.699999988   -1.2913686</color>
            </ambient>
            <diffuse>
              <color sid="diffuse">0.699999988   0.699999988   0.699999988   -1.2913686</color>
            </diffuse>
            <specular>
              <color sid="specular">0.300000012   0.300000012   0.300000012   -0.421389788</color>
            </specular>
          </phong>
        </technique>
      </profile_COMMON>
    </effect>
  </library_effects>
  <library_materials>
    <material id="material_0" name="">
      <instance_effect url="#material_0-fx"/>
    </material>
  </library_materials>
  <library_geometries>
    <geometry id="mesh_0" name="" >
      <mesh>
        <source id="mesh_0-positions" name="mesh_0-positions">
          <float_array id="mesh_0-positions-array" count="3258"> -0.143899068 0.0247679073 1.57107866 -0.142816812 0.0207877457 1.5736202 -0.14324528 0.0255445279 1.57281709 -0.144634396 0.0238897987 1.57041109 -0.142816812 0.0207877457 1.5736202 -0.143899068 0.0247679073 1.57107866 -0.144634396 0.0238897987 1.57041109 -0.145989463 0.0222725905 1.57025087 -0.142816812 0.0207877457 1.5736202 -0.145989463 0.0222725905 1.57025087 -0.147067636 0.0210005082 1.57132435 -0.142816812 0.0207877457 1.5736202 -0.147629529 0.0203098971 1.57316589 -0.142816812 0.0207877457 1.5736202 -0.147067636 0.0210005082 1.57132435 -0.145169735 0.00924154185 1.61465645 -0.130872369 0.0242771283 1.61459625 -0.144097641 0.00847061351 1.61461926 -0.145169735 0.00924154185 1.61465645 -0.131929621 0.0252932552 1.61459982 -0.130872369 0.0242771283 1.61459625 -0.14587152 0.00992748514 1.61230981 -0.132646859 0.025638476 1.61348855 -0.145914465 0.00986921508 1.6138519 -0.14587152 0.00992748514 1.61230981 -0.132588148 0.0257589687 1.61224985 -0.132646859 0.025638476 1.61348855 -0.157252893 0.0194562208 1.61683488 -0.153106481 0.0158274174 1.61688876 -0.15729101 0.0194689203 1.61850154 -0.153061584 0.0159514826 1.61479139 -0.151142135 0.0141325817 1.61481917 -0.153106481 0.0158274174 1.61688876 -0.149459973 0.0128539465 1.59977353 -0.146285981 0.0100333365 1.60090756 -0.15038681 0.0136385821 1.60085392 -0.15038681 0.0136385821 1.60085392 -0.146285981 0.0100333365 1.60090756 -0.150487632 0.0137053542 1.61382794 -0.150487632 0.0137053542 1.61382794 -0.146285981 0.0100333365 1.60090756 -0.145914465 0.00986921508 1.6138519 -0.149459973 0.0128539465 1.59977353 -0.14680858 0.0106891552 1.59979498 -0.146285981 0.0100333365 1.60090756 -0.145914465 0.00986921508 1.6138519 -0.145169735 0.00924154185 1.61465645 -0.151142135 0.0141325817 1.61481917 -0.150487632 0.0137053542 1.61382794 -0.145914465 0.00986921508 1.6138519 -0.151142135 0.0141325817 1.61481917 -0.151142135 0.0141325817 1.61481917 -0.143391192 0.00767548615 1.61687732 -0.153106481 0.0158274174 1.61688876 -0.145169735 0.00924154185 1.61465645 -0.143391192 0.00767548615 1.61687732 -0.151142135 0.0141325817 1.61481917 -0.145169735 0.00924154185 1.61465645 -0.143227234 0.00780635606 1.61469793 -0.143391192 0.00767548615 1.61687732 -0.143391192 0.00767548615 1.61687732 -0.139090106 0.00416515628 1.61844969 -0.153106481 0.0158274174 1.61688876 -0.153106481 0.0158274174 1.61688876 -0.139090106 0.00416515628 1.61844969 -0.15729101 0.0194689203 1.61850154 -0.143391192 0.00767548615 1.61687732 -0.139097497 0.0042223502 1.61681342 -0.139090106 0.00416515628 1.61844969 -0.138126493 0.0302461889 1.61458731 -0.142177299 0.0291695632 1.61468875 -0.139770955 0.0317909978 1.61476827 -0.138126493 0.0302461889 1.61458731 -0.151271716 0.0146165928 1.61461258 -0.142177299 0.0291695632 1.61468875 -0.142177299 0.0291695632 1.61468875 -0.151271716 0.0146165928 1.61461258 -0.150870994 0.0188777521 1.61471307 -0.151271716 0.0146165928 1.61461258 -0.153061584 0.0159514826 1.61479139 -0.150870994 0.0188777521 1.61471307 -0.151232541 0.0213416535 1.61475086 -0.153717414 0.0236337204 1.61475372 -0.14459157 0.028712919 1.61461616 -0.14459157 0.028712919 1.61461616 -0.153717414 0.0236337204 1.61475372 -0.147488594 0.0311348364 1.61479282 -0.142177299 0.0291695632 1.61468875 -0.150870994 0.0188777521 1.61471307 -0.14459157 0.028712919 1.61461616 -0.150870994 0.0188777521 1.61471307 -0.151232541 0.0213416535 1.61475086 -0.14459157 0.028712919 1.61461616 -0.143947408 0.0353134573 1.61681175 -0.147537068 0.0311609488 1.61685634 -0.14394851 0.0353532992 1.61845911 -0.147488594 0.0311348364 1.61479282 -0.153786808 0.0237126276 1.6168673 -0.147537068 0.0311609488 1.61685634 -0.153717414 0.0236337204 1.61475372 -0.153786808 0.0237126276 1.6168673 -0.147488594 0.0311348364 1.61479282 -0.157252893 0.0194562208 1.61683488 -0.15729101 0.0194689203 1.61850154 -0.153786808 0.0237126276 1.6168673 -0.15729101 0.0194689203 1.61850154 -0.14394851 0.0353532992 1.61845911 -0.147537068 0.0311609488 1.61685634 -0.15729101 0.0194689203 1.61850154 -0.147537068 0.0311609488 1.61685634 -0.153786808 0.0237126276 1.6168673 -0.125751883 0.0200990885 1.61845672 -0.129231766 0.0158520229 1.61683559 -0.125792012 0.0200795885 1.61679018 -0.129231766 0.0158520229 1.61683559 -0.135531127 0.00842168275 1.61476874 -0.129346445 0.0158643015 1.61471176 -0.13556321 0.0083536515 1.61682832 -0.135531127 0.00842168275 1.61476874 -0.129231766 0.0158520229 1.61683559 -0.139090106 0.00416515628 1.61844969 -0.139097497 0.0042223502 1.61681342 -0.13556321 0.0083536515 1.61682832 -0.125751883 0.0200990885 1.61845672 -0.139090106 0.00416515628 1.61844969 -0.129231766 0.0158520229 1.61683559 -0.129231766 0.0158520229 1.61683559 -0.139090106 0.00416515628 1.61844969 -0.13556321 0.0083536515 1.61682832 -0.137928411 0.0105604948 1.61461842 -0.129346445 0.0158643015 1.61471176 -0.135531127 0.00842168275 1.61476874 -0.137928411 0.0105604948 1.61461842 -0.131816834 0.0178037155 1.61460936 -0.129346445 0.0158643015 1.61471176 -0.15729101 0.0194689203 1.61850154 -0.125751883 0.0200990885 1.61845672 -0.14394851 0.0353532992 1.61845911 -0.15729101 0.0194689203 1.61850154 -0.139090106 0.00416515628 1.61844969 -0.125751883 0.0200990885 1.61845672 -0.136996537 0.0295344684 1.6008848 -0.15038681 0.0136385821 1.60085392 -0.137146562 0.0296646226 1.61385179 -0.15038681 0.0136385821 1.60085392 -0.150487632 0.0137053542 1.61382794 -0.137146562 0.0296646226 1.61385179 -0.14680858 0.0106891552 1.59979498 -0.149459973 0.0128539465 1.59977353 -0.133649662 0.0266185105 1.59972596 -0.133649662 0.0266185105 1.59972596 -0.149459973 0.0128539465 1.59977353 -0.136252791 0.0288744401 1.59980261 -0.130060926 0.0235516075 1.61466348 -0.131929621 0.0252932552 1.61459982 -0.129905507 0.0236724485 1.6168499 -0.125751883 0.0200990885 1.61845672 -0.129905507 0.0236724485 1.6168499 -0.139653549 0.0318603553 1.6168654 -0.125751883 0.0200990885 1.61845672 -0.139653549 0.0318603553 1.6168654 -0.14394851 0.0353532992 1.61845911 -0.139653549 0.0318603553 1.6168654 -0.143947408 0.0353134573 1.61681175 -0.14394851 0.0353532992 1.61845911 -0.125792012 0.0200795885 1.61679018 -0.129905507 0.0236724485 1.6168499 -0.125751883 0.0200990885 1.61845672 -0.137657523 0.0302256942 1.6148051 -0.139770955 0.0317909978 1.61476827 -0.139653549 0.0318603553 1.6168654 -0.132786006 0.0261222571 1.60088396 -0.137146562 0.0296646226 1.61385179 -0.132618934 0.0259972494 1.61386788 -0.132786006 0.0261222571 1.60088396 -0.136996537 0.0295344684 1.6008848 -0.137146562 0.0296646226 1.61385179 -0.132786006 0.0261222571 1.60088396 -0.136252791 0.0288744401 1.59980261 -0.136996537 0.0295344684 1.6008848 -0.133649662 0.0266185105 1.59972596 -0.136252791 0.0288744401 1.59980261 -0.132786006 0.0261222571 1.60088396 -0.132618934 0.0259972494 1.61386788 -0.137146562 0.0296646226 1.61385179 -0.137657523 0.0302256942 1.6148051 -0.131929621 0.0252932552 1.61459982 -0.132618934 0.0259972494 1.61386788 -0.137657523 0.0302256942 1.6148051 -0.129905507 0.0236724485 1.6168499 -0.137657523 0.0302256942 1.6148051 -0.139653549 0.0318603553 1.6168654 -0.129905507 0.0236724485 1.6168499 -0.131929621 0.0252932552 1.61459982 -0.137657523 0.0302256942 1.6148051 -0.125792012 0.0200795885 1.61679018 -0.131926164 0.020948099 1.61669862 -0.129905507 0.0236724485 1.6168499 -0.131949544 0.0185314119 1.61669934 -0.131926164 0.020948099 1.61669862 -0.125792012 0.0200795885 1.61679018 -0.129231766 0.0158520229 1.61683559 -0.131949544 0.0185314119 1.61669934 -0.125792012 0.0200795885 1.61679018 -0.131446749 0.0178773534 1.6148982 -0.132039204 0.0190608166 1.61489904 -0.131949544 0.0185314119 1.61669934 -0.131949544 0.0185314119 1.61669934 -0.131980956 0.0208625998 1.61489975 -0.131926164 0.020948099 1.61669862 -0.132039204 0.0190608166 1.61489904 -0.131980956 0.0208625998 1.61489975 -0.131949544 0.0185314119 1.61669934 -0.129346445 0.0158643015 1.61471176 -0.131446749 0.0178773534 1.6148982 -0.129231766 0.0158520229 1.61683559 -0.129231766 0.0158520229 1.61683559 -0.131446749 0.0178773534 1.6148982 -0.131949544 0.0185314119 1.61669934 -0.131980956 0.0208625998 1.61489975 -0.129905507 0.0236724485 1.6168499 -0.131926164 0.020948099 1.61669862 -0.131980956 0.0208625998 1.61489975 -0.130060926 0.0235516075 1.61466348 -0.129905507 0.0236724485 1.6168499 -0.144550174 0.0290324762 1.61671424 -0.147537068 0.0311609488 1.61685634 -0.143947408 0.0353134573 1.61681175 -0.142084122 0.0293669682 1.61671066 -0.143947408 0.0353134573 1.61681175 -0.139653549 0.0318603553 1.6168654 -0.142084122 0.0293669682 1.61671066 -0.144550174 0.0290324762 1.61671424 -0.143947408 0.0353134573 1.61681175 -0.142084122 0.0293669682 1.61671066 -0.142177299 0.0291695632 1.61468875 -0.144550174 0.0290324762 1.61671424 -0.142177299 0.0291695632 1.61468875 -0.144707471 0.0291224755 1.6149205 -0.144550174 0.0290324762 1.61671424 -0.139770955 0.0317909978 1.61476827 -0.142084122 0.0293669682 1.61671066 -0.139653549 0.0318603553 1.6168654 -0.139770955 0.0317909978 1.61476827 -0.142177299 0.0291695632 1.61468875 -0.142084122 0.0293669682 1.61671066 -0.144707471 0.0291224755 1.6149205 -0.147488594 0.0311348364 1.61479282 -0.144550174 0.0290324762 1.61671424 -0.144550174 0.0290324762 1.61671424 -0.147488594 0.0311348364 1.61479282 -0.147537068 0.0311609488 1.61685634 -0.139097497 0.0042223502 1.61681342 -0.143391192 0.00767548615 1.61687732 -0.14105022 0.0100968461 1.6167146 -0.139097497 0.0042223502 1.61681342 -0.138642371 0.0105550308 1.61671102 -0.13556321 0.0083536515 1.61682832 -0.139097497 0.0042223502 1.61681342 -0.14105022 0.0100968461 1.6167146 -0.138642371 0.0105550308 1.61671102 -0.14105022 0.0100968461 1.6167146 -0.140932575 0.0101798447 1.6149255 -0.138642371 0.0105550308 1.61671102 -0.140932575 0.0101798447 1.6149255 -0.139181852 0.0105483383 1.61491156 -0.138642371 0.0105550308 1.61671102 -0.139181852 0.0105483383 1.61491156 -0.137920916 0.0101746246 1.61490703 -0.138642371 0.0105550308 1.61671102 -0.143227234 0.00780635606 1.61469793 -0.140932575 0.0101798447 1.6149255 -0.14105022 0.0100968461 1.6167146 -0.143227234 0.00780635606 1.61469793 -0.14105022 0.0100968461 1.6167146 -0.143391192 0.00767548615 1.61687732 -0.137920916 0.0101746246 1.61490703 -0.135531127 0.00842168275 1.61476874 -0.13556321 0.0083536515 1.61682832 -0.137920916 0.0101746246 1.61490703 -0.13556321 0.0083536515 1.61682832 -0.138642371 0.0105550308 1.61671102 -0.157252893 0.0194562208 1.61683488 -0.153786808 0.0237126276 1.6168673 -0.151486605 0.021534225 1.61672616 -0.151154667 0.0185091048 1.61672652 -0.151486605 0.021534225 1.61672616 -0.150943831 0.0201300904 1.6167258 -0.151154667 0.0185091048 1.61672652 -0.157252893 0.0194562208 1.61683488 -0.151486605 0.021534225 1.61672616 -0.153106481 0.0158274174 1.61688876 -0.157252893 0.0194562208 1.61683488 -0.151154667 0.0185091048 1.61672652 -0.151486605 0.021534225 1.61672616 -0.151232541 0.0213416535 1.61475086 -0.150943831 0.0201300904 1.6167258 -0.151232541 0.0213416535 1.61475086 -0.150870994 0.0188777521 1.61471307 -0.150943831 0.0201300904 1.6167258 -0.150943831 0.0201300904 1.6167258 -0.150870994 0.0188777521 1.61471307 -0.151154667 0.0185091048 1.61672652 -0.153717414 0.0236337204 1.61475372 -0.151232541 0.0213416535 1.61475086 -0.151486605 0.021534225 1.61672616 -0.153717414 0.0236337204 1.61475372 -0.151486605 0.021534225 1.61672616 -0.153786808 0.0237126276 1.6168673 -0.151154667 0.0185091048 1.61672652 -0.153061584 0.0159514826 1.61479139 -0.153106481 0.0158274174 1.61688876 -0.150870994 0.0188777521 1.61471307 -0.153061584 0.0159514826 1.61479139 -0.151154667 0.0185091048 1.61672652 -0.137146562 0.0296646226 1.61385179 -0.150487632 0.0137053542 1.61382794 -0.138126493 0.0302461889 1.61458731 -0.150487632 0.0137053542 1.61382794 -0.151271716 0.0146165928 1.61461258 -0.138126493 0.0302461889 1.61458731 -0.145169735 0.00924154185 1.61465645 -0.145914465 0.00986921508 1.6138519 -0.131929621 0.0252932552 1.61459982 -0.131929621 0.0252932552 1.61459982 -0.145914465 0.00986921508 1.6138519 -0.132646859 0.025638476 1.61348855 -0.132752612 0.0256981142 1.60082805 -0.14584735 0.0100665167 1.60094035 -0.14680858 0.0106891552 1.59979498 -0.133649662 0.0266185105 1.59972596 -0.132752612 0.0256981142 1.60082805 -0.14680858 0.0106891552 1.59979498 -0.136252791 0.0288744401 1.59980261 -0.149459973 0.0128539465 1.59977353 -0.15038681 0.0136385821 1.60085392 -0.136996537 0.0295344684 1.6008848 -0.136252791 0.0288744401 1.59980261 -0.15038681 0.0136385821 1.60085392 -0.140932575 0.0101798447 1.6149255 -0.143227234 0.00780635606 1.61469793 -0.140839458 0.0106196133 1.61461663 -0.140932575 0.0101798447 1.6149255 -0.140839458 0.0106196133 1.61461663 -0.139181852 0.0105483383 1.61491156 -0.140839458 0.0106196133 1.61461663 -0.137928411 0.0105604948 1.61461842 -0.139181852 0.0105483383 1.61491156 -0.139181852 0.0105483383 1.61491156 -0.137928411 0.0105604948 1.61461842 -0.137920916 0.0101746246 1.61490703 -0.135531127 0.00842168275 1.61476874 -0.137920916 0.0101746246 1.61490703 -0.137928411 0.0105604948 1.61461842 -0.144097641 0.00847061351 1.61461926 -0.143227234 0.00780635606 1.61469793 -0.145169735 0.00924154185 1.61465645 -0.14584735 0.0100665167 1.60094035 -0.14587152 0.00992748514 1.61230981 -0.146285981 0.0100333365 1.60090756 -0.14587152 0.00992748514 1.61230981 -0.145914465 0.00986921508 1.6138519 -0.146285981 0.0100333365 1.60090756 -0.14680858 0.0106891552 1.59979498 -0.14584735 0.0100665167 1.60094035 -0.146285981 0.0100333365 1.60090756 -0.129346445 0.0158643015 1.61471176 -0.131816834 0.0178037155 1.61460936 -0.131446749 0.0178773534 1.6148982 -0.131446749 0.0178773534 1.6148982 -0.131816834 0.0178037155 1.61460936 -0.132039204 0.0190608166 1.61489904 -0.131816834 0.0178037155 1.61460936 -0.132392719 0.0207226183 1.61460221 -0.132039204 0.0190608166 1.61489904 -0.132039204 0.0190608166 1.61489904 -0.132392719 0.0207226183 1.61460221 -0.131980956 0.0208625998 1.61489975 -0.132392719 0.0207226183 1.61460221 -0.130060926 0.0235516075 1.61466348 -0.131980956 0.0208625998 1.61489975 -0.150487632 0.0137053542 1.61382794 -0.151142135 0.0141325817 1.61481917 -0.151271716 0.0146165928 1.61461258 -0.131929621 0.0252932552 1.61459982 -0.130060926 0.0235516075 1.61466348 -0.130872369 0.0242771283 1.61459625 -0.153061584 0.0159514826 1.61479139 -0.151271716 0.0146165928 1.61461258 -0.151142135 0.0141325817 1.61481917 -0.132646859 0.025638476 1.61348855 -0.132618934 0.0259972494 1.61386788 -0.131929621 0.0252932552 1.61459982 -0.132588148 0.0257589687 1.61224985 -0.132618934 0.0259972494 1.61386788 -0.132646859 0.025638476 1.61348855 -0.132786006 0.0261222571 1.60088396 -0.132588148 0.0257589687 1.61224985 -0.132752612 0.0256981142 1.60082805 -0.132786006 0.0261222571 1.60088396 -0.132618934 0.0259972494 1.61386788 -0.132588148 0.0257589687 1.61224985 -0.132752612 0.0256981142 1.60082805 -0.133649662 0.0266185105 1.59972596 -0.132786006 0.0261222571 1.60088396 -0.138126493 0.0302461889 1.61458731 -0.137657523 0.0302256942 1.6148051 -0.137146562 0.0296646226 1.61385179 -0.139770955 0.0317909978 1.61476827 -0.137657523 0.0302256942 1.6148051 -0.138126493 0.0302461889 1.61458731 -0.14459157 0.028712919 1.61461616 -0.147488594 0.0311348364 1.61479282 -0.144707471 0.0291224755 1.6149205 -0.142177299 0.0291695632 1.61468875 -0.14459157 0.028712919 1.61461616 -0.144707471 0.0291224755 1.6149205 -0.140839458 0.0106196133 1.61461663 -0.141437143 0.00625619106 1.6146071 -0.137928411 0.0105604948 1.61461842 -0.140839458 0.0106196133 1.61461663 -0.143227234 0.00780635606 1.61469793 -0.141437143 0.00625619106 1.6146071 -0.146280035 0.0122190751 1.58269572 -0.134950966 0.0256958883 1.58269215 -0.139946207 0.00485786656 1.59942675 -0.134950966 0.0256958883 1.58269215 -0.126557678 0.0207622889 1.59955442 -0.139946207 0.00485786656 1.59942675 -0.146280035 0.0122190751 1.58269572 -0.135950089 0.0264595598 1.58259845 -0.134950966 0.0256958883 1.58269215 -0.147195399 0.0130569683 1.58261776 -0.135950089 0.0264595598 1.58259845 -0.146280035 0.0122190751 1.58269572 -0.145107821 0.0157416351 1.56480861 -0.147154912 0.0131227607 1.56878996 -0.146742672 0.0138894934 1.56633019 -0.138573542 0.0234834589 1.56477571 -0.147154912 0.0131227607 1.56878996 -0.145107821 0.0157416351 1.56480861 -0.136103094 0.0262939781 1.56806934 -0.147154912 0.0131227607 1.56878996 -0.138573542 0.0234834589 1.56477571 -0.135950089 0.0264595598 1.58259845 -0.147195399 0.0130569683 1.58261776 -0.136103094 0.0262939781 1.56806934 -0.136103094 0.0262939781 1.56806934 -0.147195399 0.0130569683 1.58261776 -0.147154912 0.0131227607 1.56878996 -0.136103094 0.0262939781 1.56806934 -0.138573542 0.0234834589 1.56477571 -0.137481362 0.0248473343 1.56535923 -0.145107821 0.0157416351 1.56480861 -0.141637772 0.0270098019 1.56475306 -0.138573542 0.0234834589 1.56477571 -0.148881316 0.018728653 1.56487596 -0.141637772 0.0270098019 1.56475306 -0.145107821 0.0157416351 1.56480861 -0.15102753 0.0162118152 1.56850886 -0.147067636 0.0210005082 1.57132435 -0.149908826 0.0174821056 1.56580353 -0.149908826 0.0174821056 1.56580353 -0.147067636 0.0210005082 1.57132435 -0.148881316 0.018728653 1.56487596 -0.147067636 0.0210005082 1.57132435 -0.145989463 0.0222725905 1.57025087 -0.148881316 0.018728653 1.56487596 -0.15102753 0.0162118152 1.56850886 -0.147629529 0.0203098971 1.57316589 -0.147067636 0.0210005082 1.57132435 -0.148881316 0.018728653 1.56487596 -0.145989463 0.0222725905 1.57025087 -0.141897246 0.0271742716 1.56505322 -0.15102753 0.0162118152 1.56850886 -0.151021913 0.0162723288 1.58262241 -0.147629529 0.0203098971 1.57316589 -0.151021913 0.0162723288 1.58262241 -0.147370011 0.020615859 1.57512963 -0.147629529 0.0203098971 1.57316589 -0.145989463 0.0222725905 1.57025087 -0.144634396 0.0238897987 1.57041109 -0.141897246 0.0271742716 1.56505322 -0.144634396 0.0238897987 1.57041109 -0.143899068 0.0247679073 1.57107866 -0.141897246 0.0271742716 1.56505322 -0.151021913 0.0162723288 1.58262241 -0.146662325 0.0214707498 1.57646358 -0.147370011 0.020615859 1.57512963 -0.141897246 0.0271742716 1.56505322 -0.143899068 0.0247679073 1.57107866 -0.140358403 0.0288178604 1.56636322 -0.143899068 0.0247679073 1.57107866 -0.139690354 0.0296500139 1.56840456 -0.140358403 0.0288178604 1.56636322 -0.151021913 0.0162723288 1.58262241 -0.14530091 0.0230684169 1.57710636 -0.146662325 0.0214707498 1.57646358 -0.14324528 0.0255445279 1.57281709 -0.139690354 0.0296500139 1.56840456 -0.143899068 0.0247679073 1.57107866 -0.143366948 0.0253890734 1.57484126 -0.139777198 0.0296738502 1.5826025 -0.14324528 0.0255445279 1.57281709 -0.144153863 0.0244531892 1.57642138 -0.139777198 0.0296738502 1.5826025 -0.143366948 0.0253890734 1.57484126 -0.14324528 0.0255445279 1.57281709 -0.139777198 0.0296738502 1.5826025 -0.139690354 0.0296500139 1.56840456 -0.14530091 0.0230684169 1.57710636 -0.139777198 0.0296738502 1.5826025 -0.144153863 0.0244531892 1.57642138 -0.151021913 0.0162723288 1.58262241 -0.139777198 0.0296738502 1.5826025 -0.14530091 0.0230684169 1.57710636 -0.151021913 0.0162723288 1.58262241 -0.140596896 0.0307023674 1.5827632 -0.139777198 0.0296738502 1.5826025 -0.152244881 0.0169464052 1.58288634 -0.140596896 0.0307023674 1.5827632 -0.151021913 0.0162723288 1.58262241 -0.145811215 0.0100352988 1.59937036 -0.140706524 0.0307329651 1.58302903 -0.152244881 0.0169464052 1.58288634 -0.132716224 0.0256525073 1.59934497 -0.140706524 0.0307329651 1.58302903 -0.145811215 0.0100352988 1.59937036 -0.14584735 0.0100665167 1.60094035 -0.132752612 0.0256981142 1.60082805 -0.145811215 0.0100352988 1.59937036 -0.132752612 0.0256981142 1.60082805 -0.132716224 0.0256525073 1.59934497 -0.145811215 0.0100352988 1.59937036 -0.132588148 0.0257589687 1.61224985 -0.132716224 0.0256525073 1.59934497 -0.132752612 0.0256981142 1.60082805 -0.145811215 0.0100352988 1.59937036 -0.14587152 0.00992748514 1.61230981 -0.14584735 0.0100665167 1.60094035 -0.139946207 0.00485786656 1.59942675 -0.126557678 0.0207622889 1.59955442 -0.139845729 0.00482794223 1.61246979 -0.126557678 0.0207622889 1.59955442 -0.126545012 0.0207461119 1.61247253 -0.139845729 0.00482794223 1.61246979 -0.130060926 0.0235516075 1.61466348 -0.132392719 0.0207226183 1.61460221 -0.128204435 0.022026673 1.61458409 -0.128204435 0.022026673 1.61458409 -0.132392719 0.0207226183 1.61460221 -0.131816834 0.0178037155 1.61460936 -0.132588148 0.0257589687 1.61224985 -0.126545012 0.0207461119 1.61247253 -0.126557678 0.0207622889 1.59955442 -0.132588148 0.0257589687 1.61224985 -0.126557678 0.0207622889 1.59955442 -0.132310316 0.0256922785 1.59927368 -0.130872369 0.0242771283 1.61459625 -0.128204435 0.022026673 1.61458409 -0.126545012 0.0207461119 1.61247253 -0.130872369 0.0242771283 1.61459625 -0.126545012 0.0207461119 1.61247253 -0.132588148 0.0257589687 1.61224985 -0.139845729 0.00482794223 1.61246979 -0.14587152 0.00992748514 1.61230981 -0.139946207 0.00485786656 1.59942675 -0.139946207 0.00485786656 1.59942675 -0.14587152 0.00992748514 1.61230981 -0.145782158 0.00963670388 1.59929776 -0.141437143 0.00625619106 1.6146071 -0.144097641 0.00847061351 1.61461926 -0.139845729 0.00482794223 1.61246979 -0.139845729 0.00482794223 1.61246979 -0.144097641 0.00847061351 1.61461926 -0.14587152 0.00992748514 1.61230981 -0.145782158 0.00963670388 1.59929776 -0.146583214 0.0121433334 1.58291376 -0.139946207 0.00485786656 1.59942675 -0.145782158 0.00963670388 1.59929776 -0.152244881 0.0169464052 1.58288634 -0.146583214 0.0121433334 1.58291376 -0.147627756 0.0130196856 1.5828948 -0.152244881 0.0169464052 1.58288634 -0.150988981 0.0158481095 1.5828923 -0.147627756 0.0130196856 1.5828948 -0.146583214 0.0121433334 1.58291376 -0.152244881 0.0169464052 1.58288634 -0.150988981 0.0158481095 1.5828923 -0.15102753 0.0162118152 1.56850886 -0.147572964 0.0130966129 1.56866252 -0.150988981 0.0158481095 1.5828923 -0.147572964 0.0130966129 1.56866252 -0.147627756 0.0130196856 1.5828948 -0.13605237 0.0268210508 1.56892169 -0.139351934 0.0297103394 1.58287084 -0.135982662 0.0268915072 1.58287561 -0.139690354 0.0296500139 1.56840456 -0.139351934 0.0297103394 1.58287084 -0.13605237 0.0268210508 1.56892169 -0.140706524 0.0307329651 1.58302903 -0.139351934 0.0297103394 1.58287084 -0.140596896 0.0307023674 1.5827632 -0.134941474 0.0260177348 1.58289337 -0.135982662 0.0268915072 1.58287561 -0.140706524 0.0307329651 1.58302903 -0.140706524 0.0307329651 1.58302903 -0.135982662 0.0268915072 1.58287561 -0.139351934 0.0297103394 1.58287084 -0.134941474 0.0260177348 1.58289337 -0.132310316 0.0256922785 1.59927368 -0.126557678 0.0207622889 1.59955442 -0.140706524 0.0307329651 1.58302903 -0.132310316 0.0256922785 1.59927368 -0.134941474 0.0260177348 1.58289337 -0.130872369 0.0242771283 1.61459625 -0.14587152 0.00992748514 1.61230981 -0.144097641 0.00847061351 1.61461926 -0.132588148 0.0257589687 1.61224985 -0.14587152 0.00992748514 1.61230981 -0.130872369 0.0242771283 1.61459625 -0.128204435 0.022026673 1.61458409 -0.131816834 0.0178037155 1.61460936 -0.126545012 0.0207461119 1.61247253 -0.137928411 0.0105604948 1.61461842 -0.139845729 0.00482794223 1.61246979 -0.131816834 0.0178037155 1.61460936 -0.131816834 0.0178037155 1.61460936 -0.139845729 0.00482794223 1.61246979 -0.126545012 0.0207461119 1.61247253 -0.137928411 0.0105604948 1.61461842 -0.141437143 0.00625619106 1.6146071 -0.139845729 0.00482794223 1.61246979 -0.148881316 0.018728653 1.56487596 -0.145107821 0.0157416351 1.56480861 -0.146742672 0.0138894934 1.56633019 -0.149908826 0.0174821056 1.56580353 -0.148881316 0.018728653 1.56487596 -0.146742672 0.0138894934 1.56633019 -0.1505896 0.0163445696 1.56716514 -0.149908826 0.0174821056 1.56580353 -0.146742672 0.0138894934 1.56633019 -0.1505896 0.0163445696 1.56716514 -0.146742672 0.0138894934 1.56633019 -0.147572964 0.0130966129 1.56866252 -0.15102753 0.0162118152 1.56850886 -0.1505896 0.0163445696 1.56716514 -0.147572964 0.0130966129 1.56866252 -0.139690354 0.0296500139 1.56840456 -0.13605237 0.0268210508 1.56892169 -0.136553004 0.0262249652 1.56675065 -0.140358403 0.0288178604 1.56636322 -0.139690354 0.0296500139 1.56840456 -0.136553004 0.0262249652 1.56675065 -0.140358403 0.0288178604 1.56636322 -0.136553004 0.0262249652 1.56675065 -0.137481362 0.0248473343 1.56535923 -0.141637772 0.0270098019 1.56475306 -0.140358403 0.0288178604 1.56636322 -0.137481362 0.0248473343 1.56535923 -0.141637772 0.0270098019 1.56475306 -0.137481362 0.0248473343 1.56535923 -0.138573542 0.0234834589 1.56477571 -0.139777198 0.0296738502 1.5826025 -0.140596896 0.0307023674 1.5827632 -0.139351934 0.0297103394 1.58287084 -0.140706524 0.0307329651 1.58302903 -0.132716224 0.0256525073 1.59934497 -0.132310316 0.0256922785 1.59927368 -0.139690354 0.0296500139 1.56840456 -0.139777198 0.0296738502 1.5826025 -0.139351934 0.0297103394 1.58287084 -0.140358403 0.0288178604 1.56636322 -0.141637772 0.0270098019 1.56475306 -0.141897246 0.0271742716 1.56505322 -0.141637772 0.0270098019 1.56475306 -0.148881316 0.018728653 1.56487596 -0.141897246 0.0271742716 1.56505322 -0.1505896 0.0163445696 1.56716514 -0.15102753 0.0162118152 1.56850886 -0.149908826 0.0174821056 1.56580353 -0.132716224 0.0256525073 1.59934497 -0.132588148 0.0257589687 1.61224985 -0.132310316 0.0256922785 1.59927368 -0.151021913 0.0162723288 1.58262241 -0.15102753 0.0162118152 1.56850886 -0.150988981 0.0158481095 1.5828923 -0.130872369 0.0242771283 1.61459625 -0.130060926 0.0235516075 1.61466348 -0.128204435 0.022026673 1.61458409 -0.152244881 0.0169464052 1.58288634 -0.151021913 0.0162723288 1.58262241 -0.150988981 0.0158481095 1.5828923 -0.145811215 0.0100352988 1.59937036 -0.152244881 0.0169464052 1.58288634 -0.145782158 0.00963670388 1.59929776 -0.126557678 0.0207622889 1.59955442 -0.134950966 0.0256958883 1.58269215 -0.134941474 0.0260177348 1.58289337 -0.145782158 0.00963670388 1.59929776 -0.14587152 0.00992748514 1.61230981 -0.145811215 0.0100352988 1.59937036 -0.134941474 0.0260177348 1.58289337 -0.135950089 0.0264595598 1.58259845 -0.135982662 0.0268915072 1.58287561 -0.134950966 0.0256958883 1.58269215 -0.135950089 0.0264595598 1.58259845 -0.134941474 0.0260177348 1.58289337 -0.144097641 0.00847061351 1.61461926 -0.141437143 0.00625619106 1.6146071 -0.143227234 0.00780635606 1.61469793 -0.135950089 0.0264595598 1.58259845 -0.136103094 0.0262939781 1.56806934 -0.13605237 0.0268210508 1.56892169 -0.135950089 0.0264595598 1.58259845 -0.13605237 0.0268210508 1.56892169 -0.135982662 0.0268915072 1.58287561 -0.136553004 0.0262249652 1.56675065 -0.13605237 0.0268210508 1.56892169 -0.136103094 0.0262939781 1.56806934 -0.136553004 0.0262249652 1.56675065 -0.136103094 0.0262939781 1.56806934 -0.137481362 0.0248473343 1.56535923 -0.147572964 0.0130966129 1.56866252 -0.146742672 0.0138894934 1.56633019 -0.147154912 0.0131227607 1.56878996 -0.147154912 0.0131227607 1.56878996 -0.147195399 0.0130569683 1.58261776 -0.147627756 0.0130196856 1.5828948 -0.147154912 0.0131227607 1.56878996 -0.147627756 0.0130196856 1.5828948 -0.147572964 0.0130966129 1.56866252 -0.146280035 0.0122190751 1.58269572 -0.139946207 0.00485786656 1.59942675 -0.146583214 0.0121433334 1.58291376 -0.147195399 0.0130569683 1.58261776 -0.146583214 0.0121433334 1.58291376 -0.147627756 0.0130196856 1.5828948 -0.147195399 0.0130569683 1.58261776 -0.146280035 0.0122190751 1.58269572 -0.146583214 0.0121433334 1.58291376 -0.14324528 0.0255445279 1.57281709 -0.142816812 0.0207877457 1.5736202 -0.143366948 0.0253890734 1.57484126 -0.144153863 0.0244531892 1.57642138 -0.143366948 0.0253890734 1.57484126 -0.142816812 0.0207877457 1.5736202 -0.147370011 0.020615859 1.57512963 -0.142816812 0.0207877457 1.5736202 -0.147629529 0.0203098971 1.57316589 -0.147370011 0.020615859 1.57512963 -0.146662325 0.0214707498 1.57646358 -0.142816812 0.0207877457 1.5736202 -0.146662325 0.0214707498 1.57646358 -0.14530091 0.0230684169 1.57710636 -0.142816812 0.0207877457 1.5736202 -0.14530091 0.0230684169 1.57710636 -0.144153863 0.0244531892 1.57642138 -0.142816812 0.0207877457 1.5736202 -0.140596896 0.0307023674 1.5827632 -0.152244881 0.0169464052 1.58288634 -0.140706524 0.0307329651 1.58302903 -0.145483702 0.0102544781 1.60751271 -0.144907489 0.0108870836 1.6091218 -0.143257856 0.00837899372 1.60700369 -0.143257856 0.00837899372 1.60700369 -0.144907489 0.0108870836 1.6091218 -0.142324433 0.00948778912 1.60963833 -0.14031738 0.0118892565 1.60289657 -0.142493024 0.0134876249 1.60286343 -0.141437069 0.0105547206 1.60297334 -0.142493024 0.0134876249 1.60286343 -0.143887058 0.0118353684 1.60315955 -0.141437069 0.0105547206 1.60297334 -0.144907489 0.0108870836 1.6091218 -0.144084394 0.0115910834 1.60987604 -0.142324433 0.00948778912 1.60963833 -0.141437069 0.0105547206 1.60297334 -0.143887058 0.0118353684 1.60315955 -0.142688721 0.00906132348 1.60413086 -0.142324433 0.00948778912 1.60963833 -0.142962322 0.0129175074 1.61040962 -0.140791878 0.0113131776 1.61040604 -0.144084394 0.0115910834 1.60987604 -0.142962322 0.0129175074 1.61040962 -0.142324433 0.00948778912 1.60963833 -0.143887058 0.0118353684 1.60315955 -0.144804239 0.010741177 1.60434556 -0.142688721 0.00906132348 1.60413086 -0.144804239 0.010741177 1.60434556 -0.145249769 0.0102003645 1.60587704 -0.142688721 0.00906132348 1.60413086 -0.142688721 0.00906132348 1.60413086 -0.145249769 0.0102003645 1.60587704 -0.143257856 0.00837899372 1.60700369 -0.145249769 0.0102003645 1.60587704 -0.145483702 0.0102544781 1.60751271 -0.143257856 0.00837899372 1.60700369 -0.143887058 0.0118353684 1.60315955 -0.144491076 0.0115813427 1.6031301 -0.144804239 0.010741177 1.60434556 -0.144491076 0.0115813427 1.6031301 -0.145543233 0.0103243245 1.60504448 -0.144804239 0.010741177 1.60434556 -0.140396491 0.0159882363 1.60682178 -0.140470743 0.0163662378 1.6057322 -0.140786916 0.0155280866 1.60467672 -0.144804239 0.010741177 1.60434556 -0.145543233 0.0103243245 1.60504448 -0.145249769 0.0102003645 1.60587704 -0.140786916 0.0155280866 1.60467672 -0.141462892 0.01519024 1.60341549 -0.141427964 0.0147652933 1.60358024 -0.140470743 0.0163662378 1.6057322 -0.141462892 0.01519024 1.60341549 -0.140786916 0.0155280866 1.60467672 -0.145543233 0.0103243245 1.60504448 -0.145483702 0.0102544781 1.60751271 -0.145249769 0.0102003645 1.60587704 -0.141427964 0.0147652933 1.60358024 -0.141462892 0.01519024 1.60341549 -0.142493024 0.0134876249 1.60286343 -0.141462892 0.01519024 1.60341549 -0.142881751 0.0134997107 1.6025039 -0.142493024 0.0134876249 1.60286343 -0.142493024 0.0134876249 1.60286343 -0.142881751 0.0134997107 1.6025039 -0.143887058 0.0118353684 1.60315955 -0.142881751 0.0134997107 1.6025039 -0.144491076 0.0115813427 1.6031301 -0.143887058 0.0118353684 1.60315955 -0.144016549 0.0121366233 1.61046231 -0.141462892 0.01519024 1.60341549 -0.142317638 0.014160079 1.61057079 -0.142317638 0.014160079 1.61057079 -0.141462892 0.01519024 1.60341549 -0.140863642 0.015895715 1.60885143 -0.142881751 0.0134997107 1.6025039 -0.141462892 0.01519024 1.60341549 -0.144016549 0.0121366233 1.61046231 -0.140863642 0.015895715 1.60885143 -0.141462892 0.01519024 1.60341549 -0.140470743 0.0163662378 1.6057322 -0.145543233 0.0103243245 1.60504448 -0.144491076 0.0115813427 1.6031301 -0.145483702 0.0102544781 1.60751271 -0.144491076 0.0115813427 1.6031301 -0.142881751 0.0134997107 1.6025039 -0.145483702 0.0102544781 1.60751271 -0.145483702 0.0102544781 1.60751271 -0.142881751 0.0134997107 1.6025039 -0.144907489 0.0108870836 1.6091218 -0.144907489 0.0108870836 1.6091218 -0.142881751 0.0134997107 1.6025039 -0.144016549 0.0121366233 1.61046231 -0.141734168 0.014399142 1.60996747 -0.140863642 0.015895715 1.60885143 -0.140927702 0.0153547516 1.60888696 -0.142317638 0.014160079 1.61057079 -0.140863642 0.015895715 1.60885143 -0.141734168 0.014399142 1.60996747 -0.140927702 0.0153547516 1.60888696 -0.140863642 0.015895715 1.60885143 -0.140396491 0.0159882363 1.60682178 -0.140863642 0.015895715 1.60885143 -0.140470743 0.0163662378 1.6057322 -0.140396491 0.0159882363 1.60682178 -0.144907489 0.0108870836 1.6091218 -0.144016549 0.0121366233 1.61046231 -0.144084394 0.0115910834 1.60987604 -0.144084394 0.0115910834 1.60987604 -0.144016549 0.0121366233 1.61046231 -0.142962322 0.0129175074 1.61040962 -0.144016549 0.0121366233 1.61046231 -0.142317638 0.014160079 1.61057079 -0.142962322 0.0129175074 1.61040962 -0.142962322 0.0129175074 1.61040962 -0.142317638 0.014160079 1.61057079 -0.141734168 0.014399142 1.60996747 -0.140396491 0.0159882363 1.60682178 -0.140786916 0.0155280866 1.60467672 -0.138912752 0.0135615356 1.60412431 -0.140786916 0.0155280866 1.60467672 -0.141427964 0.0147652933 1.60358024 -0.138912752 0.0135615356 1.60412431 -0.140791878 0.0113131776 1.61040604 -0.141734168 0.014399142 1.60996747 -0.139261499 0.0131381406 1.60963309 -0.142962322 0.0129175074 1.61040962 -0.141734168 0.014399142 1.60996747 -0.140791878 0.0113131776 1.61040604 -0.138912752 0.0135615356 1.60412431 -0.141427964 0.0147652933 1.60358024 -0.14031738 0.0118892565 1.60289657 -0.141427964 0.0147652933 1.60358024 -0.142493024 0.0134876249 1.60286343 -0.14031738 0.0118892565 1.60289657 -0.141734168 0.014399142 1.60996747 -0.140927702 0.0153547516 1.60888696 -0.139261499 0.0131381406 1.60963309 -0.139261499 0.0131381406 1.60963309 -0.140927702 0.0153547516 1.60888696 -0.138335422 0.0142454635 1.60699511 -0.140927702 0.0153547516 1.60888696 -0.140396491 0.0159882363 1.60682178 -0.138335422 0.0142454635 1.60699511 -0.138335422 0.0142454635 1.60699511 -0.140396491 0.0159882363 1.60682178 -0.138912752 0.0135615356 1.60412431 -0.138912752 0.0135615356 1.60412431 -0.14031738 0.0118892565 1.60289657 -0.141437069 0.0105547206 1.60297334 -0.138912752 0.0135615356 1.60412431 -0.141437069 0.0105547206 1.60297334 -0.142688721 0.00906132348 1.60413086 -0.138912752 0.0135615356 1.60412431 -0.142688721 0.00906132348 1.60413086 -0.143257856 0.00837899372 1.60700369 -0.139261499 0.0131381406 1.60963309 -0.138912752 0.0135615356 1.60412431 -0.143257856 0.00837899372 1.60700369 -0.139261499 0.0131381406 1.60963309 -0.143257856 0.00837899372 1.60700369 -0.142324433 0.00948778912 1.60963833 -0.139261499 0.0131381406 1.60963309 -0.138335422 0.0142454635 1.60699511 -0.138912752 0.0135615356 1.60412431 -0.139261499 0.0131381406 1.60963309 -0.142324433 0.00948778912 1.60963833 -0.140791878 0.0113131776 1.61040604 -0.135544538 0.0175715797 1.60699022 -0.137552217 0.019650612 1.60833287 -0.134611115 0.0186803769 1.60962498 -0.132604063 0.0210818425 1.6028831 -0.134779736 0.0226801652 1.60284996 -0.133723751 0.0197473075 1.60295987 -0.134779736 0.0226801652 1.60284996 -0.13617377 0.0210279096 1.60314608 -0.133723751 0.0197473075 1.60295987 -0.137552217 0.019650612 1.60833287 -0.136371076 0.0207836702 1.60986257 -0.134611115 0.0186803769 1.60962498 -0.133723751 0.0197473075 1.60295987 -0.13617377 0.0210279096 1.60314608 -0.134975448 0.018253943 1.60411739 -0.134611115 0.0186803769 1.60962498 -0.135249004 0.0221100934 1.61039615 -0.13307856 0.0205057636 1.61039257 -0.136371076 0.0207836702 1.60986257 -0.135249004 0.0221100934 1.61039615 -0.134611115 0.0186803769 1.60962498 -0.13617377 0.0210279096 1.60314608 -0.137090921 0.0199337639 1.60433209 -0.134975448 0.018253943 1.60411739 -0.137090921 0.0199337639 1.60433209 -0.137707233 0.0193677172 1.60612535 -0.134975448 0.018253943 1.60411739 -0.134975448 0.018253943 1.60411739 -0.137707233 0.0193677172 1.60612535 -0.135544538 0.0175715797 1.60699022 -0.137707233 0.0193677172 1.60612535 -0.137552217 0.019650612 1.60833287 -0.135544538 0.0175715797 1.60699022 -0.13617377 0.0210279096 1.60314608 -0.137455359 0.0199634247 1.6039629 -0.137090921 0.0199337639 1.60433209 -0.132830113 0.0254716668 1.60773492 -0.132912874 0.0253771339 1.60515678 -0.132683173 0.0251808204 1.6068083 -0.132683173 0.0251808204 1.6068083 -0.132912874 0.0253771339 1.60515678 -0.133073643 0.0247206278 1.60466337 -0.137090921 0.0199337639 1.60433209 -0.137455359 0.0199634247 1.6039629 -0.137707233 0.0193677172 1.60612535 -0.132912874 0.0253771339 1.60515678 -0.133729383 0.0241261516 1.60355008 -0.133073643 0.0247206278 1.60466337 -0.133729383 0.0241261516 1.60355008 -0.135429218 0.0223798323 1.60242712 -0.134779736 0.0226801652 1.60284996 -0.134779736 0.0226801652 1.60284996 -0.135429218 0.0223798323 1.60242712 -0.13617377 0.0210279096 1.60314608 -0.135429218 0.0223798323 1.60242712 -0.137455359 0.0199634247 1.6039629 -0.13617377 0.0210279096 1.60314608 -0.13377285 0.0243455116 1.6098603 -0.132912874 0.0253771339 1.60515678 -0.132830113 0.0254716668 1.60773492 -0.135429218 0.0223798323 1.60242712 -0.132912874 0.0253771339 1.60515678 -0.13377285 0.0243455116 1.6098603 -0.135429218 0.0223798323 1.60242712 -0.133729383 0.0241261516 1.60355008 -0.132912874 0.0253771339 1.60515678 -0.137552217 0.019650612 1.60833287 -0.137455359 0.0199634247 1.6039629 -0.136553735 0.0210288018 1.61032784 -0.136553735 0.0210288018 1.61032784 -0.137455359 0.0199634247 1.6039629 -0.134991676 0.0228924956 1.61063623 -0.134991676 0.0228924956 1.61063623 -0.135429218 0.0223798323 1.60242712 -0.13377285 0.0243455116 1.6098603 -0.137455359 0.0199634247 1.6039629 -0.135429218 0.0223798323 1.60242712 -0.134991676 0.0228924956 1.61063623 -0.137707233 0.0193677172 1.60612535 -0.137455359 0.0199634247 1.6039629 -0.137552217 0.019650612 1.60833287 -0.134991676 0.0228924956 1.61063623 -0.13377285 0.0243455116 1.6098603 -0.13402085 0.0235917289 1.609954 -0.13402085 0.0235917289 1.609954 -0.13377285 0.0243455116 1.6098603 -0.133214384 0.0245473366 1.60887361 -0.13377285 0.0243455116 1.6098603 -0.132830113 0.0254716668 1.60773492 -0.133214384 0.0245473366 1.60887361 -0.133214384 0.0245473366 1.60887361 -0.132830113 0.0254716668 1.60773492 -0.132683173 0.0251808204 1.6068083 -0.137552217 0.019650612 1.60833287 -0.136553735 0.0210288018 1.61032784 -0.136371076 0.0207836702 1.60986257 -0.136371076 0.0207836702 1.60986257 -0.136553735 0.0210288018 1.61032784 -0.135249004 0.0221100934 1.61039615 -0.136553735 0.0210288018 1.61032784 -0.134991676 0.0228924956 1.61063623 -0.135249004 0.0221100934 1.61039615 -0.135249004 0.0221100934 1.61039615 -0.134991676 0.0228924956 1.61063623 -0.13402085 0.0235917289 1.609954 -0.132683173 0.0251808204 1.6068083 -0.133073643 0.0247206278 1.60466337 -0.131199434 0.0227541216 1.60411084 -0.133073643 0.0247206278 1.60466337 -0.133729383 0.0241261516 1.60355008 -0.131199434 0.0227541216 1.60411084 -0.13307856 0.0205057636 1.61039257 -0.13402085 0.0235917289 1.609954 -0.131548181 0.0223307274 1.60961962 -0.135249004 0.0221100934 1.61039615 -0.13402085 0.0235917289 1.609954 -0.13307856 0.0205057636 1.61039257 -0.131199434 0.0227541216 1.60411084 -0.133729383 0.0241261516 1.60355008 -0.132604063 0.0210818425 1.6028831 -0.133729383 0.0241261516 1.60355008 -0.134779736 0.0226801652 1.60284996 -0.132604063 0.0210818425 1.6028831 -0.13402085 0.0235917289 1.609954 -0.133214384 0.0245473366 1.60887361 -0.131548181 0.0223307274 1.60961962 -0.131548181 0.0223307274 1.60961962 -0.133214384 0.0245473366 1.60887361 -0.130622134 0.0234380048 1.60698164 -0.133214384 0.0245473366 1.60887361 -0.132683173 0.0251808204 1.6068083 -0.130622134 0.0234380048 1.60698164 -0.130622134 0.0234380048 1.60698164 -0.132683173 0.0251808204 1.6068083 -0.131199434 0.0227541216 1.60411084 -0.134611115 0.0186803769 1.60962498 -0.134975448 0.018253943 1.60411739 -0.135544538 0.0175715797 1.60699022 -0.131548181 0.0223307274 1.60961962 -0.132604063 0.0210818425 1.6028831 -0.133723751 0.0197473075 1.60295987 -0.131548181 0.0223307274 1.60961962 -0.131199434 0.0227541216 1.60411084 -0.132604063 0.0210818425 1.6028831 -0.131548181 0.0223307274 1.60961962 -0.130622134 0.0234380048 1.60698164 -0.131199434 0.0227541216 1.60411084 -0.131548181 0.0223307274 1.60961962 -0.133723751 0.0197473075 1.60295987 -0.13307856 0.0205057636 1.61039257 -0.13307856 0.0205057636 1.61039257 -0.133723751 0.0197473075 1.60295987 -0.134975448 0.018253943 1.60411739 -0.13307856 0.0205057636 1.61039257 -0.134975448 0.018253943 1.60411739 -0.134611115 0.0186803769 1.60962498 </float_array>
          <technique_common>
            <accessor count="1086" offset="0" source="#mesh_0-positions-array" stride="3">
              <param name="X" type="float" />
              <param name="Y" type="float" />
              <param name="Z" type="float" />
            </accessor>
          </technique_common>
        </source>
        <vertices id="mesh_0-vertices">
          <input semantic="POSITION" source="#mesh_0-positions" />
        </vertices>
        <polylist count="362" material="defaultMaterial">
          <input offset="0" semantic="VERTEX" source="#mesh_0-vertices" />
          <vcount>3 3 3 3 3 3 3 3 3 3 3 3 3 3 3 3 3 3 3 3 3 3 3 3 3 3 3 3 3 3 3 3 3 3 3 3 3 3 3 3 3 3 3 3 3 3 3 3 3 3 3 3 3 3 3 3 3 3 3 3 3 3 3 3 3 3 3 3 3 3 3 3 3 3 3 3 3 3 3 3 3 3 3 3 3 3 3 3 3 3 3 3 3 3 3 3 3 3 3 3 3 3 3 3 3 3 3 3 3 3 3 3 3 3 3 3 3 3 3 3 3 3 3 3 3 3 3 3 3 3 3 3 3 3 3 3 3 3 3 3 3 3 3 3 3 3 3 3 3 3 3 3 3 3 3 3 3 3 3 3 3 3 3 3 3 3 3 3 3 3 3 3 3 3 3 3 3 3 3 3 3 3 3 3 3 3 3 3 3 3 3 3 3 3 3 3 3 3 3 3 3 3 3 3 3 3 3 3 3 3 3 3 3 3 3 3 3 3 3 3 3 3 3 3 3 3 3 3 3 3 3 3 3 3 3 3 3 3 3 3 3 3 3 3 3 3 3 3 3 3 3 3 3 3 3 3 3 3 3 3 3 3 3 3 3 3 3 3 3 3 3 3 3 3 3 3 3 3 3 3 3 3 3 3 3 3 3 3 3 3 3 3 3 3 3 3 3 3 3 3 3 3 3 3 3 3 3 3 3 3 3 3 3 3 3 3 3 3 3 3 3 3 3 3 3 3 3 3 3 3 3 3 3 3 3 3 3 3 3 3 3 3 3 3 3 3 3 3 3 3 3 3 3 3 3 3 3 3 3 3 3 3 </vcount>
          <p>0 1 2 3 4 5 6 7 8 9 10 11 12 13 14 15 16 17 18 19 20 21 22 23 24 25 26 27 28 29 30 31 32 33 34 35 36 37 38 39 40 41 42 43 44 45 46 47 48 49 50 51 52 53 54 55 56 57 58 59 60 61 62 63 64 65 66 67 68 69 70 71 72 73 74 75 76 77 78 79 80 81 82 83 84 85 86 87 88 89 90 91 92 93 94 95 96 97 98 99 100 101 102 103 104 105 106 107 108 109 110 111 112 113 114 115 116 117 118 119 120 121 122 123 124 125 126 127 128 129 130 131 132 133 134 135 136 137 138 139 140 141 142 143 144 145 146 147 148 149 150 151 152 153 154 155 156 157 158 159 160 161 162 163 164 165 166 167 168 169 170 171 172 173 174 175 176 177 178 179 180 181 182 183 184 185 186 187 188 189 190 191 192 193 194 195 196 197 198 199 200 201 202 203 204 205 206 207 208 209 210 211 212 213 214 215 216 217 218 219 220 221 222 223 224 225 226 227 228 229 230 231 232 233 234 235 236 237 238 239 240 241 242 243 244 245 246 247 248 249 250 251 252 253 254 255 256 257 258 259 260 261 262 263 264 265 266 267 268 269 270 271 272 273 274 275 276 277 278 279 280 281 282 283 284 285 286 287 288 289 290 291 292 293 294 295 296 297 298 299 300 301 302 303 304 305 306 307 308 309 310 311 312 313 314 315 316 317 318 319 320 321 322 323 324 325 326 327 328 329 330 331 332 333 334 335 336 337 338 339 340 341 342 343 344 345 346 347 348 349 350 351 352 353 354 355 356 357 358 359 360 361 362 363 364 365 366 367 368 369 370 371 372 373 374 375 376 377 378 379 380 381 382 383 384 385 386 387 388 389 390 391 392 393 394 395 396 397 398 399 400 401 402 403 404 405 406 407 408 409 410 411 412 413 414 415 416 417 418 419 420 421 422 423 424 425 426 427 428 429 430 431 432 433 434 435 436 437 438 439 440 441 442 443 444 445 446 447 448 449 450 451 452 453 454 455 456 457 458 459 460 461 462 463 464 465 466 467 468 469 470 471 472 473 474 475 476 477 478 479 480 481 482 483 484 485 486 487 488 489 490 491 492 493 494 495 496 497 498 499 500 501 502 503 504 505 506 507 508 509 510 511 512 513 514 515 516 517 518 519 520 521 522 523 524 525 526 527 528 529 530 531 532 533 534 535 536 537 538 539 540 541 542 543 544 545 546 547 548 549 550 551 552 553 554 555 556 557 558 559 560 561 562 563 564 565 566 567 568 569 570 571 572 573 574 575 576 577 578 579 580 581 582 583 584 585 586 587 588 589 590 591 592 593 594 595 596 597 598 599 600 601 602 603 604 605 606 607 608 609 610 611 612 613 614 615 616 617 618 619 620 621 622 623 624 625 626 627 628 629 630 631 632 633 634 635 636 637 638 639 640 641 642 643 644 645 646 647 648 649 650 651 652 653 654 655 656 657 658 659 660 661 662 663 664 665 666 667 668 669 670 671 672 673 674 675 676 677 678 679 680 681 682 683 684 685 686 687 688 689 690 691 692 693 694 695 696 697 698 699 700 701 702 703 704 705 706 707 708 709 710 711 712 713 714 715 716 717 718 719 720 721 722 723 724 725 726 727 728 729 730 731 732 733 734 735 736 737 738 739 740 741 742 743 744 745 746 747 748 749 750 751 752 753 754 755 756 757 758 759 760 761 762 763 764 765 766 767 768 769 770 771 772 773 774 775 776 777 778 779 780 781 782 783 784 785 786 787 788 789 790 791 792 793 794 795 796 797 798 799 800 801 802 803 804 805 806 807 808 809 810 811 812 813 814 815 816 817 818 819 820 821 822 823 824 825 826 827 828 829 830 831 832 833 834 835 836 837 838 839 840 841 842 843 844 845 846 847 848 849 850 851 852 853 854 855 856 857 858 859 860 861 862 863 864 865 866 867 868 869 870 871 872 873 874 875 876 877 878 879 880 881 882 883 884 885 886 887 888 889 890 891 892 893 894 895 896 897 898 899 900 901 902 903 904 905 906 907 908 909 910 911 912 913 914 915 916 917 918 919 920 921 922 923 924 925 926 927 928 929 930 931 932 933 934 935 936 937 938 939 940 941 942 943 944 945 946 947 948 949 950 951 952 953 954 955 956 957 958 959 960 961 962 963 964 965 966 967 968 969 970 971 972 973 974 975 976 977 978 979 980 981 982 983 984 985 986 987 988 989 990 991 992 993 994 995 996 997 998 999 1000 1001 1002 1003 1004 1005 1006 1007 1008 1009 1010 1011 1012 1013 1014 1015 1016 1017 1018 1019 1020 1021 1022 1023 1024 1025 1026 1027 1028 1029 1030 1031 1032 1033 1034 1035 1036 1037 1038 1039 1040 1041 1042 1043 1044 1045 1046 1047 1048 1049 1050 1051 1052 1053 1054 1055 1056 1057 1058 1059 1060 1061 1062 1063 1064 1065 1066 1067 1068 1069 1070 1071 1072 1073 1074 1075 1076 1077 1078 1079 1080 1081 1082 1083 1084 1085 </p>
        </polylist>
      </mesh>
    </geometry>
  </library_geometries>
  <library_controllers>
  </library_controllers>
  <library_visual_scenes>
    <visual_scene id="Scene" name="Scene">
      <node id="node" name="" type="NODE">
        <matrix sid="matrix">1 0 0 0 0 1 0 0 0 0 1 0 0 0 0 1</matrix>
        <instance_geometry url="#mesh_0">
          <bind_material>
            <technique_common>
              <instance_material symbol="defaultMaterial" target="#material_0">
              </instance_material>
            </technique_common>
          </bind_material>
        </instance_geometry>
      </node>
    </visual_scene>
  </library_visual_scenes>
  <scene>
    <instance_visual_scene url="#Scene" />
  </scene>
</COLLADA>
