<?xml version="1.0" encoding="UTF-8" standalone="no" ?>
<COLLADA xmlns="http://www.collada.org/2005/11/COLLADASchema" version="1.4.1">
  <asset>
    <contributor>
      <author>Assimp</author>
      <authoring_tool>Assimp Exporter</authoring_tool>
    </contributor>
    <created>2026-04-22T16:09:43</created>
    <modified>2026-04-22T16:09:43</modified>
    <unit name="meter" meter="1" />
    <up_axis>Y_UP</up_axis>
  </asset>
  <library_images>
  </library_images>
  <library_effects>
    <effect id="material_0-fx" name="">
      <profile_COMMON>
        <technique sid="standard">
          <phong>
            <emission>
              <color sid="emission">0   0   0   -0</color>
            </emission>
            <ambient>
              <color sid="ambient">0.699999988   1   0.699999988   1.82499993</color>
            </ambient>
            <diffuse>
              <color sid="diffuse">0.699999988   1   0.699999988   1.82499993</color>
            </diffuse>
            <specular>
              <color sid="specular">0.25   0.25   0.25   -0</color>
            </specular>
          </phong>
        </technique>
      </profile_COMMON>
    </effect>
  </library_effects>
  <library_materials>
    <material id="material_0" name="">
      <instance_effect url="#material_0-fx"/>
    </material>
  </library_materials>
  <library_geometries>
    <geometry id="mesh_0" name="" >
      <mesh>
        <source id="mesh_0-positions" name="mesh_0-positions">
          <float_array id="mesh_0-positions-array" count="792"> 0.746172369 -0.32666111 1.76502085 0.754635632 -0.259649068 1.7512145 0.771458805 -0.355042577 1.72849 0.76136905 -0.361410141 1.80507386 0.745144367 -0.341974556 1.79479456 0.771458805 -0.355042577 1.72849 0.759534895 -0.259652615 1.81927598 0.794582069 -0.259650916 1.83040285 0.743178189 -0.259649903 1.77874267 0.794582069 -0.259650916 1.83040285 0.759534895 -0.259652615 1.81927598 0.779793322 -0.259652644 1.82934928 0.754635632 -0.259649068 1.7512145 0.771969616 -0.259647131 1.73782015 0.771458805 -0.355042577 1.72849 0.771969616 -0.259647131 1.73782015 0.754635632 -0.259649068 1.7512145 0.743178189 -0.259649903 1.77874267 0.821854472 -0.259643018 1.74507868 0.821371734 -0.343001336 1.73183823 0.799263775 -0.259649098 1.73479497 0.771969616 -0.259647131 1.73782015 0.821854472 -0.259643018 1.74507868 0.799263775 -0.259649098 1.73479497 0.838885725 -0.259650379 1.77562773 0.821854472 -0.259643018 1.74507868 0.837886691 -0.259650707 1.79445767 0.794582069 -0.259650916 1.83040285 0.821854472 -0.259643018 1.74507868 0.743178189 -0.259649903 1.77874267 0.821854472 -0.259643018 1.74507868 0.771969616 -0.259647131 1.73782015 0.743178189 -0.259649903 1.77874267 0.82866329 -0.259651929 1.81306076 0.836791933 -0.335647613 1.79747236 0.837886691 -0.259650707 1.79445767 0.836791933 -0.335647613 1.79747236 0.82866329 -0.259651929 1.81306076 0.827464342 -0.333036005 1.81442761 0.821854472 -0.259643018 1.74507868 0.82866329 -0.259651929 1.81306076 0.837886691 -0.259650707 1.79445767 0.82866329 -0.259651929 1.81306076 0.821854472 -0.259643018 1.74507868 0.794582069 -0.259650916 1.83040285 0.82866329 -0.259651929 1.81306076 0.810798943 -0.259652913 1.82667577 0.827464342 -0.333036005 1.81442761 0.810798943 -0.259652913 1.82667577 0.82866329 -0.259651929 1.81306076 0.794582069 -0.259650916 1.83040285 0.746172369 -0.32666111 1.76502085 0.743193269 -0.334858418 1.78133607 0.743178189 -0.259649903 1.77874267 0.745144367 -0.341974556 1.79479456 0.743193269 -0.334858418 1.78133607 0.771458805 -0.355042577 1.72849 0.743193269 -0.334858418 1.78133607 0.746172369 -0.32666111 1.76502085 0.771458805 -0.355042577 1.72849 0.754635632 -0.259649068 1.7512145 0.746992528 -0.259649813 1.76354611 0.743178189 -0.259649903 1.77874267 0.746992528 -0.259649813 1.76354611 0.746172369 -0.32666111 1.76502085 0.743178189 -0.259649903 1.77874267 0.746172369 -0.32666111 1.76502085 0.746992528 -0.259649813 1.76354611 0.754635632 -0.259649068 1.7512145 0.76136905 -0.361410141 1.80507386 0.759848535 -0.349010468 1.8141855 0.745144367 -0.341974556 1.79479456 0.745435238 -0.259652138 1.79825771 0.759534895 -0.259652615 1.81927598 0.743178189 -0.259649903 1.77874267 0.743193269 -0.334858418 1.78133607 0.745435238 -0.259652138 1.79825771 0.743178189 -0.259649903 1.77874267 0.745435238 -0.259652138 1.79825771 0.743193269 -0.334858418 1.78133607 0.745144367 -0.341974556 1.79479456 0.830045402 -0.352863818 1.79988253 0.836791933 -0.335647613 1.79747236 0.827464342 -0.333036005 1.81442761 0.82097578 -0.350780159 1.81478465 0.830045402 -0.352863818 1.79988253 0.827464342 -0.333036005 1.81442761 0.821371734 -0.343001336 1.73183823 0.812062621 -0.354539752 1.72744 0.799263775 -0.259649098 1.73479497 0.812062621 -0.354539752 1.72744 0.800441921 -0.35694167 1.72488904 0.799263775 -0.259649098 1.73479497 0.782672584 -0.357145488 1.7249099 0.771969616 -0.259647131 1.73782015 0.799263775 -0.259649098 1.73479497 0.800441921 -0.35694167 1.72488904 0.782672584 -0.357145488 1.7249099 0.799263775 -0.259649098 1.73479497 0.771969616 -0.259647131 1.73782015 0.782672584 -0.357145488 1.7249099 0.771458805 -0.355042577 1.72849 0.834082067 -0.259648472 1.76085377 0.821854472 -0.259643018 1.74507868 0.838885725 -0.259650379 1.77562773 0.821854472 -0.259643018 1.74507868 0.834082067 -0.259648472 1.76085377 0.821371734 -0.343001336 1.73183823 0.837874532 -0.336255789 1.77101469 0.834082067 -0.259648472 1.76085377 0.838885725 -0.259650379 1.77562773 0.834082067 -0.259648472 1.76085377 0.837874532 -0.336255789 1.77101469 0.821371734 -0.343001336 1.73183823 0.759848535 -0.349010468 1.8141855 0.751365304 -0.335838288 1.80968797 0.745144367 -0.341974556 1.79479456 0.751365304 -0.335838288 1.80968797 0.745435238 -0.259652138 1.79825771 0.745144367 -0.341974556 1.79479456 0.745435238 -0.259652138 1.79825771 0.751365304 -0.335838288 1.80968797 0.759534895 -0.259652615 1.81927598 0.838885486 -0.338538826 1.78480065 0.837874532 -0.336255789 1.77101469 0.838885725 -0.259650379 1.77562773 0.838885486 -0.338538826 1.78480065 0.838885725 -0.259650379 1.77562773 0.837886691 -0.259650707 1.79445767 0.836791933 -0.335647613 1.79747236 0.838885486 -0.338538826 1.78480065 0.837886691 -0.259650707 1.79445767 0.830045402 -0.352863818 1.79988253 0.838885486 -0.338538826 1.78480065 0.836791933 -0.335647613 1.79747236 0.810798943 -0.259652913 1.82667577 0.813538194 -0.339448959 1.82472348 0.827464342 -0.333036005 1.81442761 0.813538194 -0.339448959 1.82472348 0.82097578 -0.350780159 1.81478465 0.827464342 -0.333036005 1.81442761 0.773747504 -0.364724219 1.81256294 0.759848535 -0.349010468 1.8141855 0.76136905 -0.361410141 1.80507386 0.759848535 -0.349010468 1.8141855 0.773747504 -0.364724219 1.81256294 0.778958619 -0.337480485 1.8288089 0.773747504 -0.364724219 1.81256294 0.79252249 -0.347946495 1.82784009 0.778958619 -0.337480485 1.8288089 0.817319691 -0.367059022 1.79919791 0.830045402 -0.352863818 1.79988253 0.82097578 -0.350780159 1.81478465 0.830045402 -0.352863818 1.79988253 0.817319691 -0.367059022 1.79919791 0.826705754 -0.363233536 1.77779973 0.765207708 -0.335098565 1.82300174 0.759848535 -0.349010468 1.8141855 0.778958619 -0.337480485 1.8288089 0.765207708 -0.335098565 1.82300174 0.751365304 -0.335838288 1.80968797 0.759848535 -0.349010468 1.8141855 0.751365304 -0.335838288 1.80968797 0.765207708 -0.335098565 1.82300174 0.759534895 -0.259652615 1.81927598 0.779793322 -0.259652644 1.82934928 0.765207708 -0.335098565 1.82300174 0.778958619 -0.337480485 1.8288089 0.759534895 -0.259652615 1.81927598 0.765207708 -0.335098565 1.82300174 0.779793322 -0.259652644 1.82934928 0.83543545 -0.350921303 1.77922058 0.830045402 -0.352863818 1.79988253 0.826705754 -0.363233536 1.77779973 0.83543545 -0.350921303 1.77922058 0.838885486 -0.338538826 1.78480065 0.830045402 -0.352863818 1.79988253 0.838885486 -0.338538826 1.78480065 0.83543545 -0.350921303 1.77922058 0.837874532 -0.336255789 1.77101469 0.837874532 -0.336255789 1.77101469 0.83543545 -0.350921303 1.77922058 0.821371734 -0.343001336 1.73183823 0.812062621 -0.354539752 1.72744 0.83543545 -0.350921303 1.77922058 0.826705754 -0.363233536 1.77779973 0.83543545 -0.350921303 1.77922058 0.812062621 -0.354539752 1.72744 0.821371734 -0.343001336 1.73183823 0.796649516 -0.331050664 1.83055115 0.810798943 -0.259652913 1.82667577 0.794582069 -0.259650916 1.83040285 0.796649516 -0.331050664 1.83055115 0.813538194 -0.339448959 1.82472348 0.810798943 -0.259652913 1.82667577 0.813538194 -0.339448959 1.82472348 0.796649516 -0.331050664 1.83055115 0.79252249 -0.347946495 1.82784009 0.79252249 -0.347946495 1.82784009 0.796649516 -0.331050664 1.83055115 0.778958619 -0.337480485 1.8288089 0.796649516 -0.331050664 1.83055115 0.779793322 -0.259652644 1.82934928 0.778958619 -0.337480485 1.8288089 0.796649516 -0.331050664 1.83055115 0.794582069 -0.259650916 1.83040285 0.779793322 -0.259652644 1.82934928 0.799501836 -0.372344047 1.77125943 0.816230774 -0.369424999 1.77567983 0.802687645 -0.3722606 1.79962516 0.817319691 -0.367059022 1.79919791 0.816230774 -0.369424999 1.77567983 0.826705754 -0.363233536 1.77779973 0.816230774 -0.369424999 1.77567983 0.817319691 -0.367059022 1.79919791 0.802687645 -0.3722606 1.79962516 0.816230774 -0.369424999 1.77567983 0.812062621 -0.354539752 1.72744 0.826705754 -0.363233536 1.77779973 0.812062621 -0.354539752 1.72744 0.816230774 -0.369424999 1.77567983 0.800441921 -0.35694167 1.72488904 0.816230774 -0.369424999 1.77567983 0.799501836 -0.372344047 1.77125943 0.800441921 -0.35694167 1.72488904 0.782172799 -0.369711161 1.76204932 0.782672584 -0.357145488 1.7249099 0.800441921 -0.35694167 1.72488904 0.799501836 -0.372344047 1.77125943 0.782172799 -0.369711161 1.76204932 0.800441921 -0.35694167 1.72488904 0.782672584 -0.357145488 1.7249099 0.782172799 -0.369711161 1.76204932 0.771458805 -0.355042577 1.72849 0.782172799 -0.369711161 1.76204932 0.76136905 -0.361410141 1.80507386 0.771458805 -0.355042577 1.72849 0.782172799 -0.369711161 1.76204932 0.773747504 -0.364724219 1.81256294 0.76136905 -0.361410141 1.80507386 0.782172799 -0.369711161 1.76204932 0.799501836 -0.372344047 1.77125943 0.802687645 -0.3722606 1.79962516 0.773747504 -0.364724219 1.81256294 0.782172799 -0.369711161 1.76204932 0.802687645 -0.3722606 1.79962516 0.807795525 -0.361082464 1.81565714 0.817319691 -0.367059022 1.79919791 0.82097578 -0.350780159 1.81478465 0.817319691 -0.367059022 1.79919791 0.807795525 -0.361082464 1.81565714 0.802687645 -0.3722606 1.79962516 0.813538194 -0.339448959 1.82472348 0.807795525 -0.361082464 1.81565714 0.82097578 -0.350780159 1.81478465 0.807795525 -0.361082464 1.81565714 0.813538194 -0.339448959 1.82472348 0.79252249 -0.347946495 1.82784009 0.773747504 -0.364724219 1.81256294 0.807795525 -0.361082464 1.81565714 0.79252249 -0.347946495 1.82784009 0.807795525 -0.361082464 1.81565714 0.773747504 -0.364724219 1.81256294 0.802687645 -0.3722606 1.79962516 </float_array>
          <technique_common>
            <accessor count="264" offset="0" source="#mesh_0-positions-array" stride="3">
              <param name="X" type="float" />
              <param name="Y" type="float" />
              <param name="Z" type="float" />
            </accessor>
          </technique_common>
        </source>
        <vertices id="mesh_0-vertices">
          <input semantic="POSITION" source="#mesh_0-positions" />
        </vertices>
        <polylist count="88" material="defaultMaterial">
          <input offset="0" semantic="VERTEX" source="#mesh_0-vertices" />
          <vcount>3 3 3 3 3 3 3 3 3 3 3 3 3 3 3 3 3 3 3 3 3 3 3 3 3 3 3 3 3 3 3 3 3 3 3 3 3 3 3 3 3 3 3 3 3 3 3 3 3 3 3 3 3 3 3 3 3 3 3 3 3 3 3 3 3 3 3 3 3 3 3 3 3 3 3 3 3 3 3 3 3 3 3 3 3 3 3 3 </vcount>
          <p>0 1 2 3 4 5 6 7 8 9 10 11 12 13 14 15 16 17 18 19 20 21 22 23 24 25 26 27 28 29 30 31 32 33 34 35 36 37 38 39 40 41 42 43 44 45 46 47 48 49 50 51 52 53 54 55 56 57 58 59 60 61 62 63 64 65 66 67 68 69 70 71 72 73 74 75 76 77 78 79 80 81 82 83 84 85 86 87 88 89 90 91 92 93 94 95 96 97 98 99 100 101 102 103 104 105 106 107 108 109 110 111 112 113 114 115 116 117 118 119 120 121 122 123 124 125 126 127 128 129 130 131 132 133 134 135 136 137 138 139 140 141 142 143 144 145 146 147 148 149 150 151 152 153 154 155 156 157 158 159 160 161 162 163 164 165 166 167 168 169 170 171 172 173 174 175 176 177 178 179 180 181 182 183 184 185 186 187 188 189 190 191 192 193 194 195 196 197 198 199 200 201 202 203 204 205 206 207 208 209 210 211 212 213 214 215 216 217 218 219 220 221 222 223 224 225 226 227 228 229 230 231 232 233 234 235 236 237 238 239 240 241 242 243 244 245 246 247 248 249 250 251 252 253 254 255 256 257 258 259 260 261 262 263 </p>
        </polylist>
      </mesh>
    </geometry>
  </library_geometries>
  <library_controllers>
  </library_controllers>
  <library_visual_scenes>
    <visual_scene id="Scene" name="Scene">
      <node id="node" name="" type="NODE">
        <matrix sid="matrix">1 0 0 0 0 1 0 0 0 0 1 0 0 0 0 1</matrix>
        <instance_geometry url="#mesh_0">
          <bind_material>
            <technique_common>
              <instance_material symbol="defaultMaterial" target="#material_0">
              </instance_material>
            </technique_common>
          </bind_material>
        </instance_geometry>
      </node>
    </visual_scene>
  </library_visual_scenes>
  <scene>
    <instance_visual_scene url="#Scene" />
  </scene>
</COLLADA>
