<?xml version="1.0" encoding="UTF-8" standalone="no" ?>
<COLLADA xmlns="http://www.collada.org/2005/11/COLLADASchema" version="1.4.1">
  <asset>
    <contributor>
      <author>Assimp</author>
      <authoring_tool>Assimp Exporter</authoring_tool>
    </contributor>
    <created>2026-04-22T16:09:43</created>
    <modified>2026-04-22T16:09:43</modified>
    <unit name="meter" meter="1" />
    <up_axis>Y_UP</up_axis>
  </asset>
  <library_images>
  </library_images>
  <library_effects>
    <effect id="material_0-fx" name="">
      <profile_COMMON>
        <technique sid="standard">
          <phong>
            <emission>
              <color sid="emission">0   0   0   -1.80123341</color>
            </emission>
            <ambient>
              <color sid="ambient">0.400000006   0.400000006   0.400000006   1.16159952</color>
            </ambient>
            <diffuse>
              <color sid="diffuse">0.400000006   0.400000006   0.400000006   1.16159952</color>
            </diffuse>
            <specular>
              <color sid="specular">0.25   0.25   0.25   -1.80123341</color>
            </specular>
          </phong>
        </technique>
      </profile_COMMON>
    </effect>
  </library_effects>
  <library_materials>
    <material id="material_0" name="">
      <instance_effect url="#material_0-fx"/>
    </material>
  </library_materials>
  <library_geometries>
    <geometry id="mesh_0" name="" >
      <mesh>
        <source id="mesh_0-positions" name="mesh_0-positions">
          <float_array id="mesh_0-positions-array" count="3159"> 0.779256999 -0.208759576 1.82277524 0.765452623 -0.207185447 1.82016468 0.753690243 -0.205844805 1.81743741 0.72705394 -0.202806517 1.78400314 0.727128208 -0.201837078 1.78241456 0.729156315 -0.202109739 1.76206148 0.729694843 -0.203104794 1.76022327 0.72705394 -0.202806517 1.78400314 0.729156315 -0.202109739 1.76206148 0.72705394 -0.202806517 1.78400314 0.727128148 -0.201837018 1.78241456 0.727128208 -0.201837078 1.78241456 0.797890544 -0.210882902 1.82562029 0.807078719 -0.211929485 1.82390857 0.80502522 -0.210651472 1.82444251 0.799748719 -0.210069299 1.82541275 0.797890544 -0.210882902 1.82562029 0.80502522 -0.210651472 1.82444251 0.738641083 -0.204129711 1.81209552 0.738906562 -0.203635991 1.81223238 0.753690243 -0.205844805 1.81743741 0.787833571 -0.209736779 1.82522666 0.797890544 -0.210882902 1.82562029 0.799748719 -0.210069299 1.82541275 0.729919791 -0.203134522 1.80124414 0.730163515 -0.202300996 1.80217528 0.732937455 -0.203479022 1.8078258 0.787833571 -0.209736779 1.82522666 0.799748719 -0.210069299 1.82541275 0.79315263 -0.209278703 1.82566583 0.787833571 -0.209736779 1.82522666 0.784897149 -0.20834811 1.82479405 0.767541826 -0.206426829 1.82167196 0.747959971 -0.205191776 1.81691647 0.787833571 -0.209736779 1.82522666 0.767541826 -0.206426829 1.82167196 0.747015178 -0.204138383 1.81659794 0.747959971 -0.205191776 1.81691647 0.767541826 -0.206426829 1.82167196 0.747959971 -0.205191776 1.81691647 0.747015178 -0.204138383 1.81659794 0.74097383 -0.203477889 1.81438148 0.734788358 -0.203690216 1.81101108 0.747959971 -0.205191776 1.81691647 0.74097383 -0.203477889 1.81438148 0.733182073 -0.202583015 1.80966091 0.734788358 -0.203690216 1.81101108 0.74097383 -0.203477889 1.81438148 0.731054783 -0.203264356 1.8072536 0.734788358 -0.203690216 1.81101108 0.733182073 -0.202583015 1.80966091 0.738641083 -0.204129711 1.81209552 0.732937455 -0.203479022 1.8078258 0.738906562 -0.203635991 1.81223238 0.728683412 -0.202992648 1.7921313 0.729043007 -0.203031301 1.76939774 0.728278697 -0.202232689 1.78393173 0.729441047 -0.202154398 1.80384898 0.731054783 -0.203264356 1.8072536 0.733182073 -0.202583015 1.80966091 0.728879988 -0.203016058 1.8018744 0.731054783 -0.203264356 1.8072536 0.729441047 -0.202154398 1.80384898 0.729919791 -0.203134522 1.80124414 0.728683412 -0.202992648 1.7921313 0.72952503 -0.202053383 1.79863012 0.728879988 -0.203016058 1.8018744 0.729441047 -0.202154398 1.80384898 0.727423191 -0.201953873 1.79067218 0.72705394 -0.202806517 1.78400314 0.728879988 -0.203016058 1.8018744 0.727423191 -0.201953873 1.79067218 0.729043007 -0.203031301 1.76939774 0.730262458 -0.203158885 1.76260781 0.729312181 -0.202665135 1.7676177 0.72705394 -0.202806517 1.78400314 0.727423191 -0.201953873 1.79067218 0.727128148 -0.201837018 1.78241456 0.837127984 -0.2141902 1.78880286 0.837598503 -0.215403691 1.78365099 0.837593496 -0.214282289 1.7812916 0.835410416 -0.214011312 1.79608357 0.837598503 -0.215403691 1.78365099 0.837127984 -0.2141902 1.78880286 0.835078895 -0.215117723 1.79708004 0.837598503 -0.215403691 1.78365099 0.835410416 -0.214011312 1.79608357 0.830703318 -0.214620277 1.80604923 0.835078895 -0.215117723 1.79708004 0.835410416 -0.214011312 1.79608357 0.823678374 -0.213820219 1.81440187 0.830703318 -0.214620277 1.80604923 0.828401446 -0.213240877 1.80921841 0.816929936 -0.213051662 1.81948423 0.823678374 -0.213820219 1.81440187 0.818646848 -0.212159231 1.81834018 0.812253237 -0.211466655 1.82193351 0.816929936 -0.213051662 1.81948423 0.818646848 -0.212159231 1.81834018 0.807078719 -0.211929485 1.82390857 0.816929936 -0.213051662 1.81948423 0.812253237 -0.211466655 1.82193351 0.807078719 -0.211929485 1.82390857 0.812253237 -0.211466655 1.82193351 0.80502522 -0.210651472 1.82444251 0.792216897 -0.210227609 1.73921704 0.757504284 -0.206272408 1.74538314 0.782927752 -0.208187222 1.74037302 0.800943613 -0.21122241 1.73962045 0.792216897 -0.210227609 1.73921704 0.796600401 -0.20973745 1.73921323 0.805372477 -0.210698232 1.74054956 0.800943613 -0.21122241 1.73962045 0.796600401 -0.20973745 1.73921323 0.813957691 -0.212705612 1.74377704 0.800943613 -0.21122241 1.73962045 0.805372477 -0.210698232 1.74054956 0.742363155 -0.189690605 1.78750956 0.733262062 -0.19627203 1.79003882 0.743691087 -0.189473525 1.79429615 0.788544416 -0.193335772 1.81206203 0.787447929 -0.20143874 1.81973326 0.795320094 -0.19794865 1.8160032 0.826979399 -0.214190468 1.75390184 0.813957691 -0.212705612 1.74377704 0.819955289 -0.212256297 1.74749911 0.826979399 -0.214190468 1.75390184 0.819955289 -0.212256297 1.74749911 0.826979637 -0.213097379 1.75394726 0.835222363 -0.215131581 1.76821971 0.833083034 -0.214887246 1.76306427 0.835828662 -0.214064345 1.77016604 0.823339701 -0.199298143 1.78868163 0.829486728 -0.204162896 1.78505027 0.825913787 -0.200974807 1.78230798 0.837136626 -0.214208454 1.77610517 0.835222363 -0.215131581 1.76821971 0.835828662 -0.214064345 1.77016604 0.837598503 -0.215403691 1.78365099 0.835222363 -0.215131581 1.76821971 0.837136626 -0.214208454 1.77610517 0.774932444 -0.202143252 1.81933129 0.767541826 -0.206426829 1.82167196 0.784897149 -0.20834811 1.82479405 0.837593496 -0.214282289 1.7812916 0.837598503 -0.215403691 1.78365099 0.837136626 -0.214208454 1.77610517 0.735705912 -0.194178402 1.78269088 0.733262062 -0.19627203 1.79003882 0.742363155 -0.189690605 1.78750956 0.764395833 -0.206076324 1.74385965 0.757504284 -0.206272408 1.74538314 0.74675554 -0.204087824 1.74835432 0.757504284 -0.206272408 1.74538314 0.764395833 -0.206076324 1.74385965 0.782927752 -0.208187222 1.74037302 0.757504284 -0.206272408 1.74538314 0.739087403 -0.204174593 1.75133133 0.74675554 -0.204087824 1.74835432 0.739323139 -0.196469635 1.80644548 0.747162282 -0.196703658 1.80995417 0.754171431 -0.188235894 1.8020947 0.739087403 -0.204174593 1.75133133 0.729694843 -0.203104794 1.76022327 0.732646346 -0.202471957 1.75574684 0.737375021 -0.2030157 1.75225031 0.739087403 -0.204174593 1.75133133 0.732646346 -0.202471957 1.75574684 0.74675554 -0.204087824 1.74835432 0.739087403 -0.204174593 1.75133133 0.737375021 -0.2030157 1.75225031 0.729865551 -0.202420056 1.75991499 0.729694843 -0.203104794 1.76022327 0.729817569 -0.202414304 1.76003015 0.730366766 -0.202474326 1.75879705 0.729694843 -0.203104794 1.76022327 0.729865551 -0.202420056 1.75991499 0.831768453 -0.213616148 1.80422115 0.835410416 -0.214011312 1.79608357 0.828176439 -0.206878483 1.80076694 0.732646346 -0.202471957 1.75574684 0.729694843 -0.203104794 1.76022327 0.730366766 -0.202474326 1.75879705 0.811094701 -0.204712272 1.81702864 0.812253237 -0.211466655 1.82193351 0.818404257 -0.208205283 1.81520975 0.729817569 -0.202414304 1.76003015 0.729694843 -0.203104794 1.76022327 0.729156315 -0.202109739 1.76206148 0.754171431 -0.188235894 1.8020947 0.760079145 -0.187904134 1.80379581 0.769162595 -0.187634766 1.80566657 0.732646346 -0.202471957 1.75574684 0.730366766 -0.202474326 1.75879705 0.729817569 -0.202414304 1.76003015 0.835828662 -0.214064345 1.77016604 0.833083034 -0.214887246 1.76306427 0.829477191 -0.213355377 1.75712645 0.833083034 -0.214887246 1.76306427 0.826979399 -0.214190468 1.75390184 0.829477191 -0.213355377 1.75712645 0.829477191 -0.213355377 1.75712645 0.826979399 -0.214190468 1.75390184 0.826979637 -0.213097379 1.75394726 0.819955289 -0.212256297 1.74749911 0.813957691 -0.212705612 1.74377704 0.814141452 -0.211640358 1.74389088 0.814141452 -0.211640358 1.74389088 0.813957691 -0.212705612 1.74377704 0.805372477 -0.210698232 1.74054956 0.815143824 -0.202732578 1.81185007 0.811094701 -0.204712272 1.81702864 0.818367183 -0.203138158 1.80924761 0.796600401 -0.20973745 1.73921323 0.792216897 -0.210227609 1.73921704 0.791884303 -0.209188387 1.73926473 0.791884303 -0.209188387 1.73926473 0.792216897 -0.210227609 1.73921704 0.782927752 -0.208187222 1.74037302 0.818646848 -0.212159231 1.81834018 0.823678374 -0.213820219 1.81440187 0.828401446 -0.213240877 1.80921841 0.828401446 -0.213240877 1.80921841 0.830703318 -0.214620277 1.80604923 0.831768453 -0.213616148 1.80422115 0.742407918 -0.189674541 1.77905738 0.735705912 -0.194178402 1.78269088 0.742363155 -0.189690605 1.78750956 0.830703318 -0.214620277 1.80604923 0.835410416 -0.214011312 1.79608357 0.831768453 -0.213616148 1.80422115 0.784897149 -0.20834811 1.82479405 0.787833571 -0.209736779 1.82522666 0.79315263 -0.209278703 1.82566583 0.781302452 -0.187961847 1.75814688 0.793783188 -0.190799281 1.76052594 0.793792069 -0.189140871 1.75824618 0.781302452 -0.187961847 1.75814688 0.774022818 -0.189401373 1.76086617 0.793783188 -0.190799281 1.76052594 0.793792069 -0.189140871 1.75824618 0.793783188 -0.190799281 1.76052594 0.798842311 -0.189891145 1.75912654 0.826998293 -0.209495082 1.80704546 0.831768453 -0.213616148 1.80422115 0.828176439 -0.206878483 1.80076694 0.785563231 -0.196820885 1.81559408 0.787447929 -0.20143874 1.81973326 0.788544416 -0.193335772 1.81206203 0.798842311 -0.189891145 1.75912654 0.793783188 -0.190799281 1.76052594 0.806084216 -0.192521602 1.76565754 0.745785236 -0.1891886 1.76721716 0.748317838 -0.190231845 1.76756132 0.751327574 -0.188510671 1.76368713 0.813206911 -0.192777723 1.79324913 0.809003592 -0.191769049 1.79930496 0.821609139 -0.200200796 1.79857218 0.798842311 -0.189891145 1.75912654 0.806084216 -0.192521602 1.76565754 0.808222413 -0.191591367 1.76478696 0.733028889 -0.198096156 1.80199862 0.729441047 -0.202154398 1.80384898 0.735621214 -0.197987914 1.80590975 0.745785236 -0.1891886 1.76721716 0.743197143 -0.189557746 1.77222407 0.748317838 -0.190231845 1.76756132 0.751327574 -0.188510671 1.76368713 0.748317838 -0.190231845 1.76756132 0.774022818 -0.189401373 1.76086617 0.743197143 -0.189557746 1.77222407 0.744895399 -0.190690771 1.77390921 0.748317838 -0.190231845 1.76756132 0.751327574 -0.188510671 1.76368713 0.774022818 -0.189401373 1.76086617 0.757620633 -0.187984392 1.76182842 0.809003592 -0.191769049 1.79930496 0.812421322 -0.195586041 1.80311203 0.821609139 -0.200200796 1.79857218 0.808222413 -0.191591367 1.76478696 0.806084216 -0.192521602 1.76565754 0.810916901 -0.192195788 1.76785815 0.743197143 -0.189557746 1.77222407 0.742407918 -0.189674541 1.77905738 0.744895399 -0.190690771 1.77390921 0.808369994 -0.206755698 1.8202877 0.80502522 -0.210651472 1.82444251 0.812253237 -0.211466655 1.82193351 0.806084216 -0.192521602 1.76565754 0.812493801 -0.194002345 1.77517498 0.810916901 -0.192195788 1.76785815 0.757620633 -0.187984392 1.76182842 0.774022818 -0.189401373 1.76086617 0.761424839 -0.187775224 1.76086605 0.812493801 -0.194002345 1.77517498 0.814985633 -0.193226472 1.77634358 0.810916901 -0.192195788 1.76785815 0.761424839 -0.187775224 1.76086605 0.774022818 -0.189401373 1.76086617 0.773589373 -0.18769075 1.75858164 0.744895399 -0.190690771 1.77390921 0.742407918 -0.189674541 1.77905738 0.744654238 -0.190728694 1.7892921 0.812493801 -0.194002345 1.77517498 0.815741479 -0.193436548 1.78185689 0.814985633 -0.193226472 1.77634358 0.812493801 -0.194002345 1.77517498 0.813575149 -0.194320679 1.78490341 0.815741479 -0.193436548 1.78185689 0.773589373 -0.18769075 1.75858164 0.774022818 -0.189401373 1.76086617 0.781302452 -0.187961847 1.75814688 0.778151691 -0.187826753 1.80668199 0.795814276 -0.189459592 1.80647457 0.772252858 -0.189351842 1.80381191 0.795814276 -0.189459592 1.80647457 0.79205209 -0.190617353 1.80450177 0.772252858 -0.189351842 1.80381191 0.795814276 -0.189459592 1.80647457 0.799179018 -0.191445172 1.80325472 0.79205209 -0.190617353 1.80450177 0.812421322 -0.195586041 1.80311203 0.815143824 -0.202732578 1.81185007 0.818367183 -0.203138158 1.80924761 0.795814276 -0.189459592 1.80647457 0.804739833 -0.190898523 1.80293465 0.799179018 -0.191445172 1.80325472 0.830555081 -0.207199201 1.79544497 0.83200115 -0.207294509 1.78984487 0.823339701 -0.199298143 1.78868163 0.744626999 -0.189353585 1.79625332 0.748020113 -0.188917175 1.7997694 0.749338865 -0.190121666 1.79801524 0.748020113 -0.188917175 1.7997694 0.754171431 -0.188235894 1.8020947 0.749338865 -0.190121666 1.79801524 0.804739833 -0.190898523 1.80293465 0.806769431 -0.192658603 1.79861796 0.799179018 -0.191445172 1.80325472 0.788544416 -0.193335772 1.81206203 0.795320094 -0.19794865 1.8160032 0.795814276 -0.189459592 1.80647457 0.744626999 -0.189353585 1.79625332 0.749338865 -0.190121666 1.79801524 0.744654238 -0.190728694 1.7892921 0.744626999 -0.189353585 1.79625332 0.744654238 -0.190728694 1.7892921 0.743691087 -0.189473525 1.79429615 0.804739833 -0.190898523 1.80293465 0.809003592 -0.191769049 1.79930496 0.806769431 -0.192658603 1.79861796 0.806769431 -0.192658603 1.79861796 0.809003592 -0.191769049 1.79930496 0.81085515 -0.193561718 1.79342675 0.81085515 -0.193561718 1.79342675 0.809003592 -0.191769049 1.79930496 0.813206911 -0.192777723 1.79324913 0.743691087 -0.189473525 1.79429615 0.744654238 -0.190728694 1.7892921 0.742363155 -0.189690605 1.78750956 0.81085515 -0.193561718 1.79342675 0.813206911 -0.192777723 1.79324913 0.813575149 -0.194320679 1.78490341 0.754171431 -0.188235894 1.8020947 0.769162595 -0.187634766 1.80566657 0.749338865 -0.190121666 1.79801524 0.788544416 -0.193335772 1.81206203 0.795814276 -0.189459592 1.80647457 0.778151691 -0.187826753 1.80668199 0.769162595 -0.187634766 1.80566657 0.772252858 -0.189351842 1.80381191 0.749338865 -0.190121666 1.79801524 0.733028889 -0.198096156 1.80199862 0.727423191 -0.201953873 1.79067218 0.729441047 -0.202154398 1.80384898 0.813575149 -0.194320679 1.78490341 0.813206911 -0.192777723 1.79324913 0.815094948 -0.193249881 1.78822923 0.742363155 -0.189690605 1.78750956 0.744654238 -0.190728694 1.7892921 0.742407918 -0.189674541 1.77905738 0.813575149 -0.194320679 1.78490341 0.815094948 -0.193249881 1.78822923 0.815741479 -0.193436548 1.78185689 0.769162595 -0.187634766 1.80566657 0.778151691 -0.187826753 1.80668199 0.772252858 -0.189351842 1.80381191 0.777851522 -0.193722978 1.75253975 0.773589373 -0.18769075 1.75858164 0.781302452 -0.187961847 1.75814688 0.765589237 -0.199677303 1.74864697 0.777653158 -0.200661004 1.74649107 0.764395833 -0.206076324 1.74385965 0.773923934 -0.198060408 1.81584716 0.787447929 -0.20143874 1.81973326 0.785563231 -0.196820885 1.81559408 0.773923934 -0.198060408 1.81584716 0.774932444 -0.202143252 1.81933129 0.787447929 -0.20143874 1.81973326 0.808332026 -0.195478782 1.80734062 0.815143824 -0.202732578 1.81185007 0.812421322 -0.195586041 1.80311203 0.777851522 -0.193722978 1.75253975 0.781302452 -0.187961847 1.75814688 0.789265215 -0.195128322 1.75103509 0.829365611 -0.204429373 1.77612531 0.829486728 -0.204162896 1.78505027 0.83466363 -0.209768042 1.78130865 0.789265215 -0.195128322 1.75103509 0.78851217 -0.201327875 1.74522412 0.777851522 -0.193722978 1.75253975 0.777851522 -0.193722978 1.75253975 0.78851217 -0.201327875 1.74522412 0.777653158 -0.200661004 1.74649107 0.833645761 -0.209779128 1.77291274 0.837136626 -0.214208454 1.77610517 0.835828662 -0.214064345 1.77016604 0.754171431 -0.188235894 1.8020947 0.747162282 -0.196703658 1.80995417 0.760079145 -0.187904134 1.80379581 0.789265215 -0.195128322 1.75103509 0.781302452 -0.187961847 1.75814688 0.793792069 -0.189140871 1.75824618 0.808369994 -0.206755698 1.8202877 0.812253237 -0.211466655 1.82193351 0.811094701 -0.204712272 1.81702864 0.823339701 -0.199298143 1.78868163 0.825913787 -0.200974807 1.78230798 0.821165621 -0.1973003 1.78236365 0.822271943 -0.199109957 1.79267764 0.830555081 -0.207199201 1.79544497 0.823339701 -0.199298143 1.78868163 0.729132175 -0.200349659 1.79365158 0.727423191 -0.201953873 1.79067218 0.733028889 -0.198096156 1.80199862 0.825118244 -0.203460619 1.79962456 0.828176439 -0.206878483 1.80076694 0.830555081 -0.207199201 1.79544497 0.789265215 -0.195128322 1.75103509 0.793785334 -0.201178715 1.7455852 0.78851217 -0.201327875 1.74522412 0.819704831 -0.202203751 1.7587477 0.825488329 -0.20710513 1.75896728 0.821241498 -0.207160115 1.75348699 0.789265215 -0.195128322 1.75103509 0.796462059 -0.197800055 1.7492882 0.793785334 -0.201178715 1.7455852 0.833645761 -0.209779128 1.77291274 0.829365611 -0.204429373 1.77612531 0.83466363 -0.209768042 1.78130865 0.828401446 -0.213240877 1.80921841 0.831768453 -0.213616148 1.80422115 0.826998293 -0.209495082 1.80704546 0.81813395 -0.199121997 1.76246917 0.820919275 -0.199639082 1.76639402 0.819704831 -0.202203751 1.7587477 0.804349661 -0.203813672 1.81933284 0.808369994 -0.206755698 1.8202877 0.811094701 -0.204712272 1.81702864 0.821241498 -0.207160115 1.75348699 0.826979637 -0.213097379 1.75394726 0.818938494 -0.208871216 1.74950433 0.833645761 -0.209779128 1.77291274 0.83466363 -0.209768042 1.78130865 0.837136626 -0.214208454 1.77610517 0.796462059 -0.197800055 1.7492882 0.805188179 -0.199953988 1.74982536 0.804278433 -0.203683034 1.74563706 0.777653158 -0.200661004 1.74649107 0.782927752 -0.208187222 1.74037302 0.764395833 -0.206076324 1.74385965 0.777653158 -0.200661004 1.74649107 0.78851217 -0.201327875 1.74522412 0.782927752 -0.208187222 1.74037302 0.78851217 -0.201327875 1.74522412 0.791884303 -0.209188387 1.73926473 0.782927752 -0.208187222 1.74037302 0.796462059 -0.197800055 1.7492882 0.793792069 -0.189140871 1.75824618 0.798325419 -0.195056424 1.75271773 0.796462059 -0.197800055 1.7492882 0.798325419 -0.195056424 1.75271773 0.805188179 -0.199953988 1.74982536 0.796462059 -0.197800055 1.7492882 0.789265215 -0.195128322 1.75103509 0.793792069 -0.189140871 1.75824618 0.793785334 -0.201178715 1.7455852 0.796462059 -0.197800055 1.7492882 0.799995124 -0.206181332 1.74235439 0.78851217 -0.201327875 1.74522412 0.793079495 -0.205374196 1.74202693 0.791884303 -0.209188387 1.73926473 0.799995124 -0.206181332 1.74235439 0.805372477 -0.210698232 1.74054956 0.796600401 -0.20973745 1.73921323 0.793079495 -0.205374196 1.74202693 0.78851217 -0.201327875 1.74522412 0.793785334 -0.201178715 1.7455852 0.83466363 -0.209768042 1.78130865 0.837593496 -0.214282289 1.7812916 0.837136626 -0.214208454 1.77610517 0.793079495 -0.205374196 1.74202693 0.796600401 -0.20973745 1.73921323 0.791884303 -0.209188387 1.73926473 0.760578871 -0.202424765 1.81778276 0.767541826 -0.206426829 1.82167196 0.774932444 -0.202143252 1.81933129 0.793079495 -0.205374196 1.74202693 0.799995124 -0.206181332 1.74235439 0.796600401 -0.20973745 1.73921323 0.793079495 -0.205374196 1.74202693 0.793785334 -0.201178715 1.7455852 0.799995124 -0.206181332 1.74235439 0.796462059 -0.197800055 1.7492882 0.804278433 -0.203683034 1.74563706 0.799995124 -0.206181332 1.74235439 0.778151691 -0.187826753 1.80668199 0.785563231 -0.196820885 1.81559408 0.788544416 -0.193335772 1.81206203 0.804278433 -0.203683034 1.74563706 0.805188179 -0.199953988 1.74982536 0.811137915 -0.204661682 1.74794555 0.742407918 -0.189674541 1.77905738 0.735226095 -0.19491075 1.77300715 0.735705912 -0.194178402 1.78269088 0.742407918 -0.189674541 1.77905738 0.743197143 -0.189557746 1.77222407 0.735226095 -0.19491075 1.77300715 0.735705912 -0.194178402 1.78269088 0.735226095 -0.19491075 1.77300715 0.730050325 -0.199378774 1.77178919 0.808837116 -0.200992912 1.81439221 0.811094701 -0.204712272 1.81702864 0.815143824 -0.202732578 1.81185007 0.735705912 -0.194178402 1.78269088 0.730050325 -0.199378774 1.77178919 0.728288889 -0.200534686 1.78241527 0.799995124 -0.206181332 1.74235439 0.804278433 -0.203683034 1.74563706 0.805372477 -0.210698232 1.74054956 0.735226095 -0.19491075 1.77300715 0.733290613 -0.197229922 1.76600659 0.730050325 -0.199378774 1.77178919 0.735226095 -0.19491075 1.77300715 0.743197143 -0.189557746 1.77222407 0.733290613 -0.197229922 1.76600659 0.804278433 -0.203683034 1.74563706 0.811137915 -0.204661682 1.74794555 0.805372477 -0.210698232 1.74054956 0.798325419 -0.195056424 1.75271773 0.793792069 -0.189140871 1.75824618 0.798842311 -0.189891145 1.75912654 0.730050325 -0.199378774 1.77178919 0.727128208 -0.201837078 1.78241456 0.728288889 -0.200534686 1.78241527 0.819704831 -0.202203751 1.7587477 0.820919275 -0.199639082 1.76639402 0.826487482 -0.203661606 1.7680521 0.743197143 -0.189557746 1.77222407 0.737186611 -0.195180222 1.76293981 0.733290613 -0.197229922 1.76600659 0.798325419 -0.195056424 1.75271773 0.798842311 -0.189891145 1.75912654 0.805188179 -0.199953988 1.74982536 0.737186611 -0.195180222 1.76293981 0.743197143 -0.189557746 1.77222407 0.745785236 -0.1891886 1.76721716 0.820919275 -0.199639082 1.76639402 0.820339859 -0.197175965 1.77509737 0.824416041 -0.200690389 1.77269292 0.801234901 -0.205921322 1.82208407 0.80502522 -0.210651472 1.82444251 0.808369994 -0.206755698 1.8202877 0.818938494 -0.208871216 1.74950433 0.826979637 -0.213097379 1.75394726 0.819955289 -0.212256297 1.74749911 0.801234901 -0.205921322 1.82208407 0.799748719 -0.210069299 1.82541275 0.80502522 -0.210651472 1.82444251 0.730050325 -0.199378774 1.77178919 0.729156315 -0.202109739 1.76206148 0.727128208 -0.201837078 1.78241456 0.821609139 -0.200200796 1.79857218 0.825118244 -0.203460619 1.79962456 0.830555081 -0.207199201 1.79544497 0.760578871 -0.202424765 1.81778276 0.774932444 -0.202143252 1.81933129 0.773923934 -0.198060408 1.81584716 0.825488329 -0.20710513 1.75896728 0.819704831 -0.202203751 1.7587477 0.828807056 -0.207717031 1.7638123 0.808222413 -0.191591367 1.76478696 0.807415187 -0.194772512 1.75789952 0.798842311 -0.189891145 1.75912654 0.773923934 -0.198060408 1.81584716 0.785563231 -0.196820885 1.81559408 0.778151691 -0.187826753 1.80668199 0.737186611 -0.195180222 1.76293981 0.745785236 -0.1891886 1.76721716 0.738582134 -0.195226684 1.76110971 0.798842311 -0.189891145 1.75912654 0.807415187 -0.194772512 1.75789952 0.805188179 -0.199953988 1.74982536 0.730050325 -0.199378774 1.77178919 0.733290613 -0.197229922 1.76600659 0.729156315 -0.202109739 1.76206148 0.807415187 -0.194772512 1.75789952 0.808222413 -0.191591367 1.76478696 0.814410925 -0.198962241 1.75783122 0.821241498 -0.207160115 1.75348699 0.825488329 -0.20710513 1.75896728 0.826979637 -0.213097379 1.75394726 0.733290613 -0.197229922 1.76600659 0.737186611 -0.195180222 1.76293981 0.734931052 -0.197297364 1.76116037 0.814985633 -0.193226472 1.77634358 0.815741479 -0.193436548 1.78185689 0.820339859 -0.197175965 1.77509737 0.826487482 -0.203661606 1.7680521 0.828807056 -0.207717031 1.7638123 0.819704831 -0.202203751 1.7587477 0.815741479 -0.193436548 1.78185689 0.821165621 -0.1973003 1.78236365 0.820339859 -0.197175965 1.77509737 0.826979637 -0.213097379 1.75394726 0.825488329 -0.20710513 1.75896728 0.829477191 -0.213355377 1.75712645 0.805188179 -0.199953988 1.74982536 0.807415187 -0.194772512 1.75789952 0.811137915 -0.204661682 1.74794555 0.733290613 -0.197229922 1.76600659 0.729817569 -0.202414304 1.76003015 0.729156315 -0.202109739 1.76206148 0.737186611 -0.195180222 1.76293981 0.738582134 -0.195226684 1.76110971 0.734931052 -0.197297364 1.76116037 0.738582134 -0.195226684 1.76110971 0.745785236 -0.1891886 1.76721716 0.744659066 -0.193197459 1.76022625 0.769162595 -0.187634766 1.80566657 0.773923934 -0.198060408 1.81584716 0.778151691 -0.187826753 1.80668199 0.820919275 -0.199639082 1.76639402 0.824416041 -0.200690389 1.77269292 0.826487482 -0.203661606 1.7680521 0.733290613 -0.197229922 1.76600659 0.734931052 -0.197297364 1.76116037 0.729817569 -0.202414304 1.76003015 0.744659066 -0.193197459 1.76022625 0.740735114 -0.197805837 1.75595391 0.738582134 -0.195226684 1.76110971 0.828807056 -0.207717031 1.7638123 0.826487482 -0.203661606 1.7680521 0.830817401 -0.207236528 1.77019846 0.738582134 -0.195226684 1.76110971 0.740735114 -0.197805837 1.75595391 0.734931052 -0.197297364 1.76116037 0.767130971 -0.194800332 1.81209266 0.760578871 -0.202424765 1.81778276 0.773923934 -0.198060408 1.81584716 0.821609139 -0.200200796 1.79857218 0.830555081 -0.207199201 1.79544497 0.822271943 -0.199109957 1.79267764 0.808837116 -0.200992912 1.81439221 0.815143824 -0.202732578 1.81185007 0.808332026 -0.195478782 1.80734062 0.810916901 -0.192195788 1.76785815 0.81813395 -0.199121997 1.76246917 0.808222413 -0.191591367 1.76478696 0.814410925 -0.198962241 1.75783122 0.808222413 -0.191591367 1.76478696 0.81813395 -0.199121997 1.76246917 0.740223169 -0.1937076 1.80225742 0.735621214 -0.197987914 1.80590975 0.739323139 -0.196469635 1.80644548 0.740223169 -0.1937076 1.80225742 0.739323139 -0.196469635 1.80644548 0.748020113 -0.188917175 1.7997694 0.825488329 -0.20710513 1.75896728 0.828807056 -0.207717031 1.7638123 0.831186891 -0.211202413 1.76271617 0.804349661 -0.203813672 1.81933284 0.811094701 -0.204712272 1.81702864 0.808837116 -0.200992912 1.81439221 0.825488329 -0.20710513 1.75896728 0.831186891 -0.211202413 1.76271617 0.829477191 -0.213355377 1.75712645 0.807415187 -0.194772512 1.75789952 0.814563751 -0.20189096 1.75363588 0.811137915 -0.204661682 1.74794555 0.807415187 -0.194772512 1.75789952 0.814410925 -0.198962241 1.75783122 0.814563751 -0.20189096 1.75363588 0.734931052 -0.197297364 1.76116037 0.732646346 -0.202471957 1.75574684 0.729817569 -0.202414304 1.76003015 0.744659066 -0.193197459 1.76022625 0.745785236 -0.1891886 1.76721716 0.751327574 -0.188510671 1.76368713 0.811137915 -0.204661682 1.74794555 0.814141452 -0.211640358 1.74389088 0.805372477 -0.210698232 1.74054956 0.826487482 -0.203661606 1.7680521 0.824416041 -0.200690389 1.77269292 0.829365611 -0.204429373 1.77612531 0.740223169 -0.1937076 1.80225742 0.733028889 -0.198096156 1.80199862 0.735621214 -0.197987914 1.80590975 0.760578871 -0.202424765 1.81778276 0.747015178 -0.204138383 1.81659794 0.767541826 -0.206426829 1.82167196 0.748020113 -0.188917175 1.7997694 0.739323139 -0.196469635 1.80644548 0.754171431 -0.188235894 1.8020947 0.811137915 -0.204661682 1.74794555 0.818938494 -0.208871216 1.74950433 0.814141452 -0.211640358 1.74389088 0.814410925 -0.198962241 1.75783122 0.819704831 -0.202203751 1.7587477 0.814563751 -0.20189096 1.75363588 0.734931052 -0.197297364 1.76116037 0.740735114 -0.197805837 1.75595391 0.732646346 -0.202471957 1.75574684 0.828807056 -0.207717031 1.7638123 0.830817401 -0.207236528 1.77019846 0.831847608 -0.209992364 1.76635587 0.828807056 -0.207717031 1.7638123 0.831847608 -0.209992364 1.76635587 0.831186891 -0.211202413 1.76271617 0.804739833 -0.190898523 1.80293465 0.812421322 -0.195586041 1.80311203 0.809003592 -0.191769049 1.79930496 0.744659066 -0.193197459 1.76022625 0.751327574 -0.188510671 1.76368713 0.757620633 -0.187984392 1.76182842 0.744659066 -0.193197459 1.76022625 0.757620633 -0.187984392 1.76182842 0.746904314 -0.198252276 1.75335968 0.820339859 -0.197175965 1.77509737 0.825913787 -0.200974807 1.78230798 0.824416041 -0.200690389 1.77269292 0.820339859 -0.197175965 1.77509737 0.821165621 -0.1973003 1.78236365 0.825913787 -0.200974807 1.78230798 0.740735114 -0.197805837 1.75595391 0.737375021 -0.2030157 1.75225031 0.732646346 -0.202471957 1.75574684 0.826487482 -0.203661606 1.7680521 0.829365611 -0.204429373 1.77612531 0.830817401 -0.207236528 1.77019846 0.810916901 -0.192195788 1.76785815 0.820919275 -0.199639082 1.76639402 0.81813395 -0.199121997 1.76246917 0.744659066 -0.193197459 1.76022625 0.746904314 -0.198252276 1.75335968 0.740735114 -0.197805837 1.75595391 0.811137915 -0.204661682 1.74794555 0.814563751 -0.20189096 1.75363588 0.818938494 -0.208871216 1.74950433 0.814410925 -0.198962241 1.75783122 0.81813395 -0.199121997 1.76246917 0.819704831 -0.202203751 1.7587477 0.755327821 -0.197757646 1.81287789 0.760578871 -0.202424765 1.81778276 0.767130971 -0.194800332 1.81209266 0.810916901 -0.192195788 1.76785815 0.814985633 -0.193226472 1.77634358 0.820919275 -0.199639082 1.76639402 0.824416041 -0.200690389 1.77269292 0.829486728 -0.204162896 1.78505027 0.829365611 -0.204429373 1.77612531 0.740735114 -0.197805837 1.75595391 0.74675554 -0.204087824 1.74835432 0.737375021 -0.2030157 1.75225031 0.831186891 -0.211202413 1.76271617 0.835828662 -0.214064345 1.77016604 0.829477191 -0.213355377 1.75712645 0.831186891 -0.211202413 1.76271617 0.831847608 -0.209992364 1.76635587 0.835828662 -0.214064345 1.77016604 0.740735114 -0.197805837 1.75595391 0.746904314 -0.198252276 1.75335968 0.74675554 -0.204087824 1.74835432 0.746904314 -0.198252276 1.75335968 0.757620633 -0.187984392 1.76182842 0.753986478 -0.198812574 1.75124705 0.814563751 -0.20189096 1.75363588 0.819704831 -0.202203751 1.7587477 0.821241498 -0.207160115 1.75348699 0.824416041 -0.200690389 1.77269292 0.825913787 -0.200974807 1.78230798 0.829486728 -0.204162896 1.78505027 0.753986478 -0.198812574 1.75124705 0.757620633 -0.187984392 1.76182842 0.761424839 -0.187775224 1.76086605 0.805453777 -0.197134644 1.8116653 0.808837116 -0.200992912 1.81439221 0.808332026 -0.195478782 1.80734062 0.830817401 -0.207236528 1.77019846 0.833645761 -0.209779128 1.77291274 0.831847608 -0.209992364 1.76635587 0.820121109 -0.201078594 1.80346835 0.826998293 -0.209495082 1.80704546 0.828176439 -0.206878483 1.80076694 0.746904314 -0.198252276 1.75335968 0.753986478 -0.198812574 1.75124705 0.74675554 -0.204087824 1.74835432 0.753986478 -0.198812574 1.75124705 0.761424839 -0.187775224 1.76086605 0.763379812 -0.194992021 1.75319934 0.830817401 -0.207236528 1.77019846 0.829365611 -0.204429373 1.77612531 0.833645761 -0.209779128 1.77291274 0.814985633 -0.193226472 1.77634358 0.820339859 -0.197175965 1.77509737 0.820919275 -0.199639082 1.76639402 0.814563751 -0.20189096 1.75363588 0.821241498 -0.207160115 1.75348699 0.818938494 -0.208871216 1.74950433 0.753986478 -0.198812574 1.75124705 0.764395833 -0.206076324 1.74385965 0.74675554 -0.204087824 1.74835432 0.815094948 -0.193249881 1.78822923 0.821165621 -0.1973003 1.78236365 0.815741479 -0.193436548 1.78185689 0.769162595 -0.187634766 1.80566657 0.767130971 -0.194800332 1.81209266 0.773923934 -0.198060408 1.81584716 0.763379812 -0.194992021 1.75319934 0.765589237 -0.199677303 1.74864697 0.753986478 -0.198812574 1.75124705 0.763379812 -0.194992021 1.75319934 0.761424839 -0.187775224 1.76086605 0.773589373 -0.18769075 1.75858164 0.753986478 -0.198812574 1.75124705 0.765589237 -0.199677303 1.74864697 0.764395833 -0.206076324 1.74385965 0.805453777 -0.197134644 1.8116653 0.804349661 -0.203813672 1.81933284 0.808837116 -0.200992912 1.81439221 0.818404257 -0.208205283 1.81520975 0.828401446 -0.213240877 1.80921841 0.826998293 -0.209495082 1.80704546 0.831847608 -0.209992364 1.76635587 0.833645761 -0.209779128 1.77291274 0.835828662 -0.214064345 1.77016604 0.763379812 -0.194992021 1.75319934 0.773589373 -0.18769075 1.75858164 0.777851522 -0.193722978 1.75253975 0.79568541 -0.206720248 1.82369924 0.799748719 -0.210069299 1.82541275 0.801234901 -0.205921322 1.82208407 0.763379812 -0.194992021 1.75319934 0.777851522 -0.193722978 1.75253975 0.777653158 -0.200661004 1.74649107 0.763379812 -0.194992021 1.75319934 0.777653158 -0.200661004 1.74649107 0.765589237 -0.199677303 1.74864697 0.818938494 -0.208871216 1.74950433 0.819955289 -0.212256297 1.74749911 0.814141452 -0.211640358 1.74389088 0.812421322 -0.195586041 1.80311203 0.820121109 -0.201078594 1.80346835 0.821609139 -0.200200796 1.79857218 0.823339701 -0.199298143 1.78868163 0.83200115 -0.207294509 1.78984487 0.829486728 -0.204162896 1.78505027 0.815094948 -0.193249881 1.78822923 0.823339701 -0.199298143 1.78868163 0.821165621 -0.1973003 1.78236365 0.746330619 -0.199550807 1.81261754 0.760578871 -0.202424765 1.81778276 0.755327821 -0.197757646 1.81287789 0.746330619 -0.199550807 1.81261754 0.747015178 -0.204138383 1.81659794 0.760578871 -0.202424765 1.81778276 0.787447929 -0.20143874 1.81973326 0.774932444 -0.202143252 1.81933129 0.792171061 -0.206358507 1.82365966 0.813206911 -0.192777723 1.79324913 0.821609139 -0.200200796 1.79857218 0.822271943 -0.199109957 1.79267764 0.828176439 -0.206878483 1.80076694 0.835410416 -0.214011312 1.79608357 0.830555081 -0.207199201 1.79544497 0.801234901 -0.205921322 1.82208407 0.808369994 -0.206755698 1.8202877 0.804349661 -0.203813672 1.81933284 0.735621214 -0.197987914 1.80590975 0.736464143 -0.201042324 1.81036222 0.739323139 -0.196469635 1.80644548 0.795320094 -0.19794865 1.8160032 0.801237047 -0.198494419 1.81508422 0.795814276 -0.189459592 1.80647457 0.812421322 -0.195586041 1.80311203 0.818367183 -0.203138158 1.80924761 0.820121109 -0.201078594 1.80346835 0.739323139 -0.196469635 1.80644548 0.736464143 -0.201042324 1.81036222 0.747162282 -0.196703658 1.80995417 0.735182285 -0.195584983 1.79808974 0.733028889 -0.198096156 1.80199862 0.740223169 -0.1937076 1.80225742 0.735621214 -0.197987914 1.80590975 0.729441047 -0.202154398 1.80384898 0.733182073 -0.202583015 1.80966091 0.83200115 -0.207294509 1.78984487 0.832646012 -0.207493752 1.78605568 0.829486728 -0.204162896 1.78505027 0.735705912 -0.194178402 1.78269088 0.728288889 -0.200534686 1.78241527 0.733262062 -0.19627203 1.79003882 0.787447929 -0.20143874 1.81973326 0.79568541 -0.206720248 1.82369924 0.795320094 -0.19794865 1.8160032 0.811094701 -0.204712272 1.81702864 0.818404257 -0.208205283 1.81520975 0.818367183 -0.203138158 1.80924761 0.787447929 -0.20143874 1.81973326 0.792171061 -0.206358507 1.82365966 0.79568541 -0.206720248 1.82369924 0.747162282 -0.196703658 1.80995417 0.755327821 -0.197757646 1.81287789 0.760079145 -0.187904134 1.80379581 0.830555081 -0.207199201 1.79544497 0.837127984 -0.2141902 1.78880286 0.83200115 -0.207294509 1.78984487 0.795814276 -0.189459592 1.80647457 0.801237047 -0.198494419 1.81508422 0.805453777 -0.197134644 1.8116653 0.774932444 -0.202143252 1.81933129 0.784897149 -0.20834811 1.82479405 0.792171061 -0.206358507 1.82365966 0.818404257 -0.208205283 1.81520975 0.818646848 -0.212159231 1.81834018 0.828401446 -0.213240877 1.80921841 0.829486728 -0.204162896 1.78505027 0.832646012 -0.207493752 1.78605568 0.83466363 -0.209768042 1.78130865 0.830555081 -0.207199201 1.79544497 0.835410416 -0.214011312 1.79608357 0.837127984 -0.2141902 1.78880286 0.818404257 -0.208205283 1.81520975 0.812253237 -0.211466655 1.82193351 0.818646848 -0.212159231 1.81834018 0.733262062 -0.19627203 1.79003882 0.735182285 -0.195584983 1.79808974 0.743691087 -0.189473525 1.79429615 0.747162282 -0.196703658 1.80995417 0.736464143 -0.201042324 1.81036222 0.746330619 -0.199550807 1.81261754 0.760079145 -0.187904134 1.80379581 0.755327821 -0.197757646 1.81287789 0.769162595 -0.187634766 1.80566657 0.735621214 -0.197987914 1.80590975 0.733182073 -0.202583015 1.80966091 0.736464143 -0.201042324 1.81036222 0.813206911 -0.192777723 1.79324913 0.822271943 -0.199109957 1.79267764 0.815094948 -0.193249881 1.78822923 0.792171061 -0.206358507 1.82365966 0.784897149 -0.20834811 1.82479405 0.79315263 -0.209278703 1.82566583 0.728288889 -0.200534686 1.78241527 0.727423191 -0.201953873 1.79067218 0.733262062 -0.19627203 1.79003882 0.83200115 -0.207294509 1.78984487 0.837127984 -0.2141902 1.78880286 0.832646012 -0.207493752 1.78605568 0.736464143 -0.201042324 1.81036222 0.74097383 -0.203477889 1.81438148 0.746330619 -0.199550807 1.81261754 0.820121109 -0.201078594 1.80346835 0.828176439 -0.206878483 1.80076694 0.825118244 -0.203460619 1.79962456 0.733262062 -0.19627203 1.79003882 0.729132175 -0.200349659 1.79365158 0.735182285 -0.195584983 1.79808974 0.795320094 -0.19794865 1.8160032 0.79568541 -0.206720248 1.82369924 0.804349661 -0.203813672 1.81933284 0.744626999 -0.189353585 1.79625332 0.740223169 -0.1937076 1.80225742 0.748020113 -0.188917175 1.7997694 0.728288889 -0.200534686 1.78241527 0.727128148 -0.201837018 1.78241456 0.727423191 -0.201953873 1.79067218 0.808332026 -0.195478782 1.80734062 0.812421322 -0.195586041 1.80311203 0.804739833 -0.190898523 1.80293465 0.747162282 -0.196703658 1.80995417 0.746330619 -0.199550807 1.81261754 0.755327821 -0.197757646 1.81287789 0.815094948 -0.193249881 1.78822923 0.822271943 -0.199109957 1.79267764 0.823339701 -0.199298143 1.78868163 0.837127984 -0.2141902 1.78880286 0.837593496 -0.214282289 1.7812916 0.832646012 -0.207493752 1.78605568 0.820121109 -0.201078594 1.80346835 0.825118244 -0.203460619 1.79962456 0.821609139 -0.200200796 1.79857218 0.743691087 -0.189473525 1.79429615 0.740223169 -0.1937076 1.80225742 0.744626999 -0.189353585 1.79625332 0.832646012 -0.207493752 1.78605568 0.837593496 -0.214282289 1.7812916 0.83466363 -0.209768042 1.78130865 0.79568541 -0.206720248 1.82369924 0.79315263 -0.209278703 1.82566583 0.799748719 -0.210069299 1.82541275 0.795320094 -0.19794865 1.8160032 0.804349661 -0.203813672 1.81933284 0.801237047 -0.198494419 1.81508422 0.795814276 -0.189459592 1.80647457 0.805453777 -0.197134644 1.8116653 0.804739833 -0.190898523 1.80293465 0.729132175 -0.200349659 1.79365158 0.733028889 -0.198096156 1.80199862 0.735182285 -0.195584983 1.79808974 0.733262062 -0.19627203 1.79003882 0.727423191 -0.201953873 1.79067218 0.729132175 -0.200349659 1.79365158 0.736464143 -0.201042324 1.81036222 0.733182073 -0.202583015 1.80966091 0.74097383 -0.203477889 1.81438148 0.743691087 -0.189473525 1.79429615 0.735182285 -0.195584983 1.79808974 0.740223169 -0.1937076 1.80225742 0.804739833 -0.190898523 1.80293465 0.805453777 -0.197134644 1.8116653 0.808332026 -0.195478782 1.80734062 0.769162595 -0.187634766 1.80566657 0.755327821 -0.197757646 1.81287789 0.767130971 -0.194800332 1.81209266 0.792171061 -0.206358507 1.82365966 0.79315263 -0.209278703 1.82566583 0.79568541 -0.206720248 1.82369924 0.818367183 -0.203138158 1.80924761 0.818404257 -0.208205283 1.81520975 0.826998293 -0.209495082 1.80704546 0.79568541 -0.206720248 1.82369924 0.801234901 -0.205921322 1.82208407 0.804349661 -0.203813672 1.81933284 0.74097383 -0.203477889 1.81438148 0.747015178 -0.204138383 1.81659794 0.746330619 -0.199550807 1.81261754 0.818367183 -0.203138158 1.80924761 0.826998293 -0.209495082 1.80704546 0.820121109 -0.201078594 1.80346835 0.801237047 -0.198494419 1.81508422 0.804349661 -0.203813672 1.81933284 0.805453777 -0.197134644 1.8116653 </float_array>
          <technique_common>
            <accessor count="1053" offset="0" source="#mesh_0-positions-array" stride="3">
              <param name="X" type="float" />
              <param name="Y" type="float" />
              <param name="Z" type="float" />
            </accessor>
          </technique_common>
        </source>
        <vertices id="mesh_0-vertices">
          <input semantic="POSITION" source="#mesh_0-positions" />
        </vertices>
        <polylist count="351" material="defaultMaterial">
          <input offset="0" semantic="VERTEX" source="#mesh_0-vertices" />
          <vcount>3 3 3 3 3 3 3 3 3 3 3 3 3 3 3 3 3 3 3 3 3 3 3 3 3 3 3 3 3 3 3 3 3 3 3 3 3 3 3 3 3 3 3 3 3 3 3 3 3 3 3 3 3 3 3 3 3 3 3 3 3 3 3 3 3 3 3 3 3 3 3 3 3 3 3 3 3 3 3 3 3 3 3 3 3 3 3 3 3 3 3 3 3 3 3 3 3 3 3 3 3 3 3 3 3 3 3 3 3 3 3 3 3 3 3 3 3 3 3 3 3 3 3 3 3 3 3 3 3 3 3 3 3 3 3 3 3 3 3 3 3 3 3 3 3 3 3 3 3 3 3 3 3 3 3 3 3 3 3 3 3 3 3 3 3 3 3 3 3 3 3 3 3 3 3 3 3 3 3 3 3 3 3 3 3 3 3 3 3 3 3 3 3 3 3 3 3 3 3 3 3 3 3 3 3 3 3 3 3 3 3 3 3 3 3 3 3 3 3 3 3 3 3 3 3 3 3 3 3 3 3 3 3 3 3 3 3 3 3 3 3 3 3 3 3 3 3 3 3 3 3 3 3 3 3 3 3 3 3 3 3 3 3 3 3 3 3 3 3 3 3 3 3 3 3 3 3 3 3 3 3 3 3 3 3 3 3 3 3 3 3 3 3 3 3 3 3 3 3 3 3 3 3 3 3 3 3 3 3 3 3 3 3 3 3 3 3 3 3 3 3 3 3 3 3 3 3 3 3 3 3 3 3 3 3 3 3 3 3 3 3 3 3 3 3 3 3 3 3 3 3 </vcount>
          <p>0 1 2 3 4 5 6 7 8 9 10 11 12 13 14 15 16 17 18 19 20 21 22 23 24 25 26 27 28 29 30 31 32 33 34 35 36 37 38 39 40 41 42 43 44 45 46 47 48 49 50 51 52 53 54 55 56 57 58 59 60 61 62 63 64 65 66 67 68 69 70 71 72 73 74 75 76 77 78 79 80 81 82 83 84 85 86 87 88 89 90 91 92 93 94 95 96 97 98 99 100 101 102 103 104 105 106 107 108 109 110 111 112 113 114 115 116 117 118 119 120 121 122 123 124 125 126 127 128 129 130 131 132 133 134 135 136 137 138 139 140 141 142 143 144 145 146 147 148 149 150 151 152 153 154 155 156 157 158 159 160 161 162 163 164 165 166 167 168 169 170 171 172 173 174 175 176 177 178 179 180 181 182 183 184 185 186 187 188 189 190 191 192 193 194 195 196 197 198 199 200 201 202 203 204 205 206 207 208 209 210 211 212 213 214 215 216 217 218 219 220 221 222 223 224 225 226 227 228 229 230 231 232 233 234 235 236 237 238 239 240 241 242 243 244 245 246 247 248 249 250 251 252 253 254 255 256 257 258 259 260 261 262 263 264 265 266 267 268 269 270 271 272 273 274 275 276 277 278 279 280 281 282 283 284 285 286 287 288 289 290 291 292 293 294 295 296 297 298 299 300 301 302 303 304 305 306 307 308 309 310 311 312 313 314 315 316 317 318 319 320 321 322 323 324 325 326 327 328 329 330 331 332 333 334 335 336 337 338 339 340 341 342 343 344 345 346 347 348 349 350 351 352 353 354 355 356 357 358 359 360 361 362 363 364 365 366 367 368 369 370 371 372 373 374 375 376 377 378 379 380 381 382 383 384 385 386 387 388 389 390 391 392 393 394 395 396 397 398 399 400 401 402 403 404 405 406 407 408 409 410 411 412 413 414 415 416 417 418 419 420 421 422 423 424 425 426 427 428 429 430 431 432 433 434 435 436 437 438 439 440 441 442 443 444 445 446 447 448 449 450 451 452 453 454 455 456 457 458 459 460 461 462 463 464 465 466 467 468 469 470 471 472 473 474 475 476 477 478 479 480 481 482 483 484 485 486 487 488 489 490 491 492 493 494 495 496 497 498 499 500 501 502 503 504 505 506 507 508 509 510 511 512 513 514 515 516 517 518 519 520 521 522 523 524 525 526 527 528 529 530 531 532 533 534 535 536 537 538 539 540 541 542 543 544 545 546 547 548 549 550 551 552 553 554 555 556 557 558 559 560 561 562 563 564 565 566 567 568 569 570 571 572 573 574 575 576 577 578 579 580 581 582 583 584 585 586 587 588 589 590 591 592 593 594 595 596 597 598 599 600 601 602 603 604 605 606 607 608 609 610 611 612 613 614 615 616 617 618 619 620 621 622 623 624 625 626 627 628 629 630 631 632 633 634 635 636 637 638 639 640 641 642 643 644 645 646 647 648 649 650 651 652 653 654 655 656 657 658 659 660 661 662 663 664 665 666 667 668 669 670 671 672 673 674 675 676 677 678 679 680 681 682 683 684 685 686 687 688 689 690 691 692 693 694 695 696 697 698 699 700 701 702 703 704 705 706 707 708 709 710 711 712 713 714 715 716 717 718 719 720 721 722 723 724 725 726 727 728 729 730 731 732 733 734 735 736 737 738 739 740 741 742 743 744 745 746 747 748 749 750 751 752 753 754 755 756 757 758 759 760 761 762 763 764 765 766 767 768 769 770 771 772 773 774 775 776 777 778 779 780 781 782 783 784 785 786 787 788 789 790 791 792 793 794 795 796 797 798 799 800 801 802 803 804 805 806 807 808 809 810 811 812 813 814 815 816 817 818 819 820 821 822 823 824 825 826 827 828 829 830 831 832 833 834 835 836 837 838 839 840 841 842 843 844 845 846 847 848 849 850 851 852 853 854 855 856 857 858 859 860 861 862 863 864 865 866 867 868 869 870 871 872 873 874 875 876 877 878 879 880 881 882 883 884 885 886 887 888 889 890 891 892 893 894 895 896 897 898 899 900 901 902 903 904 905 906 907 908 909 910 911 912 913 914 915 916 917 918 919 920 921 922 923 924 925 926 927 928 929 930 931 932 933 934 935 936 937 938 939 940 941 942 943 944 945 946 947 948 949 950 951 952 953 954 955 956 957 958 959 960 961 962 963 964 965 966 967 968 969 970 971 972 973 974 975 976 977 978 979 980 981 982 983 984 985 986 987 988 989 990 991 992 993 994 995 996 997 998 999 1000 1001 1002 1003 1004 1005 1006 1007 1008 1009 1010 1011 1012 1013 1014 1015 1016 1017 1018 1019 1020 1021 1022 1023 1024 1025 1026 1027 1028 1029 1030 1031 1032 1033 1034 1035 1036 1037 1038 1039 1040 1041 1042 1043 1044 1045 1046 1047 1048 1049 1050 1051 1052 </p>
        </polylist>
      </mesh>
    </geometry>
  </library_geometries>
  <library_controllers>
  </library_controllers>
  <library_visual_scenes>
    <visual_scene id="Scene" name="Scene">
      <node id="node" name="" type="NODE">
        <matrix sid="matrix">1 0 0 0 0 1 0 0 0 0 1 0 0 0 0 1</matrix>
        <instance_geometry url="#mesh_0">
          <bind_material>
            <technique_common>
              <instance_material symbol="defaultMaterial" target="#material_0">
              </instance_material>
            </technique_common>
          </bind_material>
        </instance_geometry>
      </node>
    </visual_scene>
  </library_visual_scenes>
  <scene>
    <instance_visual_scene url="#Scene" />
  </scene>
</COLLADA>
