<?xml version="1.0" encoding="UTF-8" standalone="no" ?>
<COLLADA xmlns="http://www.collada.org/2005/11/COLLADASchema" version="1.4.1">
  <asset>
    <contributor>
      <author>Assimp</author>
      <authoring_tool>Assimp Exporter</authoring_tool>
    </contributor>
    <created>2026-04-22T16:09:44</created>
    <modified>2026-04-22T16:09:44</modified>
    <unit name="meter" meter="1" />
    <up_axis>Y_UP</up_axis>
  </asset>
  <library_images>
  </library_images>
  <library_effects>
    <effect id="material_0-fx" name="">
      <profile_COMMON>
        <technique sid="standard">
          <phong>
            <emission>
              <color sid="emission">0   0   0   -1.87499988</color>
            </emission>
            <ambient>
              <color sid="ambient">0.699999988   0.699999988   0.699999988   -1.29087281</color>
            </ambient>
            <diffuse>
              <color sid="diffuse">0.699999988   0.699999988   0.699999988   -1.29087281</color>
            </diffuse>
            <specular>
              <color sid="specular">0.300000012   0.300000012   0.300000012   0.610321581</color>
            </specular>
          </phong>
        </technique>
      </profile_COMMON>
    </effect>
  </library_effects>
  <library_materials>
    <material id="material_0" name="">
      <instance_effect url="#material_0-fx"/>
    </material>
  </library_materials>
  <library_geometries>
    <geometry id="mesh_0" name="" >
      <mesh>
        <source id="mesh_0-positions" name="mesh_0-positions">
          <float_array id="mesh_0-positions-array" count="3258"> 0.710400879 -0.247577071 1.57151544 0.711126685 -0.251637042 1.57405758 0.711116254 -0.246860832 1.57325554 0.709593117 -0.24838756 1.57084596 0.711126685 -0.251637042 1.57405758 0.710400879 -0.247577071 1.57151544 0.709593117 -0.24838756 1.57084596 0.708102584 -0.249880433 1.57068229 0.711126685 -0.251637042 1.57405758 0.708102584 -0.249880433 1.57068229 0.706915379 -0.251053929 1.57175314 0.711126685 -0.251637042 1.57405758 0.706291556 -0.251693368 1.57359314 0.711126685 -0.251637042 1.57405758 0.706915379 -0.251053929 1.57175314 0.707690597 -0.262944072 1.61508405 0.723244488 -0.24921222 1.61505949 0.708691478 -0.263805509 1.61504877 0.707690597 -0.262944072 1.61508405 0.722279847 -0.248107791 1.6150614 0.723244488 -0.24921222 1.61505949 0.707056224 -0.262198985 1.61273623 0.721597791 -0.247701094 1.61394882 0.707005143 -0.262253672 1.6142782 0.707056224 -0.262198985 1.61273623 0.721669376 -0.247585878 1.61271024 0.721597791 -0.247701094 1.61394882 0.696539521 -0.251715332 1.61724198 0.700353682 -0.255691856 1.61730278 0.696499169 -0.251699775 1.61890852 0.700413585 -0.255571663 1.61520565 0.702167094 -0.257550985 1.61523652 0.700353682 -0.255691856 1.61730278 0.70376265 -0.258967787 1.60019386 0.706676304 -0.262054652 1.60133314 0.702905536 -0.258105576 1.6012727 0.702905536 -0.258105576 1.6012727 0.706676304 -0.262054652 1.60133314 0.702783883 -0.258033425 1.61424637 0.702783883 -0.258033425 1.61424637 0.706676304 -0.262054652 1.60133314 0.707005143 -0.262253672 1.6142782 0.70376265 -0.258967787 1.60019386 0.706215203 -0.261355489 1.60021985 0.706676304 -0.262054652 1.60133314 0.707005143 -0.262253672 1.6142782 0.707690597 -0.262944072 1.61508405 0.702167094 -0.257550985 1.61523652 0.702783883 -0.258033425 1.61424637 0.707005143 -0.262253672 1.6142782 0.702167094 -0.257550985 1.61523652 0.702167094 -0.257550985 1.61523652 0.70932126 -0.264659762 1.6173079 0.700353682 -0.255691856 1.61730278 0.707690597 -0.262944072 1.61508405 0.70932126 -0.264659762 1.6173079 0.702167094 -0.257550985 1.61523652 0.707690597 -0.262944072 1.61508405 0.709500492 -0.264543146 1.61512887 0.70932126 -0.264659762 1.6173079 0.70932126 -0.264659762 1.6173079 0.713296592 -0.268532097 1.61888766 0.700353682 -0.255691856 1.61730278 0.700353682 -0.255691856 1.61730278 0.713296592 -0.268532097 1.61888766 0.696499169 -0.251699775 1.61890852 0.70932126 -0.264659762 1.6173079 0.713297665 -0.268474072 1.61725128 0.713296592 -0.268532097 1.61888766 0.716538429 -0.242633447 1.61503816 0.712409019 -0.24335283 1.6151309 0.715034544 -0.240951195 1.61521649 0.716538429 -0.242633447 1.61503816 0.702080607 -0.257057458 1.61502993 0.712409019 -0.24335283 1.6151309 0.712409019 -0.24335283 1.6151309 0.702080607 -0.257057458 1.61502993 0.702851117 -0.252847493 1.61513293 0.702080607 -0.257057458 1.61502993 0.700413585 -0.255571663 1.61520565 0.702851117 -0.252847493 1.61513293 0.702705681 -0.250361472 1.61517107 0.700430095 -0.24786149 1.61516976 0.709964275 -0.243597224 1.61505318 0.709964275 -0.243597224 1.61505318 0.700430095 -0.24786149 1.61516976 0.70728904 -0.240932003 1.61522484 0.712409019 -0.24335283 1.6151309 0.702851117 -0.252847493 1.61513293 0.709964275 -0.243597224 1.61505318 0.702851117 -0.252847493 1.61513293 0.702705681 -0.250361472 1.61517107 0.709964275 -0.243597224 1.61505318 0.711176872 -0.237078518 1.61725283 0.707238734 -0.24090226 1.61728835 0.711175799 -0.237039119 1.61890018 0.70728904 -0.240932003 1.61522484 0.700363398 -0.247777343 1.61728323 0.707238734 -0.24090226 1.61728835 0.700430095 -0.24786149 1.61516976 0.700363398 -0.247777343 1.61728323 0.70728904 -0.240932003 1.61522484 0.696539521 -0.251715332 1.61724198 0.696499169 -0.251699775 1.61890852 0.700363398 -0.247777343 1.61728323 0.696499169 -0.251699775 1.61890852 0.711175799 -0.237039119 1.61890018 0.707238734 -0.24090226 1.61728835 0.696499169 -0.251699775 1.61890852 0.707238734 -0.24090226 1.61728835 0.700363398 -0.247777343 1.61728323 0.727973163 -0.253821701 1.61892879 0.72413969 -0.257748812 1.61729872 0.727935016 -0.253837228 1.61726213 0.72413969 -0.257748812 1.61729872 0.717220783 -0.264601171 1.61521578 0.724030912 -0.257726073 1.61517465 0.717178643 -0.264666647 1.61727524 0.717220783 -0.264601171 1.61521578 0.72413969 -0.257748812 1.61729872 0.713296592 -0.268532097 1.61888766 0.713297665 -0.268474072 1.61725128 0.717178643 -0.264666647 1.61727524 0.727973163 -0.253821701 1.61892879 0.713296592 -0.268532097 1.61888766 0.72413969 -0.257748812 1.61729872 0.72413969 -0.257748812 1.61729872 0.713296592 -0.268532097 1.61888766 0.717178643 -0.264666647 1.61727524 0.715019464 -0.26226145 1.6150614 0.724030912 -0.257726073 1.61517465 0.717220783 -0.264601171 1.61521578 0.715019464 -0.26226145 1.6150614 0.721739233 -0.255578637 1.61506796 0.724030912 -0.257726073 1.61517465 0.696499169 -0.251699775 1.61890852 0.727973163 -0.253821701 1.61892879 0.711175799 -0.237039119 1.61890018 0.696499169 -0.251699775 1.61890852 0.713296592 -0.268532097 1.61888766 0.727973163 -0.253821701 1.61892879 0.717630565 -0.243437663 1.60133779 0.702905536 -0.258105576 1.6012727 0.71746546 -0.243298054 1.61430442 0.702905536 -0.258105576 1.6012727 0.702783883 -0.258033425 1.61424637 0.71746546 -0.243298054 1.61430442 0.706215203 -0.261355489 1.60021985 0.70376265 -0.258967787 1.60019386 0.7207129 -0.246634036 1.60018456 0.7207129 -0.246634036 1.60018456 0.70376265 -0.258967787 1.60019386 0.718316197 -0.244159758 1.6002568 0.723989487 -0.250005752 1.61512816 0.722279847 -0.248107791 1.6150614 0.7241503 -0.249899447 1.61731493 0.727973163 -0.253821701 1.61892879 0.7241503 -0.249899447 1.61731493 0.715153217 -0.240892842 1.61731374 0.727973163 -0.253821701 1.61892879 0.715153217 -0.240892842 1.61731374 0.711175799 -0.237039119 1.61890018 0.715153217 -0.240892842 1.61731374 0.711176872 -0.237078518 1.61725283 0.711175799 -0.237039119 1.61890018 0.727935016 -0.253837228 1.61726213 0.7241503 -0.249899447 1.61731493 0.727973163 -0.253821701 1.61892879 0.717003405 -0.242694795 1.61525691 0.715034544 -0.240951195 1.61521649 0.715153217 -0.240892842 1.61731374 0.721527576 -0.247203976 1.60134411 0.71746546 -0.243298054 1.61430442 0.721656084 -0.247346207 1.61432827 0.721527576 -0.247203976 1.60134411 0.717630565 -0.243437663 1.60133779 0.71746546 -0.243298054 1.61430442 0.721527576 -0.247203976 1.60134411 0.718316197 -0.244159758 1.6002568 0.717630565 -0.243437663 1.60133779 0.7207129 -0.246634036 1.60018456 0.718316197 -0.244159758 1.6002568 0.721527576 -0.247203976 1.60134411 0.721656084 -0.247346207 1.61432827 0.71746546 -0.243298054 1.61430442 0.717003405 -0.242694795 1.61525691 0.722279847 -0.248107791 1.6150614 0.721656084 -0.247346207 1.61432827 0.717003405 -0.242694795 1.61525691 0.7241503 -0.249899447 1.61731493 0.717003405 -0.242694795 1.61525691 0.715153217 -0.240892842 1.61731374 0.7241503 -0.249899447 1.61731493 0.722279847 -0.248107791 1.6150614 0.717003405 -0.242694795 1.61525691 0.727935016 -0.253837228 1.61726213 0.721900105 -0.252437204 1.61715829 0.7241503 -0.249899447 1.61731493 0.721666098 -0.254842669 1.61715794 0.721900105 -0.252437204 1.61715829 0.727935016 -0.253837228 1.61726213 0.72413969 -0.257748812 1.61729872 0.721666098 -0.254842669 1.61715794 0.727935016 -0.253837228 1.61726213 0.722113729 -0.255537629 1.61535752 0.721626699 -0.254307032 1.61535776 0.721666098 -0.254842669 1.61715794 0.721666098 -0.254842669 1.61715794 0.721841812 -0.252517164 1.61535931 0.721900105 -0.252437204 1.61715829 0.721626699 -0.254307032 1.61535776 0.721841812 -0.252517164 1.61535931 0.721666098 -0.254842669 1.61715794 0.724030912 -0.257726073 1.61517465 0.722113729 -0.255537629 1.61535752 0.72413969 -0.257748812 1.61729872 0.72413969 -0.257748812 1.61729872 0.722113729 -0.255537629 1.61535752 0.721666098 -0.254842669 1.61715794 0.721841812 -0.252517164 1.61535931 0.7241503 -0.249899447 1.61731493 0.721900105 -0.252437204 1.61715829 0.721841812 -0.252517164 1.61535931 0.723989487 -0.250005752 1.61512816 0.7241503 -0.249899447 1.61731493 0.710029006 -0.243283004 1.6171515 0.707238734 -0.24090226 1.61728835 0.711176872 -0.237078518 1.61725283 0.712514818 -0.243164778 1.61715305 0.711176872 -0.237078518 1.61725283 0.715153217 -0.240892842 1.61731374 0.712514818 -0.243164778 1.61715305 0.710029006 -0.243283004 1.6171515 0.711176872 -0.237078518 1.61725283 0.712514818 -0.243164778 1.61715305 0.712409019 -0.24335283 1.6151309 0.710029006 -0.243283004 1.6171515 0.712409019 -0.24335283 1.6151309 0.709883869 -0.243179202 1.6153574 0.710029006 -0.243283004 1.6171515 0.715034544 -0.240951195 1.61521649 0.712514818 -0.243164778 1.61715305 0.715153217 -0.240892842 1.61731374 0.715034544 -0.240951195 1.61521649 0.712409019 -0.24335283 1.6151309 0.712514818 -0.243164778 1.61715305 0.709883869 -0.243179202 1.6153574 0.70728904 -0.240932003 1.61522484 0.710029006 -0.243283004 1.6171515 0.710029006 -0.243283004 1.6171515 0.70728904 -0.240932003 1.61522484 0.707238734 -0.24090226 1.61728835 0.713297665 -0.268474072 1.61725128 0.70932126 -0.264659762 1.6173079 0.71186471 -0.262451679 1.6171509 0.713297665 -0.268474072 1.61725128 0.714303374 -0.262205154 1.61715257 0.717178643 -0.264666647 1.61727524 0.713297665 -0.268474072 1.61725128 0.71186471 -0.262451679 1.6171509 0.714303374 -0.262205154 1.61715257 0.71186471 -0.262451679 1.6171509 0.711992919 -0.262378812 1.61536217 0.714303374 -0.262205154 1.61715257 0.711992919 -0.262378812 1.61536217 0.713769078 -0.262164354 1.61535192 0.714303374 -0.262205154 1.61715257 0.713769078 -0.262164354 1.61535192 0.714992642 -0.262646586 1.61534989 0.714303374 -0.262205154 1.61715257 0.709500492 -0.264543146 1.61512887 0.711992919 -0.262378812 1.61536217 0.71186471 -0.262451679 1.6171509 0.709500492 -0.264543146 1.61512887 0.71186471 -0.262451679 1.6171509 0.70932126 -0.264659762 1.6173079 0.714992642 -0.262646586 1.61534989 0.717220783 -0.264601171 1.61521578 0.717178643 -0.264666647 1.61727524 0.714992642 -0.262646586 1.61534989 0.717178643 -0.264666647 1.61727524 0.714303374 -0.262205154 1.61715257 0.696539521 -0.251715332 1.61724198 0.700363398 -0.247777343 1.61728323 0.702465236 -0.250147969 1.6171459 0.702532172 -0.253190488 1.61714566 0.702465236 -0.250147969 1.6171459 0.702883542 -0.251594067 1.61714602 0.702532172 -0.253190488 1.61714566 0.696539521 -0.251715332 1.61724198 0.702465236 -0.250147969 1.6171459 0.700353682 -0.255691856 1.61730278 0.696539521 -0.251715332 1.61724198 0.702532172 -0.253190488 1.61714566 0.702465236 -0.250147969 1.6171459 0.702705681 -0.250361472 1.61517107 0.702883542 -0.251594067 1.61714602 0.702705681 -0.250361472 1.61517107 0.702851117 -0.252847493 1.61513293 0.702883542 -0.251594067 1.61714602 0.702883542 -0.251594067 1.61714602 0.702851117 -0.252847493 1.61513293 0.702532172 -0.253190488 1.61714566 0.700430095 -0.24786149 1.61516976 0.702705681 -0.250361472 1.61517107 0.702465236 -0.250147969 1.6171459 0.700430095 -0.24786149 1.61516976 0.702465236 -0.250147969 1.6171459 0.700363398 -0.247777343 1.61728323 0.702532172 -0.253190488 1.61714566 0.700413585 -0.255571663 1.61520565 0.700353682 -0.255691856 1.61730278 0.702851117 -0.252847493 1.61513293 0.700413585 -0.255571663 1.61520565 0.702532172 -0.253190488 1.61714566 0.71746546 -0.243298054 1.61430442 0.702783883 -0.258033425 1.61424637 0.716538429 -0.242633447 1.61503816 0.702783883 -0.258033425 1.61424637 0.702080607 -0.257057458 1.61502993 0.716538429 -0.242633447 1.61503816 0.707690597 -0.262944072 1.61508405 0.707005143 -0.262253672 1.6142782 0.722279847 -0.248107791 1.6150614 0.722279847 -0.248107791 1.6150614 0.707005143 -0.262253672 1.6142782 0.721597791 -0.247701094 1.61394882 0.721524 -0.247629389 1.60128808 0.707116067 -0.262059838 1.601367 0.706215203 -0.261355489 1.60021985 0.7207129 -0.246634036 1.60018456 0.721524 -0.247629389 1.60128808 0.706215203 -0.261355489 1.60021985 0.718316197 -0.244159758 1.6002568 0.70376265 -0.258967787 1.60019386 0.702905536 -0.258105576 1.6012727 0.717630565 -0.243437663 1.60133779 0.718316197 -0.244159758 1.6002568 0.702905536 -0.258105576 1.6012727 0.711992919 -0.262378812 1.61536217 0.709500492 -0.264543146 1.61512887 0.712124646 -0.261948764 1.61505365 0.711992919 -0.262378812 1.61536217 0.712124646 -0.261948764 1.61505365 0.713769078 -0.262164354 1.61535192 0.712124646 -0.261948764 1.61505365 0.715019464 -0.26226145 1.6150614 0.713769078 -0.262164354 1.61535192 0.713769078 -0.262164354 1.61535192 0.715019464 -0.26226145 1.6150614 0.714992642 -0.262646586 1.61534989 0.717220783 -0.264601171 1.61521578 0.714992642 -0.262646586 1.61534989 0.715019464 -0.26226145 1.6150614 0.708691478 -0.263805509 1.61504877 0.709500492 -0.264543146 1.61512887 0.707690597 -0.262944072 1.61508405 0.707116067 -0.262059838 1.601367 0.707056224 -0.262198985 1.61273623 0.706676304 -0.262054652 1.60133314 0.707056224 -0.262198985 1.61273623 0.707005143 -0.262253672 1.6142782 0.706676304 -0.262054652 1.60133314 0.706215203 -0.261355489 1.60021985 0.707116067 -0.262059838 1.601367 0.706676304 -0.262054652 1.60133314 0.724030912 -0.257726073 1.61517465 0.721739233 -0.255578637 1.61506796 0.722113729 -0.255537629 1.61535752 0.722113729 -0.255537629 1.61535752 0.721739233 -0.255578637 1.61506796 0.721626699 -0.254307032 1.61535776 0.721739233 -0.255578637 1.61506796 0.72142005 -0.252620637 1.61506081 0.721626699 -0.254307032 1.61535776 0.721626699 -0.254307032 1.61535776 0.72142005 -0.252620637 1.61506081 0.721841812 -0.252517164 1.61535931 0.72142005 -0.252620637 1.61506081 0.723989487 -0.250005752 1.61512816 0.721841812 -0.252517164 1.61535931 0.702783883 -0.258033425 1.61424637 0.702167094 -0.257550985 1.61523652 0.702080607 -0.257057458 1.61502993 0.722279847 -0.248107791 1.6150614 0.723989487 -0.250005752 1.61512816 0.723244488 -0.24921222 1.61505949 0.700413585 -0.255571663 1.61520565 0.702080607 -0.257057458 1.61502993 0.702167094 -0.257550985 1.61523652 0.721597791 -0.247701094 1.61394882 0.721656084 -0.247346207 1.61432827 0.722279847 -0.248107791 1.6150614 0.721669376 -0.247585878 1.61271024 0.721656084 -0.247346207 1.61432827 0.721597791 -0.247701094 1.61394882 0.721527576 -0.247203976 1.60134411 0.721669376 -0.247585878 1.61271024 0.721524 -0.247629389 1.60128808 0.721527576 -0.247203976 1.60134411 0.721656084 -0.247346207 1.61432827 0.721669376 -0.247585878 1.61271024 0.721524 -0.247629389 1.60128808 0.7207129 -0.246634036 1.60018456 0.721527576 -0.247203976 1.60134411 0.716538429 -0.242633447 1.61503816 0.717003405 -0.242694795 1.61525691 0.71746546 -0.243298054 1.61430442 0.715034544 -0.240951195 1.61521649 0.717003405 -0.242694795 1.61525691 0.716538429 -0.242633447 1.61503816 0.709964275 -0.243597224 1.61505318 0.70728904 -0.240932003 1.61522484 0.709883869 -0.243179202 1.6153574 0.712409019 -0.24335283 1.6151309 0.709964275 -0.243597224 1.61505318 0.709883869 -0.243179202 1.6153574 0.712124646 -0.261948764 1.61505365 0.711148858 -0.266243458 1.61504102 0.715019464 -0.26226145 1.6150614 0.712124646 -0.261948764 1.61505365 0.709500492 -0.264543146 1.61512887 0.711148858 -0.266243458 1.61504102 0.706910729 -0.259873331 1.58312237 0.719371557 -0.24743557 1.58314776 0.712543786 -0.26776278 1.59986317 0.719371557 -0.24743557 1.58314776 0.727267623 -0.253086209 1.60002518 0.712543786 -0.26776278 1.59986317 0.706910729 -0.259873331 1.58312237 0.718443036 -0.246587679 1.58305228 0.719371557 -0.24743557 1.58314776 0.706072032 -0.258958817 1.58304286 0.718443036 -0.246587679 1.58305228 0.706910729 -0.259873331 1.58312237 0.70842278 -0.256462067 1.56523919 0.706146896 -0.25889346 1.56921518 0.706629515 -0.258165002 1.56675661 0.715607226 -0.249319404 1.56522286 0.706146896 -0.25889346 1.56921518 0.70842278 -0.256462067 1.56523919 0.718306422 -0.246735781 1.56852293 0.706146896 -0.25889346 1.56921518 0.715607226 -0.249319404 1.56522286 0.718443036 -0.246587679 1.58305228 0.706072032 -0.258958817 1.58304286 0.718306422 -0.246735781 1.56852293 0.718306422 -0.246735781 1.56852293 0.706072032 -0.258958817 1.58304286 0.706146896 -0.25889346 1.56921518 0.718306422 -0.246735781 1.56852293 0.715607226 -0.249319404 1.56522286 0.716812909 -0.248056099 1.56580925 0.70842278 -0.256462067 1.56523919 0.712862134 -0.245539337 1.56519544 0.715607226 -0.249319404 1.56522286 0.704923987 -0.253157467 1.56529999 0.712862134 -0.245539337 1.56519544 0.70842278 -0.256462067 1.56523919 0.702558935 -0.255478472 1.56892753 0.706915379 -0.251053929 1.57175314 0.703789771 -0.254309893 1.56622493 0.703789771 -0.254309893 1.56622493 0.706915379 -0.251053929 1.57175314 0.704923987 -0.253157467 1.56529999 0.706915379 -0.251053929 1.57175314 0.708102584 -0.249880433 1.57068229 0.704923987 -0.253157467 1.56529999 0.702558935 -0.255478472 1.56892753 0.706291556 -0.251693368 1.57359314 0.706915379 -0.251053929 1.57175314 0.704923987 -0.253157467 1.56529999 0.708102584 -0.249880433 1.57068229 0.712617397 -0.245352939 1.56549525 0.702558935 -0.255478472 1.56892753 0.702540398 -0.255422086 1.58304095 0.706291556 -0.251693368 1.57359314 0.702540398 -0.255422086 1.58304095 0.706572711 -0.251411676 1.57555759 0.706291556 -0.251693368 1.57359314 0.708102584 -0.249880433 1.57068229 0.709593117 -0.24838756 1.57084596 0.712617397 -0.245352939 1.56549525 0.709593117 -0.24838756 1.57084596 0.710400879 -0.247577071 1.57151544 0.712617397 -0.245352939 1.56549525 0.702540398 -0.255422086 1.58304095 0.707349479 -0.250622064 1.57689333 0.706572711 -0.251411676 1.57555759 0.712617397 -0.245352939 1.56549525 0.710400879 -0.247577071 1.57151544 0.714290917 -0.243850097 1.56680906 0.710400879 -0.247577071 1.57151544 0.71502471 -0.243079841 1.56885207 0.714290917 -0.243850097 1.56680906 0.702540398 -0.255422086 1.58304095 0.708843648 -0.249149337 1.57753956 0.707349479 -0.250622064 1.57689333 0.711116254 -0.246860832 1.57325554 0.71502471 -0.243079841 1.56885207 0.710400879 -0.247577071 1.57151544 0.710977256 -0.247005582 1.57527947 0.714910746 -0.243051961 1.58304989 0.711116254 -0.246860832 1.57325554 0.710108459 -0.24786967 1.57685757 0.714910746 -0.243051961 1.58304989 0.710977256 -0.247005582 1.57527947 0.711116254 -0.246860832 1.57325554 0.714910746 -0.243051961 1.58304989 0.71502471 -0.243079841 1.56885207 0.708843648 -0.249149337 1.57753956 0.714910746 -0.243051961 1.58304989 0.710108459 -0.24786967 1.57685757 0.702540398 -0.255422086 1.58304095 0.714910746 -0.243051961 1.58304989 0.708843648 -0.249149337 1.57753956 0.702540398 -0.255422086 1.58304095 0.714183509 -0.241955936 1.58320928 0.714910746 -0.243051961 1.58304989 0.701380312 -0.254644006 1.58330274 0.714183509 -0.241955936 1.58320928 0.702540398 -0.255422086 1.58304095 0.707152605 -0.262093723 1.59979701 0.7140764 -0.241915956 1.58347487 0.701380312 -0.254644006 1.58330274 0.721559346 -0.247677639 1.59980512 0.7140764 -0.241915956 1.58347487 0.707152605 -0.262093723 1.59979701 0.707116067 -0.262059838 1.601367 0.721524 -0.247629389 1.60128808 0.707152605 -0.262093723 1.59979701 0.721524 -0.247629389 1.60128808 0.721559346 -0.247677639 1.59980512 0.707152605 -0.262093723 1.59979701 0.721669376 -0.247585878 1.61271024 0.721559346 -0.247677639 1.59980512 0.721524 -0.247629389 1.60128808 0.707152605 -0.262093723 1.59979701 0.707056224 -0.262198985 1.61273623 0.707116067 -0.262059838 1.601367 0.712543786 -0.26776278 1.59986317 0.727267623 -0.253086209 1.60002518 0.712614119 -0.267804503 1.61290646 0.727267623 -0.253086209 1.60002518 0.727251947 -0.253106564 1.61294317 0.712614119 -0.267804503 1.61290646 0.723989487 -0.250005752 1.61512816 0.72142005 -0.252620637 1.61506081 0.7257061 -0.251686722 1.61505187 0.7257061 -0.251686722 1.61505187 0.72142005 -0.252620637 1.61506081 0.721739233 -0.255578637 1.61506796 0.721669376 -0.247585878 1.61271024 0.727251947 -0.253106564 1.61294317 0.727267623 -0.253086209 1.60002518 0.721669376 -0.247585878 1.61271024 0.727267623 -0.253086209 1.60002518 0.72196734 -0.247673392 1.59973454 0.723244488 -0.24921222 1.61505949 0.7257061 -0.251686722 1.61505187 0.727251947 -0.253106564 1.61294317 0.723244488 -0.24921222 1.61505949 0.727251947 -0.253106564 1.61294317 0.721669376 -0.247585878 1.61271024 0.712614119 -0.267804503 1.61290646 0.707056224 -0.262198985 1.61273623 0.712543786 -0.26776278 1.59986317 0.712543786 -0.26776278 1.59986317 0.707056224 -0.262198985 1.61273623 0.707147002 -0.262493312 1.59972417 0.711148858 -0.266243458 1.61504102 0.708691478 -0.263805509 1.61504877 0.712614119 -0.267804503 1.61290646 0.712614119 -0.267804503 1.61290646 0.708691478 -0.263805509 1.61504877 0.707056224 -0.262198985 1.61273623 0.707147002 -0.262493312 1.59972417 0.70660162 -0.259922415 1.58333969 0.712543786 -0.26776278 1.59986317 0.707147002 -0.262493312 1.59972417 0.701380312 -0.254644006 1.58330274 0.70660162 -0.259922415 1.58333969 0.705637515 -0.25895834 1.58331895 0.701380312 -0.254644006 1.58330274 0.702535689 -0.255847633 1.58331084 0.705637515 -0.25895834 1.58331895 0.70660162 -0.259922415 1.58333969 0.701380312 -0.254644006 1.58330274 0.702535689 -0.255847633 1.58331084 0.702558935 -0.255478472 1.56892753 0.705728412 -0.258883029 1.56908691 0.702535689 -0.255847633 1.58331084 0.705728412 -0.258883029 1.56908691 0.705637515 -0.25895834 1.58331895 0.718401134 -0.246215343 1.56937551 0.715336978 -0.243052751 1.58331907 0.718447685 -0.246154591 1.58332956 0.71502471 -0.243079841 1.56885207 0.715336978 -0.243052751 1.58331907 0.718401134 -0.246215343 1.56937551 0.7140764 -0.241915956 1.58347487 0.715336978 -0.243052751 1.58331907 0.714183509 -0.241955936 1.58320928 0.719408691 -0.247115821 1.58334911 0.718447685 -0.246154591 1.58332956 0.7140764 -0.241915956 1.58347487 0.7140764 -0.241915956 1.58347487 0.718447685 -0.246154591 1.58332956 0.715336978 -0.243052751 1.58331907 0.719408691 -0.247115821 1.58334911 0.72196734 -0.247673392 1.59973454 0.727267623 -0.253086209 1.60002518 0.7140764 -0.241915956 1.58347487 0.72196734 -0.247673392 1.59973454 0.719408691 -0.247115821 1.58334911 0.723244488 -0.24921222 1.61505949 0.707056224 -0.262198985 1.61273623 0.708691478 -0.263805509 1.61504877 0.721669376 -0.247585878 1.61271024 0.707056224 -0.262198985 1.61273623 0.723244488 -0.24921222 1.61505949 0.7257061 -0.251686722 1.61505187 0.721739233 -0.255578637 1.61506796 0.727251947 -0.253106564 1.61294317 0.715019464 -0.26226145 1.6150614 0.712614119 -0.267804503 1.61290646 0.721739233 -0.255578637 1.61506796 0.721739233 -0.255578637 1.61506796 0.712614119 -0.267804503 1.61290646 0.727251947 -0.253106564 1.61294317 0.715019464 -0.26226145 1.6150614 0.711148858 -0.266243458 1.61504102 0.712614119 -0.267804503 1.61290646 0.704923987 -0.253157467 1.56529999 0.70842278 -0.256462067 1.56523919 0.706629515 -0.258165002 1.56675661 0.703789771 -0.254309893 1.56622493 0.704923987 -0.253157467 1.56529999 0.706629515 -0.258165002 1.56675661 0.703009546 -0.255384088 1.56758463 0.703789771 -0.254309893 1.56622493 0.706629515 -0.258165002 1.56675661 0.703009546 -0.255384088 1.56758463 0.706629515 -0.258165002 1.56675661 0.705728412 -0.258883029 1.56908691 0.702558935 -0.255478472 1.56892753 0.703009546 -0.255384088 1.56758463 0.705728412 -0.258883029 1.56908691 0.71502471 -0.243079841 1.56885207 0.718401134 -0.246215343 1.56937551 0.717854977 -0.246764988 1.56720328 0.714290917 -0.243850097 1.56680906 0.71502471 -0.243079841 1.56885207 0.717854977 -0.246764988 1.56720328 0.714290917 -0.243850097 1.56680906 0.717854977 -0.246764988 1.56720328 0.716812909 -0.248056099 1.56580925 0.712862134 -0.245539337 1.56519544 0.714290917 -0.243850097 1.56680906 0.716812909 -0.248056099 1.56580925 0.712862134 -0.245539337 1.56519544 0.716812909 -0.248056099 1.56580925 0.715607226 -0.249319404 1.56522286 0.714910746 -0.243051961 1.58304989 0.714183509 -0.241955936 1.58320928 0.715336978 -0.243052751 1.58331907 0.7140764 -0.241915956 1.58347487 0.721559346 -0.247677639 1.59980512 0.72196734 -0.247673392 1.59973454 0.71502471 -0.243079841 1.56885207 0.714910746 -0.243051961 1.58304989 0.715336978 -0.243052751 1.58331907 0.714290917 -0.243850097 1.56680906 0.712862134 -0.245539337 1.56519544 0.712617397 -0.245352939 1.56549525 0.712862134 -0.245539337 1.56519544 0.704923987 -0.253157467 1.56529999 0.712617397 -0.245352939 1.56549525 0.703009546 -0.255384088 1.56758463 0.702558935 -0.255478472 1.56892753 0.703789771 -0.254309893 1.56622493 0.721559346 -0.247677639 1.59980512 0.721669376 -0.247585878 1.61271024 0.72196734 -0.247673392 1.59973454 0.702540398 -0.255422086 1.58304095 0.702558935 -0.255478472 1.56892753 0.702535689 -0.255847633 1.58331084 0.723244488 -0.24921222 1.61505949 0.723989487 -0.250005752 1.61512816 0.7257061 -0.251686722 1.61505187 0.701380312 -0.254644006 1.58330274 0.702540398 -0.255422086 1.58304095 0.702535689 -0.255847633 1.58331084 0.707152605 -0.262093723 1.59979701 0.701380312 -0.254644006 1.58330274 0.707147002 -0.262493312 1.59972417 0.727267623 -0.253086209 1.60002518 0.719371557 -0.24743557 1.58314776 0.719408691 -0.247115821 1.58334911 0.707147002 -0.262493312 1.59972417 0.707056224 -0.262198985 1.61273623 0.707152605 -0.262093723 1.59979701 0.719408691 -0.247115821 1.58334911 0.718443036 -0.246587679 1.58305228 0.718447685 -0.246154591 1.58332956 0.719371557 -0.24743557 1.58314776 0.718443036 -0.246587679 1.58305228 0.719408691 -0.247115821 1.58334911 0.708691478 -0.263805509 1.61504877 0.711148858 -0.266243458 1.61504102 0.709500492 -0.264543146 1.61512887 0.718443036 -0.246587679 1.58305228 0.718306422 -0.246735781 1.56852293 0.718401134 -0.246215343 1.56937551 0.718443036 -0.246587679 1.58305228 0.718401134 -0.246215343 1.56937551 0.718447685 -0.246154591 1.58332956 0.717854977 -0.246764988 1.56720328 0.718401134 -0.246215343 1.56937551 0.718306422 -0.246735781 1.56852293 0.717854977 -0.246764988 1.56720328 0.718306422 -0.246735781 1.56852293 0.716812909 -0.248056099 1.56580925 0.705728412 -0.258883029 1.56908691 0.706629515 -0.258165002 1.56675661 0.706146896 -0.25889346 1.56921518 0.706146896 -0.25889346 1.56921518 0.706072032 -0.258958817 1.58304286 0.705637515 -0.25895834 1.58331895 0.706146896 -0.25889346 1.56921518 0.705637515 -0.25895834 1.58331895 0.705728412 -0.258883029 1.56908691 0.706910729 -0.259873331 1.58312237 0.712543786 -0.26776278 1.59986317 0.70660162 -0.259922415 1.58333969 0.706072032 -0.258958817 1.58304286 0.70660162 -0.259922415 1.58333969 0.705637515 -0.25895834 1.58331895 0.706072032 -0.258958817 1.58304286 0.706910729 -0.259873331 1.58312237 0.70660162 -0.259922415 1.58333969 0.711116254 -0.246860832 1.57325554 0.711126685 -0.251637042 1.57405758 0.710977256 -0.247005582 1.57527947 0.710108459 -0.24786967 1.57685757 0.710977256 -0.247005582 1.57527947 0.711126685 -0.251637042 1.57405758 0.706572711 -0.251411676 1.57555759 0.711126685 -0.251637042 1.57405758 0.706291556 -0.251693368 1.57359314 0.706572711 -0.251411676 1.57555759 0.707349479 -0.250622064 1.57689333 0.711126685 -0.251637042 1.57405758 0.707349479 -0.250622064 1.57689333 0.708843648 -0.249149337 1.57753956 0.711126685 -0.251637042 1.57405758 0.708843648 -0.249149337 1.57753956 0.710108459 -0.24786967 1.57685757 0.711126685 -0.251637042 1.57405758 0.714183509 -0.241955936 1.58320928 0.701380312 -0.254644006 1.58330274 0.7140764 -0.241915956 1.58347487 0.707481027 -0.261905879 1.60794008 0.708106875 -0.261326313 1.6095506 0.709535956 -0.26396817 1.60743475 0.709535956 -0.26396817 1.60743475 0.708106875 -0.261326313 1.6095506 0.710556984 -0.262945622 1.6100719 0.71277982 -0.260726631 1.60333514 0.710751891 -0.25894466 1.60329831 0.711547911 -0.26195848 1.60340905 0.710751891 -0.25894466 1.60329831 0.709218502 -0.260469168 1.60359085 0.711547911 -0.26195848 1.60340905 0.708106875 -0.261326313 1.6095506 0.70898664 -0.260696948 1.61030686 0.710556984 -0.262945622 1.6100719 0.711547911 -0.26195848 1.60340905 0.709218502 -0.260469168 1.60359085 0.710168421 -0.263337344 1.60456347 0.710556984 -0.262945622 1.6100719 0.710218966 -0.259473532 1.6108433 0.712241292 -0.261260957 1.61084342 0.70898664 -0.260696948 1.61030686 0.710218966 -0.259473532 1.6108433 0.710556984 -0.262945622 1.6100719 0.709218502 -0.260469168 1.60359085 0.708206952 -0.261479527 1.60477448 0.710168421 -0.263337344 1.60456347 0.708206952 -0.261479527 1.60477448 0.70771277 -0.261979789 1.60630488 0.710168421 -0.263337344 1.60456347 0.710168421 -0.263337344 1.60456347 0.70771277 -0.261979789 1.60630488 0.709535956 -0.26396817 1.60743475 0.70771277 -0.261979789 1.60630488 0.707481027 -0.261905879 1.60794008 0.709535956 -0.26396817 1.60743475 0.709218502 -0.260469168 1.60359085 0.70859468 -0.260669559 1.60356009 0.708206952 -0.261479527 1.60477448 0.70859468 -0.260669559 1.60356009 0.707432985 -0.261830509 1.60547173 0.708206952 -0.261479527 1.60477448 0.713050187 -0.256637335 1.60726202 0.713011444 -0.256254017 1.60617244 0.712625623 -0.257061154 1.60511601 0.708206952 -0.261479527 1.60477448 0.707432985 -0.261830509 1.60547173 0.70771277 -0.261979789 1.60630488 0.712625623 -0.257061154 1.60511601 0.711925387 -0.257338494 1.60385323 0.711922765 -0.257764906 1.60401785 0.713011444 -0.256254017 1.60617244 0.711925387 -0.257338494 1.60385323 0.712625623 -0.257061154 1.60511601 0.707432985 -0.261830509 1.60547173 0.707481027 -0.261905879 1.60794008 0.70771277 -0.261979789 1.60630488 0.711922765 -0.257764906 1.60401785 0.711925387 -0.257338494 1.60385323 0.710751891 -0.25894466 1.60329831 0.711925387 -0.257338494 1.60385323 0.710366428 -0.258898646 1.60293794 0.710751891 -0.25894466 1.60329831 0.710751891 -0.25894466 1.60329831 0.710366428 -0.258898646 1.60293794 0.709218502 -0.260469168 1.60359085 0.710366428 -0.258898646 1.60293794 0.70859468 -0.260669559 1.60356009 0.709218502 -0.260469168 1.60359085 0.709100544 -0.260159522 1.61089349 0.711925387 -0.257338494 1.60385323 0.71096921 -0.25829193 1.61100626 0.71096921 -0.25829193 1.61100626 0.711925387 -0.257338494 1.60385323 0.712572515 -0.25668925 1.6092906 0.710366428 -0.258898646 1.60293794 0.711925387 -0.257338494 1.60385323 0.709100544 -0.260159522 1.61089349 0.712572515 -0.25668925 1.6092906 0.711925387 -0.257338494 1.60385323 0.713011444 -0.256254017 1.60617244 0.707432985 -0.261830509 1.60547173 0.70859468 -0.260669559 1.60356009 0.707481027 -0.261905879 1.60794008 0.70859468 -0.260669559 1.60356009 0.710366428 -0.258898646 1.60293794 0.707481027 -0.261905879 1.60794008 0.707481027 -0.261905879 1.60794008 0.710366428 -0.258898646 1.60293794 0.708106875 -0.261326313 1.6095506 0.708106875 -0.261326313 1.6095506 0.710366428 -0.258898646 1.60293794 0.709100544 -0.260159522 1.61089349 0.711572528 -0.258104503 1.61040425 0.712572515 -0.25668925 1.6092906 0.712461472 -0.257222593 1.60932589 0.71096921 -0.25829193 1.61100626 0.712572515 -0.25668925 1.6092906 0.711572528 -0.258104503 1.61040425 0.712461472 -0.257222593 1.60932589 0.712572515 -0.25668925 1.6092906 0.713050187 -0.256637335 1.60726202 0.712572515 -0.25668925 1.6092906 0.713011444 -0.256254017 1.60617244 0.713050187 -0.256637335 1.60726202 0.708106875 -0.261326313 1.6095506 0.709100544 -0.260159522 1.61089349 0.70898664 -0.260696948 1.61030686 0.70898664 -0.260696948 1.61030686 0.709100544 -0.260159522 1.61089349 0.710218966 -0.259473532 1.6108433 0.709100544 -0.260159522 1.61089349 0.71096921 -0.25829193 1.61100626 0.710218966 -0.259473532 1.6108433 0.710218966 -0.259473532 1.6108433 0.71096921 -0.25829193 1.61100626 0.711572528 -0.258104503 1.61040425 0.713050187 -0.256637335 1.60726202 0.712625623 -0.257061154 1.60511601 0.714322329 -0.259183496 1.60456657 0.712625623 -0.257061154 1.60511601 0.711922765 -0.257764906 1.60401785 0.714322329 -0.259183496 1.60456657 0.712241292 -0.261260957 1.61084342 0.711572528 -0.258104503 1.61040425 0.713926554 -0.259576201 1.6100744 0.710218966 -0.259473532 1.6108433 0.711572528 -0.258104503 1.61040425 0.712241292 -0.261260957 1.61084342 0.714322329 -0.259183496 1.60456657 0.711922765 -0.257764906 1.60401785 0.71277982 -0.260726631 1.60333514 0.711922765 -0.257764906 1.60401785 0.710751891 -0.25894466 1.60329831 0.71277982 -0.260726631 1.60333514 0.711572528 -0.258104503 1.61040425 0.712461472 -0.257222593 1.60932589 0.713926554 -0.259576201 1.6100744 0.713926554 -0.259576201 1.6100744 0.712461472 -0.257222593 1.60932589 0.714951098 -0.258553207 1.6074388 0.712461472 -0.257222593 1.60932589 0.713050187 -0.256637335 1.60726202 0.714951098 -0.258553207 1.6074388 0.714951098 -0.258553207 1.6074388 0.713050187 -0.256637335 1.60726202 0.714322329 -0.259183496 1.60456657 0.714322329 -0.259183496 1.60456657 0.71277982 -0.260726631 1.60333514 0.711547911 -0.26195848 1.60340905 0.714322329 -0.259183496 1.60456657 0.711547911 -0.26195848 1.60340905 0.710168421 -0.263337344 1.60456347 0.714322329 -0.259183496 1.60456657 0.710168421 -0.263337344 1.60456347 0.709535956 -0.26396817 1.60743475 0.713926554 -0.259576201 1.6100744 0.714322329 -0.259183496 1.60456657 0.709535956 -0.26396817 1.60743475 0.713926554 -0.259576201 1.6100744 0.709535956 -0.26396817 1.60743475 0.710556984 -0.262945622 1.6100719 0.713926554 -0.259576201 1.6100744 0.714951098 -0.258553207 1.6074388 0.714322329 -0.259183496 1.60456657 0.713926554 -0.259576201 1.6100744 0.710556984 -0.262945622 1.6100719 0.712241292 -0.261260957 1.61084342 0.718021393 -0.255483061 1.60744107 0.716199815 -0.253237218 1.6087805 0.71904242 -0.254460514 1.61007822 0.721265256 -0.252241552 1.60334146 0.719237268 -0.250459611 1.60330462 0.720033288 -0.253473401 1.60341537 0.719237268 -0.250459611 1.60330462 0.717703879 -0.251984119 1.60359704 0.720033288 -0.253473401 1.60341537 0.716199815 -0.253237218 1.6087805 0.717472017 -0.252211839 1.61031306 0.71904242 -0.254460514 1.61007822 0.720033288 -0.253473401 1.60341537 0.717703879 -0.251984119 1.60359704 0.718653738 -0.254852206 1.60456967 0.71904242 -0.254460514 1.61007822 0.718704343 -0.250988424 1.61084962 0.720726669 -0.252775878 1.61084974 0.717472017 -0.252211839 1.61031306 0.718704343 -0.250988424 1.61084962 0.71904242 -0.254460514 1.61007822 0.717703879 -0.251984119 1.60359704 0.716692328 -0.252994418 1.60478079 0.718653738 -0.254852206 1.60456967 0.716692328 -0.252994418 1.60478079 0.716025293 -0.253504992 1.60657251 0.718653738 -0.254852206 1.60456967 0.718653738 -0.254852206 1.60456967 0.716025293 -0.253504992 1.60657251 0.718021393 -0.255483061 1.60744107 0.716025293 -0.253504992 1.60657251 0.716199815 -0.253237218 1.6087805 0.718021393 -0.255483061 1.60744107 0.717703879 -0.251984119 1.60359704 0.716332674 -0.252932996 1.60441077 0.716692328 -0.252994418 1.60478079 0.721412659 -0.247849897 1.60819471 0.721327364 -0.247936234 1.60561633 0.721535623 -0.248152211 1.60726833 0.721535623 -0.248152211 1.60726833 0.721327364 -0.247936234 1.60561633 0.721111 -0.248576105 1.60512233 0.716692328 -0.252994418 1.60478079 0.716332674 -0.252932996 1.60441077 0.716025293 -0.253504992 1.60657251 0.721327364 -0.247936234 1.60561633 0.720408201 -0.249110863 1.60400748 0.721111 -0.248576105 1.60512233 0.720408201 -0.249110863 1.60400748 0.718564928 -0.250702083 1.60288024 0.719237268 -0.250459611 1.60330462 0.719237268 -0.250459611 1.60330462 0.718564928 -0.250702083 1.60288024 0.717703879 -0.251984119 1.60359704 0.718564928 -0.250702083 1.60288024 0.716332674 -0.252932996 1.60441077 0.717703879 -0.251984119 1.60359704 0.720370889 -0.248890087 1.61031759 0.721327364 -0.247936234 1.60561633 0.721412659 -0.247849897 1.60819471 0.718564928 -0.250702083 1.60288024 0.721327364 -0.247936234 1.60561633 0.720370889 -0.248890087 1.61031759 0.718564928 -0.250702083 1.60288024 0.720408201 -0.249110863 1.60400748 0.721327364 -0.247936234 1.60561633 0.716199815 -0.253237218 1.6087805 0.716332674 -0.252932996 1.60441077 0.717310488 -0.251951814 1.61077809 0.717310488 -0.251951814 1.61077809 0.716332674 -0.252932996 1.60441077 0.719028413 -0.250231475 1.61109042 0.719028413 -0.250231475 1.61109042 0.718564928 -0.250702083 1.60288024 0.720370889 -0.248890087 1.61031759 0.716332674 -0.252932996 1.60441077 0.718564928 -0.250702083 1.60288024 0.719028413 -0.250231475 1.61109042 0.716025293 -0.253504992 1.60657251 0.716332674 -0.252932996 1.60441077 0.716199815 -0.253237218 1.6087805 0.719028413 -0.250231475 1.61109042 0.720370889 -0.248890087 1.61031759 0.720057964 -0.249619395 1.61041045 0.720057964 -0.249619395 1.61041045 0.720370889 -0.248890087 1.61031759 0.720946908 -0.248737469 1.6093322 0.720370889 -0.248890087 1.61031759 0.721412659 -0.247849897 1.60819471 0.720946908 -0.248737469 1.6093322 0.720946908 -0.248737469 1.6093322 0.721412659 -0.247849897 1.60819471 0.721535623 -0.248152211 1.60726833 0.716199815 -0.253237218 1.6087805 0.717310488 -0.251951814 1.61077809 0.717472017 -0.252211839 1.61031306 0.717472017 -0.252211839 1.61031306 0.717310488 -0.251951814 1.61077809 0.718704343 -0.250988424 1.61084962 0.717310488 -0.251951814 1.61077809 0.719028413 -0.250231475 1.61109042 0.718704343 -0.250988424 1.61084962 0.718704343 -0.250988424 1.61084962 0.719028413 -0.250231475 1.61109042 0.720057964 -0.249619395 1.61041045 0.721535623 -0.248152211 1.60726833 0.721111 -0.248576105 1.60512233 0.722807765 -0.250698388 1.60457277 0.721111 -0.248576105 1.60512233 0.720408201 -0.249110863 1.60400748 0.722807765 -0.250698388 1.60457277 0.720726669 -0.252775878 1.61084974 0.720057964 -0.249619395 1.61041045 0.722411931 -0.251091093 1.61008072 0.718704343 -0.250988424 1.61084962 0.720057964 -0.249619395 1.61041045 0.720726669 -0.252775878 1.61084974 0.722807765 -0.250698388 1.60457277 0.720408201 -0.249110863 1.60400748 0.721265256 -0.252241552 1.60334146 0.720408201 -0.249110863 1.60400748 0.719237268 -0.250459611 1.60330462 0.721265256 -0.252241552 1.60334146 0.720057964 -0.249619395 1.61041045 0.720946908 -0.248737469 1.6093322 0.722411931 -0.251091093 1.61008072 0.722411931 -0.251091093 1.61008072 0.720946908 -0.248737469 1.6093322 0.723436475 -0.250068128 1.60744512 0.720946908 -0.248737469 1.6093322 0.721535623 -0.248152211 1.60726833 0.723436475 -0.250068128 1.60744512 0.723436475 -0.250068128 1.60744512 0.721535623 -0.248152211 1.60726833 0.722807765 -0.250698388 1.60457277 0.71904242 -0.254460514 1.61007822 0.718653738 -0.254852206 1.60456967 0.718021393 -0.255483061 1.60744107 0.722411931 -0.251091093 1.61008072 0.721265256 -0.252241552 1.60334146 0.720033288 -0.253473401 1.60341537 0.722411931 -0.251091093 1.61008072 0.722807765 -0.250698388 1.60457277 0.721265256 -0.252241552 1.60334146 0.722411931 -0.251091093 1.61008072 0.723436475 -0.250068128 1.60744512 0.722807765 -0.250698388 1.60457277 0.722411931 -0.251091093 1.61008072 0.720033288 -0.253473401 1.60341537 0.720726669 -0.252775878 1.61084974 0.720726669 -0.252775878 1.61084974 0.720033288 -0.253473401 1.60341537 0.718653738 -0.254852206 1.60456967 0.720726669 -0.252775878 1.61084974 0.718653738 -0.254852206 1.60456967 0.71904242 -0.254460514 1.61007822 </float_array>
          <technique_common>
            <accessor count="1086" offset="0" source="#mesh_0-positions-array" stride="3">
              <param name="X" type="float" />
              <param name="Y" type="float" />
              <param name="Z" type="float" />
            </accessor>
          </technique_common>
        </source>
        <vertices id="mesh_0-vertices">
          <input semantic="POSITION" source="#mesh_0-positions" />
        </vertices>
        <polylist count="362" material="defaultMaterial">
          <input offset="0" semantic="VERTEX" source="#mesh_0-vertices" />
          <vcount>3 3 3 3 3 3 3 3 3 3 3 3 3 3 3 3 3 3 3 3 3 3 3 3 3 3 3 3 3 3 3 3 3 3 3 3 3 3 3 3 3 3 3 3 3 3 3 3 3 3 3 3 3 3 3 3 3 3 3 3 3 3 3 3 3 3 3 3 3 3 3 3 3 3 3 3 3 3 3 3 3 3 3 3 3 3 3 3 3 3 3 3 3 3 3 3 3 3 3 3 3 3 3 3 3 3 3 3 3 3 3 3 3 3 3 3 3 3 3 3 3 3 3 3 3 3 3 3 3 3 3 3 3 3 3 3 3 3 3 3 3 3 3 3 3 3 3 3 3 3 3 3 3 3 3 3 3 3 3 3 3 3 3 3 3 3 3 3 3 3 3 3 3 3 3 3 3 3 3 3 3 3 3 3 3 3 3 3 3 3 3 3 3 3 3 3 3 3 3 3 3 3 3 3 3 3 3 3 3 3 3 3 3 3 3 3 3 3 3 3 3 3 3 3 3 3 3 3 3 3 3 3 3 3 3 3 3 3 3 3 3 3 3 3 3 3 3 3 3 3 3 3 3 3 3 3 3 3 3 3 3 3 3 3 3 3 3 3 3 3 3 3 3 3 3 3 3 3 3 3 3 3 3 3 3 3 3 3 3 3 3 3 3 3 3 3 3 3 3 3 3 3 3 3 3 3 3 3 3 3 3 3 3 3 3 3 3 3 3 3 3 3 3 3 3 3 3 3 3 3 3 3 3 3 3 3 3 3 3 3 3 3 3 3 3 3 3 3 3 3 3 3 3 3 3 3 3 3 3 3 3 3 </vcount>
          <p>0 1 2 3 4 5 6 7 8 9 10 11 12 13 14 15 16 17 18 19 20 21 22 23 24 25 26 27 28 29 30 31 32 33 34 35 36 37 38 39 40 41 42 43 44 45 46 47 48 49 50 51 52 53 54 55 56 57 58 59 60 61 62 63 64 65 66 67 68 69 70 71 72 73 74 75 76 77 78 79 80 81 82 83 84 85 86 87 88 89 90 91 92 93 94 95 96 97 98 99 100 101 102 103 104 105 106 107 108 109 110 111 112 113 114 115 116 117 118 119 120 121 122 123 124 125 126 127 128 129 130 131 132 133 134 135 136 137 138 139 140 141 142 143 144 145 146 147 148 149 150 151 152 153 154 155 156 157 158 159 160 161 162 163 164 165 166 167 168 169 170 171 172 173 174 175 176 177 178 179 180 181 182 183 184 185 186 187 188 189 190 191 192 193 194 195 196 197 198 199 200 201 202 203 204 205 206 207 208 209 210 211 212 213 214 215 216 217 218 219 220 221 222 223 224 225 226 227 228 229 230 231 232 233 234 235 236 237 238 239 240 241 242 243 244 245 246 247 248 249 250 251 252 253 254 255 256 257 258 259 260 261 262 263 264 265 266 267 268 269 270 271 272 273 274 275 276 277 278 279 280 281 282 283 284 285 286 287 288 289 290 291 292 293 294 295 296 297 298 299 300 301 302 303 304 305 306 307 308 309 310 311 312 313 314 315 316 317 318 319 320 321 322 323 324 325 326 327 328 329 330 331 332 333 334 335 336 337 338 339 340 341 342 343 344 345 346 347 348 349 350 351 352 353 354 355 356 357 358 359 360 361 362 363 364 365 366 367 368 369 370 371 372 373 374 375 376 377 378 379 380 381 382 383 384 385 386 387 388 389 390 391 392 393 394 395 396 397 398 399 400 401 402 403 404 405 406 407 408 409 410 411 412 413 414 415 416 417 418 419 420 421 422 423 424 425 426 427 428 429 430 431 432 433 434 435 436 437 438 439 440 441 442 443 444 445 446 447 448 449 450 451 452 453 454 455 456 457 458 459 460 461 462 463 464 465 466 467 468 469 470 471 472 473 474 475 476 477 478 479 480 481 482 483 484 485 486 487 488 489 490 491 492 493 494 495 496 497 498 499 500 501 502 503 504 505 506 507 508 509 510 511 512 513 514 515 516 517 518 519 520 521 522 523 524 525 526 527 528 529 530 531 532 533 534 535 536 537 538 539 540 541 542 543 544 545 546 547 548 549 550 551 552 553 554 555 556 557 558 559 560 561 562 563 564 565 566 567 568 569 570 571 572 573 574 575 576 577 578 579 580 581 582 583 584 585 586 587 588 589 590 591 592 593 594 595 596 597 598 599 600 601 602 603 604 605 606 607 608 609 610 611 612 613 614 615 616 617 618 619 620 621 622 623 624 625 626 627 628 629 630 631 632 633 634 635 636 637 638 639 640 641 642 643 644 645 646 647 648 649 650 651 652 653 654 655 656 657 658 659 660 661 662 663 664 665 666 667 668 669 670 671 672 673 674 675 676 677 678 679 680 681 682 683 684 685 686 687 688 689 690 691 692 693 694 695 696 697 698 699 700 701 702 703 704 705 706 707 708 709 710 711 712 713 714 715 716 717 718 719 720 721 722 723 724 725 726 727 728 729 730 731 732 733 734 735 736 737 738 739 740 741 742 743 744 745 746 747 748 749 750 751 752 753 754 755 756 757 758 759 760 761 762 763 764 765 766 767 768 769 770 771 772 773 774 775 776 777 778 779 780 781 782 783 784 785 786 787 788 789 790 791 792 793 794 795 796 797 798 799 800 801 802 803 804 805 806 807 808 809 810 811 812 813 814 815 816 817 818 819 820 821 822 823 824 825 826 827 828 829 830 831 832 833 834 835 836 837 838 839 840 841 842 843 844 845 846 847 848 849 850 851 852 853 854 855 856 857 858 859 860 861 862 863 864 865 866 867 868 869 870 871 872 873 874 875 876 877 878 879 880 881 882 883 884 885 886 887 888 889 890 891 892 893 894 895 896 897 898 899 900 901 902 903 904 905 906 907 908 909 910 911 912 913 914 915 916 917 918 919 920 921 922 923 924 925 926 927 928 929 930 931 932 933 934 935 936 937 938 939 940 941 942 943 944 945 946 947 948 949 950 951 952 953 954 955 956 957 958 959 960 961 962 963 964 965 966 967 968 969 970 971 972 973 974 975 976 977 978 979 980 981 982 983 984 985 986 987 988 989 990 991 992 993 994 995 996 997 998 999 1000 1001 1002 1003 1004 1005 1006 1007 1008 1009 1010 1011 1012 1013 1014 1015 1016 1017 1018 1019 1020 1021 1022 1023 1024 1025 1026 1027 1028 1029 1030 1031 1032 1033 1034 1035 1036 1037 1038 1039 1040 1041 1042 1043 1044 1045 1046 1047 1048 1049 1050 1051 1052 1053 1054 1055 1056 1057 1058 1059 1060 1061 1062 1063 1064 1065 1066 1067 1068 1069 1070 1071 1072 1073 1074 1075 1076 1077 1078 1079 1080 1081 1082 1083 1084 1085 </p>
        </polylist>
      </mesh>
    </geometry>
  </library_geometries>
  <library_controllers>
  </library_controllers>
  <library_visual_scenes>
    <visual_scene id="Scene" name="Scene">
      <node id="node" name="" type="NODE">
        <matrix sid="matrix">1 0 0 0 0 1 0 0 0 0 1 0 0 0 0 1</matrix>
        <instance_geometry url="#mesh_0">
          <bind_material>
            <technique_common>
              <instance_material symbol="defaultMaterial" target="#material_0">
              </instance_material>
            </technique_common>
          </bind_material>
        </instance_geometry>
      </node>
    </visual_scene>
  </library_visual_scenes>
  <scene>
    <instance_visual_scene url="#Scene" />
  </scene>
</COLLADA>
