<?xml version="1.0" encoding="UTF-8" standalone="no" ?>
<COLLADA xmlns="http://www.collada.org/2005/11/COLLADASchema" version="1.4.1">
  <asset>
    <contributor>
      <author>Assimp</author>
      <authoring_tool>Assimp Exporter</authoring_tool>
    </contributor>
    <created>2026-04-22T16:09:44</created>
    <modified>2026-04-22T16:09:44</modified>
    <unit name="meter" meter="1" />
    <up_axis>Y_UP</up_axis>
  </asset>
  <library_images>
  </library_images>
  <library_effects>
    <effect id="material_0-fx" name="">
      <profile_COMMON>
        <technique sid="standard">
          <phong>
            <emission>
              <color sid="emission">0   0   0   4.19744942e-41</color>
            </emission>
            <ambient>
              <color sid="ambient">0.694908023   0.65655452   0.659757793   4.19744942e-41</color>
            </ambient>
            <diffuse>
              <color sid="diffuse">0.694908023   0.65655452   0.659757793   4.19744942e-41</color>
            </diffuse>
            <specular>
              <color sid="specular">0.25   0.25   0.25   4.19744942e-41</color>
            </specular>
          </phong>
        </technique>
      </profile_COMMON>
    </effect>
  </library_effects>
  <library_materials>
    <material id="material_0" name="">
      <instance_effect url="#material_0-fx"/>
    </material>
  </library_materials>
  <library_geometries>
    <geometry id="mesh_0" name="" >
      <mesh>
        <source id="mesh_0-positions" name="mesh_0-positions">
          <float_array id="mesh_0-positions-array" count="2700"> -0.183817148 -0.0351369753 1.09577465 -0.185805112 -0.0369436964 1.10264564 -0.186580136 -0.063638173 1.09699833 -0.248204842 0.0212240387 1.13807571 -0.245565146 -0.0425505191 1.13757014 -0.237893447 -0.0431045517 1.13810575 -0.189228117 0.0358284004 0.891114056 -0.192737177 0.0459050797 0.963713109 -0.187832236 0.026420895 1.08906078 -0.215167567 -0.0257311612 0.891123652 -0.213931009 -0.100159839 1.06651163 -0.230164438 -0.0314930789 0.891129315 -0.212954894 -0.0401823372 1.13266957 -0.210395679 0.0245525017 1.12819886 -0.230414197 0.02276567 1.13703001 -0.254210353 -0.102624469 1.06854308 -0.260693252 -0.0995039642 1.06682789 -0.264390975 -0.0285770651 0.891141117 -0.284594953 0.0180488154 1.11873674 -0.292633742 0.0173277576 1.10561478 -0.279898345 -0.0451621599 1.11765683 -0.190512672 -0.0835520774 1.0706687 -0.197832569 -0.0906180143 1.06847286 -0.20210433 -0.0151431756 0.891118526 -0.247191772 0.0769304931 0.957952082 -0.230414197 0.02276567 1.13703001 -0.210395679 0.0245525017 1.12819886 -0.229620188 0.0757248029 0.956468403 -0.238421395 0.077035889 0.95690161 -0.210395679 0.0245525017 1.12819886 -0.277920514 -0.0887077451 1.09524822 -0.283736795 -0.0700423494 1.09580159 -0.28724122 -0.0625522956 1.08830488 -0.27535975 -0.0923768952 1.08928347 -0.264885247 -0.0994037166 1.0909307 -0.271433443 -0.0936748311 1.09761512 -0.213931009 -0.100159839 1.06651163 -0.223925829 -0.102438539 1.06365371 -0.230164438 -0.0314930789 0.891129315 -0.226999909 -0.0415145718 1.13735843 -0.212954894 -0.0401823372 1.13266957 -0.230414197 0.02276567 1.13703001 -0.257783353 -0.0439926982 1.13407028 -0.249351978 -0.0634649172 1.13264453 -0.245565146 -0.0425505191 1.13757014 -0.258004695 -0.0644920021 1.12925041 -0.249351978 -0.0634649172 1.13264453 -0.257783353 -0.0439926982 1.13407028 -0.292633742 0.0173277576 1.10561478 -0.286069483 -0.0462046191 1.10748172 -0.279898345 -0.0451621599 1.11765683 -0.274571985 -0.0880268067 1.10451841 -0.283736795 -0.0700423494 1.09580159 -0.277920514 -0.0887077451 1.09524822 -0.223925829 -0.102438539 1.06365371 -0.240092963 -0.103413075 1.06263256 -0.245827392 -0.0329916179 0.891134858 -0.223925829 -0.102438539 1.06365371 -0.245827392 -0.0329916179 0.891134858 -0.230164438 -0.0314930789 0.891129315 -0.254210353 -0.102624469 1.06854308 -0.264390975 -0.0285770651 0.891141117 -0.245827392 -0.0329916179 0.891134858 -0.240092963 -0.103413075 1.06263256 -0.254210353 -0.102624469 1.06854308 -0.245827392 -0.0329916179 0.891134858 -0.268128842 0.0194480233 1.13230157 -0.245565146 -0.0425505191 1.13757014 -0.248204842 0.0212240387 1.13807571 -0.268128842 0.0194480233 1.13230157 -0.257783353 -0.0439926982 1.13407028 -0.245565146 -0.0425505191 1.13757014 -0.248204842 0.0212240387 1.13807571 -0.230414197 0.02276567 1.13703001 -0.247191772 0.0769304931 0.957952082 -0.292633742 0.0173277576 1.10561478 -0.27960965 0.0630049184 0.957014322 -0.297063202 0.0168346558 1.09066713 -0.297063202 0.0168346558 1.09066713 -0.290142179 -0.0442229919 1.09743249 -0.292633742 0.0173277576 1.10561478 -0.296988726 0.0311172232 0.964673817 -0.297709554 0.021419622 0.891149819 -0.297063202 0.0168346558 1.09066713 -0.292081624 -0.042631112 1.08609617 -0.297063202 0.0168346558 1.09066713 -0.297709554 0.021419622 0.891149819 -0.196662232 0.0257050563 1.11354208 -0.190828368 0.0262298565 1.10169482 -0.218815833 0.0718705878 0.956661522 -0.187358201 0.0233911593 0.89110738 -0.187832236 0.026420895 1.08906078 -0.182525769 -0.0334400386 1.08667636 -0.238421395 0.077035889 0.95690161 -0.247191772 0.0769304931 0.957952082 -0.210395679 0.0245525017 1.12819886 -0.187358201 0.0233911593 0.89110738 -0.189228117 0.0358284004 0.891114056 -0.187832236 0.026420895 1.08906078 -0.238421395 0.077035889 0.95690161 -0.247789785 0.0771491155 0.89113003 -0.247191772 0.0769304931 0.957952082 -0.238421395 0.077035889 0.95690161 -0.229620188 0.0757248029 0.956468403 -0.235150248 0.0767595246 0.89112556 -0.228882387 -0.0844503418 1.12936234 -0.240360558 -0.0700062066 1.13287175 -0.237486243 -0.0851751789 1.12928724 -0.239741102 -0.104762293 1.09933782 -0.237081528 -0.106546633 1.09099126 -0.227216691 -0.104856588 1.09679174 -0.227734983 -0.102064259 1.105726 -0.243043289 -0.100779869 1.10928822 -0.239741102 -0.104762293 1.09933782 -0.284594953 0.0180488154 1.11873674 -0.268666327 -0.0443887077 1.12817669 -0.268128842 0.0194480233 1.13230157 -0.268666327 -0.0443887077 1.12817669 -0.284594953 0.0180488154 1.11873674 -0.279898345 -0.0451621599 1.11765683 -0.264885247 -0.0994037166 1.0909307 -0.260199755 -0.100570127 1.09637082 -0.271433443 -0.0936748311 1.09761512 -0.250789493 -0.104814067 1.09114838 -0.260199755 -0.100570127 1.09637082 -0.264885247 -0.0994037166 1.0909307 -0.273274124 -0.0944790244 1.07958126 -0.27535975 -0.0923768952 1.08928347 -0.279582679 -0.0886598453 1.08283138 -0.28724122 -0.0625522956 1.08830488 -0.294937998 0.00436396152 0.891146719 -0.279582679 -0.0886598453 1.08283138 -0.197832569 -0.0906180143 1.06847286 -0.215167567 -0.0257311612 0.891123652 -0.20210433 -0.0151431756 0.891118526 -0.190512672 -0.0835520774 1.0706687 -0.20210433 -0.0151431756 0.891118526 -0.191032961 0.0018396083 0.891114831 -0.237893447 -0.0431045517 1.13810575 -0.245565146 -0.0425505191 1.13757014 -0.240360558 -0.0700062066 1.13287175 -0.240360558 -0.0700062066 1.13287175 -0.245565146 -0.0425505191 1.13757014 -0.249351978 -0.0634649172 1.13264453 -0.294937998 0.00436396152 0.891146719 -0.292081624 -0.042631112 1.08609617 -0.297709554 0.021419622 0.891149819 -0.269155443 -0.0641525462 1.12208521 -0.268666327 -0.0443887077 1.12817669 -0.279898345 -0.0451621599 1.11765683 -0.262824148 -0.100958444 1.08090138 -0.254210353 -0.102624469 1.06854308 -0.25446865 -0.104317658 1.08240628 -0.262824148 -0.100958444 1.08090138 -0.25446865 -0.104317658 1.08240628 -0.264885247 -0.0994037166 1.0909307 -0.254210353 -0.102624469 1.06854308 -0.266080707 -0.0978632495 1.07058728 -0.260693252 -0.0995039642 1.06682789 -0.254210353 -0.102624469 1.06854308 -0.240092963 -0.103413075 1.06263256 -0.247020826 -0.105235532 1.07271481 -0.296288341 0.0350929536 0.891148984 -0.297709554 0.021419622 0.891149819 -0.296988726 0.0311172232 0.964673817 -0.27960965 0.0630049184 0.957014322 -0.292633742 0.0173277576 1.10561478 -0.27218619 0.0686311275 0.956480563 -0.187358201 0.0233911593 0.89110738 -0.182525769 -0.0334400386 1.08667636 -0.184457913 -0.0607313812 1.08677351 -0.200826213 0.0583235212 0.891114414 -0.212227061 0.068192035 0.891118288 -0.208794266 0.0657801852 0.957414925 -0.186931238 -0.0807233676 1.08322048 -0.191032961 0.0018396083 0.891114831 -0.187358201 0.0233911593 0.89110738 -0.192343533 -0.0868675336 1.09203982 -0.195084512 -0.09035483 1.07950497 -0.187821254 -0.0818759128 1.07741404 -0.183817148 -0.0351369753 1.09577465 -0.186580136 -0.063638173 1.09699833 -0.184457913 -0.0607313812 1.08677351 -0.19263874 0.0454434492 0.891112208 -0.192737177 0.0459050797 0.963713109 -0.189228117 0.0358284004 0.891114056 -0.208794266 0.0657801852 0.957414925 -0.187832236 0.026420895 1.08906078 -0.199911803 0.0569992103 0.959517658 -0.208794266 0.0657801852 0.957414925 -0.212227061 0.068192035 0.891118288 -0.218815833 0.0718705878 0.956661522 -0.213716164 -0.102434687 1.07835853 -0.201600507 -0.0958919004 1.08651459 -0.211042106 -0.100743726 1.09146535 -0.226423234 -0.106248051 1.08407867 -0.222481728 -0.104689255 1.07394946 -0.213716164 -0.102434687 1.07835853 -0.226423234 -0.106248051 1.08407867 -0.213716164 -0.102434687 1.07835853 -0.218004748 -0.103915401 1.08839738 -0.242586702 -0.106798574 1.08338749 -0.226423234 -0.106248051 1.08407867 -0.237081528 -0.106546633 1.09099126 -0.237081528 -0.106546633 1.09099126 -0.226423234 -0.106248051 1.08407867 -0.227216691 -0.104856588 1.09679174 -0.218004748 -0.103915401 1.08839738 -0.214390591 -0.100213878 1.10043967 -0.227216691 -0.104856588 1.09679174 -0.227734983 -0.102064259 1.105726 -0.227216691 -0.104856588 1.09679174 -0.214390591 -0.100213878 1.10043967 -0.234771565 -0.0981482044 1.11459565 -0.243043289 -0.100779869 1.10928822 -0.227734983 -0.102064259 1.105726 -0.229619086 -0.0880374089 1.12658656 -0.228346348 -0.0952170268 1.11811376 -0.221045673 -0.0895148069 1.1226778 -0.241489053 -0.0919713154 1.12274683 -0.247680143 -0.0860287026 1.12732971 -0.250886887 -0.0908796638 1.12150943 -0.234771565 -0.0981482044 1.11459565 -0.227734983 -0.102064259 1.105726 -0.228346348 -0.0952170268 1.11811376 -0.243043289 -0.100779869 1.10928822 -0.241489053 -0.0919713154 1.12274683 -0.250175536 -0.0975761265 1.11270523 -0.234771565 -0.0981482044 1.11459565 -0.241489053 -0.0919713154 1.12274683 -0.243043289 -0.100779869 1.10928822 -0.250175536 -0.0975761265 1.11270523 -0.260397971 -0.0981120989 1.10381913 -0.25093773 -0.102630623 1.10065985 -0.250175536 -0.0975761265 1.11270523 -0.257980675 -0.0939858854 1.11397135 -0.260397971 -0.0981120989 1.10381913 -0.260397971 -0.0981120989 1.10381913 -0.267901838 -0.0920590311 1.10753632 -0.271433443 -0.0936748311 1.09761512 -0.260397971 -0.0981120989 1.10381913 -0.271433443 -0.0936748311 1.09761512 -0.260199755 -0.100570127 1.09637082 -0.25093773 -0.102630623 1.10065985 -0.243043289 -0.100779869 1.10928822 -0.250175536 -0.0975761265 1.11270523 -0.260397971 -0.0981120989 1.10381913 -0.260199755 -0.100570127 1.09637082 -0.25093773 -0.102630623 1.10065985 -0.25093773 -0.102630623 1.10065985 -0.260199755 -0.100570127 1.09637082 -0.250789493 -0.104814067 1.09114838 -0.279582679 -0.0886598453 1.08283138 -0.277920514 -0.0887077451 1.09524822 -0.28724122 -0.0625522956 1.08830488 -0.27522257 -0.0907426029 1.06918263 -0.282351911 -0.0164316781 0.891147852 -0.266080707 -0.0978632495 1.07058728 -0.213931009 -0.100159839 1.06651163 -0.215167567 -0.0257311612 0.891123652 -0.206708103 -0.0960629731 1.06549251 -0.187821254 -0.0818759128 1.07741404 -0.190512672 -0.0835520774 1.0706687 -0.191032961 0.0018396083 0.891114831 -0.213931009 -0.100159839 1.06651163 -0.205291614 -0.0978557989 1.07540381 -0.213716164 -0.102434687 1.07835853 -0.257958621 -0.0870334059 1.12227285 -0.247680143 -0.0860287026 1.12732971 -0.258004695 -0.0644920021 1.12925041 -0.249351978 -0.0634649172 1.13264453 -0.258004695 -0.0644920021 1.12925041 -0.247680143 -0.0860287026 1.12732971 -0.268666327 -0.0443887077 1.12817669 -0.258004695 -0.0644920021 1.12925041 -0.257783353 -0.0439926982 1.13407028 -0.268666327 -0.0443887077 1.12817669 -0.257783353 -0.0439926982 1.13407028 -0.268128842 0.0194480233 1.13230157 -0.231001318 -0.0661517084 1.13365579 -0.237893447 -0.0431045517 1.13810575 -0.240360558 -0.0700062066 1.13287175 -0.297063202 0.0168346558 1.09066713 -0.292081624 -0.042631112 1.08609617 -0.290142179 -0.0442229919 1.09743249 -0.286069483 -0.0462046191 1.10748172 -0.292633742 0.0173277576 1.10561478 -0.290142179 -0.0442229919 1.09743249 -0.237081528 -0.106546633 1.09099126 -0.239741102 -0.104762293 1.09933782 -0.250789493 -0.104814067 1.09114838 -0.242586702 -0.106798574 1.08338749 -0.237081528 -0.106546633 1.09099126 -0.250789493 -0.104814067 1.09114838 -0.242586702 -0.106798574 1.08338749 -0.250789493 -0.104814067 1.09114838 -0.25446865 -0.104317658 1.08240628 -0.278582245 -0.0891135186 1.07589555 -0.294937998 0.00436396152 0.891146719 -0.282351911 -0.0164316781 0.891147852 -0.247789785 0.0771491155 0.89113003 -0.259340763 0.0746636689 0.891134083 -0.256153911 0.0754682794 0.957117438 -0.247191772 0.0769304931 0.957952082 -0.268128842 0.0194480233 1.13230157 -0.248204842 0.0212240387 1.13807571 -0.256153911 0.0754682794 0.957117438 -0.268128842 0.0194480233 1.13230157 -0.247191772 0.0769304931 0.957952082 -0.256153911 0.0754682794 0.957117438 -0.284594953 0.0180488154 1.11873674 -0.268128842 0.0194480233 1.13230157 -0.27218619 0.0686311275 0.956480563 -0.262705594 0.0734426156 0.956539273 -0.26851505 0.0708706379 0.891137779 -0.200826213 0.0583235212 0.891114414 -0.192737177 0.0459050797 0.963713109 -0.19263874 0.0454434492 0.891112208 -0.192737177 0.0459050797 0.963713109 -0.199911803 0.0569992103 0.959517658 -0.187832236 0.026420895 1.08906078 -0.185805112 -0.0369436964 1.10264564 -0.190828368 0.0262298565 1.10169482 -0.196662232 0.0257050563 1.11354208 -0.190560222 -0.0381700359 1.11241043 -0.190049112 -0.0646914989 1.10564458 -0.185805112 -0.0369436964 1.10264564 -0.186931238 -0.0807233676 1.08322048 -0.187358201 0.0233911593 0.89110738 -0.184457913 -0.0607313812 1.08677351 -0.192343533 -0.0868675336 1.09203982 -0.187821254 -0.0818759128 1.07741404 -0.186931238 -0.0807233676 1.08322048 -0.190512672 -0.0835520774 1.0706687 -0.187821254 -0.0818759128 1.07741404 -0.195084512 -0.09035483 1.07950497 -0.190512672 -0.0835520774 1.0706687 -0.195084512 -0.09035483 1.07950497 -0.197832569 -0.0906180143 1.06847286 -0.201600507 -0.0958919004 1.08651459 -0.195084512 -0.09035483 1.07950497 -0.192343533 -0.0868675336 1.09203982 -0.199911803 0.0569992103 0.959517658 -0.200826213 0.0583235212 0.891114414 -0.208794266 0.0657801852 0.957414925 -0.224170789 0.0741548911 0.891121984 -0.229620188 0.0757248029 0.956468403 -0.218815833 0.0718705878 0.956661522 -0.229620188 0.0757248029 0.956468403 -0.196662232 0.0257050563 1.11354208 -0.218815833 0.0718705878 0.956661522 -0.224170789 0.0741548911 0.891121984 -0.235150248 0.0767595246 0.89112556 -0.229620188 0.0757248029 0.956468403 -0.247789785 0.0771491155 0.89113003 -0.238421395 0.077035889 0.95690161 -0.235150248 0.0767595246 0.89112556 -0.218004748 -0.103915401 1.08839738 -0.213716164 -0.102434687 1.07835853 -0.211042106 -0.100743726 1.09146535 -0.214390591 -0.100213878 1.10043967 -0.218004748 -0.103915401 1.08839738 -0.211042106 -0.100743726 1.09146535 -0.210813463 -0.0958793908 1.10682464 -0.20287855 -0.0950216353 1.09622788 -0.198240682 -0.0887407511 1.10341716 -0.250886887 -0.0908796638 1.12150943 -0.250175536 -0.0975761265 1.11270523 -0.241489053 -0.0919713154 1.12274683 -0.250886887 -0.0908796638 1.12150943 -0.257958621 -0.0870334059 1.12227285 -0.257980675 -0.0939858854 1.11397135 -0.257958621 -0.0870334059 1.12227285 -0.267041206 -0.0878673121 1.11482191 -0.257980675 -0.0939858854 1.11397135 -0.240360558 -0.0700062066 1.13287175 -0.247680143 -0.0860287026 1.12732971 -0.237486243 -0.0851751789 1.12928724 -0.228882387 -0.0844503418 1.12936234 -0.237486243 -0.0851751789 1.12928724 -0.229619086 -0.0880374089 1.12658656 -0.240360558 -0.0700062066 1.13287175 -0.228882387 -0.0844503418 1.12936234 -0.231001318 -0.0661517084 1.13365579 -0.241489053 -0.0919713154 1.12274683 -0.228346348 -0.0952170268 1.11811376 -0.229619086 -0.0880374089 1.12658656 -0.257980675 -0.0939858854 1.11397135 -0.250175536 -0.0975761265 1.11270523 -0.250886887 -0.0908796638 1.12150943 -0.239741102 -0.104762293 1.09933782 -0.227216691 -0.104856588 1.09679174 -0.227734983 -0.102064259 1.105726 -0.271433443 -0.0936748311 1.09761512 -0.277920514 -0.0887077451 1.09524822 -0.27535975 -0.0923768952 1.08928347 -0.266080707 -0.0978632495 1.07058728 -0.264390975 -0.0285770651 0.891141117 -0.260693252 -0.0995039642 1.06682789 -0.266080707 -0.0978632495 1.07058728 -0.282351911 -0.0164316781 0.891147852 -0.264390975 -0.0285770651 0.891141117 -0.273274124 -0.0944790244 1.07958126 -0.264885247 -0.0994037166 1.0909307 -0.27535975 -0.0923768952 1.08928347 -0.206708103 -0.0960629731 1.06549251 -0.215167567 -0.0257311612 0.891123652 -0.197832569 -0.0906180143 1.06847286 -0.196492612 -0.0384130664 1.12024474 -0.190560222 -0.0381700359 1.11241043 -0.196662232 0.0257050563 1.11354208 -0.196492612 -0.0384130664 1.12024474 -0.196662232 0.0257050563 1.11354208 -0.210395679 0.0245525017 1.12819886 -0.194786429 -0.0640406758 1.1135236 -0.194022551 -0.0813269839 1.10778201 -0.190049112 -0.0646914989 1.10564458 -0.237893447 -0.0431045517 1.13810575 -0.230414197 0.02276567 1.13703001 -0.248204842 0.0212240387 1.13807571 -0.237893447 -0.0431045517 1.13810575 -0.226999909 -0.0415145718 1.13735843 -0.230414197 0.02276567 1.13703001 -0.226999909 -0.0415145718 1.13735843 -0.237893447 -0.0431045517 1.13810575 -0.231001318 -0.0661517084 1.13365579 -0.212954894 -0.0401823372 1.13266957 -0.204203472 -0.0390083492 1.12727177 -0.210395679 0.0245525017 1.12819886 -0.202904239 -0.0600971878 1.12306249 -0.213922411 -0.0599325821 1.13014293 -0.210598245 -0.0829165429 1.12363696 -0.211175725 -0.0867431387 1.1203928 -0.20003885 -0.0817721486 1.11566722 -0.210598245 -0.0829165429 1.12363696 -0.290142179 -0.0442229919 1.09743249 -0.292081624 -0.042631112 1.08609617 -0.28724122 -0.0625522956 1.08830488 -0.28724122 -0.0625522956 1.08830488 -0.292081624 -0.042631112 1.08609617 -0.294937998 0.00436396152 0.891146719 -0.267041206 -0.0878673121 1.11482191 -0.267901838 -0.0920590311 1.10753632 -0.257980675 -0.0939858854 1.11397135 -0.231369898 -0.105137266 1.0687989 -0.240092963 -0.103413075 1.06263256 -0.223925829 -0.102438539 1.06365371 -0.25446865 -0.104317658 1.08240628 -0.250789493 -0.104814067 1.09114838 -0.264885247 -0.0994037166 1.0909307 -0.25093773 -0.102630623 1.10065985 -0.239741102 -0.104762293 1.09933782 -0.243043289 -0.100779869 1.10928822 -0.266080707 -0.0978632495 1.07058728 -0.254210353 -0.102624469 1.06854308 -0.262824148 -0.100958444 1.08090138 -0.27522257 -0.0907426029 1.06918263 -0.278582245 -0.0891135186 1.07589555 -0.282351911 -0.0164316781 0.891147852 -0.278582245 -0.0891135186 1.07589555 -0.279582679 -0.0886598453 1.08283138 -0.294937998 0.00436396152 0.891146719 -0.278582245 -0.0891135186 1.07589555 -0.27522257 -0.0907426029 1.06918263 -0.273274124 -0.0944790244 1.07958126 -0.276356727 -0.0656101033 1.11377871 -0.269155443 -0.0641525462 1.12208521 -0.279898345 -0.0451621599 1.11765683 -0.247191772 0.0769304931 0.957952082 -0.247789785 0.0771491155 0.89113003 -0.256153911 0.0754682794 0.957117438 -0.262705594 0.0734426156 0.956539273 -0.256153911 0.0754682794 0.957117438 -0.259340763 0.0746636689 0.891134083 -0.284594953 0.0180488154 1.11873674 -0.256153911 0.0754682794 0.957117438 -0.262705594 0.0734426156 0.956539273 -0.27218619 0.0686311275 0.956480563 -0.277259499 0.064977929 0.891141295 -0.27960965 0.0630049184 0.957014322 -0.27218619 0.0686311275 0.956480563 -0.284594953 0.0180488154 1.11873674 -0.262705594 0.0734426156 0.956539273 -0.292633742 0.0173277576 1.10561478 -0.284594953 0.0180488154 1.11873674 -0.27218619 0.0686311275 0.956480563 -0.190560222 -0.0381700359 1.11241043 -0.185805112 -0.0369436964 1.10264564 -0.196662232 0.0257050563 1.11354208 -0.186580136 -0.063638173 1.09699833 -0.190049112 -0.0646914989 1.10564458 -0.190421373 -0.0810589418 1.10078323 -0.185805112 -0.0369436964 1.10264564 -0.190049112 -0.0646914989 1.10564458 -0.186580136 -0.063638173 1.09699833 -0.187930033 -0.0807609335 1.09277618 -0.184457913 -0.0607313812 1.08677351 -0.186580136 -0.063638173 1.09699833 -0.208794266 0.0657801852 0.957414925 -0.190828368 0.0262298565 1.10169482 -0.187832236 0.026420895 1.08906078 -0.186931238 -0.0807233676 1.08322048 -0.187821254 -0.0818759128 1.07741404 -0.191032961 0.0018396083 0.891114831 -0.183817148 -0.0351369753 1.09577465 -0.184457913 -0.0607313812 1.08677351 -0.182525769 -0.0334400386 1.08667636 -0.187930033 -0.0807609335 1.09277618 -0.186931238 -0.0807233676 1.08322048 -0.184457913 -0.0607313812 1.08677351 -0.186931238 -0.0807233676 1.08322048 -0.187930033 -0.0807609335 1.09277618 -0.192343533 -0.0868675336 1.09203982 -0.212227061 0.068192035 0.891118288 -0.224170789 0.0741548911 0.891121984 -0.218815833 0.0718705878 0.956661522 -0.190828368 0.0262298565 1.10169482 -0.208794266 0.0657801852 0.957414925 -0.218815833 0.0718705878 0.956661522 -0.227216691 -0.104856588 1.09679174 -0.226423234 -0.106248051 1.08407867 -0.218004748 -0.103915401 1.08839738 -0.226423234 -0.106248051 1.08407867 -0.231535047 -0.106693298 1.07898307 -0.222481728 -0.104689255 1.07394946 -0.214390591 -0.100213878 1.10043967 -0.20287855 -0.0950216353 1.09622788 -0.210813463 -0.0958793908 1.10682464 -0.228346348 -0.0952170268 1.11811376 -0.227734983 -0.102064259 1.105726 -0.21837689 -0.0954997987 1.11365223 -0.257958621 -0.0870334059 1.12227285 -0.250886887 -0.0908796638 1.12150943 -0.247680143 -0.0860287026 1.12732971 -0.21837689 -0.0954997987 1.11365223 -0.210867196 -0.0918416157 1.11375904 -0.211175725 -0.0867431387 1.1203928 -0.211175725 -0.0867431387 1.1203928 -0.221045673 -0.0895148069 1.1226778 -0.21837689 -0.0954997987 1.11365223 -0.231001318 -0.0661517084 1.13365579 -0.228882387 -0.0844503418 1.12936234 -0.223342463 -0.0675303861 1.13208234 -0.241489053 -0.0919713154 1.12274683 -0.237486243 -0.0851751789 1.12928724 -0.247680143 -0.0860287026 1.12732971 -0.234771565 -0.0981482044 1.11459565 -0.228346348 -0.0952170268 1.11811376 -0.241489053 -0.0919713154 1.12274683 -0.267041206 -0.0878673121 1.11482191 -0.257958621 -0.0870334059 1.12227285 -0.269155443 -0.0641525462 1.12208521 -0.267901838 -0.0920590311 1.10753632 -0.260397971 -0.0981120989 1.10381913 -0.257980675 -0.0939858854 1.11397135 -0.274571985 -0.0880268067 1.10451841 -0.271433443 -0.0936748311 1.09761512 -0.267901838 -0.0920590311 1.10753632 -0.271433443 -0.0936748311 1.09761512 -0.274571985 -0.0880268067 1.10451841 -0.277920514 -0.0887077451 1.09524822 -0.27535975 -0.0923768952 1.08928347 -0.277920514 -0.0887077451 1.09524822 -0.279582679 -0.0886598453 1.08283138 -0.279582679 -0.0886598453 1.08283138 -0.278582245 -0.0891135186 1.07589555 -0.273274124 -0.0944790244 1.07958126 -0.266080707 -0.0978632495 1.07058728 -0.273274124 -0.0944790244 1.07958126 -0.27522257 -0.0907426029 1.06918263 -0.201600507 -0.0958919004 1.08651459 -0.20287855 -0.0950216353 1.09622788 -0.211042106 -0.100743726 1.09146535 -0.196492612 -0.0384130664 1.12024474 -0.202904239 -0.0600971878 1.12306249 -0.194786429 -0.0640406758 1.1135236 -0.202904239 -0.0600971878 1.12306249 -0.20003885 -0.0817721486 1.11566722 -0.194786429 -0.0640406758 1.1135236 -0.221045673 -0.0895148069 1.1226778 -0.211175725 -0.0867431387 1.1203928 -0.210598245 -0.0829165429 1.12363696 -0.202904239 -0.0600971878 1.12306249 -0.204203472 -0.0390083492 1.12727177 -0.212954894 -0.0401823372 1.13266957 -0.204203472 -0.0390083492 1.12727177 -0.196492612 -0.0384130664 1.12024474 -0.210395679 0.0245525017 1.12819886 -0.210813463 -0.0958793908 1.10682464 -0.198240682 -0.0887407511 1.10341716 -0.202256069 -0.0875922814 1.11126733 -0.210813463 -0.0958793908 1.10682464 -0.202256069 -0.0875922814 1.11126733 -0.210867196 -0.0918416157 1.11375904 -0.211175725 -0.0867431387 1.1203928 -0.202256069 -0.0875922814 1.11126733 -0.20003885 -0.0817721486 1.11566722 -0.240360558 -0.0700062066 1.13287175 -0.249351978 -0.0634649172 1.13264453 -0.247680143 -0.0860287026 1.12732971 -0.269155443 -0.0641525462 1.12208521 -0.258004695 -0.0644920021 1.12925041 -0.268666327 -0.0443887077 1.12817669 -0.283736795 -0.0700423494 1.09580159 -0.274571985 -0.0880268067 1.10451841 -0.286069483 -0.0462046191 1.10748172 -0.286069483 -0.0462046191 1.10748172 -0.290142179 -0.0442229919 1.09743249 -0.283736795 -0.0700423494 1.09580159 -0.276356727 -0.0656101033 1.11377871 -0.286069483 -0.0462046191 1.10748172 -0.274571985 -0.0880268067 1.10451841 -0.276356727 -0.0656101033 1.11377871 -0.267041206 -0.0878673121 1.11482191 -0.269155443 -0.0641525462 1.12208521 -0.290142179 -0.0442229919 1.09743249 -0.28724122 -0.0625522956 1.08830488 -0.283736795 -0.0700423494 1.09580159 -0.231369898 -0.105137266 1.0687989 -0.223925829 -0.102438539 1.06365371 -0.222481728 -0.104689255 1.07394946 -0.247020826 -0.105235532 1.07271481 -0.242586702 -0.106798574 1.08338749 -0.25446865 -0.104317658 1.08240628 -0.25093773 -0.102630623 1.10065985 -0.250789493 -0.104814067 1.09114838 -0.239741102 -0.104762293 1.09933782 -0.277259499 0.064977929 0.891141295 -0.283845186 0.0587755404 0.89114356 -0.27960965 0.0630049184 0.957014322 -0.29452619 0.0404890925 0.961074412 -0.296988726 0.0311172232 0.964673817 -0.297063202 0.0168346558 1.09066713 -0.262705594 0.0734426156 0.956539273 -0.259340763 0.0746636689 0.891134083 -0.26851505 0.0708706379 0.891137779 -0.200826213 0.0583235212 0.891114414 -0.199911803 0.0569992103 0.959517658 -0.192737177 0.0459050797 0.963713109 -0.186580136 -0.063638173 1.09699833 -0.190421373 -0.0810589418 1.10078323 -0.187930033 -0.0807609335 1.09277618 -0.198240682 -0.0887407511 1.10341716 -0.192343533 -0.0868675336 1.09203982 -0.190421373 -0.0810589418 1.10078323 -0.194022551 -0.0813269839 1.10778201 -0.198240682 -0.0887407511 1.10341716 -0.190421373 -0.0810589418 1.10078323 -0.229620188 0.0757248029 0.956468403 -0.210395679 0.0245525017 1.12819886 -0.196662232 0.0257050563 1.11354208 -0.214390591 -0.100213878 1.10043967 -0.211042106 -0.100743726 1.09146535 -0.20287855 -0.0950216353 1.09622788 -0.21837689 -0.0954997987 1.11365223 -0.214390591 -0.100213878 1.10043967 -0.210813463 -0.0958793908 1.10682464 -0.221045673 -0.0895148069 1.1226778 -0.228346348 -0.0952170268 1.11811376 -0.21837689 -0.0954997987 1.11365223 -0.269155443 -0.0641525462 1.12208521 -0.257958621 -0.0870334059 1.12227285 -0.258004695 -0.0644920021 1.12925041 -0.210867196 -0.0918416157 1.11375904 -0.202256069 -0.0875922814 1.11126733 -0.211175725 -0.0867431387 1.1203928 -0.21837689 -0.0954997987 1.11365223 -0.210813463 -0.0958793908 1.10682464 -0.210867196 -0.0918416157 1.11375904 -0.223342463 -0.0675303861 1.13208234 -0.228882387 -0.0844503418 1.12936234 -0.219559774 -0.08338774 1.12756288 -0.241489053 -0.0919713154 1.12274683 -0.229619086 -0.0880374089 1.12658656 -0.237486243 -0.0851751789 1.12928724 -0.267041206 -0.0878673121 1.11482191 -0.274571985 -0.0880268067 1.10451841 -0.267901838 -0.0920590311 1.10753632 -0.262824148 -0.100958444 1.08090138 -0.273274124 -0.0944790244 1.07958126 -0.266080707 -0.0978632495 1.07058728 -0.262824148 -0.100958444 1.08090138 -0.264885247 -0.0994037166 1.0909307 -0.273274124 -0.0944790244 1.07958126 -0.213931009 -0.100159839 1.06651163 -0.206708103 -0.0960629731 1.06549251 -0.205291614 -0.0978557989 1.07540381 -0.201600507 -0.0958919004 1.08651459 -0.205291614 -0.0978557989 1.07540381 -0.195084512 -0.09035483 1.07950497 -0.205291614 -0.0978557989 1.07540381 -0.201600507 -0.0958919004 1.08651459 -0.213716164 -0.102434687 1.07835853 -0.205291614 -0.0978557989 1.07540381 -0.206708103 -0.0960629731 1.06549251 -0.197832569 -0.0906180143 1.06847286 -0.20287855 -0.0950216353 1.09622788 -0.192343533 -0.0868675336 1.09203982 -0.198240682 -0.0887407511 1.10341716 -0.196492612 -0.0384130664 1.12024474 -0.194786429 -0.0640406758 1.1135236 -0.190560222 -0.0381700359 1.11241043 -0.194022551 -0.0813269839 1.10778201 -0.194786429 -0.0640406758 1.1135236 -0.20003885 -0.0817721486 1.11566722 -0.212954894 -0.0401823372 1.13266957 -0.213922411 -0.0599325821 1.13014293 -0.202904239 -0.0600971878 1.12306249 -0.204203472 -0.0390083492 1.12727177 -0.202904239 -0.0600971878 1.12306249 -0.196492612 -0.0384130664 1.12024474 -0.202904239 -0.0600971878 1.12306249 -0.210598245 -0.0829165429 1.12363696 -0.20003885 -0.0817721486 1.11566722 -0.276356727 -0.0656101033 1.11377871 -0.279898345 -0.0451621599 1.11765683 -0.286069483 -0.0462046191 1.10748172 -0.240092963 -0.103413075 1.06263256 -0.239587307 -0.10635744 1.07453322 -0.247020826 -0.105235532 1.07271481 -0.25446865 -0.104317658 1.08240628 -0.254210353 -0.102624469 1.06854308 -0.247020826 -0.105235532 1.07271481 -0.26851505 0.0708706379 0.891137779 -0.277259499 0.064977929 0.891141295 -0.27218619 0.0686311275 0.956480563 -0.285470128 0.0567327514 0.957966089 -0.290999055 0.0486332886 0.891146481 -0.290890962 0.0486776717 0.959666908 -0.290890962 0.0486776717 0.959666908 -0.29452619 0.0404890925 0.961074412 -0.297063202 0.0168346558 1.09066713 -0.187930033 -0.0807609335 1.09277618 -0.190421373 -0.0810589418 1.10078323 -0.192343533 -0.0868675336 1.09203982 -0.183817148 -0.0351369753 1.09577465 -0.182525769 -0.0334400386 1.08667636 -0.187832236 0.026420895 1.08906078 -0.231535047 -0.106693298 1.07898307 -0.226423234 -0.106248051 1.08407867 -0.242586702 -0.106798574 1.08338749 -0.247020826 -0.105235532 1.07271481 -0.239587307 -0.10635744 1.07453322 -0.242586702 -0.106798574 1.08338749 -0.231369898 -0.105137266 1.0687989 -0.222481728 -0.104689255 1.07394946 -0.231535047 -0.106693298 1.07898307 -0.213922411 -0.0599325821 1.13014293 -0.212954894 -0.0401823372 1.13266957 -0.226999909 -0.0415145718 1.13735843 -0.219559774 -0.08338774 1.12756288 -0.229619086 -0.0880374089 1.12658656 -0.221045673 -0.0895148069 1.1226778 -0.219559774 -0.08338774 1.12756288 -0.228882387 -0.0844503418 1.12936234 -0.229619086 -0.0880374089 1.12658656 -0.274571985 -0.0880268067 1.10451841 -0.267041206 -0.0878673121 1.11482191 -0.276356727 -0.0656101033 1.11377871 -0.205291614 -0.0978557989 1.07540381 -0.197832569 -0.0906180143 1.06847286 -0.195084512 -0.09035483 1.07950497 -0.201600507 -0.0958919004 1.08651459 -0.192343533 -0.0868675336 1.09203982 -0.20287855 -0.0950216353 1.09622788 -0.219559774 -0.08338774 1.12756288 -0.210598245 -0.0829165429 1.12363696 -0.213922411 -0.0599325821 1.13014293 -0.223342463 -0.0675303861 1.13208234 -0.219559774 -0.08338774 1.12756288 -0.213922411 -0.0599325821 1.13014293 -0.231369898 -0.105137266 1.0687989 -0.239587307 -0.10635744 1.07453322 -0.240092963 -0.103413075 1.06263256 -0.222481728 -0.104689255 1.07394946 -0.213931009 -0.100159839 1.06651163 -0.213716164 -0.102434687 1.07835853 -0.213931009 -0.100159839 1.06651163 -0.222481728 -0.104689255 1.07394946 -0.223925829 -0.102438539 1.06365371 -0.27960965 0.0630049184 0.957014322 -0.283845186 0.0587755404 0.89114356 -0.285470128 0.0567327514 0.957966089 -0.27960965 0.0630049184 0.957014322 -0.285470128 0.0567327514 0.957966089 -0.297063202 0.0168346558 1.09066713 -0.283845186 0.0587755404 0.89114356 -0.290999055 0.0486332886 0.891146481 -0.285470128 0.0567327514 0.957966089 -0.297063202 0.0168346558 1.09066713 -0.285470128 0.0567327514 0.957966089 -0.290890962 0.0486776717 0.959666908 -0.29452619 0.0404890925 0.961074412 -0.290999055 0.0486332886 0.891146481 -0.296288341 0.0350929536 0.891148984 -0.194022551 -0.0813269839 1.10778201 -0.190421373 -0.0810589418 1.10078323 -0.190049112 -0.0646914989 1.10564458 -0.194786429 -0.0640406758 1.1135236 -0.190049112 -0.0646914989 1.10564458 -0.190560222 -0.0381700359 1.11241043 -0.202256069 -0.0875922814 1.11126733 -0.198240682 -0.0887407511 1.10341716 -0.194022551 -0.0813269839 1.10778201 -0.194022551 -0.0813269839 1.10778201 -0.20003885 -0.0817721486 1.11566722 -0.202256069 -0.0875922814 1.11126733 -0.183817148 -0.0351369753 1.09577465 -0.187832236 0.026420895 1.08906078 -0.190828368 0.0262298565 1.10169482 -0.190828368 0.0262298565 1.10169482 -0.185805112 -0.0369436964 1.10264564 -0.183817148 -0.0351369753 1.09577465 -0.242586702 -0.106798574 1.08338749 -0.239587307 -0.10635744 1.07453322 -0.231535047 -0.106693298 1.07898307 -0.21837689 -0.0954997987 1.11365223 -0.227734983 -0.102064259 1.105726 -0.214390591 -0.100213878 1.10043967 -0.221045673 -0.0895148069 1.1226778 -0.210598245 -0.0829165429 1.12363696 -0.219559774 -0.08338774 1.12756288 -0.213922411 -0.0599325821 1.13014293 -0.226999909 -0.0415145718 1.13735843 -0.223342463 -0.0675303861 1.13208234 -0.296288341 0.0350929536 0.891148984 -0.296988726 0.0311172232 0.964673817 -0.29452619 0.0404890925 0.961074412 -0.231369898 -0.105137266 1.0687989 -0.231535047 -0.106693298 1.07898307 -0.239587307 -0.10635744 1.07453322 -0.223342463 -0.0675303861 1.13208234 -0.226999909 -0.0415145718 1.13735843 -0.231001318 -0.0661517084 1.13365579 -0.29452619 0.0404890925 0.961074412 -0.290890962 0.0486776717 0.959666908 -0.290999055 0.0486332886 0.891146481 -0.191032961 0.0018396083 0.891114831 -0.20210433 -0.0151431756 0.891118526 -0.290999055 0.0486332886 0.891146481 -0.290999055 0.0486332886 0.891146481 -0.235150248 0.0767595246 0.89112556 -0.224170789 0.0741548911 0.891121984 -0.230164438 -0.0314930789 0.891129315 -0.245827392 -0.0329916179 0.891134858 -0.290999055 0.0486332886 0.891146481 -0.189228117 0.0358284004 0.891114056 -0.187358201 0.0233911593 0.89110738 -0.290999055 0.0486332886 0.891146481 -0.264390975 -0.0285770651 0.891141117 -0.282351911 -0.0164316781 0.891147852 -0.290999055 0.0486332886 0.891146481 -0.297709554 0.021419622 0.891149819 -0.296288341 0.0350929536 0.891148984 -0.290999055 0.0486332886 0.891146481 -0.290999055 0.0486332886 0.891146481 -0.20210433 -0.0151431756 0.891118526 -0.215167567 -0.0257311612 0.891123652 -0.245827392 -0.0329916179 0.891134858 -0.264390975 -0.0285770651 0.891141117 -0.290999055 0.0486332886 0.891146481 -0.283845186 0.0587755404 0.89114356 -0.277259499 0.064977929 0.891141295 -0.290999055 0.0486332886 0.891146481 -0.290999055 0.0486332886 0.891146481 -0.200826213 0.0583235212 0.891114414 -0.19263874 0.0454434492 0.891112208 -0.212227061 0.068192035 0.891118288 -0.200826213 0.0583235212 0.891114414 -0.290999055 0.0486332886 0.891146481 -0.187358201 0.0233911593 0.89110738 -0.191032961 0.0018396083 0.891114831 -0.290999055 0.0486332886 0.891146481 -0.290999055 0.0486332886 0.891146481 -0.215167567 -0.0257311612 0.891123652 -0.230164438 -0.0314930789 0.891129315 -0.290999055 0.0486332886 0.891146481 -0.282351911 -0.0164316781 0.891147852 -0.294937998 0.00436396152 0.891146719 -0.290999055 0.0486332886 0.891146481 -0.247789785 0.0771491155 0.89113003 -0.235150248 0.0767595246 0.89112556 -0.26851505 0.0708706379 0.891137779 -0.259340763 0.0746636689 0.891134083 -0.290999055 0.0486332886 0.891146481 -0.290999055 0.0486332886 0.891146481 -0.19263874 0.0454434492 0.891112208 -0.189228117 0.0358284004 0.891114056 -0.259340763 0.0746636689 0.891134083 -0.247789785 0.0771491155 0.89113003 -0.290999055 0.0486332886 0.891146481 -0.224170789 0.0741548911 0.891121984 -0.212227061 0.068192035 0.891118288 -0.290999055 0.0486332886 0.891146481 -0.294937998 0.00436396152 0.891146719 -0.297709554 0.021419622 0.891149819 -0.290999055 0.0486332886 0.891146481 -0.290999055 0.0486332886 0.891146481 -0.277259499 0.064977929 0.891141295 -0.26851505 0.0708706379 0.891137779 </float_array>
          <technique_common>
            <accessor count="900" offset="0" source="#mesh_0-positions-array" stride="3">
              <param name="X" type="float" />
              <param name="Y" type="float" />
              <param name="Z" type="float" />
            </accessor>
          </technique_common>
        </source>
        <vertices id="mesh_0-vertices">
          <input semantic="POSITION" source="#mesh_0-positions" />
        </vertices>
        <polylist count="300" material="defaultMaterial">
          <input offset="0" semantic="VERTEX" source="#mesh_0-vertices" />
          <vcount>3 3 3 3 3 3 3 3 3 3 3 3 3 3 3 3 3 3 3 3 3 3 3 3 3 3 3 3 3 3 3 3 3 3 3 3 3 3 3 3 3 3 3 3 3 3 3 3 3 3 3 3 3 3 3 3 3 3 3 3 3 3 3 3 3 3 3 3 3 3 3 3 3 3 3 3 3 3 3 3 3 3 3 3 3 3 3 3 3 3 3 3 3 3 3 3 3 3 3 3 3 3 3 3 3 3 3 3 3 3 3 3 3 3 3 3 3 3 3 3 3 3 3 3 3 3 3 3 3 3 3 3 3 3 3 3 3 3 3 3 3 3 3 3 3 3 3 3 3 3 3 3 3 3 3 3 3 3 3 3 3 3 3 3 3 3 3 3 3 3 3 3 3 3 3 3 3 3 3 3 3 3 3 3 3 3 3 3 3 3 3 3 3 3 3 3 3 3 3 3 3 3 3 3 3 3 3 3 3 3 3 3 3 3 3 3 3 3 3 3 3 3 3 3 3 3 3 3 3 3 3 3 3 3 3 3 3 3 3 3 3 3 3 3 3 3 3 3 3 3 3 3 3 3 3 3 3 3 3 3 3 3 3 3 3 3 3 3 3 3 3 3 3 3 3 3 3 3 3 3 3 3 3 3 3 3 3 3 3 3 3 3 3 3 3 3 3 3 3 3 </vcount>
          <p>0 1 2 3 4 5 6 7 8 9 10 11 12 13 14 15 16 17 18 19 20 21 22 23 24 25 26 27 28 29 30 31 32 33 34 35 36 37 38 39 40 41 42 43 44 45 46 47 48 49 50 51 52 53 54 55 56 57 58 59 60 61 62 63 64 65 66 67 68 69 70 71 72 73 74 75 76 77 78 79 80 81 82 83 84 85 86 87 88 89 90 91 92 93 94 95 96 97 98 99 100 101 102 103 104 105 106 107 108 109 110 111 112 113 114 115 116 117 118 119 120 121 122 123 124 125 126 127 128 129 130 131 132 133 134 135 136 137 138 139 140 141 142 143 144 145 146 147 148 149 150 151 152 153 154 155 156 157 158 159 160 161 162 163 164 165 166 167 168 169 170 171 172 173 174 175 176 177 178 179 180 181 182 183 184 185 186 187 188 189 190 191 192 193 194 195 196 197 198 199 200 201 202 203 204 205 206 207 208 209 210 211 212 213 214 215 216 217 218 219 220 221 222 223 224 225 226 227 228 229 230 231 232 233 234 235 236 237 238 239 240 241 242 243 244 245 246 247 248 249 250 251 252 253 254 255 256 257 258 259 260 261 262 263 264 265 266 267 268 269 270 271 272 273 274 275 276 277 278 279 280 281 282 283 284 285 286 287 288 289 290 291 292 293 294 295 296 297 298 299 300 301 302 303 304 305 306 307 308 309 310 311 312 313 314 315 316 317 318 319 320 321 322 323 324 325 326 327 328 329 330 331 332 333 334 335 336 337 338 339 340 341 342 343 344 345 346 347 348 349 350 351 352 353 354 355 356 357 358 359 360 361 362 363 364 365 366 367 368 369 370 371 372 373 374 375 376 377 378 379 380 381 382 383 384 385 386 387 388 389 390 391 392 393 394 395 396 397 398 399 400 401 402 403 404 405 406 407 408 409 410 411 412 413 414 415 416 417 418 419 420 421 422 423 424 425 426 427 428 429 430 431 432 433 434 435 436 437 438 439 440 441 442 443 444 445 446 447 448 449 450 451 452 453 454 455 456 457 458 459 460 461 462 463 464 465 466 467 468 469 470 471 472 473 474 475 476 477 478 479 480 481 482 483 484 485 486 487 488 489 490 491 492 493 494 495 496 497 498 499 500 501 502 503 504 505 506 507 508 509 510 511 512 513 514 515 516 517 518 519 520 521 522 523 524 525 526 527 528 529 530 531 532 533 534 535 536 537 538 539 540 541 542 543 544 545 546 547 548 549 550 551 552 553 554 555 556 557 558 559 560 561 562 563 564 565 566 567 568 569 570 571 572 573 574 575 576 577 578 579 580 581 582 583 584 585 586 587 588 589 590 591 592 593 594 595 596 597 598 599 600 601 602 603 604 605 606 607 608 609 610 611 612 613 614 615 616 617 618 619 620 621 622 623 624 625 626 627 628 629 630 631 632 633 634 635 636 637 638 639 640 641 642 643 644 645 646 647 648 649 650 651 652 653 654 655 656 657 658 659 660 661 662 663 664 665 666 667 668 669 670 671 672 673 674 675 676 677 678 679 680 681 682 683 684 685 686 687 688 689 690 691 692 693 694 695 696 697 698 699 700 701 702 703 704 705 706 707 708 709 710 711 712 713 714 715 716 717 718 719 720 721 722 723 724 725 726 727 728 729 730 731 732 733 734 735 736 737 738 739 740 741 742 743 744 745 746 747 748 749 750 751 752 753 754 755 756 757 758 759 760 761 762 763 764 765 766 767 768 769 770 771 772 773 774 775 776 777 778 779 780 781 782 783 784 785 786 787 788 789 790 791 792 793 794 795 796 797 798 799 800 801 802 803 804 805 806 807 808 809 810 811 812 813 814 815 816 817 818 819 820 821 822 823 824 825 826 827 828 829 830 831 832 833 834 835 836 837 838 839 840 841 842 843 844 845 846 847 848 849 850 851 852 853 854 855 856 857 858 859 860 861 862 863 864 865 866 867 868 869 870 871 872 873 874 875 876 877 878 879 880 881 882 883 884 885 886 887 888 889 890 891 892 893 894 895 896 897 898 899 </p>
        </polylist>
      </mesh>
    </geometry>
  </library_geometries>
  <library_controllers>
  </library_controllers>
  <library_visual_scenes>
    <visual_scene id="Scene" name="Scene">
      <node id="node" name="" type="NODE">
        <matrix sid="matrix">1 0 0 0 0 1 0 0 0 0 1 0 0 0 0 1</matrix>
        <instance_geometry url="#mesh_0">
          <bind_material>
            <technique_common>
              <instance_material symbol="defaultMaterial" target="#material_0">
              </instance_material>
            </technique_common>
          </bind_material>
        </instance_geometry>
      </node>
    </visual_scene>
  </library_visual_scenes>
  <scene>
    <instance_visual_scene url="#Scene" />
  </scene>
</COLLADA>
