<?xml version="1.0" encoding="UTF-8" standalone="no" ?>
<COLLADA xmlns="http://www.collada.org/2005/11/COLLADASchema" version="1.4.1">
  <asset>
    <contributor>
      <author>Assimp</author>
      <authoring_tool>Assimp Exporter</authoring_tool>
    </contributor>
    <created>2026-04-22T16:09:44</created>
    <modified>2026-04-22T16:09:44</modified>
    <unit name="meter" meter="1" />
    <up_axis>Y_UP</up_axis>
  </asset>
  <library_images>
  </library_images>
  <library_effects>
    <effect id="material_0-fx" name="">
      <profile_COMMON>
        <technique sid="standard">
          <phong>
            <emission>
              <color sid="emission">0   0   0   1.24774945</color>
            </emission>
            <ambient>
              <color sid="ambient">0.100000001   0.100000001   0.100000001   1.40256</color>
            </ambient>
            <diffuse>
              <color sid="diffuse">0.100000001   0.100000001   0.100000001   1.40256</color>
            </diffuse>
            <specular>
              <color sid="specular">0.25   0.25   0.25   -1.80161154</color>
            </specular>
          </phong>
        </technique>
      </profile_COMMON>
    </effect>
  </library_effects>
  <library_materials>
    <material id="material_0" name="">
      <instance_effect url="#material_0-fx"/>
    </material>
  </library_materials>
  <library_geometries>
    <geometry id="mesh_0" name="" >
      <mesh>
        <source id="mesh_0-positions" name="mesh_0-positions">
          <float_array id="mesh_0-positions-array" count="432"> -0.227630213 0.0894758105 1.66085899 -0.2311358 0.0939762667 1.66458821 -0.226804584 0.0911807343 1.65844321 -0.214314848 0.0813377351 1.69937265 -0.215762347 0.0796148181 1.69784224 -0.21432066 0.0813366845 1.69522238 -0.220195875 0.0853712037 1.69529438 -0.21432066 0.0813366845 1.69522238 -0.215762347 0.0796148181 1.69784224 -0.220195875 0.0853712037 1.69529438 -0.227668747 0.0934501216 1.69404066 -0.21432066 0.0813366845 1.69522238 -0.227668747 0.0934501216 1.69404066 -0.214314848 0.0813377351 1.69937265 -0.21432066 0.0813366845 1.69522238 -0.225382894 0.0876365378 1.69608212 -0.220195875 0.0853712037 1.69529438 -0.215762347 0.0796148181 1.69784224 -0.214314848 0.0813377351 1.69937265 -0.222651616 0.0881802812 1.69864237 -0.215762347 0.0796148181 1.69784224 -0.225382894 0.0876365378 1.69608212 -0.231684566 0.0935581848 1.68850982 -0.227110296 0.0899568796 1.69205284 -0.23047024 0.0936602652 1.69138384 -0.229016691 0.0953048915 1.69033647 -0.231684566 0.0935581848 1.68850982 -0.227110296 0.0899568796 1.69205284 -0.231684566 0.0935581848 1.68850982 -0.230207831 0.0925943926 1.68361652 -0.222651616 0.0881802812 1.69864237 -0.225382894 0.0876365378 1.69608212 -0.215762347 0.0796148181 1.69784224 -0.229016691 0.0953048915 1.69033647 -0.23259376 0.0945505872 1.68377888 -0.231684566 0.0935581848 1.68850982 -0.222651616 0.0881802812 1.69864237 -0.23047024 0.0936602652 1.69138384 -0.225382894 0.0876365378 1.69608212 -0.230863869 0.0965888128 1.68374205 -0.23259376 0.0945505872 1.68377888 -0.229016691 0.0953048915 1.69033647 -0.227668747 0.0934501216 1.69404066 -0.23047024 0.0936602652 1.69138384 -0.222651616 0.0881802812 1.69864237 -0.225382894 0.0876365378 1.69608212 -0.224775493 0.0909893513 1.69271398 -0.220195875 0.0853712037 1.69529438 -0.224775493 0.0909893513 1.69271398 -0.229303032 0.0961600617 1.68471682 -0.229016691 0.0953048915 1.69033647 -0.225382894 0.0876365378 1.69608212 -0.227110296 0.0899568796 1.69205284 -0.224775493 0.0909893513 1.69271398 -0.225382894 0.0876365378 1.69608212 -0.23047024 0.0936602652 1.69138384 -0.231684566 0.0935581848 1.68850982 -0.231175587 0.092464827 1.66619945 -0.229497179 0.0923860297 1.66848052 -0.230207831 0.0925943926 1.68361652 -0.229497179 0.0923860297 1.66848052 -0.228564397 0.0943733677 1.68359745 -0.230207831 0.0925943926 1.68361652 -0.229497179 0.0923860297 1.66848052 -0.228856385 0.0957436562 1.66810918 -0.228564397 0.0943733677 1.68359745 -0.228856385 0.0957436562 1.66810918 -0.229303032 0.0961600617 1.68471682 -0.228564397 0.0943733677 1.68359745 -0.231175587 0.092464827 1.66619945 -0.230207831 0.0925943926 1.68361652 -0.231684566 0.0935581848 1.68850982 -0.226804584 0.0911807343 1.65844321 -0.228856385 0.0957436562 1.66810918 -0.224965945 0.0923953429 1.66127241 -0.226804584 0.0911807343 1.65844321 -0.2311358 0.0939762667 1.66458821 -0.228856385 0.0957436562 1.66810918 -0.2311358 0.0939762667 1.66458821 -0.232293829 0.0956501216 1.67082977 -0.228856385 0.0957436562 1.66810918 -0.226804584 0.0911807343 1.65844321 -0.224965945 0.0923953429 1.66127241 -0.227630213 0.0894758105 1.66085899 -0.229303032 0.0961600617 1.68471682 -0.230863869 0.0965888128 1.68374205 -0.229016691 0.0953048915 1.69033647 -0.224965945 0.0923953429 1.66127241 -0.228856385 0.0957436562 1.66810918 -0.229497179 0.0923860297 1.66848052 -0.232293829 0.0956501216 1.67082977 -0.23259376 0.0945505872 1.68377888 -0.230863869 0.0965888128 1.68374205 -0.232293829 0.0956501216 1.67082977 -0.231175587 0.092464827 1.66619945 -0.23259376 0.0945505872 1.68377888 -0.231175587 0.092464827 1.66619945 -0.231684566 0.0935581848 1.68850982 -0.23259376 0.0945505872 1.68377888 -0.224775493 0.0909893513 1.69271398 -0.229016691 0.0953048915 1.69033647 -0.227668747 0.0934501216 1.69404066 -0.228856385 0.0957436562 1.66810918 -0.230863869 0.0965888128 1.68374205 -0.229303032 0.0961600617 1.68471682 -0.228856385 0.0957436562 1.66810918 -0.232293829 0.0956501216 1.67082977 -0.230863869 0.0965888128 1.68374205 -0.227668747 0.0934501216 1.69404066 -0.219204053 0.0870297998 1.69861627 -0.214314848 0.0813377351 1.69937265 -0.219204053 0.0870297998 1.69861627 -0.227668747 0.0934501216 1.69404066 -0.222651616 0.0881802812 1.69864237 -0.227630213 0.0894758105 1.66085899 -0.231175587 0.092464827 1.66619945 -0.2311358 0.0939762667 1.66458821 -0.227630213 0.0894758105 1.66085899 -0.229497179 0.0923860297 1.66848052 -0.231175587 0.092464827 1.66619945 -0.2311358 0.0939762667 1.66458821 -0.231175587 0.092464827 1.66619945 -0.232293829 0.0956501216 1.67082977 -0.224965945 0.0923953429 1.66127241 -0.229497179 0.0923860297 1.66848052 -0.227630213 0.0894758105 1.66085899 -0.220195875 0.0853712037 1.69529438 -0.224775493 0.0909893513 1.69271398 -0.227668747 0.0934501216 1.69404066 -0.227110296 0.0899568796 1.69205284 -0.229303032 0.0961600617 1.68471682 -0.224775493 0.0909893513 1.69271398 -0.228564397 0.0943733677 1.68359745 -0.227110296 0.0899568796 1.69205284 -0.230207831 0.0925943926 1.68361652 -0.227110296 0.0899568796 1.69205284 -0.228564397 0.0943733677 1.68359745 -0.229303032 0.0961600617 1.68471682 -0.227668747 0.0934501216 1.69404066 -0.229016691 0.0953048915 1.69033647 -0.23047024 0.0936602652 1.69138384 -0.219204053 0.0870297998 1.69861627 -0.222651616 0.0881802812 1.69864237 -0.214314848 0.0813377351 1.69937265 </float_array>
          <technique_common>
            <accessor count="144" offset="0" source="#mesh_0-positions-array" stride="3">
              <param name="X" type="float" />
              <param name="Y" type="float" />
              <param name="Z" type="float" />
            </accessor>
          </technique_common>
        </source>
        <vertices id="mesh_0-vertices">
          <input semantic="POSITION" source="#mesh_0-positions" />
        </vertices>
        <polylist count="48" material="defaultMaterial">
          <input offset="0" semantic="VERTEX" source="#mesh_0-vertices" />
          <vcount>3 3 3 3 3 3 3 3 3 3 3 3 3 3 3 3 3 3 3 3 3 3 3 3 3 3 3 3 3 3 3 3 3 3 3 3 3 3 3 3 3 3 3 3 3 3 3 3 </vcount>
          <p>0 1 2 3 4 5 6 7 8 9 10 11 12 13 14 15 16 17 18 19 20 21 22 23 24 25 26 27 28 29 30 31 32 33 34 35 36 37 38 39 40 41 42 43 44 45 46 47 48 49 50 51 52 53 54 55 56 57 58 59 60 61 62 63 64 65 66 67 68 69 70 71 72 73 74 75 76 77 78 79 80 81 82 83 84 85 86 87 88 89 90 91 92 93 94 95 96 97 98 99 100 101 102 103 104 105 106 107 108 109 110 111 112 113 114 115 116 117 118 119 120 121 122 123 124 125 126 127 128 129 130 131 132 133 134 135 136 137 138 139 140 141 142 143 </p>
        </polylist>
      </mesh>
    </geometry>
  </library_geometries>
  <library_controllers>
  </library_controllers>
  <library_visual_scenes>
    <visual_scene id="Scene" name="Scene">
      <node id="node" name="" type="NODE">
        <matrix sid="matrix">1 0 0 0 0 1 0 0 0 0 1 0 0 0 0 1</matrix>
        <instance_geometry url="#mesh_0">
          <bind_material>
            <technique_common>
              <instance_material symbol="defaultMaterial" target="#material_0">
              </instance_material>
            </technique_common>
          </bind_material>
        </instance_geometry>
      </node>
    </visual_scene>
  </library_visual_scenes>
  <scene>
    <instance_visual_scene url="#Scene" />
  </scene>
</COLLADA>
