<?xml version="1.0" encoding="UTF-8" standalone="no" ?>
<COLLADA xmlns="http://www.collada.org/2005/11/COLLADASchema" version="1.4.1">
  <asset>
    <contributor>
      <author>Assimp</author>
      <authoring_tool>Assimp Exporter</authoring_tool>
    </contributor>
    <created>2026-04-22T16:09:44</created>
    <modified>2026-04-22T16:09:44</modified>
    <unit name="meter" meter="1" />
    <up_axis>Y_UP</up_axis>
  </asset>
  <library_images>
  </library_images>
  <library_effects>
    <effect id="material_0-fx" name="">
      <profile_COMMON>
        <technique sid="standard">
          <phong>
            <emission>
              <color sid="emission">0   0   0   -0</color>
            </emission>
            <ambient>
              <color sid="ambient">0.699999988   1   0.699999988   1.82499993</color>
            </ambient>
            <diffuse>
              <color sid="diffuse">0.699999988   1   0.699999988   1.82499993</color>
            </diffuse>
            <specular>
              <color sid="specular">0.25   0.25   0.25   -0</color>
            </specular>
          </phong>
        </technique>
      </profile_COMMON>
    </effect>
  </library_effects>
  <library_materials>
    <material id="material_0" name="">
      <instance_effect url="#material_0-fx"/>
    </material>
  </library_materials>
  <library_geometries>
    <geometry id="mesh_0" name="" >
      <mesh>
        <source id="mesh_0-positions" name="mesh_0-positions">
          <float_array id="mesh_0-positions-array" count="504"> -0.26903674 0.0861589462 1.56995857 -0.212116808 0.0862186998 1.62673128 -0.273854136 0.071981281 1.63243222 -0.212116808 0.0862186998 1.62673128 -0.223232821 0.0817848593 1.64044428 -0.273854136 0.071981281 1.63243222 -0.225504845 0.102807522 1.72843242 -0.223232821 0.0817848593 1.64044428 -0.212116808 0.0862186998 1.62673128 -0.280077815 0.0847345218 1.63338006 -0.26903674 0.0861589462 1.56995857 -0.273854136 0.071981281 1.63243222 -0.220113218 0.123899251 1.73139668 -0.26585412 0.0983101353 1.72905564 -0.225504845 0.102807522 1.72843242 -0.26585412 0.0983101353 1.72905564 -0.220113218 0.123899251 1.73139668 -0.280097932 0.118685029 1.73165345 -0.245914146 0.108280487 1.58823729 -0.212116808 0.0862186998 1.62673128 -0.26903674 0.0861589462 1.56995857 -0.245914146 0.108280487 1.58823729 -0.227349296 0.112461634 1.60947537 -0.212116808 0.0862186998 1.62673128 -0.218305007 0.112117268 1.72157192 -0.225504845 0.102807522 1.72843242 -0.212116808 0.0862186998 1.62673128 -0.220113218 0.123899251 1.73139668 -0.218305007 0.112117268 1.72157192 -0.212116808 0.0862186998 1.62673128 -0.218305007 0.112117268 1.72157192 -0.220113218 0.123899251 1.73139668 -0.225504845 0.102807522 1.72843242 -0.227349296 0.112461634 1.60947537 -0.219690204 0.109212749 1.63820481 -0.212116808 0.0862186998 1.62673128 -0.219690204 0.109212749 1.63820481 -0.220113218 0.123899251 1.73139668 -0.212116808 0.0862186998 1.62673128 -0.223232821 0.0817848593 1.64044428 -0.255992621 0.076639019 1.64098728 -0.273854136 0.071981281 1.63243222 -0.280060828 0.107488886 1.72479296 -0.280077815 0.0847345218 1.63338006 -0.273854136 0.071981281 1.63243222 -0.280077815 0.0847345218 1.63338006 -0.280060828 0.107488886 1.72479296 -0.280097932 0.118685029 1.73165345 -0.280077815 0.0847345218 1.63338006 -0.273038179 0.103124522 1.59693098 -0.26903674 0.0861589462 1.56995857 -0.273038179 0.103124522 1.59693098 -0.271833658 0.130989179 1.72724724 -0.268169373 0.116895393 1.64085901 -0.249126032 0.0977052823 1.72345853 -0.26585412 0.0983101353 1.72905564 -0.273854136 0.071981281 1.63243222 -0.26585412 0.0983101353 1.72905564 -0.249126032 0.0977052823 1.72345853 -0.225504845 0.102807522 1.72843242 -0.255992621 0.076639019 1.64098728 -0.249126032 0.0977052823 1.72345853 -0.273854136 0.071981281 1.63243222 -0.249126032 0.0977052823 1.72345853 -0.223232821 0.0817848593 1.64044428 -0.225504845 0.102807522 1.72843242 -0.249126032 0.0977052823 1.72345853 -0.255992621 0.076639019 1.64098728 -0.223232821 0.0817848593 1.64044428 -0.219690204 0.109212749 1.63820481 -0.224581316 0.131120071 1.73103607 -0.220113218 0.123899251 1.73139668 -0.220113218 0.123899251 1.73139668 -0.224581316 0.131120071 1.73103607 -0.280097932 0.118685029 1.73165345 -0.231428221 0.135030106 1.72826934 -0.224581316 0.131120071 1.73103607 -0.227349296 0.112461634 1.60947537 -0.224581316 0.131120071 1.73103607 -0.219690204 0.109212749 1.63820481 -0.227349296 0.112461634 1.60947537 -0.224581316 0.131120071 1.73103607 -0.271833658 0.130989179 1.72724724 -0.280097932 0.118685029 1.73165345 -0.271833658 0.130989179 1.72724724 -0.224581316 0.131120071 1.73103607 -0.231428221 0.135030106 1.72826934 -0.2604689 0.134394139 1.72468722 -0.231428221 0.135030106 1.72826934 -0.242784634 0.136146292 1.72469759 -0.2604689 0.134394139 1.72468722 -0.271833658 0.130989179 1.72724724 -0.231428221 0.135030106 1.72826934 -0.248569474 0.121893063 1.64497495 -0.2604689 0.134394139 1.72468722 -0.242784634 0.136146292 1.72469759 -0.271833658 0.130989179 1.72724724 -0.2604689 0.134394139 1.72468722 -0.268169373 0.116895393 1.64085901 -0.2604689 0.134394139 1.72468722 -0.248569474 0.121893063 1.64497495 -0.268169373 0.116895393 1.64085901 -0.274274796 0.100840725 1.72733116 -0.26585412 0.0983101353 1.72905564 -0.280097932 0.118685029 1.73165345 -0.280060828 0.107488886 1.72479296 -0.274274796 0.100840725 1.72733116 -0.280097932 0.118685029 1.73165345 -0.26585412 0.0983101353 1.72905564 -0.274274796 0.100840725 1.72733116 -0.273854136 0.071981281 1.63243222 -0.274274796 0.100840725 1.72733116 -0.280060828 0.107488886 1.72479296 -0.273854136 0.071981281 1.63243222 -0.259958833 0.110170305 1.60050654 -0.273038179 0.103124522 1.59693098 -0.268169373 0.116895393 1.64085901 -0.248569474 0.121893063 1.64497495 -0.259958833 0.110170305 1.60050654 -0.268169373 0.116895393 1.64085901 -0.259958833 0.110170305 1.60050654 -0.248569474 0.121893063 1.64497495 -0.245914146 0.108280487 1.58823729 -0.277849138 0.106000006 1.64429986 -0.280077815 0.0847345218 1.63338006 -0.280097932 0.118685029 1.73165345 -0.277849138 0.106000006 1.64429986 -0.273038179 0.103124522 1.59693098 -0.280077815 0.0847345218 1.63338006 -0.245914146 0.108280487 1.58823729 -0.232229218 0.118646987 1.63305688 -0.227349296 0.112461634 1.60947537 -0.248569474 0.121893063 1.64497495 -0.232229218 0.118646987 1.63305688 -0.245914146 0.108280487 1.58823729 -0.232229218 0.118646987 1.63305688 -0.248569474 0.121893063 1.64497495 -0.242784634 0.136146292 1.72469759 -0.231428221 0.135030106 1.72826934 -0.232229218 0.118646987 1.63305688 -0.242784634 0.136146292 1.72469759 -0.232229218 0.118646987 1.63305688 -0.231428221 0.135030106 1.72826934 -0.227349296 0.112461634 1.60947537 -0.267148256 0.103702299 1.58955252 -0.259958833 0.110170305 1.60050654 -0.245914146 0.108280487 1.58823729 -0.259958833 0.110170305 1.60050654 -0.267148256 0.103702299 1.58955252 -0.273038179 0.103124522 1.59693098 -0.267148256 0.103702299 1.58955252 -0.245914146 0.108280487 1.58823729 -0.26903674 0.0861589462 1.56995857 -0.273038179 0.103124522 1.59693098 -0.267148256 0.103702299 1.58955252 -0.26903674 0.0861589462 1.56995857 -0.273038179 0.103124522 1.59693098 -0.27634868 0.125442058 1.72227073 -0.271833658 0.130989179 1.72724724 -0.277849138 0.106000006 1.64429986 -0.27634868 0.125442058 1.72227073 -0.273038179 0.103124522 1.59693098 -0.271833658 0.130989179 1.72724724 -0.27634868 0.125442058 1.72227073 -0.280097932 0.118685029 1.73165345 -0.27634868 0.125442058 1.72227073 -0.277849138 0.106000006 1.64429986 -0.280097932 0.118685029 1.73165345 </float_array>
          <technique_common>
            <accessor count="168" offset="0" source="#mesh_0-positions-array" stride="3">
              <param name="X" type="float" />
              <param name="Y" type="float" />
              <param name="Z" type="float" />
            </accessor>
          </technique_common>
        </source>
        <vertices id="mesh_0-vertices">
          <input semantic="POSITION" source="#mesh_0-positions" />
        </vertices>
        <polylist count="56" material="defaultMaterial">
          <input offset="0" semantic="VERTEX" source="#mesh_0-vertices" />
          <vcount>3 3 3 3 3 3 3 3 3 3 3 3 3 3 3 3 3 3 3 3 3 3 3 3 3 3 3 3 3 3 3 3 3 3 3 3 3 3 3 3 3 3 3 3 3 3 3 3 3 3 3 3 3 3 3 3 </vcount>
          <p>0 1 2 3 4 5 6 7 8 9 10 11 12 13 14 15 16 17 18 19 20 21 22 23 24 25 26 27 28 29 30 31 32 33 34 35 36 37 38 39 40 41 42 43 44 45 46 47 48 49 50 51 52 53 54 55 56 57 58 59 60 61 62 63 64 65 66 67 68 69 70 71 72 73 74 75 76 77 78 79 80 81 82 83 84 85 86 87 88 89 90 91 92 93 94 95 96 97 98 99 100 101 102 103 104 105 106 107 108 109 110 111 112 113 114 115 116 117 118 119 120 121 122 123 124 125 126 127 128 129 130 131 132 133 134 135 136 137 138 139 140 141 142 143 144 145 146 147 148 149 150 151 152 153 154 155 156 157 158 159 160 161 162 163 164 165 166 167 </p>
        </polylist>
      </mesh>
    </geometry>
  </library_geometries>
  <library_controllers>
  </library_controllers>
  <library_visual_scenes>
    <visual_scene id="Scene" name="Scene">
      <node id="node" name="" type="NODE">
        <matrix sid="matrix">1 0 0 0 0 1 0 0 0 0 1 0 0 0 0 1</matrix>
        <instance_geometry url="#mesh_0">
          <bind_material>
            <technique_common>
              <instance_material symbol="defaultMaterial" target="#material_0">
              </instance_material>
            </technique_common>
          </bind_material>
        </instance_geometry>
      </node>
    </visual_scene>
  </library_visual_scenes>
  <scene>
    <instance_visual_scene url="#Scene" />
  </scene>
</COLLADA>
