<?xml version="1.0" encoding="UTF-8" standalone="no" ?>
<COLLADA xmlns="http://www.collada.org/2005/11/COLLADASchema" version="1.4.1">
  <asset>
    <contributor>
      <author>Assimp</author>
      <authoring_tool>Assimp Exporter</authoring_tool>
    </contributor>
    <created>2026-04-22T16:09:43</created>
    <modified>2026-04-22T16:09:43</modified>
    <unit name="meter" meter="1" />
    <up_axis>Y_UP</up_axis>
  </asset>
  <library_images>
  </library_images>
  <library_effects>
    <effect id="material_0-fx" name="">
      <profile_COMMON>
        <technique sid="standard">
          <phong>
            <emission>
              <color sid="emission">0   0   0   -1.87499988</color>
            </emission>
            <ambient>
              <color sid="ambient">0.400000006   0.400000006   0.400000006   -1.40108883</color>
            </ambient>
            <diffuse>
              <color sid="diffuse">0.400000006   0.400000006   0.400000006   -1.40108883</color>
            </diffuse>
            <specular>
              <color sid="specular">0.25   0.25   0.25   0.264730781</color>
            </specular>
          </phong>
        </technique>
      </profile_COMMON>
    </effect>
  </library_effects>
  <library_materials>
    <material id="material_0" name="">
      <instance_effect url="#material_0-fx"/>
    </material>
  </library_materials>
  <library_geometries>
    <geometry id="mesh_0" name="" >
      <mesh>
        <source id="mesh_0-positions" name="mesh_0-positions">
          <float_array id="mesh_0-positions-array" count="801"> 0.686234295 -0.182339206 1.71107495 0.684340835 -0.180739045 1.71034098 0.674787223 -0.172385886 1.70643878 0.691007257 -0.1860919 1.68864143 0.690939426 -0.186182812 1.68862021 0.680976927 -0.178213373 1.6879437 0.680976927 -0.178213373 1.6879437 0.675976217 -0.173517987 1.68850744 0.691007257 -0.1860919 1.68864143 0.675986409 -0.170431986 1.68982279 0.675976217 -0.173517987 1.68850744 0.673109412 -0.170744509 1.69081843 0.686923444 -0.181417033 1.70762396 0.685987592 -0.181519553 1.70116091 0.67875123 -0.173128977 1.70502937 0.675986409 -0.170431986 1.68982279 0.673357487 -0.169251189 1.69521356 0.674549043 -0.168939754 1.69915044 0.675986409 -0.170431986 1.68982279 0.673109412 -0.170744509 1.69081843 0.673357487 -0.169251189 1.69521356 0.675349116 -0.169714168 1.70352805 0.674549043 -0.168939754 1.69915044 0.672547579 -0.17022571 1.70166993 0.688426375 -0.183738619 1.70423257 0.68851769 -0.183995813 1.69793868 0.685987592 -0.181519553 1.70116091 0.68851769 -0.183995813 1.69793868 0.688157856 -0.183020622 1.6937089 0.683295906 -0.178643391 1.6971848 0.683295906 -0.178643391 1.6971848 0.675986409 -0.170431986 1.68982279 0.674549043 -0.168939754 1.69915044 0.688976943 -0.1849318 1.68794823 0.69441843 -0.188918114 1.70932591 0.691678107 -0.186972186 1.7116735 0.682887018 -0.179880619 1.71109891 0.674787223 -0.172385886 1.70643878 0.672547579 -0.17022571 1.70166993 0.69441843 -0.188918114 1.70932591 0.688976943 -0.1849318 1.68794823 0.695724845 -0.189594269 1.7049948 0.682887018 -0.179880619 1.71109891 0.672342479 -0.169984564 1.69552958 0.680976927 -0.178213373 1.6879437 0.683295906 -0.178643391 1.6971848 0.678084314 -0.172519445 1.69147921 0.675986409 -0.170431986 1.68982279 0.682887018 -0.179880619 1.71109891 0.672547579 -0.17022571 1.70166993 0.672342479 -0.169984564 1.69552958 0.695724845 -0.189594269 1.7049948 0.688976943 -0.1849318 1.68794823 0.695701718 -0.189772218 1.6978749 0.682887018 -0.179880619 1.71109891 0.686234295 -0.182339206 1.71107495 0.674787223 -0.172385886 1.70643878 0.680976927 -0.178213373 1.6879437 0.690939426 -0.186182812 1.68862021 0.688976943 -0.1849318 1.68794823 0.682887018 -0.179880619 1.71109891 0.688976943 -0.1849318 1.68794823 0.686234295 -0.182339206 1.71107495 0.680976927 -0.178213373 1.6879437 0.672342479 -0.169984564 1.69552958 0.673109412 -0.170744509 1.69081843 0.695701718 -0.189772218 1.6978749 0.688976943 -0.1849318 1.68794823 0.693777502 -0.188464195 1.69010806 0.690939426 -0.186182812 1.68862021 0.693777502 -0.188464195 1.69010806 0.688976943 -0.1849318 1.68794823 0.688976943 -0.1849318 1.68794823 0.691678107 -0.186972186 1.7116735 0.686234295 -0.182339206 1.71107495 0.673109412 -0.170744509 1.69081843 0.675976217 -0.173517987 1.68850744 0.680976927 -0.178213373 1.6879437 0.694963932 -0.186522603 1.70959032 0.691678107 -0.186972186 1.7116735 0.69441843 -0.188918114 1.70932591 0.687393963 -0.182281926 1.71130192 0.686234236 -0.182334334 1.71108568 0.686234295 -0.182339206 1.71107495 0.687393963 -0.182281926 1.71130192 0.686234295 -0.182339206 1.71107495 0.68955195 -0.182423696 1.71103454 0.68955195 -0.182423696 1.71103454 0.686234295 -0.182339206 1.71107495 0.691678107 -0.186972186 1.7116735 0.674787223 -0.172385886 1.70643878 0.684340835 -0.180739045 1.71034098 0.677378118 -0.171815366 1.70644295 0.68851769 -0.183995813 1.69793868 0.683295906 -0.178643391 1.6971848 0.685987592 -0.181519553 1.70116091 0.67875123 -0.173128977 1.70502937 0.685987592 -0.181519553 1.70116091 0.675349116 -0.169714168 1.70352805 0.685987592 -0.181519553 1.70116091 0.674549043 -0.168939754 1.69915044 0.675349116 -0.169714168 1.70352805 0.683295906 -0.178643391 1.6971848 0.674549043 -0.168939754 1.69915044 0.685987592 -0.181519553 1.70116091 0.677378118 -0.171815366 1.70644295 0.684340835 -0.180739045 1.71034098 0.687393963 -0.182281926 1.71130192 0.688157856 -0.183020622 1.6937089 0.678084314 -0.172519445 1.69147921 0.683295906 -0.178643391 1.6971848 0.688426375 -0.183738619 1.70423257 0.685987592 -0.181519553 1.70116091 0.686923444 -0.181417033 1.70762396 0.684340835 -0.180739045 1.71034098 0.686234236 -0.182334334 1.71108568 0.687393963 -0.182281926 1.71130192 0.674239397 -0.170200989 1.70409811 0.672547579 -0.17022571 1.70166993 0.674787223 -0.172385886 1.70643878 0.673357487 -0.169251189 1.69521356 0.672342479 -0.169984564 1.69552958 0.672547579 -0.17022571 1.70166993 0.673357487 -0.169251189 1.69521356 0.673109412 -0.170744509 1.69081843 0.672342479 -0.169984564 1.69552958 0.691007257 -0.1860919 1.68864143 0.675976217 -0.173517987 1.68850744 0.691008151 -0.186090931 1.68864155 0.695573151 -0.186945051 1.69191885 0.695701718 -0.189772218 1.6978749 0.693777502 -0.188464195 1.69010806 0.686923444 -0.181417033 1.70762396 0.67875123 -0.173128977 1.70502937 0.68832314 -0.181679994 1.7089591 0.693777502 -0.188464195 1.69010806 0.690939426 -0.186182812 1.68862021 0.693768024 -0.185646012 1.68952835 0.693768024 -0.185646012 1.68952835 0.690939426 -0.186182812 1.68862021 0.691008151 -0.186090931 1.68864155 0.675349116 -0.169714168 1.70352805 0.674239397 -0.170200989 1.70409811 0.674787223 -0.172385886 1.70643878 0.672547579 -0.17022571 1.70166993 0.674549043 -0.168939754 1.69915044 0.673357487 -0.169251189 1.69521356 0.675349116 -0.169714168 1.70352805 0.674787223 -0.172385886 1.70643878 0.677378118 -0.171815366 1.70644295 0.672547579 -0.17022571 1.70166993 0.674239397 -0.170200989 1.70409811 0.675349116 -0.169714168 1.70352805 0.677918017 -0.172317386 1.68911004 0.675976217 -0.173517987 1.68850744 0.675986409 -0.170431986 1.68982279 0.693768024 -0.185646012 1.68952835 0.691008151 -0.186090931 1.68864155 0.677918017 -0.172317386 1.68911004 0.677918017 -0.172317386 1.68911004 0.691008151 -0.186090931 1.68864155 0.675976217 -0.173517987 1.68850744 0.69657445 -0.187691569 1.6967057 0.696713626 -0.187786222 1.70508039 0.695701718 -0.189772218 1.6978749 0.695701718 -0.189772218 1.6978749 0.696713626 -0.187786222 1.70508039 0.695724845 -0.189594269 1.7049948 0.688426375 -0.183738619 1.70423257 0.686923444 -0.181417033 1.70762396 0.689499319 -0.184212342 1.70486653 0.695573151 -0.186945051 1.69191885 0.69657445 -0.187691569 1.6967057 0.695701718 -0.189772218 1.6978749 0.686923444 -0.181417033 1.70762396 0.68832314 -0.181679994 1.7089591 0.691920638 -0.184630617 1.70567191 0.695573151 -0.186945051 1.69191885 0.693777502 -0.188464195 1.69010806 0.693768024 -0.185646012 1.68952835 0.694963932 -0.186522603 1.70959032 0.68955195 -0.182423696 1.71103454 0.691678107 -0.186972186 1.7116735 0.696713626 -0.187786222 1.70508039 0.694963932 -0.186522603 1.70959032 0.69441843 -0.188918114 1.70932591 0.696713626 -0.187786222 1.70508039 0.69441843 -0.188918114 1.70932591 0.695724845 -0.189594269 1.7049948 0.68955195 -0.182423696 1.71103454 0.677378118 -0.171815366 1.70644295 0.687393963 -0.182281926 1.71130192 0.677378118 -0.171815366 1.70644295 0.67875123 -0.173128977 1.70502937 0.675349116 -0.169714168 1.70352805 0.693768024 -0.185646012 1.68952835 0.677918017 -0.172317386 1.68911004 0.690004706 -0.182963639 1.69135737 0.678084314 -0.172519445 1.69147921 0.677918017 -0.172317386 1.68911004 0.675986409 -0.170431986 1.68982279 0.693844318 -0.185438111 1.69186711 0.693768024 -0.185646012 1.68952835 0.690004706 -0.182963639 1.69135737 0.693844318 -0.185438111 1.69186711 0.690004706 -0.182963639 1.69135737 0.692177534 -0.18456386 1.6937629 0.693844318 -0.185438111 1.69186711 0.69657445 -0.187691569 1.6967057 0.695573151 -0.186945051 1.69191885 0.693844318 -0.185438111 1.69186711 0.695573151 -0.186945051 1.69191885 0.693768024 -0.185646012 1.68952835 0.693844318 -0.185438111 1.69186711 0.695438862 -0.186524242 1.70644188 0.69657445 -0.187691569 1.6967057 0.695438862 -0.186524242 1.70644188 0.696713626 -0.187786222 1.70508039 0.69657445 -0.187691569 1.6967057 0.693844318 -0.185438111 1.69186711 0.691920638 -0.184630617 1.70567191 0.695438862 -0.186524242 1.70644188 0.693844318 -0.185438111 1.69186711 0.692177534 -0.18456386 1.6937629 0.691920638 -0.184630617 1.70567191 0.695438862 -0.186524242 1.70644188 0.691920638 -0.184630617 1.70567191 0.694963932 -0.186522603 1.70959032 0.694963932 -0.186522603 1.70959032 0.68832314 -0.181679994 1.7089591 0.68955195 -0.182423696 1.71103454 0.691920638 -0.184630617 1.70567191 0.68832314 -0.181679994 1.7089591 0.694963932 -0.186522603 1.70959032 0.695438862 -0.186524242 1.70644188 0.694963932 -0.186522603 1.70959032 0.696713626 -0.187786222 1.70508039 0.68832314 -0.181679994 1.7089591 0.67875123 -0.173128977 1.70502937 0.68955195 -0.182423696 1.71103454 0.68955195 -0.182423696 1.71103454 0.67875123 -0.173128977 1.70502937 0.677378118 -0.171815366 1.70644295 0.689499319 -0.184212342 1.70486653 0.686923444 -0.181417033 1.70762396 0.691920638 -0.184630617 1.70567191 0.690004706 -0.182963639 1.69135737 0.678084314 -0.172519445 1.69147921 0.688157856 -0.183020622 1.6937089 0.678084314 -0.172519445 1.69147921 0.690004706 -0.182963639 1.69135737 0.677918017 -0.172317386 1.68911004 0.690004706 -0.182963639 1.69135737 0.688157856 -0.183020622 1.6937089 0.692177534 -0.18456386 1.6937629 0.691920638 -0.184630617 1.70567191 0.692177534 -0.18456386 1.6937629 0.689499319 -0.184212342 1.70486653 0.68851769 -0.183995813 1.69793868 0.692177534 -0.18456386 1.6937629 0.688157856 -0.183020622 1.6937089 0.688426375 -0.183738619 1.70423257 0.689499319 -0.184212342 1.70486653 0.68851769 -0.183995813 1.69793868 0.68851769 -0.183995813 1.69793868 0.689499319 -0.184212342 1.70486653 0.692177534 -0.18456386 1.6937629 </float_array>
          <technique_common>
            <accessor count="267" offset="0" source="#mesh_0-positions-array" stride="3">
              <param name="X" type="float" />
              <param name="Y" type="float" />
              <param name="Z" type="float" />
            </accessor>
          </technique_common>
        </source>
        <vertices id="mesh_0-vertices">
          <input semantic="POSITION" source="#mesh_0-positions" />
        </vertices>
        <polylist count="89" material="defaultMaterial">
          <input offset="0" semantic="VERTEX" source="#mesh_0-vertices" />
          <vcount>3 3 3 3 3 3 3 3 3 3 3 3 3 3 3 3 3 3 3 3 3 3 3 3 3 3 3 3 3 3 3 3 3 3 3 3 3 3 3 3 3 3 3 3 3 3 3 3 3 3 3 3 3 3 3 3 3 3 3 3 3 3 3 3 3 3 3 3 3 3 3 3 3 3 3 3 3 3 3 3 3 3 3 3 3 3 3 3 3 </vcount>
          <p>0 1 2 3 4 5 6 7 8 9 10 11 12 13 14 15 16 17 18 19 20 21 22 23 24 25 26 27 28 29 30 31 32 33 34 35 36 37 38 39 40 41 42 43 44 45 46 47 48 49 50 51 52 53 54 55 56 57 58 59 60 61 62 63 64 65 66 67 68 69 70 71 72 73 74 75 76 77 78 79 80 81 82 83 84 85 86 87 88 89 90 91 92 93 94 95 96 97 98 99 100 101 102 103 104 105 106 107 108 109 110 111 112 113 114 115 116 117 118 119 120 121 122 123 124 125 126 127 128 129 130 131 132 133 134 135 136 137 138 139 140 141 142 143 144 145 146 147 148 149 150 151 152 153 154 155 156 157 158 159 160 161 162 163 164 165 166 167 168 169 170 171 172 173 174 175 176 177 178 179 180 181 182 183 184 185 186 187 188 189 190 191 192 193 194 195 196 197 198 199 200 201 202 203 204 205 206 207 208 209 210 211 212 213 214 215 216 217 218 219 220 221 222 223 224 225 226 227 228 229 230 231 232 233 234 235 236 237 238 239 240 241 242 243 244 245 246 247 248 249 250 251 252 253 254 255 256 257 258 259 260 261 262 263 264 265 266 </p>
        </polylist>
      </mesh>
    </geometry>
  </library_geometries>
  <library_controllers>
  </library_controllers>
  <library_visual_scenes>
    <visual_scene id="Scene" name="Scene">
      <node id="node" name="" type="NODE">
        <matrix sid="matrix">1 0 0 0 0 1 0 0 0 0 1 0 0 0 0 1</matrix>
        <instance_geometry url="#mesh_0">
          <bind_material>
            <technique_common>
              <instance_material symbol="defaultMaterial" target="#material_0">
              </instance_material>
            </technique_common>
          </bind_material>
        </instance_geometry>
      </node>
    </visual_scene>
  </library_visual_scenes>
  <scene>
    <instance_visual_scene url="#Scene" />
  </scene>
</COLLADA>
