<?xml version="1.0" encoding="UTF-8" standalone="no" ?>
<COLLADA xmlns="http://www.collada.org/2005/11/COLLADASchema" version="1.4.1">
  <asset>
    <contributor>
      <author>Assimp</author>
      <authoring_tool>Assimp Exporter</authoring_tool>
    </contributor>
    <created>2026-04-22T16:09:43</created>
    <modified>2026-04-22T16:09:43</modified>
    <unit name="meter" meter="1" />
    <up_axis>Y_UP</up_axis>
  </asset>
  <library_images>
  </library_images>
  <library_effects>
    <effect id="material_0-fx" name="">
      <profile_COMMON>
        <technique sid="standard">
          <phong>
            <emission>
              <color sid="emission">0   0   0   4.19744942e-41</color>
            </emission>
            <ambient>
              <color sid="ambient">0.729996622   0.630066335   0.634150326   4.19744942e-41</color>
            </ambient>
            <diffuse>
              <color sid="diffuse">0.729996622   0.630066335   0.634150326   4.19744942e-41</color>
            </diffuse>
            <specular>
              <color sid="specular">0.25   0.25   0.25   4.19744942e-41</color>
            </specular>
          </phong>
        </technique>
      </profile_COMMON>
    </effect>
  </library_effects>
  <library_materials>
    <material id="material_0" name="">
      <instance_effect url="#material_0-fx"/>
    </material>
  </library_materials>
  <library_geometries>
    <geometry id="mesh_0" name="" >
      <mesh>
        <source id="mesh_0-positions" name="mesh_0-positions">
          <float_array id="mesh_0-positions-array" count="2700"> 0.737220943 -0.244305342 1.07431555 0.737014353 -0.303687602 1.08127248 0.737021327 -0.238614857 1.27707386 0.737220943 -0.244305342 1.07431555 0.737865746 -0.30643183 1.07362521 0.737014353 -0.303687602 1.08127248 0.760920823 -0.19811219 1.20915878 0.744403958 -0.244099602 1.05503917 0.737220943 -0.244305342 1.07431555 0.744403958 -0.244099602 1.05503917 0.741760135 -0.306848347 1.06039631 0.737220943 -0.244305342 1.07431555 0.760920823 -0.19811219 1.20915878 0.770766497 -0.192803845 1.20966744 0.744403958 -0.244099602 1.05503917 0.752026141 -0.20568718 1.20756924 0.737220943 -0.244305342 1.07431555 0.743559062 -0.217081398 1.20633423 0.84384042 -0.22522065 1.27709413 0.841986954 -0.220352396 1.20479107 0.838627517 -0.214189738 1.27709329 0.835969031 -0.244099572 1.04979682 0.828158855 -0.30809021 1.04144144 0.824108064 -0.244117841 1.03808975 0.807232201 -0.368694901 1.10027575 0.81571728 -0.293327361 1.27708673 0.802535117 -0.297764122 1.27708375 0.817461669 -0.365049779 1.09928298 0.81571728 -0.293327361 1.27708673 0.807232201 -0.368694901 1.10027575 0.761293471 -0.362105995 1.09916413 0.770120382 -0.294301867 1.27707696 0.755003691 -0.284702092 1.27707386 0.775916219 -0.307753146 1.03031468 0.763409972 -0.244109094 1.0358026 0.778446496 -0.244106606 1.02963591 0.763409972 -0.244109094 1.0358026 0.775916219 -0.307753146 1.03031468 0.763288856 -0.308382839 1.03605235 0.788460076 -0.188731566 1.20866334 0.763409972 -0.244109094 1.0358026 0.780519664 -0.189826995 1.20921016 0.788460076 -0.188731566 1.20866334 0.778446496 -0.244106606 1.02963591 0.763409972 -0.244109094 1.0358026 0.824108064 -0.244117841 1.03808975 0.805842876 -0.190273762 1.20950043 0.835969031 -0.244099572 1.04979682 0.770766497 -0.192803845 1.20966744 0.752931118 -0.244106978 1.04428613 0.744403958 -0.244099602 1.05503917 0.780519664 -0.189826995 1.20921016 0.752931118 -0.244106978 1.04428613 0.770766497 -0.192803845 1.20966744 0.780519664 -0.189826995 1.20921016 0.763409972 -0.244109094 1.0358026 0.752931118 -0.244106978 1.04428613 0.741760135 -0.306848347 1.06039631 0.737865746 -0.30643183 1.07362521 0.737220943 -0.244305342 1.07431555 0.760920823 -0.19811219 1.20915878 0.737220943 -0.244305342 1.07431555 0.752026141 -0.20568718 1.20756924 0.835932314 -0.352242768 1.0948863 0.838225782 -0.351238072 1.08674276 0.840699255 -0.269580722 1.27709198 0.846829236 -0.244202495 1.07667136 0.841986954 -0.220352396 1.20479107 0.845420182 -0.230447352 1.20120633 0.847110629 -0.248716593 1.27710414 0.846829236 -0.244202495 1.07667136 0.846477628 -0.235428676 1.2770946 0.827801108 -0.20178619 1.20886862 0.846829236 -0.244202495 1.07667136 0.843183219 -0.24410899 1.06253636 0.824108064 -0.244117841 1.03808975 0.79540205 -0.188737467 1.20884347 0.805842876 -0.190273762 1.20950043 0.80992204 -0.244113535 1.03096294 0.79540205 -0.188737467 1.20884347 0.824108064 -0.244117841 1.03808975 0.824108064 -0.244117841 1.03808975 0.813426971 -0.308173597 1.03218019 0.80992204 -0.244113535 1.03096294 0.799780071 -0.308112472 1.02857816 0.80992204 -0.244113535 1.03096294 0.813426971 -0.308173597 1.03218019 0.799780071 -0.308112472 1.02857816 0.794471085 -0.244102061 1.02786326 0.80992204 -0.244113535 1.03096294 0.843230546 -0.306360602 1.06272089 0.843183219 -0.24410899 1.06253636 0.846829236 -0.244202495 1.07667136 0.737021327 -0.238614857 1.27707386 0.738569379 -0.230090752 1.20178425 0.737220943 -0.244305342 1.07431555 0.79124558 -0.372685462 1.09049666 0.795479476 -0.370709836 1.09981167 0.785730302 -0.369993865 1.10131907 0.795479476 -0.370709836 1.09981167 0.786358774 -0.298518032 1.2770803 0.785730302 -0.369993865 1.10131907 0.795479476 -0.370709836 1.09981167 0.802535117 -0.297764122 1.27708375 0.786358774 -0.298518032 1.2770803 0.754079223 -0.357227772 1.09780753 0.761293471 -0.362105995 1.09916413 0.755003691 -0.284702092 1.27707386 0.745716214 -0.351093292 1.0860709 0.744176626 -0.271090567 1.27707171 0.738525808 -0.25722906 1.27707136 0.745716214 -0.351093292 1.0860709 0.747389019 -0.351470143 1.09480405 0.744176626 -0.271090567 1.27707171 0.754079223 -0.357227772 1.09780753 0.755003691 -0.284702092 1.27707386 0.747389019 -0.351470143 1.09480405 0.802043676 -0.372329354 1.08418941 0.798886478 -0.372213751 1.07533836 0.807039738 -0.370187312 1.07168353 0.81571728 -0.293327361 1.27708673 0.817461669 -0.365049779 1.09928298 0.82865274 -0.35823226 1.09829795 0.788460076 -0.188731566 1.20866334 0.794471085 -0.244102061 1.02786326 0.778446496 -0.244106606 1.02963591 0.741760135 -0.306848347 1.06039631 0.744403958 -0.244099602 1.05503917 0.74740839 -0.307599485 1.05082524 0.737014353 -0.303687602 1.08127248 0.737865746 -0.30643183 1.07362521 0.740213513 -0.325182825 1.08143961 0.737865746 -0.30643183 1.07362521 0.741760135 -0.306848347 1.06039631 0.742554486 -0.322627664 1.06570423 0.770766497 -0.192803845 1.20966744 0.760920823 -0.19811219 1.20915878 0.763663709 -0.196365163 1.27707756 0.752026141 -0.20568718 1.20756924 0.746139467 -0.213027462 1.27707374 0.754632533 -0.203040466 1.27707577 0.743559062 -0.217081398 1.20633423 0.746139467 -0.213027462 1.27707374 0.752026141 -0.20568718 1.20756924 0.754632533 -0.203040466 1.27707577 0.760920823 -0.19811219 1.20915878 0.752026141 -0.20568718 1.20756924 0.838225782 -0.351238072 1.08674276 0.843780518 -0.325317383 1.08088064 0.847110629 -0.248716593 1.27710414 0.843780518 -0.325317383 1.08088064 0.846915901 -0.304669887 1.07846093 0.847110629 -0.248716593 1.27710414 0.845420182 -0.230447352 1.20120633 0.84384042 -0.22522065 1.27709413 0.846477628 -0.235428676 1.2770946 0.835932314 -0.352242768 1.0948863 0.829387248 -0.284281105 1.27708995 0.82865274 -0.35823226 1.09829795 0.845420182 -0.230447352 1.20120633 0.841986954 -0.220352396 1.20479107 0.84384042 -0.22522065 1.27709413 0.846477628 -0.235428676 1.2770946 0.846829236 -0.244202495 1.07667136 0.845420182 -0.230447352 1.20120633 0.846915901 -0.304669887 1.07846093 0.846829236 -0.244202495 1.07667136 0.847110629 -0.248716593 1.27710414 0.819651365 -0.195946097 1.20930219 0.827801108 -0.20178619 1.20886862 0.843183219 -0.24410899 1.06253636 0.828158855 -0.30809021 1.04144144 0.837218463 -0.307066709 1.05164182 0.831600547 -0.326752335 1.0497427 0.79540205 -0.188737467 1.20884347 0.80992204 -0.244113535 1.03096294 0.794471085 -0.244102061 1.02786326 0.79540205 -0.188737467 1.20884347 0.794471085 -0.244102061 1.02786326 0.788460076 -0.188731566 1.20866334 0.800560534 -0.328205347 1.03218007 0.813426971 -0.308173597 1.03218019 0.811796784 -0.328720212 1.03561735 0.800560534 -0.328205347 1.03218007 0.811796784 -0.328720212 1.03561735 0.805031419 -0.350672871 1.03827751 0.81722647 -0.328354239 1.03822064 0.813426971 -0.308173597 1.03218019 0.828158855 -0.30809021 1.04144144 0.828158855 -0.30809021 1.04144144 0.823326349 -0.327592164 1.04213488 0.81722647 -0.328354239 1.03822064 0.813426971 -0.308173597 1.03218019 0.824108064 -0.244117841 1.03808975 0.828158855 -0.30809021 1.04144144 0.788631499 -0.308049142 1.0280726 0.778446496 -0.244106606 1.02963591 0.794471085 -0.244102061 1.02786326 0.788631499 -0.308049142 1.0280726 0.775916219 -0.307753146 1.03031468 0.778446496 -0.244106606 1.02963591 0.740197778 -0.224523202 1.27707219 0.738569379 -0.230090752 1.20178425 0.737021327 -0.238614857 1.27707386 0.737220943 -0.244305342 1.07431555 0.738569379 -0.230090752 1.20178425 0.743559062 -0.217081398 1.20633423 0.77294457 -0.367466718 1.10030448 0.786358774 -0.298518032 1.2770803 0.770120382 -0.294301867 1.27707696 0.77294457 -0.367466718 1.10030448 0.785730302 -0.369993865 1.10131907 0.786358774 -0.298518032 1.2770803 0.806121767 -0.370778352 1.09266329 0.795479476 -0.370709836 1.09981167 0.79124558 -0.372685462 1.09049666 0.762175143 -0.364539564 1.09173727 0.767922699 -0.368110508 1.08716106 0.77294457 -0.367466718 1.10030448 0.761293471 -0.362105995 1.09916413 0.77294457 -0.367466718 1.10030448 0.770120382 -0.294301867 1.27707696 0.747389019 -0.351470143 1.09480405 0.755003691 -0.284702092 1.27707386 0.744176626 -0.271090567 1.27707171 0.738525808 -0.25722906 1.27707136 0.737021327 -0.238614857 1.27707386 0.737014353 -0.303687602 1.08127248 0.737014353 -0.303687602 1.08127248 0.740213513 -0.325182825 1.08143961 0.738525808 -0.25722906 1.27707136 0.788025439 -0.373099953 1.08256042 0.802043676 -0.372329354 1.08418941 0.79124558 -0.372685462 1.09049666 0.802043676 -0.372329354 1.08418941 0.806121767 -0.370778352 1.09266329 0.79124558 -0.372685462 1.09049666 0.838225782 -0.351238072 1.08674276 0.847110629 -0.248716593 1.27710414 0.840699255 -0.269580722 1.27709198 0.812884212 -0.369430184 1.08354664 0.802043676 -0.372329354 1.08418941 0.807039738 -0.370187312 1.07168353 0.829387248 -0.284281105 1.27708995 0.81571728 -0.293327361 1.27708673 0.82865274 -0.35823226 1.09829795 0.804933012 -0.190026626 1.2770865 0.79540205 -0.188737467 1.20884347 0.791999996 -0.188518509 1.27708411 0.745716214 -0.351093292 1.0860709 0.738525808 -0.25722906 1.27707136 0.740213513 -0.325182825 1.08143961 0.752931118 -0.244106978 1.04428613 0.74740839 -0.307599485 1.05082524 0.744403958 -0.244099602 1.05503917 0.74740839 -0.307599485 1.05082524 0.752931118 -0.244106978 1.04428613 0.755520165 -0.309129387 1.04193866 0.752931118 -0.244106978 1.04428613 0.763409972 -0.244109094 1.0358026 0.755520165 -0.309129387 1.04193866 0.835932314 -0.352242768 1.0948863 0.840699255 -0.269580722 1.27709198 0.829387248 -0.284281105 1.27708995 0.846829236 -0.244202495 1.07667136 0.827801108 -0.20178619 1.20886862 0.835032642 -0.209290698 1.20691872 0.835969031 -0.244099572 1.04979682 0.837218463 -0.307066709 1.05164182 0.828158855 -0.30809021 1.04144144 0.799780071 -0.308112472 1.02857816 0.788631499 -0.308049142 1.0280726 0.794471085 -0.244102061 1.02786326 0.740197778 -0.224523202 1.27707219 0.743559062 -0.217081398 1.20633423 0.738569379 -0.230090752 1.20178425 0.782984734 -0.371170968 1.07039392 0.789388895 -0.372487217 1.07450974 0.788025439 -0.373099953 1.08256042 0.795479476 -0.370709836 1.09981167 0.807232201 -0.368694901 1.10027575 0.802535117 -0.297764122 1.27708375 0.780137897 -0.37140286 1.09138787 0.79124558 -0.372685462 1.09049666 0.785730302 -0.369993865 1.10131907 0.795479476 -0.370709836 1.09981167 0.806121767 -0.370778352 1.09266329 0.807232201 -0.368694901 1.10027575 0.778236628 -0.367987752 1.0626241 0.774382591 -0.370417535 1.07882547 0.765969992 -0.366349488 1.07337272 0.77294457 -0.367466718 1.10030448 0.761293471 -0.362105995 1.09916413 0.762175143 -0.364539564 1.09173727 0.746064842 -0.351288468 1.07633185 0.752699375 -0.35821557 1.0890007 0.745716214 -0.351093292 1.0860709 0.746064842 -0.351288468 1.07633185 0.755615652 -0.36087811 1.07979405 0.752699375 -0.35821557 1.0890007 0.817557156 -0.366874933 1.07513535 0.815694153 -0.364015192 1.06155932 0.824305594 -0.361210704 1.06727803 0.806121767 -0.370778352 1.09266329 0.802043676 -0.372329354 1.08418941 0.812884212 -0.369430184 1.08354664 0.796350718 -0.370493293 1.06597447 0.806425154 -0.367911816 1.06315243 0.807039738 -0.370187312 1.07168353 0.782984734 -0.371170968 1.07039392 0.774382591 -0.370417535 1.07882547 0.778236628 -0.367987752 1.0626241 0.812884212 -0.369430184 1.08354664 0.807039738 -0.370187312 1.07168353 0.817557156 -0.366874933 1.07513535 0.79540205 -0.188737467 1.20884347 0.788460076 -0.188731566 1.20866334 0.791999996 -0.188518509 1.27708411 0.740213513 -0.325182825 1.08143961 0.746064842 -0.351288468 1.07633185 0.745716214 -0.351093292 1.0860709 0.740213513 -0.325182825 1.08143961 0.743391156 -0.336931556 1.07291818 0.746064842 -0.351288468 1.07633185 0.760920823 -0.19811219 1.20915878 0.754632533 -0.203040466 1.27707577 0.763663709 -0.196365163 1.27707756 0.746139467 -0.213027462 1.27707374 0.743559062 -0.217081398 1.20633423 0.740197778 -0.224523202 1.27707219 0.838252366 -0.350362808 1.07609808 0.838225782 -0.351238072 1.08674276 0.834763825 -0.354941517 1.07769525 0.843780518 -0.325317383 1.08088064 0.838225782 -0.351238072 1.08674276 0.838252366 -0.350362808 1.07609808 0.805842876 -0.190273762 1.20950043 0.819651365 -0.195946097 1.20930219 0.835969031 -0.244099572 1.04979682 0.819651365 -0.195946097 1.20930219 0.843183219 -0.24410899 1.06253636 0.835969031 -0.244099572 1.04979682 0.740197778 -0.224523202 1.27707219 0.818705797 -0.195324972 1.27708995 0.804933012 -0.190026626 1.2770865 0.754632533 -0.203040466 1.27707577 0.746139467 -0.213027462 1.27707374 0.740197778 -0.224523202 1.27707219 0.740197778 -0.224523202 1.27707219 0.802535117 -0.297764122 1.27708375 0.81571728 -0.293327361 1.27708673 0.755003691 -0.284702092 1.27707386 0.770120382 -0.294301867 1.27707696 0.740197778 -0.224523202 1.27707219 0.740197778 -0.224523202 1.27707219 0.775938272 -0.190734372 1.27708054 0.763663709 -0.196365163 1.27707756 0.740197778 -0.224523202 1.27707219 0.738525808 -0.25722906 1.27707136 0.744176626 -0.271090567 1.27707171 0.740197778 -0.224523202 1.27707219 0.770120382 -0.294301867 1.27707696 0.786358774 -0.298518032 1.2770803 0.740197778 -0.224523202 1.27707219 0.786358774 -0.298518032 1.2770803 0.802535117 -0.297764122 1.27708375 0.740197778 -0.224523202 1.27707219 0.744176626 -0.271090567 1.27707171 0.755003691 -0.284702092 1.27707386 0.740197778 -0.224523202 1.27707219 0.804933012 -0.190026626 1.2770865 0.791999996 -0.188518509 1.27708411 0.740197778 -0.224523202 1.27707219 0.763663709 -0.196365163 1.27707756 0.754632533 -0.203040466 1.27707577 0.791999996 -0.188518509 1.27708411 0.775938272 -0.190734372 1.27708054 0.740197778 -0.224523202 1.27707219 0.740197778 -0.224523202 1.27707219 0.737021327 -0.238614857 1.27707386 0.738525808 -0.25722906 1.27707136 0.843426824 -0.318367183 1.06981897 0.83853507 -0.325815052 1.06004286 0.843230546 -0.306360602 1.06272089 0.837218463 -0.307066709 1.05164182 0.843183219 -0.24410899 1.06253636 0.843230546 -0.306360602 1.06272089 0.843183219 -0.24410899 1.06253636 0.837218463 -0.307066709 1.05164182 0.835969031 -0.244099572 1.04979682 0.83853507 -0.325815052 1.06004286 0.831600547 -0.326752335 1.0497427 0.837218463 -0.307066709 1.05164182 0.829480469 -0.350941211 1.05554307 0.83853507 -0.325815052 1.06004286 0.834535003 -0.351283282 1.0648154 0.83853507 -0.325815052 1.06004286 0.837218463 -0.307066709 1.05164182 0.843230546 -0.306360602 1.06272089 0.818705797 -0.195324972 1.27708995 0.819651365 -0.195946097 1.20930219 0.805842876 -0.190273762 1.20950043 0.81722647 -0.328354239 1.03822064 0.811796784 -0.328720212 1.03561735 0.813426971 -0.308173597 1.03218019 0.829480469 -0.350941211 1.05554307 0.818679214 -0.355961919 1.05060172 0.82316792 -0.350961506 1.04868984 0.813426971 -0.308173597 1.03218019 0.800560534 -0.328205347 1.03218007 0.799780071 -0.308112472 1.02857816 0.790040255 -0.33030051 1.03187859 0.799780071 -0.308112472 1.02857816 0.800560534 -0.328205347 1.03218007 0.836066902 -0.350739896 1.06764674 0.843426824 -0.318367183 1.06981897 0.838252366 -0.350362808 1.07609808 0.846915901 -0.304669887 1.07846093 0.843426824 -0.318367183 1.06981897 0.843230546 -0.306360602 1.06272089 0.846915901 -0.304669887 1.07846093 0.843230546 -0.306360602 1.06272089 0.846829236 -0.244202495 1.07667136 0.796350718 -0.370493293 1.06597447 0.789388895 -0.372487217 1.07450974 0.791693926 -0.368430704 1.05956042 0.79124558 -0.372685462 1.09049666 0.780137897 -0.37140286 1.09138787 0.788025439 -0.373099953 1.08256042 0.774382591 -0.370417535 1.07882547 0.782984734 -0.371170968 1.07039392 0.788025439 -0.373099953 1.08256042 0.774382591 -0.370417535 1.07882547 0.767922699 -0.368110508 1.08716106 0.765969992 -0.366349488 1.07337272 0.765969992 -0.366349488 1.07337272 0.755615652 -0.36087811 1.07979405 0.758892655 -0.361301094 1.06935215 0.77294457 -0.367466718 1.10030448 0.767922699 -0.368110508 1.08716106 0.780137897 -0.37140286 1.09138787 0.752699375 -0.35821557 1.0890007 0.754079223 -0.357227772 1.09780753 0.747389019 -0.351470143 1.09480405 0.788025439 -0.373099953 1.08256042 0.798886478 -0.372213751 1.07533836 0.802043676 -0.372329354 1.08418941 0.788025439 -0.373099953 1.08256042 0.789388895 -0.372487217 1.07450974 0.798886478 -0.372213751 1.07533836 0.822279155 -0.364894539 1.08083081 0.817557156 -0.366874933 1.07513535 0.824305594 -0.361210704 1.06727803 0.828204274 -0.360395223 1.07577431 0.822279155 -0.364894539 1.08083081 0.824305594 -0.361210704 1.06727803 0.798886478 -0.372213751 1.07533836 0.796350718 -0.370493293 1.06597447 0.807039738 -0.370187312 1.07168353 0.791693926 -0.368430704 1.05956042 0.782984734 -0.371170968 1.07039392 0.778236628 -0.367987752 1.0626241 0.789388895 -0.372487217 1.07450974 0.782984734 -0.371170968 1.07039392 0.791693926 -0.368430704 1.05956042 0.791693926 -0.368430704 1.05956042 0.806425154 -0.367911816 1.06315243 0.796350718 -0.370493293 1.06597447 0.812884212 -0.369430184 1.08354664 0.823349655 -0.363609821 1.09204841 0.806121767 -0.370778352 1.09266329 0.788460076 -0.188731566 1.20866334 0.775938272 -0.190734372 1.27708054 0.791999996 -0.188518509 1.27708411 0.775938272 -0.190734372 1.27708054 0.788460076 -0.188731566 1.20866334 0.780519664 -0.189826995 1.20921016 0.79540205 -0.188737467 1.20884347 0.804933012 -0.190026626 1.2770865 0.805842876 -0.190273762 1.20950043 0.835032642 -0.209290698 1.20691872 0.841986954 -0.220352396 1.20479107 0.846829236 -0.244202495 1.07667136 0.827801108 -0.20178619 1.20886862 0.830077708 -0.20383136 1.2770921 0.835032642 -0.209290698 1.20691872 0.741760135 -0.306848347 1.06039631 0.748153329 -0.335458368 1.0591116 0.742554486 -0.322627664 1.06570423 0.755520165 -0.309129387 1.04193866 0.752049446 -0.327648789 1.05050194 0.74740839 -0.307599485 1.05082524 0.737865746 -0.30643183 1.07362521 0.742554486 -0.322627664 1.06570423 0.743391156 -0.336931556 1.07291818 0.743391156 -0.336931556 1.07291818 0.740213513 -0.325182825 1.08143961 0.737865746 -0.30643183 1.07362521 0.763663709 -0.196365163 1.27707756 0.775938272 -0.190734372 1.27708054 0.770766497 -0.192803845 1.20966744 0.775938272 -0.190734372 1.27708054 0.780519664 -0.189826995 1.20921016 0.770766497 -0.192803845 1.20966744 0.836066902 -0.350739896 1.06764674 0.838252366 -0.350362808 1.07609808 0.834763825 -0.354941517 1.07769525 0.838252366 -0.350362808 1.07609808 0.843426824 -0.318367183 1.06981897 0.843780518 -0.325317383 1.08088064 0.846477628 -0.235428676 1.2770946 0.830077708 -0.20383136 1.2770921 0.818705797 -0.195324972 1.27708995 0.740197778 -0.224523202 1.27707219 0.846477628 -0.235428676 1.2770946 0.818705797 -0.195324972 1.27708995 0.846477628 -0.235428676 1.2770946 0.838627517 -0.214189738 1.27709329 0.830077708 -0.20383136 1.2770921 0.846477628 -0.235428676 1.2770946 0.84384042 -0.22522065 1.27709413 0.838627517 -0.214189738 1.27709329 0.846477628 -0.235428676 1.2770946 0.840699255 -0.269580722 1.27709198 0.847110629 -0.248716593 1.27710414 0.846477628 -0.235428676 1.2770946 0.829387248 -0.284281105 1.27708995 0.840699255 -0.269580722 1.27709198 0.81571728 -0.293327361 1.27708673 0.829387248 -0.284281105 1.27708995 0.846477628 -0.235428676 1.2770946 0.846477628 -0.235428676 1.2770946 0.740197778 -0.224523202 1.27707219 0.81571728 -0.293327361 1.27708673 0.830077708 -0.20383136 1.2770921 0.827801108 -0.20178619 1.20886862 0.818705797 -0.195324972 1.27708995 0.83853507 -0.325815052 1.06004286 0.843426824 -0.318367183 1.06981897 0.836066902 -0.350739896 1.06764674 0.805031419 -0.350672871 1.03827751 0.811796784 -0.328720212 1.03561735 0.809884965 -0.351584494 1.04047632 0.797830045 -0.354587555 1.04002273 0.805031419 -0.350672871 1.03827751 0.809884965 -0.351584494 1.04047632 0.801533937 -0.358929127 1.04545891 0.797830045 -0.354587555 1.04002273 0.809884965 -0.351584494 1.04047632 0.818679214 -0.355961919 1.05060172 0.809161842 -0.360721081 1.05072284 0.809884965 -0.351584494 1.04047632 0.818679214 -0.355961919 1.05060172 0.809884965 -0.351584494 1.04047632 0.816462576 -0.351080239 1.04358661 0.829480469 -0.350941211 1.05554307 0.834535003 -0.351283282 1.0648154 0.830763102 -0.355857819 1.06646395 0.824083328 -0.356918454 1.05737174 0.829480469 -0.350941211 1.05554307 0.830763102 -0.355857819 1.06646395 0.815694153 -0.364015192 1.06155932 0.809161842 -0.360721081 1.05072284 0.818679214 -0.355961919 1.05060172 0.818679214 -0.355961919 1.05060172 0.824083328 -0.356918454 1.05737174 0.815694153 -0.364015192 1.06155932 0.818679214 -0.355961919 1.05060172 0.829480469 -0.350941211 1.05554307 0.824083328 -0.356918454 1.05737174 0.829480469 -0.350941211 1.05554307 0.831600547 -0.326752335 1.0497427 0.83853507 -0.325815052 1.06004286 0.799780071 -0.308112472 1.02857816 0.790040255 -0.33030051 1.03187859 0.788631499 -0.308049142 1.0280726 0.846915901 -0.304669887 1.07846093 0.843780518 -0.325317383 1.08088064 0.843426824 -0.318367183 1.06981897 0.809884965 -0.351584494 1.04047632 0.809161842 -0.360721081 1.05072284 0.801533937 -0.358929127 1.04545891 0.775012612 -0.363125503 1.05433452 0.788879931 -0.363577992 1.05051041 0.778236628 -0.367987752 1.0626241 0.797830045 -0.354587555 1.04002273 0.794772685 -0.351018935 1.03676176 0.805031419 -0.350672871 1.03827751 0.78056097 -0.329256237 1.03301513 0.788631499 -0.308049142 1.0280726 0.790040255 -0.33030051 1.03187859 0.78056097 -0.329256237 1.03301513 0.775916219 -0.307753146 1.03031468 0.788631499 -0.308049142 1.0280726 0.794772685 -0.351018935 1.03676176 0.790040255 -0.33030051 1.03187859 0.800560534 -0.328205347 1.03218007 0.749535024 -0.351268083 1.06431663 0.755423725 -0.351121426 1.05457151 0.757852018 -0.357133955 1.06059885 0.765969992 -0.366349488 1.07337272 0.767922699 -0.368110508 1.08716106 0.755615652 -0.36087811 1.07979405 0.780137897 -0.37140286 1.09138787 0.785730302 -0.369993865 1.10131907 0.77294457 -0.367466718 1.10030448 0.761293471 -0.362105995 1.09916413 0.754079223 -0.357227772 1.09780753 0.752699375 -0.35821557 1.0890007 0.752699375 -0.35821557 1.0890007 0.762175143 -0.364539564 1.09173727 0.761293471 -0.362105995 1.09916413 0.824305594 -0.361210704 1.06727803 0.824083328 -0.356918454 1.05737174 0.830763102 -0.355857819 1.06646395 0.806425154 -0.367911816 1.06315243 0.815694153 -0.364015192 1.06155932 0.807039738 -0.370187312 1.07168353 0.834763825 -0.354941517 1.07769525 0.838225782 -0.351238072 1.08674276 0.829449773 -0.359968185 1.08622146 0.828204274 -0.360395223 1.07577431 0.824305594 -0.361210704 1.06727803 0.830763102 -0.355857819 1.06646395 0.798886478 -0.372213751 1.07533836 0.789388895 -0.372487217 1.07450974 0.796350718 -0.370493293 1.06597447 0.797830045 -0.354587555 1.04002273 0.801533937 -0.358929127 1.04545891 0.789064288 -0.357422084 1.04258287 0.789064288 -0.357422084 1.04258287 0.801533937 -0.358929127 1.04545891 0.788879931 -0.363577992 1.05051041 0.803796768 -0.364569098 1.05438459 0.791693926 -0.368430704 1.05956042 0.788879931 -0.363577992 1.05051041 0.791693926 -0.368430704 1.05956042 0.803796768 -0.364569098 1.05438459 0.806425154 -0.367911816 1.06315243 0.823349655 -0.363609821 1.09204841 0.82865274 -0.35823226 1.09829795 0.817461669 -0.365049779 1.09928298 0.835032642 -0.209290698 1.20691872 0.830077708 -0.20383136 1.2770921 0.838627517 -0.214189738 1.27709329 0.835032642 -0.209290698 1.20691872 0.838627517 -0.214189738 1.27709329 0.841986954 -0.220352396 1.20479107 0.763288856 -0.308382839 1.03605235 0.755520165 -0.309129387 1.04193866 0.763409972 -0.244109094 1.0358026 0.823349655 -0.363609821 1.09204841 0.829449773 -0.359968185 1.08622146 0.82865274 -0.35823226 1.09829795 0.827801108 -0.20178619 1.20886862 0.819651365 -0.195946097 1.20930219 0.818705797 -0.195324972 1.27708995 0.823326349 -0.327592164 1.04213488 0.816462576 -0.351080239 1.04358661 0.81722647 -0.328354239 1.03822064 0.811796784 -0.328720212 1.03561735 0.81722647 -0.328354239 1.03822064 0.816462576 -0.351080239 1.04358661 0.811796784 -0.328720212 1.03561735 0.816462576 -0.351080239 1.04358661 0.809884965 -0.351584494 1.04047632 0.82316792 -0.350961506 1.04868984 0.816462576 -0.351080239 1.04358661 0.823326349 -0.327592164 1.04213488 0.823326349 -0.327592164 1.04213488 0.828158855 -0.30809021 1.04144144 0.831600547 -0.326752335 1.0497427 0.801533937 -0.358929127 1.04545891 0.809161842 -0.360721081 1.05072284 0.803796768 -0.364569098 1.05438459 0.774382591 -0.370417535 1.07882547 0.780137897 -0.37140286 1.09138787 0.767922699 -0.368110508 1.08716106 0.774382591 -0.370417535 1.07882547 0.788025439 -0.373099953 1.08256042 0.780137897 -0.37140286 1.09138787 0.779977322 -0.356760025 1.0436244 0.775012612 -0.363125503 1.05433452 0.771570325 -0.355546206 1.04585981 0.779977322 -0.356760025 1.0436244 0.788879931 -0.363577992 1.05051041 0.775012612 -0.363125503 1.05433452 0.783266664 -0.350918651 1.03740287 0.789064288 -0.357422084 1.04258287 0.779977322 -0.356760025 1.0436244 0.78056097 -0.329256237 1.03301513 0.790040255 -0.33030051 1.03187859 0.783266664 -0.350918651 1.03740287 0.764250696 -0.359918892 1.05778456 0.767756164 -0.36459446 1.06395769 0.758892655 -0.361301094 1.06935215 0.758892655 -0.361301094 1.06935215 0.757852018 -0.357133955 1.06059885 0.764250696 -0.359918892 1.05778456 0.765969992 -0.366349488 1.07337272 0.758892655 -0.361301094 1.06935215 0.767756164 -0.36459446 1.06395769 0.778236628 -0.367987752 1.0626241 0.765969992 -0.366349488 1.07337272 0.767756164 -0.36459446 1.06395769 0.749535024 -0.351268083 1.06431663 0.757852018 -0.357133955 1.06059885 0.752606571 -0.355590314 1.06742775 0.745716214 -0.351093292 1.0860709 0.752699375 -0.35821557 1.0890007 0.747389019 -0.351470143 1.09480405 0.752699375 -0.35821557 1.0890007 0.755615652 -0.36087811 1.07979405 0.762175143 -0.364539564 1.09173727 0.762175143 -0.364539564 1.09173727 0.755615652 -0.36087811 1.07979405 0.767922699 -0.368110508 1.08716106 0.834535003 -0.351283282 1.0648154 0.83853507 -0.325815052 1.06004286 0.836066902 -0.350739896 1.06764674 0.834763825 -0.354941517 1.07769525 0.829449773 -0.359968185 1.08622146 0.828204274 -0.360395223 1.07577431 0.817557156 -0.366874933 1.07513535 0.807039738 -0.370187312 1.07168353 0.815694153 -0.364015192 1.06155932 0.815694153 -0.364015192 1.06155932 0.803796768 -0.364569098 1.05438459 0.809161842 -0.360721081 1.05072284 0.803796768 -0.364569098 1.05438459 0.788879931 -0.363577992 1.05051041 0.801533937 -0.358929127 1.04545891 0.817461669 -0.365049779 1.09928298 0.806121767 -0.370778352 1.09266329 0.823349655 -0.363609821 1.09204841 0.817461669 -0.365049779 1.09928298 0.807232201 -0.368694901 1.10027575 0.806121767 -0.370778352 1.09266329 0.772008538 -0.33171472 1.03633201 0.765966177 -0.350554138 1.04437864 0.763288856 -0.308382839 1.03605235 0.752049446 -0.327648789 1.05050194 0.748153329 -0.335458368 1.0591116 0.74740839 -0.307599485 1.05082524 0.741760135 -0.306848347 1.06039631 0.74740839 -0.307599485 1.05082524 0.748153329 -0.335458368 1.0591116 0.82865274 -0.35823226 1.09829795 0.829449773 -0.359968185 1.08622146 0.835932314 -0.352242768 1.0948863 0.829449773 -0.359968185 1.08622146 0.838225782 -0.351238072 1.08674276 0.835932314 -0.352242768 1.0948863 0.818705797 -0.195324972 1.27708995 0.805842876 -0.190273762 1.20950043 0.804933012 -0.190026626 1.2770865 0.816462576 -0.351080239 1.04358661 0.82316792 -0.350961506 1.04868984 0.818679214 -0.355961919 1.05060172 0.831600547 -0.326752335 1.0497427 0.82316792 -0.350961506 1.04868984 0.823326349 -0.327592164 1.04213488 0.831600547 -0.326752335 1.0497427 0.829480469 -0.350941211 1.05554307 0.82316792 -0.350961506 1.04868984 0.789064288 -0.357422084 1.04258287 0.794772685 -0.351018935 1.03676176 0.797830045 -0.354587555 1.04002273 0.794772685 -0.351018935 1.03676176 0.800560534 -0.328205347 1.03218007 0.805031419 -0.350672871 1.03827751 0.772345841 -0.350904554 1.04097617 0.783266664 -0.350918651 1.03740287 0.779977322 -0.356760025 1.0436244 0.772345841 -0.350904554 1.04097617 0.779977322 -0.356760025 1.0436244 0.771570325 -0.355546206 1.04585981 0.772345841 -0.350904554 1.04097617 0.765966177 -0.350554138 1.04437864 0.772008538 -0.33171472 1.03633201 0.749535024 -0.351268083 1.06431663 0.748153329 -0.335458368 1.0591116 0.755423725 -0.351121426 1.05457151 0.767099321 -0.357985467 1.05170596 0.771570325 -0.355546206 1.04585981 0.775012612 -0.363125503 1.05433452 0.752049446 -0.327648789 1.05050194 0.755423725 -0.351121426 1.05457151 0.748153329 -0.335458368 1.0591116 0.767099321 -0.357985467 1.05170596 0.757852018 -0.357133955 1.06059885 0.755423725 -0.351121426 1.05457151 0.834763825 -0.354941517 1.07769525 0.834535003 -0.351283282 1.0648154 0.836066902 -0.350739896 1.06764674 0.803796768 -0.364569098 1.05438459 0.815694153 -0.364015192 1.06155932 0.806425154 -0.367911816 1.06315243 0.828204274 -0.360395223 1.07577431 0.829449773 -0.359968185 1.08622146 0.822279155 -0.364894539 1.08083081 0.823349655 -0.363609821 1.09204841 0.822279155 -0.364894539 1.08083081 0.829449773 -0.359968185 1.08622146 0.822279155 -0.364894539 1.08083081 0.823349655 -0.363609821 1.09204841 0.812884212 -0.369430184 1.08354664 0.817557156 -0.366874933 1.07513535 0.822279155 -0.364894539 1.08083081 0.812884212 -0.369430184 1.08354664 0.791693926 -0.368430704 1.05956042 0.778236628 -0.367987752 1.0626241 0.788879931 -0.363577992 1.05051041 0.742554486 -0.322627664 1.06570423 0.749535024 -0.351268083 1.06431663 0.743391156 -0.336931556 1.07291818 0.748153329 -0.335458368 1.0591116 0.749535024 -0.351268083 1.06431663 0.742554486 -0.322627664 1.06570423 0.794772685 -0.351018935 1.03676176 0.789064288 -0.357422084 1.04258287 0.783266664 -0.350918651 1.03740287 0.790040255 -0.33030051 1.03187859 0.794772685 -0.351018935 1.03676176 0.783266664 -0.350918651 1.03740287 0.749535024 -0.351268083 1.06431663 0.746064842 -0.351288468 1.07633185 0.743391156 -0.336931556 1.07291818 0.764250696 -0.359918892 1.05778456 0.757852018 -0.357133955 1.06059885 0.767099321 -0.357985467 1.05170596 0.775012612 -0.363125503 1.05433452 0.778236628 -0.367987752 1.0626241 0.767756164 -0.36459446 1.06395769 0.760277987 -0.350737154 1.04904377 0.755423725 -0.351121426 1.05457151 0.752049446 -0.327648789 1.05050194 0.746064842 -0.351288468 1.07633185 0.749535024 -0.351268083 1.06431663 0.752606571 -0.355590314 1.06742775 0.752606571 -0.355590314 1.06742775 0.757852018 -0.357133955 1.06059885 0.758892655 -0.361301094 1.06935215 0.834763825 -0.354941517 1.07769525 0.830763102 -0.355857819 1.06646395 0.834535003 -0.351283282 1.0648154 0.830763102 -0.355857819 1.06646395 0.834763825 -0.354941517 1.07769525 0.828204274 -0.360395223 1.07577431 0.824305594 -0.361210704 1.06727803 0.815694153 -0.364015192 1.06155932 0.824083328 -0.356918454 1.05737174 0.779977322 -0.356760025 1.0436244 0.789064288 -0.357422084 1.04258287 0.788879931 -0.363577992 1.05051041 0.755520165 -0.309129387 1.04193866 0.765966177 -0.350554138 1.04437864 0.760277987 -0.350737154 1.04904377 0.755520165 -0.309129387 1.04193866 0.763288856 -0.308382839 1.03605235 0.765966177 -0.350554138 1.04437864 0.775916219 -0.307753146 1.03031468 0.772008538 -0.33171472 1.03633201 0.763288856 -0.308382839 1.03605235 0.760277987 -0.350737154 1.04904377 0.767099321 -0.357985467 1.05170596 0.755423725 -0.351121426 1.05457151 0.772345841 -0.350904554 1.04097617 0.771570325 -0.355546206 1.04585981 0.765966177 -0.350554138 1.04437864 0.772008538 -0.33171472 1.03633201 0.775916219 -0.307753146 1.03031468 0.78056097 -0.329256237 1.03301513 0.783266664 -0.350918651 1.03740287 0.772345841 -0.350904554 1.04097617 0.772008538 -0.33171472 1.03633201 0.775012612 -0.363125503 1.05433452 0.764250696 -0.359918892 1.05778456 0.767099321 -0.357985467 1.05170596 0.775012612 -0.363125503 1.05433452 0.767756164 -0.36459446 1.06395769 0.764250696 -0.359918892 1.05778456 0.760277987 -0.350737154 1.04904377 0.752049446 -0.327648789 1.05050194 0.755520165 -0.309129387 1.04193866 0.755615652 -0.36087811 1.07979405 0.746064842 -0.351288468 1.07633185 0.752606571 -0.355590314 1.06742775 0.755615652 -0.36087811 1.07979405 0.752606571 -0.355590314 1.06742775 0.758892655 -0.361301094 1.06935215 0.771570325 -0.355546206 1.04585981 0.767099321 -0.357985467 1.05170596 0.765966177 -0.350554138 1.04437864 0.767099321 -0.357985467 1.05170596 0.760277987 -0.350737154 1.04904377 0.765966177 -0.350554138 1.04437864 0.772008538 -0.33171472 1.03633201 0.78056097 -0.329256237 1.03301513 0.783266664 -0.350918651 1.03740287 </float_array>
          <technique_common>
            <accessor count="900" offset="0" source="#mesh_0-positions-array" stride="3">
              <param name="X" type="float" />
              <param name="Y" type="float" />
              <param name="Z" type="float" />
            </accessor>
          </technique_common>
        </source>
        <vertices id="mesh_0-vertices">
          <input semantic="POSITION" source="#mesh_0-positions" />
        </vertices>
        <polylist count="300" material="defaultMaterial">
          <input offset="0" semantic="VERTEX" source="#mesh_0-vertices" />
          <vcount>3 3 3 3 3 3 3 3 3 3 3 3 3 3 3 3 3 3 3 3 3 3 3 3 3 3 3 3 3 3 3 3 3 3 3 3 3 3 3 3 3 3 3 3 3 3 3 3 3 3 3 3 3 3 3 3 3 3 3 3 3 3 3 3 3 3 3 3 3 3 3 3 3 3 3 3 3 3 3 3 3 3 3 3 3 3 3 3 3 3 3 3 3 3 3 3 3 3 3 3 3 3 3 3 3 3 3 3 3 3 3 3 3 3 3 3 3 3 3 3 3 3 3 3 3 3 3 3 3 3 3 3 3 3 3 3 3 3 3 3 3 3 3 3 3 3 3 3 3 3 3 3 3 3 3 3 3 3 3 3 3 3 3 3 3 3 3 3 3 3 3 3 3 3 3 3 3 3 3 3 3 3 3 3 3 3 3 3 3 3 3 3 3 3 3 3 3 3 3 3 3 3 3 3 3 3 3 3 3 3 3 3 3 3 3 3 3 3 3 3 3 3 3 3 3 3 3 3 3 3 3 3 3 3 3 3 3 3 3 3 3 3 3 3 3 3 3 3 3 3 3 3 3 3 3 3 3 3 3 3 3 3 3 3 3 3 3 3 3 3 3 3 3 3 3 3 3 3 3 3 3 3 3 3 3 3 3 3 3 3 3 3 3 3 3 3 3 3 3 3 </vcount>
          <p>0 1 2 3 4 5 6 7 8 9 10 11 12 13 14 15 16 17 18 19 20 21 22 23 24 25 26 27 28 29 30 31 32 33 34 35 36 37 38 39 40 41 42 43 44 45 46 47 48 49 50 51 52 53 54 55 56 57 58 59 60 61 62 63 64 65 66 67 68 69 70 71 72 73 74 75 76 77 78 79 80 81 82 83 84 85 86 87 88 89 90 91 92 93 94 95 96 97 98 99 100 101 102 103 104 105 106 107 108 109 110 111 112 113 114 115 116 117 118 119 120 121 122 123 124 125 126 127 128 129 130 131 132 133 134 135 136 137 138 139 140 141 142 143 144 145 146 147 148 149 150 151 152 153 154 155 156 157 158 159 160 161 162 163 164 165 166 167 168 169 170 171 172 173 174 175 176 177 178 179 180 181 182 183 184 185 186 187 188 189 190 191 192 193 194 195 196 197 198 199 200 201 202 203 204 205 206 207 208 209 210 211 212 213 214 215 216 217 218 219 220 221 222 223 224 225 226 227 228 229 230 231 232 233 234 235 236 237 238 239 240 241 242 243 244 245 246 247 248 249 250 251 252 253 254 255 256 257 258 259 260 261 262 263 264 265 266 267 268 269 270 271 272 273 274 275 276 277 278 279 280 281 282 283 284 285 286 287 288 289 290 291 292 293 294 295 296 297 298 299 300 301 302 303 304 305 306 307 308 309 310 311 312 313 314 315 316 317 318 319 320 321 322 323 324 325 326 327 328 329 330 331 332 333 334 335 336 337 338 339 340 341 342 343 344 345 346 347 348 349 350 351 352 353 354 355 356 357 358 359 360 361 362 363 364 365 366 367 368 369 370 371 372 373 374 375 376 377 378 379 380 381 382 383 384 385 386 387 388 389 390 391 392 393 394 395 396 397 398 399 400 401 402 403 404 405 406 407 408 409 410 411 412 413 414 415 416 417 418 419 420 421 422 423 424 425 426 427 428 429 430 431 432 433 434 435 436 437 438 439 440 441 442 443 444 445 446 447 448 449 450 451 452 453 454 455 456 457 458 459 460 461 462 463 464 465 466 467 468 469 470 471 472 473 474 475 476 477 478 479 480 481 482 483 484 485 486 487 488 489 490 491 492 493 494 495 496 497 498 499 500 501 502 503 504 505 506 507 508 509 510 511 512 513 514 515 516 517 518 519 520 521 522 523 524 525 526 527 528 529 530 531 532 533 534 535 536 537 538 539 540 541 542 543 544 545 546 547 548 549 550 551 552 553 554 555 556 557 558 559 560 561 562 563 564 565 566 567 568 569 570 571 572 573 574 575 576 577 578 579 580 581 582 583 584 585 586 587 588 589 590 591 592 593 594 595 596 597 598 599 600 601 602 603 604 605 606 607 608 609 610 611 612 613 614 615 616 617 618 619 620 621 622 623 624 625 626 627 628 629 630 631 632 633 634 635 636 637 638 639 640 641 642 643 644 645 646 647 648 649 650 651 652 653 654 655 656 657 658 659 660 661 662 663 664 665 666 667 668 669 670 671 672 673 674 675 676 677 678 679 680 681 682 683 684 685 686 687 688 689 690 691 692 693 694 695 696 697 698 699 700 701 702 703 704 705 706 707 708 709 710 711 712 713 714 715 716 717 718 719 720 721 722 723 724 725 726 727 728 729 730 731 732 733 734 735 736 737 738 739 740 741 742 743 744 745 746 747 748 749 750 751 752 753 754 755 756 757 758 759 760 761 762 763 764 765 766 767 768 769 770 771 772 773 774 775 776 777 778 779 780 781 782 783 784 785 786 787 788 789 790 791 792 793 794 795 796 797 798 799 800 801 802 803 804 805 806 807 808 809 810 811 812 813 814 815 816 817 818 819 820 821 822 823 824 825 826 827 828 829 830 831 832 833 834 835 836 837 838 839 840 841 842 843 844 845 846 847 848 849 850 851 852 853 854 855 856 857 858 859 860 861 862 863 864 865 866 867 868 869 870 871 872 873 874 875 876 877 878 879 880 881 882 883 884 885 886 887 888 889 890 891 892 893 894 895 896 897 898 899 </p>
        </polylist>
      </mesh>
    </geometry>
  </library_geometries>
  <library_controllers>
  </library_controllers>
  <library_visual_scenes>
    <visual_scene id="Scene" name="Scene">
      <node id="node" name="" type="NODE">
        <matrix sid="matrix">1 0 0 0 0 1 0 0 0 0 1 0 0 0 0 1</matrix>
        <instance_geometry url="#mesh_0">
          <bind_material>
            <technique_common>
              <instance_material symbol="defaultMaterial" target="#material_0">
              </instance_material>
            </technique_common>
          </bind_material>
        </instance_geometry>
      </node>
    </visual_scene>
  </library_visual_scenes>
  <scene>
    <instance_visual_scene url="#Scene" />
  </scene>
</COLLADA>
