<?xml version="1.0" encoding="UTF-8" standalone="no" ?>
<COLLADA xmlns="http://www.collada.org/2005/11/COLLADASchema" version="1.4.1">
  <asset>
    <contributor>
      <author>Assimp</author>
      <authoring_tool>Assimp Exporter</authoring_tool>
    </contributor>
    <created>2026-04-22T16:09:43</created>
    <modified>2026-04-22T16:09:43</modified>
    <unit name="meter" meter="1" />
    <up_axis>Y_UP</up_axis>
  </asset>
  <library_images>
  </library_images>
  <library_effects>
    <effect id="material_0-fx" name="">
      <profile_COMMON>
        <technique sid="standard">
          <phong>
            <emission>
              <color sid="emission">0   0   0   -0</color>
            </emission>
            <ambient>
              <color sid="ambient">0.699999988   1   0.699999988   1.82499993</color>
            </ambient>
            <diffuse>
              <color sid="diffuse">0.699999988   1   0.699999988   1.82499993</color>
            </diffuse>
            <specular>
              <color sid="specular">0.25   0.25   0.25   -0</color>
            </specular>
          </phong>
        </technique>
      </profile_COMMON>
    </effect>
  </library_effects>
  <library_materials>
    <material id="material_0" name="">
      <instance_effect url="#material_0-fx"/>
    </material>
  </library_materials>
  <library_geometries>
    <geometry id="mesh_0" name="" >
      <mesh>
        <source id="mesh_0-positions" name="mesh_0-positions">
          <float_array id="mesh_0-positions-array" count="936"> 0.742981911 -0.329393983 1.77009559 0.740727007 -0.348341584 1.78620267 0.742893517 -0.321308285 1.79557157 0.758684158 -0.305479407 1.74645829 0.742981911 -0.329393983 1.77009559 0.742893517 -0.321308285 1.79557157 0.742981911 -0.329393983 1.77009559 0.758684158 -0.305479407 1.74645829 0.760379136 -0.33107245 1.72180426 0.83094722 -0.307766736 1.7556324 0.822305858 -0.331846744 1.72497797 0.817123055 -0.324719369 1.72752082 0.82137233 -0.34300217 1.73183787 0.822305858 -0.331846744 1.72497797 0.842020512 -0.34867245 1.77628887 0.822305858 -0.331846744 1.72497797 0.792339087 -0.319404036 1.72366834 0.817123055 -0.324719369 1.72752082 0.792339087 -0.319404036 1.72366834 0.822305858 -0.331846744 1.72497797 0.760379136 -0.33107245 1.72180426 0.773589075 -0.310688168 1.82876003 0.760432541 -0.342847705 1.82475519 0.785386741 -0.342133969 1.83522582 0.756428659 -0.314238876 1.817765 0.760432541 -0.342847705 1.82475519 0.773589075 -0.310688168 1.82876003 0.8020522 -0.361709267 1.819592 0.785386741 -0.342133969 1.83522582 0.792907059 -0.369754106 1.81204259 0.771459758 -0.355042964 1.72849309 0.822305858 -0.331846744 1.72497797 0.82137233 -0.34300217 1.73183787 0.760379136 -0.33107245 1.72180426 0.771459758 -0.355042964 1.72849309 0.761327624 -0.351537526 1.72776532 0.822305858 -0.331846744 1.72497797 0.771459758 -0.355042964 1.72849309 0.760379136 -0.33107245 1.72180426 0.819245279 -0.367800891 1.79865825 0.8020522 -0.361709267 1.819592 0.792907059 -0.369754106 1.81204259 0.8020522 -0.361709267 1.819592 0.819245279 -0.367800891 1.79865825 0.826101005 -0.3439053 1.82116044 0.83094722 -0.307766736 1.7556324 0.799585581 -0.309673399 1.73482704 0.758684158 -0.305479407 1.74645829 0.792339087 -0.319404036 1.72366834 0.799585581 -0.309673399 1.73482704 0.817123055 -0.324719369 1.72752082 0.838964641 -0.329839557 1.7687639 0.840549231 -0.323552042 1.78839278 0.842020512 -0.34867245 1.77628887 0.840549231 -0.323552042 1.78839278 0.838964641 -0.329839557 1.7687639 0.83094722 -0.307766736 1.7556324 0.822305858 -0.331846744 1.72497797 0.838964641 -0.329839557 1.7687639 0.842020512 -0.34867245 1.77628887 0.838964641 -0.329839557 1.7687639 0.822305858 -0.331846744 1.72497797 0.83094722 -0.307766736 1.7556324 0.834092975 -0.317638785 1.80718482 0.840549231 -0.323552042 1.78839278 0.83094722 -0.307766736 1.7556324 0.826101005 -0.3439053 1.82116044 0.834092975 -0.317638785 1.80718482 0.817685843 -0.31201449 1.82466507 0.793738484 -0.309515357 1.83223617 0.773589075 -0.310688168 1.82876003 0.785386741 -0.342133969 1.83522582 0.793738484 -0.309515357 1.83223617 0.83094722 -0.307766736 1.7556324 0.758684158 -0.305479407 1.74645829 0.750090837 -0.317367494 1.80712473 0.758684158 -0.305479407 1.74645829 0.742893517 -0.321308285 1.79557157 0.756428659 -0.314238876 1.817765 0.750090837 -0.317367494 1.80712473 0.742893517 -0.321308285 1.79557157 0.750090837 -0.317367494 1.80712473 0.756428659 -0.314238876 1.817765 0.758684158 -0.305479407 1.74645829 0.762234747 -0.312886417 1.82068968 0.773589075 -0.310688168 1.82876003 0.758684158 -0.305479407 1.74645829 0.756428659 -0.314238876 1.817765 0.762234747 -0.312886417 1.82068968 0.758684158 -0.305479407 1.74645829 0.762234747 -0.312886417 1.82068968 0.756428659 -0.314238876 1.817765 0.773589075 -0.310688168 1.82876003 0.785386741 -0.342133969 1.83522582 0.773940921 -0.35701704 1.82124841 0.792907059 -0.369754106 1.81204259 0.760432541 -0.342847705 1.82475519 0.773940921 -0.35701704 1.82124841 0.785386741 -0.342133969 1.83522582 0.8020522 -0.361709267 1.819592 0.810178459 -0.34213534 1.8313657 0.785386741 -0.342133969 1.83522582 0.810178459 -0.34213534 1.8313657 0.8020522 -0.361709267 1.819592 0.826101005 -0.3439053 1.82116044 0.810178459 -0.34213534 1.8313657 0.826101005 -0.3439053 1.82116044 0.817685843 -0.31201449 1.82466507 0.793738484 -0.309515357 1.83223617 0.810178459 -0.34213534 1.8313657 0.817685843 -0.31201449 1.82466507 0.810178459 -0.34213534 1.8313657 0.793738484 -0.309515357 1.83223617 0.785386741 -0.342133969 1.83522582 0.816236198 -0.358109295 1.74893129 0.771459758 -0.355042964 1.72849309 0.82137233 -0.34300217 1.73183787 0.771459758 -0.355042964 1.72849309 0.816236198 -0.358109295 1.74893129 0.799501359 -0.372344524 1.77126348 0.816236198 -0.358109295 1.74893129 0.826443672 -0.365414083 1.78079963 0.799501359 -0.372344524 1.77126348 0.816236198 -0.358109295 1.74893129 0.82137233 -0.34300217 1.73183787 0.842020512 -0.34867245 1.77628887 0.826443672 -0.365414083 1.78079963 0.816236198 -0.358109295 1.74893129 0.842020512 -0.34867245 1.77628887 0.78217268 -0.369712681 1.76205027 0.771459758 -0.355042964 1.72849309 0.799501359 -0.372344524 1.77126348 0.740727007 -0.348341584 1.78620267 0.744849801 -0.345206499 1.80605316 0.742893517 -0.321308285 1.79557157 0.744849801 -0.345206499 1.80605316 0.756428659 -0.314238876 1.817765 0.742893517 -0.321308285 1.79557157 0.744849801 -0.345206499 1.80605316 0.760432541 -0.342847705 1.82475519 0.756428659 -0.314238876 1.817765 0.802687407 -0.372260988 1.7996285 0.819245279 -0.367800891 1.79865825 0.792907059 -0.369754106 1.81204259 0.826443672 -0.365414083 1.78079963 0.802687407 -0.372260988 1.7996285 0.799501359 -0.372344524 1.77126348 0.802687407 -0.372260988 1.7996285 0.826443672 -0.365414083 1.78079963 0.819245279 -0.367800891 1.79865825 0.799585581 -0.309673399 1.73482704 0.778843939 -0.308879495 1.7358129 0.758684158 -0.305479407 1.74645829 0.778843939 -0.308879495 1.7358129 0.799585581 -0.309673399 1.73482704 0.792339087 -0.319404036 1.72366834 0.758684158 -0.305479407 1.74645829 0.778843939 -0.308879495 1.7358129 0.760379136 -0.33107245 1.72180426 0.778843939 -0.308879495 1.7358129 0.792339087 -0.319404036 1.72366834 0.760379136 -0.33107245 1.72180426 0.817967713 -0.310461819 1.74218154 0.83094722 -0.307766736 1.7556324 0.817123055 -0.324719369 1.72752082 0.799585581 -0.309673399 1.73482704 0.817967713 -0.310461819 1.74218154 0.817123055 -0.324719369 1.72752082 0.817967713 -0.310461819 1.74218154 0.799585581 -0.309673399 1.73482704 0.83094722 -0.307766736 1.7556324 0.822808206 -0.313624501 1.81850004 0.83094722 -0.307766736 1.7556324 0.817685843 -0.31201449 1.82466507 0.834092975 -0.317638785 1.80718482 0.822808206 -0.313624501 1.81850004 0.817685843 -0.31201449 1.82466507 0.822808206 -0.313624501 1.81850004 0.834092975 -0.317638785 1.80718482 0.83094722 -0.307766736 1.7556324 0.837952912 -0.345311403 1.80436945 0.834092975 -0.317638785 1.80718482 0.826101005 -0.3439053 1.82116044 0.834092975 -0.317638785 1.80718482 0.837952912 -0.345311403 1.80436945 0.840549231 -0.323552042 1.78839278 0.840549231 -0.323552042 1.78839278 0.837952912 -0.345311403 1.80436945 0.842020512 -0.34867245 1.77628887 0.819245279 -0.367800891 1.79865825 0.837952912 -0.345311403 1.80436945 0.826101005 -0.3439053 1.82116044 0.837952912 -0.345311403 1.80436945 0.826443672 -0.365414083 1.78079963 0.842020512 -0.34867245 1.77628887 0.826443672 -0.365414083 1.78079963 0.837952912 -0.345311403 1.80436945 0.819245279 -0.367800891 1.79865825 0.83094722 -0.307766736 1.7556324 0.806102574 -0.310447216 1.82805359 0.817685843 -0.31201449 1.82466507 0.806102574 -0.310447216 1.82805359 0.793738484 -0.309515357 1.83223617 0.817685843 -0.31201449 1.82466507 0.793738484 -0.309515357 1.83223617 0.806102574 -0.310447216 1.82805359 0.83094722 -0.307766736 1.7556324 0.773589075 -0.310688168 1.82876003 0.780044556 -0.310084432 1.82911682 0.758684158 -0.305479407 1.74645829 0.793738484 -0.309515357 1.83223617 0.780044556 -0.310084432 1.82911682 0.773589075 -0.310688168 1.82876003 0.754401028 -0.362044722 1.7776866 0.743208885 -0.350114346 1.76771617 0.761327624 -0.351537526 1.72776532 0.743208885 -0.350114346 1.76771617 0.754401028 -0.362044722 1.7776866 0.740727007 -0.348341584 1.78620267 0.742981911 -0.329393983 1.77009559 0.743208885 -0.350114346 1.76771617 0.740727007 -0.348341584 1.78620267 0.743208885 -0.350114346 1.76771617 0.760379136 -0.33107245 1.72180426 0.761327624 -0.351537526 1.72776532 0.743208885 -0.350114346 1.76771617 0.742981911 -0.329393983 1.77009559 0.760379136 -0.33107245 1.72180426 0.784356475 -0.374228358 1.79090977 0.78217268 -0.369712681 1.76205027 0.799501359 -0.372344524 1.77126348 0.802687407 -0.372260988 1.7996285 0.784356475 -0.374228358 1.79090977 0.799501359 -0.372344524 1.77126348 0.784356475 -0.374228358 1.79090977 0.802687407 -0.372260988 1.7996285 0.792907059 -0.369754106 1.81204259 0.771459758 -0.355042964 1.72849309 0.766447842 -0.355477244 1.73287165 0.761327624 -0.351537526 1.72776532 0.78217268 -0.369712681 1.76205027 0.766447842 -0.355477244 1.73287165 0.771459758 -0.355042964 1.72849309 0.765555382 -0.367217362 1.76899064 0.784356475 -0.374228358 1.79090977 0.766236186 -0.369758576 1.79118598 0.784356475 -0.374228358 1.79090977 0.765555382 -0.367217362 1.76899064 0.78217268 -0.369712681 1.76205027 0.765555382 -0.367217362 1.76899064 0.766447842 -0.355477244 1.73287165 0.78217268 -0.369712681 1.76205027 0.765555382 -0.367217362 1.76899064 0.754401028 -0.362044722 1.7776866 0.761327624 -0.351537526 1.72776532 0.766447842 -0.355477244 1.73287165 0.765555382 -0.367217362 1.76899064 0.761327624 -0.351537526 1.72776532 0.766229928 -0.368348241 1.80174422 0.744849801 -0.345206499 1.80605316 0.740727007 -0.348341584 1.78620267 0.766229928 -0.368348241 1.80174422 0.784356475 -0.374228358 1.79090977 0.792907059 -0.369754106 1.81204259 0.784356475 -0.374228358 1.79090977 0.766229928 -0.368348241 1.80174422 0.766236186 -0.369758576 1.79118598 0.754401028 -0.362044722 1.7776866 0.766229928 -0.368348241 1.80174422 0.740727007 -0.348341584 1.78620267 0.766229928 -0.368348241 1.80174422 0.754401028 -0.362044722 1.7776866 0.766236186 -0.369758576 1.79118598 0.786873102 -0.309709817 1.83023763 0.793738484 -0.309515357 1.83223617 0.758684158 -0.305479407 1.74645829 0.780044556 -0.310084432 1.82911682 0.786873102 -0.309709817 1.83023763 0.758684158 -0.305479407 1.74645829 0.786873102 -0.309709817 1.83023763 0.780044556 -0.310084432 1.82911682 0.793738484 -0.309515357 1.83223617 0.754401028 -0.362044722 1.7776866 0.759565771 -0.365101695 1.77678847 0.766236186 -0.369758576 1.79118598 0.759565771 -0.365101695 1.77678847 0.765555382 -0.367217362 1.76899064 0.766236186 -0.369758576 1.79118598 0.765555382 -0.367217362 1.76899064 0.759565771 -0.365101695 1.77678847 0.754401028 -0.362044722 1.7776866 0.773940921 -0.35701704 1.82124841 0.7737481 -0.364723176 1.81256485 0.792907059 -0.369754106 1.81204259 0.7737481 -0.364723176 1.81256485 0.766229928 -0.368348241 1.80174422 0.792907059 -0.369754106 1.81204259 0.7737481 -0.364723176 1.81256485 0.773940921 -0.35701704 1.82124841 0.760432541 -0.342847705 1.82475519 0.76136899 -0.361410558 1.80507541 0.7737481 -0.364723176 1.81256485 0.760432541 -0.342847705 1.82475519 0.7737481 -0.364723176 1.81256485 0.76136899 -0.361410558 1.80507541 0.766229928 -0.368348241 1.80174422 0.744849801 -0.345206499 1.80605316 0.76136899 -0.361410558 1.80507541 0.760432541 -0.342847705 1.82475519 0.766229928 -0.368348241 1.80174422 0.76136899 -0.361410558 1.80507541 0.744849801 -0.345206499 1.80605316 </float_array>
          <technique_common>
            <accessor count="312" offset="0" source="#mesh_0-positions-array" stride="3">
              <param name="X" type="float" />
              <param name="Y" type="float" />
              <param name="Z" type="float" />
            </accessor>
          </technique_common>
        </source>
        <vertices id="mesh_0-vertices">
          <input semantic="POSITION" source="#mesh_0-positions" />
        </vertices>
        <polylist count="104" material="defaultMaterial">
          <input offset="0" semantic="VERTEX" source="#mesh_0-vertices" />
          <vcount>3 3 3 3 3 3 3 3 3 3 3 3 3 3 3 3 3 3 3 3 3 3 3 3 3 3 3 3 3 3 3 3 3 3 3 3 3 3 3 3 3 3 3 3 3 3 3 3 3 3 3 3 3 3 3 3 3 3 3 3 3 3 3 3 3 3 3 3 3 3 3 3 3 3 3 3 3 3 3 3 3 3 3 3 3 3 3 3 3 3 3 3 3 3 3 3 3 3 3 3 3 3 3 3 </vcount>
          <p>0 1 2 3 4 5 6 7 8 9 10 11 12 13 14 15 16 17 18 19 20 21 22 23 24 25 26 27 28 29 30 31 32 33 34 35 36 37 38 39 40 41 42 43 44 45 46 47 48 49 50 51 52 53 54 55 56 57 58 59 60 61 62 63 64 65 66 67 68 69 70 71 72 73 74 75 76 77 78 79 80 81 82 83 84 85 86 87 88 89 90 91 92 93 94 95 96 97 98 99 100 101 102 103 104 105 106 107 108 109 110 111 112 113 114 115 116 117 118 119 120 121 122 123 124 125 126 127 128 129 130 131 132 133 134 135 136 137 138 139 140 141 142 143 144 145 146 147 148 149 150 151 152 153 154 155 156 157 158 159 160 161 162 163 164 165 166 167 168 169 170 171 172 173 174 175 176 177 178 179 180 181 182 183 184 185 186 187 188 189 190 191 192 193 194 195 196 197 198 199 200 201 202 203 204 205 206 207 208 209 210 211 212 213 214 215 216 217 218 219 220 221 222 223 224 225 226 227 228 229 230 231 232 233 234 235 236 237 238 239 240 241 242 243 244 245 246 247 248 249 250 251 252 253 254 255 256 257 258 259 260 261 262 263 264 265 266 267 268 269 270 271 272 273 274 275 276 277 278 279 280 281 282 283 284 285 286 287 288 289 290 291 292 293 294 295 296 297 298 299 300 301 302 303 304 305 306 307 308 309 310 311 </p>
        </polylist>
      </mesh>
    </geometry>
  </library_geometries>
  <library_controllers>
  </library_controllers>
  <library_visual_scenes>
    <visual_scene id="Scene" name="Scene">
      <node id="node" name="" type="NODE">
        <matrix sid="matrix">1 0 0 0 0 1 0 0 0 0 1 0 0 0 0 1</matrix>
        <instance_geometry url="#mesh_0">
          <bind_material>
            <technique_common>
              <instance_material symbol="defaultMaterial" target="#material_0">
              </instance_material>
            </technique_common>
          </bind_material>
        </instance_geometry>
      </node>
    </visual_scene>
  </library_visual_scenes>
  <scene>
    <instance_visual_scene url="#Scene" />
  </scene>
</COLLADA>
