<?xml version="1.0" encoding="UTF-8" standalone="no" ?>
<COLLADA xmlns="http://www.collada.org/2005/11/COLLADASchema" version="1.4.1">
  <asset>
    <contributor>
      <author>Assimp</author>
      <authoring_tool>Assimp Exporter</authoring_tool>
    </contributor>
    <created>2026-04-22T16:09:44</created>
    <modified>2026-04-22T16:09:44</modified>
    <unit name="meter" meter="1" />
    <up_axis>Y_UP</up_axis>
  </asset>
  <library_images>
  </library_images>
  <library_effects>
    <effect id="material_0-fx" name="">
      <profile_COMMON>
        <technique sid="standard">
          <phong>
            <emission>
              <color sid="emission">0   0   0   -0</color>
            </emission>
            <ambient>
              <color sid="ambient">0.699999988   1   0.699999988   1.82499993</color>
            </ambient>
            <diffuse>
              <color sid="diffuse">0.699999988   1   0.699999988   1.82499993</color>
            </diffuse>
            <specular>
              <color sid="specular">0.25   0.25   0.25   -0</color>
            </specular>
          </phong>
        </technique>
      </profile_COMMON>
    </effect>
  </library_effects>
  <library_materials>
    <material id="material_0" name="">
      <instance_effect url="#material_0-fx"/>
    </material>
  </library_materials>
  <library_geometries>
    <geometry id="mesh_0" name="" >
      <mesh>
        <source id="mesh_0-positions" name="mesh_0-positions">
          <float_array id="mesh_0-positions-array" count="954"> -0.289453357 0.0505161174 1.52341616 -0.261997312 0.0745289549 1.52331936 -0.297397763 0.0249622446 1.52337921 -0.261997312 0.0745289549 1.52331936 -0.289453357 0.0505161174 1.52341616 -0.273038149 0.103124551 1.59693384 -0.186312348 0.0243967511 1.52323472 -0.230221272 0.0766048208 1.52328336 -0.204311743 0.063828744 1.52325487 -0.230221272 0.0766048208 1.52328336 -0.186312348 0.0243967511 1.52323472 -0.261997312 0.0745289549 1.52331936 -0.27784881 0.105999224 1.64430285 -0.248569101 0.121893957 1.64497733 -0.273038149 0.103124551 1.59693384 -0.248569101 0.121893957 1.64497733 -0.255991578 0.0766391456 1.64098847 -0.223232925 0.0817854181 1.64044631 -0.248569101 0.121893957 1.64497733 -0.27784881 0.105999224 1.64430285 -0.255991578 0.0766391456 1.64098847 -0.18988125 0.0415992551 1.52326632 -0.186312348 0.0243967511 1.52323472 -0.204311743 0.063828744 1.52325487 -0.186312348 0.0243967511 1.52323472 -0.231448203 -0.0326141194 1.52329946 -0.261997312 0.0745289549 1.52331936 -0.261997312 0.0745289549 1.52331936 -0.231448203 -0.0326141194 1.52329946 -0.297397763 0.0249622446 1.52337921 -0.216203079 0.0151406946 1.60582578 -0.201797619 0.0272457395 1.59943986 -0.223232925 0.0817854181 1.64044631 -0.189150095 0.00638032518 1.55174434 -0.186312348 0.0243967511 1.52323472 -0.187266335 0.0201657377 1.54783595 -0.201002374 -0.00525864493 1.58063745 -0.216203079 0.0151406946 1.60582578 -0.215795904 -0.0123055279 1.58680534 -0.216203079 0.0151406946 1.60582578 -0.201002374 -0.00525864493 1.58063745 -0.201797619 0.0272457395 1.59943986 -0.189150095 0.00638032518 1.55174434 -0.201002374 -0.00525864493 1.58063745 -0.198385984 -0.0111653963 1.55771816 -0.2126102 -0.0234928969 1.55851007 -0.201002374 -0.00525864493 1.58063745 -0.215795904 -0.0123055279 1.58680534 -0.201002374 -0.00525864493 1.58063745 -0.2126102 -0.0234928969 1.55851007 -0.198385984 -0.0111653963 1.55771816 -0.198385984 -0.0111653963 1.55771816 -0.2126102 -0.0234928969 1.55851007 -0.206050649 -0.0197614208 1.52328384 -0.2126102 -0.0234928969 1.55851007 -0.231448203 -0.0326141194 1.52329946 -0.206050649 -0.0197614208 1.52328384 -0.231448203 -0.0326141194 1.52329946 -0.2126102 -0.0234928969 1.55851007 -0.227250054 -0.0304869562 1.5429492 -0.281774908 0.0902138725 1.60710979 -0.27784881 0.105999224 1.64430285 -0.273038149 0.103124551 1.59693384 -0.289453357 0.0505161174 1.52341616 -0.281774908 0.0902138725 1.60710979 -0.273038149 0.103124551 1.59693384 -0.27784881 0.105999224 1.64430285 -0.281774908 0.0902138725 1.60710979 -0.297397763 0.0249622446 1.52337921 -0.281774908 0.0902138725 1.60710979 -0.289453357 0.0505161174 1.52341616 -0.297397763 0.0249622446 1.52337921 -0.245914534 0.1082801 1.58823895 -0.261997312 0.0745289549 1.52331936 -0.273038149 0.103124551 1.59693384 -0.245914534 0.1082801 1.58823895 -0.230221272 0.0766048208 1.52328336 -0.261997312 0.0745289549 1.52331936 -0.248569101 0.121893957 1.64497733 -0.245914534 0.1082801 1.58823895 -0.273038149 0.103124551 1.59693384 -0.245914534 0.1082801 1.58823895 -0.248569101 0.121893957 1.64497733 -0.232228741 0.118648164 1.63306046 -0.269615889 0.00962318294 1.60349286 -0.253646433 0.00709207077 1.60671508 -0.255991578 0.0766391456 1.64098847 -0.259615511 -0.0104288058 1.59265792 -0.269615889 0.00962318294 1.60349286 -0.276169777 -0.0116326772 1.58174741 -0.269615889 0.00962318294 1.60349286 -0.259615511 -0.0104288058 1.59265792 -0.253646433 0.00709207077 1.60671508 -0.293996751 0.0252726022 1.56671774 -0.27784881 0.105999224 1.64430285 -0.297397763 0.0249622446 1.52337921 -0.293996751 0.0252726022 1.56671774 -0.293916345 0.00538377464 1.54475522 -0.288502693 0.0115205664 1.58670008 -0.289526701 -0.005735307 1.52350056 -0.293916345 0.00538377464 1.54475522 -0.297397763 0.0249622446 1.52337921 -0.293916345 0.00538377464 1.54475522 -0.293996751 0.0252726022 1.56671774 -0.297397763 0.0249622446 1.52337921 -0.219690144 0.109213412 1.6382066 -0.248569101 0.121893957 1.64497733 -0.223232925 0.0817854181 1.64044631 -0.248569101 0.121893957 1.64497733 -0.219690144 0.109213412 1.6382066 -0.232228741 0.118648164 1.63306046 -0.186312348 0.0243967511 1.52323472 -0.19004415 0.03843683 1.55887842 -0.187266335 0.0201657377 1.54783595 -0.18988125 0.0415992551 1.52326632 -0.19004415 0.03843683 1.55887842 -0.186312348 0.0243967511 1.52323472 -0.219690144 0.109213412 1.6382066 -0.19004415 0.03843683 1.55887842 -0.18988125 0.0415992551 1.52326632 -0.216203079 0.0151406946 1.60582578 -0.23000896 0.00448339013 1.6047219 -0.215795904 -0.0123055279 1.58680534 -0.23000896 0.00448339013 1.6047219 -0.216203079 0.0151406946 1.60582578 -0.223232925 0.0817854181 1.64044631 -0.255991578 0.0766391456 1.64098847 -0.23000896 0.00448339013 1.6047219 -0.223232925 0.0817854181 1.64044631 -0.253646433 0.00709207077 1.60671508 -0.23000896 0.00448339013 1.6047219 -0.255991578 0.0766391456 1.64098847 -0.189150095 0.00638032518 1.55174434 -0.193008691 -0.00408458151 1.52325153 -0.186312348 0.0243967511 1.52323472 -0.231448203 -0.0326141194 1.52329946 -0.193008691 -0.00408458151 1.52325153 -0.206050649 -0.0197614208 1.52328384 -0.193008691 -0.00408458151 1.52325153 -0.231448203 -0.0326141194 1.52329946 -0.186312348 0.0243967511 1.52323472 -0.193008691 -0.00408458151 1.52325153 -0.198385984 -0.0111653963 1.55771816 -0.206050649 -0.0197614208 1.52328384 -0.193008691 -0.00408458151 1.52325153 -0.189150095 0.00638032518 1.55174434 -0.198385984 -0.0111653963 1.55771816 -0.201002374 -0.00525864493 1.58063745 -0.193363801 0.021682119 1.58649135 -0.201797619 0.0272457395 1.59943986 -0.193363801 0.021682119 1.58649135 -0.201002374 -0.00525864493 1.58063745 -0.189150095 0.00638032518 1.55174434 -0.193363801 0.021682119 1.58649135 -0.189150095 0.00638032518 1.55174434 -0.187266335 0.0201657377 1.54783595 -0.19004415 0.03843683 1.55887842 -0.193363801 0.021682119 1.58649135 -0.187266335 0.0201657377 1.54783595 -0.275501579 -0.0208341256 1.55372405 -0.277583629 -0.0191790201 1.52336264 -0.264233291 -0.0282912869 1.52334821 -0.277583629 -0.0191790201 1.52336264 -0.275501579 -0.0208341256 1.55372405 -0.289526701 -0.005735307 1.52350056 -0.277583629 -0.0191790201 1.52336264 -0.289526701 -0.005735307 1.52350056 -0.297397763 0.0249622446 1.52337921 -0.231448203 -0.0326141194 1.52329946 -0.277583629 -0.0191790201 1.52336264 -0.297397763 0.0249622446 1.52337921 -0.277583629 -0.0191790201 1.52336264 -0.231448203 -0.0326141194 1.52329946 -0.264233291 -0.0282912869 1.52334821 -0.252391279 -0.0276943427 1.57141101 -0.259615511 -0.0104288058 1.59265792 -0.276169777 -0.0116326772 1.58174741 -0.245914534 0.1082801 1.58823895 -0.229009628 0.105913669 1.58869553 -0.230221272 0.0766048208 1.52328336 -0.230221272 0.0766048208 1.52328336 -0.229009628 0.105913669 1.58869553 -0.204311743 0.063828744 1.52325487 -0.27784881 0.105999224 1.64430285 -0.273853123 0.0719805509 1.63243568 -0.255991578 0.0766391456 1.64098847 -0.273853123 0.0719805509 1.63243568 -0.269615889 0.00962318294 1.60349286 -0.255991578 0.0766391456 1.64098847 -0.293996751 0.0252726022 1.56671774 -0.280078739 0.0847349167 1.63338315 -0.27784881 0.105999224 1.64430285 -0.280078739 0.0847349167 1.63338315 -0.293996751 0.0252726022 1.56671774 -0.288502693 0.0115205664 1.58670008 -0.280078739 0.0847349167 1.63338315 -0.273853123 0.0719805509 1.63243568 -0.27784881 0.105999224 1.64430285 -0.275501579 -0.0208341256 1.55372405 -0.284280896 -0.0104125841 1.56063354 -0.289526701 -0.005735307 1.52350056 -0.284280896 -0.0104125841 1.56063354 -0.293916345 0.00538377464 1.54475522 -0.289526701 -0.005735307 1.52350056 -0.284280896 -0.0104125841 1.56063354 -0.275501579 -0.0208341256 1.55372405 -0.276169777 -0.0116326772 1.58174741 -0.288502693 0.0115205664 1.58670008 -0.284280896 -0.0104125841 1.56063354 -0.276169777 -0.0116326772 1.58174741 -0.293916345 0.00538377464 1.54475522 -0.284280896 -0.0104125841 1.56063354 -0.288502693 0.0115205664 1.58670008 -0.215397313 0.0969318748 1.59664536 -0.18988125 0.0415992551 1.52326632 -0.204311743 0.063828744 1.52325487 -0.215397313 0.0969318748 1.59664536 -0.219690144 0.109213412 1.6382066 -0.18988125 0.0415992551 1.52326632 -0.212116197 0.0862192437 1.62673354 -0.19004415 0.03843683 1.55887842 -0.219690144 0.109213412 1.6382066 -0.212116197 0.0862192437 1.62673354 -0.193363801 0.021682119 1.58649135 -0.19004415 0.03843683 1.55887842 -0.212116197 0.0862192437 1.62673354 -0.219690144 0.109213412 1.6382066 -0.223232925 0.0817854181 1.64044631 -0.201797619 0.0272457395 1.59943986 -0.212116197 0.0862192437 1.62673354 -0.223232925 0.0817854181 1.64044631 -0.193363801 0.021682119 1.58649135 -0.212116197 0.0862192437 1.62673354 -0.201797619 0.0272457395 1.59943986 -0.263578475 -0.0274566915 1.55613339 -0.275501579 -0.0208341256 1.55372405 -0.264233291 -0.0282912869 1.52334821 -0.275501579 -0.0208341256 1.55372405 -0.263578475 -0.0274566915 1.55613339 -0.276169777 -0.0116326772 1.58174741 -0.263578475 -0.0274566915 1.55613339 -0.252391279 -0.0276943427 1.57141101 -0.276169777 -0.0116326772 1.58174741 -0.252391279 -0.0276943427 1.57141101 -0.239498377 -0.0207961071 1.58553708 -0.259615511 -0.0104288058 1.59265792 -0.23000896 0.00448339013 1.6047219 -0.239498377 -0.0207961071 1.58553708 -0.215795904 -0.0123055279 1.58680534 -0.259615511 -0.0104288058 1.59265792 -0.239498377 -0.0207961071 1.58553708 -0.253646433 0.00709207077 1.60671508 -0.239498377 -0.0207961071 1.58553708 -0.23000896 0.00448339013 1.6047219 -0.253646433 0.00709207077 1.60671508 -0.2126102 -0.0234928969 1.55851007 -0.227955788 -0.0271530207 1.56966329 -0.227250054 -0.0304869562 1.5429492 -0.227955788 -0.0271530207 1.56966329 -0.239498377 -0.0207961071 1.58553708 -0.252391279 -0.0276943427 1.57141101 -0.227955788 -0.0271530207 1.56966329 -0.2126102 -0.0234928969 1.55851007 -0.215795904 -0.0123055279 1.58680534 -0.239498377 -0.0207961071 1.58553708 -0.227955788 -0.0271530207 1.56966329 -0.215795904 -0.0123055279 1.58680534 -0.273853123 0.0719805509 1.63243568 -0.283206165 0.0176176503 1.59726334 -0.269615889 0.00962318294 1.60349286 -0.280078739 0.0847349167 1.63338315 -0.283206165 0.0176176503 1.59726334 -0.273853123 0.0719805509 1.63243568 -0.283206165 0.0176176503 1.59726334 -0.280078739 0.0847349167 1.63338315 -0.288502693 0.0115205664 1.58670008 -0.283206165 0.0176176503 1.59726334 -0.288502693 0.0115205664 1.58670008 -0.276169777 -0.0116326772 1.58174741 -0.269615889 0.00962318294 1.60349286 -0.283206165 0.0176176503 1.59726334 -0.276169777 -0.0116326772 1.58174741 -0.229009628 0.105913669 1.58869553 -0.227348745 0.112462334 1.60947895 -0.204311743 0.063828744 1.52325487 -0.227348745 0.112462334 1.60947895 -0.215397313 0.0969318748 1.59664536 -0.204311743 0.063828744 1.52325487 -0.227348745 0.112462334 1.60947895 -0.245914534 0.1082801 1.58823895 -0.232228741 0.118648164 1.63306046 -0.227348745 0.112462334 1.60947895 -0.229009628 0.105913669 1.58869553 -0.245914534 0.1082801 1.58823895 -0.219690144 0.109213412 1.6382066 -0.227348745 0.112462334 1.60947895 -0.232228741 0.118648164 1.63306046 -0.215397313 0.0969318748 1.59664536 -0.227348745 0.112462334 1.60947895 -0.219690144 0.109213412 1.6382066 -0.231448203 -0.0326141194 1.52329946 -0.248635039 -0.0316080712 1.55012167 -0.264233291 -0.0282912869 1.52334821 -0.248635039 -0.0316080712 1.55012167 -0.263578475 -0.0274566915 1.55613339 -0.264233291 -0.0282912869 1.52334821 -0.263578475 -0.0274566915 1.55613339 -0.248635039 -0.0316080712 1.55012167 -0.252391279 -0.0276943427 1.57141101 -0.248635039 -0.0316080712 1.55012167 -0.231448203 -0.0326141194 1.52329946 -0.227250054 -0.0304869562 1.5429492 -0.227955788 -0.0271530207 1.56966329 -0.248635039 -0.0316080712 1.55012167 -0.227250054 -0.0304869562 1.5429492 -0.248635039 -0.0316080712 1.55012167 -0.227955788 -0.0271530207 1.56966329 -0.252391279 -0.0276943427 1.57141101 </float_array>
          <technique_common>
            <accessor count="318" offset="0" source="#mesh_0-positions-array" stride="3">
              <param name="X" type="float" />
              <param name="Y" type="float" />
              <param name="Z" type="float" />
            </accessor>
          </technique_common>
        </source>
        <vertices id="mesh_0-vertices">
          <input semantic="POSITION" source="#mesh_0-positions" />
        </vertices>
        <polylist count="106" material="defaultMaterial">
          <input offset="0" semantic="VERTEX" source="#mesh_0-vertices" />
          <vcount>3 3 3 3 3 3 3 3 3 3 3 3 3 3 3 3 3 3 3 3 3 3 3 3 3 3 3 3 3 3 3 3 3 3 3 3 3 3 3 3 3 3 3 3 3 3 3 3 3 3 3 3 3 3 3 3 3 3 3 3 3 3 3 3 3 3 3 3 3 3 3 3 3 3 3 3 3 3 3 3 3 3 3 3 3 3 3 3 3 3 3 3 3 3 3 3 3 3 3 3 3 3 3 3 3 3 </vcount>
          <p>0 1 2 3 4 5 6 7 8 9 10 11 12 13 14 15 16 17 18 19 20 21 22 23 24 25 26 27 28 29 30 31 32 33 34 35 36 37 38 39 40 41 42 43 44 45 46 47 48 49 50 51 52 53 54 55 56 57 58 59 60 61 62 63 64 65 66 67 68 69 70 71 72 73 74 75 76 77 78 79 80 81 82 83 84 85 86 87 88 89 90 91 92 93 94 95 96 97 98 99 100 101 102 103 104 105 106 107 108 109 110 111 112 113 114 115 116 117 118 119 120 121 122 123 124 125 126 127 128 129 130 131 132 133 134 135 136 137 138 139 140 141 142 143 144 145 146 147 148 149 150 151 152 153 154 155 156 157 158 159 160 161 162 163 164 165 166 167 168 169 170 171 172 173 174 175 176 177 178 179 180 181 182 183 184 185 186 187 188 189 190 191 192 193 194 195 196 197 198 199 200 201 202 203 204 205 206 207 208 209 210 211 212 213 214 215 216 217 218 219 220 221 222 223 224 225 226 227 228 229 230 231 232 233 234 235 236 237 238 239 240 241 242 243 244 245 246 247 248 249 250 251 252 253 254 255 256 257 258 259 260 261 262 263 264 265 266 267 268 269 270 271 272 273 274 275 276 277 278 279 280 281 282 283 284 285 286 287 288 289 290 291 292 293 294 295 296 297 298 299 300 301 302 303 304 305 306 307 308 309 310 311 312 313 314 315 316 317 </p>
        </polylist>
      </mesh>
    </geometry>
  </library_geometries>
  <library_controllers>
  </library_controllers>
  <library_visual_scenes>
    <visual_scene id="Scene" name="Scene">
      <node id="node" name="" type="NODE">
        <matrix sid="matrix">1 0 0 0 0 1 0 0 0 0 1 0 0 0 0 1</matrix>
        <instance_geometry url="#mesh_0">
          <bind_material>
            <technique_common>
              <instance_material symbol="defaultMaterial" target="#material_0">
              </instance_material>
            </technique_common>
          </bind_material>
        </instance_geometry>
      </node>
    </visual_scene>
  </library_visual_scenes>
  <scene>
    <instance_visual_scene url="#Scene" />
  </scene>
</COLLADA>
