<?xml version="1.0" encoding="UTF-8" standalone="no" ?>
<COLLADA xmlns="http://www.collada.org/2005/11/COLLADASchema" version="1.4.1">
  <asset>
    <contributor>
      <author>Assimp</author>
      <authoring_tool>Assimp Exporter</authoring_tool>
    </contributor>
    <created>2026-04-22T16:09:44</created>
    <modified>2026-04-22T16:09:44</modified>
    <unit name="meter" meter="1" />
    <up_axis>Y_UP</up_axis>
  </asset>
  <library_images>
  </library_images>
  <library_effects>
    <effect id="material_0-fx" name="">
      <profile_COMMON>
        <technique sid="standard">
          <phong>
            <emission>
              <color sid="emission">0   0   0   -1.29948092</color>
            </emission>
            <ambient>
              <color sid="ambient">0.980000019   0.980000019   0.980000019   -1.40118456</color>
            </ambient>
            <diffuse>
              <color sid="diffuse">0.980000019   0.980000019   0.980000019   -1.40118456</color>
            </diffuse>
            <specular>
              <color sid="specular">0.25   0.25   0.25   -0.337564439</color>
            </specular>
          </phong>
        </technique>
      </profile_COMMON>
    </effect>
  </library_effects>
  <library_materials>
    <material id="material_0" name="">
      <instance_effect url="#material_0-fx"/>
    </material>
  </library_materials>
  <library_geometries>
    <geometry id="mesh_0" name="" >
      <mesh>
        <source id="mesh_0-positions" name="mesh_0-positions">
          <float_array id="mesh_0-positions-array" count="4833"> -0.163556054 -0.0127040837 1.69723356 -0.163596511 -0.0126945665 1.69778383 -0.163704991 -0.0127712432 1.70379889 -0.163053781 -0.0128175672 1.6946882 -0.163556054 -0.0127040837 1.69723356 -0.163704991 -0.0127712432 1.70379889 -0.112215474 0.0475949384 1.70371807 -0.113262072 0.0472843647 1.69757378 -0.112821959 0.0461872071 1.69314981 -0.107141018 0.0250211693 1.68758643 -0.109345838 0.0393073671 1.68752015 -0.105698921 0.0262758099 1.68721724 -0.094857417 0.0235500038 1.68770444 -0.0946252644 0.0236956328 1.6875273 -0.0949619263 0.0236663446 1.68770278 -0.094857417 0.0235500038 1.68770444 -0.0947902873 0.0234740563 1.6876992 -0.0946252644 0.0236956328 1.6875273 -0.0945890024 0.0236555543 1.68752706 -0.0946252644 0.0236956328 1.6875273 -0.0947902873 0.0234740563 1.6876992 -0.0796832815 0.00904714223 1.68781269 -0.0842991471 0.0134903071 1.68729019 -0.0947902873 0.0234740563 1.6876992 -0.108711846 0.0317128934 1.72107077 -0.105773874 0.0355734341 1.72062194 -0.110535756 0.0383624434 1.72139442 -0.105773874 0.0355734341 1.72062194 -0.109090701 0.04019605 1.72113931 -0.110535756 0.0383624434 1.72139442 -0.104541421 0.0324548185 1.72008359 -0.108711846 0.0317128934 1.72107077 -0.109172642 0.0236136597 1.72011125 -0.0948079452 0.0221582986 1.68750954 -0.0975116193 0.0252375733 1.68861485 -0.0810384676 0.0088319974 1.68755245 -0.0810384676 0.0088319974 1.68755245 -0.0940822139 0.0215906072 1.68767452 -0.0948079452 0.0221582986 1.68750954 -0.0810384676 0.0088319974 1.68755245 -0.0796832815 0.00904714223 1.68781269 -0.0947902873 0.0234740563 1.6876992 -0.110535756 0.0383624434 1.72139442 -0.109090701 0.04019605 1.72113931 -0.111343548 0.0418493785 1.72072256 -0.0940822139 0.0215906072 1.68767452 -0.0810384676 0.0088319974 1.68755245 -0.0947902873 0.0234740563 1.6876992 -0.104541421 0.0324548185 1.72008359 -0.105773874 0.0355734341 1.72062194 -0.108711846 0.0317128934 1.72107077 -0.0975116193 0.0252375733 1.68861485 -0.0940822139 0.0215906072 1.68767452 -0.0947902873 0.0234740563 1.6876992 -0.108695544 0.0443612859 1.70311415 -0.109370001 0.0454058163 1.69671452 -0.110551491 0.0468494594 1.70311618 -0.109370001 0.0454058163 1.69671452 -0.111503713 0.0473614335 1.69738579 -0.110551491 0.0468494594 1.70311618 -0.110551491 0.0468494594 1.70311618 -0.111503713 0.0473614335 1.69738579 -0.112215474 0.0475949384 1.70371807 -0.109370001 0.0454058163 1.69671452 -0.108695544 0.0443612859 1.70311415 -0.104585953 0.0369826183 1.6883558 -0.112215474 0.0475949384 1.70371807 -0.111503713 0.0473614335 1.69738579 -0.113264747 0.0473242924 1.69815254 -0.109345838 0.0393073671 1.68752015 -0.109930344 0.043182414 1.68955076 -0.107823454 0.0420647487 1.68992126 -0.103754789 0.0345508419 1.68684042 -0.101766698 0.032745868 1.68761659 -0.0913374946 0.0179885384 1.68536186 -0.103754789 0.0345508419 1.68684042 -0.104585953 0.0369826183 1.6883558 -0.101766698 0.032745868 1.68761659 -0.103754789 0.0345508419 1.68684042 -0.0913374946 0.0179885384 1.68536186 -0.0966017321 0.0226512328 1.68515396 -0.104585953 0.0369826183 1.6883558 -0.107823454 0.0420647487 1.68992126 -0.109370001 0.0454058163 1.69671452 -0.0699044317 -0.00228943769 1.70119429 -0.0768487677 -0.0113968123 1.70346284 -0.0746497065 -0.0103059066 1.70013142 -0.0706076249 -0.00137490942 1.70361125 -0.0768487677 -0.0113968123 1.70346284 -0.0699044317 -0.00228943769 1.70119429 -0.0913374946 0.0179885384 1.68536186 -0.101766698 0.032745868 1.68761659 -0.0946253315 0.0236956719 1.6875273 -0.109370001 0.0454058163 1.69671452 -0.107823454 0.0420647487 1.68992126 -0.110370971 0.0461628139 1.6942569 -0.110370971 0.0461628139 1.6942569 -0.111503713 0.0473614335 1.69738579 -0.109370001 0.0454058163 1.69671452 -0.103754789 0.0345508419 1.68684042 -0.0966017321 0.0226512328 1.68515396 -0.103205025 0.0295902155 1.6855011 -0.103754789 0.0345508419 1.68684042 -0.103205025 0.0295902155 1.6855011 -0.107459575 0.0366410278 1.68669927 -0.113264747 0.0473242924 1.69815254 -0.112821959 0.0461872071 1.69314981 -0.113262072 0.0472843647 1.69757378 -0.0706076249 -0.00137490942 1.70361125 -0.0739828423 -0.00559428521 1.70448506 -0.0768487677 -0.0113968123 1.70346284 -0.106120199 -0.011809743 1.71294391 -0.0812209398 -0.00358419563 1.70817661 -0.0999148712 -0.00100159657 1.71342456 -0.0819424689 -0.0193844084 1.70241642 -0.0768487677 -0.0113968123 1.70346284 -0.0842811391 -0.0201524533 1.70444238 -0.103754789 0.0345508419 1.68684042 -0.107459575 0.0366410278 1.68669927 -0.109345838 0.0393073671 1.68752015 -0.109930344 0.043182414 1.68955076 -0.112040691 0.0440074839 1.69029272 -0.112821959 0.0461872071 1.69314981 -0.104585953 0.0369826183 1.6883558 -0.103754789 0.0345508419 1.68684042 -0.109345838 0.0393073671 1.68752015 -0.0739828423 -0.00559428521 1.70448506 -0.0722700059 -0.00055286946 1.70546043 -0.0791944638 -0.00815112703 1.70653403 -0.0722700059 -0.00055286946 1.70546043 -0.0739828423 -0.00559428521 1.70448506 -0.0706076249 -0.00137490942 1.70361125 -0.107823454 0.0420647487 1.68992126 -0.109930344 0.043182414 1.68955076 -0.110370971 0.0461628139 1.6942569 -0.0791944638 -0.00815112703 1.70653403 -0.0770341307 0.00387157267 1.7081517 -0.0812209398 -0.00358419563 1.70817661 -0.107823454 0.0420647487 1.68992126 -0.104585953 0.0369826183 1.6883558 -0.109345838 0.0393073671 1.68752015 -0.110370971 0.0461628139 1.6942569 -0.112821959 0.0461872071 1.69314981 -0.111503713 0.0473614335 1.69738579 -0.109930344 0.043182414 1.68955076 -0.112821959 0.0461872071 1.69314981 -0.110370971 0.0461628139 1.6942569 -0.0722700059 -0.00055286946 1.70546043 -0.0770341307 0.00387157267 1.7081517 -0.0791944638 -0.00815112703 1.70653403 -0.0812209398 -0.00358419563 1.70817661 -0.104880117 0.00341319712 1.71546876 -0.0999148712 -0.00100159657 1.71342456 -0.111503713 0.0473614335 1.69738579 -0.112821959 0.0461872071 1.69314981 -0.113264747 0.0473242924 1.69815254 -0.0910034552 0.0188970137 1.68593287 -0.0842991471 0.0134903071 1.68729019 -0.0766844973 0.00564666372 1.68580878 -0.0913374946 0.0179885384 1.68536186 -0.0785686448 0.00492486265 1.68509007 -0.0966017321 0.0226512328 1.68515396 -0.0913374946 0.0179885384 1.68536186 -0.0766844973 0.00564666372 1.68580878 -0.0785686448 0.00492486265 1.68509007 -0.0910034552 0.0188970137 1.68593287 -0.0946253315 0.0236956719 1.6875273 -0.0842991471 0.0134903071 1.68729019 -0.0946253315 0.0236956719 1.6875273 -0.0910034552 0.0188970137 1.68593287 -0.0913374946 0.0179885384 1.68536186 -0.0766844973 0.00564666372 1.68580878 -0.0913374946 0.0179885384 1.68536186 -0.0910034552 0.0188970137 1.68593287 -0.10494332 0.0376047902 1.70311034 -0.104585953 0.0369826183 1.6883558 -0.108695544 0.0443612859 1.70311415 -0.0981667861 0.0275293477 1.69166064 -0.0949619263 0.0236663446 1.68770278 -0.101766698 0.032745868 1.68761659 -0.102429852 0.0334475748 1.70310771 -0.101766698 0.032745868 1.68761659 -0.104585953 0.0369826183 1.6883558 -0.0778041035 -0.0152812079 1.69768536 -0.0746497065 -0.0103059066 1.70013142 -0.0815528259 -0.0199835803 1.70015979 -0.101766698 0.032745868 1.68761659 -0.0949619263 0.0236663446 1.68770278 -0.0946253315 0.0236956719 1.6875273 -0.0949619263 0.0236663446 1.68770278 -0.0946252644 0.0236956328 1.6875273 -0.0946253315 0.0236956719 1.6875273 -0.101766698 0.032745868 1.68761659 -0.102429852 0.0334475748 1.70310771 -0.0989556611 0.0284206644 1.70310283 -0.10494332 0.0376047902 1.70311034 -0.102429852 0.0334475748 1.70310771 -0.104585953 0.0369826183 1.6883558 -0.0981667861 0.0275293477 1.69166064 -0.101766698 0.032745868 1.68761659 -0.0989556611 0.0284206644 1.70310283 -0.0946253315 0.0236956719 1.6875273 -0.0945890024 0.0236555543 1.68752706 -0.0947902873 0.0234740563 1.6876992 -0.0946253315 0.0236956719 1.6875273 -0.0947902873 0.0234740563 1.6876992 -0.0842991471 0.0134903071 1.68729019 -0.0724938512 0.00324619049 1.68844652 -0.0842991471 0.0134903071 1.68729019 -0.0796832815 0.00904714223 1.68781269 -0.0724938512 0.00324619049 1.68844652 -0.0796832815 0.00904714223 1.68781269 -0.078489475 0.00794165302 1.6884836 -0.0778041035 -0.0152812079 1.69768536 -0.0879356042 -0.0277047344 1.70074987 -0.0898850486 -0.0304135066 1.69770277 -0.116749205 0.00422672136 1.71853638 -0.104880117 0.00341319712 1.71546876 -0.11122033 0.0152160311 1.71921742 -0.0710643232 0.00205649459 1.69707119 -0.078489475 0.00794165302 1.6884836 -0.076551877 0.00624342868 1.69707799 -0.0724938512 0.00324619049 1.68844652 -0.078489475 0.00794165302 1.6884836 -0.0710643232 0.00205649459 1.69707119 -0.110734068 0.0392242335 1.68761539 -0.112040691 0.0440074839 1.69029272 -0.109930344 0.043182414 1.68955076 -0.0746497065 -0.0103059066 1.70013142 -0.0819424689 -0.0193844084 1.70241642 -0.0815528259 -0.0199835803 1.70015979 -0.110734068 0.0392242335 1.68761539 -0.109930344 0.043182414 1.68955076 -0.109345838 0.0393073671 1.68752015 -0.10891927 0.0132734599 1.68726027 -0.115025498 0.0047266339 1.68759823 -0.107141018 0.0250211693 1.68758643 -0.0778041035 -0.0152812079 1.69768536 -0.0815528259 -0.0199835803 1.70015979 -0.0879356042 -0.0277047344 1.70074987 -0.0966017321 0.0226512328 1.68515396 -0.110219829 -0.00210163114 1.68514049 -0.0996482894 0.0185040962 1.68521464 -0.0879356042 -0.0277047344 1.70074987 -0.0819424689 -0.0193844084 1.70241642 -0.0882661566 -0.0264580939 1.70328748 -0.116760388 -0.00151461829 1.68701899 -0.115025498 0.0047266339 1.68759823 -0.10891927 0.0132734599 1.68726027 -0.115045495 -0.00504560862 1.68544447 -0.116760388 -0.00151461829 1.68701899 -0.110556588 0.00763002504 1.68697929 -0.110556588 0.00763002504 1.68697929 -0.116760388 -0.00151461829 1.68701899 -0.10891927 0.0132734599 1.68726027 -0.110219829 -0.00210163114 1.68514049 -0.105084628 0.0101905176 1.68552315 -0.0996482894 0.0185040962 1.68521464 -0.069545269 -0.00244242116 1.6976701 -0.0746497065 -0.0103059066 1.70013142 -0.0778041035 -0.0152812079 1.69768536 -0.115045495 -0.00504560862 1.68544447 -0.110556588 0.00763002504 1.68697929 -0.105084628 0.0101905176 1.68552315 -0.104541421 0.0324548185 1.72008359 -0.0812209398 -0.00358419563 1.70817661 -0.0770341307 0.00387157267 1.7081517 -0.0996482894 0.0185040962 1.68521464 -0.107141018 0.0250211693 1.68758643 -0.105698921 0.0262758099 1.68721724 -0.110556588 0.00763002504 1.68697929 -0.10891927 0.0132734599 1.68726027 -0.105084628 0.0101905176 1.68552315 -0.110219829 -0.00210163114 1.68514049 -0.115045495 -0.00504560862 1.68544447 -0.105084628 0.0101905176 1.68552315 -0.10891927 0.0132734599 1.68726027 -0.107141018 0.0250211693 1.68758643 -0.105084628 0.0101905176 1.68552315 -0.0768487677 -0.0113968123 1.70346284 -0.0845666081 -0.0176366996 1.70588791 -0.0842811391 -0.0201524533 1.70444238 -0.0815528259 -0.0199835803 1.70015979 -0.0819424689 -0.0193844084 1.70241642 -0.0879356042 -0.0277047344 1.70074987 -0.105084628 0.0101905176 1.68552315 -0.107141018 0.0250211693 1.68758643 -0.0996482894 0.0185040962 1.68521464 -0.0996482894 0.0185040962 1.68521464 -0.103205025 0.0295902155 1.6855011 -0.0966017321 0.0226512328 1.68515396 -0.105698921 0.0262758099 1.68721724 -0.109345838 0.0393073671 1.68752015 -0.107459575 0.0366410278 1.68669927 -0.107459575 0.0366410278 1.68669927 -0.103205025 0.0295902155 1.6855011 -0.105698921 0.0262758099 1.68721724 -0.103205025 0.0295902155 1.6855011 -0.0996482894 0.0185040962 1.68521464 -0.105698921 0.0262758099 1.68721724 -0.0754752904 0.0025210639 1.68537354 -0.0766844973 0.00564666372 1.68580878 -0.0731562451 0.000295632723 1.68618262 -0.0731562451 0.000295632723 1.68618262 -0.0708834007 -0.000123338439 1.68822479 -0.0706539005 -0.00187740836 1.68916857 -0.116749205 0.00422672136 1.71853638 -0.11303059 -0.00511421962 1.71574008 -0.104880117 0.00341319712 1.71546876 -0.0706539005 -0.00187740836 1.68916857 -0.0708834007 -0.000123338439 1.68822479 -0.0702831224 0.000353305717 1.69110358 -0.0695436746 -0.00246627792 1.69706976 -0.0702831224 0.000353305717 1.69110358 -0.0710643232 0.00205649459 1.69707119 -0.0731562451 0.000295632723 1.68618262 -0.0766844973 0.00564666372 1.68580878 -0.0724938512 0.00324619049 1.68844652 -0.0708834007 -0.000123338439 1.68822479 -0.0731562451 0.000295632723 1.68618262 -0.0724938512 0.00324619049 1.68844652 -0.0708834007 -0.000123338439 1.68822479 -0.0724938512 0.00324619049 1.68844652 -0.0702831224 0.000353305717 1.69110358 -0.0902871564 -0.0216675606 1.70701122 -0.0812209398 -0.00358419563 1.70817661 -0.0946733952 -0.0205303561 1.7086134 -0.0702831224 0.000353305717 1.69110358 -0.0698225945 -0.00251975073 1.69291663 -0.0706539005 -0.00187740836 1.68916857 -0.0702831224 0.000353305717 1.69110358 -0.0724938512 0.00324619049 1.68844652 -0.0710643232 0.00205649459 1.69707119 -0.0695436746 -0.00246627792 1.69706976 -0.0698225945 -0.00251975073 1.69291663 -0.0702831224 0.000353305717 1.69110358 -0.0766844973 0.00564666372 1.68580878 -0.0754752904 0.0025210639 1.68537354 -0.0785686448 0.00492486265 1.68509007 -0.107638791 0.00242170063 1.71596515 -0.104880117 0.00341319712 1.71546876 -0.11303059 -0.00511421962 1.71574008 -0.0766844973 0.00564666372 1.68580878 -0.0842991471 0.0134903071 1.68729019 -0.0724938512 0.00324619049 1.68844652 -0.0981667861 0.0275293477 1.69166064 -0.0975116193 0.0252375733 1.68861485 -0.0949619263 0.0236663446 1.68770278 -0.0994653031 0.0275971889 1.69558072 -0.0975116193 0.0252375733 1.68861485 -0.0981667861 0.0275293477 1.69166064 -0.0949619263 0.0236663446 1.68770278 -0.0975116193 0.0252375733 1.68861485 -0.0947902873 0.0234740563 1.6876992 -0.0989556611 0.0284206644 1.70310283 -0.0994653031 0.0275971889 1.69558072 -0.0981667861 0.0275293477 1.69166064 -0.0773110986 0.00585967256 1.69316649 -0.076551877 0.00624342868 1.69707799 -0.078489475 0.00794165302 1.6884836 -0.0810384676 0.0088319974 1.68755245 -0.0773110986 0.00585967256 1.69316649 -0.078489475 0.00794165302 1.6884836 -0.0796832815 0.00904714223 1.68781269 -0.0810384676 0.0088319974 1.68755245 -0.078489475 0.00794165302 1.6884836 -0.0771092251 0.00546486629 1.69812095 -0.076551877 0.00624342868 1.69707799 -0.0773110986 0.00585967256 1.69316649 -0.0834638104 -0.0210871082 1.68959355 -0.0816649273 -0.0195797365 1.69111466 -0.0891397968 -0.0290084668 1.69204724 -0.0754752904 0.0025210639 1.68537354 -0.0731562451 0.000295632723 1.68618262 -0.0828002393 -0.0111048836 1.6855669 -0.0816649273 -0.0195797365 1.69111466 -0.0834638104 -0.0210871082 1.68959355 -0.0754739791 -0.00990637206 1.6894834 -0.0754739791 -0.00990637206 1.6894834 -0.0698225945 -0.00251975073 1.69291663 -0.0816649273 -0.0195797365 1.69111466 -0.0824557245 -0.0150846345 1.68648481 -0.0731562451 0.000295632723 1.68618262 -0.0761325508 -0.0072646616 1.68695962 -0.0816649273 -0.0195797365 1.69111466 -0.0698225945 -0.00251975073 1.69291663 -0.0789158493 -0.0165875535 1.693766 -0.0984648392 -0.0275518764 1.68530881 -0.0754752904 0.0025210639 1.68537354 -0.0828002393 -0.0111048836 1.6855669 -0.0789158493 -0.0165875535 1.693766 -0.0698225945 -0.00251975073 1.69291663 -0.0748684257 -0.0109032458 1.69474185 -0.0789158493 -0.0165875535 1.693766 -0.0773577616 -0.0146558974 1.69708276 -0.0835279822 -0.0228894036 1.69709289 -0.0812209398 -0.00358419563 1.70817661 -0.11122033 0.0152160311 1.71921742 -0.104880117 0.00341319712 1.71546876 -0.104541421 0.0324548185 1.72008359 -0.109172642 0.0236136597 1.72011125 -0.0812209398 -0.00358419563 1.70817661 -0.0984648392 -0.0275518764 1.68530881 -0.0785686448 0.00492486265 1.68509007 -0.0754752904 0.0025210639 1.68537354 -0.0819424689 -0.0193844084 1.70241642 -0.0842811391 -0.0201524533 1.70444238 -0.0882661566 -0.0264580939 1.70328748 -0.0828002393 -0.0111048836 1.6855669 -0.0731562451 0.000295632723 1.68618262 -0.0824557245 -0.0150846345 1.68648481 -0.0789158493 -0.0165875535 1.693766 -0.0748684257 -0.0109032458 1.69474185 -0.0773577616 -0.0146558974 1.69708276 -0.0748684257 -0.0109032458 1.69474185 -0.0698225945 -0.00251975073 1.69291663 -0.0695436746 -0.00246627792 1.69706976 -0.0842811391 -0.0201524533 1.70444238 -0.0925950855 -0.0289624035 1.70512128 -0.0882661566 -0.0264580939 1.70328748 -0.0828002393 -0.0111048836 1.6855669 -0.0824557245 -0.0150846345 1.68648481 -0.0971532017 -0.0308486521 1.68598366 -0.0773577616 -0.0146558974 1.69708276 -0.0748684257 -0.0109032458 1.69474185 -0.0695436746 -0.00246627792 1.69706976 -0.0785686448 0.00492486265 1.68509007 -0.0984648392 -0.0275518764 1.68530881 -0.115702778 -0.0399273075 1.68516517 -0.0816649273 -0.0195797365 1.69111466 -0.0789158493 -0.0165875535 1.693766 -0.0835279822 -0.0228894036 1.69709289 -0.0731562451 0.000295632723 1.68618262 -0.0706539005 -0.00187740836 1.68916857 -0.0761325508 -0.0072646616 1.68695962 -0.0812209398 -0.00358419563 1.70817661 -0.109172642 0.0236136597 1.72011125 -0.11122033 0.0152160311 1.71921742 -0.0768487677 -0.0113968123 1.70346284 -0.0739828423 -0.00559428521 1.70448506 -0.0845666081 -0.0176366996 1.70588791 -0.0845666081 -0.0176366996 1.70588791 -0.0791944638 -0.00815112703 1.70653403 -0.0902871564 -0.0216675606 1.70701122 -0.0761325508 -0.0072646616 1.68695962 -0.0706539005 -0.00187740836 1.68916857 -0.0754739791 -0.00990637206 1.6894834 -0.0832751095 -0.0193651076 1.68804276 -0.0761325508 -0.0072646616 1.68695962 -0.0754739791 -0.00990637206 1.6894834 -0.0832751095 -0.0193651076 1.68804276 -0.0754739791 -0.00990637206 1.6894834 -0.0834638104 -0.0210871082 1.68959355 -0.0739828423 -0.00559428521 1.70448506 -0.0791944638 -0.00815112703 1.70653403 -0.0845666081 -0.0176366996 1.70588791 -0.0761325508 -0.0072646616 1.68695962 -0.0832751095 -0.0193651076 1.68804276 -0.0824557245 -0.0150846345 1.68648481 -0.0754739791 -0.00990637206 1.6894834 -0.0706539005 -0.00187740836 1.68916857 -0.0698225945 -0.00251975073 1.69291663 -0.0746497065 -0.0103059066 1.70013142 -0.0768487677 -0.0113968123 1.70346284 -0.0819424689 -0.0193844084 1.70241642 -0.0812209398 -0.00358419563 1.70817661 -0.106120199 -0.011809743 1.71294391 -0.0946733952 -0.0205303561 1.7086134 -0.142008528 -0.0230203308 1.70454776 -0.14253132 -0.0235332083 1.7037729 -0.140818372 -0.0243950784 1.69053102 -0.140818372 -0.0243950784 1.69053102 -0.137135863 -0.0269675888 1.68759418 -0.13744171 -0.0264632199 1.6878047 -0.136945993 -0.0267663505 1.68776548 -0.13744171 -0.0264632199 1.6878047 -0.137135863 -0.0269675888 1.68759418 -0.136945918 -0.0267664269 1.68776548 -0.136945993 -0.0267663505 1.68776548 -0.137135863 -0.0269675888 1.68759418 -0.137135863 -0.0269675888 1.68759418 -0.137089953 -0.0269963983 1.68759394 -0.136945918 -0.0267664269 1.68776548 -0.137626976 -0.025284538 1.68774199 -0.138560086 -0.0247243773 1.68817019 -0.140818372 -0.0243950784 1.69053102 -0.0925950855 -0.0289624035 1.70512128 -0.0845666081 -0.0176366996 1.70588791 -0.0902871564 -0.0216675606 1.70701122 -0.136565372 -0.0260354057 1.68768668 -0.137626976 -0.025284538 1.68774199 -0.137651473 -0.0254696794 1.68791592 -0.135653526 -0.0265207607 1.68757379 -0.136565372 -0.0260354057 1.68768668 -0.135024264 -0.0270581208 1.68772352 -0.0842811391 -0.0201524533 1.70444238 -0.0845666081 -0.0176366996 1.70588791 -0.0925950855 -0.0289624035 1.70512128 -0.11848484 -0.0386290587 1.68715191 -0.132236823 -0.0287645366 1.68756497 -0.131276399 -0.0294706039 1.68763518 -0.0791944638 -0.00815112703 1.70653403 -0.0812209398 -0.00358419563 1.70817661 -0.0902871564 -0.0216675606 1.70701122 -0.069545269 -0.00244242116 1.6976701 -0.0699044317 -0.00228943769 1.70119429 -0.0746497065 -0.0103059066 1.70013142 -0.137626976 -0.025284538 1.68774199 -0.135653526 -0.0265207607 1.68757379 -0.132236823 -0.0287645366 1.68756497 -0.11848484 -0.0386290587 1.68715191 -0.131276399 -0.0294706039 1.68763518 -0.131730482 -0.0292638484 1.68771994 -0.135024264 -0.0270581208 1.68772352 -0.131730482 -0.0292638484 1.68771994 -0.132236823 -0.0287645366 1.68756497 -0.136565372 -0.0260354057 1.68768668 -0.136945918 -0.0267664269 1.68776548 -0.135024264 -0.0270581208 1.68772352 -0.135024264 -0.0270581208 1.68772352 -0.136945918 -0.0267664269 1.68776548 -0.131730482 -0.0292638484 1.68771994 -0.11848484 -0.0386290587 1.68715191 -0.131730482 -0.0292638484 1.68771994 -0.136945918 -0.0267664269 1.68776548 -0.11848484 -0.0386290587 1.68715191 -0.136945918 -0.0267664269 1.68776548 -0.117760152 -0.0413524285 1.68735695 -0.120152496 -0.0377563611 1.68761384 -0.11848484 -0.0386290587 1.68715191 -0.117760152 -0.0413524285 1.68735695 -0.159792885 -0.0167261548 1.70319343 -0.162210017 -0.0156180505 1.70319641 -0.162357464 -0.0151427379 1.69483542 -0.162357464 -0.0151427379 1.69483542 -0.162210017 -0.0156180505 1.70319641 -0.163428456 -0.0144705605 1.70319855 -0.163428456 -0.0144705605 1.70319855 -0.163704991 -0.0127712432 1.70379889 -0.163596511 -0.0126945665 1.69778383 -0.153091609 -0.0186580047 1.68793929 -0.151135981 -0.0197896101 1.68827784 -0.158748955 -0.0167824384 1.69116771 -0.153091609 -0.0186580047 1.68793929 -0.158748955 -0.0167824384 1.69116771 -0.159308434 -0.0153896352 1.68994176 -0.161843598 -0.0143485824 1.69239521 -0.163053781 -0.0128175672 1.6946882 -0.159695998 -0.0134063568 1.68999636 -0.159695998 -0.0134063568 1.68999636 -0.159308434 -0.0153896352 1.68994176 -0.161843598 -0.0143485824 1.69239521 -0.159308434 -0.0153896352 1.68994176 -0.158748955 -0.0167824384 1.69116771 -0.161843598 -0.0143485824 1.69239521 -0.163053781 -0.0128175672 1.6946882 -0.162357464 -0.0151427379 1.69483542 -0.163428456 -0.0144705605 1.70319855 -0.158748955 -0.0167824384 1.69116771 -0.159792885 -0.0167261548 1.70319343 -0.162357464 -0.0151427379 1.69483542 -0.131866395 -0.0274980087 1.68517399 -0.149652481 -0.0175144225 1.68626392 -0.135624558 -0.0232218467 1.68518054 -0.148094282 -0.0199134611 1.68641984 -0.137135878 -0.0269676745 1.68759418 -0.153091609 -0.0186580047 1.68793929 -0.149652481 -0.0175144225 1.68626392 -0.131866395 -0.0274980087 1.68517399 -0.148094282 -0.0199134611 1.68641984 -0.148094282 -0.0199134611 1.68641984 -0.128269836 -0.0323016681 1.68607914 -0.137135878 -0.0269676745 1.68759418 -0.163053781 -0.0128175672 1.6946882 -0.161843598 -0.0143485824 1.69239521 -0.162357464 -0.0151427379 1.69483542 -0.149652481 -0.0175144225 1.68626392 -0.148094282 -0.0199134611 1.68641984 -0.154916197 -0.017271271 1.68793607 -0.153091609 -0.0186580047 1.68793929 -0.154916197 -0.017271271 1.68793607 -0.148094282 -0.0199134611 1.68641984 -0.154916197 -0.017271271 1.68793607 -0.155165106 -0.0145401889 1.68767023 -0.149652481 -0.0175144225 1.68626392 -0.155165106 -0.0145401889 1.68767023 -0.154916197 -0.017271271 1.68793607 -0.159308434 -0.0153896352 1.68994176 -0.158748955 -0.0167824384 1.69116771 -0.151135981 -0.0197896101 1.68827784 -0.159792885 -0.0167261548 1.70319343 -0.162357464 -0.0151427379 1.69483542 -0.161843598 -0.0143485824 1.69239521 -0.158748955 -0.0167824384 1.69116771 -0.163053781 -0.0128175672 1.6946882 -0.163428456 -0.0144705605 1.70319855 -0.163596511 -0.0126945665 1.69778383 -0.153091609 -0.0186580047 1.68793929 -0.159308434 -0.0153896352 1.68994176 -0.154916197 -0.017271271 1.68793607 -0.115702778 -0.0399273075 1.68516517 -0.117858559 -0.0402898975 1.68590581 -0.128269836 -0.0323016681 1.68607914 -0.128269836 -0.0323016681 1.68607914 -0.137089953 -0.0269963983 1.68759394 -0.137135878 -0.0269676745 1.68759418 -0.128269836 -0.0323016681 1.68607914 -0.136945918 -0.0267664269 1.68776548 -0.137089953 -0.0269963983 1.68759394 -0.115702778 -0.0399273075 1.68516517 -0.128269836 -0.0323016681 1.68607914 -0.148094282 -0.0199134611 1.68641984 -0.115702778 -0.0399273075 1.68516517 -0.148094282 -0.0199134611 1.68641984 -0.131866395 -0.0274980087 1.68517399 -0.128269836 -0.0323016681 1.68607914 -0.117760152 -0.0413524285 1.68735695 -0.136945918 -0.0267664269 1.68776548 -0.151135981 -0.0197896101 1.68827784 -0.140818372 -0.0243950784 1.69053102 -0.14253132 -0.0235332083 1.7037729 -0.137135863 -0.0269675888 1.68759418 -0.140818372 -0.0243950784 1.69053102 -0.137135878 -0.0269676745 1.68759418 -0.14253132 -0.0235332083 1.7037729 -0.148045838 -0.0209635533 1.7031796 -0.151135981 -0.0197896101 1.68827784 -0.151135981 -0.0197896101 1.68827784 -0.148045838 -0.0209635533 1.7031796 -0.159792885 -0.0167261548 1.70319343 -0.151135981 -0.0197896101 1.68827784 -0.153091609 -0.0186580047 1.68793929 -0.140818372 -0.0243950784 1.69053102 -0.140818372 -0.0243950784 1.69053102 -0.153091609 -0.0186580047 1.68793929 -0.137135878 -0.0269676745 1.68759418 -0.111629166 -0.046487648 1.69713509 -0.116791338 -0.0416858494 1.69714129 -0.112088859 -0.0461047553 1.69079173 -0.117760152 -0.0413524285 1.68735695 -0.112088859 -0.0461047553 1.69079173 -0.118887618 -0.040034961 1.68854856 -0.118887618 -0.040034961 1.68854856 -0.112088859 -0.0461047553 1.69079173 -0.116791338 -0.0416858494 1.69714129 -0.110310867 -0.0441081412 1.68627477 -0.109649703 -0.0457127728 1.68751824 -0.112146869 -0.0454323702 1.68771911 -0.107125305 -0.0467661135 1.69220483 -0.109649703 -0.0457127728 1.68751824 -0.107684582 -0.0463808253 1.68981755 -0.117858559 -0.0402898975 1.68590581 -0.112146869 -0.0454323702 1.68771911 -0.117760152 -0.0413524285 1.68735695 -0.107125305 -0.0467661135 1.69220483 -0.107035145 -0.0471309982 1.69712889 -0.111629166 -0.046487648 1.69713509 -0.128269836 -0.0323016681 1.68607914 -0.117858559 -0.0402898975 1.68590581 -0.117760152 -0.0413524285 1.68735695 -0.112146869 -0.0454323702 1.68771911 -0.11212156 -0.04275373 1.68560588 -0.110310867 -0.0441081412 1.68627477 -0.112146869 -0.0454323702 1.68771911 -0.117858559 -0.0402898975 1.68590581 -0.11212156 -0.04275373 1.68560588 -0.112146869 -0.0454323702 1.68771911 -0.112088859 -0.0461047553 1.69079173 -0.117760152 -0.0413524285 1.68735695 -0.112146869 -0.0454323702 1.68771911 -0.109649703 -0.0457127728 1.68751824 -0.107125305 -0.0467661135 1.69220483 -0.107125305 -0.0467661135 1.69220483 -0.112088859 -0.0461047553 1.69079173 -0.112146869 -0.0454323702 1.68771911 -0.107125305 -0.0467661135 1.69220483 -0.111629166 -0.046487648 1.69713509 -0.112088859 -0.0461047553 1.69079173 -0.115702778 -0.0399273075 1.68516517 -0.11212156 -0.04275373 1.68560588 -0.117858559 -0.0402898975 1.68590581 -0.0785686448 0.00492486265 1.68509007 -0.115702778 -0.0399273075 1.68516517 -0.110219829 -0.00210163114 1.68514049 -0.110219829 -0.00210163114 1.68514049 -0.131866395 -0.0274980087 1.68517399 -0.135624558 -0.0232218467 1.68518054 -0.0785686448 0.00492486265 1.68509007 -0.110219829 -0.00210163114 1.68514049 -0.0966017321 0.0226512328 1.68515396 -0.115702778 -0.0399273075 1.68516517 -0.131866395 -0.0274980087 1.68517399 -0.110219829 -0.00210163114 1.68514049 -0.0989662185 0.0273095462 1.71733749 -0.0870059058 0.0144783063 1.71221054 -0.0970499665 0.0266860239 1.71500301 -0.155165106 -0.0145401889 1.68767023 -0.138998881 -0.0168546904 1.68704009 -0.149652481 -0.0175144225 1.68626392 -0.138998881 -0.0168546904 1.68704009 -0.134356618 -0.0213405788 1.68529594 -0.149652481 -0.0175144225 1.68626392 -0.149652481 -0.0175144225 1.68626392 -0.134356618 -0.0213405788 1.68529594 -0.135624558 -0.0232218467 1.68518054 -0.124445446 -0.0143083427 1.68539 -0.134356618 -0.0213405788 1.68529594 -0.138998881 -0.0168546904 1.68704009 -0.123702899 -0.00644172123 1.68743634 -0.124445446 -0.0143083427 1.68539 -0.138998881 -0.0168546904 1.68704009 -0.115025498 0.0047266339 1.68759823 -0.116760388 -0.00151461829 1.68701899 -0.131517202 -0.0102704838 1.68763685 -0.116760388 -0.00151461829 1.68701899 -0.124445446 -0.0143083427 1.68539 -0.123702899 -0.00644172123 1.68743634 -0.116760388 -0.00151461829 1.68701899 -0.115045495 -0.00504560862 1.68544447 -0.124445446 -0.0143083427 1.68539 -0.131517202 -0.0102704838 1.68763685 -0.116760388 -0.00151461829 1.68701899 -0.123702899 -0.00644172123 1.68743634 -0.115045495 -0.00504560862 1.68544447 -0.110219829 -0.00210163114 1.68514049 -0.124445446 -0.0143083427 1.68539 -0.131517202 -0.0102704838 1.68763685 -0.138998881 -0.0168546904 1.68704009 -0.155165106 -0.0145401889 1.68767023 -0.124445446 -0.0143083427 1.68539 -0.110219829 -0.00210163114 1.68514049 -0.134356618 -0.0213405788 1.68529594 -0.123702899 -0.00644172123 1.68743634 -0.138998881 -0.0168546904 1.68704009 -0.131517202 -0.0102704838 1.68763685 -0.110219829 -0.00210163114 1.68514049 -0.135624558 -0.0232218467 1.68518054 -0.134356618 -0.0213405788 1.68529594 -0.107141018 0.0250211693 1.68758643 -0.110734068 0.0392242335 1.68761539 -0.109345838 0.0393073671 1.68752015 -0.107141018 0.0250211693 1.68758643 -0.115025498 0.0047266339 1.68759823 -0.110734068 0.0392242335 1.68761539 -0.115025498 0.0047266339 1.68759823 -0.15529798 -0.013801232 1.68769288 -0.110734068 0.0392242335 1.68761539 -0.115025498 0.0047266339 1.68759823 -0.131517202 -0.0102704838 1.68763685 -0.15529798 -0.013801232 1.68769288 -0.131517202 -0.0102704838 1.68763685 -0.155165106 -0.0145401889 1.68767023 -0.15529798 -0.013801232 1.68769288 -0.15529798 -0.013801232 1.68769288 -0.155165106 -0.0145401889 1.68767023 -0.159308434 -0.0153896352 1.68994176 -0.159695998 -0.0134063568 1.68999636 -0.15529798 -0.013801232 1.68769288 -0.159308434 -0.0153896352 1.68994176 -0.13744171 -0.0264632199 1.6878047 -0.137651473 -0.0254696794 1.68791592 -0.140818372 -0.0243950784 1.69053102 -0.136565372 -0.0260354057 1.68768668 -0.137651473 -0.0254696794 1.68791592 -0.13744171 -0.0264632199 1.6878047 -0.136945918 -0.0267664269 1.68776548 -0.136565372 -0.0260354057 1.68768668 -0.13744171 -0.0264632199 1.6878047 -0.116741955 -0.040544793 1.691136 -0.120152496 -0.0377563611 1.68761384 -0.118887618 -0.040034961 1.68854856 -0.116791338 -0.0416858494 1.69714129 -0.116741955 -0.040544793 1.691136 -0.118887618 -0.040034961 1.68854856 -0.118887618 -0.040034961 1.68854856 -0.120152496 -0.0377563611 1.68761384 -0.117760152 -0.0413524285 1.68735695 -0.109649703 -0.0457127728 1.68751824 -0.110310867 -0.0441081412 1.68627477 -0.0992539898 -0.0366331339 1.6874938 -0.0932260975 -0.0335347392 1.69207001 -0.0939109251 -0.0329856016 1.6892525 -0.0891397968 -0.0290084668 1.69204724 -0.0963369459 -0.0372674875 1.6971128 -0.10267669 -0.0423374102 1.69050765 -0.0932260975 -0.0335347392 1.69207001 -0.0992539898 -0.0366331339 1.6874938 -0.0907206535 -0.027726097 1.68759811 -0.0939109251 -0.0329856016 1.6892525 -0.0898662955 -0.030399546 1.69710279 -0.0891397968 -0.0290084668 1.69204724 -0.0835279822 -0.0228894036 1.69709289 -0.11212156 -0.04275373 1.68560588 -0.115702778 -0.0399273075 1.68516517 -0.0984648392 -0.0275518764 1.68530881 -0.0907206535 -0.027726097 1.68759811 -0.0992539898 -0.0366331339 1.6874938 -0.0824557245 -0.0150846345 1.68648481 -0.0891397968 -0.0290084668 1.69204724 -0.0816649273 -0.0195797365 1.69111466 -0.0835279822 -0.0228894036 1.69709289 -0.10267669 -0.0423374102 1.69050765 -0.0939109251 -0.0329856016 1.6892525 -0.0932260975 -0.0335347392 1.69207001 -0.0963369459 -0.0372674875 1.6971128 -0.0932260975 -0.0335347392 1.69207001 -0.0898662955 -0.030399546 1.69710279 -0.0755134374 0.00482812803 1.70728791 -0.0728544965 0.00356447068 1.70392573 -0.0884022042 0.0174098536 1.71119463 -0.0697991326 -0.000554017723 1.70050597 -0.0706076249 -0.00137490942 1.70361125 -0.0699044317 -0.00228943769 1.70119429 -0.10267669 -0.0423374102 1.69050765 -0.103534803 -0.0417436473 1.68839109 -0.0939109251 -0.0329856016 1.6892525 -0.11212156 -0.04275373 1.68560588 -0.0984648392 -0.0275518764 1.68530881 -0.0971532017 -0.0308486521 1.68598366 -0.0891397968 -0.0290084668 1.69204724 -0.0939109251 -0.0329856016 1.6892525 -0.0834638104 -0.0210871082 1.68959355 -0.0992539898 -0.0366331339 1.6874938 -0.0971532017 -0.0308486521 1.68598366 -0.0824557245 -0.0150846345 1.68648481 -0.0939109251 -0.0329856016 1.6892525 -0.0907206535 -0.027726097 1.68759811 -0.0834638104 -0.0210871082 1.68959355 -0.0907206535 -0.027726097 1.68759811 -0.0832751095 -0.0193651076 1.68804276 -0.0834638104 -0.0210871082 1.68959355 -0.0907206535 -0.027726097 1.68759811 -0.0824557245 -0.0150846345 1.68648481 -0.0832751095 -0.0193651076 1.68804276 -0.0971532017 -0.0308486521 1.68598366 -0.0984648392 -0.0275518764 1.68530881 -0.0828002393 -0.0111048836 1.6855669 -0.0898662955 -0.030399546 1.69710279 -0.0932260975 -0.0335347392 1.69207001 -0.0891397968 -0.0290084668 1.69204724 -0.0713203549 0.000322503591 1.70471561 -0.0706076249 -0.00137490942 1.70361125 -0.0697991326 -0.000554017723 1.70050597 -0.103534803 -0.0417436473 1.68839109 -0.0992539898 -0.0366331339 1.6874938 -0.0939109251 -0.0329856016 1.6892525 -0.110310867 -0.0441081412 1.68627477 -0.0971532017 -0.0308486521 1.68598366 -0.0992539898 -0.0366331339 1.6874938 -0.107035145 -0.0471309982 1.69712889 -0.107125305 -0.0467661135 1.69220483 -0.0963369459 -0.0372674875 1.6971128 -0.107125305 -0.0467661135 1.69220483 -0.107684582 -0.0463808253 1.68981755 -0.10267669 -0.0423374102 1.69050765 -0.107684582 -0.0463808253 1.68981755 -0.103534803 -0.0417436473 1.68839109 -0.10267669 -0.0423374102 1.69050765 -0.110310867 -0.0441081412 1.68627477 -0.11212156 -0.04275373 1.68560588 -0.0971532017 -0.0308486521 1.68598366 -0.107684582 -0.0463808253 1.68981755 -0.109649703 -0.0457127728 1.68751824 -0.103534803 -0.0417436473 1.68839109 -0.107125305 -0.0467661135 1.69220483 -0.10267669 -0.0423374102 1.69050765 -0.0963369459 -0.0372674875 1.6971128 -0.109649703 -0.0457127728 1.68751824 -0.0992539898 -0.0366331339 1.6874938 -0.103534803 -0.0417436473 1.68839109 -0.152005345 -0.0189799983 1.70318449 -0.162210017 -0.0156180505 1.70319641 -0.159792885 -0.0167261548 1.70319343 -0.152005345 -0.0189799983 1.70318449 -0.159792885 -0.0167261548 1.70319343 -0.148045838 -0.0209635533 1.7031796 -0.14253132 -0.0235332083 1.7037729 -0.152005345 -0.0189799983 1.70318449 -0.148045838 -0.0209635533 1.7031796 -0.0695436746 -0.00246627792 1.69706976 -0.0835279822 -0.0228894036 1.69709289 -0.0773577616 -0.0146558974 1.69708276 -0.108695544 0.0443612859 1.70311415 -0.110551491 0.0468494594 1.70311618 -0.10494332 0.0376047902 1.70311034 -0.0989556611 0.0284206644 1.70310283 -0.102429852 0.0334475748 1.70310771 -0.10494332 0.0376047902 1.70311034 -0.124784261 -0.00418769568 1.72123146 -0.12266551 -0.00250561442 1.71863937 -0.118897907 0.00177198811 1.72119081 -0.11122033 0.0152160311 1.71921742 -0.109172642 0.0236136597 1.72011125 -0.109587811 0.0217274651 1.72117352 -0.112576246 0.0121251438 1.72119594 -0.11122033 0.0152160311 1.71921742 -0.109587811 0.0217274651 1.72117352 -0.0706076249 -0.00137490942 1.70361125 -0.0713203549 0.000322503591 1.70471561 -0.0722700059 -0.00055286946 1.70546043 -0.134052143 -0.0103717363 1.71948838 -0.12266551 -0.00250561442 1.71863937 -0.124784261 -0.00418769568 1.72123146 -0.134395465 -0.0103927329 1.72123516 -0.134052143 -0.0103717363 1.71948838 -0.124784261 -0.00418769568 1.72123146 -0.116749205 0.00422672136 1.71853638 -0.11122033 0.0152160311 1.71921742 -0.112576246 0.0121251438 1.72119594 -0.118897907 0.00177198811 1.72119081 -0.116749205 0.00422672136 1.71853638 -0.112576246 0.0121251438 1.72119594 -0.141110823 -0.0131531619 1.72031069 -0.134052143 -0.0103717363 1.71948838 -0.134395465 -0.0103927329 1.72123516 -0.12266551 -0.00250561442 1.71863937 -0.116749205 0.00422672136 1.71853638 -0.118897907 0.00177198811 1.72119081 -0.141110823 -0.0131531619 1.72031069 -0.134395465 -0.0103927329 1.72123516 -0.146404952 -0.0142724896 1.72104537 -0.109172642 0.0236136597 1.72011125 -0.108711846 0.0317128934 1.72107077 -0.109587811 0.0217274651 1.72117352 -0.115849793 0.00785675738 1.72138047 -0.108711846 0.0317128934 1.72107077 -0.110535756 0.0383624434 1.72139442 -0.109587811 0.0217274651 1.72117352 -0.108711846 0.0317128934 1.72107077 -0.115849793 0.00785675738 1.72138047 -0.112576246 0.0121251438 1.72119594 -0.109587811 0.0217274651 1.72117352 -0.115849793 0.00785675738 1.72138047 -0.118897907 0.00177198811 1.72119081 -0.112576246 0.0121251438 1.72119594 -0.115849793 0.00785675738 1.72138047 -0.124784261 -0.00418769568 1.72123146 -0.118897907 0.00177198811 1.72119081 -0.115849793 0.00785675738 1.72138047 -0.134395465 -0.0103927329 1.72123516 -0.124784261 -0.00418769568 1.72123146 -0.115849793 0.00785675738 1.72138047 -0.134395465 -0.0103927329 1.72123516 -0.115849793 0.00785675738 1.72138047 -0.154815346 -0.0137886172 1.72142005 -0.146404952 -0.0142724896 1.72104537 -0.134395465 -0.0103927329 1.72123516 -0.154815346 -0.0137886172 1.72142005 -0.1361157 -0.0263749529 1.71186006 -0.140151665 -0.0237538684 1.71001005 -0.133070171 -0.0281878915 1.71189606 -0.1361157 -0.0263749529 1.71186006 -0.136827886 -0.0258326251 1.71176887 -0.140151665 -0.0237538684 1.71001005 -0.140151665 -0.0237538684 1.71001005 -0.14253132 -0.0235332083 1.7037729 -0.142008528 -0.0230203308 1.70454776 -0.119810805 -0.0380156897 1.70704222 -0.133070171 -0.0281878915 1.71189606 -0.131172553 -0.0294744223 1.71137643 -0.139901981 -0.0239266939 1.71002316 -0.14253132 -0.0235332083 1.7037729 -0.140151665 -0.0237538684 1.71001005 -0.139193878 -0.0243505668 1.71064985 -0.140151665 -0.0237538684 1.71001005 -0.137455657 -0.0254537761 1.71156847 -0.116376698 -0.0407832079 1.70394123 -0.11606086 -0.0407100916 1.70364094 -0.115380801 -0.0416221991 1.69683421 -0.0770341307 0.00387157267 1.7081517 -0.0722700059 -0.00055286946 1.70546043 -0.0713203549 0.000322503591 1.70471561 -0.0870059058 0.0144783063 1.71221054 -0.0755134374 0.00482812803 1.70728791 -0.0884022042 0.0174098536 1.71119463 -0.11848484 -0.0386290587 1.68715191 -0.120152496 -0.0377563611 1.68761384 -0.11584276 -0.0408574231 1.69059801 -0.119810805 -0.0380156897 1.70704222 -0.11606086 -0.0407100916 1.70364094 -0.116376698 -0.0407832079 1.70394123 -0.119810805 -0.0380156897 1.70704222 -0.116376698 -0.0407832079 1.70394123 -0.117194794 -0.0401587673 1.70387828 -0.116376698 -0.0407832079 1.70394123 -0.115380801 -0.0416221991 1.69683421 -0.116741955 -0.040544793 1.691136 -0.116741955 -0.040544793 1.691136 -0.115380801 -0.0416221991 1.69683421 -0.11584276 -0.0408574231 1.69059801 -0.116741955 -0.040544793 1.691136 -0.11584276 -0.0408574231 1.69059801 -0.120152496 -0.0377563611 1.68761384 -0.116665281 -0.0414126888 1.69774103 -0.116791338 -0.0416858494 1.69714129 -0.116655856 -0.0414205827 1.69774103 -0.111629166 -0.046487648 1.69713509 -0.115041003 -0.0428079963 1.69773912 -0.116791338 -0.0416858494 1.69714129 -0.116791338 -0.0416858494 1.69714129 -0.115041003 -0.0428079963 1.69773912 -0.116655856 -0.0414205827 1.69774103 -0.107035145 -0.0471309982 1.69712889 -0.107307725 -0.047299277 1.69772947 -0.108851872 -0.0473337136 1.69773161 -0.111629166 -0.046487648 1.69713509 -0.107035145 -0.0471309982 1.69712889 -0.108851872 -0.0473337136 1.69773161 -0.16257894 -0.0153527986 1.70379817 -0.15015325 -0.0201155767 1.70378208 -0.160728022 -0.016365828 1.70379627 -0.152005345 -0.0189799983 1.70318449 -0.14253132 -0.0235332083 1.7037729 -0.15015325 -0.0201155767 1.70378208 -0.152005345 -0.0189799983 1.70318449 -0.15015325 -0.0201155767 1.70378208 -0.16257894 -0.0153527986 1.70379817 -0.162210017 -0.0156180505 1.70319641 -0.152005345 -0.0189799983 1.70318449 -0.16257894 -0.0153527986 1.70379817 -0.162210017 -0.0156180505 1.70319641 -0.16257894 -0.0153527986 1.70379817 -0.163704991 -0.0127712432 1.70379889 -0.162210017 -0.0156180505 1.70319641 -0.163704991 -0.0127712432 1.70379889 -0.163428456 -0.0144705605 1.70319855 -0.16257894 -0.0153527986 1.70379817 -0.160728022 -0.016365828 1.70379627 -0.161295831 -0.0158478245 1.7151643 -0.163704991 -0.0127712432 1.70379889 -0.16257894 -0.0153527986 1.70379817 -0.163395673 -0.0133319534 1.71438646 -0.163395673 -0.0133319534 1.71438646 -0.16257894 -0.0153527986 1.70379817 -0.161295831 -0.0158478245 1.7151643 -0.161295831 -0.0158478245 1.7151643 -0.150200814 -0.0201687701 1.71821344 -0.157362118 -0.0168463942 1.71912968 -0.161295831 -0.0158478245 1.7151643 -0.161350176 -0.0151236085 1.71768939 -0.163395673 -0.0133319534 1.71438646 -0.162521154 -0.0132526504 1.71709526 -0.163395673 -0.0133319534 1.71438646 -0.161350176 -0.0151236085 1.71768939 -0.151204288 -0.0186889656 1.72021878 -0.157362118 -0.0168463942 1.71912968 -0.150200814 -0.0201687701 1.71821344 -0.159869179 -0.0133719034 1.71987653 -0.162521154 -0.0132526504 1.71709526 -0.159203485 -0.0147583261 1.72026765 -0.159203485 -0.0147583261 1.72026765 -0.157362118 -0.0168463942 1.71912968 -0.151204288 -0.0186889656 1.72021878 -0.153535321 -0.0167149417 1.7211132 -0.151204288 -0.0186889656 1.72021878 -0.148245558 -0.0182101894 1.72042203 -0.159203485 -0.0147583261 1.72026765 -0.162521154 -0.0132526504 1.71709526 -0.161350176 -0.0151236085 1.71768939 -0.159203485 -0.0147583261 1.72026765 -0.161350176 -0.0151236085 1.71768939 -0.157362118 -0.0168463942 1.71912968 -0.159203485 -0.0147583261 1.72026765 -0.153535321 -0.0167149417 1.7211132 -0.154815346 -0.0137886172 1.72142005 -0.153535321 -0.0167149417 1.7211132 -0.159203485 -0.0147583261 1.72026765 -0.151204288 -0.0186889656 1.72021878 -0.160728022 -0.016365828 1.70379627 -0.150200814 -0.0201687701 1.71821344 -0.161295831 -0.0158478245 1.7151643 -0.157362118 -0.0168463942 1.71912968 -0.161350176 -0.0151236085 1.71768939 -0.161295831 -0.0158478245 1.7151643 -0.14253132 -0.0235332083 1.7037729 -0.144297808 -0.0226930995 1.71068013 -0.15015325 -0.0201155767 1.70378208 -0.144297808 -0.0226930995 1.71068013 -0.140453577 -0.0250646025 1.71507251 -0.150200814 -0.0201687701 1.71821344 -0.150200814 -0.0201687701 1.71821344 -0.160728022 -0.016365828 1.70379627 -0.15015325 -0.0201155767 1.70378208 -0.140813544 -0.0245257244 1.70962286 -0.144297808 -0.0226930995 1.71068013 -0.14253132 -0.0235332083 1.7037729 -0.140453577 -0.0250646025 1.71507251 -0.144297808 -0.0226930995 1.71068013 -0.140813544 -0.0245257244 1.70962286 -0.150200814 -0.0201687701 1.71821344 -0.15015325 -0.0201155767 1.70378208 -0.144297808 -0.0226930995 1.71068013 -0.132853284 -0.0294531714 1.71157372 -0.140453577 -0.0250646025 1.71507251 -0.140813544 -0.0245257244 1.70962286 -0.127234206 -0.0338611938 1.71027696 -0.119854733 -0.039297875 1.70662427 -0.115527809 -0.0431856774 1.70556736 -0.119854733 -0.039297875 1.70662427 -0.127234206 -0.0338611938 1.71027696 -0.132853284 -0.0294531714 1.71157372 -0.127234206 -0.0338611938 1.71027696 -0.140453577 -0.0250646025 1.71507251 -0.132853284 -0.0294531714 1.71157372 -0.11718002 -0.0412339494 1.70180118 -0.116665281 -0.0414126888 1.69774103 -0.119854733 -0.039297875 1.70662427 -0.0989662185 0.0273095462 1.71733749 -0.104541421 0.0324548185 1.72008359 -0.0870059058 0.0144783063 1.71221054 -0.119854733 -0.039297875 1.70662427 -0.116665281 -0.0414126888 1.69774103 -0.111629166 -0.046487648 1.69713509 -0.115527809 -0.0431856774 1.70556736 -0.119854733 -0.039297875 1.70662427 -0.111629166 -0.046487648 1.69713509 -0.127234206 -0.0338611938 1.71027696 -0.115680106 -0.0423051119 1.70729196 -0.13402845 -0.0277517624 1.71488106 -0.136100307 -0.0247685388 1.71633828 -0.13402845 -0.0277517624 1.71488106 -0.114516206 -0.0409263261 1.70817733 -0.115680106 -0.0423051119 1.70729196 -0.127234206 -0.0338611938 1.71027696 -0.115527809 -0.0431856774 1.70556736 -0.115680106 -0.0423051119 1.70729196 -0.110395774 -0.0456280187 1.70504165 -0.111296132 -0.0435803458 1.70667303 -0.111296132 -0.0435803458 1.70667303 -0.110395774 -0.0456280187 1.70504165 -0.108599953 -0.0458657369 1.7043308 -0.109811351 -0.0466748551 1.70283031 -0.115527809 -0.0431856774 1.70556736 -0.111629166 -0.046487648 1.69713509 -0.109811351 -0.0466748551 1.70283031 -0.108851872 -0.0473337136 1.69773161 -0.107554726 -0.0464364886 1.70265746 -0.108851872 -0.0473337136 1.69773161 -0.107307725 -0.047299277 1.69772947 -0.106941044 -0.0469541177 1.69918561 -0.13402845 -0.0277517624 1.71488106 -0.136100307 -0.0247685388 1.71633828 -0.151204288 -0.0186889656 1.72021878 -0.140453577 -0.0250646025 1.71507251 -0.13402845 -0.0277517624 1.71488106 -0.151204288 -0.0186889656 1.72021878 -0.13402845 -0.0277517624 1.71488106 -0.140453577 -0.0250646025 1.71507251 -0.127234206 -0.0338611938 1.71027696 -0.13402845 -0.0277517624 1.71488106 -0.115680106 -0.0423051119 1.70729196 -0.111296132 -0.0435803458 1.70667303 -0.114516206 -0.0409263261 1.70817733 -0.13402845 -0.0277517624 1.71488106 -0.111296132 -0.0435803458 1.70667303 -0.110395774 -0.0456280187 1.70504165 -0.115680106 -0.0423051119 1.70729196 -0.115527809 -0.0431856774 1.70556736 -0.108599953 -0.0458657369 1.7043308 -0.109811351 -0.0466748551 1.70283031 -0.107554726 -0.0464364886 1.70265746 -0.108599953 -0.0458657369 1.7043308 -0.110395774 -0.0456280187 1.70504165 -0.109811351 -0.0466748551 1.70283031 -0.115527809 -0.0431856774 1.70556736 -0.109811351 -0.0466748551 1.70283031 -0.110395774 -0.0456280187 1.70504165 -0.151204288 -0.0186889656 1.72021878 -0.136100307 -0.0247685388 1.71633828 -0.148245558 -0.0182101894 1.72042203 -0.108851872 -0.0473337136 1.69773161 -0.106941044 -0.0469541177 1.69918561 -0.107554726 -0.0464364886 1.70265746 -0.150200814 -0.0201687701 1.71821344 -0.140453577 -0.0250646025 1.71507251 -0.151204288 -0.0186889656 1.72021878 -0.109811351 -0.0466748551 1.70283031 -0.111629166 -0.046487648 1.69713509 -0.108851872 -0.0473337136 1.69773161 -0.159869179 -0.0133719034 1.71987653 -0.159203485 -0.0147583261 1.72026765 -0.154815346 -0.0137886172 1.72142005 -0.148245558 -0.0182101894 1.72042203 -0.141110823 -0.0131531619 1.72031069 -0.146404952 -0.0142724896 1.72104537 -0.153535321 -0.0167149417 1.7211132 -0.146404952 -0.0142724896 1.72104537 -0.154815346 -0.0137886172 1.72142005 -0.153535321 -0.0167149417 1.7211132 -0.148245558 -0.0182101894 1.72042203 -0.146404952 -0.0142724896 1.72104537 -0.136827886 -0.0258326251 1.71176887 -0.1361157 -0.0263749529 1.71186006 -0.140813544 -0.0245257244 1.70962286 -0.137455657 -0.0254537761 1.71156847 -0.136827886 -0.0258326251 1.71176887 -0.140813544 -0.0245257244 1.70962286 -0.069545269 -0.00244242116 1.6976701 -0.0697991326 -0.000554017723 1.70050597 -0.0699044317 -0.00228943769 1.70119429 -0.139193878 -0.0243505668 1.71064985 -0.137455657 -0.0254537761 1.71156847 -0.140813544 -0.0245257244 1.70962286 -0.139901981 -0.0239266939 1.71002316 -0.139193878 -0.0243505668 1.71064985 -0.140813544 -0.0245257244 1.70962286 -0.14253132 -0.0235332083 1.7037729 -0.139901981 -0.0239266939 1.71002316 -0.140813544 -0.0245257244 1.70962286 -0.132533282 -0.0286891609 1.71163118 -0.119810805 -0.0380156897 1.70704222 -0.132853284 -0.0294531714 1.71157372 -0.133070171 -0.0281878915 1.71189606 -0.132533282 -0.0286891609 1.71163118 -0.132853284 -0.0294531714 1.71157372 -0.0970499665 0.0266860239 1.71500301 -0.103599779 0.0355054848 1.71815825 -0.106704429 0.0392077938 1.71995223 -0.135444641 -0.0268173888 1.71192169 -0.133070171 -0.0281878915 1.71189606 -0.132853284 -0.0294531714 1.71157372 -0.0970499665 0.0266860239 1.71500301 -0.106704429 0.0392077938 1.71995223 -0.0989662185 0.0273095462 1.71733749 -0.1361157 -0.0263749529 1.71186006 -0.135444641 -0.0268173888 1.71192169 -0.132853284 -0.0294531714 1.71157372 -0.140813544 -0.0245257244 1.70962286 -0.1361157 -0.0263749529 1.71186006 -0.132853284 -0.0294531714 1.71157372 -0.104541421 0.0324548185 1.72008359 -0.0989662185 0.0273095462 1.71733749 -0.105773874 0.0355734341 1.72062194 -0.132853284 -0.0294531714 1.71157372 -0.119810805 -0.0380156897 1.70704222 -0.119854733 -0.039297875 1.70662427 -0.0728544965 0.00356447068 1.70392573 -0.0755134374 0.00482812803 1.70728791 -0.0713203549 0.000322503591 1.70471561 -0.11718002 -0.0412339494 1.70180118 -0.116376698 -0.0407832079 1.70394123 -0.116665281 -0.0414126888 1.69774103 -0.119854733 -0.039297875 1.70662427 -0.117194794 -0.0401587673 1.70387828 -0.11718002 -0.0412339494 1.70180118 -0.119810805 -0.0380156897 1.70704222 -0.117194794 -0.0401587673 1.70387828 -0.119854733 -0.039297875 1.70662427 -0.116665281 -0.0414126888 1.69774103 -0.116741955 -0.040544793 1.691136 -0.116791338 -0.0416858494 1.69714129 -0.116376698 -0.0407832079 1.70394123 -0.116741955 -0.040544793 1.691136 -0.116665281 -0.0414126888 1.69774103 -0.11866691 -0.0106678503 1.71598911 -0.119054891 -0.0127332602 1.7156266 -0.119437017 -0.0122497724 1.71403039 -0.11866691 -0.0106678503 1.71598911 -0.119437017 -0.0122497724 1.71403039 -0.118586086 -0.0101643903 1.71442723 -0.119054891 -0.0127332602 1.7156266 -0.114759021 -0.0169148445 1.71379495 -0.119437017 -0.0122497724 1.71403039 -0.114230014 -0.0172583573 1.71172142 -0.119437017 -0.0122497724 1.71403039 -0.114759021 -0.0169148445 1.71379495 -0.111296132 -0.0435803458 1.70667303 -0.102518588 -0.0334819369 1.70741141 -0.104496248 -0.0315930843 1.70837331 -0.0991565436 -0.0382562913 1.70324826 -0.108599953 -0.0458657369 1.7043308 -0.107554726 -0.0464364886 1.70265746 -0.108599953 -0.0458657369 1.7043308 -0.0991565436 -0.0382562913 1.70324826 -0.100818783 -0.036927931 1.70549691 -0.119054891 -0.0127332602 1.7156266 -0.134052143 -0.0103717363 1.71948838 -0.141110823 -0.0131531619 1.72031069 -0.141110823 -0.0131531619 1.72031069 -0.136100307 -0.0247685388 1.71633828 -0.104496248 -0.0315930843 1.70837331 -0.141110823 -0.0131531619 1.72031069 -0.104496248 -0.0315930843 1.70837331 -0.119054891 -0.0127332602 1.7156266 -0.119054891 -0.0127332602 1.7156266 -0.12266551 -0.00250561442 1.71863937 -0.134052143 -0.0103717363 1.71948838 -0.0710643232 0.00205649459 1.69707119 -0.0713203549 0.000322503591 1.70471561 -0.0697991326 -0.000554017723 1.70050597 -0.107554726 -0.0464364886 1.70265746 -0.0954923406 -0.0361806862 1.69982815 -0.0991565436 -0.0382562913 1.70324826 -0.119054891 -0.0127332602 1.7156266 -0.104496248 -0.0315930843 1.70837331 -0.114759021 -0.0169148445 1.71379495 -0.119054891 -0.0127332602 1.7156266 -0.11866691 -0.0106678503 1.71598911 -0.12266551 -0.00250561442 1.71863937 -0.112609938 -0.0175287165 1.71319175 -0.104496248 -0.0315930843 1.70837331 -0.0946733952 -0.0205303561 1.7086134 -0.11866691 -0.0106678503 1.71598911 -0.11303059 -0.00511421962 1.71574008 -0.12266551 -0.00250561442 1.71863937 -0.104496248 -0.0315930843 1.70837331 -0.112609938 -0.0175287165 1.71319175 -0.114759021 -0.0169148445 1.71379495 -0.0728544965 0.00356447068 1.70392573 -0.0713203549 0.000322503591 1.70471561 -0.0710643232 0.00205649459 1.69707119 -0.100818783 -0.036927931 1.70549691 -0.0991565436 -0.0382562913 1.70324826 -0.0925950855 -0.0289624035 1.70512128 -0.107554726 -0.0464364886 1.70265746 -0.106941044 -0.0469541177 1.69918561 -0.0954923406 -0.0361806862 1.69982815 -0.0954923406 -0.0361806862 1.69982815 -0.107307725 -0.047299277 1.69772947 -0.0961431116 -0.0370691158 1.69771254 -0.0944360718 -0.0340429172 1.70244193 -0.0954923406 -0.0361806862 1.69982815 -0.0879356042 -0.0277047344 1.70074987 -0.100818783 -0.036927931 1.70549691 -0.0925950855 -0.0289624035 1.70512128 -0.102518588 -0.0334819369 1.70741141 -0.141110823 -0.0131531619 1.72031069 -0.148245558 -0.0182101894 1.72042203 -0.136100307 -0.0247685388 1.71633828 -0.0954923406 -0.0361806862 1.69982815 -0.0961431116 -0.0370691158 1.69771254 -0.0898850486 -0.0304135066 1.69770277 -0.0944360718 -0.0340429172 1.70244193 -0.0879356042 -0.0277047344 1.70074987 -0.0882661566 -0.0264580939 1.70328748 -0.0925950855 -0.0289624035 1.70512128 -0.0991565436 -0.0382562913 1.70324826 -0.0882661566 -0.0264580939 1.70328748 -0.11303059 -0.00511421962 1.71574008 -0.116749205 0.00422672136 1.71853638 -0.12266551 -0.00250561442 1.71863937 -0.0991565436 -0.0382562913 1.70324826 -0.0954923406 -0.0361806862 1.69982815 -0.0944360718 -0.0340429172 1.70244193 -0.0946733952 -0.0205303561 1.7086134 -0.102518588 -0.0334819369 1.70741141 -0.0902871564 -0.0216675606 1.70701122 -0.112609938 -0.0175287165 1.71319175 -0.0946733952 -0.0205303561 1.7086134 -0.106120199 -0.011809743 1.71294391 -0.0954923406 -0.0361806862 1.69982815 -0.0898850486 -0.0304135066 1.69770277 -0.0879356042 -0.0277047344 1.70074987 -0.0991565436 -0.0382562913 1.70324826 -0.0944360718 -0.0340429172 1.70244193 -0.0882661566 -0.0264580939 1.70328748 -0.106941044 -0.0469541177 1.69918561 -0.107307725 -0.047299277 1.69772947 -0.0954923406 -0.0361806862 1.69982815 -0.136100307 -0.0247685388 1.71633828 -0.114516206 -0.0409263261 1.70817733 -0.104496248 -0.0315930843 1.70837331 -0.104496248 -0.0315930843 1.70837331 -0.114516206 -0.0409263261 1.70817733 -0.111296132 -0.0435803458 1.70667303 -0.102518588 -0.0334819369 1.70741141 -0.0925950855 -0.0289624035 1.70512128 -0.0902871564 -0.0216675606 1.70701122 -0.0713203549 0.000322503591 1.70471561 -0.0755134374 0.00482812803 1.70728791 -0.0770341307 0.00387157267 1.7081517 -0.0870059058 0.0144783063 1.71221054 -0.0884022042 0.0174098536 1.71119463 -0.0970499665 0.0266860239 1.71500301 -0.100818783 -0.036927931 1.70549691 -0.111296132 -0.0435803458 1.70667303 -0.108599953 -0.0458657369 1.7043308 -0.104496248 -0.0315930843 1.70837331 -0.102518588 -0.0334819369 1.70741141 -0.0946733952 -0.0205303561 1.7086134 -0.111296132 -0.0435803458 1.70667303 -0.100818783 -0.036927931 1.70549691 -0.102518588 -0.0334819369 1.70741141 -0.0898662955 -0.030399546 1.69710279 -0.0778041035 -0.0152812079 1.69768536 -0.0898850486 -0.0304135066 1.69770277 -0.0770341307 0.00387157267 1.7081517 -0.0755134374 0.00482812803 1.70728791 -0.0870059058 0.0144783063 1.71221054 -0.0898662955 -0.030399546 1.69710279 -0.0898850486 -0.0304135066 1.69770277 -0.0963369459 -0.0372674875 1.6971128 -0.0963369459 -0.0372674875 1.6971128 -0.0898850486 -0.0304135066 1.69770277 -0.0961431116 -0.0370691158 1.69771254 -0.0963369459 -0.0372674875 1.6971128 -0.0961431116 -0.0370691158 1.69771254 -0.107307725 -0.047299277 1.69772947 -0.0963369459 -0.0372674875 1.6971128 -0.107307725 -0.047299277 1.69772947 -0.107035145 -0.0471309982 1.69712889 -0.106120199 -0.011809743 1.71294391 -0.111198582 -0.0166815873 1.71116495 -0.112609938 -0.0175287165 1.71319175 -0.112609938 -0.0175287165 1.71319175 -0.111198582 -0.0166815873 1.71116495 -0.114230014 -0.0172583573 1.71172142 -0.112609938 -0.0175287165 1.71319175 -0.114230014 -0.0172583573 1.71172142 -0.114759021 -0.0169148445 1.71379495 -0.106120199 -0.011809743 1.71294391 -0.104641631 -0.00980838109 1.71095967 -0.111198582 -0.0166815873 1.71116495 -0.104880117 0.00341319712 1.71546876 -0.107638791 0.00242170063 1.71596515 -0.105867289 0.00360215013 1.71413445 -0.0999148712 -0.00100159657 1.71342456 -0.100191943 -0.0034300054 1.71123052 -0.106120199 -0.011809743 1.71294391 -0.107638791 0.00242170063 1.71596515 -0.11303059 -0.00511421962 1.71574008 -0.107513227 0.00300554838 1.71440482 -0.11866691 -0.0106678503 1.71598911 -0.118586086 -0.0101643903 1.71442723 -0.11303059 -0.00511421962 1.71574008 -0.105867289 0.00360215013 1.71413445 -0.107638791 0.00242170063 1.71596515 -0.107513227 0.00300554838 1.71440482 -0.101124071 0.000121856123 1.71236002 -0.0999148712 -0.00100159657 1.71342456 -0.105867289 0.00360215013 1.71413445 -0.0999148712 -0.00100159657 1.71342456 -0.104880117 0.00341319712 1.71546876 -0.105867289 0.00360215013 1.71413445 -0.0770341307 0.00387157267 1.7081517 -0.0870059058 0.0144783063 1.71221054 -0.104541421 0.0324548185 1.72008359 -0.104641631 -0.00980838109 1.71095967 -0.106120199 -0.011809743 1.71294391 -0.100191943 -0.0034300054 1.71123052 -0.100191943 -0.0034300054 1.71123052 -0.0999148712 -0.00100159657 1.71342456 -0.101124071 0.000121856123 1.71236002 -0.0771633014 0.00680311443 1.70292497 -0.0786658525 0.00679959543 1.70490527 -0.0805057809 0.00964138471 1.7070055 -0.0959775373 0.0236087982 1.71157384 -0.0981675237 0.0260442328 1.70978475 -0.0953411013 0.0230099428 1.7117157 -0.112215474 0.0475949384 1.70371807 -0.112474017 0.0466569103 1.71648085 -0.111099407 0.0470661931 1.71349716 -0.111099407 0.0470661931 1.71349716 -0.110551491 0.0468494594 1.70311618 -0.112215474 0.0475949384 1.70371807 -0.0981675237 0.0260442328 1.70978475 -0.0994653031 0.0275971889 1.69558072 -0.0989556611 0.0284206644 1.70310283 -0.0959775373 0.0236087982 1.71157384 -0.0921665281 0.0194057096 1.71168971 -0.0981675237 0.0260442328 1.70978475 -0.0768220201 0.00605277112 1.69767833 -0.076551877 0.00624342868 1.69707799 -0.0768492222 0.00607715873 1.69767821 -0.0751261786 0.00466347951 1.69767618 -0.0710643232 0.00205649459 1.69707119 -0.076551877 0.00624342868 1.69707799 -0.0751261786 0.00466347951 1.69767618 -0.076551877 0.00624342868 1.69707799 -0.0768220201 0.00605277112 1.69767833 -0.0778041035 -0.0152812079 1.69768536 -0.0898662955 -0.030399546 1.69710279 -0.0835279822 -0.0228894036 1.69709289 -0.0778041035 -0.0152812079 1.69768536 -0.0835279822 -0.0228894036 1.69709289 -0.0695436746 -0.00246627792 1.69706976 -0.0778041035 -0.0152812079 1.69768536 -0.0695436746 -0.00246627792 1.69706976 -0.069545269 -0.00244242116 1.6976701 -0.110551491 0.0468494594 1.70311618 -0.111099407 0.0470661931 1.71349716 -0.108819537 0.0444639847 1.71403277 -0.069545269 -0.00244242116 1.6976701 -0.0695436746 -0.00246627792 1.69706976 -0.0710643232 0.00205649459 1.69707119 -0.0710643232 0.00205649459 1.69707119 -0.0751261786 0.00466347951 1.69767618 -0.0768492222 0.00607715873 1.69767821 -0.111629166 -0.046487648 1.69713509 -0.116665281 -0.0414126888 1.69774103 -0.115041003 -0.0428079963 1.69773912 -0.109373108 0.0454629995 1.70371497 -0.110551491 0.0468494594 1.70311618 -0.108819537 0.0444639847 1.71403277 -0.0771092251 0.00546486629 1.69812095 -0.0786658525 0.00679959543 1.70490527 -0.0771633014 0.00680311443 1.70292497 -0.0771092251 0.00546486629 1.69812095 -0.0771633014 0.00680311443 1.70292497 -0.0768492222 0.00607715873 1.69767821 -0.0786658525 0.00679959543 1.70490527 -0.0806595981 0.00853477046 1.70695937 -0.0805057809 0.00964138471 1.7070055 -0.0771092251 0.00546486629 1.69812095 -0.0768492222 0.00607715873 1.69767821 -0.076551877 0.00624342868 1.69707799 -0.0921665281 0.0194057096 1.71168971 -0.0805057809 0.00964138471 1.7070055 -0.0806595981 0.00853477046 1.70695937 -0.0913254321 0.0198626444 1.71147823 -0.0805057809 0.00964138471 1.7070055 -0.0921665281 0.0194057096 1.71168971 -0.0981675237 0.0260442328 1.70978475 -0.0985528007 0.0280350577 1.70713735 -0.0965198725 0.0256020334 1.71094787 -0.0953411013 0.0230099428 1.7117157 -0.0981675237 0.0260442328 1.70978475 -0.0965198725 0.0256020334 1.71094787 -0.0981675237 0.0260442328 1.70978475 -0.0989556611 0.0284206644 1.70310283 -0.0985528007 0.0280350577 1.70713735 -0.0921665281 0.0194057096 1.71168971 -0.0953411013 0.0230099428 1.7117157 -0.0913254321 0.0198626444 1.71147823 -0.0913254321 0.0198626444 1.71147823 -0.0953411013 0.0230099428 1.7117157 -0.0965198725 0.0256020334 1.71094787 -0.110551491 0.0468494594 1.70311618 -0.109373108 0.0454629995 1.70371497 -0.102979444 0.0343071111 1.70370805 -0.0989556611 0.0284206644 1.70310283 -0.10494332 0.0376047902 1.70311034 -0.102979444 0.0343071111 1.70370805 -0.102979444 0.0343071111 1.70370805 -0.10494332 0.0376047902 1.70311034 -0.110551491 0.0468494594 1.70311618 -0.0710643232 0.00205649459 1.69707119 -0.0697991326 -0.000554017723 1.70050597 -0.069545269 -0.00244242116 1.6976701 -0.106704429 0.0392077938 1.71995223 -0.103599779 0.0355054848 1.71815825 -0.109616391 0.0448229536 1.71726668 -0.106704429 0.0392077938 1.71995223 -0.110528551 0.0430842564 1.72038186 -0.109090701 0.04019605 1.72113931 -0.106704429 0.0392077938 1.71995223 -0.109090701 0.04019605 1.72113931 -0.105773874 0.0355734341 1.72062194 -0.106704429 0.0392077938 1.71995223 -0.105773874 0.0355734341 1.72062194 -0.0989662185 0.0273095462 1.71733749 -0.109616391 0.0448229536 1.71726668 -0.111099407 0.0470661931 1.71349716 -0.112474017 0.0466569103 1.71648085 -0.109616391 0.0448229536 1.71726668 -0.112474017 0.0466569103 1.71648085 -0.110528551 0.0430842564 1.72038186 -0.109616391 0.0448229536 1.71726668 -0.110528551 0.0430842564 1.72038186 -0.106704429 0.0392077938 1.71995223 -0.110528551 0.0430842564 1.72038186 -0.112474017 0.0466569103 1.71648085 -0.111343548 0.0418493785 1.72072256 -0.111343548 0.0418493785 1.72072256 -0.109090701 0.04019605 1.72113931 -0.110528551 0.0430842564 1.72038186 -0.111099407 0.0470661931 1.71349716 -0.109616391 0.0448229536 1.71726668 -0.108819537 0.0444639847 1.71403277 -0.109616391 0.0448229536 1.71726668 -0.103599779 0.0355054848 1.71815825 -0.108819537 0.0444639847 1.71403277 -0.108819537 0.0444639847 1.71403277 -0.103599779 0.0355054848 1.71815825 -0.109373108 0.0454629995 1.70371497 -0.103599779 0.0355054848 1.71815825 -0.102979444 0.0343071111 1.70370805 -0.109373108 0.0454629995 1.70371497 -0.0710643232 0.00205649459 1.69707119 -0.0771633014 0.00680311443 1.70292497 -0.0728544965 0.00356447068 1.70392573 -0.0768492222 0.00607715873 1.69767821 -0.0771633014 0.00680311443 1.70292497 -0.0710643232 0.00205649459 1.69707119 -0.0771633014 0.00680311443 1.70292497 -0.0805057809 0.00964138471 1.7070055 -0.0728544965 0.00356447068 1.70392573 -0.0805057809 0.00964138471 1.7070055 -0.0884022042 0.0174098536 1.71119463 -0.0728544965 0.00356447068 1.70392573 -0.0884022042 0.0174098536 1.71119463 -0.0805057809 0.00964138471 1.7070055 -0.0913254321 0.0198626444 1.71147823 -0.103599779 0.0355054848 1.71815825 -0.0970499665 0.0266860239 1.71500301 -0.0985528007 0.0280350577 1.70713735 -0.0970499665 0.0266860239 1.71500301 -0.0965198725 0.0256020334 1.71094787 -0.0985528007 0.0280350577 1.70713735 -0.0913254321 0.0198626444 1.71147823 -0.0970499665 0.0266860239 1.71500301 -0.0884022042 0.0174098536 1.71119463 -0.102979444 0.0343071111 1.70370805 -0.103599779 0.0355054848 1.71815825 -0.0989556611 0.0284206644 1.70310283 -0.0989556611 0.0284206644 1.70310283 -0.103599779 0.0355054848 1.71815825 -0.0985528007 0.0280350577 1.70713735 -0.0970499665 0.0266860239 1.71500301 -0.0913254321 0.0198626444 1.71147823 -0.0965198725 0.0256020334 1.71094787 </float_array>
          <technique_common>
            <accessor count="1611" offset="0" source="#mesh_0-positions-array" stride="3">
              <param name="X" type="float" />
              <param name="Y" type="float" />
              <param name="Z" type="float" />
            </accessor>
          </technique_common>
        </source>
        <vertices id="mesh_0-vertices">
          <input semantic="POSITION" source="#mesh_0-positions" />
        </vertices>
        <polylist count="537" material="defaultMaterial">
          <input offset="0" semantic="VERTEX" source="#mesh_0-vertices" />
          <vcount>3 3 3 3 3 3 3 3 3 3 3 3 3 3 3 3 3 3 3 3 3 3 3 3 3 3 3 3 3 3 3 3 3 3 3 3 3 3 3 3 3 3 3 3 3 3 3 3 3 3 3 3 3 3 3 3 3 3 3 3 3 3 3 3 3 3 3 3 3 3 3 3 3 3 3 3 3 3 3 3 3 3 3 3 3 3 3 3 3 3 3 3 3 3 3 3 3 3 3 3 3 3 3 3 3 3 3 3 3 3 3 3 3 3 3 3 3 3 3 3 3 3 3 3 3 3 3 3 3 3 3 3 3 3 3 3 3 3 3 3 3 3 3 3 3 3 3 3 3 3 3 3 3 3 3 3 3 3 3 3 3 3 3 3 3 3 3 3 3 3 3 3 3 3 3 3 3 3 3 3 3 3 3 3 3 3 3 3 3 3 3 3 3 3 3 3 3 3 3 3 3 3 3 3 3 3 3 3 3 3 3 3 3 3 3 3 3 3 3 3 3 3 3 3 3 3 3 3 3 3 3 3 3 3 3 3 3 3 3 3 3 3 3 3 3 3 3 3 3 3 3 3 3 3 3 3 3 3 3 3 3 3 3 3 3 3 3 3 3 3 3 3 3 3 3 3 3 3 3 3 3 3 3 3 3 3 3 3 3 3 3 3 3 3 3 3 3 3 3 3 3 3 3 3 3 3 3 3 3 3 3 3 3 3 3 3 3 3 3 3 3 3 3 3 3 3 3 3 3 3 3 3 3 3 3 3 3 3 3 3 3 3 3 3 3 3 3 3 3 3 3 3 3 3 3 3 3 3 3 3 3 3 3 3 3 3 3 3 3 3 3 3 3 3 3 3 3 3 3 3 3 3 3 3 3 3 3 3 3 3 3 3 3 3 3 3 3 3 3 3 3 3 3 3 3 3 3 3 3 3 3 3 3 3 3 3 3 3 3 3 3 3 3 3 3 3 3 3 3 3 3 3 3 3 3 3 3 3 3 3 3 3 3 3 3 3 3 3 3 3 3 3 3 3 3 3 3 3 3 3 3 3 3 3 3 3 3 3 3 3 3 3 3 3 3 3 3 3 3 3 3 3 3 3 3 3 3 3 3 3 3 3 3 3 3 3 3 3 3 3 3 3 3 3 3 3 3 3 3 3 3 3 3 3 3 3 3 3 3 3 3 3 3 3 3 3 3 3 3 3 3 3 3 3 3 3 3 </vcount>
          <p>0 1 2 3 4 5 6 7 8 9 10 11 12 13 14 15 16 17 18 19 20 21 22 23 24 25 26 27 28 29 30 31 32 33 34 35 36 37 38 39 40 41 42 43 44 45 46 47 48 49 50 51 52 53 54 55 56 57 58 59 60 61 62 63 64 65 66 67 68 69 70 71 72 73 74 75 76 77 78 79 80 81 82 83 84 85 86 87 88 89 90 91 92 93 94 95 96 97 98 99 100 101 102 103 104 105 106 107 108 109 110 111 112 113 114 115 116 117 118 119 120 121 122 123 124 125 126 127 128 129 130 131 132 133 134 135 136 137 138 139 140 141 142 143 144 145 146 147 148 149 150 151 152 153 154 155 156 157 158 159 160 161 162 163 164 165 166 167 168 169 170 171 172 173 174 175 176 177 178 179 180 181 182 183 184 185 186 187 188 189 190 191 192 193 194 195 196 197 198 199 200 201 202 203 204 205 206 207 208 209 210 211 212 213 214 215 216 217 218 219 220 221 222 223 224 225 226 227 228 229 230 231 232 233 234 235 236 237 238 239 240 241 242 243 244 245 246 247 248 249 250 251 252 253 254 255 256 257 258 259 260 261 262 263 264 265 266 267 268 269 270 271 272 273 274 275 276 277 278 279 280 281 282 283 284 285 286 287 288 289 290 291 292 293 294 295 296 297 298 299 300 301 302 303 304 305 306 307 308 309 310 311 312 313 314 315 316 317 318 319 320 321 322 323 324 325 326 327 328 329 330 331 332 333 334 335 336 337 338 339 340 341 342 343 344 345 346 347 348 349 350 351 352 353 354 355 356 357 358 359 360 361 362 363 364 365 366 367 368 369 370 371 372 373 374 375 376 377 378 379 380 381 382 383 384 385 386 387 388 389 390 391 392 393 394 395 396 397 398 399 400 401 402 403 404 405 406 407 408 409 410 411 412 413 414 415 416 417 418 419 420 421 422 423 424 425 426 427 428 429 430 431 432 433 434 435 436 437 438 439 440 441 442 443 444 445 446 447 448 449 450 451 452 453 454 455 456 457 458 459 460 461 462 463 464 465 466 467 468 469 470 471 472 473 474 475 476 477 478 479 480 481 482 483 484 485 486 487 488 489 490 491 492 493 494 495 496 497 498 499 500 501 502 503 504 505 506 507 508 509 510 511 512 513 514 515 516 517 518 519 520 521 522 523 524 525 526 527 528 529 530 531 532 533 534 535 536 537 538 539 540 541 542 543 544 545 546 547 548 549 550 551 552 553 554 555 556 557 558 559 560 561 562 563 564 565 566 567 568 569 570 571 572 573 574 575 576 577 578 579 580 581 582 583 584 585 586 587 588 589 590 591 592 593 594 595 596 597 598 599 600 601 602 603 604 605 606 607 608 609 610 611 612 613 614 615 616 617 618 619 620 621 622 623 624 625 626 627 628 629 630 631 632 633 634 635 636 637 638 639 640 641 642 643 644 645 646 647 648 649 650 651 652 653 654 655 656 657 658 659 660 661 662 663 664 665 666 667 668 669 670 671 672 673 674 675 676 677 678 679 680 681 682 683 684 685 686 687 688 689 690 691 692 693 694 695 696 697 698 699 700 701 702 703 704 705 706 707 708 709 710 711 712 713 714 715 716 717 718 719 720 721 722 723 724 725 726 727 728 729 730 731 732 733 734 735 736 737 738 739 740 741 742 743 744 745 746 747 748 749 750 751 752 753 754 755 756 757 758 759 760 761 762 763 764 765 766 767 768 769 770 771 772 773 774 775 776 777 778 779 780 781 782 783 784 785 786 787 788 789 790 791 792 793 794 795 796 797 798 799 800 801 802 803 804 805 806 807 808 809 810 811 812 813 814 815 816 817 818 819 820 821 822 823 824 825 826 827 828 829 830 831 832 833 834 835 836 837 838 839 840 841 842 843 844 845 846 847 848 849 850 851 852 853 854 855 856 857 858 859 860 861 862 863 864 865 866 867 868 869 870 871 872 873 874 875 876 877 878 879 880 881 882 883 884 885 886 887 888 889 890 891 892 893 894 895 896 897 898 899 900 901 902 903 904 905 906 907 908 909 910 911 912 913 914 915 916 917 918 919 920 921 922 923 924 925 926 927 928 929 930 931 932 933 934 935 936 937 938 939 940 941 942 943 944 945 946 947 948 949 950 951 952 953 954 955 956 957 958 959 960 961 962 963 964 965 966 967 968 969 970 971 972 973 974 975 976 977 978 979 980 981 982 983 984 985 986 987 988 989 990 991 992 993 994 995 996 997 998 999 1000 1001 1002 1003 1004 1005 1006 1007 1008 1009 1010 1011 1012 1013 1014 1015 1016 1017 1018 1019 1020 1021 1022 1023 1024 1025 1026 1027 1028 1029 1030 1031 1032 1033 1034 1035 1036 1037 1038 1039 1040 1041 1042 1043 1044 1045 1046 1047 1048 1049 1050 1051 1052 1053 1054 1055 1056 1057 1058 1059 1060 1061 1062 1063 1064 1065 1066 1067 1068 1069 1070 1071 1072 1073 1074 1075 1076 1077 1078 1079 1080 1081 1082 1083 1084 1085 1086 1087 1088 1089 1090 1091 1092 1093 1094 1095 1096 1097 1098 1099 1100 1101 1102 1103 1104 1105 1106 1107 1108 1109 1110 1111 1112 1113 1114 1115 1116 1117 1118 1119 1120 1121 1122 1123 1124 1125 1126 1127 1128 1129 1130 1131 1132 1133 1134 1135 1136 1137 1138 1139 1140 1141 1142 1143 1144 1145 1146 1147 1148 1149 1150 1151 1152 1153 1154 1155 1156 1157 1158 1159 1160 1161 1162 1163 1164 1165 1166 1167 1168 1169 1170 1171 1172 1173 1174 1175 1176 1177 1178 1179 1180 1181 1182 1183 1184 1185 1186 1187 1188 1189 1190 1191 1192 1193 1194 1195 1196 1197 1198 1199 1200 1201 1202 1203 1204 1205 1206 1207 1208 1209 1210 1211 1212 1213 1214 1215 1216 1217 1218 1219 1220 1221 1222 1223 1224 1225 1226 1227 1228 1229 1230 1231 1232 1233 1234 1235 1236 1237 1238 1239 1240 1241 1242 1243 1244 1245 1246 1247 1248 1249 1250 1251 1252 1253 1254 1255 1256 1257 1258 1259 1260 1261 1262 1263 1264 1265 1266 1267 1268 1269 1270 1271 1272 1273 1274 1275 1276 1277 1278 1279 1280 1281 1282 1283 1284 1285 1286 1287 1288 1289 1290 1291 1292 1293 1294 1295 1296 1297 1298 1299 1300 1301 1302 1303 1304 1305 1306 1307 1308 1309 1310 1311 1312 1313 1314 1315 1316 1317 1318 1319 1320 1321 1322 1323 1324 1325 1326 1327 1328 1329 1330 1331 1332 1333 1334 1335 1336 1337 1338 1339 1340 1341 1342 1343 1344 1345 1346 1347 1348 1349 1350 1351 1352 1353 1354 1355 1356 1357 1358 1359 1360 1361 1362 1363 1364 1365 1366 1367 1368 1369 1370 1371 1372 1373 1374 1375 1376 1377 1378 1379 1380 1381 1382 1383 1384 1385 1386 1387 1388 1389 1390 1391 1392 1393 1394 1395 1396 1397 1398 1399 1400 1401 1402 1403 1404 1405 1406 1407 1408 1409 1410 1411 1412 1413 1414 1415 1416 1417 1418 1419 1420 1421 1422 1423 1424 1425 1426 1427 1428 1429 1430 1431 1432 1433 1434 1435 1436 1437 1438 1439 1440 1441 1442 1443 1444 1445 1446 1447 1448 1449 1450 1451 1452 1453 1454 1455 1456 1457 1458 1459 1460 1461 1462 1463 1464 1465 1466 1467 1468 1469 1470 1471 1472 1473 1474 1475 1476 1477 1478 1479 1480 1481 1482 1483 1484 1485 1486 1487 1488 1489 1490 1491 1492 1493 1494 1495 1496 1497 1498 1499 1500 1501 1502 1503 1504 1505 1506 1507 1508 1509 1510 1511 1512 1513 1514 1515 1516 1517 1518 1519 1520 1521 1522 1523 1524 1525 1526 1527 1528 1529 1530 1531 1532 1533 1534 1535 1536 1537 1538 1539 1540 1541 1542 1543 1544 1545 1546 1547 1548 1549 1550 1551 1552 1553 1554 1555 1556 1557 1558 1559 1560 1561 1562 1563 1564 1565 1566 1567 1568 1569 1570 1571 1572 1573 1574 1575 1576 1577 1578 1579 1580 1581 1582 1583 1584 1585 1586 1587 1588 1589 1590 1591 1592 1593 1594 1595 1596 1597 1598 1599 1600 1601 1602 1603 1604 1605 1606 1607 1608 1609 1610 </p>
        </polylist>
      </mesh>
    </geometry>
  </library_geometries>
  <library_controllers>
  </library_controllers>
  <library_visual_scenes>
    <visual_scene id="Scene" name="Scene">
      <node id="node" name="" type="NODE">
        <matrix sid="matrix">1 0 0 0 0 1 0 0 0 0 1 0 0 0 0 1</matrix>
        <instance_geometry url="#mesh_0">
          <bind_material>
            <technique_common>
              <instance_material symbol="defaultMaterial" target="#material_0">
              </instance_material>
            </technique_common>
          </bind_material>
        </instance_geometry>
      </node>
    </visual_scene>
  </library_visual_scenes>
  <scene>
    <instance_visual_scene url="#Scene" />
  </scene>
</COLLADA>
