<?xml version="1.0" encoding="UTF-8" standalone="no" ?>
<COLLADA xmlns="http://www.collada.org/2005/11/COLLADASchema" version="1.4.1">
  <asset>
    <contributor>
      <author>Assimp</author>
      <authoring_tool>Assimp Exporter</authoring_tool>
    </contributor>
    <created>2026-04-22T16:09:43</created>
    <modified>2026-04-22T16:09:43</modified>
    <unit name="meter" meter="1" />
    <up_axis>Y_UP</up_axis>
  </asset>
  <library_images>
  </library_images>
  <library_effects>
    <effect id="material_0-fx" name="">
      <profile_COMMON>
        <technique sid="standard">
          <phong>
            <emission>
              <color sid="emission">0   0   0   -1.87499988</color>
            </emission>
            <ambient>
              <color sid="ambient">0.400000006   0.400000006   0.400000006   -1.40108883</color>
            </ambient>
            <diffuse>
              <color sid="diffuse">0.400000006   0.400000006   0.400000006   -1.40108883</color>
            </diffuse>
            <specular>
              <color sid="specular">0.25   0.25   0.25   0.264730781</color>
            </specular>
          </phong>
        </technique>
      </profile_COMMON>
    </effect>
  </library_effects>
  <library_materials>
    <material id="material_0" name="">
      <instance_effect url="#material_0-fx"/>
    </material>
  </library_materials>
  <library_geometries>
    <geometry id="mesh_0" name="" >
      <mesh>
        <source id="mesh_0-positions" name="mesh_0-positions">
          <float_array id="mesh_0-positions-array" count="360"> 0.653160989 -0.208324715 1.71477842 0.657914579 -0.210971266 1.71730101 0.658435225 -0.200529218 1.71529377 0.653221309 -0.20559065 1.71453321 0.653160989 -0.208324715 1.71477842 0.658435225 -0.200529218 1.71529377 0.670517147 -0.198530778 1.71733737 0.66487807 -0.194210231 1.71503675 0.658435225 -0.200529218 1.71529377 0.670517147 -0.198530778 1.71733737 0.658435225 -0.200529218 1.71529377 0.657914579 -0.210971266 1.71730101 0.660764694 -0.213328451 1.71413743 0.673763573 -0.199443474 1.71398115 0.672456503 -0.200273737 1.71457493 0.66487807 -0.194210231 1.71503675 0.670517147 -0.198530778 1.71733737 0.671360195 -0.197399363 1.71636367 0.671360195 -0.197399363 1.71636367 0.670517147 -0.198530778 1.71733737 0.671438515 -0.19916977 1.71675861 0.657804191 -0.212334111 1.71644521 0.671438515 -0.19916977 1.71675861 0.670517147 -0.198530778 1.71733737 0.657804191 -0.212334111 1.71644521 0.670517147 -0.198530778 1.71733737 0.657914579 -0.210971266 1.71730101 0.657914579 -0.210971266 1.71730101 0.653160989 -0.208324715 1.71477842 0.657804191 -0.212334111 1.71644521 0.666226327 -0.193277091 1.71438348 0.660386801 -0.198499277 1.71162474 0.66487807 -0.194210231 1.71503675 0.66487807 -0.194210231 1.71503675 0.660386801 -0.198499277 1.71162474 0.658435225 -0.200529218 1.71529377 0.658435225 -0.200529218 1.71529377 0.660386801 -0.198499277 1.71162474 0.653221309 -0.20559065 1.71453321 0.66487807 -0.194210231 1.71503675 0.671360195 -0.197399363 1.71636367 0.666226327 -0.193277091 1.71438348 0.660764694 -0.213328451 1.71413743 0.672456503 -0.200273737 1.71457493 0.659561634 -0.212206408 1.71437407 0.673139453 -0.196994901 1.71320987 0.66675365 -0.192437053 1.71094072 0.673763573 -0.199443474 1.71398115 0.66675365 -0.192437053 1.71094072 0.671360195 -0.197399363 1.71636367 0.673763573 -0.199443474 1.71398115 0.671438515 -0.19916977 1.71675861 0.672456503 -0.200273737 1.71457493 0.671360195 -0.197399363 1.71636367 0.671360195 -0.197399363 1.71636367 0.672456503 -0.200273737 1.71457493 0.673763573 -0.199443474 1.71398115 0.657877505 -0.214369401 1.71379113 0.657394707 -0.212636814 1.71400189 0.651835918 -0.207797706 1.71115506 0.657804191 -0.212334111 1.71644521 0.659561634 -0.212206408 1.71437407 0.666317225 -0.204623789 1.71420193 0.657804191 -0.212334111 1.71644521 0.666317225 -0.204623789 1.71420193 0.671438515 -0.19916977 1.71675861 0.657394707 -0.212636814 1.71400189 0.657877505 -0.214369401 1.71379113 0.659561634 -0.212206408 1.71437407 0.671438515 -0.19916977 1.71675861 0.666317225 -0.204623789 1.71420193 0.672456503 -0.200273737 1.71457493 0.653160989 -0.208324715 1.71477842 0.657394707 -0.212636814 1.71400189 0.657804191 -0.212334111 1.71644521 0.657804191 -0.212334111 1.71644521 0.657394707 -0.212636814 1.71400189 0.659561634 -0.212206408 1.71437407 0.653160989 -0.208324715 1.71477842 0.653628767 -0.2088999 1.71239805 0.657394707 -0.212636814 1.71400189 0.653221309 -0.20559065 1.71453321 0.651835918 -0.207797706 1.71115506 0.653628767 -0.2088999 1.71239805 0.653221309 -0.20559065 1.71453321 0.653628767 -0.2088999 1.71239805 0.653160989 -0.208324715 1.71477842 0.659561634 -0.212206408 1.71437407 0.657877505 -0.214369401 1.71379113 0.660764694 -0.213328451 1.71413743 0.666226327 -0.193277091 1.71438348 0.665596485 -0.194126531 1.71180665 0.660386801 -0.198499277 1.71162474 0.653221309 -0.20559065 1.71453321 0.660386801 -0.198499277 1.71162474 0.651835918 -0.207797706 1.71115506 0.666226327 -0.193277091 1.71438348 0.66675365 -0.192437053 1.71094072 0.665596485 -0.194126531 1.71180665 0.671360195 -0.197399363 1.71636367 0.66675365 -0.192437053 1.71094072 0.666226327 -0.193277091 1.71438348 0.651835918 -0.207797706 1.71115506 0.657394707 -0.212636814 1.71400189 0.653628767 -0.2088999 1.71239805 0.651835918 -0.207797706 1.71115506 0.660386801 -0.198499277 1.71162474 0.653737664 -0.204002023 1.71077979 0.653737664 -0.204002023 1.71077979 0.660386801 -0.198499277 1.71162474 0.663402617 -0.194337532 1.71078622 0.659561634 -0.212206408 1.71437407 0.672456503 -0.200273737 1.71457493 0.666317225 -0.204623789 1.71420193 0.660386801 -0.198499277 1.71162474 0.665596485 -0.194126531 1.71180665 0.663402617 -0.194337532 1.71078622 0.663402617 -0.194337532 1.71078622 0.665596485 -0.194126531 1.71180665 0.66675365 -0.192437053 1.71094072 </float_array>
          <technique_common>
            <accessor count="120" offset="0" source="#mesh_0-positions-array" stride="3">
              <param name="X" type="float" />
              <param name="Y" type="float" />
              <param name="Z" type="float" />
            </accessor>
          </technique_common>
        </source>
        <vertices id="mesh_0-vertices">
          <input semantic="POSITION" source="#mesh_0-positions" />
        </vertices>
        <polylist count="40" material="defaultMaterial">
          <input offset="0" semantic="VERTEX" source="#mesh_0-vertices" />
          <vcount>3 3 3 3 3 3 3 3 3 3 3 3 3 3 3 3 3 3 3 3 3 3 3 3 3 3 3 3 3 3 3 3 3 3 3 3 3 3 3 3 </vcount>
          <p>0 1 2 3 4 5 6 7 8 9 10 11 12 13 14 15 16 17 18 19 20 21 22 23 24 25 26 27 28 29 30 31 32 33 34 35 36 37 38 39 40 41 42 43 44 45 46 47 48 49 50 51 52 53 54 55 56 57 58 59 60 61 62 63 64 65 66 67 68 69 70 71 72 73 74 75 76 77 78 79 80 81 82 83 84 85 86 87 88 89 90 91 92 93 94 95 96 97 98 99 100 101 102 103 104 105 106 107 108 109 110 111 112 113 114 115 116 117 118 119 </p>
        </polylist>
      </mesh>
    </geometry>
  </library_geometries>
  <library_controllers>
  </library_controllers>
  <library_visual_scenes>
    <visual_scene id="Scene" name="Scene">
      <node id="node" name="" type="NODE">
        <matrix sid="matrix">1 0 0 0 0 1 0 0 0 0 1 0 0 0 0 1</matrix>
        <instance_geometry url="#mesh_0">
          <bind_material>
            <technique_common>
              <instance_material symbol="defaultMaterial" target="#material_0">
              </instance_material>
            </technique_common>
          </bind_material>
        </instance_geometry>
      </node>
    </visual_scene>
  </library_visual_scenes>
  <scene>
    <instance_visual_scene url="#Scene" />
  </scene>
</COLLADA>
