<?xml version="1.0" encoding="UTF-8" standalone="no" ?>
<COLLADA xmlns="http://www.collada.org/2005/11/COLLADASchema" version="1.4.1">
  <asset>
    <contributor>
      <author>Assimp</author>
      <authoring_tool>Assimp Exporter</authoring_tool>
    </contributor>
    <created>2026-04-22T16:09:44</created>
    <modified>2026-04-22T16:09:44</modified>
    <unit name="meter" meter="1" />
    <up_axis>Y_UP</up_axis>
  </asset>
  <library_images>
  </library_images>
  <library_effects>
    <effect id="material_0-fx" name="">
      <profile_COMMON>
        <technique sid="standard">
          <phong>
            <emission>
              <color sid="emission">0   0   0   1.80177653</color>
            </emission>
            <ambient>
              <color sid="ambient">0.699999988   0.699999988   0.699999988   1.40257168</color>
            </ambient>
            <diffuse>
              <color sid="diffuse">0.699999988   0.699999988   0.699999988   1.40257168</color>
            </diffuse>
            <specular>
              <color sid="specular">0.300000012   0.300000012   0.300000012   -0.531376243</color>
            </specular>
          </phong>
        </technique>
      </profile_COMMON>
    </effect>
  </library_effects>
  <library_materials>
    <material id="material_0" name="">
      <instance_effect url="#material_0-fx"/>
    </material>
  </library_materials>
  <library_geometries>
    <geometry id="mesh_0" name="" >
      <mesh>
        <source id="mesh_0-positions" name="mesh_0-positions">
          <float_array id="mesh_0-positions-array" count="378"> 0.644342065 -0.206489414 1.66636741 0.642831683 -0.204968572 1.65098667 0.739646196 -0.301786274 1.65104365 0.664406657 -0.183394417 1.65100241 0.665916264 -0.184916019 1.66638315 0.761220813 -0.280212462 1.65105939 0.642221749 -0.204358488 1.65119267 0.642831683 -0.204968572 1.65098667 0.640350342 -0.202489808 1.65529037 0.739646196 -0.301786274 1.65104365 0.740469456 -0.302609682 1.65134621 0.741290569 -0.303431362 1.65215874 0.741290569 -0.303431362 1.65215874 0.74185586 -0.303997368 1.65324855 0.74212575 -0.304268748 1.65479338 0.74212575 -0.304268748 1.65479338 0.742042363 -0.304186136 1.65589714 0.741290569 -0.303431362 1.65215874 0.741260171 -0.303406775 1.65986431 0.740234256 -0.302384257 1.66427565 0.738168061 -0.30031836 1.66641009 0.739643574 -0.301793903 1.66537189 0.739017367 -0.301168174 1.66599321 0.740234256 -0.302384257 1.66427565 0.738168061 -0.30031836 1.66641009 0.644342065 -0.206489414 1.66636741 0.739646196 -0.301786274 1.65104365 0.643464684 -0.205610767 1.66596496 0.642705083 -0.204851419 1.66518271 0.642167389 -0.204311818 1.66403806 0.642167389 -0.204311818 1.66403806 0.644342065 -0.206489414 1.66636741 0.643464684 -0.205610767 1.66596496 0.640350342 -0.202489808 1.65529037 0.64040041 -0.202539161 1.65419304 0.642221749 -0.204358488 1.65119267 0.640641451 -0.202779472 1.65313578 0.64111948 -0.20325689 1.65220308 0.64040041 -0.202539161 1.65419304 0.641626775 -0.203763783 1.65160012 0.642221749 -0.204358488 1.65119267 0.64111948 -0.20325689 1.65220308 0.739646196 -0.301786274 1.65104365 0.741290569 -0.303431362 1.65215874 0.742042363 -0.304186136 1.65589714 0.742042363 -0.304186136 1.65589714 0.741260171 -0.303406775 1.65986431 0.739646196 -0.301786274 1.65104365 0.739017367 -0.301168174 1.66599321 0.738168061 -0.30031836 1.66641009 0.740234256 -0.302384257 1.66427565 0.642167389 -0.204311818 1.66403806 0.641075373 -0.203216121 1.65921938 0.644342065 -0.206489414 1.66636741 0.64040041 -0.202539161 1.65419304 0.64111948 -0.20325689 1.65220308 0.642221749 -0.204358488 1.65119267 0.642831683 -0.204968572 1.65098667 0.644342065 -0.206489414 1.66636741 0.641075373 -0.203216121 1.65921938 0.741260171 -0.303406775 1.65986431 0.738168061 -0.30031836 1.66641009 0.739646196 -0.301786274 1.65104365 0.641075373 -0.203216121 1.65921938 0.640350342 -0.202489808 1.65529037 0.642831683 -0.204968572 1.65098667 0.760591865 -0.279594451 1.66600883 0.761218011 -0.28022024 1.66538763 0.761809111 -0.280810177 1.66429138 0.761809111 -0.280810177 1.66429138 0.762834847 -0.281832874 1.65988004 0.759741783 -0.278745472 1.6664257 0.763617039 -0.282612234 1.65591288 0.763700485 -0.282694876 1.654809 0.762865007 -0.281857699 1.65217447 0.763430178 -0.282423794 1.65326416 0.762865007 -0.281857699 1.65217447 0.763700485 -0.282694876 1.654809 0.762043953 -0.28103596 1.65136182 0.761220813 -0.280212462 1.65105939 0.762865007 -0.281857699 1.65217447 0.664406657 -0.183394417 1.65100241 0.663796425 -0.182784587 1.6512084 0.661975026 -0.180965349 1.65420866 0.663201451 -0.182189882 1.65161574 0.662694156 -0.181682989 1.65221882 0.663796425 -0.182784587 1.6512084 0.662216067 -0.18120566 1.65315139 0.661975026 -0.180965349 1.65420866 0.662694156 -0.181682989 1.65221882 0.661924839 -0.180916086 1.6553061 0.664406657 -0.183394417 1.65100241 0.661975026 -0.180965349 1.65420866 0.663740456 -0.182739526 1.66405368 0.664279163 -0.183278114 1.66519833 0.66503793 -0.184038311 1.6659807 0.66503793 -0.184038311 1.6659807 0.665916264 -0.184916019 1.66638315 0.663740456 -0.182739526 1.66405368 0.759741783 -0.278745472 1.6664257 0.760591865 -0.279594451 1.66600883 0.761809111 -0.280810177 1.66429138 0.762834847 -0.281832874 1.65988004 0.763617039 -0.282612234 1.65591288 0.761220813 -0.280212462 1.65105939 0.762865007 -0.281857699 1.65217447 0.761220813 -0.280212462 1.65105939 0.763617039 -0.282612234 1.65591288 0.663796425 -0.182784587 1.6512084 0.662694156 -0.181682989 1.65221882 0.661975026 -0.180965349 1.65420866 0.661924839 -0.180916086 1.6553061 0.662648261 -0.181643993 1.65923512 0.664406657 -0.183394417 1.65100241 0.663740456 -0.182739526 1.66405368 0.665916264 -0.184916019 1.66638315 0.662648261 -0.181643993 1.65923512 0.759741783 -0.278745472 1.6664257 0.762834847 -0.281832874 1.65988004 0.761220813 -0.280212462 1.65105939 0.761220813 -0.280212462 1.65105939 0.665916264 -0.184916019 1.66638315 0.759741783 -0.278745472 1.6664257 0.662648261 -0.181643993 1.65923512 0.665916264 -0.184916019 1.66638315 0.664406657 -0.183394417 1.65100241 </float_array>
          <technique_common>
            <accessor count="126" offset="0" source="#mesh_0-positions-array" stride="3">
              <param name="X" type="float" />
              <param name="Y" type="float" />
              <param name="Z" type="float" />
            </accessor>
          </technique_common>
        </source>
        <vertices id="mesh_0-vertices">
          <input semantic="POSITION" source="#mesh_0-positions" />
        </vertices>
        <polylist count="42" material="defaultMaterial">
          <input offset="0" semantic="VERTEX" source="#mesh_0-vertices" />
          <vcount>3 3 3 3 3 3 3 3 3 3 3 3 3 3 3 3 3 3 3 3 3 3 3 3 3 3 3 3 3 3 3 3 3 3 3 3 3 3 3 3 3 3 </vcount>
          <p>0 1 2 3 4 5 6 7 8 9 10 11 12 13 14 15 16 17 18 19 20 21 22 23 24 25 26 27 28 29 30 31 32 33 34 35 36 37 38 39 40 41 42 43 44 45 46 47 48 49 50 51 52 53 54 55 56 57 58 59 60 61 62 63 64 65 66 67 68 69 70 71 72 73 74 75 76 77 78 79 80 81 82 83 84 85 86 87 88 89 90 91 92 93 94 95 96 97 98 99 100 101 102 103 104 105 106 107 108 109 110 111 112 113 114 115 116 117 118 119 120 121 122 123 124 125 </p>
        </polylist>
      </mesh>
    </geometry>
  </library_geometries>
  <library_controllers>
  </library_controllers>
  <library_visual_scenes>
    <visual_scene id="Scene" name="Scene">
      <node id="node" name="" type="NODE">
        <matrix sid="matrix">1 0 0 0 0 1 0 0 0 0 1 0 0 0 0 1</matrix>
        <instance_geometry url="#mesh_0">
          <bind_material>
            <technique_common>
              <instance_material symbol="defaultMaterial" target="#material_0">
              </instance_material>
            </technique_common>
          </bind_material>
        </instance_geometry>
      </node>
    </visual_scene>
  </library_visual_scenes>
  <scene>
    <instance_visual_scene url="#Scene" />
  </scene>
</COLLADA>
