<?xml version="1.0" encoding="UTF-8" standalone="no" ?>
<COLLADA xmlns="http://www.collada.org/2005/11/COLLADASchema" version="1.4.1">
  <asset>
    <contributor>
      <author>Assimp</author>
      <authoring_tool>Assimp Exporter</authoring_tool>
    </contributor>
    <created>2026-04-22T16:09:44</created>
    <modified>2026-04-22T16:09:44</modified>
    <unit name="meter" meter="1" />
    <up_axis>Y_UP</up_axis>
  </asset>
  <library_images>
  </library_images>
  <library_effects>
    <effect id="material_0-fx" name="">
      <profile_COMMON>
        <technique sid="standard">
          <phong>
            <emission>
              <color sid="emission">0   0   0   -1.80123341</color>
            </emission>
            <ambient>
              <color sid="ambient">0.781865597   0.734727263   0.984154046   1.16160011</color>
            </ambient>
            <diffuse>
              <color sid="diffuse">0.781865597   0.734727263   0.984154046   1.16160011</color>
            </diffuse>
            <specular>
              <color sid="specular">0.25   0.25   0.25   -1.80123341</color>
            </specular>
          </phong>
        </technique>
      </profile_COMMON>
    </effect>
  </library_effects>
  <library_materials>
    <material id="material_0" name="">
      <instance_effect url="#material_0-fx"/>
    </material>
  </library_materials>
  <library_geometries>
    <geometry id="mesh_0" name="" >
      <mesh>
        <source id="mesh_0-positions" name="mesh_0-positions">
          <float_array id="mesh_0-positions-array" count="1800"> -0.283352822 -0.0096059246 1.76582563 -0.290463507 0.0330619924 1.77908981 -0.286414862 0.0334135517 1.7624898 -0.163120732 0.0735528693 1.7306931 -0.253533095 0.0358247161 1.7350986 -0.267583191 0.0350596868 1.74098206 -0.285431117 -0.00941147748 1.79015291 -0.289385647 0.033243876 1.79298425 -0.290463507 0.0330619924 1.77908981 -0.290463507 0.0330619924 1.77908981 -0.163120732 0.0735528693 1.7306931 -0.286414862 0.0334135517 1.7624898 -0.289385647 0.033243876 1.79298425 -0.163120732 0.0735528693 1.7306931 -0.290463507 0.0330619924 1.77908981 -0.162090868 0.0730606541 1.80247235 -0.163120732 0.0735528693 1.7306931 -0.289385647 0.033243876 1.79298425 -0.253080398 -0.0105461562 1.73930442 -0.18602398 -0.00447967602 1.73093343 -0.153875634 -0.0139930435 1.730865 -0.285540134 -0.0110882781 1.78084517 -0.290463507 0.0330619924 1.77908981 -0.283352822 -0.0096059246 1.76582563 -0.163120732 0.0735528693 1.7306931 -0.267583191 0.0350596868 1.74098206 -0.277671248 0.0342459045 1.74908578 -0.163120732 0.0735528693 1.7306931 -0.277671248 0.0342459045 1.74908578 -0.286414862 0.0334135517 1.7624898 -0.1961945 -0.029233532 1.80097175 -0.138644293 -0.0078988513 1.83065021 -0.148367673 -0.00557878101 1.8535955 -0.141799644 -0.0122153051 1.73084295 -0.193289727 -0.0285693351 1.76431632 -0.22097148 -0.032185372 1.7581383 -0.124754317 -0.00275878701 1.80140913 -0.134275258 -0.00927705225 1.79471457 -0.126411051 -0.00472249696 1.73084557 -0.253533095 0.0358247161 1.7350986 -0.259607613 -0.000334598764 1.73910999 -0.267583191 0.0350596868 1.74098206 -0.277671248 0.0342459045 1.74908578 -0.267583191 0.0350596868 1.74098206 -0.268745661 -0.00900119264 1.7462728 -0.289385647 0.033243876 1.79298425 -0.281744123 -0.00894011464 1.80244339 -0.282816201 0.0337368995 1.80857456 -0.285431117 -0.00941147748 1.79015291 -0.290463507 0.0330619924 1.77908981 -0.285540134 -0.0110882781 1.78084517 -0.163120732 0.0735528693 1.7306931 -0.14879255 0.0740636885 1.79635656 -0.148419231 0.0739943758 1.73086226 -0.248656139 0.000156014095 1.73561704 -0.253533095 0.0358247161 1.7350986 -0.18602398 -0.00447967602 1.73093343 -0.277671248 0.0342459045 1.74908578 -0.276381016 -0.00910282694 1.75391829 -0.286414862 0.0334135517 1.7624898 -0.115677044 0.00799583923 1.73083103 -0.117838249 0.00459210621 1.80047953 -0.126411051 -0.00472249696 1.73084557 -0.13397871 0.0434085652 1.85613191 -0.161177471 0.00519274827 1.86159742 -0.139518023 0.00725218747 1.85731089 -0.12291687 0.0240406729 1.85044074 -0.115511663 0.0338136591 1.84044397 -0.122077473 0.0398987532 1.84832966 -0.182944715 0.0432709679 1.86232626 -0.183674559 0.027248757 1.86339319 -0.174990505 0.035833288 1.86378336 -0.13397871 0.0434085652 1.85613191 -0.166277051 0.0527250394 1.86169696 -0.161177471 0.00519274827 1.86159742 -0.153875634 -0.0139930435 1.730865 -0.141799644 -0.0122153051 1.73084295 -0.22097148 -0.032185372 1.7581383 -0.141799644 -0.0122153051 1.73084295 -0.153875634 -0.0139930435 1.730865 -0.126411051 -0.00472249696 1.73084557 -0.115677044 0.00799583923 1.73083103 -0.126411051 -0.00472249696 1.73084557 -0.153875634 -0.0139930435 1.730865 -0.115677044 0.00799583923 1.73083103 -0.153875634 -0.0139930435 1.730865 -0.111212179 0.0182518177 1.73082459 -0.269528568 -0.0158388447 1.8112675 -0.251804143 -0.0312129855 1.80229414 -0.255773067 -0.0194095019 1.81692636 -0.253080398 -0.0105461562 1.73930442 -0.248656139 0.000156014095 1.73561704 -0.18602398 -0.00447967602 1.73093343 -0.141799644 -0.0122153051 1.73084295 -0.126411051 -0.00472249696 1.73084557 -0.134275258 -0.00927705225 1.79471457 -0.112800054 0.0144195063 1.79998851 -0.115677044 0.00799583923 1.73083103 -0.111212179 0.0182518177 1.73082459 -0.241684675 -0.0320989825 1.8062619 -0.244034246 -0.0320342705 1.75847757 -0.22097148 -0.032185372 1.7581383 -0.248656139 0.000156014095 1.73561704 -0.259607613 -0.000334598764 1.73910999 -0.253533095 0.0358247161 1.7350986 -0.259607613 -0.000334598764 1.73910999 -0.248656139 0.000156014095 1.73561704 -0.253080398 -0.0105461562 1.73930442 -0.190732449 0.058161106 1.73093307 -0.18602398 -0.00447967602 1.73093343 -0.253533095 0.0358247161 1.7350986 -0.190732449 0.058161106 1.73093307 -0.253533095 0.0358247161 1.7350986 -0.163120732 0.0735528693 1.7306931 -0.159118146 0.0708159134 1.83157396 -0.162090868 0.0730606541 1.80247235 -0.282816201 0.0337368995 1.80857456 -0.289385647 0.033243876 1.79298425 -0.282816201 0.0337368995 1.80857456 -0.162090868 0.0730606541 1.80247235 -0.162354887 0.0658166409 1.85475349 -0.282816201 0.0337368995 1.80857456 -0.27139473 0.0346447751 1.82117343 -0.136062041 0.0707629398 1.73084795 -0.127526239 0.0655315742 1.80268109 -0.121966399 0.0609734133 1.7308296 -0.163120732 0.0735528693 1.7306931 -0.162090868 0.0730606541 1.80247235 -0.14879255 0.0740636885 1.79635656 -0.139518023 0.00725218747 1.85731089 -0.128923103 0.0167296715 1.85434139 -0.13397871 0.0434085652 1.85613191 -0.183674559 0.027248757 1.86339319 -0.174677998 0.0150057338 1.86343837 -0.174990505 0.035833288 1.86378336 -0.129232973 0.0484496839 1.85247457 -0.134072855 0.0592521615 1.85013807 -0.143617824 0.0551018901 1.85728669 -0.159118146 0.0708159134 1.83157396 -0.162354887 0.0658166409 1.85475349 -0.149348438 0.0664158985 1.85240185 -0.166277051 0.0527250394 1.86169696 -0.174990505 0.035833288 1.86378336 -0.161177471 0.00519274827 1.86159742 -0.161177471 0.00519274827 1.86159742 -0.174990505 0.035833288 1.86378336 -0.174677998 0.0150057338 1.86343837 -0.22097148 -0.032185372 1.7581383 -0.1961945 -0.029233532 1.80097175 -0.221426874 -0.0321211144 1.80625761 -0.193289727 -0.0285693351 1.76431632 -0.1961945 -0.029233532 1.80097175 -0.22097148 -0.032185372 1.7581383 -0.138644293 -0.0078988513 1.83065021 -0.136269033 -0.0021748282 1.85014534 -0.148367673 -0.00557878101 1.8535955 -0.164262086 -0.00474551274 1.85686171 -0.221426874 -0.0321211144 1.80625761 -0.148367673 -0.00557878101 1.8535955 -0.136062041 0.0707629398 1.73084795 -0.113287777 0.0481367931 1.73082042 -0.148419231 0.0739943758 1.73086226 -0.111212179 0.0182518177 1.73082459 -0.113287777 0.0481367931 1.73082042 -0.109596387 0.0327279568 1.73081768 -0.153875634 -0.0139930435 1.730865 -0.113287777 0.0481367931 1.73082042 -0.111212179 0.0182518177 1.73082459 -0.113287777 0.0481367931 1.73082042 -0.163120732 0.0735528693 1.7306931 -0.148419231 0.0739943758 1.73086226 -0.177049607 0.00401404407 1.85992396 -0.161177471 0.00519274827 1.86159742 -0.174677998 0.0150057338 1.86343837 -0.277686983 -0.0181730185 1.77155817 -0.273404866 -0.0225266796 1.78790784 -0.285540134 -0.0110882781 1.78084517 -0.278455198 -0.0162827689 1.79717517 -0.273404866 -0.0225266796 1.78790784 -0.265013278 -0.0235163458 1.80363941 -0.134275258 -0.00927705225 1.79471457 -0.193289727 -0.0285693351 1.76431632 -0.141799644 -0.0122153051 1.73084295 -0.117838249 0.00459210621 1.80047953 -0.124754317 -0.00275878701 1.80140913 -0.126411051 -0.00472249696 1.73084557 -0.244034246 -0.0320342705 1.75847757 -0.251804143 -0.0312129855 1.80229414 -0.259228051 -0.030263098 1.77033782 -0.241684675 -0.0320989825 1.8062619 -0.22097148 -0.032185372 1.7581383 -0.221426874 -0.0321211144 1.80625761 -0.164262086 -0.00474551274 1.85686171 -0.241684675 -0.0320989825 1.8062619 -0.221426874 -0.0321211144 1.80625761 -0.153875634 -0.0139930435 1.730865 -0.22097148 -0.032185372 1.7581383 -0.244034246 -0.0320342705 1.75847757 -0.269668549 -0.018820677 1.75686014 -0.276381016 -0.00910282694 1.75391829 -0.268745661 -0.00900119264 1.7462728 -0.259607613 -0.000334598764 1.73910999 -0.268745661 -0.00900119264 1.7462728 -0.267583191 0.0350596868 1.74098206 -0.159118146 0.0708159134 1.83157396 -0.282816201 0.0337368995 1.80857456 -0.162354887 0.0658166409 1.85475349 -0.269528568 -0.0158388447 1.8112675 -0.278455198 -0.0162827689 1.79717517 -0.265013278 -0.0235163458 1.80363941 -0.264454037 -0.00159495312 1.8225013 -0.183674559 0.027248757 1.86339319 -0.27139473 0.0346447751 1.82117343 -0.121966399 0.0609734133 1.7308296 -0.113287777 0.0481367931 1.73082042 -0.136062041 0.0707629398 1.73084795 -0.127526239 0.0655315742 1.80268109 -0.117881767 0.055680275 1.8022002 -0.121966399 0.0609734133 1.7308296 -0.14879255 0.0740636885 1.79635656 -0.136062041 0.0707629398 1.73084795 -0.148419231 0.0739943758 1.73086226 -0.14879255 0.0740636885 1.79635656 -0.159118146 0.0708159134 1.83157396 -0.141659811 0.0703371689 1.82416379 -0.276381016 -0.00910282694 1.75391829 -0.283352822 -0.0096059246 1.76582563 -0.286414862 0.0334135517 1.7624898 -0.277686983 -0.0181730185 1.77155817 -0.283352822 -0.0096059246 1.76582563 -0.269668549 -0.018820677 1.75686014 -0.115677044 0.00799583923 1.73083103 -0.112800054 0.0144195063 1.79998851 -0.117838249 0.00459210621 1.80047953 -0.115304753 0.0139924912 1.82542992 -0.11902532 0.0179971512 1.84513032 -0.120561592 0.00644655665 1.83440077 -0.129232973 0.0484496839 1.85247457 -0.13397871 0.0434085652 1.85613191 -0.122077473 0.0398987532 1.84832966 -0.13397871 0.0434085652 1.85613191 -0.12291687 0.0240406729 1.85044074 -0.122077473 0.0398987532 1.84832966 -0.128923103 0.0167296715 1.85434139 -0.12291687 0.0240406729 1.85044074 -0.13397871 0.0434085652 1.85613191 -0.13397871 0.0434085652 1.85613191 -0.143617824 0.0551018901 1.85728669 -0.166277051 0.0527250394 1.86169696 -0.157283276 0.0590752177 1.85882974 -0.166277051 0.0527250394 1.86169696 -0.143617824 0.0551018901 1.85728669 -0.1961945 -0.029233532 1.80097175 -0.148367673 -0.00557878101 1.8535955 -0.221426874 -0.0321211144 1.80625761 -0.113287777 0.0481367931 1.73082042 -0.190732449 0.058161106 1.73093307 -0.163120732 0.0735528693 1.7306931 -0.177049607 0.00401404407 1.85992396 -0.184751138 0.0152281672 1.86157107 -0.261711538 -0.0106084934 1.82164907 -0.251804143 -0.0312129855 1.80229414 -0.269528568 -0.0158388447 1.8112675 -0.265013278 -0.0235163458 1.80363941 -0.161177471 0.00519274827 1.86159742 -0.150623724 0.00240834663 1.85883343 -0.139518023 0.00725218747 1.85731089 -0.193289727 -0.0285693351 1.76431632 -0.134275258 -0.00927705225 1.79471457 -0.1961945 -0.029233532 1.80097175 -0.134275258 -0.00927705225 1.79471457 -0.138644293 -0.0078988513 1.83065021 -0.1961945 -0.029233532 1.80097175 -0.109596387 0.0327279568 1.73081768 -0.109857328 0.0277889706 1.80387104 -0.111212179 0.0182518177 1.73082459 -0.244034246 -0.0320342705 1.75847757 -0.259228051 -0.030263098 1.77033782 -0.269668549 -0.018820677 1.75686014 -0.251804143 -0.0312129855 1.80229414 -0.244034246 -0.0320342705 1.75847757 -0.241684675 -0.0320989825 1.8062619 -0.153875634 -0.0139930435 1.730865 -0.244034246 -0.0320342705 1.75847757 -0.254917949 -0.0194707438 1.74675775 -0.276381016 -0.00910282694 1.75391829 -0.277671248 0.0342459045 1.74908578 -0.268745661 -0.00900119264 1.7462728 -0.289385647 0.033243876 1.79298425 -0.285431117 -0.00941147748 1.79015291 -0.281744123 -0.00894011464 1.80244339 -0.282816201 0.0337368995 1.80857456 -0.273671508 -0.00889027584 1.81366229 -0.27139473 0.0346447751 1.82117343 -0.124027699 0.0602817275 1.82465696 -0.117881767 0.055680275 1.8022002 -0.127526239 0.0655315742 1.80268109 -0.134072855 0.0592521615 1.85013807 -0.14102833 0.0653426349 1.84761393 -0.149348438 0.0664158985 1.85240185 -0.159118146 0.0708159134 1.83157396 -0.14879255 0.0740636885 1.79635656 -0.162090868 0.0730606541 1.80247235 -0.273404866 -0.0225266796 1.78790784 -0.278455198 -0.0162827689 1.79717517 -0.285540134 -0.0110882781 1.78084517 -0.260535419 -0.0299670193 1.78979731 -0.273404866 -0.0225266796 1.78790784 -0.259228051 -0.030263098 1.77033782 -0.283352822 -0.0096059246 1.76582563 -0.276381016 -0.00910282694 1.75391829 -0.269668549 -0.018820677 1.75686014 -0.111188404 0.0419733152 1.7914145 -0.109596387 0.0327279568 1.73081768 -0.113287777 0.0481367931 1.73082042 -0.109857328 0.0277889706 1.80387104 -0.111188404 0.0419733152 1.7914145 -0.11328233 0.040419776 1.82731664 -0.118979096 0.0515288077 1.8307538 -0.11328233 0.040419776 1.82731664 -0.117881767 0.055680275 1.8022002 -0.136269033 -0.0021748282 1.85014534 -0.128768012 0.00535477605 1.849805 -0.139518023 0.00725218747 1.85731089 -0.11902532 0.0179971512 1.84513032 -0.115304753 0.0139924912 1.82542992 -0.113061823 0.0280543249 1.8319931 -0.11902532 0.0179971512 1.84513032 -0.128768012 0.00535477605 1.849805 -0.120561592 0.00644655665 1.83440077 -0.122077473 0.0398987532 1.84832966 -0.121772811 0.0482104123 1.84530759 -0.129232973 0.0484496839 1.85247457 -0.121772811 0.0482104123 1.84530759 -0.134072855 0.0592521615 1.85013807 -0.129232973 0.0484496839 1.85247457 -0.143617824 0.0551018901 1.85728669 -0.149348438 0.0664158985 1.85240185 -0.157283276 0.0590752177 1.85882974 -0.166277051 0.0527250394 1.86169696 -0.157283276 0.0590752177 1.85882974 -0.17413947 0.0595044084 1.85824358 -0.162354887 0.0658166409 1.85475349 -0.17413947 0.0595044084 1.85824358 -0.157283276 0.0590752177 1.85882974 -0.27139473 0.0346447751 1.82117343 -0.182944715 0.0432709679 1.86232626 -0.17413947 0.0595044084 1.85824358 -0.174677998 0.0150057338 1.86343837 -0.183674559 0.027248757 1.86339319 -0.184751138 0.0152281672 1.86157107 -0.261711538 -0.0106084934 1.82164907 -0.255773067 -0.0194095019 1.81692636 -0.164262086 -0.00474551274 1.85686171 -0.259228051 -0.030263098 1.77033782 -0.273404866 -0.0225266796 1.78790784 -0.277686983 -0.0181730185 1.77155817 -0.161177471 0.00519274827 1.86159742 -0.164262086 -0.00474551274 1.85686171 -0.150623724 0.00240834663 1.85883343 -0.150623724 0.00240834663 1.85883343 -0.164262086 -0.00474551274 1.85686171 -0.148367673 -0.00557878101 1.8535955 -0.111212179 0.0182518177 1.73082459 -0.109857328 0.0277889706 1.80387104 -0.112800054 0.0144195063 1.79998851 -0.115304753 0.0139924912 1.82542992 -0.109857328 0.0277889706 1.80387104 -0.113061823 0.0280543249 1.8319931 -0.109857328 0.0277889706 1.80387104 -0.115304753 0.0139924912 1.82542992 -0.112800054 0.0144195063 1.79998851 -0.277686983 -0.0181730185 1.77155817 -0.269668549 -0.018820677 1.75686014 -0.259228051 -0.030263098 1.77033782 -0.254917949 -0.0194707438 1.74675775 -0.253080398 -0.0105461562 1.73930442 -0.153875634 -0.0139930435 1.730865 -0.251804143 -0.0312129855 1.80229414 -0.241684675 -0.0320989825 1.8062619 -0.255773067 -0.0194095019 1.81692636 -0.162354887 0.0658166409 1.85475349 -0.27139473 0.0346447751 1.82117343 -0.17413947 0.0595044084 1.85824358 -0.27139473 0.0346447751 1.82117343 -0.273671508 -0.00889027584 1.81366229 -0.264454037 -0.00159495312 1.8225013 -0.264454037 -0.00159495312 1.8225013 -0.184751138 0.0152281672 1.86157107 -0.183674559 0.027248757 1.86339319 -0.117881767 0.055680275 1.8022002 -0.113287777 0.0481367931 1.73082042 -0.121966399 0.0609734133 1.7308296 -0.141659811 0.0703371689 1.82416379 -0.135612771 0.0703765675 1.7927233 -0.14879255 0.0740636885 1.79635656 -0.136062041 0.0707629398 1.73084795 -0.135612771 0.0703765675 1.7927233 -0.127526239 0.0655315742 1.80268109 -0.278455198 -0.0162827689 1.79717517 -0.285431117 -0.00941147748 1.79015291 -0.285540134 -0.0110882781 1.78084517 -0.285540134 -0.0110882781 1.78084517 -0.283352822 -0.0096059246 1.76582563 -0.277686983 -0.0181730185 1.77155817 -0.259607613 -0.000334598764 1.73910999 -0.253080398 -0.0105461562 1.73930442 -0.268745661 -0.00900119264 1.7462728 -0.254917949 -0.0194707438 1.74675775 -0.268745661 -0.00900119264 1.7462728 -0.253080398 -0.0105461562 1.73930442 -0.269668549 -0.018820677 1.75686014 -0.268745661 -0.00900119264 1.7462728 -0.254917949 -0.0194707438 1.74675775 -0.111188404 0.0419733152 1.7914145 -0.109857328 0.0277889706 1.80387104 -0.109596387 0.0327279568 1.73081768 -0.120561592 0.00644655665 1.83440077 -0.124754317 -0.00275878701 1.80140913 -0.117838249 0.00459210621 1.80047953 -0.117881767 0.055680275 1.8022002 -0.111188404 0.0419733152 1.7914145 -0.113287777 0.0481367931 1.73082042 -0.118979096 0.0515288077 1.8307538 -0.121772811 0.0482104123 1.84530759 -0.11328233 0.040419776 1.82731664 -0.115511663 0.0338136591 1.84044397 -0.113061823 0.0280543249 1.8319931 -0.11328233 0.040419776 1.82731664 -0.11902532 0.0179971512 1.84513032 -0.128923103 0.0167296715 1.85434139 -0.128768012 0.00535477605 1.849805 -0.136269033 -0.0021748282 1.85014534 -0.120561592 0.00644655665 1.83440077 -0.128768012 0.00535477605 1.849805 -0.128843889 -0.00280994968 1.82809126 -0.136269033 -0.0021748282 1.85014534 -0.138644293 -0.0078988513 1.83065021 -0.122077473 0.0398987532 1.84832966 -0.115511663 0.0338136591 1.84044397 -0.121772811 0.0482104123 1.84530759 -0.115511663 0.0338136591 1.84044397 -0.11902532 0.0179971512 1.84513032 -0.113061823 0.0280543249 1.8319931 -0.12291687 0.0240406729 1.85044074 -0.128923103 0.0167296715 1.85434139 -0.11902532 0.0179971512 1.84513032 -0.14102833 0.0653426349 1.84761393 -0.141659811 0.0703371689 1.82416379 -0.149348438 0.0664158985 1.85240185 -0.27139473 0.0346447751 1.82117343 -0.183674559 0.027248757 1.86339319 -0.182944715 0.0432709679 1.86232626 -0.161177471 0.00519274827 1.86159742 -0.177049607 0.00401404407 1.85992396 -0.164262086 -0.00474551274 1.85686171 -0.157283276 0.0590752177 1.85882974 -0.149348438 0.0664158985 1.85240185 -0.162354887 0.0658166409 1.85475349 -0.166277051 0.0527250394 1.86169696 -0.17413947 0.0595044084 1.85824358 -0.182944715 0.0432709679 1.86232626 -0.182944715 0.0432709679 1.86232626 -0.174990505 0.035833288 1.86378336 -0.166277051 0.0527250394 1.86169696 -0.241684675 -0.0320989825 1.8062619 -0.164262086 -0.00474551274 1.85686171 -0.255773067 -0.0194095019 1.81692636 -0.254917949 -0.0194707438 1.74675775 -0.244034246 -0.0320342705 1.75847757 -0.269668549 -0.018820677 1.75686014 -0.251804143 -0.0312129855 1.80229414 -0.260535419 -0.0299670193 1.78979731 -0.259228051 -0.030263098 1.77033782 -0.281744123 -0.00894011464 1.80244339 -0.273671508 -0.00889027584 1.81366229 -0.282816201 0.0337368995 1.80857456 -0.281744123 -0.00894011464 1.80244339 -0.285431117 -0.00941147748 1.79015291 -0.278455198 -0.0162827689 1.79717517 -0.269528568 -0.0158388447 1.8112675 -0.273671508 -0.00889027584 1.81366229 -0.281744123 -0.00894011464 1.80244339 -0.261711538 -0.0106084934 1.82164907 -0.269528568 -0.0158388447 1.8112675 -0.255773067 -0.0194095019 1.81692636 -0.269528568 -0.0158388447 1.8112675 -0.281744123 -0.00894011464 1.80244339 -0.278455198 -0.0162827689 1.79717517 -0.14879255 0.0740636885 1.79635656 -0.135612771 0.0703765675 1.7927233 -0.136062041 0.0707629398 1.73084795 -0.141659811 0.0703371689 1.82416379 -0.131674185 0.0654556975 1.82759154 -0.127526239 0.0655315742 1.80268109 -0.126266807 0.0576198064 1.84110093 -0.14102833 0.0653426349 1.84761393 -0.134072855 0.0592521615 1.85013807 -0.141659811 0.0703371689 1.82416379 -0.127526239 0.0655315742 1.80268109 -0.135612771 0.0703765675 1.7927233 -0.117838249 0.00459210621 1.80047953 -0.115304753 0.0139924912 1.82542992 -0.120561592 0.00644655665 1.83440077 -0.115304753 0.0139924912 1.82542992 -0.117838249 0.00459210621 1.80047953 -0.112800054 0.0144195063 1.79998851 -0.126266807 0.0576198064 1.84110093 -0.121772811 0.0482104123 1.84530759 -0.118979096 0.0515288077 1.8307538 -0.11328233 0.040419776 1.82731664 -0.111188404 0.0419733152 1.7914145 -0.117881767 0.055680275 1.8022002 -0.128923103 0.0167296715 1.85434139 -0.139518023 0.00725218747 1.85731089 -0.128768012 0.00535477605 1.849805 -0.11328233 0.040419776 1.82731664 -0.121772811 0.0482104123 1.84530759 -0.115511663 0.0338136591 1.84044397 -0.12291687 0.0240406729 1.85044074 -0.11902532 0.0179971512 1.84513032 -0.115511663 0.0338136591 1.84044397 -0.13397871 0.0434085652 1.85613191 -0.129232973 0.0484496839 1.85247457 -0.143617824 0.0551018901 1.85728669 -0.134072855 0.0592521615 1.85013807 -0.149348438 0.0664158985 1.85240185 -0.143617824 0.0551018901 1.85728669 -0.121772811 0.0482104123 1.84530759 -0.126266807 0.0576198064 1.84110093 -0.134072855 0.0592521615 1.85013807 -0.149348438 0.0664158985 1.85240185 -0.141659811 0.0703371689 1.82416379 -0.159118146 0.0708159134 1.83157396 -0.14102833 0.0653426349 1.84761393 -0.131674185 0.0654556975 1.82759154 -0.141659811 0.0703371689 1.82416379 -0.164262086 -0.00474551274 1.85686171 -0.177049607 0.00401404407 1.85992396 -0.261711538 -0.0106084934 1.82164907 -0.184751138 0.0152281672 1.86157107 -0.177049607 0.00401404407 1.85992396 -0.174677998 0.0150057338 1.86343837 -0.148367673 -0.00557878101 1.8535955 -0.136269033 -0.0021748282 1.85014534 -0.139518023 0.00725218747 1.85731089 -0.138644293 -0.0078988513 1.83065021 -0.134275258 -0.00927705225 1.79471457 -0.128843889 -0.00280994968 1.82809126 -0.128843889 -0.00280994968 1.82809126 -0.134275258 -0.00927705225 1.79471457 -0.124754317 -0.00275878701 1.80140913 -0.120561592 0.00644655665 1.83440077 -0.128843889 -0.00280994968 1.82809126 -0.124754317 -0.00275878701 1.80140913 -0.273404866 -0.0225266796 1.78790784 -0.260535419 -0.0299670193 1.78979731 -0.265013278 -0.0235163458 1.80363941 -0.184751138 0.0152281672 1.86157107 -0.264454037 -0.00159495312 1.8225013 -0.261711538 -0.0106084934 1.82164907 -0.261711538 -0.0106084934 1.82164907 -0.273671508 -0.00889027584 1.81366229 -0.269528568 -0.0158388447 1.8112675 -0.264454037 -0.00159495312 1.8225013 -0.273671508 -0.00889027584 1.81366229 -0.261711538 -0.0106084934 1.82164907 -0.127526239 0.0655315742 1.80268109 -0.131674185 0.0654556975 1.82759154 -0.124027699 0.0602817275 1.82465696 -0.117881767 0.055680275 1.8022002 -0.124027699 0.0602817275 1.82465696 -0.118979096 0.0515288077 1.8307538 -0.126266807 0.0576198064 1.84110093 -0.118979096 0.0515288077 1.8307538 -0.124027699 0.0602817275 1.82465696 -0.113061823 0.0280543249 1.8319931 -0.109857328 0.0277889706 1.80387104 -0.11328233 0.040419776 1.82731664 -0.120561592 0.00644655665 1.83440077 -0.136269033 -0.0021748282 1.85014534 -0.128843889 -0.00280994968 1.82809126 -0.150623724 0.00240834663 1.85883343 -0.148367673 -0.00557878101 1.8535955 -0.139518023 0.00725218747 1.85731089 -0.260535419 -0.0299670193 1.78979731 -0.251804143 -0.0312129855 1.80229414 -0.265013278 -0.0235163458 1.80363941 -0.14102833 0.0653426349 1.84761393 -0.126266807 0.0576198064 1.84110093 -0.131674185 0.0654556975 1.82759154 -0.131674185 0.0654556975 1.82759154 -0.126266807 0.0576198064 1.84110093 -0.124027699 0.0602817275 1.82465696 -0.113287777 0.0481367931 1.73082042 -0.153875634 -0.0139930435 1.730865 -0.190732449 0.058161106 1.73093307 -0.153875634 -0.0139930435 1.730865 -0.18602398 -0.00447967602 1.73093343 -0.190732449 0.058161106 1.73093307 </float_array>
          <technique_common>
            <accessor count="600" offset="0" source="#mesh_0-positions-array" stride="3">
              <param name="X" type="float" />
              <param name="Y" type="float" />
              <param name="Z" type="float" />
            </accessor>
          </technique_common>
        </source>
        <vertices id="mesh_0-vertices">
          <input semantic="POSITION" source="#mesh_0-positions" />
        </vertices>
        <polylist count="200" material="defaultMaterial">
          <input offset="0" semantic="VERTEX" source="#mesh_0-vertices" />
          <vcount>3 3 3 3 3 3 3 3 3 3 3 3 3 3 3 3 3 3 3 3 3 3 3 3 3 3 3 3 3 3 3 3 3 3 3 3 3 3 3 3 3 3 3 3 3 3 3 3 3 3 3 3 3 3 3 3 3 3 3 3 3 3 3 3 3 3 3 3 3 3 3 3 3 3 3 3 3 3 3 3 3 3 3 3 3 3 3 3 3 3 3 3 3 3 3 3 3 3 3 3 3 3 3 3 3 3 3 3 3 3 3 3 3 3 3 3 3 3 3 3 3 3 3 3 3 3 3 3 3 3 3 3 3 3 3 3 3 3 3 3 3 3 3 3 3 3 3 3 3 3 3 3 3 3 3 3 3 3 3 3 3 3 3 3 3 3 3 3 3 3 3 3 3 3 3 3 3 3 3 3 3 3 3 3 3 3 3 3 3 3 3 3 3 3 3 3 3 3 3 3 </vcount>
          <p>0 1 2 3 4 5 6 7 8 9 10 11 12 13 14 15 16 17 18 19 20 21 22 23 24 25 26 27 28 29 30 31 32 33 34 35 36 37 38 39 40 41 42 43 44 45 46 47 48 49 50 51 52 53 54 55 56 57 58 59 60 61 62 63 64 65 66 67 68 69 70 71 72 73 74 75 76 77 78 79 80 81 82 83 84 85 86 87 88 89 90 91 92 93 94 95 96 97 98 99 100 101 102 103 104 105 106 107 108 109 110 111 112 113 114 115 116 117 118 119 120 121 122 123 124 125 126 127 128 129 130 131 132 133 134 135 136 137 138 139 140 141 142 143 144 145 146 147 148 149 150 151 152 153 154 155 156 157 158 159 160 161 162 163 164 165 166 167 168 169 170 171 172 173 174 175 176 177 178 179 180 181 182 183 184 185 186 187 188 189 190 191 192 193 194 195 196 197 198 199 200 201 202 203 204 205 206 207 208 209 210 211 212 213 214 215 216 217 218 219 220 221 222 223 224 225 226 227 228 229 230 231 232 233 234 235 236 237 238 239 240 241 242 243 244 245 246 247 248 249 250 251 252 253 254 255 256 257 258 259 260 261 262 263 264 265 266 267 268 269 270 271 272 273 274 275 276 277 278 279 280 281 282 283 284 285 286 287 288 289 290 291 292 293 294 295 296 297 298 299 300 301 302 303 304 305 306 307 308 309 310 311 312 313 314 315 316 317 318 319 320 321 322 323 324 325 326 327 328 329 330 331 332 333 334 335 336 337 338 339 340 341 342 343 344 345 346 347 348 349 350 351 352 353 354 355 356 357 358 359 360 361 362 363 364 365 366 367 368 369 370 371 372 373 374 375 376 377 378 379 380 381 382 383 384 385 386 387 388 389 390 391 392 393 394 395 396 397 398 399 400 401 402 403 404 405 406 407 408 409 410 411 412 413 414 415 416 417 418 419 420 421 422 423 424 425 426 427 428 429 430 431 432 433 434 435 436 437 438 439 440 441 442 443 444 445 446 447 448 449 450 451 452 453 454 455 456 457 458 459 460 461 462 463 464 465 466 467 468 469 470 471 472 473 474 475 476 477 478 479 480 481 482 483 484 485 486 487 488 489 490 491 492 493 494 495 496 497 498 499 500 501 502 503 504 505 506 507 508 509 510 511 512 513 514 515 516 517 518 519 520 521 522 523 524 525 526 527 528 529 530 531 532 533 534 535 536 537 538 539 540 541 542 543 544 545 546 547 548 549 550 551 552 553 554 555 556 557 558 559 560 561 562 563 564 565 566 567 568 569 570 571 572 573 574 575 576 577 578 579 580 581 582 583 584 585 586 587 588 589 590 591 592 593 594 595 596 597 598 599 </p>
        </polylist>
      </mesh>
    </geometry>
  </library_geometries>
  <library_controllers>
  </library_controllers>
  <library_visual_scenes>
    <visual_scene id="Scene" name="Scene">
      <node id="node" name="" type="NODE">
        <matrix sid="matrix">1 0 0 0 0 1 0 0 0 0 1 0 0 0 0 1</matrix>
        <instance_geometry url="#mesh_0">
          <bind_material>
            <technique_common>
              <instance_material symbol="defaultMaterial" target="#material_0">
              </instance_material>
            </technique_common>
          </bind_material>
        </instance_geometry>
      </node>
    </visual_scene>
  </library_visual_scenes>
  <scene>
    <instance_visual_scene url="#Scene" />
  </scene>
</COLLADA>
