<?xml version="1.0" encoding="UTF-8" standalone="no" ?>
<COLLADA xmlns="http://www.collada.org/2005/11/COLLADASchema" version="1.4.1">
  <asset>
    <contributor>
      <author>Assimp</author>
      <authoring_tool>Assimp Exporter</authoring_tool>
    </contributor>
    <created>2026-04-22T16:09:43</created>
    <modified>2026-04-22T16:09:43</modified>
    <unit name="meter" meter="1" />
    <up_axis>Y_UP</up_axis>
  </asset>
  <library_images>
  </library_images>
  <library_effects>
    <effect id="material_0-fx" name="">
      <profile_COMMON>
        <technique sid="standard">
          <phong>
            <emission>
              <color sid="emission">0   0   0   -1.87499988</color>
            </emission>
            <ambient>
              <color sid="ambient">0.61245358   0.933501363   0.791171074   -1.40108883</color>
            </ambient>
            <diffuse>
              <color sid="diffuse">0.61245358   0.933501363   0.791171074   -1.40108883</color>
            </diffuse>
            <specular>
              <color sid="specular">0.25   0.25   0.25   0.264730781</color>
            </specular>
          </phong>
        </technique>
      </profile_COMMON>
    </effect>
  </library_effects>
  <library_materials>
    <material id="material_0" name="">
      <instance_effect url="#material_0-fx"/>
    </material>
  </library_materials>
  <library_geometries>
    <geometry id="mesh_0" name="" >
      <mesh>
        <source id="mesh_0-positions" name="mesh_0-positions">
          <float_array id="mesh_0-positions-array" count="1800"> 0.703757584 -0.213020846 1.67554605 0.672181308 -0.245342255 1.6755259 0.681218266 -0.221483186 1.67551351 0.704252005 -0.287878305 1.73027158 0.705868721 -0.287698507 1.68566918 0.738564312 -0.284585267 1.69774985 0.717912018 -0.216883779 1.67553341 0.725800693 -0.22313723 1.67555845 0.703757584 -0.213020846 1.67554605 0.622380257 -0.206539616 1.69185352 0.624190688 -0.208767712 1.68780518 0.66987741 -0.272497594 1.68564367 0.622380257 -0.206539616 1.69185352 0.66987741 -0.272497594 1.68564367 0.622458875 -0.207175419 1.69997215 0.66987741 -0.272497594 1.68564367 0.66859895 -0.271076143 1.73019791 0.622458875 -0.207175419 1.69997215 0.675487638 -0.278131127 1.73027349 0.66859895 -0.271076143 1.73019791 0.66987741 -0.272497594 1.68564367 0.659466386 -0.247315481 1.73031664 0.660699904 -0.231773078 1.73031604 0.623922706 -0.206824556 1.70565009 0.636479616 -0.189824671 1.68791902 0.648178279 -0.176380798 1.68954372 0.653324604 -0.174134031 1.6874131 0.703757584 -0.213020846 1.67554605 0.725800693 -0.22313723 1.67555845 0.734023333 -0.247586116 1.67555821 0.734023333 -0.247586116 1.67555821 0.725800693 -0.22313723 1.67555845 0.731775105 -0.232412294 1.67556012 0.625625253 -0.208135962 1.68630707 0.678803205 -0.262435734 1.67549098 0.66987741 -0.272497594 1.68564367 0.678803205 -0.262435734 1.67549098 0.687298417 -0.269957691 1.67553258 0.676190615 -0.278385639 1.68555832 0.625625253 -0.208135962 1.68630707 0.66987741 -0.272497594 1.68564367 0.624190688 -0.208767712 1.68780518 0.624309003 -0.205536366 1.68759429 0.625625253 -0.208135962 1.68630707 0.623462379 -0.206784248 1.68818915 0.681218266 -0.221483186 1.67551351 0.640961111 -0.187968895 1.68648469 0.668007016 -0.166316748 1.68626904 0.706181288 -0.200028464 1.73034763 0.666303992 -0.164466202 1.70565784 0.689525843 -0.201835036 1.730335 0.738564312 -0.284585267 1.69774985 0.743965745 -0.279352427 1.69765353 0.733208954 -0.276043832 1.73032176 0.738564312 -0.284585267 1.69774985 0.73968327 -0.283348769 1.69328558 0.741151273 -0.281837314 1.69263911 0.73968327 -0.283348769 1.69328558 0.738564312 -0.284585267 1.69774985 0.714457929 -0.286145627 1.68537128 0.705868721 -0.287698507 1.68566918 0.714457929 -0.286145627 1.68537128 0.738564312 -0.284585267 1.69774985 0.715015769 -0.286257446 1.73029447 0.704252005 -0.287878305 1.73027158 0.738564312 -0.284585267 1.69774985 0.70124805 -0.287674099 1.68553638 0.704252005 -0.287878305 1.73027158 0.69471693 -0.287111193 1.7302314 0.69471693 -0.287111193 1.7302314 0.684972107 -0.283975214 1.73022985 0.688285172 -0.285074741 1.68549216 0.70124805 -0.287674099 1.68553638 0.705868721 -0.287698507 1.68566918 0.704252005 -0.287878305 1.73027158 0.714457929 -0.286145627 1.68537128 0.705868721 -0.287698507 1.68566918 0.708541036 -0.274183989 1.67554235 0.696378767 -0.273754299 1.67553782 0.688285172 -0.285074741 1.68549216 0.687298417 -0.269957691 1.67553258 0.688285172 -0.285074741 1.68549216 0.681731641 -0.282120496 1.68563998 0.687298417 -0.269957691 1.67553258 0.684972107 -0.283975214 1.73022985 0.681731641 -0.282120496 1.68563998 0.688285172 -0.285074741 1.68549216 0.622900426 -0.204762325 1.68978298 0.630198538 -0.193493471 1.69374561 0.630640447 -0.195167303 1.68915558 0.622380257 -0.206539616 1.69185352 0.622458875 -0.207175419 1.69997215 0.62195003 -0.204122007 1.69647479 0.703757584 -0.213020846 1.67554605 0.681218266 -0.221483186 1.67551351 0.668007016 -0.166316748 1.68626904 0.672181308 -0.245342255 1.6755259 0.625625253 -0.208135962 1.68630707 0.681218266 -0.221483186 1.67551351 0.687298417 -0.269957691 1.67553258 0.681731641 -0.282120496 1.68563998 0.676190615 -0.278385639 1.68555832 0.672181308 -0.245342255 1.6755259 0.678803205 -0.262435734 1.67549098 0.625625253 -0.208135962 1.68630707 0.66264689 -0.261084557 1.73027825 0.659466386 -0.247315481 1.73031664 0.623922706 -0.206824556 1.70565009 0.666303992 -0.164466202 1.70565784 0.706181288 -0.200028464 1.73034763 0.716507375 -0.201974347 1.73034918 0.666303992 -0.164466202 1.70565784 0.716507375 -0.201974347 1.73034918 0.726436794 -0.206382617 1.73027396 0.730757236 -0.209642634 1.68560767 0.726436794 -0.206382617 1.73027396 0.731992006 -0.210523352 1.73025346 0.668083251 -0.164396748 1.68849671 0.665081561 -0.163368925 1.6895026 0.665714979 -0.162883028 1.69305587 0.623922706 -0.206824556 1.70565009 0.660699904 -0.231773078 1.73031604 0.67208463 -0.212633416 1.73033583 0.67208463 -0.212633416 1.73033583 0.63027662 -0.196787089 1.70499516 0.623922706 -0.206824556 1.70565009 0.731775105 -0.232412294 1.67556012 0.746222317 -0.234806493 1.68555045 0.734023333 -0.247586116 1.67555821 0.741151273 -0.281837314 1.69263911 0.742922902 -0.280121684 1.69353414 0.738564312 -0.284585267 1.69774985 0.740247488 -0.267734379 1.73029447 0.743965745 -0.279352427 1.69765353 0.74595952 -0.254292428 1.73030603 0.715015769 -0.286257446 1.73029447 0.738564312 -0.284585267 1.69774985 0.724698961 -0.28222248 1.73035121 0.734023333 -0.247586116 1.67555821 0.727162063 -0.263201058 1.67555535 0.718974054 -0.270096064 1.67555177 0.727162063 -0.263201058 1.67555535 0.742267311 -0.262581319 1.68479836 0.741151273 -0.281837314 1.69263911 0.727162063 -0.263201058 1.67555535 0.734023333 -0.247586116 1.67555821 0.742267311 -0.262581319 1.68479836 0.714457929 -0.286145627 1.68537128 0.723222733 -0.282597631 1.68518722 0.73968327 -0.283348769 1.69328558 0.622380257 -0.206539616 1.69185352 0.622900426 -0.204762325 1.68978298 0.623462379 -0.206784248 1.68818915 0.668007016 -0.166316748 1.68626904 0.717912018 -0.216883779 1.67553341 0.703757584 -0.213020846 1.67554605 0.626158059 -0.198630139 1.70012641 0.622379005 -0.204737917 1.70231736 0.629051805 -0.195977584 1.70263708 0.638899624 -0.185883537 1.70400298 0.629051805 -0.195977584 1.70263708 0.63027662 -0.196787089 1.70499516 0.648178279 -0.176380798 1.68954372 0.656564891 -0.168390885 1.69171751 0.664289594 -0.164204061 1.68863225 0.664289594 -0.164204061 1.68863225 0.653324604 -0.174134031 1.6874131 0.648178279 -0.176380798 1.68954372 0.623462379 -0.206784248 1.68818915 0.625625253 -0.208135962 1.68630707 0.624190688 -0.208767712 1.68780518 0.625625253 -0.208135962 1.68630707 0.640961111 -0.187968895 1.68648469 0.681218266 -0.221483186 1.67551351 0.665100694 -0.163353816 1.70396221 0.663598418 -0.162759542 1.70069575 0.65749383 -0.16871047 1.70391595 0.689525843 -0.201835036 1.730335 0.666303992 -0.164466202 1.70565784 0.67208463 -0.212633416 1.73033583 0.666303992 -0.164466202 1.70565784 0.653576314 -0.174050093 1.70567417 0.67208463 -0.212633416 1.73033583 0.639437437 -0.188034222 1.70586538 0.63027662 -0.196787089 1.70499516 0.67208463 -0.212633416 1.73033583 0.666327238 -0.164864331 1.68729651 0.665081561 -0.163368925 1.6895026 0.668083251 -0.164396748 1.68849671 0.653324604 -0.174134031 1.6874131 0.664289594 -0.164204061 1.68863225 0.666327238 -0.164864331 1.68729651 0.653324604 -0.174134031 1.6874131 0.666327238 -0.164864331 1.68729651 0.668007016 -0.166316748 1.68626904 0.668007016 -0.166316748 1.68626904 0.666327238 -0.164864331 1.68729651 0.668083251 -0.164396748 1.68849671 0.730757236 -0.209642634 1.68560767 0.668007016 -0.166316748 1.68626904 0.668083251 -0.164396748 1.68849671 0.731992006 -0.210523352 1.73025346 0.735138237 -0.21366854 1.68565738 0.730757236 -0.209642634 1.68560767 0.746222317 -0.234806493 1.68555045 0.746501327 -0.235323995 1.7302736 0.747165859 -0.241433203 1.68572187 0.746222317 -0.234806493 1.68555045 0.747165859 -0.241433203 1.68572187 0.734023333 -0.247586116 1.67555821 0.742922902 -0.280121684 1.69353414 0.743965745 -0.279352427 1.69765353 0.738564312 -0.284585267 1.69774985 0.747269273 -0.245469406 1.73029709 0.747165859 -0.241433203 1.68572187 0.746501327 -0.235323995 1.7302736 0.743965745 -0.279352427 1.69765353 0.740247488 -0.267734379 1.73029447 0.733208954 -0.276043832 1.73032176 0.747269273 -0.245469406 1.73029709 0.74595952 -0.254292428 1.73030603 0.743965745 -0.279352427 1.69765353 0.733208954 -0.276043832 1.73032176 0.724698961 -0.28222248 1.73035121 0.738564312 -0.284585267 1.69774985 0.708541036 -0.274183989 1.67554235 0.723222733 -0.282597631 1.68518722 0.714457929 -0.286145627 1.68537128 0.718974054 -0.270096064 1.67555177 0.723222733 -0.282597631 1.68518722 0.708541036 -0.274183989 1.67554235 0.742267311 -0.262581319 1.68479836 0.742922902 -0.280121684 1.69353414 0.741151273 -0.281837314 1.69263911 0.69471693 -0.287111193 1.7302314 0.688285172 -0.285074741 1.68549216 0.694894671 -0.286996484 1.68572903 0.69471693 -0.287111193 1.7302314 0.694894671 -0.286996484 1.68572903 0.70124805 -0.287674099 1.68553638 0.70124805 -0.287674099 1.68553638 0.708541036 -0.274183989 1.67554235 0.705868721 -0.287698507 1.68566918 0.622900426 -0.204762325 1.68978298 0.62195003 -0.204122007 1.69647479 0.630198538 -0.193493471 1.69374561 0.630640447 -0.195167303 1.68915558 0.636479616 -0.189824671 1.68791902 0.624309003 -0.205536366 1.68759429 0.62195003 -0.204122007 1.69647479 0.622379005 -0.204737917 1.70231736 0.626158059 -0.198630139 1.70012641 0.625625253 -0.208135962 1.68630707 0.624309003 -0.205536366 1.68759429 0.640961111 -0.187968895 1.68648469 0.66264689 -0.261084557 1.73027825 0.623232007 -0.207536831 1.70415056 0.66859895 -0.271076143 1.73019791 0.622379005 -0.204737917 1.70231736 0.622458875 -0.207175419 1.69997215 0.623232007 -0.207536831 1.70415056 0.62195003 -0.204122007 1.69647479 0.622458875 -0.207175419 1.69997215 0.622379005 -0.204737917 1.70231736 0.623922706 -0.206824556 1.70565009 0.623232007 -0.207536831 1.70415056 0.66264689 -0.261084557 1.73027825 0.648488104 -0.17592372 1.7032156 0.638113379 -0.184739873 1.7007184 0.638899624 -0.185883537 1.70400298 0.648488104 -0.17592372 1.7032156 0.648457229 -0.174568579 1.69990075 0.638113379 -0.184739873 1.7007184 0.648178279 -0.176380798 1.68954372 0.636214912 -0.187604681 1.69077694 0.644576371 -0.178175449 1.69396293 0.66987741 -0.272497594 1.68564367 0.678803205 -0.262435734 1.67549098 0.676190615 -0.278385639 1.68555832 0.630640447 -0.195167303 1.68915558 0.624309003 -0.205536366 1.68759429 0.622900426 -0.204762325 1.68978298 0.665081561 -0.163368925 1.6895026 0.663903832 -0.162749559 1.69295144 0.665714979 -0.162883028 1.69305587 0.730757236 -0.209642634 1.68560767 0.667905688 -0.163995624 1.70293927 0.726436794 -0.206382617 1.73027396 0.668083251 -0.164396748 1.68849671 0.667905688 -0.163995624 1.70293927 0.730757236 -0.209642634 1.68560767 0.668083251 -0.164396748 1.68849671 0.665714979 -0.162883028 1.69305587 0.667905688 -0.163995624 1.70293927 0.668007016 -0.166316748 1.68626904 0.730757236 -0.209642634 1.68560767 0.717912018 -0.216883779 1.67553341 0.737708092 -0.216317564 1.73025811 0.735138237 -0.21366854 1.68565738 0.731992006 -0.210523352 1.73025346 0.737708092 -0.216317564 1.73025811 0.739832401 -0.219381779 1.68580914 0.735138237 -0.21366854 1.68565738 0.743272841 -0.225372076 1.73027456 0.739832401 -0.219381779 1.68580914 0.737708092 -0.216317564 1.73025811 0.746619523 -0.250486672 1.68554795 0.742922902 -0.280121684 1.69353414 0.742267311 -0.262581319 1.68479836 0.727162063 -0.263201058 1.67555535 0.741151273 -0.281837314 1.69263911 0.718974054 -0.270096064 1.67555177 0.723222733 -0.282597631 1.68518722 0.741151273 -0.281837314 1.69263911 0.73968327 -0.283348769 1.69328558 0.741151273 -0.281837314 1.69263911 0.723222733 -0.282597631 1.68518722 0.718974054 -0.270096064 1.67555177 0.696378767 -0.273754299 1.67553782 0.70124805 -0.287674099 1.68553638 0.694894671 -0.286996484 1.68572903 0.678803205 -0.262435734 1.67549098 0.696378767 -0.273754299 1.67553782 0.687298417 -0.269957691 1.67553258 0.708541036 -0.274183989 1.67554235 0.696378767 -0.273754299 1.67553782 0.718974054 -0.270096064 1.67555177 0.672181308 -0.245342255 1.6755259 0.696378767 -0.273754299 1.67553782 0.678803205 -0.262435734 1.67549098 0.718974054 -0.270096064 1.67555177 0.696378767 -0.273754299 1.67553782 0.734023333 -0.247586116 1.67555821 0.696378767 -0.273754299 1.67553782 0.708541036 -0.274183989 1.67554235 0.70124805 -0.287674099 1.68553638 0.675487638 -0.278131127 1.73027349 0.681731641 -0.282120496 1.68563998 0.684972107 -0.283975214 1.73022985 0.676190615 -0.278385639 1.68555832 0.681731641 -0.282120496 1.68563998 0.675487638 -0.278131127 1.73027349 0.622380257 -0.206539616 1.69185352 0.62195003 -0.204122007 1.69647479 0.622900426 -0.204762325 1.68978298 0.622380257 -0.206539616 1.69185352 0.623462379 -0.206784248 1.68818915 0.624190688 -0.208767712 1.68780518 0.640961111 -0.187968895 1.68648469 0.636479616 -0.189824671 1.68791902 0.653324604 -0.174134031 1.6874131 0.623232007 -0.207536831 1.70415056 0.622458875 -0.207175419 1.69997215 0.66859895 -0.271076143 1.73019791 0.638113379 -0.184739873 1.7007184 0.629051805 -0.195977584 1.70263708 0.638899624 -0.185883537 1.70400298 0.629051805 -0.195977584 1.70263708 0.638113379 -0.184739873 1.7007184 0.626158059 -0.198630139 1.70012641 0.636214912 -0.187604681 1.69077694 0.630640447 -0.195167303 1.68915558 0.630198538 -0.193493471 1.69374561 0.653324604 -0.174134031 1.6874131 0.668007016 -0.166316748 1.68626904 0.640961111 -0.187968895 1.68648469 0.639437437 -0.188034222 1.70586538 0.653576314 -0.174050093 1.70567417 0.638899624 -0.185883537 1.70400298 0.638899624 -0.185883537 1.70400298 0.653576314 -0.174050093 1.70567417 0.648488104 -0.17592372 1.7032156 0.648488104 -0.17592372 1.7032156 0.653576314 -0.174050093 1.70567417 0.65749383 -0.16871047 1.70391595 0.648488104 -0.17592372 1.7032156 0.65749383 -0.16871047 1.70391595 0.648457229 -0.174568579 1.69990075 0.663598418 -0.162759542 1.70069575 0.648457229 -0.174568579 1.69990075 0.65749383 -0.16871047 1.70391595 0.648178279 -0.176380798 1.68954372 0.644576371 -0.178175449 1.69396293 0.656564891 -0.168390885 1.69171751 0.663271129 -0.162659004 1.69655597 0.656564891 -0.168390885 1.69171751 0.644576371 -0.178175449 1.69396293 0.663271129 -0.162659004 1.69655597 0.644576371 -0.178175449 1.69396293 0.648457229 -0.174568579 1.69990075 0.648457229 -0.174568579 1.69990075 0.663598418 -0.162759542 1.70069575 0.663271129 -0.162659004 1.69655597 0.746222317 -0.234806493 1.68555045 0.731775105 -0.232412294 1.67556012 0.743347704 -0.226109818 1.68546581 0.624309003 -0.205536366 1.68759429 0.623462379 -0.206784248 1.68818915 0.622900426 -0.204762325 1.68978298 0.726436794 -0.206382617 1.73027396 0.667905688 -0.163995624 1.70293927 0.666303992 -0.164466202 1.70565784 0.667905688 -0.163995624 1.70293927 0.665100694 -0.163353816 1.70396221 0.666303992 -0.164466202 1.70565784 0.665100694 -0.163353816 1.70396221 0.665406942 -0.162715837 1.69975698 0.663598418 -0.162759542 1.70069575 0.665406942 -0.162715837 1.69975698 0.667905688 -0.163995624 1.70293927 0.665714979 -0.162883028 1.69305587 0.67208463 -0.212633416 1.73033583 0.653576314 -0.174050093 1.70567417 0.639437437 -0.188034222 1.70586538 0.739832401 -0.219381779 1.68580914 0.743272841 -0.225372076 1.73027456 0.743347704 -0.226109818 1.68546581 0.746619523 -0.250486672 1.68554795 0.743965745 -0.279352427 1.69765353 0.742922902 -0.280121684 1.69353414 0.746619523 -0.250486672 1.68554795 0.742267311 -0.262581319 1.68479836 0.734023333 -0.247586116 1.67555821 0.747165859 -0.241433203 1.68572187 0.746619523 -0.250486672 1.68554795 0.734023333 -0.247586116 1.67555821 0.630640447 -0.195167303 1.68915558 0.636214912 -0.187604681 1.69077694 0.636479616 -0.189824671 1.68791902 0.648178279 -0.176380798 1.68954372 0.636479616 -0.189824671 1.68791902 0.636214912 -0.187604681 1.69077694 0.624309003 -0.205536366 1.68759429 0.636479616 -0.189824671 1.68791902 0.640961111 -0.187968895 1.68648469 0.648457229 -0.174568579 1.69990075 0.644576371 -0.178175449 1.69396293 0.638113379 -0.184739873 1.7007184 0.626158059 -0.198630139 1.70012641 0.630198538 -0.193493471 1.69374561 0.62195003 -0.204122007 1.69647479 0.630198538 -0.193493471 1.69374561 0.644576371 -0.178175449 1.69396293 0.636214912 -0.187604681 1.69077694 0.638113379 -0.184739873 1.7007184 0.630198538 -0.193493471 1.69374561 0.626158059 -0.198630139 1.70012641 0.666303992 -0.164466202 1.70565784 0.665100694 -0.163353816 1.70396221 0.65749383 -0.16871047 1.70391595 0.656564891 -0.168390885 1.69171751 0.663271129 -0.162659004 1.69655597 0.663903832 -0.162749559 1.69295144 0.735138237 -0.21366854 1.68565738 0.739832401 -0.219381779 1.68580914 0.725800693 -0.22313723 1.67555845 0.743347704 -0.226109818 1.68546581 0.731775105 -0.232412294 1.67556012 0.739832401 -0.219381779 1.68580914 0.725800693 -0.22313723 1.67555845 0.739832401 -0.219381779 1.68580914 0.731775105 -0.232412294 1.67556012 0.665406942 -0.162715837 1.69975698 0.665714979 -0.162883028 1.69305587 0.663903832 -0.162749559 1.69295144 0.653576314 -0.174050093 1.70567417 0.666303992 -0.164466202 1.70565784 0.65749383 -0.16871047 1.70391595 0.623232007 -0.207536831 1.70415056 0.623922706 -0.206824556 1.70565009 0.622379005 -0.204737917 1.70231736 0.623922706 -0.206824556 1.70565009 0.62341553 -0.205218405 1.70454037 0.622379005 -0.204737917 1.70231736 0.63027662 -0.196787089 1.70499516 0.62341553 -0.205218405 1.70454037 0.623922706 -0.206824556 1.70565009 0.666327238 -0.164864331 1.68729651 0.664289594 -0.164204061 1.68863225 0.665081561 -0.163368925 1.6895026 0.656564891 -0.168390885 1.69171751 0.665081561 -0.163368925 1.6895026 0.664289594 -0.164204061 1.68863225 0.663903832 -0.162749559 1.69295144 0.665081561 -0.163368925 1.6895026 0.656564891 -0.168390885 1.69171751 0.730757236 -0.209642634 1.68560767 0.725800693 -0.22313723 1.67555845 0.717912018 -0.216883779 1.67553341 0.688285172 -0.285074741 1.68549216 0.696378767 -0.273754299 1.67553782 0.694894671 -0.286996484 1.68572903 0.663903832 -0.162749559 1.69295144 0.663271129 -0.162659004 1.69655597 0.665406942 -0.162715837 1.69975698 0.665406942 -0.162715837 1.69975698 0.663271129 -0.162659004 1.69655597 0.663598418 -0.162759542 1.70069575 0.665100694 -0.163353816 1.70396221 0.667905688 -0.163995624 1.70293927 0.665406942 -0.162715837 1.69975698 0.63027662 -0.196787089 1.70499516 0.639437437 -0.188034222 1.70586538 0.638899624 -0.185883537 1.70400298 0.735138237 -0.21366854 1.68565738 0.725800693 -0.22313723 1.67555845 0.730757236 -0.209642634 1.68560767 0.743347704 -0.226109818 1.68546581 0.743272841 -0.225372076 1.73027456 0.746222317 -0.234806493 1.68555045 0.746501327 -0.235323995 1.7302736 0.746222317 -0.234806493 1.68555045 0.743272841 -0.225372076 1.73027456 0.638113379 -0.184739873 1.7007184 0.644576371 -0.178175449 1.69396293 0.630198538 -0.193493471 1.69374561 0.66987741 -0.272497594 1.68564367 0.676190615 -0.278385639 1.68555832 0.675487638 -0.278131127 1.73027349 0.63027662 -0.196787089 1.70499516 0.629051805 -0.195977584 1.70263708 0.62341553 -0.205218405 1.70454037 0.622379005 -0.204737917 1.70231736 0.62341553 -0.205218405 1.70454037 0.629051805 -0.195977584 1.70263708 0.746619523 -0.250486672 1.68554795 0.747165859 -0.241433203 1.68572187 0.747269273 -0.245469406 1.73029709 0.743965745 -0.279352427 1.69765353 0.746619523 -0.250486672 1.68554795 0.747269273 -0.245469406 1.73029709 0.706181288 -0.200028464 1.73034763 0.689525843 -0.201835036 1.730335 0.724698961 -0.28222248 1.73035121 0.66859895 -0.271076143 1.73019791 0.675487638 -0.278131127 1.73027349 0.724698961 -0.28222248 1.73035121 0.67208463 -0.212633416 1.73033583 0.660699904 -0.231773078 1.73031604 0.724698961 -0.28222248 1.73035121 0.659466386 -0.247315481 1.73031664 0.724698961 -0.28222248 1.73035121 0.660699904 -0.231773078 1.73031604 0.684972107 -0.283975214 1.73022985 0.69471693 -0.287111193 1.7302314 0.724698961 -0.28222248 1.73035121 0.740247488 -0.267734379 1.73029447 0.74595952 -0.254292428 1.73030603 0.724698961 -0.28222248 1.73035121 0.731992006 -0.210523352 1.73025346 0.726436794 -0.206382617 1.73027396 0.724698961 -0.28222248 1.73035121 0.737708092 -0.216317564 1.73025811 0.731992006 -0.210523352 1.73025346 0.724698961 -0.28222248 1.73035121 0.747269273 -0.245469406 1.73029709 0.724698961 -0.28222248 1.73035121 0.74595952 -0.254292428 1.73030603 0.704252005 -0.287878305 1.73027158 0.724698961 -0.28222248 1.73035121 0.69471693 -0.287111193 1.7302314 0.675487638 -0.278131127 1.73027349 0.684972107 -0.283975214 1.73022985 0.724698961 -0.28222248 1.73035121 0.706181288 -0.200028464 1.73034763 0.724698961 -0.28222248 1.73035121 0.716507375 -0.201974347 1.73034918 0.67208463 -0.212633416 1.73033583 0.724698961 -0.28222248 1.73035121 0.689525843 -0.201835036 1.730335 0.746501327 -0.235323995 1.7302736 0.724698961 -0.28222248 1.73035121 0.747269273 -0.245469406 1.73029709 0.715015769 -0.286257446 1.73029447 0.724698961 -0.28222248 1.73035121 0.704252005 -0.287878305 1.73027158 0.66264689 -0.261084557 1.73027825 0.724698961 -0.28222248 1.73035121 0.659466386 -0.247315481 1.73031664 0.716507375 -0.201974347 1.73034918 0.724698961 -0.28222248 1.73035121 0.726436794 -0.206382617 1.73027396 0.743272841 -0.225372076 1.73027456 0.737708092 -0.216317564 1.73025811 0.724698961 -0.28222248 1.73035121 0.740247488 -0.267734379 1.73029447 0.724698961 -0.28222248 1.73035121 0.733208954 -0.276043832 1.73032176 0.66264689 -0.261084557 1.73027825 0.66859895 -0.271076143 1.73019791 0.724698961 -0.28222248 1.73035121 0.746501327 -0.235323995 1.7302736 0.743272841 -0.225372076 1.73027456 0.724698961 -0.28222248 1.73035121 0.703757584 -0.213020846 1.67554605 0.696378767 -0.273754299 1.67553782 0.672181308 -0.245342255 1.6755259 0.734023333 -0.247586116 1.67555821 0.696378767 -0.273754299 1.67553782 0.703757584 -0.213020846 1.67554605 </float_array>
          <technique_common>
            <accessor count="600" offset="0" source="#mesh_0-positions-array" stride="3">
              <param name="X" type="float" />
              <param name="Y" type="float" />
              <param name="Z" type="float" />
            </accessor>
          </technique_common>
        </source>
        <vertices id="mesh_0-vertices">
          <input semantic="POSITION" source="#mesh_0-positions" />
        </vertices>
        <polylist count="200" material="defaultMaterial">
          <input offset="0" semantic="VERTEX" source="#mesh_0-vertices" />
          <vcount>3 3 3 3 3 3 3 3 3 3 3 3 3 3 3 3 3 3 3 3 3 3 3 3 3 3 3 3 3 3 3 3 3 3 3 3 3 3 3 3 3 3 3 3 3 3 3 3 3 3 3 3 3 3 3 3 3 3 3 3 3 3 3 3 3 3 3 3 3 3 3 3 3 3 3 3 3 3 3 3 3 3 3 3 3 3 3 3 3 3 3 3 3 3 3 3 3 3 3 3 3 3 3 3 3 3 3 3 3 3 3 3 3 3 3 3 3 3 3 3 3 3 3 3 3 3 3 3 3 3 3 3 3 3 3 3 3 3 3 3 3 3 3 3 3 3 3 3 3 3 3 3 3 3 3 3 3 3 3 3 3 3 3 3 3 3 3 3 3 3 3 3 3 3 3 3 3 3 3 3 3 3 3 3 3 3 3 3 3 3 3 3 3 3 3 3 3 3 3 3 </vcount>
          <p>0 1 2 3 4 5 6 7 8 9 10 11 12 13 14 15 16 17 18 19 20 21 22 23 24 25 26 27 28 29 30 31 32 33 34 35 36 37 38 39 40 41 42 43 44 45 46 47 48 49 50 51 52 53 54 55 56 57 58 59 60 61 62 63 64 65 66 67 68 69 70 71 72 73 74 75 76 77 78 79 80 81 82 83 84 85 86 87 88 89 90 91 92 93 94 95 96 97 98 99 100 101 102 103 104 105 106 107 108 109 110 111 112 113 114 115 116 117 118 119 120 121 122 123 124 125 126 127 128 129 130 131 132 133 134 135 136 137 138 139 140 141 142 143 144 145 146 147 148 149 150 151 152 153 154 155 156 157 158 159 160 161 162 163 164 165 166 167 168 169 170 171 172 173 174 175 176 177 178 179 180 181 182 183 184 185 186 187 188 189 190 191 192 193 194 195 196 197 198 199 200 201 202 203 204 205 206 207 208 209 210 211 212 213 214 215 216 217 218 219 220 221 222 223 224 225 226 227 228 229 230 231 232 233 234 235 236 237 238 239 240 241 242 243 244 245 246 247 248 249 250 251 252 253 254 255 256 257 258 259 260 261 262 263 264 265 266 267 268 269 270 271 272 273 274 275 276 277 278 279 280 281 282 283 284 285 286 287 288 289 290 291 292 293 294 295 296 297 298 299 300 301 302 303 304 305 306 307 308 309 310 311 312 313 314 315 316 317 318 319 320 321 322 323 324 325 326 327 328 329 330 331 332 333 334 335 336 337 338 339 340 341 342 343 344 345 346 347 348 349 350 351 352 353 354 355 356 357 358 359 360 361 362 363 364 365 366 367 368 369 370 371 372 373 374 375 376 377 378 379 380 381 382 383 384 385 386 387 388 389 390 391 392 393 394 395 396 397 398 399 400 401 402 403 404 405 406 407 408 409 410 411 412 413 414 415 416 417 418 419 420 421 422 423 424 425 426 427 428 429 430 431 432 433 434 435 436 437 438 439 440 441 442 443 444 445 446 447 448 449 450 451 452 453 454 455 456 457 458 459 460 461 462 463 464 465 466 467 468 469 470 471 472 473 474 475 476 477 478 479 480 481 482 483 484 485 486 487 488 489 490 491 492 493 494 495 496 497 498 499 500 501 502 503 504 505 506 507 508 509 510 511 512 513 514 515 516 517 518 519 520 521 522 523 524 525 526 527 528 529 530 531 532 533 534 535 536 537 538 539 540 541 542 543 544 545 546 547 548 549 550 551 552 553 554 555 556 557 558 559 560 561 562 563 564 565 566 567 568 569 570 571 572 573 574 575 576 577 578 579 580 581 582 583 584 585 586 587 588 589 590 591 592 593 594 595 596 597 598 599 </p>
        </polylist>
      </mesh>
    </geometry>
  </library_geometries>
  <library_controllers>
  </library_controllers>
  <library_visual_scenes>
    <visual_scene id="Scene" name="Scene">
      <node id="node" name="" type="NODE">
        <matrix sid="matrix">1 0 0 0 0 1 0 0 0 0 1 0 0 0 0 1</matrix>
        <instance_geometry url="#mesh_0">
          <bind_material>
            <technique_common>
              <instance_material symbol="defaultMaterial" target="#material_0">
              </instance_material>
            </technique_common>
          </bind_material>
        </instance_geometry>
      </node>
    </visual_scene>
  </library_visual_scenes>
  <scene>
    <instance_visual_scene url="#Scene" />
  </scene>
</COLLADA>
