<?xml version="1.0" encoding="UTF-8" standalone="no" ?>
<COLLADA xmlns="http://www.collada.org/2005/11/COLLADASchema" version="1.4.1">
  <asset>
    <contributor>
      <author>Assimp</author>
      <authoring_tool>Assimp Exporter</authoring_tool>
    </contributor>
    <created>2026-04-22T16:09:43</created>
    <modified>2026-04-22T16:09:43</modified>
    <unit name="meter" meter="1" />
    <up_axis>Y_UP</up_axis>
  </asset>
  <library_images>
  </library_images>
  <library_effects>
    <effect id="material_0-fx" name="">
      <profile_COMMON>
        <technique sid="standard">
          <phong>
            <emission>
              <color sid="emission">0   0   0   0</color>
            </emission>
            <ambient>
              <color sid="ambient">0.360000014   0.670545638   0.61352545   4.19744942e-41</color>
            </ambient>
            <diffuse>
              <color sid="diffuse">0.360000014   0.670545638   0.61352545   4.19744942e-41</color>
            </diffuse>
            <specular>
              <color sid="specular">0.25   0.25   0.25   0</color>
            </specular>
          </phong>
        </technique>
      </profile_COMMON>
    </effect>
  </library_effects>
  <library_materials>
    <material id="material_0" name="">
      <instance_effect url="#material_0-fx"/>
    </material>
  </library_materials>
  <library_geometries>
    <geometry id="mesh_0" name="" >
      <mesh>
        <source id="mesh_0-positions" name="mesh_0-positions">
          <float_array id="mesh_0-positions-array" count="1800"> -0.769188166 -0.176005572 0.729982316 -0.696880579 -0.0729458258 0.731354773 -0.696394444 -0.082665801 0.73136425 -0.768478632 0.0132786166 0.730008423 -0.696880579 -0.0729458258 0.731354773 -0.769188166 -0.176005572 0.729982316 -0.696394444 -0.082665801 0.73136425 -0.697296798 -0.0929544643 0.731348217 -0.769188166 -0.176005572 0.729982316 -0.903092682 -0.147262529 0.737534702 -0.904266298 -0.147337452 0.730015159 -0.899586141 -0.150190949 0.730014324 -0.713626146 -0.128340706 0.73106277 -0.769188166 -0.176005572 0.729982316 -0.706016541 -0.11737036 0.731195986 -0.769188166 -0.176005572 0.729982316 -0.700602174 -0.105918929 0.731291056 -0.706016541 -0.11737036 0.731195986 -0.71530968 -0.0977479294 0.870014727 -0.713106751 -0.076920189 0.870014846 -0.822928011 -0.0779346749 0.870014906 -0.713106751 -0.076920189 0.870014846 -0.728859901 -0.0426429063 0.870015025 -0.822928011 -0.0779346749 0.870014906 -0.696880579 -0.0729458258 0.731354773 -0.713106751 -0.076920189 0.870014846 -0.696394444 -0.082665801 0.73136425 -0.760183394 -0.172463536 0.738476753 -0.713626146 -0.128340706 0.73106277 -0.728394926 -0.119861476 0.870017648 -0.822928011 -0.0779346749 0.870014906 -0.797298491 -0.128036961 0.870015621 -0.767612219 -0.13647376 0.870014668 -0.699342847 -0.0605740473 0.731312573 -0.696880579 -0.0729458258 0.731354773 -0.768478632 0.0132786166 0.730008423 -0.704374313 -0.0483987741 0.731224716 -0.699342847 -0.0605740473 0.731312573 -0.768478632 0.0132786166 0.730008423 -0.715383112 -0.0326207913 0.731032372 -0.709371388 -0.0401505828 0.731137514 -0.768478632 0.0132786166 0.730008423 -0.709371388 -0.0401505828 0.731137514 -0.704374313 -0.0483987741 0.731224716 -0.768478632 0.0132786166 0.730008423 -0.769188166 -0.176005572 0.729982316 -0.697296798 -0.0929544643 0.731348217 -0.700602174 -0.105918929 0.731291056 -0.713106751 -0.076920189 0.870014846 -0.717013896 -0.0606032386 0.870014727 -0.728859901 -0.0426429063 0.870015025 -0.699342847 -0.0605740473 0.731312573 -0.704374313 -0.0483987741 0.731224716 -0.717013896 -0.0606032386 0.870014727 -0.789814234 -0.0307069607 0.870014548 -0.799667299 -0.0363818817 0.870014846 -0.822928011 -0.0779346749 0.870014906 -0.728859901 -0.0426429063 0.870015025 -0.736245275 -0.0363410898 0.870014906 -0.822928011 -0.0779346749 0.870014906 -0.822928011 -0.0779346749 0.870014906 -0.763103724 -0.0264336597 0.870014369 -0.789814234 -0.0307069607 0.870014548 -0.776826739 -0.0270332079 0.870016873 -0.789814234 -0.0307069607 0.870014548 -0.763103724 -0.0264336597 0.870014369 -0.740280867 -0.129071727 0.870015025 -0.728394926 -0.119861476 0.870017648 -0.822928011 -0.0779346749 0.870014906 -0.822727382 -0.0868577138 0.870015025 -0.820845187 -0.0969768539 0.870014489 -0.822928011 -0.0779346749 0.870014906 -0.890576184 -0.0757558495 0.791163564 -0.890672863 -0.087536104 0.790971816 -0.822928011 -0.0779346749 0.870014906 -0.822928011 -0.0779346749 0.870014906 -0.890672863 -0.087536104 0.790971816 -0.822727382 -0.0868577138 0.870015025 -0.753591299 -0.134640679 0.870014071 -0.740280867 -0.129071727 0.870015025 -0.822928011 -0.0779346749 0.870014906 -0.767612219 -0.13647376 0.870014668 -0.753591299 -0.134640679 0.870014071 -0.822928011 -0.0779346749 0.870014906 -0.839636445 -0.157012343 0.787535191 -0.797298491 -0.128036961 0.870015621 -0.879196286 -0.128869057 0.789069951 -0.904266298 -0.147337452 0.730015159 -0.903092682 -0.147262529 0.737534702 -0.905785263 -0.143828049 0.737567544 -0.901659906 -0.0144597245 0.737429857 -0.903791487 -0.0150767015 0.730015635 -0.904254198 -0.0167747084 0.737581193 -0.899573505 -0.0125445705 0.730015576 -0.903791487 -0.0150767015 0.730015635 -0.901659906 -0.0144597245 0.737429857 -0.768478632 0.0132786166 0.730008423 -0.76478982 0.0119578447 0.738646269 -0.763874888 0.0125899324 0.730185509 -0.728394926 -0.119861476 0.870017648 -0.72048527 -0.109317683 0.870014906 -0.822928011 -0.0779346749 0.870014906 -0.713626146 -0.128340706 0.73106277 -0.72048527 -0.109317683 0.870014906 -0.728394926 -0.119861476 0.870017648 -0.706016541 -0.11737036 0.731195986 -0.72048527 -0.109317683 0.870014906 -0.713626146 -0.128340706 0.73106277 -0.822928011 -0.0779346749 0.870014906 -0.72048527 -0.109317683 0.870014906 -0.71530968 -0.0977479294 0.870014727 -0.700602174 -0.105918929 0.731291056 -0.72048527 -0.109317683 0.870014906 -0.706016541 -0.11737036 0.731195986 -0.71530968 -0.0977479294 0.870014727 -0.72048527 -0.109317683 0.870014906 -0.700602174 -0.105918929 0.731291056 -0.704374313 -0.0483987741 0.731224716 -0.709371388 -0.0401505828 0.731137514 -0.72171396 -0.0513592437 0.870014787 -0.713106751 -0.076920189 0.870014846 -0.713084638 -0.0859576911 0.870014668 -0.696394444 -0.082665801 0.73136425 -0.71530968 -0.0977479294 0.870014727 -0.713084638 -0.0859576911 0.870014668 -0.713106751 -0.076920189 0.870014846 -0.789814234 -0.0307069607 0.870014548 -0.776826739 -0.0270332079 0.870016873 -0.897120535 -0.0127082299 0.73745966 -0.822928011 -0.0779346749 0.870014906 -0.815665126 -0.0537955463 0.870014727 -0.820822299 -0.0656813011 0.870014787 -0.747941196 -0.029945612 0.870014071 -0.763103724 -0.0264336597 0.870014369 -0.822928011 -0.0779346749 0.870014906 -0.736245275 -0.0363410898 0.870014906 -0.747941196 -0.029945612 0.870014071 -0.822928011 -0.0779346749 0.870014906 -0.761472464 -0.00787257776 0.81109488 -0.776826739 -0.0270332079 0.870016873 -0.763103724 -0.0264336597 0.870014369 -0.713626146 -0.128340706 0.73106277 -0.759693563 -0.173216507 0.73025775 -0.769188166 -0.176005572 0.729982316 -0.820845187 -0.0969768539 0.870014489 -0.814398527 -0.111295559 0.870014608 -0.822928011 -0.0779346749 0.870014906 -0.908004463 -0.0206691176 0.730014682 -0.904254198 -0.0167747084 0.737581193 -0.903791487 -0.0150767015 0.730015635 -0.7602669 0.0108796814 0.730249107 -0.763874888 0.0125899324 0.730185509 -0.76478982 0.0119578447 0.738646269 -0.768478632 0.0132786166 0.730008423 -0.763874888 0.0125899324 0.730185509 -0.7602669 0.0108796814 0.730249107 -0.769560754 0.0122403931 0.738506675 -0.76478982 0.0119578447 0.738646269 -0.768478632 0.0132786166 0.730008423 -0.761472464 -0.00787257776 0.81109488 -0.76478982 0.0119578447 0.738646269 -0.769560754 0.0122403931 0.738506675 -0.7602669 0.0108796814 0.730249107 -0.715383112 -0.0326207913 0.731032372 -0.768478632 0.0132786166 0.730008423 -0.7602669 0.0108796814 0.730249107 -0.760617435 0.0100547737 0.73833257 -0.715383112 -0.0326207913 0.731032372 -0.760617435 0.0100547737 0.73833257 -0.728859901 -0.0426429063 0.870015025 -0.715383112 -0.0326207913 0.731032372 -0.916769028 -0.123446465 0.730014741 -0.917205453 -0.118577875 0.73783195 -0.920539737 -0.106209405 0.73001498 -0.717013896 -0.0606032386 0.870014727 -0.72171396 -0.0513592437 0.870014787 -0.728859901 -0.0426429063 0.870015025 -0.717013896 -0.0606032386 0.870014727 -0.704374313 -0.0483987741 0.731224716 -0.72171396 -0.0513592437 0.870014787 -0.713084638 -0.0859576911 0.870014668 -0.697296798 -0.0929544643 0.731348217 -0.696394444 -0.082665801 0.73136425 -0.697296798 -0.0929544643 0.731348217 -0.71530968 -0.0977479294 0.870014727 -0.700602174 -0.105918929 0.731291056 -0.897120535 -0.0127082299 0.73745966 -0.768478632 0.0132786166 0.730008423 -0.899573505 -0.0125445705 0.730015576 -0.768478632 0.0132786166 0.730008423 -0.897120535 -0.0127082299 0.73745966 -0.769560754 0.0122403931 0.738506675 -0.776826739 -0.0270332079 0.870016873 -0.761472464 -0.00787257776 0.81109488 -0.769560754 0.0122403931 0.738506675 -0.901659906 -0.0144597245 0.737429857 -0.799667299 -0.0363818817 0.870014846 -0.789814234 -0.0307069607 0.870014548 -0.747941196 -0.029945612 0.870014071 -0.736245275 -0.0363410898 0.870014906 -0.758884907 -0.00767671363 0.808469713 -0.713626146 -0.128340706 0.73106277 -0.760183394 -0.172463536 0.738476753 -0.759693563 -0.173216507 0.73025775 -0.890672863 -0.087536104 0.790971816 -0.889634669 -0.096128501 0.791432619 -0.822727382 -0.0868577138 0.870015025 -0.753591299 -0.134640679 0.870014071 -0.767612219 -0.13647376 0.870014668 -0.761179745 -0.154923409 0.810990512 -0.879196286 -0.128869057 0.789069951 -0.903092682 -0.147262529 0.737534702 -0.839636445 -0.157012343 0.787535191 -0.899586141 -0.150190949 0.730014324 -0.898912191 -0.149531901 0.737682879 -0.903092682 -0.147262529 0.737534702 -0.903092682 -0.147262529 0.737534702 -0.898912191 -0.149531901 0.737682879 -0.839636445 -0.157012343 0.787535191 -0.797298491 -0.128036961 0.870015621 -0.786878586 -0.133146793 0.870014548 -0.767612219 -0.13647376 0.870014668 -0.777045667 -0.135688931 0.870014548 -0.767612219 -0.13647376 0.870014668 -0.786878586 -0.133146793 0.870014548 -0.786878586 -0.133146793 0.870014548 -0.833859861 -0.157939494 0.788994133 -0.777045667 -0.135688931 0.870014548 -0.879196286 -0.128869057 0.789069951 -0.80565697 -0.12152949 0.870014787 -0.814398527 -0.111295559 0.870014608 -0.911433101 -0.136253536 0.730014801 -0.913413346 -0.129987925 0.737697303 -0.916769028 -0.123446465 0.730014741 -0.888261855 -0.104936652 0.791524708 -0.886570573 -0.112441823 0.791354895 -0.820845187 -0.0969768539 0.870014489 -0.814398527 -0.111295559 0.870014608 -0.882722735 -0.123358071 0.79019326 -0.879196286 -0.128869057 0.789069951 -0.7602669 0.0108796814 0.730249107 -0.76478982 0.0119578447 0.738646269 -0.760617435 0.0100547737 0.73833257 -0.922040105 -0.0869334713 0.730014443 -0.920686722 -0.0951910168 0.738206267 -0.921126962 -0.0834275559 0.738365591 -0.920539737 -0.106209405 0.73001498 -0.920686722 -0.0951910168 0.738206267 -0.922040105 -0.0869334713 0.730014443 -0.910078466 -0.0258449018 0.737643242 -0.904254198 -0.0167747084 0.737581193 -0.908004463 -0.0206691176 0.730014682 -0.714407027 -0.068573378 0.870014727 -0.717013896 -0.0606032386 0.870014727 -0.713106751 -0.076920189 0.870014846 -0.717013896 -0.0606032386 0.870014727 -0.714407027 -0.068573378 0.870014727 -0.699342847 -0.0605740473 0.731312573 -0.696880579 -0.0729458258 0.731354773 -0.714407027 -0.068573378 0.870014727 -0.713106751 -0.076920189 0.870014846 -0.699342847 -0.0605740473 0.731312573 -0.714407027 -0.068573378 0.870014727 -0.696880579 -0.0729458258 0.731354773 -0.728859901 -0.0426429063 0.870015025 -0.72171396 -0.0513592437 0.870014787 -0.715383112 -0.0326207913 0.731032372 -0.715383112 -0.0326207913 0.731032372 -0.72171396 -0.0513592437 0.870014787 -0.709371388 -0.0401505828 0.731137514 -0.713084638 -0.0859576911 0.870014668 -0.71530968 -0.0977479294 0.870014727 -0.697296798 -0.0929544643 0.731348217 -0.789814234 -0.0307069607 0.870014548 -0.897120535 -0.0127082299 0.73745966 -0.901659906 -0.0144597245 0.737429857 -0.769560754 0.0122403931 0.738506675 -0.897120535 -0.0127082299 0.73745966 -0.776826739 -0.0270332079 0.870016873 -0.901659906 -0.0144597245 0.737429857 -0.877944708 -0.0327806175 0.788894415 -0.799667299 -0.0363818817 0.870014846 -0.760617435 0.0100547737 0.73833257 -0.76478982 0.0119578447 0.738646269 -0.758884907 -0.00767671363 0.808469713 -0.760617435 0.0100547737 0.73833257 -0.758884907 -0.00767671363 0.808469713 -0.736245275 -0.0363410898 0.870014906 -0.764292002 -0.174640998 0.738490462 -0.759693563 -0.173216507 0.73025775 -0.760183394 -0.172463536 0.738476753 -0.764292002 -0.174640998 0.738490462 -0.764465749 -0.175607517 0.730192542 -0.759693563 -0.173216507 0.73025775 -0.759693563 -0.173216507 0.73025775 -0.764465749 -0.175607517 0.730192542 -0.769188166 -0.176005572 0.729982316 -0.760183394 -0.172463536 0.738476753 -0.758895576 -0.155099809 0.808611035 -0.764292002 -0.174640998 0.738490462 -0.740280867 -0.129071727 0.870015025 -0.758895576 -0.155099809 0.808611035 -0.760183394 -0.172463536 0.738476753 -0.839636445 -0.157012343 0.787535191 -0.786878586 -0.133146793 0.870014548 -0.797298491 -0.128036961 0.870015621 -0.833859861 -0.157939494 0.788994133 -0.786878586 -0.133146793 0.870014548 -0.839636445 -0.157012343 0.787535191 -0.899586141 -0.150190949 0.730014324 -0.839636445 -0.157012343 0.787535191 -0.898912191 -0.149531901 0.737682879 -0.769188166 -0.176005572 0.729982316 -0.839636445 -0.157012343 0.787535191 -0.899586141 -0.150190949 0.730014324 -0.833859861 -0.157939494 0.788994133 -0.839636445 -0.157012343 0.787535191 -0.769188166 -0.176005572 0.729982316 -0.879196286 -0.128869057 0.789069951 -0.797298491 -0.128036961 0.870015621 -0.80565697 -0.12152949 0.870014787 -0.80565697 -0.12152949 0.870014787 -0.797298491 -0.128036961 0.870015621 -0.822928011 -0.0779346749 0.870014906 -0.814398527 -0.111295559 0.870014608 -0.80565697 -0.12152949 0.870014787 -0.822928011 -0.0779346749 0.870014906 -0.913413346 -0.129987925 0.737697303 -0.882722735 -0.123358071 0.79019326 -0.884965777 -0.118029602 0.790851235 -0.904266298 -0.147337452 0.730015159 -0.905785263 -0.143828049 0.737567544 -0.911433101 -0.136253536 0.730014801 -0.916769028 -0.123446465 0.730014741 -0.913413346 -0.129987925 0.737697303 -0.917205453 -0.118577875 0.73783195 -0.760617435 0.0100547737 0.73833257 -0.736245275 -0.0363410898 0.870014906 -0.728859901 -0.0426429063 0.870015025 -0.920539737 -0.106209405 0.73001498 -0.917205453 -0.118577875 0.73783195 -0.91954881 -0.106225066 0.738062561 -0.91954881 -0.106225066 0.738062561 -0.920686722 -0.0951910168 0.738206267 -0.920539737 -0.106209405 0.73001498 -0.920371532 -0.0555642918 0.730014801 -0.921802819 -0.0708160773 0.730014801 -0.919981837 -0.0596113652 0.738124371 -0.820822299 -0.0656813011 0.870014787 -0.889110029 -0.063254036 0.791585088 -0.822928011 -0.0779346749 0.870014906 -0.901659906 -0.0144597245 0.737429857 -0.897120535 -0.0127082299 0.73745966 -0.899573505 -0.0125445705 0.730015576 -0.822928011 -0.0779346749 0.870014906 -0.799667299 -0.0363818817 0.870014846 -0.808046639 -0.043558158 0.870014727 -0.901659906 -0.0144597245 0.737429857 -0.904254198 -0.0167747084 0.737581193 -0.877944708 -0.0327806175 0.788894415 -0.904254198 -0.0167747084 0.737581193 -0.881199241 -0.0366768688 0.789699614 -0.877944708 -0.0327806175 0.788894415 -0.761472464 -0.00787257776 0.81109488 -0.758884907 -0.00767671363 0.808469713 -0.76478982 0.0119578447 0.738646269 -0.747941196 -0.029945612 0.870014071 -0.761472464 -0.00787257776 0.81109488 -0.763103724 -0.0264336597 0.870014369 -0.758884907 -0.00767671363 0.808469713 -0.761472464 -0.00787257776 0.81109488 -0.747941196 -0.029945612 0.870014071 -0.740280867 -0.129071727 0.870015025 -0.760183394 -0.172463536 0.738476753 -0.728394926 -0.119861476 0.870017648 -0.761179745 -0.154923409 0.810990512 -0.758895576 -0.155099809 0.808611035 -0.753591299 -0.134640679 0.870014071 -0.740280867 -0.129071727 0.870015025 -0.753591299 -0.134640679 0.870014071 -0.758895576 -0.155099809 0.808611035 -0.833859861 -0.157939494 0.788994133 -0.769188166 -0.176005572 0.729982316 -0.768828034 -0.175128683 0.738193035 -0.764465749 -0.175607517 0.730192542 -0.768828034 -0.175128683 0.738193035 -0.769188166 -0.176005572 0.729982316 -0.882722735 -0.123358071 0.79019326 -0.913413346 -0.129987925 0.737697303 -0.909803748 -0.137351021 0.737631857 -0.909803748 -0.137351021 0.737631857 -0.913413346 -0.129987925 0.737697303 -0.911433101 -0.136253536 0.730014801 -0.903092682 -0.147262529 0.737534702 -0.879196286 -0.128869057 0.789069951 -0.882722735 -0.123358071 0.79019326 -0.905785263 -0.143828049 0.737567544 -0.909803748 -0.137351021 0.737631857 -0.911433101 -0.136253536 0.730014801 -0.884965777 -0.118029602 0.790851235 -0.814398527 -0.111295559 0.870014608 -0.820845187 -0.0969768539 0.870014489 -0.886570573 -0.112441823 0.791354895 -0.884965777 -0.118029602 0.790851235 -0.820845187 -0.0969768539 0.870014489 -0.920371532 -0.0555642918 0.730014801 -0.917595863 -0.0458101854 0.737883627 -0.917251468 -0.0411418416 0.730015159 -0.890576184 -0.0757558495 0.791163564 -0.920910537 -0.0713228881 0.738234699 -0.921126962 -0.0834275559 0.738365591 -0.922040105 -0.0869334713 0.730014443 -0.920910537 -0.0713228881 0.738234699 -0.921802819 -0.0708160773 0.730014801 -0.921126962 -0.0834275559 0.738365591 -0.920910537 -0.0713228881 0.738234699 -0.922040105 -0.0869334713 0.730014443 -0.921802819 -0.0708160773 0.730014801 -0.920910537 -0.0713228881 0.738234699 -0.919981837 -0.0596113652 0.738124371 -0.913338184 -0.0304993987 0.730014682 -0.910078466 -0.0258449018 0.737643242 -0.908004463 -0.0206691176 0.730014682 -0.808046639 -0.043558158 0.870014727 -0.815665126 -0.0537955463 0.870014727 -0.822928011 -0.0779346749 0.870014906 -0.815665126 -0.0537955463 0.870014727 -0.881199241 -0.0366768688 0.789699614 -0.883671105 -0.0417973213 0.790725946 -0.808046639 -0.043558158 0.870014727 -0.881199241 -0.0366768688 0.789699614 -0.815665126 -0.0537955463 0.870014727 -0.799667299 -0.0363818817 0.870014846 -0.877944708 -0.0327806175 0.788894415 -0.808046639 -0.043558158 0.870014727 -0.881199241 -0.0366768688 0.789699614 -0.808046639 -0.043558158 0.870014727 -0.877944708 -0.0327806175 0.788894415 -0.888261855 -0.104936652 0.791524708 -0.889634669 -0.096128501 0.791432619 -0.91954881 -0.106225066 0.738062561 -0.761179745 -0.154923409 0.810990512 -0.764292002 -0.174640998 0.738490462 -0.758895576 -0.155099809 0.808611035 -0.768828034 -0.175128683 0.738193035 -0.761179745 -0.154923409 0.810990512 -0.791072607 -0.157364279 0.798983097 -0.909803748 -0.137351021 0.737631857 -0.905785263 -0.143828049 0.737567544 -0.882722735 -0.123358071 0.79019326 -0.913413346 -0.129987925 0.737697303 -0.884965777 -0.118029602 0.790851235 -0.917205453 -0.118577875 0.73783195 -0.917205453 -0.118577875 0.73783195 -0.884965777 -0.118029602 0.790851235 -0.886570573 -0.112441823 0.791354895 -0.917205453 -0.118577875 0.73783195 -0.886570573 -0.112441823 0.791354895 -0.888261855 -0.104936652 0.791524708 -0.890576184 -0.0757558495 0.791163564 -0.921126962 -0.0834275559 0.738365591 -0.890672863 -0.087536104 0.790971816 -0.890672863 -0.087536104 0.790971816 -0.920686722 -0.0951910168 0.738206267 -0.889634669 -0.096128501 0.791432619 -0.883671105 -0.0417973213 0.790725946 -0.881199241 -0.0366768688 0.789699614 -0.910078466 -0.0258449018 0.737643242 -0.910078466 -0.0258449018 0.737643242 -0.88519448 -0.0455107465 0.790971816 -0.883671105 -0.0417973213 0.790725946 -0.913338184 -0.0304993987 0.730014682 -0.914133608 -0.0346388519 0.737719178 -0.910078466 -0.0258449018 0.737643242 -0.917251468 -0.0411418416 0.730015159 -0.914133608 -0.0346388519 0.737719178 -0.913338184 -0.0304993987 0.730014682 -0.889634669 -0.096128501 0.791432619 -0.888261855 -0.104936652 0.791524708 -0.822727382 -0.0868577138 0.870015025 -0.888261855 -0.104936652 0.791524708 -0.820845187 -0.0969768539 0.870014489 -0.822727382 -0.0868577138 0.870015025 -0.833859861 -0.157939494 0.788994133 -0.768828034 -0.175128683 0.738193035 -0.791072607 -0.157364279 0.798983097 -0.767612219 -0.13647376 0.870014668 -0.833859861 -0.157939494 0.788994133 -0.791072607 -0.157364279 0.798983097 -0.777045667 -0.135688931 0.870014548 -0.833859861 -0.157939494 0.788994133 -0.767612219 -0.13647376 0.870014668 -0.768828034 -0.175128683 0.738193035 -0.764292002 -0.174640998 0.738490462 -0.761179745 -0.154923409 0.810990512 -0.768828034 -0.175128683 0.738193035 -0.764465749 -0.175607517 0.730192542 -0.764292002 -0.174640998 0.738490462 -0.791072607 -0.157364279 0.798983097 -0.761179745 -0.154923409 0.810990512 -0.767612219 -0.13647376 0.870014668 -0.884965777 -0.118029602 0.790851235 -0.882722735 -0.123358071 0.79019326 -0.814398527 -0.111295559 0.870014608 -0.905785263 -0.143828049 0.737567544 -0.903092682 -0.147262529 0.737534702 -0.882722735 -0.123358071 0.79019326 -0.889634669 -0.096128501 0.791432619 -0.920686722 -0.0951910168 0.738206267 -0.91954881 -0.106225066 0.738062561 -0.920686722 -0.0951910168 0.738206267 -0.890672863 -0.087536104 0.790971816 -0.921126962 -0.0834275559 0.738365591 -0.91954881 -0.106225066 0.738062561 -0.917205453 -0.118577875 0.73783195 -0.888261855 -0.104936652 0.791524708 -0.920371532 -0.0555642918 0.730014801 -0.919981837 -0.0596113652 0.738124371 -0.917595863 -0.0458101854 0.737883627 -0.910078466 -0.0258449018 0.737643242 -0.914133608 -0.0346388519 0.737719178 -0.88519448 -0.0455107465 0.790971816 -0.887375057 -0.0526014753 0.791154504 -0.889110029 -0.063254036 0.791585088 -0.820822299 -0.0656813011 0.870014787 -0.890576184 -0.0757558495 0.791163564 -0.822928011 -0.0779346749 0.870014906 -0.889110029 -0.063254036 0.791585088 -0.881199241 -0.0366768688 0.789699614 -0.904254198 -0.0167747084 0.737581193 -0.910078466 -0.0258449018 0.737643242 -0.917251468 -0.0411418416 0.730015159 -0.917595863 -0.0458101854 0.737883627 -0.914133608 -0.0346388519 0.737719178 -0.815665126 -0.0537955463 0.870014727 -0.883671105 -0.0417973213 0.790725946 -0.820822299 -0.0656813011 0.870014787 -0.88519448 -0.0455107465 0.790971816 -0.820822299 -0.0656813011 0.870014787 -0.883671105 -0.0417973213 0.790725946 -0.887375057 -0.0526014753 0.791154504 -0.820822299 -0.0656813011 0.870014787 -0.88519448 -0.0455107465 0.790971816 -0.919981837 -0.0596113652 0.738124371 -0.920910537 -0.0713228881 0.738234699 -0.890576184 -0.0757558495 0.791163564 -0.890576184 -0.0757558495 0.791163564 -0.889110029 -0.063254036 0.791585088 -0.919981837 -0.0596113652 0.738124371 -0.914133608 -0.0346388519 0.737719178 -0.887375057 -0.0526014753 0.791154504 -0.88519448 -0.0455107465 0.790971816 -0.917595863 -0.0458101854 0.737883627 -0.919981837 -0.0596113652 0.738124371 -0.887375057 -0.0526014753 0.791154504 -0.889110029 -0.063254036 0.791585088 -0.887375057 -0.0526014753 0.791154504 -0.919981837 -0.0596113652 0.738124371 -0.914133608 -0.0346388519 0.737719178 -0.917595863 -0.0458101854 0.737883627 -0.887375057 -0.0526014753 0.791154504 -0.768478632 0.0132786166 0.730008423 -0.769188166 -0.176005572 0.729982316 -0.920371532 -0.0555642918 0.730014801 -0.768478632 0.0132786166 0.730008423 -0.920371532 -0.0555642918 0.730014801 -0.899573505 -0.0125445705 0.730015576 -0.769188166 -0.176005572 0.729982316 -0.899586141 -0.150190949 0.730014324 -0.920371532 -0.0555642918 0.730014801 -0.916769028 -0.123446465 0.730014741 -0.920371532 -0.0555642918 0.730014801 -0.911433101 -0.136253536 0.730014801 -0.922040105 -0.0869334713 0.730014443 -0.920371532 -0.0555642918 0.730014801 -0.920539737 -0.106209405 0.73001498 -0.908004463 -0.0206691176 0.730014682 -0.920371532 -0.0555642918 0.730014801 -0.913338184 -0.0304993987 0.730014682 -0.908004463 -0.0206691176 0.730014682 -0.903791487 -0.0150767015 0.730015635 -0.920371532 -0.0555642918 0.730014801 -0.899573505 -0.0125445705 0.730015576 -0.920371532 -0.0555642918 0.730014801 -0.903791487 -0.0150767015 0.730015635 -0.899586141 -0.150190949 0.730014324 -0.904266298 -0.147337452 0.730015159 -0.920371532 -0.0555642918 0.730014801 -0.920539737 -0.106209405 0.73001498 -0.920371532 -0.0555642918 0.730014801 -0.916769028 -0.123446465 0.730014741 -0.913338184 -0.0304993987 0.730014682 -0.920371532 -0.0555642918 0.730014801 -0.917251468 -0.0411418416 0.730015159 -0.911433101 -0.136253536 0.730014801 -0.920371532 -0.0555642918 0.730014801 -0.904266298 -0.147337452 0.730015159 -0.921802819 -0.0708160773 0.730014801 -0.920371532 -0.0555642918 0.730014801 -0.922040105 -0.0869334713 0.730014443 </float_array>
          <technique_common>
            <accessor count="600" offset="0" source="#mesh_0-positions-array" stride="3">
              <param name="X" type="float" />
              <param name="Y" type="float" />
              <param name="Z" type="float" />
            </accessor>
          </technique_common>
        </source>
        <vertices id="mesh_0-vertices">
          <input semantic="POSITION" source="#mesh_0-positions" />
        </vertices>
        <polylist count="200" material="defaultMaterial">
          <input offset="0" semantic="VERTEX" source="#mesh_0-vertices" />
          <vcount>3 3 3 3 3 3 3 3 3 3 3 3 3 3 3 3 3 3 3 3 3 3 3 3 3 3 3 3 3 3 3 3 3 3 3 3 3 3 3 3 3 3 3 3 3 3 3 3 3 3 3 3 3 3 3 3 3 3 3 3 3 3 3 3 3 3 3 3 3 3 3 3 3 3 3 3 3 3 3 3 3 3 3 3 3 3 3 3 3 3 3 3 3 3 3 3 3 3 3 3 3 3 3 3 3 3 3 3 3 3 3 3 3 3 3 3 3 3 3 3 3 3 3 3 3 3 3 3 3 3 3 3 3 3 3 3 3 3 3 3 3 3 3 3 3 3 3 3 3 3 3 3 3 3 3 3 3 3 3 3 3 3 3 3 3 3 3 3 3 3 3 3 3 3 3 3 3 3 3 3 3 3 3 3 3 3 3 3 3 3 3 3 3 3 3 3 3 3 3 3 </vcount>
          <p>0 1 2 3 4 5 6 7 8 9 10 11 12 13 14 15 16 17 18 19 20 21 22 23 24 25 26 27 28 29 30 31 32 33 34 35 36 37 38 39 40 41 42 43 44 45 46 47 48 49 50 51 52 53 54 55 56 57 58 59 60 61 62 63 64 65 66 67 68 69 70 71 72 73 74 75 76 77 78 79 80 81 82 83 84 85 86 87 88 89 90 91 92 93 94 95 96 97 98 99 100 101 102 103 104 105 106 107 108 109 110 111 112 113 114 115 116 117 118 119 120 121 122 123 124 125 126 127 128 129 130 131 132 133 134 135 136 137 138 139 140 141 142 143 144 145 146 147 148 149 150 151 152 153 154 155 156 157 158 159 160 161 162 163 164 165 166 167 168 169 170 171 172 173 174 175 176 177 178 179 180 181 182 183 184 185 186 187 188 189 190 191 192 193 194 195 196 197 198 199 200 201 202 203 204 205 206 207 208 209 210 211 212 213 214 215 216 217 218 219 220 221 222 223 224 225 226 227 228 229 230 231 232 233 234 235 236 237 238 239 240 241 242 243 244 245 246 247 248 249 250 251 252 253 254 255 256 257 258 259 260 261 262 263 264 265 266 267 268 269 270 271 272 273 274 275 276 277 278 279 280 281 282 283 284 285 286 287 288 289 290 291 292 293 294 295 296 297 298 299 300 301 302 303 304 305 306 307 308 309 310 311 312 313 314 315 316 317 318 319 320 321 322 323 324 325 326 327 328 329 330 331 332 333 334 335 336 337 338 339 340 341 342 343 344 345 346 347 348 349 350 351 352 353 354 355 356 357 358 359 360 361 362 363 364 365 366 367 368 369 370 371 372 373 374 375 376 377 378 379 380 381 382 383 384 385 386 387 388 389 390 391 392 393 394 395 396 397 398 399 400 401 402 403 404 405 406 407 408 409 410 411 412 413 414 415 416 417 418 419 420 421 422 423 424 425 426 427 428 429 430 431 432 433 434 435 436 437 438 439 440 441 442 443 444 445 446 447 448 449 450 451 452 453 454 455 456 457 458 459 460 461 462 463 464 465 466 467 468 469 470 471 472 473 474 475 476 477 478 479 480 481 482 483 484 485 486 487 488 489 490 491 492 493 494 495 496 497 498 499 500 501 502 503 504 505 506 507 508 509 510 511 512 513 514 515 516 517 518 519 520 521 522 523 524 525 526 527 528 529 530 531 532 533 534 535 536 537 538 539 540 541 542 543 544 545 546 547 548 549 550 551 552 553 554 555 556 557 558 559 560 561 562 563 564 565 566 567 568 569 570 571 572 573 574 575 576 577 578 579 580 581 582 583 584 585 586 587 588 589 590 591 592 593 594 595 596 597 598 599 </p>
        </polylist>
      </mesh>
    </geometry>
  </library_geometries>
  <library_controllers>
  </library_controllers>
  <library_visual_scenes>
    <visual_scene id="Scene" name="Scene">
      <node id="node" name="" type="NODE">
        <matrix sid="matrix">1 0 0 0 0 1 0 0 0 0 1 0 0 0 0 1</matrix>
        <instance_geometry url="#mesh_0">
          <bind_material>
            <technique_common>
              <instance_material symbol="defaultMaterial" target="#material_0">
              </instance_material>
            </technique_common>
          </bind_material>
        </instance_geometry>
      </node>
    </visual_scene>
  </library_visual_scenes>
  <scene>
    <instance_visual_scene url="#Scene" />
  </scene>
</COLLADA>
