<?xml version="1.0" encoding="UTF-8" standalone="no" ?>
<COLLADA xmlns="http://www.collada.org/2005/11/COLLADASchema" version="1.4.1">
  <asset>
    <contributor>
      <author>Assimp</author>
      <authoring_tool>Assimp Exporter</authoring_tool>
    </contributor>
    <created>2026-04-22T16:09:43</created>
    <modified>2026-04-22T16:09:43</modified>
    <unit name="meter" meter="1" />
    <up_axis>Y_UP</up_axis>
  </asset>
  <library_images>
  </library_images>
  <library_effects>
    <effect id="material_0-fx" name="">
      <profile_COMMON>
        <technique sid="standard">
          <phong>
            <emission>
              <color sid="emission">0   0   0   4.19744942e-41</color>
            </emission>
            <ambient>
              <color sid="ambient">0.694908023   0.65655452   0.659757793   4.19744942e-41</color>
            </ambient>
            <diffuse>
              <color sid="diffuse">0.694908023   0.65655452   0.659757793   4.19744942e-41</color>
            </diffuse>
            <specular>
              <color sid="specular">0.25   0.25   0.25   4.19744942e-41</color>
            </specular>
          </phong>
        </technique>
      </profile_COMMON>
    </effect>
  </library_effects>
  <library_materials>
    <material id="material_0" name="">
      <instance_effect url="#material_0-fx"/>
    </material>
  </library_materials>
  <library_geometries>
    <geometry id="mesh_0" name="" >
      <mesh>
        <source id="mesh_0-positions" name="mesh_0-positions">
          <float_array id="mesh_0-positions-array" count="2700"> 0.738514721 -0.181364089 1.09583402 0.740654111 -0.179737374 1.10270452 0.743751585 -0.153212145 1.09705591 0.797754645 -0.243121713 1.13812292 0.80068326 -0.179359779 1.13761544 0.793089211 -0.178139195 1.13815272 0.737673819 -0.252534837 0.891174972 0.740307629 -0.262877673 0.963773608 0.737147748 -0.243037775 1.08912158 0.76887995 -0.193470374 0.891176403 0.774174631 -0.119213872 1.06656182 0.784321964 -0.189037472 0.891178489 0.767989635 -0.178876817 1.13272226 0.759797037 -0.243142337 1.12825465 0.779897094 -0.243106902 1.13708127 0.814515948 -0.120269231 1.06858408 0.820701838 -0.123942927 1.06686771 0.81816411 -0.194925487 0.89118278 0.834278643 -0.243130609 1.11877561 0.842346728 -0.24311319 1.10565197 0.835108995 -0.17975086 1.11769438 0.749398887 -0.133717269 1.07072473 0.757306218 -0.127316236 1.06852698 0.754943609 -0.202879503 0.891174614 0.791849613 -0.298531264 0.958001614 0.779897094 -0.243106902 1.13708127 0.759797037 -0.243142337 1.12825465 0.774449646 -0.295798689 0.956521869 0.783103168 -0.297871858 0.956953108 0.759797037 -0.243142337 1.12825465 0.836928964 -0.136199012 1.09528458 0.841096401 -0.155300304 1.09583735 0.843932986 -0.163067445 1.08834016 0.834696352 -0.132320747 1.0893203 0.82487458 -0.124407709 1.09096956 0.830900013 -0.130685389 1.09765267 0.774174631 -0.119213872 1.06656182 0.784329355 -0.117815018 1.06370163 0.784321964 -0.189037472 0.891178489 0.782098353 -0.178773686 1.1374079 0.767989635 -0.178876817 1.13272226 0.779897094 -0.243106902 1.13708127 0.812979937 -0.178988069 1.13411283 0.806277454 -0.158855125 1.13268828 0.80068326 -0.179359779 1.13761544 0.814985991 -0.158586159 1.12929213 0.806277454 -0.158855125 1.13268828 0.812979937 -0.178988069 1.13411283 0.842346728 -0.24311319 1.10565197 0.841345191 -0.179250419 1.10751784 0.835108995 -0.17975086 1.11769438 0.83353591 -0.13658534 1.10455549 0.841096401 -0.155300304 1.09583735 0.836928964 -0.136199012 1.09528458 0.784329355 -0.117815018 1.06370163 0.800519705 -0.118253298 1.06267679 0.800055921 -0.188909784 0.891180515 0.784329355 -0.117815018 1.06370163 0.800055921 -0.188909784 0.891180515 0.784321964 -0.189037472 0.891178489 0.814515948 -0.120269231 1.06858408 0.81816411 -0.194925487 0.89118278 0.800055921 -0.188909784 0.891180515 0.800519705 -0.118253298 1.06267679 0.814515948 -0.120269231 1.06858408 0.800055921 -0.188909784 0.891180515 0.817756295 -0.243089095 1.13234425 0.80068326 -0.179359779 1.13761544 0.797754645 -0.243121713 1.13812292 0.817756295 -0.243089095 1.13234425 0.812979937 -0.178988069 1.13411283 0.80068326 -0.179359779 1.13761544 0.797754645 -0.243121713 1.13812292 0.779897094 -0.243106902 1.13708127 0.791849613 -0.298531264 0.958001614 0.842346728 -0.24311319 1.10565197 0.825357616 -0.287484169 0.957056105 0.846798956 -0.243008301 1.09070325 0.846798956 -0.243008301 1.09070325 0.84522742 -0.181579664 1.0974679 0.842346728 -0.24311319 1.10565197 0.845451534 -0.257232398 0.964710474 0.846998274 -0.247635886 0.891185999 0.846798956 -0.243008301 1.09070325 0.847018182 -0.183334723 1.08613122 0.846798956 -0.243008301 1.09070325 0.846998274 -0.247635886 0.891185999 0.746012092 -0.243093804 1.11360097 0.740152001 -0.243108362 1.1017549 0.76402235 -0.291017443 0.956717193 0.736895025 -0.239981964 0.891168237 0.737147748 -0.243037775 1.08912158 0.737078309 -0.182942182 1.08673608 0.783103168 -0.297871858 0.956953108 0.791849613 -0.298531264 0.958001614 0.759797037 -0.243142337 1.12825465 0.736895025 -0.239981964 0.891168237 0.737673819 -0.252534837 0.891174972 0.737147748 -0.243037775 1.08912158 0.783103168 -0.297871858 0.956953108 0.792411208 -0.298802406 0.891179442 0.791849613 -0.298531264 0.958001614 0.783103168 -0.297871858 0.956953108 0.774449646 -0.295798689 0.956521869 0.779853761 -0.297312677 0.891177773 0.787714064 -0.136165529 1.12940979 0.797890425 -0.151555046 1.13291717 0.796348333 -0.13619335 1.12933278 0.800295055 -0.116877861 1.09938204 0.79779923 -0.114868663 1.09103596 0.787825942 -0.115692377 1.09683883 0.788100898 -0.118519083 1.10577297 0.803239822 -0.121132754 1.10933185 0.800295055 -0.116877861 1.09938204 0.834278643 -0.243130609 1.11877561 0.823854685 -0.179542214 1.12821674 0.817756295 -0.243089095 1.13234425 0.823854685 -0.179542214 1.12821674 0.834278643 -0.243130609 1.11877561 0.835108995 -0.17975086 1.11769438 0.82487458 -0.124407709 1.09096956 0.820309818 -0.12283726 1.09641063 0.830900013 -0.130685389 1.09765267 0.811304092 -0.117789388 1.0911901 0.820309818 -0.12283726 1.09641063 0.82487458 -0.124407709 1.09096956 0.832799733 -0.130045027 1.07961845 0.834696352 -0.132320747 1.0893203 0.838577807 -0.136391833 1.08286738 0.843932986 -0.163067445 1.08834016 0.845723808 -0.230403572 0.89118284 0.838577807 -0.136391833 1.08286738 0.757306218 -0.127316236 1.06852698 0.76887995 -0.193470374 0.891176403 0.754943609 -0.202879503 0.891174614 0.749398887 -0.133717269 1.07072473 0.754943609 -0.202879503 0.891174614 0.742434204 -0.218832701 0.891174018 0.793089211 -0.178139195 1.13815272 0.80068326 -0.179359779 1.13761544 0.797890425 -0.151555046 1.13291717 0.797890425 -0.151555046 1.13291717 0.80068326 -0.179359779 1.13761544 0.806277454 -0.158855125 1.13268828 0.845723808 -0.230403572 0.89118284 0.847018182 -0.183334723 1.08613122 0.846998274 -0.247635886 0.891185999 0.826063097 -0.159896329 1.12212455 0.823854685 -0.179542214 1.12821674 0.835108995 -0.17975086 1.11769438 0.822954535 -0.12267945 1.0809406 0.814515948 -0.120269231 1.06858408 0.814923942 -0.118604742 1.08244717 0.822954535 -0.12267945 1.0809406 0.814923942 -0.118604742 1.08244717 0.82487458 -0.124407709 1.09096956 0.814515948 -0.120269231 1.06858408 0.825926661 -0.126046896 1.0706259 0.820701838 -0.123942927 1.06686771 0.814515948 -0.120269231 1.06858408 0.800519705 -0.118253298 1.06267679 0.807582319 -0.117041409 1.07275736 0.84439075 -0.261133313 0.891185999 0.846998274 -0.247635886 0.891185999 0.845451534 -0.257232398 0.964710474 0.825357616 -0.287484169 0.957056105 0.842346728 -0.24311319 1.10565197 0.817471921 -0.292441964 0.956524253 0.736895025 -0.239981964 0.891168237 0.737078309 -0.182942182 1.08673608 0.741381764 -0.155923098 1.08683169 0.747267187 -0.27595523 0.891173601 0.757764518 -0.286779851 0.89117527 0.754569888 -0.28407675 0.957472622 0.745587349 -0.136222824 1.08327734 0.742434204 -0.218832701 0.891174018 0.736895025 -0.239981964 0.891168237 0.751516521 -0.130573586 1.09209538 0.754548192 -0.127338693 1.07955968 0.746573091 -0.13515234 1.07747066 0.738514721 -0.181364089 1.09583402 0.743751585 -0.153212145 1.09705591 0.741381764 -0.155923098 1.08683169 0.740233421 -0.262410581 0.891172707 0.740307629 -0.262877673 0.963773608 0.737673819 -0.252534837 0.891174972 0.754569888 -0.28407675 0.957472622 0.737147748 -0.243037775 1.08912158 0.746487081 -0.274554968 0.959576964 0.754569888 -0.28407675 0.957472622 0.757764518 -0.286779851 0.89117527 0.76402235 -0.291017443 0.956717193 0.774161577 -0.116928726 1.0784086 0.761523604 -0.122390494 1.08656764 0.771353245 -0.118379951 1.09151614 0.7871539 -0.114237294 1.08412576 0.78308928 -0.115446806 1.0739975 0.774161577 -0.116928726 1.0784086 0.7871539 -0.114237294 1.08412576 0.774161577 -0.116928726 1.0784086 0.778565109 -0.115827248 1.0884465 0.803303719 -0.115097642 1.08343101 0.7871539 -0.114237294 1.08412576 0.79779923 -0.114868663 1.09103596 0.79779923 -0.114868663 1.09103596 0.7871539 -0.114237294 1.08412576 0.787825942 -0.115692377 1.09683883 0.778565109 -0.115827248 1.0884465 0.774644792 -0.119199455 1.10048962 0.787825942 -0.115692377 1.09683883 0.788100898 -0.118519083 1.10577297 0.787825942 -0.115692377 1.09683883 0.774644792 -0.119199455 1.10048962 0.794771373 -0.12303336 1.11464131 0.803239822 -0.121132754 1.10933185 0.788100898 -0.118519083 1.10577297 0.788759947 -0.132656381 1.12663376 0.788115919 -0.125393316 1.11816096 0.780347049 -0.130437434 1.1227268 0.800926745 -0.129772067 1.12279117 0.806577384 -0.136231586 1.12737286 0.810193419 -0.131678686 1.12155175 0.794771373 -0.12303336 1.11464131 0.788100898 -0.118519083 1.10577297 0.788115919 -0.125393316 1.11816096 0.803239822 -0.121132754 1.10933185 0.800926745 -0.129772067 1.12279117 0.810066402 -0.124945872 1.11274743 0.794771373 -0.12303336 1.11464131 0.800926745 -0.129772067 1.12279117 0.803239822 -0.121132754 1.10933185 0.810066402 -0.124945872 1.11274743 0.820294678 -0.125303075 1.10385895 0.811263561 -0.119977266 1.10070169 0.810066402 -0.124945872 1.11274743 0.817529261 -0.129202709 1.114012 0.820294678 -0.125303075 1.10385895 0.820294678 -0.125303075 1.10385895 0.827243268 -0.13198705 1.1075747 0.830900013 -0.130685389 1.09765267 0.820294678 -0.125303075 1.10385895 0.830900013 -0.130685389 1.09765267 0.820309818 -0.12283726 1.09641063 0.811263561 -0.119977266 1.10070169 0.803239822 -0.121132754 1.10933185 0.810066402 -0.124945872 1.11274743 0.820294678 -0.125303075 1.10385895 0.820309818 -0.12283726 1.09641063 0.811263561 -0.119977266 1.10070169 0.811263561 -0.119977266 1.10070169 0.820309818 -0.12283726 1.09641063 0.811304092 -0.117789388 1.0911901 0.838577807 -0.136391833 1.08286738 0.836928964 -0.136199012 1.09528458 0.843932986 -0.163067445 1.08834016 0.834412754 -0.13393724 1.06921947 0.834998131 -0.20859009 0.891185999 0.825926661 -0.126046896 1.0706259 0.774174631 -0.119213872 1.06656182 0.76887995 -0.193470374 0.891176403 0.766621888 -0.122665629 1.06554437 0.746573091 -0.13515234 1.07747066 0.749398887 -0.133717269 1.07072473 0.742434204 -0.218832701 0.891174018 0.774174631 -0.119213872 1.06656182 0.765369296 -0.120755985 1.07545602 0.774161577 -0.116928726 1.0784086 0.816903174 -0.136126652 1.12231362 0.806577384 -0.136231586 1.12737286 0.814985991 -0.158586159 1.12929213 0.806277454 -0.158855125 1.13268828 0.814985991 -0.158586159 1.12929213 0.806577384 -0.136231586 1.12737286 0.823854685 -0.179542214 1.12821674 0.814985991 -0.158586159 1.12929213 0.812979937 -0.178988069 1.13411283 0.823854685 -0.179542214 1.12821674 0.812979937 -0.178988069 1.13411283 0.817756295 -0.243089095 1.13234425 0.788231015 -0.154579133 1.13370347 0.793089211 -0.178139195 1.13815272 0.797890425 -0.151555046 1.13291717 0.846798956 -0.243008301 1.09070325 0.847018182 -0.183334723 1.08613122 0.84522742 -0.181579664 1.0974679 0.841345191 -0.179250419 1.10751784 0.842346728 -0.24311319 1.10565197 0.84522742 -0.181579664 1.0974679 0.79779923 -0.114868663 1.09103596 0.800295055 -0.116877861 1.09938204 0.811304092 -0.117789388 1.0911901 0.803303719 -0.115097642 1.08343101 0.79779923 -0.114868663 1.09103596 0.811304092 -0.117789388 1.0911901 0.803303719 -0.115097642 1.08343101 0.811304092 -0.117789388 1.0911901 0.814923942 -0.118604742 1.08244717 0.837619185 -0.135852829 1.07593179 0.845723808 -0.230403572 0.89118284 0.834998131 -0.20859009 0.891185999 0.792411208 -0.298802406 0.891179442 0.804134846 -0.297333181 0.891180813 0.80090487 -0.297855735 0.957164884 0.791849613 -0.298531264 0.958001614 0.817756295 -0.243089095 1.13234425 0.797754645 -0.243121713 1.13812292 0.80090487 -0.297855735 0.957164884 0.817756295 -0.243089095 1.13234425 0.791849613 -0.298531264 0.958001614 0.80090487 -0.297855735 0.957164884 0.834278643 -0.243130609 1.11877561 0.817756295 -0.243089095 1.13234425 0.817471921 -0.292441964 0.956524253 0.807608068 -0.296408832 0.956585228 0.813604832 -0.2943542 0.891182363 0.747267187 -0.27595523 0.891173601 0.740307629 -0.262877673 0.963773608 0.740233421 -0.262410581 0.891172707 0.740307629 -0.262877673 0.963773608 0.746487081 -0.274554968 0.959576964 0.737147748 -0.243037775 1.08912158 0.740654111 -0.179737374 1.10270452 0.740152001 -0.243108362 1.1017549 0.746012092 -0.243093804 1.11360097 0.745500207 -0.17892997 1.11246812 0.747301102 -0.152465016 1.10570145 0.740654111 -0.179737374 1.10270452 0.745587349 -0.136222824 1.08327734 0.736895025 -0.239981964 0.891168237 0.741381764 -0.155923098 1.08683169 0.751516521 -0.130573586 1.09209538 0.746573091 -0.13515234 1.07747066 0.745587349 -0.136222824 1.08327734 0.749398887 -0.133717269 1.07072473 0.746573091 -0.13515234 1.07747066 0.754548192 -0.127338693 1.07955968 0.749398887 -0.133717269 1.07072473 0.754548192 -0.127338693 1.07955968 0.757306218 -0.127316236 1.06852698 0.761523604 -0.122390494 1.08656764 0.754548192 -0.127338693 1.07955968 0.751516521 -0.130573586 1.09209538 0.746487081 -0.274554968 0.959576964 0.747267187 -0.27595523 0.891173601 0.754569888 -0.28407675 0.957472622 0.769143105 -0.293761015 0.891176581 0.774449646 -0.295798689 0.956521869 0.76402235 -0.291017443 0.956717193 0.774449646 -0.295798689 0.956521869 0.746012092 -0.243093804 1.11360097 0.76402235 -0.291017443 0.956717193 0.769143105 -0.293761015 0.891176581 0.779853761 -0.297312677 0.891177773 0.774449646 -0.295798689 0.956521869 0.792411208 -0.298802406 0.891179442 0.783103168 -0.297871858 0.956953108 0.779853761 -0.297312677 0.891177773 0.778565109 -0.115827248 1.0884465 0.774161577 -0.116928726 1.0784086 0.771353245 -0.118379951 1.09151614 0.774644792 -0.119199455 1.10048962 0.778565109 -0.115827248 1.0884465 0.771353245 -0.118379951 1.09151614 0.770704985 -0.123205557 1.10687566 0.762723088 -0.123368658 1.09628069 0.757557094 -0.129221275 1.10347128 0.810193419 -0.131678686 1.12155175 0.810066402 -0.124945872 1.11274743 0.800926745 -0.129772067 1.12279117 0.810193419 -0.131678686 1.12155175 0.816903174 -0.136126652 1.12231362 0.817529261 -0.129202709 1.114012 0.816903174 -0.136126652 1.12231362 0.826022208 -0.136087671 1.11486065 0.817529261 -0.129202709 1.114012 0.797890425 -0.151555046 1.13291717 0.806577384 -0.136231586 1.12737286 0.796348333 -0.13619335 1.12933278 0.787714064 -0.136165529 1.12940979 0.796348333 -0.13619335 1.12933278 0.788759947 -0.132656381 1.12663376 0.797890425 -0.151555046 1.13291717 0.787714064 -0.136165529 1.12940979 0.788231015 -0.154579133 1.13370347 0.800926745 -0.129772067 1.12279117 0.788115919 -0.125393316 1.11816096 0.788759947 -0.132656381 1.12663376 0.817529261 -0.129202709 1.114012 0.810066402 -0.124945872 1.11274743 0.810193419 -0.131678686 1.12155175 0.800295055 -0.116877861 1.09938204 0.787825942 -0.115692377 1.09683883 0.788100898 -0.118519083 1.10577297 0.830900013 -0.130685389 1.09765267 0.836928964 -0.136199012 1.09528458 0.834696352 -0.132320747 1.0893203 0.825926661 -0.126046896 1.0706259 0.81816411 -0.194925487 0.89118278 0.820701838 -0.123942927 1.06686771 0.825926661 -0.126046896 1.0706259 0.834998131 -0.20859009 0.891185999 0.81816411 -0.194925487 0.89118278 0.832799733 -0.130045027 1.07961845 0.82487458 -0.124407709 1.09096956 0.834696352 -0.132320747 1.0893203 0.766621888 -0.122665629 1.06554437 0.76887995 -0.193470374 0.891176403 0.757306218 -0.127316236 1.06852698 0.751433015 -0.179204762 1.12030125 0.745500207 -0.17892997 1.11246812 0.746012092 -0.243093804 1.11360097 0.751433015 -0.179204762 1.12030125 0.746012092 -0.243093804 1.11360097 0.759797037 -0.243142337 1.12825465 0.751965404 -0.153526098 1.11357951 0.752709806 -0.136239111 1.10783732 0.747301102 -0.152465016 1.10570145 0.793089211 -0.178139195 1.13815272 0.779897094 -0.243106902 1.13708127 0.797754645 -0.243121713 1.13812292 0.793089211 -0.178139195 1.13815272 0.782098353 -0.178773686 1.1374079 0.779897094 -0.243106902 1.13708127 0.782098353 -0.178773686 1.1374079 0.793089211 -0.178139195 1.13815272 0.788231015 -0.154579133 1.13370347 0.767989635 -0.178876817 1.13272226 0.759167969 -0.179283679 1.12732649 0.759797037 -0.243142337 1.12825465 0.759710789 -0.158161938 1.12311661 0.770674288 -0.159286097 1.13019466 0.769364536 -0.136099994 1.12368858 0.770272613 -0.13233836 1.12044406 0.758743763 -0.136319846 1.11572123 0.769364536 -0.136099994 1.12368858 0.84522742 -0.181579664 1.0974679 0.847018182 -0.183334723 1.08613122 0.843932986 -0.163067445 1.08834016 0.843932986 -0.163067445 1.08834016 0.847018182 -0.183334723 1.08613122 0.845723808 -0.230403572 0.89118284 0.826022208 -0.136087671 1.11486065 0.827243268 -0.13198705 1.1075747 0.817529261 -0.129202709 1.114012 0.791981518 -0.115775272 1.06884503 0.800519705 -0.118253298 1.06267679 0.784329355 -0.117815018 1.06370163 0.814923942 -0.118604742 1.08244717 0.811304092 -0.117789388 1.0911901 0.82487458 -0.124407709 1.09096956 0.811263561 -0.119977266 1.10070169 0.800295055 -0.116877861 1.09938204 0.803239822 -0.121132754 1.10933185 0.825926661 -0.126046896 1.0706259 0.814515948 -0.120269231 1.06858408 0.822954535 -0.12267945 1.0809406 0.834412754 -0.13393724 1.06921947 0.837619185 -0.135852829 1.07593179 0.834998131 -0.20859009 0.891185999 0.837619185 -0.135852829 1.07593179 0.838577807 -0.136391833 1.08286738 0.845723808 -0.230403572 0.89118284 0.837619185 -0.135852829 1.07593179 0.834412754 -0.13393724 1.06921947 0.832799733 -0.130045027 1.07961845 0.833362162 -0.159072116 1.11381626 0.826063097 -0.159896329 1.12212455 0.835108995 -0.17975086 1.11769438 0.791849613 -0.298531264 0.958001614 0.792411208 -0.298802406 0.891179442 0.80090487 -0.297855735 0.957164884 0.807608068 -0.296408832 0.956585228 0.80090487 -0.297855735 0.957164884 0.804134846 -0.297333181 0.891180813 0.834278643 -0.243130609 1.11877561 0.80090487 -0.297855735 0.957164884 0.807608068 -0.296408832 0.956585228 0.817471921 -0.292441964 0.956524253 0.822829604 -0.289246053 0.891183674 0.825357616 -0.287484169 0.957056105 0.817471921 -0.292441964 0.956524253 0.834278643 -0.243130609 1.11877561 0.807608068 -0.296408832 0.956585228 0.842346728 -0.24311319 1.10565197 0.834278643 -0.243130609 1.11877561 0.817471921 -0.292441964 0.956524253 0.745500207 -0.17892997 1.11246812 0.740654111 -0.179737374 1.10270452 0.746012092 -0.243093804 1.11360097 0.743751585 -0.153212145 1.09705591 0.747301102 -0.152465016 1.10570145 0.749097407 -0.136192396 1.10083938 0.740654111 -0.179737374 1.10270452 0.747301102 -0.152465016 1.10570145 0.743751585 -0.153212145 1.09705591 0.746587753 -0.136272281 1.09283292 0.741381764 -0.155923098 1.08683169 0.743751585 -0.153212145 1.09705591 0.754569888 -0.28407675 0.957472622 0.740152001 -0.243108362 1.1017549 0.737147748 -0.243037775 1.08912158 0.745587349 -0.136222824 1.08327734 0.746573091 -0.13515234 1.07747066 0.742434204 -0.218832701 0.891174018 0.738514721 -0.181364089 1.09583402 0.741381764 -0.155923098 1.08683169 0.737078309 -0.182942182 1.08673608 0.746587753 -0.136272281 1.09283292 0.745587349 -0.136222824 1.08327734 0.741381764 -0.155923098 1.08683169 0.745587349 -0.136222824 1.08327734 0.746587753 -0.136272281 1.09283292 0.751516521 -0.130573586 1.09209538 0.757764518 -0.286779851 0.89117527 0.769143105 -0.293761015 0.891176581 0.76402235 -0.291017443 0.956717193 0.740152001 -0.243108362 1.1017549 0.754569888 -0.28407675 0.957472622 0.76402235 -0.291017443 0.956717193 0.787825942 -0.115692377 1.09683883 0.7871539 -0.114237294 1.08412576 0.778565109 -0.115827248 1.0884465 0.7871539 -0.114237294 1.08412576 0.792283952 -0.114239365 1.07902908 0.78308928 -0.115446806 1.0739975 0.774644792 -0.119199455 1.10048962 0.762723088 -0.123368658 1.09628069 0.770704985 -0.123205557 1.10687566 0.788115919 -0.125393316 1.11816096 0.788100898 -0.118519083 1.10577297 0.778208077 -0.124242783 1.11370158 0.816903174 -0.136126652 1.12231362 0.810193419 -0.131678686 1.12155175 0.806577384 -0.136231586 1.12737286 0.778208077 -0.124242783 1.11370158 0.770408154 -0.127232522 1.1138103 0.770272613 -0.13233836 1.12044406 0.770272613 -0.13233836 1.12044406 0.780347049 -0.130437434 1.1227268 0.778208077 -0.124242783 1.11370158 0.788231015 -0.154579133 1.13370347 0.787714064 -0.136165529 1.12940979 0.780721128 -0.152538195 1.1321317 0.800926745 -0.129772067 1.12279117 0.796348333 -0.13619335 1.12933278 0.806577384 -0.136231586 1.12737286 0.794771373 -0.12303336 1.11464131 0.788115919 -0.125393316 1.11816096 0.800926745 -0.129772067 1.12279117 0.826022208 -0.136087671 1.11486065 0.816903174 -0.136126652 1.12231362 0.826063097 -0.159896329 1.12212455 0.827243268 -0.13198705 1.1075747 0.820294678 -0.125303075 1.10385895 0.817529261 -0.129202709 1.114012 0.83353591 -0.13658534 1.10455549 0.830900013 -0.130685389 1.09765267 0.827243268 -0.13198705 1.1075747 0.830900013 -0.130685389 1.09765267 0.83353591 -0.13658534 1.10455549 0.836928964 -0.136199012 1.09528458 0.834696352 -0.132320747 1.0893203 0.836928964 -0.136199012 1.09528458 0.838577807 -0.136391833 1.08286738 0.838577807 -0.136391833 1.08286738 0.837619185 -0.135852829 1.07593179 0.832799733 -0.130045027 1.07961845 0.825926661 -0.126046896 1.0706259 0.832799733 -0.130045027 1.07961845 0.834412754 -0.13393724 1.06921947 0.761523604 -0.122390494 1.08656764 0.762723088 -0.123368658 1.09628069 0.771353245 -0.118379951 1.09151614 0.751433015 -0.179204762 1.12030125 0.759710789 -0.158161938 1.12311661 0.751965404 -0.153526098 1.11357951 0.759710789 -0.158161938 1.12311661 0.758743763 -0.136319846 1.11572123 0.751965404 -0.153526098 1.11357951 0.780347049 -0.130437434 1.1227268 0.770272613 -0.13233836 1.12044406 0.769364536 -0.136099994 1.12368858 0.759710789 -0.158161938 1.12311661 0.759167969 -0.179283679 1.12732649 0.767989635 -0.178876817 1.13272226 0.759167969 -0.179283679 1.12732649 0.751433015 -0.179204762 1.12030125 0.759797037 -0.243142337 1.12825465 0.770704985 -0.123205557 1.10687566 0.757557094 -0.129221275 1.10347128 0.761458814 -0.130715206 1.11132061 0.770704985 -0.123205557 1.10687566 0.761458814 -0.130715206 1.11132061 0.770408154 -0.127232522 1.1138103 0.770272613 -0.13233836 1.12044406 0.761458814 -0.130715206 1.11132061 0.758743763 -0.136319846 1.11572123 0.797890425 -0.151555046 1.13291717 0.806277454 -0.158855125 1.13268828 0.806577384 -0.136231586 1.12737286 0.826063097 -0.159896329 1.12212455 0.814985991 -0.158586159 1.12929213 0.823854685 -0.179542214 1.12821674 0.841096401 -0.155300304 1.09583735 0.83353591 -0.13658534 1.10455549 0.841345191 -0.179250419 1.10751784 0.841345191 -0.179250419 1.10751784 0.84522742 -0.181579664 1.0974679 0.841096401 -0.155300304 1.09583735 0.833362162 -0.159072116 1.11381626 0.841345191 -0.179250419 1.10751784 0.83353591 -0.13658534 1.10455549 0.833362162 -0.159072116 1.11381626 0.826022208 -0.136087671 1.11486065 0.826063097 -0.159896329 1.12212455 0.84522742 -0.181579664 1.0974679 0.843932986 -0.163067445 1.08834016 0.841096401 -0.155300304 1.09583735 0.791981518 -0.115775272 1.06884503 0.784329355 -0.117815018 1.06370163 0.78308928 -0.115446806 1.0739975 0.807582319 -0.117041409 1.07275736 0.803303719 -0.115097642 1.08343101 0.814923942 -0.118604742 1.08244717 0.811263561 -0.119977266 1.10070169 0.811304092 -0.117789388 1.0911901 0.800295055 -0.116877861 1.09938204 0.822829604 -0.289246053 0.891183674 0.829930842 -0.283641279 0.891184211 0.825357616 -0.287484169 0.957056105 0.842180729 -0.266354024 0.961112022 0.845451534 -0.257232398 0.964710474 0.846798956 -0.243008301 1.09070325 0.807608068 -0.296408832 0.956585228 0.804134846 -0.297333181 0.891180813 0.813604832 -0.2943542 0.891182363 0.747267187 -0.27595523 0.891173601 0.746487081 -0.274554968 0.959576964 0.740307629 -0.262877673 0.963773608 0.743751585 -0.153212145 1.09705591 0.749097407 -0.136192396 1.10083938 0.746587753 -0.136272281 1.09283292 0.757557094 -0.129221275 1.10347128 0.751516521 -0.130573586 1.09209538 0.749097407 -0.136192396 1.10083938 0.752709806 -0.136239111 1.10783732 0.757557094 -0.129221275 1.10347128 0.749097407 -0.136192396 1.10083938 0.774449646 -0.295798689 0.956521869 0.759797037 -0.243142337 1.12825465 0.746012092 -0.243093804 1.11360097 0.774644792 -0.119199455 1.10048962 0.771353245 -0.118379951 1.09151614 0.762723088 -0.123368658 1.09628069 0.778208077 -0.124242783 1.11370158 0.774644792 -0.119199455 1.10048962 0.770704985 -0.123205557 1.10687566 0.780347049 -0.130437434 1.1227268 0.788115919 -0.125393316 1.11816096 0.778208077 -0.124242783 1.11370158 0.826063097 -0.159896329 1.12212455 0.816903174 -0.136126652 1.12231362 0.814985991 -0.158586159 1.12929213 0.770408154 -0.127232522 1.1138103 0.761458814 -0.130715206 1.11132061 0.770272613 -0.13233836 1.12044406 0.778208077 -0.124242783 1.11370158 0.770704985 -0.123205557 1.10687566 0.770408154 -0.127232522 1.1138103 0.780721128 -0.152538195 1.1321317 0.787714064 -0.136165529 1.12940979 0.778333902 -0.136411592 1.12761247 0.800926745 -0.129772067 1.12279117 0.788759947 -0.132656381 1.12663376 0.796348333 -0.13619335 1.12933278 0.826022208 -0.136087671 1.11486065 0.83353591 -0.13658534 1.10455549 0.827243268 -0.13198705 1.1075747 0.822954535 -0.12267945 1.0809406 0.832799733 -0.130045027 1.07961845 0.825926661 -0.126046896 1.0706259 0.822954535 -0.12267945 1.0809406 0.82487458 -0.124407709 1.09096956 0.832799733 -0.130045027 1.07961845 0.774174631 -0.119213872 1.06656182 0.766621888 -0.122665629 1.06554437 0.765369296 -0.120755985 1.07545602 0.761523604 -0.122390494 1.08656764 0.765369296 -0.120755985 1.07545602 0.754548192 -0.127338693 1.07955968 0.765369296 -0.120755985 1.07545602 0.761523604 -0.122390494 1.08656764 0.774161577 -0.116928726 1.0784086 0.765369296 -0.120755985 1.07545602 0.766621888 -0.122665629 1.06554437 0.757306218 -0.127316236 1.06852698 0.762723088 -0.123368658 1.09628069 0.751516521 -0.130573586 1.09209538 0.757557094 -0.129221275 1.10347128 0.751433015 -0.179204762 1.12030125 0.751965404 -0.153526098 1.11357951 0.745500207 -0.17892997 1.11246812 0.752709806 -0.136239111 1.10783732 0.751965404 -0.153526098 1.11357951 0.758743763 -0.136319846 1.11572123 0.767989635 -0.178876817 1.13272226 0.770674288 -0.159286097 1.13019466 0.759710789 -0.158161938 1.12311661 0.759167969 -0.179283679 1.12732649 0.759710789 -0.158161938 1.12311661 0.751433015 -0.179204762 1.12030125 0.759710789 -0.158161938 1.12311661 0.769364536 -0.136099994 1.12368858 0.758743763 -0.136319846 1.11572123 0.833362162 -0.159072116 1.11381626 0.835108995 -0.17975086 1.11769438 0.841345191 -0.179250419 1.10751784 0.800519705 -0.118253298 1.06267679 0.800275266 -0.115275845 1.07457745 0.807582319 -0.117041409 1.07275736 0.814923942 -0.118604742 1.08244717 0.814515948 -0.120269231 1.06858408 0.807582319 -0.117041409 1.07275736 0.813604832 -0.2943542 0.891182363 0.822829604 -0.289246053 0.891183674 0.817471921 -0.292441964 0.956524253 0.831742644 -0.281746626 0.958006322 0.837941408 -0.27416113 0.891185224 0.837845325 -0.274194628 0.959705651 0.837845325 -0.274194628 0.959705651 0.842180729 -0.266354024 0.961112022 0.846798956 -0.243008301 1.09070325 0.746587753 -0.136272281 1.09283292 0.749097407 -0.136192396 1.10083938 0.751516521 -0.130573586 1.09209538 0.738514721 -0.181364089 1.09583402 0.737078309 -0.182942182 1.08673608 0.737147748 -0.243037775 1.08912158 0.792283952 -0.114239365 1.07902908 0.7871539 -0.114237294 1.08412576 0.803303719 -0.115097642 1.08343101 0.807582319 -0.117041409 1.07275736 0.800275266 -0.115275845 1.07457745 0.803303719 -0.115097642 1.08343101 0.791981518 -0.115775272 1.06884503 0.78308928 -0.115446806 1.0739975 0.792283952 -0.114239365 1.07902908 0.770674288 -0.159286097 1.13019466 0.767989635 -0.178876817 1.13272226 0.782098353 -0.178773686 1.1374079 0.778333902 -0.136411592 1.12761247 0.788759947 -0.132656381 1.12663376 0.780347049 -0.130437434 1.1227268 0.778333902 -0.136411592 1.12761247 0.787714064 -0.136165529 1.12940979 0.788759947 -0.132656381 1.12663376 0.83353591 -0.13658534 1.10455549 0.826022208 -0.136087671 1.11486065 0.833362162 -0.159072116 1.11381626 0.765369296 -0.120755985 1.07545602 0.757306218 -0.127316236 1.06852698 0.754548192 -0.127338693 1.07955968 0.761523604 -0.122390494 1.08656764 0.751516521 -0.130573586 1.09209538 0.762723088 -0.123368658 1.09628069 0.778333902 -0.136411592 1.12761247 0.769364536 -0.136099994 1.12368858 0.770674288 -0.159286097 1.13019466 0.780721128 -0.152538195 1.1321317 0.778333902 -0.136411592 1.12761247 0.770674288 -0.159286097 1.13019466 0.791981518 -0.115775272 1.06884503 0.800275266 -0.115275845 1.07457745 0.800519705 -0.118253298 1.06267679 0.78308928 -0.115446806 1.0739975 0.774174631 -0.119213872 1.06656182 0.774161577 -0.116928726 1.0784086 0.774174631 -0.119213872 1.06656182 0.78308928 -0.115446806 1.0739975 0.784329355 -0.117815018 1.06370163 0.825357616 -0.287484169 0.957056105 0.829930842 -0.283641279 0.891184211 0.831742644 -0.281746626 0.958006322 0.825357616 -0.287484169 0.957056105 0.831742644 -0.281746626 0.958006322 0.846798956 -0.243008301 1.09070325 0.829930842 -0.283641279 0.891184211 0.837941408 -0.27416113 0.891185224 0.831742644 -0.281746626 0.958006322 0.846798956 -0.243008301 1.09070325 0.831742644 -0.281746626 0.958006322 0.837845325 -0.274194628 0.959705651 0.842180729 -0.266354024 0.961112022 0.837941408 -0.27416113 0.891185224 0.84439075 -0.261133313 0.891185999 0.752709806 -0.136239111 1.10783732 0.749097407 -0.136192396 1.10083938 0.747301102 -0.152465016 1.10570145 0.751965404 -0.153526098 1.11357951 0.747301102 -0.152465016 1.10570145 0.745500207 -0.17892997 1.11246812 0.761458814 -0.130715206 1.11132061 0.757557094 -0.129221275 1.10347128 0.752709806 -0.136239111 1.10783732 0.752709806 -0.136239111 1.10783732 0.758743763 -0.136319846 1.11572123 0.761458814 -0.130715206 1.11132061 0.738514721 -0.181364089 1.09583402 0.737147748 -0.243037775 1.08912158 0.740152001 -0.243108362 1.1017549 0.740152001 -0.243108362 1.1017549 0.740654111 -0.179737374 1.10270452 0.738514721 -0.181364089 1.09583402 0.803303719 -0.115097642 1.08343101 0.800275266 -0.115275845 1.07457745 0.792283952 -0.114239365 1.07902908 0.778208077 -0.124242783 1.11370158 0.788100898 -0.118519083 1.10577297 0.774644792 -0.119199455 1.10048962 0.780347049 -0.130437434 1.1227268 0.769364536 -0.136099994 1.12368858 0.778333902 -0.136411592 1.12761247 0.770674288 -0.159286097 1.13019466 0.782098353 -0.178773686 1.1374079 0.780721128 -0.152538195 1.1321317 0.84439075 -0.261133313 0.891185999 0.845451534 -0.257232398 0.964710474 0.842180729 -0.266354024 0.961112022 0.791981518 -0.115775272 1.06884503 0.792283952 -0.114239365 1.07902908 0.800275266 -0.115275845 1.07457745 0.780721128 -0.152538195 1.1321317 0.782098353 -0.178773686 1.1374079 0.788231015 -0.154579133 1.13370347 0.842180729 -0.266354024 0.961112022 0.837845325 -0.274194628 0.959705651 0.837941408 -0.27416113 0.891185224 0.742434204 -0.218832701 0.891174018 0.754943609 -0.202879503 0.891174614 0.837941408 -0.27416113 0.891185224 0.837941408 -0.27416113 0.891185224 0.779853761 -0.297312677 0.891177773 0.769143105 -0.293761015 0.891176581 0.784321964 -0.189037472 0.891178489 0.800055921 -0.188909784 0.891180515 0.837941408 -0.27416113 0.891185224 0.737673819 -0.252534837 0.891174972 0.736895025 -0.239981964 0.891168237 0.837941408 -0.27416113 0.891185224 0.81816411 -0.194925487 0.89118278 0.834998131 -0.20859009 0.891185999 0.837941408 -0.27416113 0.891185224 0.846998274 -0.247635886 0.891185999 0.84439075 -0.261133313 0.891185999 0.837941408 -0.27416113 0.891185224 0.837941408 -0.27416113 0.891185224 0.754943609 -0.202879503 0.891174614 0.76887995 -0.193470374 0.891176403 0.800055921 -0.188909784 0.891180515 0.81816411 -0.194925487 0.89118278 0.837941408 -0.27416113 0.891185224 0.829930842 -0.283641279 0.891184211 0.822829604 -0.289246053 0.891183674 0.837941408 -0.27416113 0.891185224 0.837941408 -0.27416113 0.891185224 0.747267187 -0.27595523 0.891173601 0.740233421 -0.262410581 0.891172707 0.757764518 -0.286779851 0.89117527 0.747267187 -0.27595523 0.891173601 0.837941408 -0.27416113 0.891185224 0.736895025 -0.239981964 0.891168237 0.742434204 -0.218832701 0.891174018 0.837941408 -0.27416113 0.891185224 0.837941408 -0.27416113 0.891185224 0.76887995 -0.193470374 0.891176403 0.784321964 -0.189037472 0.891178489 0.837941408 -0.27416113 0.891185224 0.834998131 -0.20859009 0.891185999 0.845723808 -0.230403572 0.89118284 0.837941408 -0.27416113 0.891185224 0.792411208 -0.298802406 0.891179442 0.779853761 -0.297312677 0.891177773 0.813604832 -0.2943542 0.891182363 0.804134846 -0.297333181 0.891180813 0.837941408 -0.27416113 0.891185224 0.837941408 -0.27416113 0.891185224 0.740233421 -0.262410581 0.891172707 0.737673819 -0.252534837 0.891174972 0.804134846 -0.297333181 0.891180813 0.792411208 -0.298802406 0.891179442 0.837941408 -0.27416113 0.891185224 0.769143105 -0.293761015 0.891176581 0.757764518 -0.286779851 0.89117527 0.837941408 -0.27416113 0.891185224 0.845723808 -0.230403572 0.89118284 0.846998274 -0.247635886 0.891185999 0.837941408 -0.27416113 0.891185224 0.837941408 -0.27416113 0.891185224 0.822829604 -0.289246053 0.891183674 0.813604832 -0.2943542 0.891182363 </float_array>
          <technique_common>
            <accessor count="900" offset="0" source="#mesh_0-positions-array" stride="3">
              <param name="X" type="float" />
              <param name="Y" type="float" />
              <param name="Z" type="float" />
            </accessor>
          </technique_common>
        </source>
        <vertices id="mesh_0-vertices">
          <input semantic="POSITION" source="#mesh_0-positions" />
        </vertices>
        <polylist count="300" material="defaultMaterial">
          <input offset="0" semantic="VERTEX" source="#mesh_0-vertices" />
          <vcount>3 3 3 3 3 3 3 3 3 3 3 3 3 3 3 3 3 3 3 3 3 3 3 3 3 3 3 3 3 3 3 3 3 3 3 3 3 3 3 3 3 3 3 3 3 3 3 3 3 3 3 3 3 3 3 3 3 3 3 3 3 3 3 3 3 3 3 3 3 3 3 3 3 3 3 3 3 3 3 3 3 3 3 3 3 3 3 3 3 3 3 3 3 3 3 3 3 3 3 3 3 3 3 3 3 3 3 3 3 3 3 3 3 3 3 3 3 3 3 3 3 3 3 3 3 3 3 3 3 3 3 3 3 3 3 3 3 3 3 3 3 3 3 3 3 3 3 3 3 3 3 3 3 3 3 3 3 3 3 3 3 3 3 3 3 3 3 3 3 3 3 3 3 3 3 3 3 3 3 3 3 3 3 3 3 3 3 3 3 3 3 3 3 3 3 3 3 3 3 3 3 3 3 3 3 3 3 3 3 3 3 3 3 3 3 3 3 3 3 3 3 3 3 3 3 3 3 3 3 3 3 3 3 3 3 3 3 3 3 3 3 3 3 3 3 3 3 3 3 3 3 3 3 3 3 3 3 3 3 3 3 3 3 3 3 3 3 3 3 3 3 3 3 3 3 3 3 3 3 3 3 3 3 3 3 3 3 3 3 3 3 3 3 3 3 3 3 3 3 3 </vcount>
          <p>0 1 2 3 4 5 6 7 8 9 10 11 12 13 14 15 16 17 18 19 20 21 22 23 24 25 26 27 28 29 30 31 32 33 34 35 36 37 38 39 40 41 42 43 44 45 46 47 48 49 50 51 52 53 54 55 56 57 58 59 60 61 62 63 64 65 66 67 68 69 70 71 72 73 74 75 76 77 78 79 80 81 82 83 84 85 86 87 88 89 90 91 92 93 94 95 96 97 98 99 100 101 102 103 104 105 106 107 108 109 110 111 112 113 114 115 116 117 118 119 120 121 122 123 124 125 126 127 128 129 130 131 132 133 134 135 136 137 138 139 140 141 142 143 144 145 146 147 148 149 150 151 152 153 154 155 156 157 158 159 160 161 162 163 164 165 166 167 168 169 170 171 172 173 174 175 176 177 178 179 180 181 182 183 184 185 186 187 188 189 190 191 192 193 194 195 196 197 198 199 200 201 202 203 204 205 206 207 208 209 210 211 212 213 214 215 216 217 218 219 220 221 222 223 224 225 226 227 228 229 230 231 232 233 234 235 236 237 238 239 240 241 242 243 244 245 246 247 248 249 250 251 252 253 254 255 256 257 258 259 260 261 262 263 264 265 266 267 268 269 270 271 272 273 274 275 276 277 278 279 280 281 282 283 284 285 286 287 288 289 290 291 292 293 294 295 296 297 298 299 300 301 302 303 304 305 306 307 308 309 310 311 312 313 314 315 316 317 318 319 320 321 322 323 324 325 326 327 328 329 330 331 332 333 334 335 336 337 338 339 340 341 342 343 344 345 346 347 348 349 350 351 352 353 354 355 356 357 358 359 360 361 362 363 364 365 366 367 368 369 370 371 372 373 374 375 376 377 378 379 380 381 382 383 384 385 386 387 388 389 390 391 392 393 394 395 396 397 398 399 400 401 402 403 404 405 406 407 408 409 410 411 412 413 414 415 416 417 418 419 420 421 422 423 424 425 426 427 428 429 430 431 432 433 434 435 436 437 438 439 440 441 442 443 444 445 446 447 448 449 450 451 452 453 454 455 456 457 458 459 460 461 462 463 464 465 466 467 468 469 470 471 472 473 474 475 476 477 478 479 480 481 482 483 484 485 486 487 488 489 490 491 492 493 494 495 496 497 498 499 500 501 502 503 504 505 506 507 508 509 510 511 512 513 514 515 516 517 518 519 520 521 522 523 524 525 526 527 528 529 530 531 532 533 534 535 536 537 538 539 540 541 542 543 544 545 546 547 548 549 550 551 552 553 554 555 556 557 558 559 560 561 562 563 564 565 566 567 568 569 570 571 572 573 574 575 576 577 578 579 580 581 582 583 584 585 586 587 588 589 590 591 592 593 594 595 596 597 598 599 600 601 602 603 604 605 606 607 608 609 610 611 612 613 614 615 616 617 618 619 620 621 622 623 624 625 626 627 628 629 630 631 632 633 634 635 636 637 638 639 640 641 642 643 644 645 646 647 648 649 650 651 652 653 654 655 656 657 658 659 660 661 662 663 664 665 666 667 668 669 670 671 672 673 674 675 676 677 678 679 680 681 682 683 684 685 686 687 688 689 690 691 692 693 694 695 696 697 698 699 700 701 702 703 704 705 706 707 708 709 710 711 712 713 714 715 716 717 718 719 720 721 722 723 724 725 726 727 728 729 730 731 732 733 734 735 736 737 738 739 740 741 742 743 744 745 746 747 748 749 750 751 752 753 754 755 756 757 758 759 760 761 762 763 764 765 766 767 768 769 770 771 772 773 774 775 776 777 778 779 780 781 782 783 784 785 786 787 788 789 790 791 792 793 794 795 796 797 798 799 800 801 802 803 804 805 806 807 808 809 810 811 812 813 814 815 816 817 818 819 820 821 822 823 824 825 826 827 828 829 830 831 832 833 834 835 836 837 838 839 840 841 842 843 844 845 846 847 848 849 850 851 852 853 854 855 856 857 858 859 860 861 862 863 864 865 866 867 868 869 870 871 872 873 874 875 876 877 878 879 880 881 882 883 884 885 886 887 888 889 890 891 892 893 894 895 896 897 898 899 </p>
        </polylist>
      </mesh>
    </geometry>
  </library_geometries>
  <library_controllers>
  </library_controllers>
  <library_visual_scenes>
    <visual_scene id="Scene" name="Scene">
      <node id="node" name="" type="NODE">
        <matrix sid="matrix">1 0 0 0 0 1 0 0 0 0 1 0 0 0 0 1</matrix>
        <instance_geometry url="#mesh_0">
          <bind_material>
            <technique_common>
              <instance_material symbol="defaultMaterial" target="#material_0">
              </instance_material>
            </technique_common>
          </bind_material>
        </instance_geometry>
      </node>
    </visual_scene>
  </library_visual_scenes>
  <scene>
    <instance_visual_scene url="#Scene" />
  </scene>
</COLLADA>
