<?xml version="1.0" encoding="UTF-8" standalone="no" ?>
<COLLADA xmlns="http://www.collada.org/2005/11/COLLADASchema" version="1.4.1">
  <asset>
    <contributor>
      <author>Assimp</author>
      <authoring_tool>Assimp Exporter</authoring_tool>
    </contributor>
    <created>2026-04-22T16:09:44</created>
    <modified>2026-04-22T16:09:44</modified>
    <unit name="meter" meter="1" />
    <up_axis>Y_UP</up_axis>
  </asset>
  <library_images>
  </library_images>
  <library_effects>
    <effect id="material_0-fx" name="">
      <profile_COMMON>
        <technique sid="standard">
          <phong>
            <emission>
              <color sid="emission">0   0   0   1.80177653</color>
            </emission>
            <ambient>
              <color sid="ambient">0.100000001   0.100000001   0.100000001   1.40257168</color>
            </ambient>
            <diffuse>
              <color sid="diffuse">0.100000001   0.100000001   0.100000001   1.40257168</color>
            </diffuse>
            <specular>
              <color sid="specular">0.25   0.25   0.25   -0.531376243</color>
            </specular>
          </phong>
        </technique>
      </profile_COMMON>
    </effect>
  </library_effects>
  <library_materials>
    <material id="material_0" name="">
      <instance_effect url="#material_0-fx"/>
    </material>
  </library_materials>
  <library_geometries>
    <geometry id="mesh_0" name="" >
      <mesh>
        <source id="mesh_0-positions" name="mesh_0-positions">
          <float_array id="mesh_0-positions-array" count="2070"> 0.741082788 -0.281064242 1.69862401 0.741776288 -0.281502694 1.69679666 0.74096173 -0.282316625 1.69793332 0.741776288 -0.281502694 1.69679666 0.741082788 -0.281064242 1.69862401 0.742369652 -0.279778689 1.69613087 0.741082788 -0.281064242 1.69862401 0.74096173 -0.282316625 1.69793332 0.73968488 -0.282461822 1.69872665 0.74096173 -0.282316625 1.69793332 0.741776288 -0.281502694 1.69679666 0.738455415 -0.283625603 1.69517994 0.74096173 -0.282316625 1.69793332 0.737923503 -0.284070879 1.69883287 0.73968488 -0.282461822 1.69872665 0.761657655 -0.307665884 1.69498122 0.766120315 -0.303976536 1.69407451 0.7611624 -0.308291823 1.69741261 0.742391586 -0.279586703 1.69434178 0.740236759 -0.281745046 1.69360912 0.737900198 -0.278416783 1.69522357 0.741082788 -0.281064242 1.69862401 0.743030667 -0.279049575 1.70012379 0.741689324 -0.280457646 1.69870293 0.740236759 -0.281745046 1.69360912 0.741776288 -0.281502694 1.69679666 0.737900198 -0.278416783 1.69522357 0.741776288 -0.281502694 1.69679666 0.742391586 -0.279586703 1.69434178 0.737900198 -0.278416783 1.69522357 0.741776288 -0.281502694 1.69679666 0.740236759 -0.281745046 1.69360912 0.738455415 -0.283625603 1.69517994 0.74079752 -0.281186402 1.70174825 0.743030667 -0.279049575 1.70012379 0.73968488 -0.282461822 1.69872665 0.737923503 -0.284070879 1.69883287 0.74096173 -0.282316625 1.69793332 0.738455415 -0.283625603 1.69517994 0.742369652 -0.279778689 1.69613087 0.743596911 -0.278418958 1.69762945 0.742391586 -0.279586703 1.69434178 0.741689324 -0.280457646 1.69870293 0.743596911 -0.278418958 1.69762945 0.742369652 -0.279778689 1.69613087 0.743030667 -0.279049575 1.70012379 0.743596911 -0.278418958 1.69762945 0.741689324 -0.280457646 1.69870293 0.742369652 -0.279778689 1.69613087 0.742391586 -0.279586703 1.69434178 0.741776288 -0.281502694 1.69679666 0.741689324 -0.280457646 1.69870293 0.742369652 -0.279778689 1.69613087 0.741082788 -0.281064242 1.69862401 0.76447928 -0.30498597 1.69302678 0.766120315 -0.303976536 1.69407451 0.761657655 -0.307665884 1.69498122 0.74079752 -0.281186402 1.70174825 0.73968488 -0.282461822 1.69872665 0.737923503 -0.284070879 1.69883287 0.743030667 -0.279049575 1.70012379 0.741082788 -0.281064242 1.69862401 0.73968488 -0.282461822 1.69872665 0.741645217 -0.276449561 1.70050931 0.743030667 -0.279049575 1.70012379 0.739117026 -0.279066175 1.70258963 0.743596911 -0.278418958 1.69762945 0.743030667 -0.279049575 1.70012379 0.741645217 -0.276449561 1.70050931 0.740706801 -0.277553499 1.69426405 0.743596911 -0.278418958 1.69762945 0.741645217 -0.276449561 1.70050931 0.742391586 -0.279586703 1.69434178 0.743596911 -0.278418958 1.69762945 0.740706801 -0.277553499 1.69426405 0.743030667 -0.279049575 1.70012379 0.74079752 -0.281186402 1.70174825 0.739117026 -0.279066175 1.70258963 0.732286155 -0.276687294 1.70195591 0.734496772 -0.274490535 1.70265424 0.74079752 -0.281186402 1.70174825 0.7611624 -0.308291823 1.69741261 0.766120315 -0.303976536 1.69407451 0.763442039 -0.306669772 1.7012502 0.73781532 -0.280439645 1.70174205 0.732286155 -0.276687294 1.70195591 0.74079752 -0.281186402 1.70174825 0.740706801 -0.277553499 1.69426405 0.740546346 -0.277642787 1.69249547 0.737566113 -0.28063789 1.69300699 0.734919131 -0.27735281 1.69344652 0.737139344 -0.276106924 1.69280112 0.737010062 -0.274589241 1.69231951 0.735825837 -0.282349825 1.70155752 0.73781532 -0.280439645 1.70174205 0.735259771 -0.282889903 1.69775033 0.735259771 -0.282889903 1.69775033 0.737566113 -0.28063789 1.69300699 0.736724854 -0.281484216 1.69367516 0.735259771 -0.282889903 1.69775033 0.738455415 -0.283625603 1.69517994 0.737566113 -0.28063789 1.69300699 0.753556967 -0.298272014 1.69310558 0.761038363 -0.301934898 1.69212461 0.756793678 -0.303296357 1.69372272 0.737923503 -0.284070879 1.69883287 0.738455415 -0.283625603 1.69517994 0.735259771 -0.282889903 1.69775033 0.737566113 -0.28063789 1.69300699 0.742391586 -0.279586703 1.69434178 0.740706801 -0.277553499 1.69426405 0.740236759 -0.281745046 1.69360912 0.742391586 -0.279586703 1.69434178 0.737566113 -0.28063789 1.69300699 0.74079752 -0.281186402 1.70174825 0.737923503 -0.284070879 1.69883287 0.735259771 -0.282889903 1.69775033 0.73781532 -0.280439645 1.70174205 0.74079752 -0.281186402 1.70174825 0.735259771 -0.282889903 1.69775033 0.738455415 -0.283625603 1.69517994 0.740236759 -0.281745046 1.69360912 0.737566113 -0.28063789 1.69300699 0.740707099 -0.277393758 1.70250034 0.741645217 -0.276449561 1.70050931 0.739117026 -0.279066175 1.70258963 0.758735597 -0.293102294 1.6945318 0.763562202 -0.296073258 1.69714344 0.763215899 -0.297204822 1.69437647 0.763215899 -0.297204822 1.69437647 0.763562202 -0.296073258 1.69714344 0.767690599 -0.301763296 1.69792676 0.761657655 -0.307665884 1.69498122 0.756793678 -0.303296357 1.69372272 0.76447928 -0.30498597 1.69302678 0.741645217 -0.276449561 1.70050931 0.742658436 -0.275519013 1.69933486 0.740706801 -0.277553499 1.69426405 0.737010062 -0.274589241 1.69231951 0.734777987 -0.276869744 1.69202602 0.734919131 -0.27735281 1.69344652 0.737139344 -0.276106924 1.69280112 0.737566113 -0.28063789 1.69300699 0.740546346 -0.277642787 1.69249547 0.732919037 -0.27605769 1.692963 0.732217252 -0.276709944 1.69251251 0.736724854 -0.281484216 1.69367516 0.737566113 -0.28063789 1.69300699 0.732919037 -0.27605769 1.692963 0.736724854 -0.281484216 1.69367516 0.734496772 -0.274490535 1.70265424 0.739117026 -0.279066175 1.70258963 0.74079752 -0.281186402 1.70174825 0.734777987 -0.276869744 1.69202602 0.737423778 -0.273801833 1.6927551 0.736871004 -0.272078812 1.69434178 0.734777987 -0.276869744 1.69202602 0.736871004 -0.272078812 1.69434178 0.732919037 -0.27605769 1.692963 0.737139344 -0.276106924 1.69280112 0.734919131 -0.27735281 1.69344652 0.737566113 -0.28063789 1.69300699 0.737010062 -0.274589241 1.69231951 0.737139344 -0.276106924 1.69280112 0.740546346 -0.277642787 1.69249547 0.732217371 -0.278527975 1.7017374 0.730642617 -0.27834335 1.69703889 0.732286155 -0.276687294 1.70195591 0.730642617 -0.27834335 1.69703889 0.736724854 -0.281484216 1.69367516 0.732217252 -0.276709944 1.69251251 0.735259771 -0.282889903 1.69775033 0.736724854 -0.281484216 1.69367516 0.730642617 -0.27834335 1.69703889 0.73781532 -0.280439645 1.70174205 0.735825837 -0.282349825 1.70155752 0.732286155 -0.276687294 1.70195591 0.731558621 -0.28016001 1.69826972 0.732446969 -0.279195219 1.70138347 0.735825837 -0.282349825 1.70155752 0.756793678 -0.303296357 1.69372272 0.761038363 -0.301934898 1.69212461 0.76447928 -0.30498597 1.69302678 0.735259771 -0.282889903 1.69775033 0.731558621 -0.28016001 1.69826972 0.735825837 -0.282349825 1.70155752 0.741645217 -0.276449561 1.70050931 0.739293814 -0.27230078 1.69969571 0.742658436 -0.275519013 1.69933486 0.738005996 -0.273591876 1.70216858 0.739293814 -0.27230078 1.69969571 0.741645217 -0.276449561 1.70050931 0.758735597 -0.293102294 1.6945318 0.75942564 -0.292387933 1.69769335 0.763562202 -0.296073258 1.69714344 0.740707099 -0.277393758 1.70250034 0.738005996 -0.273591876 1.70216858 0.741645217 -0.276449561 1.70050931 0.739238441 -0.272138685 1.69885135 0.734496772 -0.274490535 1.70265424 0.737755358 -0.271228164 1.69811857 0.740707099 -0.277393758 1.70250034 0.739117026 -0.279066175 1.70258963 0.734496772 -0.274490535 1.70265424 0.736870646 -0.274109721 1.7020607 0.740707099 -0.277393758 1.70250034 0.734496772 -0.274490535 1.70265424 0.737755358 -0.271228164 1.69811857 0.742658436 -0.275519013 1.69933486 0.739238441 -0.272138685 1.69885135 0.740706801 -0.277553499 1.69426405 0.742658436 -0.275519013 1.69933486 0.737755358 -0.271228164 1.69811857 0.736871004 -0.272078812 1.69434178 0.740706801 -0.277553499 1.69426405 0.737755358 -0.271228164 1.69811857 0.739238441 -0.272138685 1.69885135 0.736870646 -0.274109721 1.7020607 0.734496772 -0.274490535 1.70265424 0.740706801 -0.277553499 1.69426405 0.737423778 -0.273801833 1.6927551 0.740546346 -0.277642787 1.69249547 0.740706801 -0.277553499 1.69426405 0.736871004 -0.272078812 1.69434178 0.737423778 -0.273801833 1.6927551 0.734777987 -0.276869744 1.69202602 0.732919037 -0.27605769 1.692963 0.737566113 -0.28063789 1.69300699 0.737566113 -0.28063789 1.69300699 0.734919131 -0.27735281 1.69344652 0.734777987 -0.276869744 1.69202602 0.730642617 -0.27834335 1.69703889 0.731203377 -0.279911429 1.69756103 0.735259771 -0.282889903 1.69775033 0.730642617 -0.27834335 1.69703889 0.732217371 -0.278527975 1.7017374 0.731203377 -0.279911429 1.69756103 0.732217371 -0.278527975 1.7017374 0.732286155 -0.276687294 1.70195591 0.735825837 -0.282349825 1.70155752 0.731203377 -0.279911429 1.69756103 0.731558621 -0.28016001 1.69826972 0.735259771 -0.282889903 1.69775033 0.736870646 -0.274109721 1.7020607 0.73594892 -0.272972792 1.70284653 0.740707099 -0.277393758 1.70250034 0.737575352 -0.271351069 1.69445729 0.749895275 -0.283216029 1.69575322 0.749594748 -0.284645617 1.69396782 0.73594892 -0.272972792 1.70284653 0.737755358 -0.271228164 1.69811857 0.734496772 -0.274490535 1.70265424 0.73594892 -0.272972792 1.70284653 0.738195539 -0.27072984 1.69666505 0.737755358 -0.271228164 1.69811857 0.733088434 -0.27583307 1.70323861 0.732286155 -0.276687294 1.70195591 0.730122566 -0.278802246 1.69668365 0.732286155 -0.276687294 1.70195591 0.730642617 -0.27834335 1.69703889 0.730122566 -0.278802246 1.69668365 0.737755358 -0.271228164 1.69811857 0.738195539 -0.27072984 1.69666505 0.736871004 -0.272078812 1.69434178 0.738195539 -0.27072984 1.69666505 0.737575352 -0.271351069 1.69445729 0.736871004 -0.272078812 1.69434178 0.730642617 -0.27834335 1.69703889 0.730753005 -0.278173238 1.6944623 0.730122566 -0.278802246 1.69668365 0.730642617 -0.27834335 1.69703889 0.732217252 -0.276709944 1.69251251 0.730753005 -0.278173238 1.6944623 0.736871004 -0.272078812 1.69434178 0.737575352 -0.271351069 1.69445729 0.732217252 -0.276709944 1.69251251 0.761038363 -0.301934898 1.69212461 0.763047397 -0.29991433 1.69279122 0.76447928 -0.30498597 1.69302678 0.736871004 -0.272078812 1.69434178 0.732217252 -0.276709944 1.69251251 0.732919037 -0.27605769 1.692963 0.73594892 -0.272972792 1.70284653 0.734496772 -0.274490535 1.70265424 0.733088434 -0.27583307 1.70323861 0.733088434 -0.27583307 1.70323861 0.734496772 -0.274490535 1.70265424 0.732286155 -0.276687294 1.70195591 0.763562202 -0.296073258 1.69714344 0.76587224 -0.29976365 1.70002234 0.767690599 -0.301763296 1.69792676 0.739238441 -0.272138685 1.69885135 0.73594892 -0.272972792 1.70284653 0.736870646 -0.274109721 1.7020607 0.731558621 -0.28016001 1.69826972 0.731203377 -0.279911429 1.69756103 0.742659986 -0.290437669 1.69975448 0.730122566 -0.278802246 1.69668365 0.730753005 -0.278173238 1.6944623 0.731203377 -0.279911429 1.69756103 0.730753005 -0.278173238 1.6944623 0.732217252 -0.276709944 1.69251251 0.743611276 -0.28949967 1.69365704 0.75942564 -0.292387933 1.69769335 0.76587224 -0.29976365 1.70002234 0.763562202 -0.296073258 1.69714344 0.732217252 -0.276709944 1.69251251 0.745208859 -0.287909776 1.6923877 0.743611276 -0.28949967 1.69365704 0.732217252 -0.276709944 1.69251251 0.734777987 -0.276869744 1.69202602 0.745208859 -0.287909776 1.6923877 0.732446969 -0.279195219 1.70138347 0.731558621 -0.28016001 1.69826972 0.742659986 -0.290437669 1.69975448 0.732217371 -0.278527975 1.7017374 0.733088434 -0.27583307 1.70323861 0.730122566 -0.278802246 1.69668365 0.731203377 -0.279911429 1.69756103 0.732217371 -0.278527975 1.7017374 0.730122566 -0.278802246 1.69668365 0.734777987 -0.276869744 1.69202602 0.737010062 -0.274589241 1.69231951 0.747190237 -0.285917103 1.69233048 0.737423778 -0.273801833 1.6927551 0.734777987 -0.276869744 1.69202602 0.737575352 -0.271351069 1.69445729 0.733088434 -0.27583307 1.70323861 0.732217371 -0.278527975 1.7017374 0.735825837 -0.282349825 1.70155752 0.733088434 -0.27583307 1.70323861 0.735825837 -0.282349825 1.70155752 0.743752122 -0.289353788 1.70185959 0.753556967 -0.298272014 1.69310558 0.75727427 -0.29454273 1.69280469 0.761038363 -0.301934898 1.69212461 0.734777987 -0.276869744 1.69202602 0.747190237 -0.285917103 1.69233048 0.745208859 -0.287909776 1.6923877 0.732217252 -0.276709944 1.69251251 0.737575352 -0.271351069 1.69445729 0.734777987 -0.276869744 1.69202602 0.737010062 -0.274589241 1.69231951 0.740546346 -0.277642787 1.69249547 0.747190237 -0.285917103 1.69233048 0.732446969 -0.279195219 1.70138347 0.743752122 -0.289353788 1.70185959 0.735825837 -0.282349825 1.70155752 0.732446969 -0.279195219 1.70138347 0.742659986 -0.290437669 1.69975448 0.743752122 -0.289353788 1.70185959 0.742659986 -0.290437669 1.69975448 0.730753005 -0.278173238 1.6944623 0.743611276 -0.28949967 1.69365704 0.731203377 -0.279911429 1.69756103 0.730753005 -0.278173238 1.6944623 0.742659986 -0.290437669 1.69975448 0.743752122 -0.289353788 1.70185959 0.742659986 -0.290437669 1.69975448 0.746025145 -0.288206965 1.70293689 0.747190237 -0.285917103 1.69233048 0.749594748 -0.284645617 1.69396782 0.745208859 -0.287909776 1.6923877 0.744716167 -0.29220289 1.69933915 0.742659986 -0.290437669 1.69975448 0.745621443 -0.292442083 1.69519269 0.750481725 -0.283767492 1.69919825 0.748109519 -0.284982145 1.70249045 0.74985826 -0.287068784 1.70221996 0.763047397 -0.29991433 1.69279122 0.766120315 -0.303976536 1.69407451 0.76447928 -0.30498597 1.69302678 0.746025145 -0.288206965 1.70293689 0.742659986 -0.290437669 1.69975448 0.744716167 -0.29220289 1.69933915 0.743611276 -0.28949967 1.69365704 0.745621443 -0.292442083 1.69519269 0.742659986 -0.290437669 1.69975448 0.746025145 -0.288206965 1.70293689 0.744716167 -0.29220289 1.69933915 0.74670583 -0.290215909 1.70237446 0.743611276 -0.28949967 1.69365704 0.746872663 -0.290055573 1.69285703 0.745621443 -0.292442083 1.69519269 0.744716167 -0.29220289 1.69933915 0.74726516 -0.294630677 1.69824648 0.7473526 -0.293391407 1.70066297 0.750042319 -0.288024187 1.69293761 0.751416206 -0.29048723 1.69297624 0.746872663 -0.290055573 1.69285703 0.746872663 -0.290055573 1.69285703 0.751416206 -0.29048723 1.69297624 0.749206901 -0.292680621 1.69324756 0.744716167 -0.29220289 1.69933915 0.7473526 -0.293391407 1.70066297 0.74670583 -0.290215909 1.70237446 0.74670583 -0.290215909 1.70237446 0.7473526 -0.293391407 1.70066297 0.749452293 -0.291285336 1.70244098 0.746872663 -0.290055573 1.69285703 0.749206901 -0.292680621 1.69324756 0.745621443 -0.292442083 1.69519269 0.761038363 -0.301934898 1.69212461 0.75727427 -0.29454273 1.69280469 0.763047397 -0.29991433 1.69279122 0.745621443 -0.292442083 1.69519269 0.749206901 -0.292680621 1.69324756 0.74726516 -0.294630677 1.69824648 0.745621443 -0.292442083 1.69519269 0.74726516 -0.294630677 1.69824648 0.744716167 -0.29220289 1.69933915 0.75942564 -0.292387933 1.69769335 0.758873701 -0.292930692 1.70044577 0.76587224 -0.29976365 1.70002234 0.74726516 -0.294630677 1.69824648 0.749408484 -0.295136869 1.69459093 0.749304235 -0.296407908 1.6964463 0.755617201 -0.290094465 1.69568169 0.751920819 -0.293771952 1.69294143 0.751416206 -0.29048723 1.69297624 0.74726516 -0.294630677 1.69824648 0.749304235 -0.296407908 1.6964463 0.749332249 -0.295229405 1.70062029 0.751416206 -0.29048723 1.69297624 0.751920819 -0.293771952 1.69294143 0.749206901 -0.292680621 1.69324756 0.74726516 -0.294630677 1.69824648 0.749332249 -0.295229405 1.70062029 0.7473526 -0.293391407 1.70066297 0.749206901 -0.292680621 1.69324756 0.751920819 -0.293771952 1.69294143 0.749408484 -0.295136869 1.69459093 0.749206901 -0.292680621 1.69324756 0.749408484 -0.295136869 1.69459093 0.74726516 -0.294630677 1.69824648 0.752441764 -0.299360991 1.6946429 0.749304235 -0.296407908 1.6964463 0.749408484 -0.295136869 1.69459093 0.752441764 -0.299360991 1.6946429 0.751787663 -0.300022036 1.69785118 0.749304235 -0.296407908 1.6964463 0.75727427 -0.29454273 1.69280469 0.753556967 -0.298272014 1.69310558 0.751920819 -0.293771952 1.69294143 0.751787663 -0.300022036 1.69785118 0.749332249 -0.295229405 1.70062029 0.749304235 -0.296407908 1.6964463 0.753556967 -0.298272014 1.69310558 0.752441764 -0.299360991 1.6946429 0.751920819 -0.293771952 1.69294143 0.751787663 -0.300022036 1.69785118 0.752320528 -0.299490929 1.70042062 0.749332249 -0.295229405 1.70062029 0.752441764 -0.299360991 1.6946429 0.749408484 -0.295136869 1.69459093 0.751920819 -0.293771952 1.69294143 0.763215899 -0.297204822 1.69437647 0.763047397 -0.29991433 1.69279122 0.75727427 -0.29454273 1.69280469 0.752441764 -0.299360991 1.6946429 0.761657655 -0.307665884 1.69498122 0.756322801 -0.304858416 1.69668806 0.756793678 -0.303296357 1.69372272 0.761657655 -0.307665884 1.69498122 0.752441764 -0.299360991 1.6946429 0.738195539 -0.27072984 1.69666505 0.749895275 -0.283216029 1.69575322 0.737575352 -0.271351069 1.69445729 0.738195539 -0.27072984 1.69666505 0.739238441 -0.272138685 1.69885135 0.742658436 -0.275519013 1.69933486 0.738195539 -0.27072984 1.69666505 0.742658436 -0.275519013 1.69933486 0.749895275 -0.283216029 1.69575322 0.738195539 -0.27072984 1.69666505 0.73594892 -0.272972792 1.70284653 0.739238441 -0.272138685 1.69885135 0.738005996 -0.273591876 1.70216858 0.748109519 -0.284982145 1.70249045 0.742658436 -0.275519013 1.69933486 0.738005996 -0.273591876 1.70216858 0.740707099 -0.277393758 1.70250034 0.748109519 -0.284982145 1.70249045 0.740707099 -0.277393758 1.70250034 0.73594892 -0.272972792 1.70284653 0.748109519 -0.284982145 1.70249045 0.73594892 -0.272972792 1.70284653 0.733088434 -0.27583307 1.70323861 0.748109519 -0.284982145 1.70249045 0.733088434 -0.27583307 1.70323861 0.746025145 -0.288206965 1.70293689 0.748109519 -0.284982145 1.70249045 0.739293814 -0.27230078 1.69969571 0.738005996 -0.273591876 1.70216858 0.742658436 -0.275519013 1.69933486 0.737575352 -0.271351069 1.69445729 0.740546346 -0.277642787 1.69249547 0.737423778 -0.273801833 1.6927551 0.733088434 -0.27583307 1.70323861 0.743752122 -0.289353788 1.70185959 0.746025145 -0.288206965 1.70293689 0.749895275 -0.283216029 1.69575322 0.742658436 -0.275519013 1.69933486 0.750481725 -0.283767492 1.69919825 0.740546346 -0.277642787 1.69249547 0.737575352 -0.271351069 1.69445729 0.749594748 -0.284645617 1.69396782 0.747190237 -0.285917103 1.69233048 0.740546346 -0.277642787 1.69249547 0.749594748 -0.284645617 1.69396782 0.750481725 -0.283767492 1.69919825 0.742658436 -0.275519013 1.69933486 0.748109519 -0.284982145 1.70249045 0.749895275 -0.283216029 1.69575322 0.750481725 -0.283767492 1.69919825 0.749594748 -0.284645617 1.69396782 0.750481725 -0.283767492 1.69919825 0.751807511 -0.28511095 1.69766247 0.749594748 -0.284645617 1.69396782 0.743611276 -0.28949967 1.69365704 0.745208859 -0.287909776 1.6923877 0.746872663 -0.290055573 1.69285703 0.750042319 -0.288024187 1.69293761 0.749594748 -0.284645617 1.69396782 0.751807511 -0.28511095 1.69766247 0.746872663 -0.290055573 1.69285703 0.749594748 -0.284645617 1.69396782 0.750042319 -0.288024187 1.69293761 0.749594748 -0.284645617 1.69396782 0.746872663 -0.290055573 1.69285703 0.745208859 -0.287909776 1.6923877 0.750481725 -0.283767492 1.69919825 0.74985826 -0.287068784 1.70221996 0.751807511 -0.28511095 1.69766247 0.746025145 -0.288206965 1.70293689 0.74670583 -0.290215909 1.70237446 0.74985826 -0.287068784 1.70221996 0.746025145 -0.288206965 1.70293689 0.74985826 -0.287068784 1.70221996 0.748109519 -0.284982145 1.70249045 0.74670583 -0.290215909 1.70237446 0.749452293 -0.291285336 1.70244098 0.74985826 -0.287068784 1.70221996 0.751807511 -0.28511095 1.69766247 0.754007757 -0.287896067 1.69666517 0.750042319 -0.288024187 1.69293761 0.74985826 -0.287068784 1.70221996 0.749452293 -0.291285336 1.70244098 0.752741694 -0.28914541 1.70143771 0.750042319 -0.288024187 1.69293761 0.754007757 -0.287896067 1.69666517 0.751416206 -0.29048723 1.69297624 0.74985826 -0.287068784 1.70221996 0.752741694 -0.28914541 1.70143771 0.754007757 -0.287896067 1.69666517 0.74985826 -0.287068784 1.70221996 0.754007757 -0.287896067 1.69666517 0.751807511 -0.28511095 1.69766247 0.754007757 -0.287896067 1.69666517 0.755249143 -0.289294958 1.69876993 0.755617201 -0.290094465 1.69568169 0.749452293 -0.291285336 1.70244098 0.751042128 -0.293503106 1.70224833 0.753753603 -0.291955531 1.70209575 0.763047397 -0.29991433 1.69279122 0.763215899 -0.297204822 1.69437647 0.766120315 -0.303976536 1.69407451 0.749452293 -0.291285336 1.70244098 0.753753603 -0.291955531 1.70209575 0.752741694 -0.28914541 1.70143771 0.754007757 -0.287896067 1.69666517 0.755617201 -0.290094465 1.69568169 0.751416206 -0.29048723 1.69297624 0.752741694 -0.28914541 1.70143771 0.753753603 -0.291955531 1.70209575 0.755249143 -0.289294958 1.69876993 0.752741694 -0.28914541 1.70143771 0.755249143 -0.289294958 1.69876993 0.754007757 -0.287896067 1.69666517 0.749332249 -0.295229405 1.70062029 0.751042128 -0.293503106 1.70224833 0.7473526 -0.293391407 1.70066297 0.7473526 -0.293391407 1.70066297 0.751042128 -0.293503106 1.70224833 0.749452293 -0.291285336 1.70244098 0.757523239 -0.294328123 1.70236623 0.755249143 -0.289294958 1.69876993 0.753753603 -0.291955531 1.70209575 0.757523239 -0.294328123 1.70236623 0.75942564 -0.292387933 1.69769335 0.755249143 -0.289294958 1.69876993 0.758735597 -0.293102294 1.6945318 0.763215899 -0.297204822 1.69437647 0.75727427 -0.29454273 1.69280469 0.752320528 -0.299490929 1.70042062 0.751042128 -0.293503106 1.70224833 0.749332249 -0.295229405 1.70062029 0.752320528 -0.299490929 1.70042062 0.755943 -0.295858741 1.70304763 0.751042128 -0.293503106 1.70224833 0.752441764 -0.299360991 1.6946429 0.753556967 -0.298272014 1.69310558 0.756793678 -0.303296357 1.69372272 0.755943 -0.295858741 1.70304763 0.753753603 -0.291955531 1.70209575 0.751042128 -0.293503106 1.70224833 0.75942564 -0.292387933 1.69769335 0.755617201 -0.290094465 1.69568169 0.755249143 -0.289294958 1.69876993 0.75942564 -0.292387933 1.69769335 0.758735597 -0.293102294 1.6945318 0.755617201 -0.290094465 1.69568169 0.758735597 -0.293102294 1.6945318 0.75727427 -0.29454273 1.69280469 0.755617201 -0.290094465 1.69568169 0.75727427 -0.29454273 1.69280469 0.751920819 -0.293771952 1.69294143 0.755617201 -0.290094465 1.69568169 0.755943 -0.295858741 1.70304763 0.757523239 -0.294328123 1.70236623 0.753753603 -0.291955531 1.70209575 0.758873701 -0.292930692 1.70044577 0.75942564 -0.292387933 1.69769335 0.757523239 -0.294328123 1.70236623 0.767690599 -0.301763296 1.69792676 0.763442039 -0.306669772 1.7012502 0.766120315 -0.303976536 1.69407451 0.765403092 -0.303898007 1.70210505 0.763442039 -0.306669772 1.7012502 0.767690599 -0.301763296 1.69792676 0.759287715 -0.303689599 1.70252144 0.752320528 -0.299490929 1.70042062 0.757905304 -0.305208087 1.70054305 0.758873701 -0.292930692 1.70044577 0.757523239 -0.294328123 1.70236623 0.763067722 -0.299227059 1.70232964 0.759287715 -0.303689599 1.70252144 0.757905304 -0.305208087 1.70054305 0.763442039 -0.306669772 1.7012502 0.752320528 -0.299490929 1.70042062 0.759287715 -0.303689599 1.70252144 0.755943 -0.295858741 1.70304763 0.767690599 -0.301763296 1.69792676 0.763067722 -0.299227059 1.70232964 0.765403092 -0.303898007 1.70210505 0.758873701 -0.292930692 1.70044577 0.763067722 -0.299227059 1.70232964 0.76587224 -0.29976365 1.70002234 0.751787663 -0.300022036 1.69785118 0.752441764 -0.299360991 1.6946429 0.756322801 -0.304858416 1.69668806 0.76587224 -0.29976365 1.70002234 0.763067722 -0.299227059 1.70232964 0.767690599 -0.301763296 1.69792676 0.756322801 -0.304858416 1.69668806 0.761657655 -0.307665884 1.69498122 0.7611624 -0.308291823 1.69741261 0.765403092 -0.303898007 1.70210505 0.759287715 -0.303689599 1.70252144 0.763442039 -0.306669772 1.7012502 0.755943 -0.295858741 1.70304763 0.759287715 -0.303689599 1.70252144 0.761020839 -0.299922645 1.70324945 0.761020839 -0.299922645 1.70324945 0.759287715 -0.303689599 1.70252144 0.765403092 -0.303898007 1.70210505 0.757523239 -0.294328123 1.70236623 0.755943 -0.295858741 1.70304763 0.761020839 -0.299922645 1.70324945 0.766120315 -0.303976536 1.69407451 0.763215899 -0.297204822 1.69437647 0.767690599 -0.301763296 1.69792676 0.757905304 -0.305208087 1.70054305 0.756322801 -0.304858416 1.69668806 0.7611624 -0.308291823 1.69741261 0.752320528 -0.299490929 1.70042062 0.751787663 -0.300022036 1.69785118 0.756322801 -0.304858416 1.69668806 0.757523239 -0.294328123 1.70236623 0.761020839 -0.299922645 1.70324945 0.763067722 -0.299227059 1.70232964 0.752320528 -0.299490929 1.70042062 0.756322801 -0.304858416 1.69668806 0.757905304 -0.305208087 1.70054305 0.763067722 -0.299227059 1.70232964 0.761020839 -0.299922645 1.70324945 0.765403092 -0.303898007 1.70210505 0.763442039 -0.306669772 1.7012502 0.757905304 -0.305208087 1.70054305 0.7611624 -0.308291823 1.69741261 </float_array>
          <technique_common>
            <accessor count="690" offset="0" source="#mesh_0-positions-array" stride="3">
              <param name="X" type="float" />
              <param name="Y" type="float" />
              <param name="Z" type="float" />
            </accessor>
          </technique_common>
        </source>
        <vertices id="mesh_0-vertices">
          <input semantic="POSITION" source="#mesh_0-positions" />
        </vertices>
        <polylist count="230" material="defaultMaterial">
          <input offset="0" semantic="VERTEX" source="#mesh_0-vertices" />
          <vcount>3 3 3 3 3 3 3 3 3 3 3 3 3 3 3 3 3 3 3 3 3 3 3 3 3 3 3 3 3 3 3 3 3 3 3 3 3 3 3 3 3 3 3 3 3 3 3 3 3 3 3 3 3 3 3 3 3 3 3 3 3 3 3 3 3 3 3 3 3 3 3 3 3 3 3 3 3 3 3 3 3 3 3 3 3 3 3 3 3 3 3 3 3 3 3 3 3 3 3 3 3 3 3 3 3 3 3 3 3 3 3 3 3 3 3 3 3 3 3 3 3 3 3 3 3 3 3 3 3 3 3 3 3 3 3 3 3 3 3 3 3 3 3 3 3 3 3 3 3 3 3 3 3 3 3 3 3 3 3 3 3 3 3 3 3 3 3 3 3 3 3 3 3 3 3 3 3 3 3 3 3 3 3 3 3 3 3 3 3 3 3 3 3 3 3 3 3 3 3 3 3 3 3 3 3 3 3 3 3 3 3 3 3 3 3 3 3 3 3 3 3 3 3 3 3 3 3 3 3 3 </vcount>
          <p>0 1 2 3 4 5 6 7 8 9 10 11 12 13 14 15 16 17 18 19 20 21 22 23 24 25 26 27 28 29 30 31 32 33 34 35 36 37 38 39 40 41 42 43 44 45 46 47 48 49 50 51 52 53 54 55 56 57 58 59 60 61 62 63 64 65 66 67 68 69 70 71 72 73 74 75 76 77 78 79 80 81 82 83 84 85 86 87 88 89 90 91 92 93 94 95 96 97 98 99 100 101 102 103 104 105 106 107 108 109 110 111 112 113 114 115 116 117 118 119 120 121 122 123 124 125 126 127 128 129 130 131 132 133 134 135 136 137 138 139 140 141 142 143 144 145 146 147 148 149 150 151 152 153 154 155 156 157 158 159 160 161 162 163 164 165 166 167 168 169 170 171 172 173 174 175 176 177 178 179 180 181 182 183 184 185 186 187 188 189 190 191 192 193 194 195 196 197 198 199 200 201 202 203 204 205 206 207 208 209 210 211 212 213 214 215 216 217 218 219 220 221 222 223 224 225 226 227 228 229 230 231 232 233 234 235 236 237 238 239 240 241 242 243 244 245 246 247 248 249 250 251 252 253 254 255 256 257 258 259 260 261 262 263 264 265 266 267 268 269 270 271 272 273 274 275 276 277 278 279 280 281 282 283 284 285 286 287 288 289 290 291 292 293 294 295 296 297 298 299 300 301 302 303 304 305 306 307 308 309 310 311 312 313 314 315 316 317 318 319 320 321 322 323 324 325 326 327 328 329 330 331 332 333 334 335 336 337 338 339 340 341 342 343 344 345 346 347 348 349 350 351 352 353 354 355 356 357 358 359 360 361 362 363 364 365 366 367 368 369 370 371 372 373 374 375 376 377 378 379 380 381 382 383 384 385 386 387 388 389 390 391 392 393 394 395 396 397 398 399 400 401 402 403 404 405 406 407 408 409 410 411 412 413 414 415 416 417 418 419 420 421 422 423 424 425 426 427 428 429 430 431 432 433 434 435 436 437 438 439 440 441 442 443 444 445 446 447 448 449 450 451 452 453 454 455 456 457 458 459 460 461 462 463 464 465 466 467 468 469 470 471 472 473 474 475 476 477 478 479 480 481 482 483 484 485 486 487 488 489 490 491 492 493 494 495 496 497 498 499 500 501 502 503 504 505 506 507 508 509 510 511 512 513 514 515 516 517 518 519 520 521 522 523 524 525 526 527 528 529 530 531 532 533 534 535 536 537 538 539 540 541 542 543 544 545 546 547 548 549 550 551 552 553 554 555 556 557 558 559 560 561 562 563 564 565 566 567 568 569 570 571 572 573 574 575 576 577 578 579 580 581 582 583 584 585 586 587 588 589 590 591 592 593 594 595 596 597 598 599 600 601 602 603 604 605 606 607 608 609 610 611 612 613 614 615 616 617 618 619 620 621 622 623 624 625 626 627 628 629 630 631 632 633 634 635 636 637 638 639 640 641 642 643 644 645 646 647 648 649 650 651 652 653 654 655 656 657 658 659 660 661 662 663 664 665 666 667 668 669 670 671 672 673 674 675 676 677 678 679 680 681 682 683 684 685 686 687 688 689 </p>
        </polylist>
      </mesh>
    </geometry>
  </library_geometries>
  <library_controllers>
  </library_controllers>
  <library_visual_scenes>
    <visual_scene id="Scene" name="Scene">
      <node id="node" name="" type="NODE">
        <matrix sid="matrix">1 0 0 0 0 1 0 0 0 0 1 0 0 0 0 1</matrix>
        <instance_geometry url="#mesh_0">
          <bind_material>
            <technique_common>
              <instance_material symbol="defaultMaterial" target="#material_0">
              </instance_material>
            </technique_common>
          </bind_material>
        </instance_geometry>
      </node>
    </visual_scene>
  </library_visual_scenes>
  <scene>
    <instance_visual_scene url="#Scene" />
  </scene>
</COLLADA>
