<?xml version="1.0" encoding="UTF-8" standalone="no" ?>
<COLLADA xmlns="http://www.collada.org/2005/11/COLLADASchema" version="1.4.1">
  <asset>
    <contributor>
      <author>Assimp</author>
      <authoring_tool>Assimp Exporter</authoring_tool>
    </contributor>
    <created>2026-04-22T16:09:44</created>
    <modified>2026-04-22T16:09:44</modified>
    <unit name="meter" meter="1" />
    <up_axis>Y_UP</up_axis>
  </asset>
  <library_images>
  </library_images>
  <library_effects>
    <effect id="material_0-fx" name="">
      <profile_COMMON>
        <technique sid="standard">
          <phong>
            <emission>
              <color sid="emission">0   0   0   4.19744942e-41</color>
            </emission>
            <ambient>
              <color sid="ambient">0.75999999   0.670545638   0.61352545   4.19744942e-41</color>
            </ambient>
            <diffuse>
              <color sid="diffuse">0.75999999   0.670545638   0.61352545   4.19744942e-41</color>
            </diffuse>
            <specular>
              <color sid="specular">0.25   0.25   0.25   6.58610278e-44</color>
            </specular>
          </phong>
        </technique>
      </profile_COMMON>
    </effect>
  </library_effects>
  <library_materials>
    <material id="material_0" name="">
      <instance_effect url="#material_0-fx"/>
    </material>
  </library_materials>
  <library_geometries>
    <geometry id="mesh_0" name="" >
      <mesh>
        <source id="mesh_0-positions" name="mesh_0-positions">
          <float_array id="mesh_0-positions-array" count="1800"> -0.235542983 -0.0721547976 0.750182211 -0.172492936 0.036814902 0.751554787 -0.171161503 0.027174281 0.751564264 -0.251333654 0.116470918 0.750208557 -0.172492936 0.036814902 0.751554787 -0.235542983 -0.0721547976 0.750182211 -0.171161503 0.027174281 0.751564264 -0.171163678 0.0168461278 0.751548231 -0.235542983 -0.0721547976 0.750182211 -0.371443063 -0.0551919267 0.757734537 -0.372605681 -0.0553688407 0.750215054 -0.367694646 -0.0578035675 0.750214159 -0.184346721 -0.0198286809 0.751262724 -0.235542983 -0.0721547976 0.750182211 -0.177722231 -0.00823684782 0.751395941 -0.235542983 -0.0721547976 0.750182211 -0.173326522 0.00364291435 0.75149101 -0.177722231 -0.00823684782 0.751395941 -0.18869029 0.010500703 0.890214741 -0.188310981 0.0314411893 0.89021486 -0.297625929 0.0208588205 0.89021492 -0.188310981 0.0314411893 0.89021486 -0.206991717 0.0642150268 0.890215158 -0.297625929 0.0208588205 0.89021492 -0.172492936 0.036814902 0.751554787 -0.188310981 0.0314411893 0.89021486 -0.171161503 0.027174281 0.751564264 -0.226881176 -0.0678414255 0.758676589 -0.184346721 -0.0198286809 0.751262724 -0.199798346 -0.0126691647 0.890217602 -0.297625929 0.0208588205 0.89021492 -0.267727137 -0.0268189907 0.890215576 -0.237418503 -0.0326363035 0.890214562 -0.176024169 0.04892499 0.751512647 -0.172492936 0.036814902 0.751554787 -0.251333654 0.116470918 0.750208557 -0.182097644 0.0606154054 0.751424789 -0.176024169 0.04892499 0.751512647 -0.251333654 0.116470918 0.750208557 -0.194439694 0.0753738433 0.751232505 -0.187794581 0.0683966801 0.751337588 -0.251333654 0.116470918 0.750208557 -0.187794581 0.0683966801 0.751337588 -0.182097644 0.0606154054 0.751424789 -0.251333654 0.116470918 0.750208557 -0.235542983 -0.0721547976 0.750182211 -0.171163678 0.0168461278 0.751548231 -0.173326522 0.00364291435 0.75149101 -0.188310981 0.0314411893 0.89021486 -0.193625435 0.0473555103 0.890214801 -0.206991717 0.0642150268 0.890215158 -0.176024169 0.04892499 0.751512647 -0.182097644 0.0606154054 0.751424789 -0.193625435 0.0473555103 0.890214801 -0.268754423 0.0707929283 0.890214682 -0.278075397 0.0642808303 0.89021492 -0.297625929 0.0208588205 0.89021492 -0.206991717 0.0642150268 0.890215158 -0.214898229 0.0698491707 0.89021498 -0.297625929 0.0208588205 0.89021492 -0.297625929 0.0208588205 0.89021492 -0.242517978 0.0773779899 0.890214443 -0.268754423 0.0707929283 0.890214682 -0.256136566 0.0755846575 0.890216947 -0.268754423 0.0707929283 0.890214682 -0.242517978 0.0773779899 0.890214443 -0.210836336 -0.0228803176 0.89021492 -0.199798346 -0.0126691647 0.890217602 -0.297625929 0.0208588205 0.89021492 -0.296648353 0.0119872298 0.890215039 -0.29389137 0.00207063905 0.890214503 -0.297625929 0.0208588205 0.89021492 -0.365206569 0.0171334501 0.811363578 -0.364276141 0.00538960285 0.81117183 -0.297625929 0.0208588205 0.89021492 -0.297625929 0.0208588205 0.89021492 -0.364276141 0.00538960285 0.81117183 -0.296648353 0.0119872298 0.890215039 -0.223610729 -0.0295881853 0.890214026 -0.210836336 -0.0228803176 0.89021492 -0.297625929 0.0208588205 0.89021492 -0.237418503 -0.0326363035 0.890214562 -0.223610729 -0.0295881853 0.890214026 -0.297625929 0.0208588205 0.89021492 -0.30737856 -0.0593740381 0.807735026 -0.267727137 -0.0268189907 0.890215576 -0.34924078 -0.0347857885 0.809269905 -0.372605681 -0.0553688407 0.750215054 -0.371443063 -0.0551919267 0.757734537 -0.374424726 -0.0520051941 0.757767379 -0.381590515 0.077230379 0.757629931 -0.383660197 0.0764299855 0.750215769 -0.383973181 0.074698098 0.757781327 -0.379678965 0.0793201104 0.750215709 -0.383660197 0.0764299855 0.750215769 -0.381590515 0.077230379 0.757629931 -0.251333654 0.116470918 0.750208557 -0.247543737 0.115476668 0.758846462 -0.246687427 0.116186105 0.750385702 -0.199798346 -0.0126691647 0.890217602 -0.19283776 -0.00147611287 0.89021486 -0.297625929 0.0208588205 0.89021492 -0.184346721 -0.0198286809 0.751262724 -0.19283776 -0.00147611287 0.89021486 -0.199798346 -0.0126691647 0.890217602 -0.177722231 -0.00823684782 0.751395941 -0.19283776 -0.00147611287 0.89021486 -0.184346721 -0.0198286809 0.751262724 -0.297625929 0.0208588205 0.89021492 -0.19283776 -0.00147611287 0.89021486 -0.18869029 0.010500703 0.890214741 -0.173326522 0.00364291435 0.75149101 -0.19283776 -0.00147611287 0.89021486 -0.177722231 -0.00823684782 0.751395941 -0.18869029 0.010500703 0.890214741 -0.19283776 -0.00147611287 0.89021486 -0.173326522 0.00364291435 0.75149101 -0.182097644 0.0606154054 0.751424789 -0.187794581 0.0683966801 0.751337588 -0.199113294 0.0561546795 0.89021486 -0.188310981 0.0314411893 0.89021486 -0.187501311 0.0224400051 0.890214682 -0.171161503 0.027174281 0.751564264 -0.18869029 0.010500703 0.890214741 -0.187501311 0.0224400051 0.890214682 -0.188310981 0.0314411893 0.89021486 -0.268754423 0.0707929283 0.890214682 -0.256136566 0.0755846575 0.890216947 -0.377221078 0.0793708488 0.757659793 -0.297625929 0.0208588205 0.89021492 -0.292494595 0.0455391072 0.890214801 -0.296596199 0.0332490988 0.890214801 -0.227107093 0.0752009228 0.890214205 -0.242517978 0.0773779899 0.890214443 -0.297625929 0.0208588205 0.89021492 -0.214898229 0.0698491707 0.89021498 -0.227107093 0.0752009228 0.890214205 -0.297625929 0.0208588205 0.89021492 -0.242510676 0.0960107148 0.831295013 -0.256136566 0.0755846575 0.890216947 -0.242517978 0.0773779899 0.890214443 -0.184346721 -0.0198286809 0.751262724 -0.226327583 -0.0685488284 0.750457585 -0.235542983 -0.0721547976 0.750182211 -0.29389137 0.00207063905 0.890214503 -0.286221266 -0.0116316946 0.890214562 -0.297625929 0.0208588205 0.89021492 -0.387369722 0.0704916567 0.750214756 -0.383973181 0.074698098 0.757781327 -0.383660197 0.0764299855 0.750215769 -0.242944106 0.114796825 0.7504493 -0.246687427 0.116186105 0.750385702 -0.247543737 0.115476668 0.758846462 -0.251333654 0.116470918 0.750208557 -0.246687427 0.116186105 0.750385702 -0.242944106 0.114796825 0.7504493 -0.252321184 0.115342312 0.758706808 -0.247543737 0.115476668 0.758846462 -0.251333654 0.116470918 0.750208557 -0.242510676 0.0960107148 0.831295013 -0.247543737 0.115476668 0.758846462 -0.252321184 0.115342312 0.758706808 -0.242944106 0.114796825 0.7504493 -0.194439694 0.0753738433 0.751232505 -0.251333654 0.116470918 0.750208557 -0.242944106 0.114796825 0.7504493 -0.243221372 0.113944493 0.758532763 -0.194439694 0.0753738433 0.751232505 -0.243221372 0.113944493 0.758532763 -0.206991717 0.0642150268 0.890215158 -0.194439694 0.0753738433 0.751232505 -0.387143105 -0.0326584689 0.750214636 -0.388002217 -0.0278464612 0.758031845 -0.392401844 -0.0158156548 0.750214934 -0.193625435 0.0473555103 0.890214801 -0.199113294 0.0561546795 0.89021486 -0.206991717 0.0642150268 0.890215158 -0.193625435 0.0473555103 0.890214801 -0.182097644 0.0606154054 0.751424789 -0.199113294 0.0561546795 0.89021486 -0.187501311 0.0224400051 0.890214682 -0.171163678 0.0168461278 0.751548231 -0.171161503 0.027174281 0.751564264 -0.171163678 0.0168461278 0.751548231 -0.18869029 0.010500703 0.890214741 -0.173326522 0.00364291435 0.75149101 -0.377221078 0.0793708488 0.757659793 -0.251333654 0.116470918 0.750208557 -0.379678965 0.0793201104 0.750215709 -0.251333654 0.116470918 0.750208557 -0.377221078 0.0793708488 0.757659793 -0.252321184 0.115342312 0.758706808 -0.256136566 0.0755846575 0.890216947 -0.242510676 0.0960107148 0.831295013 -0.252321184 0.115342312 0.758706808 -0.381590515 0.077230379 0.757629931 -0.278075397 0.0642808303 0.89021492 -0.268754423 0.0707929283 0.890214682 -0.227107093 0.0752009228 0.890214205 -0.214898229 0.0698491707 0.89021498 -0.239950046 0.0964313596 0.828669846 -0.184346721 -0.0198286809 0.751262724 -0.226881176 -0.0678414255 0.758676589 -0.226327583 -0.0685488284 0.750457585 -0.364276141 0.00538960285 0.81117183 -0.362493008 -0.00307961227 0.811632574 -0.296648353 0.0119872298 0.890215039 -0.223610729 -0.0295881853 0.890214026 -0.237418503 -0.0326363035 0.890214562 -0.229402483 -0.050455004 0.831190407 -0.34924078 -0.0347857885 0.809269905 -0.371443063 -0.0551919267 0.757734537 -0.30737856 -0.0593740381 0.807735026 -0.367694646 -0.0578035675 0.750214159 -0.367080718 -0.0570882969 0.757882774 -0.371443063 -0.0551919267 0.757734537 -0.371443063 -0.0551919267 0.757734537 -0.367080718 -0.0570882969 0.757882774 -0.30737856 -0.0593740381 0.807735026 -0.267727137 -0.0268189907 0.890215576 -0.256901562 -0.0310012139 0.890214503 -0.237418503 -0.0326363035 0.890214562 -0.246884465 -0.032676667 0.890214443 -0.237418503 -0.0326363035 0.890214562 -0.256901562 -0.0310012139 0.890214503 -0.256901562 -0.0310012139 0.890214503 -0.301543176 -0.0597941913 0.809193969 -0.246884465 -0.032676667 0.890214443 -0.34924078 -0.0347857885 0.809269905 -0.276621014 -0.0210647956 0.890214741 -0.286221266 -0.0116316946 0.890214562 -0.380711287 -0.0449517407 0.750214696 -0.38323006 -0.0388825834 0.757897198 -0.387143105 -0.0326584689 0.750214636 -0.360357702 -0.0117345862 0.811724663 -0.358018726 -0.019063795 0.81155479 -0.29389137 0.00207063905 0.890214503 -0.286221266 -0.0116316946 0.890214562 -0.353234112 -0.0296031293 0.810393155 -0.34924078 -0.0347857885 0.809269905 -0.242944106 0.114796825 0.7504493 -0.247543737 0.115476668 0.758846462 -0.243221372 0.113944493 0.758532763 -0.395576537 0.00325615844 0.750214398 -0.393508613 -0.00485201785 0.758406222 -0.394972414 0.00682830904 0.758565605 -0.392401844 -0.0158156548 0.750214934 -0.393508613 -0.00485201785 0.758406222 -0.395576537 0.00325615844 0.750214398 -0.38898474 0.0651547909 0.757843316 -0.383973181 0.074698098 0.757781327 -0.387369722 0.0704916567 0.750214756 -0.190333843 0.039642904 0.890214801 -0.193625435 0.0473555103 0.890214801 -0.188310981 0.0314411893 0.89021486 -0.193625435 0.0473555103 0.890214801 -0.190333843 0.039642904 0.890214801 -0.176024169 0.04892499 0.751512647 -0.172492936 0.036814902 0.751554787 -0.190333843 0.039642904 0.890214801 -0.188310981 0.0314411893 0.89021486 -0.176024169 0.04892499 0.751512647 -0.190333843 0.039642904 0.890214801 -0.172492936 0.036814902 0.751554787 -0.206991717 0.0642150268 0.890215158 -0.199113294 0.0561546795 0.89021486 -0.194439694 0.0753738433 0.751232505 -0.194439694 0.0753738433 0.751232505 -0.199113294 0.0561546795 0.89021486 -0.187794581 0.0683966801 0.751337588 -0.187501311 0.0224400051 0.890214682 -0.18869029 0.010500703 0.890214741 -0.171163678 0.0168461278 0.751548231 -0.268754423 0.0707929283 0.890214682 -0.377221078 0.0793708488 0.757659793 -0.381590515 0.077230379 0.757629931 -0.252321184 0.115342312 0.758706808 -0.377221078 0.0793708488 0.757659793 -0.256136566 0.0755846575 0.890216947 -0.381590515 0.077230379 0.757629931 -0.35636875 0.0610460788 0.809094489 -0.278075397 0.0642808303 0.89021492 -0.243221372 0.113944493 0.758532763 -0.247543737 0.115476668 0.758846462 -0.239950046 0.0964313596 0.828669846 -0.243221372 0.113944493 0.758532763 -0.239950046 0.0964313596 0.828669846 -0.214898229 0.0698491707 0.89021498 -0.230784342 -0.0703686997 0.758690357 -0.226327583 -0.0685488284 0.750457585 -0.226881176 -0.0678414255 0.758676589 -0.230784342 -0.0703686997 0.758690357 -0.230873242 -0.0713466704 0.750392437 -0.226327583 -0.0685488284 0.750457585 -0.226327583 -0.0685488284 0.750457585 -0.230873242 -0.0713466704 0.750392437 -0.235542983 -0.0721547976 0.750182211 -0.226881176 -0.0678414255 0.758676589 -0.227111623 -0.0504316464 0.82881093 -0.230784342 -0.0703686997 0.758690357 -0.210836336 -0.0228803176 0.89021492 -0.227111623 -0.0504316464 0.82881093 -0.226881176 -0.0678414255 0.758676589 -0.30737856 -0.0593740381 0.807735026 -0.256901562 -0.0310012139 0.890214503 -0.267727137 -0.0268189907 0.890215576 -0.301543176 -0.0597941913 0.809193969 -0.256901562 -0.0310012139 0.890214503 -0.30737856 -0.0593740381 0.807735026 -0.367694646 -0.0578035675 0.750214159 -0.30737856 -0.0593740381 0.807735026 -0.367080718 -0.0570882969 0.757882774 -0.235542983 -0.0721547976 0.750182211 -0.30737856 -0.0593740381 0.807735026 -0.367694646 -0.0578035675 0.750214159 -0.301543176 -0.0597941913 0.809193969 -0.30737856 -0.0593740381 0.807735026 -0.235542983 -0.0721547976 0.750182211 -0.34924078 -0.0347857885 0.809269905 -0.267727137 -0.0268189907 0.890215576 -0.276621014 -0.0210647956 0.890214741 -0.276621014 -0.0210647956 0.890214741 -0.267727137 -0.0268189907 0.890215576 -0.297625929 0.0208588205 0.89021492 -0.286221266 -0.0116316946 0.890214562 -0.276621014 -0.0210647956 0.890214741 -0.297625929 0.0208588205 0.89021492 -0.38323006 -0.0388825834 0.757897198 -0.353234112 -0.0296031293 0.810393155 -0.355933011 -0.0244904347 0.81105113 -0.372605681 -0.0553688407 0.750215054 -0.374424726 -0.0520051941 0.757767379 -0.380711287 -0.0449517407 0.750214696 -0.387143105 -0.0326584689 0.750214636 -0.38323006 -0.0388825834 0.757897198 -0.388002217 -0.0278464612 0.758031845 -0.243221372 0.113944493 0.758532763 -0.214898229 0.0698491707 0.89021498 -0.206991717 0.0642150268 0.890215158 -0.392401844 -0.0158156548 0.750214934 -0.388002217 -0.0278464612 0.758031845 -0.391413331 -0.0157449059 0.758262515 -0.391413331 -0.0157449059 0.758262515 -0.393508613 -0.00485201785 0.758406222 -0.392401844 -0.0158156548 0.750214934 -0.396648347 0.0346513949 0.750214875 -0.396744907 0.0193328988 0.750214815 -0.395907402 0.0306536742 0.758324385 -0.296596199 0.0332490988 0.890214801 -0.36483562 0.0297154747 0.811785102 -0.297625929 0.0208588205 0.89021492 -0.381590515 0.077230379 0.757629931 -0.377221078 0.0793708488 0.757659793 -0.379678965 0.0793201104 0.750215709 -0.297625929 0.0208588205 0.89021492 -0.278075397 0.0642808303 0.89021492 -0.285797387 0.0564015433 0.890214801 -0.381590515 0.077230379 0.757629931 -0.383973181 0.074698098 0.757781327 -0.35636875 0.0610460788 0.809094489 -0.383973181 0.074698098 0.757781327 -0.359271318 0.0568809956 0.809899688 -0.35636875 0.0610460788 0.809094489 -0.242510676 0.0960107148 0.831295013 -0.239950046 0.0964313596 0.828669846 -0.247543737 0.115476668 0.758846462 -0.227107093 0.0752009228 0.890214205 -0.242510676 0.0960107148 0.831295013 -0.242517978 0.0773779899 0.890214443 -0.239950046 0.0964313596 0.828669846 -0.242510676 0.0960107148 0.831295013 -0.227107093 0.0752009228 0.890214205 -0.210836336 -0.0228803176 0.89021492 -0.226881176 -0.0678414255 0.758676589 -0.199798346 -0.0126691647 0.890217602 -0.229402483 -0.050455004 0.831190407 -0.227111623 -0.0504316464 0.82881093 -0.223610729 -0.0295881853 0.890214026 -0.210836336 -0.0228803176 0.89021492 -0.223610729 -0.0295881853 0.890214026 -0.227111623 -0.0504316464 0.82881093 -0.301543176 -0.0597941913 0.809193969 -0.235542983 -0.0721547976 0.750182211 -0.235260621 -0.071249865 0.75839293 -0.230873242 -0.0713466704 0.750392437 -0.235260621 -0.071249865 0.75839293 -0.235542983 -0.0721547976 0.750182211 -0.353234112 -0.0296031293 0.810393155 -0.38323006 -0.0388825834 0.757897198 -0.378992498 -0.0459030606 0.757831752 -0.378992498 -0.0459030606 0.757831752 -0.38323006 -0.0388825834 0.757897198 -0.380711287 -0.0449517407 0.750214696 -0.371443063 -0.0551919267 0.757734537 -0.34924078 -0.0347857885 0.809269905 -0.353234112 -0.0296031293 0.810393155 -0.374424726 -0.0520051941 0.757767379 -0.378992498 -0.0459030606 0.757831752 -0.380711287 -0.0449517407 0.750214696 -0.355933011 -0.0244904347 0.81105113 -0.286221266 -0.0116316946 0.890214562 -0.29389137 0.00207063905 0.890214503 -0.358018726 -0.019063795 0.81155479 -0.355933011 -0.0244904347 0.81105113 -0.29389137 0.00207063905 0.890214503 -0.396648347 0.0346513949 0.750214875 -0.394733429 0.0446102843 0.758083642 -0.394797206 0.0492908955 0.750215173 -0.365206569 0.0171334501 0.811363578 -0.395811826 0.0189057775 0.758434653 -0.394972414 0.00682830904 0.758565605 -0.395576537 0.00325615844 0.750214398 -0.395811826 0.0189057775 0.758434653 -0.396744907 0.0193328988 0.750214815 -0.394972414 0.00682830904 0.758565605 -0.395811826 0.0189057775 0.758434653 -0.395576537 0.00325615844 0.750214398 -0.396744907 0.0193328988 0.750214815 -0.395811826 0.0189057775 0.758434653 -0.395907402 0.0306536742 0.758324385 -0.391826391 0.0602339096 0.750214756 -0.38898474 0.0651547909 0.757843316 -0.387369722 0.0704916567 0.750214756 -0.285797387 0.0564015433 0.890214801 -0.292494595 0.0455391072 0.890214801 -0.297625929 0.0208588205 0.89021492 -0.292494595 0.0455391072 0.890214801 -0.359271318 0.0568809956 0.809899688 -0.361287504 0.0515645854 0.81092602 -0.285797387 0.0564015433 0.890214801 -0.359271318 0.0568809956 0.809899688 -0.292494595 0.0455391072 0.890214801 -0.278075397 0.0642808303 0.89021492 -0.35636875 0.0610460788 0.809094489 -0.285797387 0.0564015433 0.890214801 -0.359271318 0.0568809956 0.809899688 -0.285797387 0.0564015433 0.890214801 -0.35636875 0.0610460788 0.809094489 -0.360357702 -0.0117345862 0.811724663 -0.362493008 -0.00307961227 0.811632574 -0.391413331 -0.0157449059 0.758262515 -0.229402483 -0.050455004 0.831190407 -0.230784342 -0.0703686997 0.758690357 -0.227111623 -0.0504316464 0.82881093 -0.235260621 -0.071249865 0.75839293 -0.229402483 -0.050455004 0.831190407 -0.25896886 -0.0554919578 0.819182992 -0.378992498 -0.0459030606 0.757831752 -0.374424726 -0.0520051941 0.757767379 -0.353234112 -0.0296031293 0.810393155 -0.38323006 -0.0388825834 0.757897198 -0.355933011 -0.0244904347 0.81105113 -0.388002217 -0.0278464612 0.758031845 -0.388002217 -0.0278464612 0.758031845 -0.355933011 -0.0244904347 0.81105113 -0.358018726 -0.019063795 0.81155479 -0.388002217 -0.0278464612 0.758031845 -0.358018726 -0.019063795 0.81155479 -0.360357702 -0.0117345862 0.811724663 -0.365206569 0.0171334501 0.811363578 -0.394972414 0.00682830904 0.758565605 -0.364276141 0.00538960285 0.81117183 -0.364276141 0.00538960285 0.81117183 -0.393508613 -0.00485201785 0.758406222 -0.362493008 -0.00307961227 0.811632574 -0.361287504 0.0515645854 0.81092602 -0.359271318 0.0568809956 0.809899688 -0.38898474 0.0651547909 0.757843316 -0.38898474 0.0651547909 0.757843316 -0.362481445 0.0477325134 0.811171889 -0.361287504 0.0515645854 0.81092602 -0.391826391 0.0602339096 0.750214756 -0.392258018 0.0560408682 0.757919252 -0.38898474 0.0651547909 0.757843316 -0.394797206 0.0492908955 0.750215173 -0.392258018 0.0560408682 0.757919252 -0.391826391 0.0602339096 0.750214756 -0.362493008 -0.00307961227 0.811632574 -0.360357702 -0.0117345862 0.811724663 -0.296648353 0.0119872298 0.890215039 -0.360357702 -0.0117345862 0.811724663 -0.29389137 0.00207063905 0.890214503 -0.296648353 0.0119872298 0.890215039 -0.301543176 -0.0597941913 0.809193969 -0.235260621 -0.071249865 0.75839293 -0.25896886 -0.0554919578 0.819182992 -0.237418503 -0.0326363035 0.890214562 -0.301543176 -0.0597941913 0.809193969 -0.25896886 -0.0554919578 0.819182992 -0.246884465 -0.032676667 0.890214443 -0.301543176 -0.0597941913 0.809193969 -0.237418503 -0.0326363035 0.890214562 -0.235260621 -0.071249865 0.75839293 -0.230784342 -0.0703686997 0.758690357 -0.229402483 -0.050455004 0.831190407 -0.235260621 -0.071249865 0.75839293 -0.230873242 -0.0713466704 0.750392437 -0.230784342 -0.0703686997 0.758690357 -0.25896886 -0.0554919578 0.819182992 -0.229402483 -0.050455004 0.831190407 -0.237418503 -0.0326363035 0.890214562 -0.355933011 -0.0244904347 0.81105113 -0.353234112 -0.0296031293 0.810393155 -0.286221266 -0.0116316946 0.890214562 -0.374424726 -0.0520051941 0.757767379 -0.371443063 -0.0551919267 0.757734537 -0.353234112 -0.0296031293 0.810393155 -0.362493008 -0.00307961227 0.811632574 -0.393508613 -0.00485201785 0.758406222 -0.391413331 -0.0157449059 0.758262515 -0.393508613 -0.00485201785 0.758406222 -0.364276141 0.00538960285 0.81117183 -0.394972414 0.00682830904 0.758565605 -0.391413331 -0.0157449059 0.758262515 -0.388002217 -0.0278464612 0.758031845 -0.360357702 -0.0117345862 0.811724663 -0.396648347 0.0346513949 0.750214875 -0.395907402 0.0306536742 0.758324385 -0.394733429 0.0446102843 0.758083642 -0.38898474 0.0651547909 0.757843316 -0.392258018 0.0560408682 0.757919252 -0.362481445 0.0477325134 0.811171889 -0.364035696 0.0404787175 0.811354578 -0.36483562 0.0297154747 0.811785102 -0.296596199 0.0332490988 0.890214801 -0.365206569 0.0171334501 0.811363578 -0.297625929 0.0208588205 0.89021492 -0.36483562 0.0297154747 0.811785102 -0.359271318 0.0568809956 0.809899688 -0.383973181 0.074698098 0.757781327 -0.38898474 0.0651547909 0.757843316 -0.394797206 0.0492908955 0.750215173 -0.394733429 0.0446102843 0.758083642 -0.392258018 0.0560408682 0.757919252 -0.292494595 0.0455391072 0.890214801 -0.361287504 0.0515645854 0.81092602 -0.296596199 0.0332490988 0.890214801 -0.362481445 0.0477325134 0.811171889 -0.296596199 0.0332490988 0.890214801 -0.361287504 0.0515645854 0.81092602 -0.364035696 0.0404787175 0.811354578 -0.296596199 0.0332490988 0.890214801 -0.362481445 0.0477325134 0.811171889 -0.395907402 0.0306536742 0.758324385 -0.395811826 0.0189057775 0.758434653 -0.365206569 0.0171334501 0.811363578 -0.365206569 0.0171334501 0.811363578 -0.36483562 0.0297154747 0.811785102 -0.395907402 0.0306536742 0.758324385 -0.392258018 0.0560408682 0.757919252 -0.364035696 0.0404787175 0.811354578 -0.362481445 0.0477325134 0.811171889 -0.394733429 0.0446102843 0.758083642 -0.395907402 0.0306536742 0.758324385 -0.364035696 0.0404787175 0.811354578 -0.36483562 0.0297154747 0.811785102 -0.364035696 0.0404787175 0.811354578 -0.395907402 0.0306536742 0.758324385 -0.392258018 0.0560408682 0.757919252 -0.394733429 0.0446102843 0.758083642 -0.364035696 0.0404787175 0.811354578 -0.251333654 0.116470918 0.750208557 -0.235542983 -0.0721547976 0.750182211 -0.396648347 0.0346513949 0.750214875 -0.251333654 0.116470918 0.750208557 -0.396648347 0.0346513949 0.750214875 -0.379678965 0.0793201104 0.750215709 -0.235542983 -0.0721547976 0.750182211 -0.367694646 -0.0578035675 0.750214159 -0.396648347 0.0346513949 0.750214875 -0.387143105 -0.0326584689 0.750214636 -0.396648347 0.0346513949 0.750214875 -0.380711287 -0.0449517407 0.750214696 -0.395576537 0.00325615844 0.750214398 -0.396648347 0.0346513949 0.750214875 -0.392401844 -0.0158156548 0.750214934 -0.387369722 0.0704916567 0.750214756 -0.396648347 0.0346513949 0.750214875 -0.391826391 0.0602339096 0.750214756 -0.387369722 0.0704916567 0.750214756 -0.383660197 0.0764299855 0.750215769 -0.396648347 0.0346513949 0.750214875 -0.379678965 0.0793201104 0.750215709 -0.396648347 0.0346513949 0.750214875 -0.383660197 0.0764299855 0.750215769 -0.367694646 -0.0578035675 0.750214159 -0.372605681 -0.0553688407 0.750215054 -0.396648347 0.0346513949 0.750214875 -0.392401844 -0.0158156548 0.750214934 -0.396648347 0.0346513949 0.750214875 -0.387143105 -0.0326584689 0.750214636 -0.391826391 0.0602339096 0.750214756 -0.396648347 0.0346513949 0.750214875 -0.394797206 0.0492908955 0.750215173 -0.380711287 -0.0449517407 0.750214696 -0.396648347 0.0346513949 0.750214875 -0.372605681 -0.0553688407 0.750215054 -0.396744907 0.0193328988 0.750214815 -0.396648347 0.0346513949 0.750214875 -0.395576537 0.00325615844 0.750214398 </float_array>
          <technique_common>
            <accessor count="600" offset="0" source="#mesh_0-positions-array" stride="3">
              <param name="X" type="float" />
              <param name="Y" type="float" />
              <param name="Z" type="float" />
            </accessor>
          </technique_common>
        </source>
        <vertices id="mesh_0-vertices">
          <input semantic="POSITION" source="#mesh_0-positions" />
        </vertices>
        <polylist count="200" material="defaultMaterial">
          <input offset="0" semantic="VERTEX" source="#mesh_0-vertices" />
          <vcount>3 3 3 3 3 3 3 3 3 3 3 3 3 3 3 3 3 3 3 3 3 3 3 3 3 3 3 3 3 3 3 3 3 3 3 3 3 3 3 3 3 3 3 3 3 3 3 3 3 3 3 3 3 3 3 3 3 3 3 3 3 3 3 3 3 3 3 3 3 3 3 3 3 3 3 3 3 3 3 3 3 3 3 3 3 3 3 3 3 3 3 3 3 3 3 3 3 3 3 3 3 3 3 3 3 3 3 3 3 3 3 3 3 3 3 3 3 3 3 3 3 3 3 3 3 3 3 3 3 3 3 3 3 3 3 3 3 3 3 3 3 3 3 3 3 3 3 3 3 3 3 3 3 3 3 3 3 3 3 3 3 3 3 3 3 3 3 3 3 3 3 3 3 3 3 3 3 3 3 3 3 3 3 3 3 3 3 3 3 3 3 3 3 3 3 3 3 3 3 3 </vcount>
          <p>0 1 2 3 4 5 6 7 8 9 10 11 12 13 14 15 16 17 18 19 20 21 22 23 24 25 26 27 28 29 30 31 32 33 34 35 36 37 38 39 40 41 42 43 44 45 46 47 48 49 50 51 52 53 54 55 56 57 58 59 60 61 62 63 64 65 66 67 68 69 70 71 72 73 74 75 76 77 78 79 80 81 82 83 84 85 86 87 88 89 90 91 92 93 94 95 96 97 98 99 100 101 102 103 104 105 106 107 108 109 110 111 112 113 114 115 116 117 118 119 120 121 122 123 124 125 126 127 128 129 130 131 132 133 134 135 136 137 138 139 140 141 142 143 144 145 146 147 148 149 150 151 152 153 154 155 156 157 158 159 160 161 162 163 164 165 166 167 168 169 170 171 172 173 174 175 176 177 178 179 180 181 182 183 184 185 186 187 188 189 190 191 192 193 194 195 196 197 198 199 200 201 202 203 204 205 206 207 208 209 210 211 212 213 214 215 216 217 218 219 220 221 222 223 224 225 226 227 228 229 230 231 232 233 234 235 236 237 238 239 240 241 242 243 244 245 246 247 248 249 250 251 252 253 254 255 256 257 258 259 260 261 262 263 264 265 266 267 268 269 270 271 272 273 274 275 276 277 278 279 280 281 282 283 284 285 286 287 288 289 290 291 292 293 294 295 296 297 298 299 300 301 302 303 304 305 306 307 308 309 310 311 312 313 314 315 316 317 318 319 320 321 322 323 324 325 326 327 328 329 330 331 332 333 334 335 336 337 338 339 340 341 342 343 344 345 346 347 348 349 350 351 352 353 354 355 356 357 358 359 360 361 362 363 364 365 366 367 368 369 370 371 372 373 374 375 376 377 378 379 380 381 382 383 384 385 386 387 388 389 390 391 392 393 394 395 396 397 398 399 400 401 402 403 404 405 406 407 408 409 410 411 412 413 414 415 416 417 418 419 420 421 422 423 424 425 426 427 428 429 430 431 432 433 434 435 436 437 438 439 440 441 442 443 444 445 446 447 448 449 450 451 452 453 454 455 456 457 458 459 460 461 462 463 464 465 466 467 468 469 470 471 472 473 474 475 476 477 478 479 480 481 482 483 484 485 486 487 488 489 490 491 492 493 494 495 496 497 498 499 500 501 502 503 504 505 506 507 508 509 510 511 512 513 514 515 516 517 518 519 520 521 522 523 524 525 526 527 528 529 530 531 532 533 534 535 536 537 538 539 540 541 542 543 544 545 546 547 548 549 550 551 552 553 554 555 556 557 558 559 560 561 562 563 564 565 566 567 568 569 570 571 572 573 574 575 576 577 578 579 580 581 582 583 584 585 586 587 588 589 590 591 592 593 594 595 596 597 598 599 </p>
        </polylist>
      </mesh>
    </geometry>
  </library_geometries>
  <library_controllers>
  </library_controllers>
  <library_visual_scenes>
    <visual_scene id="Scene" name="Scene">
      <node id="node" name="" type="NODE">
        <matrix sid="matrix">1 0 0 0 0 1 0 0 0 0 1 0 0 0 0 1</matrix>
        <instance_geometry url="#mesh_0">
          <bind_material>
            <technique_common>
              <instance_material symbol="defaultMaterial" target="#material_0">
              </instance_material>
            </technique_common>
          </bind_material>
        </instance_geometry>
      </node>
    </visual_scene>
  </library_visual_scenes>
  <scene>
    <instance_visual_scene url="#Scene" />
  </scene>
</COLLADA>
