<?xml version="1.0" encoding="UTF-8" standalone="no" ?>
<COLLADA xmlns="http://www.collada.org/2005/11/COLLADASchema" version="1.4.1">
  <asset>
    <contributor>
      <author>Assimp</author>
      <authoring_tool>Assimp Exporter</authoring_tool>
    </contributor>
    <created>2026-04-22T16:09:44</created>
    <modified>2026-04-22T16:09:44</modified>
    <unit name="meter" meter="1" />
    <up_axis>Y_UP</up_axis>
  </asset>
  <library_images>
  </library_images>
  <library_effects>
    <effect id="material_0-fx" name="">
      <profile_COMMON>
        <technique sid="standard">
          <phong>
            <emission>
              <color sid="emission">0   0   0   1.24774945</color>
            </emission>
            <ambient>
              <color sid="ambient">0.100000001   0.100000001   0.100000001   1.40256</color>
            </ambient>
            <diffuse>
              <color sid="diffuse">0.100000001   0.100000001   0.100000001   1.40256</color>
            </diffuse>
            <specular>
              <color sid="specular">0.25   0.25   0.25   -1.80161154</color>
            </specular>
          </phong>
        </technique>
      </profile_COMMON>
    </effect>
  </library_effects>
  <library_materials>
    <material id="material_0" name="">
      <instance_effect url="#material_0-fx"/>
    </material>
  </library_materials>
  <library_geometries>
    <geometry id="mesh_0" name="" >
      <mesh>
        <source id="mesh_0-positions" name="mesh_0-positions">
          <float_array id="mesh_0-positions-array" count="2070"> -0.194742188 0.0639738142 1.69824028 -0.195472717 0.0643499121 1.69641328 -0.19473131 0.0652318969 1.69754946 -0.195472717 0.0643499121 1.69641328 -0.194742188 0.0639738142 1.69824028 -0.19591403 0.0625806749 1.69574809 -0.194742188 0.0639738142 1.69824028 -0.19473131 0.0652318969 1.69754946 -0.193471417 0.0654879436 1.69834173 -0.19473131 0.0652318969 1.69754946 -0.195472717 0.0643499121 1.69641328 -0.19235082 0.0667541027 1.69479394 -0.19473131 0.0652318969 1.69754946 -0.191856921 0.0672444552 1.69844651 -0.193471417 0.0654879436 1.69834173 -0.217560753 0.0886799693 1.69461226 -0.221685439 0.0846155062 1.69370925 -0.217120081 0.0893469676 1.6970433 -0.195920542 0.0623873062 1.69395912 -0.193962604 0.0647252351 1.69322467 -0.191343546 0.061613515 1.69483745 -0.194742188 0.0639738142 1.69824028 -0.196505845 0.061797142 1.6997416 -0.195293501 0.0633166507 1.69831967 -0.193962604 0.0647252351 1.69322467 -0.195472717 0.0643499121 1.69641328 -0.191343546 0.061613515 1.69483745 -0.195472717 0.0643499121 1.69641328 -0.195920542 0.0623873062 1.69395912 -0.191343546 0.061613515 1.69483745 -0.195472717 0.0643499121 1.69641328 -0.193962604 0.0647252351 1.69322467 -0.19235082 0.0667541027 1.69479394 -0.194466278 0.0641207173 1.70136416 -0.196505845 0.061797142 1.6997416 -0.193471417 0.0654879436 1.69834173 -0.191856921 0.0672444552 1.69844651 -0.19473131 0.0652318969 1.69754946 -0.19235082 0.0667541027 1.69479394 -0.19591403 0.0625806749 1.69574809 -0.197016925 0.0611193031 1.69724774 -0.195920542 0.0623873062 1.69395912 -0.195293501 0.0633166507 1.69831967 -0.197016925 0.0611193031 1.69724774 -0.19591403 0.0625806749 1.69574809 -0.196505845 0.061797142 1.6997416 -0.197016925 0.0611193031 1.69724774 -0.195293501 0.0633166507 1.69831967 -0.19591403 0.0625806749 1.69574809 -0.195920542 0.0623873062 1.69395912 -0.195472717 0.0643499121 1.69641328 -0.195293501 0.0633166507 1.69831967 -0.19591403 0.0625806749 1.69574809 -0.194742188 0.0639738142 1.69824028 -0.220139474 0.0857640654 1.69266021 -0.221685439 0.0846155062 1.69370925 -0.217560753 0.0886799693 1.69461226 -0.194466278 0.0641207173 1.70136416 -0.193471417 0.0654879436 1.69834173 -0.191856921 0.0672444552 1.69844651 -0.196505845 0.061797142 1.6997416 -0.194742188 0.0639738142 1.69824028 -0.193471417 0.0654879436 1.69834173 -0.19489871 0.0593278855 1.70012617 -0.196505845 0.061797142 1.6997416 -0.192606688 0.062155176 1.70220447 -0.197016925 0.0611193031 1.69724774 -0.196505845 0.061797142 1.6997416 -0.19489871 0.0593278855 1.70012617 -0.194064915 0.0605087467 1.69388008 -0.197016925 0.0611193031 1.69724774 -0.19489871 0.0593278855 1.70012617 -0.195920542 0.0623873062 1.69395912 -0.197016925 0.0611193031 1.69724774 -0.194064915 0.0605087467 1.69388008 -0.196505845 0.061797142 1.6997416 -0.194466278 0.0641207173 1.70136416 -0.192606688 0.062155176 1.70220447 -0.185594887 0.0603808165 1.7015655 -0.187605038 0.0579997674 1.7022655 -0.194466278 0.0641207173 1.70136416 -0.217120081 0.0893469676 1.6970433 -0.221685439 0.0846155062 1.69370925 -0.219246671 0.0875327736 1.70088267 -0.191430315 0.0636368096 1.7013557 -0.185594887 0.0603808165 1.7015655 -0.194466278 0.0641207173 1.70136416 -0.194064915 0.0605087467 1.69388008 -0.19391425 0.060611479 1.69211149 -0.191206098 0.0638550445 1.69262052 -0.18828243 0.0608133152 1.69305801 -0.190386057 0.0593785271 1.6924144 -0.190125361 0.0578778312 1.6919328 -0.189615101 0.0657131299 1.70116961 -0.191430315 0.0636368096 1.7013557 -0.189101204 0.0663000941 1.69736195 -0.189101204 0.0663000941 1.69736195 -0.191206098 0.0638550445 1.69262052 -0.190441325 0.0647715703 1.69328797 -0.189101204 0.0663000941 1.69736195 -0.19235082 0.0667541027 1.69479394 -0.191206098 0.0638550445 1.69262052 -0.208673373 0.0800279006 1.69273078 -0.216446385 0.0830244794 1.69175541 -0.212335303 0.0847510099 1.6933502 -0.191856921 0.0672444552 1.69844651 -0.19235082 0.0667541027 1.69479394 -0.189101204 0.0663000941 1.69736195 -0.191206098 0.0638550445 1.69262052 -0.195920542 0.0623873062 1.69395912 -0.194064915 0.0605087467 1.69388008 -0.193962604 0.0647252351 1.69322467 -0.195920542 0.0623873062 1.69395912 -0.191206098 0.0638550445 1.69262052 -0.194466278 0.0641207173 1.70136416 -0.191856921 0.0672444552 1.69844651 -0.189101204 0.0663000941 1.69736195 -0.191430315 0.0636368096 1.7013557 -0.194466278 0.0641207173 1.70136416 -0.189101204 0.0663000941 1.69736195 -0.19235082 0.0667541027 1.69479394 -0.193962604 0.0647252351 1.69322467 -0.191206098 0.0638550445 1.69262052 -0.194044963 0.0603504777 1.70211637 -0.19489871 0.0593278855 1.70012617 -0.192606688 0.062155176 1.70220447 -0.213380471 0.0744265541 1.6941613 -0.218445674 0.0769656822 1.69677651 -0.218201518 0.078122817 1.69400918 -0.218201518 0.078122817 1.69400918 -0.218445674 0.0769656822 1.69677651 -0.223053873 0.0822742209 1.69756281 -0.217560753 0.0886799693 1.69461226 -0.212335303 0.0847510099 1.6933502 -0.220139474 0.0857640654 1.69266021 -0.19489871 0.0593278855 1.70012617 -0.195827842 0.0583124012 1.69895256 -0.194064915 0.0605087467 1.69388008 -0.190125361 0.0578778312 1.6919328 -0.1881008 0.0603442192 1.69163752 -0.18828243 0.0608133152 1.69305801 -0.190386057 0.0593785271 1.6924144 -0.191206098 0.0638550445 1.69262052 -0.19391425 0.060611479 1.69211149 -0.186177433 0.0596974418 1.69257307 -0.18553555 0.0604083464 1.6921221 -0.190441325 0.0647715703 1.69328797 -0.191206098 0.0638550445 1.69262052 -0.186177433 0.0596974418 1.69257307 -0.190441325 0.0647715703 1.69328797 -0.187605038 0.0579997674 1.7022655 -0.192606688 0.062155176 1.70220447 -0.194466278 0.0641207173 1.70136416 -0.1881008 0.0603442192 1.69163752 -0.19046849 0.0570574068 1.69236875 -0.189766407 0.0553893074 1.69395506 -0.1881008 0.0603442192 1.69163752 -0.189766407 0.0553893074 1.69395506 -0.186177433 0.0596974418 1.69257307 -0.190386057 0.0593785271 1.6924144 -0.18828243 0.0608133152 1.69305801 -0.191206098 0.0638550445 1.69262052 -0.190125361 0.0578778312 1.6919328 -0.190386057 0.0593785271 1.6924144 -0.19391425 0.060611479 1.69211149 -0.18568705 0.0622204579 1.70134687 -0.184105799 0.0621732958 1.69664717 -0.185594887 0.0603808165 1.7015655 -0.184105799 0.0621732958 1.69664717 -0.190441325 0.0647715703 1.69328797 -0.18553555 0.0604083464 1.6921221 -0.189101204 0.0663000941 1.69736195 -0.190441325 0.0647715703 1.69328797 -0.184105799 0.0621732958 1.69664717 -0.191430315 0.0636368096 1.7013557 -0.189615101 0.0657131299 1.70116961 -0.185594887 0.0603808165 1.7015655 -0.185175762 0.0639033243 1.6978786 -0.185974211 0.0628651083 1.70099306 -0.189615101 0.0657131299 1.70116961 -0.212335303 0.0847510099 1.6933502 -0.216446385 0.0830244794 1.69175541 -0.220139474 0.0857640654 1.69266021 -0.189101204 0.0663000941 1.69736195 -0.185175762 0.0639033243 1.6978786 -0.189615101 0.0657131299 1.70116961 -0.19489871 0.0593278855 1.70012617 -0.192195177 0.0553997979 1.69931078 -0.195827842 0.0583124012 1.69895256 -0.191022933 0.0567985363 1.7017827 -0.192195177 0.0553997979 1.69931078 -0.19489871 0.0593278855 1.70012617 -0.213380471 0.0744265541 1.6941613 -0.21400319 0.0736550838 1.69732332 -0.218445674 0.0769656822 1.69677651 -0.194044963 0.0603504777 1.70211637 -0.191022933 0.0567985363 1.7017827 -0.19489871 0.0593278855 1.70012617 -0.192126557 0.05524306 1.69846654 -0.187605038 0.0579997674 1.7022655 -0.190570295 0.0544652231 1.69773257 -0.194044963 0.0603504777 1.70211637 -0.192606688 0.062155176 1.70220447 -0.187605038 0.0579997674 1.7022655 -0.189937159 0.057413362 1.70167387 -0.194044963 0.0603504777 1.70211637 -0.187605038 0.0579997674 1.7022655 -0.190570295 0.0544652231 1.69773257 -0.195827842 0.0583124012 1.69895256 -0.192126557 0.05524306 1.69846654 -0.194064915 0.0605087467 1.69388008 -0.195827842 0.0583124012 1.69895256 -0.190570295 0.0544652231 1.69773257 -0.189766407 0.0553893074 1.69395506 -0.194064915 0.0605087467 1.69388008 -0.190570295 0.0544652231 1.69773257 -0.192126557 0.05524306 1.69846654 -0.189937159 0.057413362 1.70167387 -0.187605038 0.0579997674 1.7022655 -0.194064915 0.0605087467 1.69388008 -0.19046849 0.0570574068 1.69236875 -0.19391425 0.060611479 1.69211149 -0.194064915 0.0605087467 1.69388008 -0.189766407 0.0553893074 1.69395506 -0.19046849 0.0570574068 1.69236875 -0.1881008 0.0603442192 1.69163752 -0.186177433 0.0596974418 1.69257307 -0.191206098 0.0638550445 1.69262052 -0.191206098 0.0638550445 1.69262052 -0.18828243 0.0608133152 1.69305801 -0.1881008 0.0603442192 1.69163752 -0.184105799 0.0621732958 1.69664717 -0.184800744 0.0636865795 1.69716966 -0.189101204 0.0663000941 1.69736195 -0.184105799 0.0621732958 1.69664717 -0.18568705 0.0622204579 1.70134687 -0.184800744 0.0636865795 1.69716966 -0.18568705 0.0622204579 1.70134687 -0.185594887 0.0603808165 1.7015655 -0.189615101 0.0657131299 1.70116961 -0.184800744 0.0636865795 1.69716966 -0.185175762 0.0639033243 1.6978786 -0.189101204 0.0663000941 1.69736195 -0.189937159 0.057413362 1.70167387 -0.188919187 0.0563612171 1.7024591 -0.194044963 0.0603504777 1.70211637 -0.190404519 0.0546029583 1.69407117 -0.203710929 0.0653487891 1.69537616 -0.203537554 0.0667989329 1.69359052 -0.188919187 0.0563612171 1.7024591 -0.190570295 0.0544652231 1.69773257 -0.187605038 0.0579997674 1.7022655 -0.188919187 0.0563612171 1.7024591 -0.190966487 0.0539302453 1.69627941 -0.190570295 0.0544652231 1.69773257 -0.186318681 0.0594600327 1.70284879 -0.185594887 0.0603808165 1.7015655 -0.183628038 0.0626757666 1.69629145 -0.185594887 0.0603808165 1.7015655 -0.184105799 0.0621732958 1.69664717 -0.183628038 0.0626757666 1.69629145 -0.190570295 0.0544652231 1.69773257 -0.190966487 0.0539302453 1.69627941 -0.189766407 0.0553893074 1.69395506 -0.190966487 0.0539302453 1.69627941 -0.190404519 0.0546029583 1.69407117 -0.189766407 0.0553893074 1.69395506 -0.184105799 0.0621732958 1.69664717 -0.184202895 0.0619939454 1.69407058 -0.183628038 0.0626757666 1.69629145 -0.184105799 0.0621732958 1.69664717 -0.18553555 0.0604083464 1.6921221 -0.184202895 0.0619939454 1.69407058 -0.189766407 0.0553893074 1.69395506 -0.190404519 0.0546029583 1.69407117 -0.18553555 0.0604083464 1.6921221 -0.216446385 0.0830244794 1.69175541 -0.218271106 0.080836542 1.6924237 -0.220139474 0.0857640654 1.69266021 -0.189766407 0.0553893074 1.69395506 -0.18553555 0.0604083464 1.6921221 -0.186177433 0.0596974418 1.69257307 -0.188919187 0.0563612171 1.7024591 -0.187605038 0.0579997674 1.7022655 -0.186318681 0.0594600327 1.70284879 -0.186318681 0.0594600327 1.70284879 -0.187605038 0.0579997674 1.7022655 -0.185594887 0.0603808165 1.7015655 -0.218445674 0.0769656822 1.69677651 -0.221066475 0.0804409459 1.69965708 -0.223053873 0.0822742209 1.69756281 -0.192126557 0.05524306 1.69846654 -0.188919187 0.0563612171 1.7024591 -0.189937159 0.057413362 1.70167387 -0.185175762 0.0639033243 1.6978786 -0.184800744 0.0636865795 1.69716966 -0.197129756 0.0731741562 1.69937158 -0.183628038 0.0626757666 1.69629145 -0.184202895 0.0619939454 1.69407058 -0.184800744 0.0636865795 1.69716966 -0.184202895 0.0619939454 1.69407058 -0.18553555 0.0604083464 1.6921221 -0.198000312 0.0721561387 1.69327486 -0.21400319 0.0736550838 1.69732332 -0.221066475 0.0804409459 1.69965708 -0.218445674 0.0769656822 1.69677651 -0.18553555 0.0604083464 1.6921221 -0.199454173 0.0704328641 1.69200683 -0.198000312 0.0721561387 1.69327486 -0.18553555 0.0604083464 1.6921221 -0.1881008 0.0603442192 1.69163752 -0.199454173 0.0704328641 1.69200683 -0.185974211 0.0628651083 1.70099306 -0.185175762 0.0639033243 1.6978786 -0.197129756 0.0731741562 1.69937158 -0.18568705 0.0622204579 1.70134687 -0.186318681 0.0594600327 1.70284879 -0.183628038 0.0626757666 1.69629145 -0.184800744 0.0636865795 1.69716966 -0.18568705 0.0622204579 1.70134687 -0.183628038 0.0626757666 1.69629145 -0.1881008 0.0603442192 1.69163752 -0.190125361 0.0578778312 1.6919328 -0.201254338 0.0682750344 1.69195127 -0.19046849 0.0570574068 1.69236875 -0.1881008 0.0603442192 1.69163752 -0.190404519 0.0546029583 1.69407117 -0.186318681 0.0594600327 1.70284879 -0.18568705 0.0622204579 1.70134687 -0.189615101 0.0657131299 1.70116961 -0.186318681 0.0594600327 1.70284879 -0.189615101 0.0657131299 1.70116961 -0.198121592 0.0719994232 1.70147753 -0.208673373 0.0800279006 1.69273078 -0.212051645 0.0759887025 1.692433 -0.216446385 0.0830244794 1.69175541 -0.1881008 0.0603442192 1.69163752 -0.201254338 0.0682750344 1.69195127 -0.199454173 0.0704328641 1.69200683 -0.18553555 0.0604083464 1.6921221 -0.190404519 0.0546029583 1.69407117 -0.1881008 0.0603442192 1.69163752 -0.190125361 0.0578778312 1.6919328 -0.19391425 0.060611479 1.69211149 -0.201254338 0.0682750344 1.69195127 -0.185974211 0.0628651083 1.70099306 -0.198121592 0.0719994232 1.70147753 -0.189615101 0.0657131299 1.70116961 -0.185974211 0.0628651083 1.70099306 -0.197129756 0.0731741562 1.69937158 -0.198121592 0.0719994232 1.70147753 -0.197129756 0.0731741562 1.69937158 -0.184202895 0.0619939454 1.69407058 -0.198000312 0.0721561387 1.69327486 -0.184800744 0.0636865795 1.69716966 -0.184202895 0.0619939454 1.69407058 -0.197129756 0.0731741562 1.69937158 -0.198121592 0.0719994232 1.70147753 -0.197129756 0.0731741562 1.69937158 -0.200285181 0.0706589073 1.70255661 -0.201254338 0.0682750344 1.69195127 -0.203537554 0.0667989329 1.69359052 -0.199454173 0.0704328641 1.69200683 -0.199332312 0.0747533664 1.69895768 -0.197129756 0.0731741562 1.69937158 -0.200258166 0.07491225 1.69481194 -0.204340562 0.0658474043 1.69882166 -0.202080786 0.0672646165 1.70211196 -0.204005003 0.0691908151 1.70184278 -0.218271106 0.080836542 1.6924237 -0.221685439 0.0846155062 1.69370925 -0.220139474 0.0857640654 1.69266021 -0.200285181 0.0706589073 1.70255661 -0.197129756 0.0731741562 1.69937158 -0.199332312 0.0747533664 1.69895768 -0.198000312 0.0721561387 1.69327486 -0.200258166 0.07491225 1.69481194 -0.197129756 0.0731741562 1.69937158 -0.200285181 0.0706589073 1.70255661 -0.199332312 0.0747533664 1.69895768 -0.201138794 0.0726008117 1.70199466 -0.198000312 0.0721561387 1.69327486 -0.201298386 0.0724254996 1.69247735 -0.200258166 0.07491225 1.69481194 -0.199332312 0.0747533664 1.69895768 -0.202084079 0.0769495517 1.69786692 -0.202061296 0.0757076293 1.70028365 -0.204278812 0.0701255128 1.69256043 -0.20586215 0.0724594072 1.69260013 -0.201298386 0.0724254996 1.69247735 -0.201298386 0.0724254996 1.69247735 -0.20586215 0.0724594072 1.69260013 -0.203852311 0.0748370662 1.69286954 -0.199332312 0.0747533664 1.69895768 -0.202061296 0.0757076293 1.70028365 -0.201138794 0.0726008117 1.70199466 -0.201138794 0.0726008117 1.70199466 -0.202061296 0.0757076293 1.70028365 -0.203968003 0.0734267086 1.70206332 -0.201298386 0.0724254996 1.69247735 -0.203852311 0.0748370662 1.69286954 -0.200258166 0.07491225 1.69481194 -0.216446385 0.0830244794 1.69175541 -0.212051645 0.0759887025 1.692433 -0.218271106 0.080836542 1.6924237 -0.200258166 0.07491225 1.69481194 -0.203852311 0.0748370662 1.69286954 -0.202084079 0.0769495517 1.69786692 -0.200258166 0.07491225 1.69481194 -0.202084079 0.0769495517 1.69786692 -0.199332312 0.0747533664 1.69895768 -0.21400319 0.0736550838 1.69732332 -0.213498518 0.0742442086 1.70007539 -0.221066475 0.0804409459 1.69965708 -0.202084079 0.0769495517 1.69786692 -0.20426622 0.077266559 1.69421303 -0.204271734 0.0785420239 1.69606829 -0.210010841 0.0717021674 1.6953088 -0.206651255 0.0756876171 1.69256556 -0.20586215 0.0724594072 1.69260013 -0.202084079 0.0769495517 1.69786692 -0.204271734 0.0785420239 1.69606829 -0.204193681 0.0773660243 1.7002424 -0.20586215 0.0724594072 1.69260013 -0.206651255 0.0756876171 1.69256556 -0.203852311 0.0748370662 1.69286954 -0.202084079 0.0769495517 1.69786692 -0.204193681 0.0773660243 1.7002424 -0.202061296 0.0757076293 1.70028365 -0.203852311 0.0748370662 1.69286954 -0.206651255 0.0756876171 1.69256556 -0.20426622 0.077266559 1.69421303 -0.203852311 0.0748370662 1.69286954 -0.20426622 0.077266559 1.69421303 -0.202084079 0.0769495517 1.69786692 -0.20765616 0.0812101513 1.69426715 -0.204271734 0.0785420239 1.69606829 -0.20426622 0.077266559 1.69421303 -0.20765616 0.0812101513 1.69426715 -0.207059696 0.0819260627 1.69747496 -0.204271734 0.0785420239 1.69606829 -0.212051645 0.0759887025 1.692433 -0.208673373 0.0800279006 1.69273078 -0.206651255 0.0756876171 1.69256556 -0.207059696 0.0819260627 1.69747496 -0.204193681 0.0773660243 1.7002424 -0.204271734 0.0785420239 1.69606829 -0.208673373 0.0800279006 1.69273078 -0.20765616 0.0812101513 1.69426715 -0.206651255 0.0756876171 1.69256556 -0.207059696 0.0819260627 1.69747496 -0.2075423 0.0813507959 1.70004475 -0.204193681 0.0773660243 1.7002424 -0.20765616 0.0812101513 1.69426715 -0.20426622 0.077266559 1.69421303 -0.206651255 0.0756876171 1.69256556 -0.218201518 0.078122817 1.69400918 -0.218271106 0.080836542 1.6924237 -0.212051645 0.0759887025 1.692433 -0.20765616 0.0812101513 1.69426715 -0.217560753 0.0886799693 1.69461226 -0.212000117 0.0863485038 1.69631505 -0.212335303 0.0847510099 1.6933502 -0.217560753 0.0886799693 1.69461226 -0.20765616 0.0812101513 1.69426715 -0.190966487 0.0539302453 1.69627941 -0.203710929 0.0653487891 1.69537616 -0.190404519 0.0546029583 1.69407117 -0.190966487 0.0539302453 1.69627941 -0.192126557 0.05524306 1.69846654 -0.195827842 0.0583124012 1.69895256 -0.190966487 0.0539302453 1.69627941 -0.195827842 0.0583124012 1.69895256 -0.203710929 0.0653487891 1.69537616 -0.190966487 0.0539302453 1.69627941 -0.188919187 0.0563612171 1.7024591 -0.192126557 0.05524306 1.69846654 -0.191022933 0.0567985363 1.7017827 -0.202080786 0.0672646165 1.70211196 -0.195827842 0.0583124012 1.69895256 -0.191022933 0.0567985363 1.7017827 -0.194044963 0.0603504777 1.70211637 -0.202080786 0.0672646165 1.70211196 -0.194044963 0.0603504777 1.70211637 -0.188919187 0.0563612171 1.7024591 -0.202080786 0.0672646165 1.70211196 -0.188919187 0.0563612171 1.7024591 -0.186318681 0.0594600327 1.70284879 -0.202080786 0.0672646165 1.70211196 -0.186318681 0.0594600327 1.70284879 -0.200285181 0.0706589073 1.70255661 -0.202080786 0.0672646165 1.70211196 -0.192195177 0.0553997979 1.69931078 -0.191022933 0.0567985363 1.7017827 -0.195827842 0.0583124012 1.69895256 -0.190404519 0.0546029583 1.69407117 -0.19391425 0.060611479 1.69211149 -0.19046849 0.0570574068 1.69236875 -0.186318681 0.0594600327 1.70284879 -0.198121592 0.0719994232 1.70147753 -0.200285181 0.0706589073 1.70255661 -0.203710929 0.0653487891 1.69537616 -0.195827842 0.0583124012 1.69895256 -0.204340562 0.0658474043 1.69882166 -0.19391425 0.060611479 1.69211149 -0.190404519 0.0546029583 1.69407117 -0.203537554 0.0667989329 1.69359052 -0.201254338 0.0682750344 1.69195127 -0.19391425 0.060611479 1.69211149 -0.203537554 0.0667989329 1.69359052 -0.204340562 0.0658474043 1.69882166 -0.195827842 0.0583124012 1.69895256 -0.202080786 0.0672646165 1.70211196 -0.203710929 0.0653487891 1.69537616 -0.204340562 0.0658474043 1.69882166 -0.203537554 0.0667989329 1.69359052 -0.204340562 0.0658474043 1.69882166 -0.205779612 0.0670699999 1.69728684 -0.203537554 0.0667989329 1.69359052 -0.198000312 0.0721561387 1.69327486 -0.199454173 0.0704328641 1.69200683 -0.201298386 0.0724254996 1.69247735 -0.204278812 0.0701255128 1.69256043 -0.203537554 0.0667989329 1.69359052 -0.205779612 0.0670699999 1.69728684 -0.201298386 0.0724254996 1.69247735 -0.203537554 0.0667989329 1.69359052 -0.204278812 0.0701255128 1.69256043 -0.203537554 0.0667989329 1.69359052 -0.201298386 0.0724254996 1.69247735 -0.199454173 0.0704328641 1.69200683 -0.204340562 0.0658474043 1.69882166 -0.204005003 0.0691908151 1.70184278 -0.205779612 0.0670699999 1.69728684 -0.200285181 0.0706589073 1.70255661 -0.201138794 0.0726008117 1.70199466 -0.204005003 0.0691908151 1.70184278 -0.200285181 0.0706589073 1.70255661 -0.204005003 0.0691908151 1.70184278 -0.202080786 0.0672646165 1.70211196 -0.201138794 0.0726008117 1.70199466 -0.203968003 0.0734267086 1.70206332 -0.204005003 0.0691908151 1.70184278 -0.205779612 0.0670699999 1.69728684 -0.208215088 0.0696525574 1.69629121 -0.204278812 0.0701255128 1.69256043 -0.204005003 0.0691908151 1.70184278 -0.203968003 0.0734267086 1.70206332 -0.2070591 0.0710080341 1.70106256 -0.204278812 0.0701255128 1.69256043 -0.208215088 0.0696525574 1.69629121 -0.20586215 0.0724594072 1.69260013 -0.204005003 0.0691908151 1.70184278 -0.2070591 0.0710080341 1.70106256 -0.208215088 0.0696525574 1.69629121 -0.204005003 0.0691908151 1.70184278 -0.208215088 0.0696525574 1.69629121 -0.205779612 0.0670699999 1.69728684 -0.208215088 0.0696525574 1.69629121 -0.209572107 0.0709381253 1.6983968 -0.210010841 0.0717021674 1.6953088 -0.203968003 0.0734267086 1.70206332 -0.20574531 0.0754974112 1.70187187 -0.208311632 0.0737193227 1.70172131 -0.218271106 0.080836542 1.6924237 -0.218201518 0.078122817 1.69400918 -0.221685439 0.0846155062 1.69370925 -0.203968003 0.0734267086 1.70206332 -0.208311632 0.0737193227 1.70172131 -0.2070591 0.0710080341 1.70106256 -0.208215088 0.0696525574 1.69629121 -0.210010841 0.0717021674 1.6953088 -0.20586215 0.0724594072 1.69260013 -0.2070591 0.0710080341 1.70106256 -0.208311632 0.0737193227 1.70172131 -0.209572107 0.0709381253 1.6983968 -0.2070591 0.0710080341 1.70106256 -0.209572107 0.0709381253 1.6983968 -0.208215088 0.0696525574 1.69629121 -0.204193681 0.0773660243 1.7002424 -0.20574531 0.0754974112 1.70187187 -0.202061296 0.0757076293 1.70028365 -0.202061296 0.0757076293 1.70028365 -0.20574531 0.0754974112 1.70187187 -0.203968003 0.0734267086 1.70206332 -0.212273568 0.0757542476 1.70199466 -0.209572107 0.0709381253 1.6983968 -0.208311632 0.0737193227 1.70172131 -0.212273568 0.0757542476 1.70199466 -0.21400319 0.0736550838 1.69732332 -0.209572107 0.0709381253 1.6983968 -0.213380471 0.0744265541 1.6941613 -0.218201518 0.078122817 1.69400918 -0.212051645 0.0759887025 1.692433 -0.2075423 0.0813507959 1.70004475 -0.20574531 0.0754974112 1.70187187 -0.204193681 0.0773660243 1.7002424 -0.2075423 0.0813507959 1.70004475 -0.210832238 0.0774168819 1.70267487 -0.20574531 0.0754974112 1.70187187 -0.20765616 0.0812101513 1.69426715 -0.208673373 0.0800279006 1.69273078 -0.212335303 0.0847510099 1.6933502 -0.210832238 0.0774168819 1.70267487 -0.208311632 0.0737193227 1.70172131 -0.20574531 0.0754974112 1.70187187 -0.21400319 0.0736550838 1.69732332 -0.210010841 0.0717021674 1.6953088 -0.209572107 0.0709381253 1.6983968 -0.21400319 0.0736550838 1.69732332 -0.213380471 0.0744265541 1.6941613 -0.210010841 0.0717021674 1.6953088 -0.213380471 0.0744265541 1.6941613 -0.212051645 0.0759887025 1.692433 -0.210010841 0.0717021674 1.6953088 -0.212051645 0.0759887025 1.692433 -0.206651255 0.0756876171 1.69256556 -0.210010841 0.0717021674 1.6953088 -0.210832238 0.0774168819 1.70267487 -0.212273568 0.0757542476 1.70199466 -0.208311632 0.0737193227 1.70172131 -0.213498518 0.0742442086 1.70007539 -0.21400319 0.0736550838 1.69732332 -0.212273568 0.0757542476 1.70199466 -0.223053873 0.0822742209 1.69756281 -0.219246671 0.0875327736 1.70088267 -0.221685439 0.0846155062 1.69370925 -0.220957935 0.0846006721 1.70173919 -0.219246671 0.0875327736 1.70088267 -0.223053873 0.0822742209 1.69756281 -0.214847356 0.0849262774 1.70215082 -0.2075423 0.0813507959 1.70004475 -0.213604137 0.0865592808 1.70017135 -0.213498518 0.0742442086 1.70007539 -0.212273568 0.0757542476 1.70199466 -0.218224078 0.0801511556 1.70196211 -0.214847356 0.0849262774 1.70215082 -0.213604137 0.0865592808 1.70017135 -0.219246671 0.0875327736 1.70088267 -0.2075423 0.0813507959 1.70004475 -0.214847356 0.0849262774 1.70215082 -0.210832238 0.0774168819 1.70267487 -0.223053873 0.0822742209 1.69756281 -0.218224078 0.0801511556 1.70196211 -0.220957935 0.0846006721 1.70173919 -0.213498518 0.0742442086 1.70007539 -0.218224078 0.0801511556 1.70196211 -0.221066475 0.0804409459 1.69965708 -0.207059696 0.0819260627 1.69747496 -0.20765616 0.0812101513 1.69426715 -0.212000117 0.0863485038 1.69631505 -0.221066475 0.0804409459 1.69965708 -0.218224078 0.0801511556 1.70196211 -0.223053873 0.0822742209 1.69756281 -0.212000117 0.0863485038 1.69631505 -0.217560753 0.0886799693 1.69461226 -0.217120081 0.0893469676 1.6970433 -0.220957935 0.0846006721 1.70173919 -0.214847356 0.0849262774 1.70215082 -0.219246671 0.0875327736 1.70088267 -0.210832238 0.0774168819 1.70267487 -0.214847356 0.0849262774 1.70215082 -0.216244906 0.0810226351 1.70288038 -0.216244906 0.0810226351 1.70288038 -0.214847356 0.0849262774 1.70215082 -0.220957935 0.0846006721 1.70173919 -0.212273568 0.0757542476 1.70199466 -0.210832238 0.0774168819 1.70267487 -0.216244906 0.0810226351 1.70288038 -0.221685439 0.0846155062 1.69370925 -0.218201518 0.078122817 1.69400918 -0.223053873 0.0822742209 1.69756281 -0.213604137 0.0865592808 1.70017135 -0.212000117 0.0863485038 1.69631505 -0.217120081 0.0893469676 1.6970433 -0.2075423 0.0813507959 1.70004475 -0.207059696 0.0819260627 1.69747496 -0.212000117 0.0863485038 1.69631505 -0.212273568 0.0757542476 1.70199466 -0.216244906 0.0810226351 1.70288038 -0.218224078 0.0801511556 1.70196211 -0.2075423 0.0813507959 1.70004475 -0.212000117 0.0863485038 1.69631505 -0.213604137 0.0865592808 1.70017135 -0.218224078 0.0801511556 1.70196211 -0.216244906 0.0810226351 1.70288038 -0.220957935 0.0846006721 1.70173919 -0.219246671 0.0875327736 1.70088267 -0.213604137 0.0865592808 1.70017135 -0.217120081 0.0893469676 1.6970433 </float_array>
          <technique_common>
            <accessor count="690" offset="0" source="#mesh_0-positions-array" stride="3">
              <param name="X" type="float" />
              <param name="Y" type="float" />
              <param name="Z" type="float" />
            </accessor>
          </technique_common>
        </source>
        <vertices id="mesh_0-vertices">
          <input semantic="POSITION" source="#mesh_0-positions" />
        </vertices>
        <polylist count="230" material="defaultMaterial">
          <input offset="0" semantic="VERTEX" source="#mesh_0-vertices" />
          <vcount>3 3 3 3 3 3 3 3 3 3 3 3 3 3 3 3 3 3 3 3 3 3 3 3 3 3 3 3 3 3 3 3 3 3 3 3 3 3 3 3 3 3 3 3 3 3 3 3 3 3 3 3 3 3 3 3 3 3 3 3 3 3 3 3 3 3 3 3 3 3 3 3 3 3 3 3 3 3 3 3 3 3 3 3 3 3 3 3 3 3 3 3 3 3 3 3 3 3 3 3 3 3 3 3 3 3 3 3 3 3 3 3 3 3 3 3 3 3 3 3 3 3 3 3 3 3 3 3 3 3 3 3 3 3 3 3 3 3 3 3 3 3 3 3 3 3 3 3 3 3 3 3 3 3 3 3 3 3 3 3 3 3 3 3 3 3 3 3 3 3 3 3 3 3 3 3 3 3 3 3 3 3 3 3 3 3 3 3 3 3 3 3 3 3 3 3 3 3 3 3 3 3 3 3 3 3 3 3 3 3 3 3 3 3 3 3 3 3 3 3 3 3 3 3 3 3 3 3 3 3 </vcount>
          <p>0 1 2 3 4 5 6 7 8 9 10 11 12 13 14 15 16 17 18 19 20 21 22 23 24 25 26 27 28 29 30 31 32 33 34 35 36 37 38 39 40 41 42 43 44 45 46 47 48 49 50 51 52 53 54 55 56 57 58 59 60 61 62 63 64 65 66 67 68 69 70 71 72 73 74 75 76 77 78 79 80 81 82 83 84 85 86 87 88 89 90 91 92 93 94 95 96 97 98 99 100 101 102 103 104 105 106 107 108 109 110 111 112 113 114 115 116 117 118 119 120 121 122 123 124 125 126 127 128 129 130 131 132 133 134 135 136 137 138 139 140 141 142 143 144 145 146 147 148 149 150 151 152 153 154 155 156 157 158 159 160 161 162 163 164 165 166 167 168 169 170 171 172 173 174 175 176 177 178 179 180 181 182 183 184 185 186 187 188 189 190 191 192 193 194 195 196 197 198 199 200 201 202 203 204 205 206 207 208 209 210 211 212 213 214 215 216 217 218 219 220 221 222 223 224 225 226 227 228 229 230 231 232 233 234 235 236 237 238 239 240 241 242 243 244 245 246 247 248 249 250 251 252 253 254 255 256 257 258 259 260 261 262 263 264 265 266 267 268 269 270 271 272 273 274 275 276 277 278 279 280 281 282 283 284 285 286 287 288 289 290 291 292 293 294 295 296 297 298 299 300 301 302 303 304 305 306 307 308 309 310 311 312 313 314 315 316 317 318 319 320 321 322 323 324 325 326 327 328 329 330 331 332 333 334 335 336 337 338 339 340 341 342 343 344 345 346 347 348 349 350 351 352 353 354 355 356 357 358 359 360 361 362 363 364 365 366 367 368 369 370 371 372 373 374 375 376 377 378 379 380 381 382 383 384 385 386 387 388 389 390 391 392 393 394 395 396 397 398 399 400 401 402 403 404 405 406 407 408 409 410 411 412 413 414 415 416 417 418 419 420 421 422 423 424 425 426 427 428 429 430 431 432 433 434 435 436 437 438 439 440 441 442 443 444 445 446 447 448 449 450 451 452 453 454 455 456 457 458 459 460 461 462 463 464 465 466 467 468 469 470 471 472 473 474 475 476 477 478 479 480 481 482 483 484 485 486 487 488 489 490 491 492 493 494 495 496 497 498 499 500 501 502 503 504 505 506 507 508 509 510 511 512 513 514 515 516 517 518 519 520 521 522 523 524 525 526 527 528 529 530 531 532 533 534 535 536 537 538 539 540 541 542 543 544 545 546 547 548 549 550 551 552 553 554 555 556 557 558 559 560 561 562 563 564 565 566 567 568 569 570 571 572 573 574 575 576 577 578 579 580 581 582 583 584 585 586 587 588 589 590 591 592 593 594 595 596 597 598 599 600 601 602 603 604 605 606 607 608 609 610 611 612 613 614 615 616 617 618 619 620 621 622 623 624 625 626 627 628 629 630 631 632 633 634 635 636 637 638 639 640 641 642 643 644 645 646 647 648 649 650 651 652 653 654 655 656 657 658 659 660 661 662 663 664 665 666 667 668 669 670 671 672 673 674 675 676 677 678 679 680 681 682 683 684 685 686 687 688 689 </p>
        </polylist>
      </mesh>
    </geometry>
  </library_geometries>
  <library_controllers>
  </library_controllers>
  <library_visual_scenes>
    <visual_scene id="Scene" name="Scene">
      <node id="node" name="" type="NODE">
        <matrix sid="matrix">1 0 0 0 0 1 0 0 0 0 1 0 0 0 0 1</matrix>
        <instance_geometry url="#mesh_0">
          <bind_material>
            <technique_common>
              <instance_material symbol="defaultMaterial" target="#material_0">
              </instance_material>
            </technique_common>
          </bind_material>
        </instance_geometry>
      </node>
    </visual_scene>
  </library_visual_scenes>
  <scene>
    <instance_visual_scene url="#Scene" />
  </scene>
</COLLADA>
