<?xml version="1.0" encoding="UTF-8" standalone="no" ?>
<COLLADA xmlns="http://www.collada.org/2005/11/COLLADASchema" version="1.4.1">
  <asset>
    <contributor>
      <author>Assimp</author>
      <authoring_tool>Assimp Exporter</authoring_tool>
    </contributor>
    <created>2026-04-22T16:09:43</created>
    <modified>2026-04-22T16:09:43</modified>
    <unit name="meter" meter="1" />
    <up_axis>Y_UP</up_axis>
  </asset>
  <library_images>
  </library_images>
  <library_effects>
    <effect id="material_0-fx" name="">
      <profile_COMMON>
        <technique sid="standard">
          <phong>
            <emission>
              <color sid="emission">0   0   0   4.19744942e-41</color>
            </emission>
            <ambient>
              <color sid="ambient">0.400000006   0.400000006   0.400000006   4.19744942e-41</color>
            </ambient>
            <diffuse>
              <color sid="diffuse">0.400000006   0.400000006   0.400000006   4.19744942e-41</color>
            </diffuse>
            <specular>
              <color sid="specular">0.25   0.25   0.25   4.19744942e-41</color>
            </specular>
          </phong>
        </technique>
      </profile_COMMON>
    </effect>
  </library_effects>
  <library_materials>
    <material id="material_0" name="">
      <instance_effect url="#material_0-fx"/>
    </material>
  </library_materials>
  <library_geometries>
    <geometry id="mesh_0" name="" >
      <mesh>
        <source id="mesh_0-positions" name="mesh_0-positions">
          <float_array id="mesh_0-positions-array" count="3240"> 0.738278568 -0.314398557 1.3417722 0.748394191 -0.31412828 1.34202719 0.749985516 -0.314410448 1.34748876 0.738845587 -0.309830517 1.34359753 0.747737885 -0.31491518 1.34985471 0.737216949 -0.314970136 1.34464061 0.748533726 -0.310790867 1.34886706 0.747737885 -0.31491518 1.34985471 0.738845587 -0.309830517 1.34359753 0.749985516 -0.314410448 1.34748876 0.747737885 -0.31491518 1.34985471 0.748533726 -0.310790867 1.34886706 0.750958383 -0.31016624 1.34601796 0.749985516 -0.314410448 1.34748876 0.748533726 -0.310790867 1.34886706 0.764910221 -0.314436585 1.36258936 0.766239882 -0.314098269 1.35801256 0.768716455 -0.314435095 1.37047303 0.738278568 -0.314398557 1.3417722 0.733016729 -0.314098626 1.33805203 0.748394191 -0.31412828 1.34202719 0.740228117 -0.309175551 1.34037757 0.738278568 -0.314398557 1.3417722 0.750958383 -0.31016624 1.34601796 0.764910221 -0.314436585 1.36258936 0.756501257 -0.314289093 1.35240722 0.766239882 -0.314098269 1.35801256 0.756501257 -0.314289093 1.35240722 0.748394191 -0.31412828 1.34202719 0.766239882 -0.314098269 1.35801256 0.768716455 -0.314435095 1.37047303 0.766239882 -0.314098269 1.35801256 0.775116682 -0.314193934 1.38214409 0.750958383 -0.31016624 1.34601796 0.738278568 -0.314398557 1.3417722 0.749985516 -0.314410448 1.34748876 0.737216949 -0.314970136 1.34464061 0.738278568 -0.314398557 1.3417722 0.740228117 -0.309175551 1.34037757 0.738845587 -0.309830517 1.34359753 0.737216949 -0.314970136 1.34464061 0.740228117 -0.309175551 1.34037757 0.771608472 -0.314375222 1.38200307 0.768716455 -0.314435095 1.37047303 0.775116682 -0.314193934 1.38214409 0.756244183 -0.310669661 1.35149848 0.756501257 -0.314289093 1.35240722 0.763257563 -0.310233861 1.35730577 0.763257563 -0.310233861 1.35730577 0.756501257 -0.314289093 1.35240722 0.764910221 -0.314436585 1.36258936 0.763257563 -0.310233861 1.35730577 0.764910221 -0.314436585 1.36258936 0.76612246 -0.310034156 1.36245358 0.755163372 -0.310915738 1.35402322 0.753514051 -0.3162359 1.35626495 0.756244183 -0.310669661 1.35149848 0.756244183 -0.310669661 1.35149848 0.753514051 -0.3162359 1.35626495 0.756501257 -0.314289093 1.35240722 0.755163372 -0.310915738 1.35402322 0.761952519 -0.314934403 1.36463439 0.753514051 -0.3162359 1.35626495 0.763267517 -0.309932709 1.36344361 0.761952519 -0.314934403 1.36463439 0.755163372 -0.310915738 1.35402322 0.76612246 -0.310034156 1.36245358 0.764910221 -0.314436585 1.36258936 0.761952519 -0.314934403 1.36463439 0.76612246 -0.310034156 1.36245358 0.761952519 -0.314934403 1.36463439 0.763267517 -0.309932709 1.36344361 0.767130613 -0.308956563 1.37052894 0.768438339 -0.31491679 1.38332343 0.764257789 -0.315953732 1.37206769 0.770323813 -0.307864547 1.38149035 0.768438339 -0.31491679 1.38332343 0.767130613 -0.308956563 1.37052894 0.767130613 -0.308956563 1.37052894 0.764257789 -0.315953732 1.37206769 0.768716455 -0.314435095 1.37047303 0.770057499 -0.314301789 1.38367677 0.771608472 -0.314375222 1.38200307 0.775116682 -0.314193934 1.38214409 0.767130613 -0.308956563 1.37052894 0.768716455 -0.314435095 1.37047303 0.770090282 -0.309431165 1.36916256 0.725993991 -0.314533025 1.34161747 0.733016729 -0.314098626 1.33805203 0.738278568 -0.314398557 1.3417722 0.770090282 -0.309431165 1.36916256 0.768716455 -0.314435095 1.37047303 0.771608472 -0.314375222 1.38200307 0.770090282 -0.309431165 1.36916256 0.771608472 -0.314375222 1.38200307 0.773405373 -0.30855912 1.38079584 0.766920507 -0.314630121 1.39904535 0.770057499 -0.314301789 1.38367677 0.775116682 -0.314193934 1.38214409 0.770323813 -0.307864547 1.38149035 0.770057499 -0.314301789 1.38367677 0.768438339 -0.31491679 1.38332343 0.756501257 -0.314289093 1.35240722 0.749985516 -0.314410448 1.34748876 0.748394191 -0.31412828 1.34202719 0.756501257 -0.314289093 1.35240722 0.747737885 -0.31491518 1.34985471 0.749985516 -0.314410448 1.34748876 0.770291626 -0.314279646 1.38358676 0.773405373 -0.30855912 1.38079584 0.771608472 -0.314375222 1.38200307 0.770057499 -0.314301789 1.38367677 0.773405373 -0.30855912 1.38079584 0.770291567 -0.314279675 1.38358676 0.774291039 -0.314024895 1.38798368 0.763972223 -0.313848466 1.40626633 0.766920507 -0.314630121 1.39904535 0.770291567 -0.314279675 1.38358676 0.773405373 -0.30855912 1.38079584 0.770291626 -0.314279646 1.38358676 0.773405373 -0.30855912 1.38079584 0.770057499 -0.314301789 1.38367677 0.770323813 -0.307864547 1.38149035 0.771608472 -0.314375222 1.38200307 0.770057499 -0.314301789 1.38367677 0.770291626 -0.314279646 1.38358676 0.697367013 -0.308530569 1.45019281 0.708501995 -0.308498234 1.45157266 0.694860399 -0.306833595 1.44671142 0.772994936 -0.309387088 1.36624742 0.764693081 -0.309545249 1.35314 0.763257563 -0.310233861 1.35730577 0.694860399 -0.306833595 1.44671142 0.682008505 -0.308612555 1.4438976 0.697367013 -0.308530569 1.45019281 0.739556193 -0.309281468 1.35129452 0.720516324 -0.308217973 1.34639406 0.724030435 -0.307280719 1.34964097 0.775116682 -0.314193934 1.38214409 0.774291039 -0.314024895 1.38798368 0.766920507 -0.314630121 1.39904535 0.694860399 -0.306833595 1.44671142 0.680145919 -0.306676358 1.43977344 0.682008505 -0.308612555 1.4438976 0.753030002 -0.307578474 1.36128604 0.762273848 -0.307489008 1.36893404 0.763267517 -0.309932709 1.36344361 0.748533726 -0.310790867 1.34886706 0.740228117 -0.309175551 1.34037757 0.72103703 -0.308604419 1.3406471 0.748533726 -0.310790867 1.34886706 0.72103703 -0.308604419 1.3406471 0.739556193 -0.309281468 1.35129452 0.763257563 -0.310233861 1.35730577 0.764693081 -0.309545249 1.35314 0.756244183 -0.310669661 1.35149848 0.667383671 -0.30678755 1.42590046 0.663626909 -0.308443606 1.42485428 0.670022011 -0.308656335 1.4339056 0.7761693 -0.308985174 1.38809109 0.773405373 -0.30855912 1.38079584 0.769335568 -0.307338804 1.39097536 0.771866739 -0.314028442 1.36852908 0.775116682 -0.314193934 1.38214409 0.766239882 -0.314098269 1.35801256 0.760788262 -0.314197093 1.35148919 0.766239882 -0.314098269 1.35801256 0.748394191 -0.31412828 1.34202719 0.740228117 -0.309175551 1.34037757 0.733411252 -0.309136301 1.33617592 0.72103703 -0.308604419 1.3406471 0.7761693 -0.308985174 1.38809109 0.777239382 -0.309171408 1.37899935 0.773405373 -0.30855912 1.38079584 0.763267517 -0.309932709 1.36344361 0.755163372 -0.310915738 1.35402322 0.739556193 -0.309281468 1.35129452 0.756244183 -0.310669661 1.35149848 0.764693081 -0.309545249 1.35314 0.757197142 -0.309537739 1.345649 0.739556193 -0.309281468 1.35129452 0.72103703 -0.308604419 1.3406471 0.720516324 -0.308217973 1.34639406 0.763267517 -0.309932709 1.36344361 0.739556193 -0.309281468 1.35129452 0.753030002 -0.307578474 1.36128604 0.667383671 -0.30678755 1.42590046 0.659183741 -0.30852443 1.41469991 0.663626909 -0.308443606 1.42485428 0.755163372 -0.310915738 1.35402322 0.756244183 -0.310669661 1.35149848 0.748533726 -0.310790867 1.34886706 0.724030435 -0.307280719 1.34964097 0.720516324 -0.308217973 1.34639406 0.706307828 -0.307222664 1.34794903 0.773405373 -0.30855912 1.38079584 0.770323813 -0.307864547 1.38149035 0.769335568 -0.307338804 1.39097536 0.777239382 -0.309171408 1.37899935 0.770090282 -0.309431165 1.36916256 0.773405373 -0.30855912 1.38079584 0.659183741 -0.30852443 1.41469991 0.667383671 -0.30678755 1.42590046 0.659726202 -0.306820214 1.40372396 0.756244183 -0.310669661 1.35149848 0.750958383 -0.31016624 1.34601796 0.748533726 -0.310790867 1.34886706 0.770323813 -0.307864547 1.38149035 0.768339694 -0.307249248 1.37891924 0.769335568 -0.307338804 1.39097536 0.724920273 -0.316427946 1.34425426 0.713412523 -0.313864142 1.34419537 0.733016729 -0.314098626 1.33805203 0.725993991 -0.314533025 1.34161747 0.724920273 -0.316427946 1.34425426 0.733016729 -0.314098626 1.33805203 0.770323813 -0.307864547 1.38149035 0.767130613 -0.308956563 1.37052894 0.768339694 -0.307249248 1.37891924 0.706307828 -0.307222664 1.34794903 0.720516324 -0.308217973 1.34639406 0.702550411 -0.308738351 1.34536028 0.755163372 -0.310915738 1.35402322 0.748533726 -0.310790867 1.34886706 0.739556193 -0.309281468 1.35129452 0.659183741 -0.30852443 1.41469991 0.659726202 -0.306820214 1.40372396 0.657638133 -0.308717728 1.40839136 0.720516324 -0.308217973 1.34639406 0.72103703 -0.308604419 1.3406471 0.702550411 -0.308738351 1.34536028 0.659726202 -0.306820214 1.40372396 0.656789601 -0.308523029 1.39969647 0.657638133 -0.308717728 1.40839136 0.753030002 -0.307578474 1.36128604 0.739556193 -0.309281468 1.35129452 0.737183928 -0.307494104 1.3536042 0.756244183 -0.310669661 1.35149848 0.757197142 -0.309537739 1.345649 0.750958383 -0.31016624 1.34601796 0.659726202 -0.306820214 1.40372396 0.657021046 -0.308507204 1.39410305 0.656789601 -0.308523029 1.39969647 0.748179018 -0.330582291 1.36267042 0.741367519 -0.330962449 1.35713065 0.753514051 -0.3162359 1.35626495 0.706307828 -0.307222664 1.34794903 0.702550411 -0.308738351 1.34536028 0.692537963 -0.308552504 1.34880435 0.691162765 -0.307157546 1.35149825 0.706307828 -0.307222664 1.34794903 0.692537963 -0.308552504 1.34880435 0.662916422 -0.306800634 1.38074839 0.661409855 -0.308674932 1.37737894 0.657021046 -0.308507204 1.39410305 0.691162765 -0.307157546 1.35149825 0.692537963 -0.308552504 1.34880435 0.678350866 -0.308610171 1.3565104 0.691162765 -0.307157546 1.35149825 0.678350866 -0.308610171 1.3565104 0.677329063 -0.306687146 1.35932612 0.685041904 -0.32635811 1.35640275 0.680044413 -0.328368157 1.36021364 0.678350866 -0.308610171 1.3565104 0.677329063 -0.306687146 1.35932612 0.678350866 -0.308610171 1.3565104 0.674723864 -0.308570921 1.35942137 0.680145919 -0.306676358 1.43977344 0.676238954 -0.308754236 1.43984866 0.682008505 -0.308612555 1.4438976 0.777239382 -0.309171408 1.37899935 0.772994936 -0.309387088 1.36624742 0.770090282 -0.309431165 1.36916256 0.662916422 -0.306800634 1.38074839 0.673039556 -0.306809574 1.36480331 0.665863752 -0.30853951 1.36945248 0.674723864 -0.308570921 1.35942137 0.673039556 -0.306809574 1.36480331 0.677329063 -0.306687146 1.35932612 0.662916422 -0.306800634 1.38074839 0.665863752 -0.30853951 1.36945248 0.661409855 -0.308674932 1.37737894 0.692537963 -0.308552504 1.34880435 0.685041904 -0.32635811 1.35640275 0.678350866 -0.308610171 1.3565104 0.722200155 -0.331647992 1.35055327 0.737216949 -0.314970136 1.34464061 0.737337589 -0.315962046 1.34596872 0.673039556 -0.306809574 1.36480331 0.674723864 -0.308570921 1.35942137 0.665863752 -0.30853951 1.36945248 0.676238954 -0.308754236 1.43984866 0.680145919 -0.306676358 1.43977344 0.670022011 -0.308656335 1.4339056 0.770090282 -0.309431165 1.36916256 0.772994936 -0.309387088 1.36624742 0.76612246 -0.310034156 1.36245358 0.748785675 -0.308552116 1.43377113 0.755980194 -0.308852196 1.42443168 0.750569105 -0.307148606 1.42910254 0.767130613 -0.308956563 1.37052894 0.762273848 -0.307489008 1.36893404 0.768339694 -0.307249248 1.37891924 0.692177415 -0.327028304 1.35327578 0.685041904 -0.32635811 1.35640275 0.692537963 -0.308552504 1.34880435 0.748785675 -0.308552116 1.43377113 0.750569105 -0.307148606 1.42910254 0.739426911 -0.308699578 1.44220603 0.760487199 -0.308804363 1.4167372 0.750569105 -0.307148606 1.42910254 0.755980194 -0.308852196 1.42443168 0.757197142 -0.309537739 1.345649 0.740228117 -0.309175551 1.34037757 0.750958383 -0.31016624 1.34601796 0.741367519 -0.330962449 1.35713065 0.735527635 -0.331149608 1.35369205 0.747737885 -0.31491518 1.34985471 0.670022011 -0.308656335 1.4339056 0.680145919 -0.306676358 1.43977344 0.667383671 -0.30678755 1.42590046 0.702550411 -0.308738351 1.34536028 0.692177415 -0.327028304 1.35327578 0.692537963 -0.308552504 1.34880435 0.7761693 -0.308985174 1.38809109 0.769335568 -0.307338804 1.39097536 0.760487199 -0.308804363 1.4167372 0.741367519 -0.330962449 1.35713065 0.747737885 -0.31491518 1.34985471 0.753514051 -0.3162359 1.35626495 0.739426911 -0.308699578 1.44220603 0.750569105 -0.307148606 1.42910254 0.724946082 -0.30683431 1.44638383 0.726405382 -0.30853951 1.44877493 0.739426911 -0.308699578 1.44220603 0.724946082 -0.30683431 1.44638383 0.739556193 -0.309281468 1.35129452 0.724030435 -0.307280719 1.34964097 0.737183928 -0.307494104 1.3536042 0.726405382 -0.30853951 1.44877493 0.724946082 -0.30683431 1.44638383 0.718228877 -0.308553934 1.45083404 0.753514051 -0.3162359 1.35626495 0.761952519 -0.314934403 1.36463439 0.748179018 -0.330582291 1.36267042 0.740228117 -0.309175551 1.34037757 0.757197142 -0.309537739 1.345649 0.742093801 -0.309092104 1.33639777 0.760487199 -0.308804363 1.4167372 0.769335568 -0.307338804 1.39097536 0.750569105 -0.307148606 1.42910254 0.763267517 -0.309932709 1.36344361 0.762273848 -0.307489008 1.36893404 0.767130613 -0.308956563 1.37052894 0.763267517 -0.309932709 1.36344361 0.767130613 -0.308956563 1.37052894 0.770090282 -0.309431165 1.36916256 0.681478381 -0.334210783 1.36158299 0.680044413 -0.328368157 1.36021364 0.685041904 -0.32635811 1.35640275 0.763267517 -0.309932709 1.36344361 0.770090282 -0.309431165 1.36916256 0.76612246 -0.310034156 1.36245358 0.738845587 -0.309830517 1.34359753 0.740228117 -0.309175551 1.34037757 0.748533726 -0.310790867 1.34886706 0.76612246 -0.310034156 1.36245358 0.772994936 -0.309387088 1.36624742 0.763257563 -0.310233861 1.35730577 0.693592966 -0.333376855 1.35503531 0.685041904 -0.32635811 1.35640275 0.692177415 -0.327028304 1.35327578 0.742093801 -0.309092104 1.33639777 0.733411252 -0.309136301 1.33617592 0.740228117 -0.309175551 1.34037757 0.711471915 -0.303106487 1.34713149 0.724030435 -0.307280719 1.34964097 0.706307828 -0.307222664 1.34794903 0.703794301 -0.325488329 1.34935224 0.692177415 -0.327028304 1.35327578 0.702550411 -0.308738351 1.34536028 0.706307828 -0.307222664 1.34794903 0.691162765 -0.307157546 1.35149825 0.711471915 -0.303106487 1.34713149 0.691162765 -0.307157546 1.35149825 0.673039556 -0.306809574 1.36480331 0.708598077 -0.303864032 1.34833682 0.677329063 -0.306687146 1.35932612 0.673039556 -0.306809574 1.36480331 0.691162765 -0.307157546 1.35149825 0.691162765 -0.307157546 1.35149825 0.708598077 -0.303864032 1.34833682 0.711471915 -0.303106487 1.34713149 0.703794301 -0.325488329 1.34935224 0.693592966 -0.333376855 1.35503531 0.692177415 -0.327028304 1.35327578 0.711471915 -0.303106487 1.34713149 0.733149707 -0.297132075 1.34897077 0.733531594 -0.297754943 1.34805846 0.711471915 -0.303106487 1.34713149 0.708598077 -0.303864032 1.34833682 0.733149707 -0.297132075 1.34897077 0.657021046 -0.308507204 1.39410305 0.659726202 -0.306820214 1.40372396 0.662916422 -0.306800634 1.38074839 0.703794301 -0.325488329 1.34935224 0.72103703 -0.308604419 1.3406471 0.713412523 -0.313864142 1.34419537 0.703794301 -0.325488329 1.34935224 0.702550411 -0.308738351 1.34536028 0.72103703 -0.308604419 1.3406471 0.703794301 -0.325488329 1.34935224 0.70863694 -0.332366586 1.35112953 0.693592966 -0.333376855 1.35503531 0.70863694 -0.332366586 1.35112953 0.713412523 -0.313864142 1.34419537 0.724920273 -0.316427946 1.34425426 0.680145919 -0.306676358 1.43977344 0.694860399 -0.306833595 1.44671142 0.667383671 -0.30678755 1.42590046 0.724946082 -0.30683431 1.44638383 0.694860399 -0.306833595 1.44671142 0.718228877 -0.308553934 1.45083404 0.70863694 -0.332366586 1.35112953 0.703794301 -0.325488329 1.34935224 0.713412523 -0.313864142 1.34419537 0.694860399 -0.306833595 1.44671142 0.708501995 -0.308498234 1.45157266 0.718228877 -0.308553934 1.45083404 0.744656682 -0.301551282 1.35324907 0.737183928 -0.307494104 1.3536042 0.724030435 -0.307280719 1.34964097 0.685041904 -0.32635811 1.35640275 0.693592966 -0.333376855 1.35503531 0.681478381 -0.334210783 1.36158299 0.737183928 -0.307494104 1.3536042 0.744656682 -0.301551282 1.35324907 0.753030002 -0.307578474 1.36128604 0.744656682 -0.301551282 1.35324907 0.747623265 -0.297988474 1.35077894 0.75601083 -0.301910579 1.3588711 0.744656682 -0.301551282 1.35324907 0.75601083 -0.301910579 1.3588711 0.753030002 -0.307578474 1.36128604 0.75601083 -0.301910579 1.3588711 0.762273848 -0.307489008 1.36893404 0.753030002 -0.307578474 1.36128604 0.772664726 -0.297580272 1.37852788 0.769335568 -0.307338804 1.39097536 0.768339694 -0.307249248 1.37891924 0.768954396 -0.301441044 1.3977139 0.762821794 -0.30716905 1.41020501 0.769335568 -0.307338804 1.39097536 0.768954396 -0.301441044 1.3977139 0.763299346 -0.30439797 1.40792263 0.762821794 -0.30716905 1.41020501 0.772664726 -0.297580272 1.37852788 0.768954396 -0.301441044 1.3977139 0.769335568 -0.307338804 1.39097536 0.737216949 -0.314970136 1.34464061 0.722200155 -0.331647992 1.35055327 0.724920273 -0.316427946 1.34425426 0.722200155 -0.331647992 1.35055327 0.70863694 -0.332366586 1.35112953 0.724920273 -0.316427946 1.34425426 0.768879354 -0.297912508 1.36668658 0.75601083 -0.301910579 1.3588711 0.756848633 -0.298048764 1.35445929 0.763299346 -0.30439797 1.40792263 0.750569105 -0.307148606 1.42910254 0.762821794 -0.30716905 1.41020501 0.768879354 -0.297912508 1.36668658 0.762273848 -0.307489008 1.36893404 0.75601083 -0.301910579 1.3588711 0.768879354 -0.297912508 1.36668658 0.768339694 -0.307249248 1.37891924 0.762273848 -0.307489008 1.36893404 0.756848633 -0.298048764 1.35445929 0.75601083 -0.301910579 1.3588711 0.747623265 -0.297988474 1.35077894 0.711471915 -0.303106487 1.34713149 0.733531594 -0.297754943 1.34805846 0.724030435 -0.307280719 1.34964097 0.733531594 -0.297754943 1.34805846 0.744656682 -0.301551282 1.35324907 0.724030435 -0.307280719 1.34964097 0.735527635 -0.331149608 1.35369205 0.722200155 -0.331647992 1.35055327 0.737337589 -0.315962046 1.34596872 0.747623265 -0.297988474 1.35077894 0.744656682 -0.301551282 1.35324907 0.733531594 -0.297754943 1.34805846 0.733531594 -0.297754943 1.34805846 0.733149707 -0.297132075 1.34897077 0.747623265 -0.297988474 1.35077894 0.735527635 -0.331149608 1.35369205 0.737337589 -0.315962046 1.34596872 0.747737885 -0.31491518 1.34985471 0.733149707 -0.297132075 1.34897077 0.748834074 -0.297105014 1.35180032 0.747623265 -0.297988474 1.35077894 0.747623265 -0.297988474 1.35077894 0.748834074 -0.297105014 1.35180032 0.756848633 -0.298048764 1.35445929 0.756848633 -0.298048764 1.35445929 0.748834074 -0.297105014 1.35180032 0.76654321 -0.297105372 1.36432648 0.772664726 -0.297580272 1.37852788 0.76654321 -0.297105372 1.36432648 0.770359278 -0.298583984 1.38885713 0.772664726 -0.297580272 1.37852788 0.770359278 -0.298583984 1.38885713 0.768954396 -0.301441044 1.3977139 0.768954396 -0.301441044 1.3977139 0.770359278 -0.298583984 1.38885713 0.763299346 -0.30439797 1.40792263 0.671827793 -0.337556779 1.42404234 0.664245903 -0.326224685 1.41843367 0.667195022 -0.337415338 1.41518283 0.768879354 -0.297912508 1.36668658 0.772664726 -0.297580272 1.37852788 0.768339694 -0.307249248 1.37891924 0.756848633 -0.298048764 1.35445929 0.76654321 -0.297105372 1.36432648 0.768879354 -0.297912508 1.36668658 0.76654321 -0.297105372 1.36432648 0.772664726 -0.297580272 1.37852788 0.768879354 -0.297912508 1.36668658 0.698495567 -0.344581276 1.36710453 0.710270464 -0.344552636 1.36228633 0.716638625 -0.344544411 1.36293662 0.742990255 -0.344584197 1.39979243 0.745030344 -0.344565749 1.39018106 0.745995045 -0.344560266 1.401371 0.674450755 -0.344561517 1.38779497 0.677337229 -0.344554156 1.38120568 0.698495567 -0.344581276 1.36710453 0.683814406 -0.344564259 1.42529762 0.676605105 -0.344565094 1.41536748 0.696505487 -0.344585717 1.43013883 0.713402331 -0.344548762 1.4354881 0.696505487 -0.344585717 1.43013883 0.729747176 -0.344555259 1.42948079 0.683814406 -0.344564259 1.42529762 0.696505487 -0.344585717 1.43013883 0.698236525 -0.344550192 1.43397903 0.698495567 -0.344581276 1.36710453 0.716638625 -0.344544411 1.36293662 0.733043194 -0.344559133 1.37090206 0.677337229 -0.344554156 1.38120568 0.687755585 -0.344545066 1.3693887 0.698495567 -0.344581276 1.36710453 0.676605105 -0.344565094 1.41536748 0.673112333 -0.34455651 1.4042598 0.696505487 -0.344585717 1.43013883 0.696505487 -0.344585717 1.43013883 0.741603196 -0.344424576 1.41690004 0.729747176 -0.344555259 1.42948079 0.742990255 -0.344584197 1.39979243 0.738966763 -0.344567865 1.37720156 0.745030344 -0.344565749 1.39018106 0.698495567 -0.344581276 1.36710453 0.687755585 -0.344545066 1.3693887 0.699388325 -0.344535738 1.3636539 0.696505487 -0.344585717 1.43013883 0.742990255 -0.344584197 1.39979243 0.741603196 -0.344424576 1.41690004 0.742990255 -0.344584197 1.39979243 0.743405581 -0.344555378 1.41264701 0.741603196 -0.344424576 1.41690004 0.742990255 -0.344584197 1.39979243 0.698495567 -0.344581276 1.36710453 0.738966763 -0.344567865 1.37720156 0.698495567 -0.344581276 1.36710453 0.733043194 -0.344559133 1.37090206 0.738966763 -0.344567865 1.37720156 0.698495567 -0.344581276 1.36710453 0.699388325 -0.344535738 1.3636539 0.710270464 -0.344552636 1.36228633 0.673112333 -0.34455651 1.4042598 0.698495567 -0.344581276 1.36710453 0.696505487 -0.344585717 1.43013883 0.673112333 -0.34455651 1.4042598 0.672736704 -0.344552189 1.39652383 0.698495567 -0.344581276 1.36710453 0.742990255 -0.344584197 1.39979243 0.745995045 -0.344560266 1.401371 0.743405581 -0.344555378 1.41264701 0.670111418 -0.318160295 1.36665964 0.681478381 -0.334210783 1.36158299 0.672163665 -0.335228384 1.37160194 0.670111418 -0.318160295 1.36665964 0.680044413 -0.328368157 1.36021364 0.681478381 -0.334210783 1.36158299 0.672736704 -0.344552189 1.39652383 0.674450755 -0.344561517 1.38779497 0.698495567 -0.344581276 1.36710453 0.669231653 -0.331568182 1.37328649 0.672163665 -0.335228384 1.37160194 0.666341305 -0.336054355 1.38317072 0.697190523 -0.328549594 1.44599831 0.688660741 -0.331471264 1.44193053 0.697970927 -0.336972326 1.44296849 0.698236525 -0.344550192 1.43397903 0.696505487 -0.344585717 1.43013883 0.713402331 -0.344548762 1.4354881 0.741603196 -0.344424576 1.41690004 0.749162018 -0.333352596 1.42353892 0.740163088 -0.334295064 1.43397486 0.751417875 -0.33983925 1.39781189 0.759142578 -0.33166188 1.39879262 0.757077634 -0.332129329 1.40674877 0.757077634 -0.332129329 1.40674877 0.743405581 -0.344555378 1.41264701 0.751417875 -0.33983925 1.39781189 0.743087351 -0.338790387 1.36999369 0.745030344 -0.344565749 1.39018106 0.738966763 -0.344567865 1.37720156 0.743087351 -0.338790387 1.36999369 0.750454664 -0.339231879 1.38446164 0.745030344 -0.344565749 1.39018106 0.743087351 -0.338790387 1.36999369 0.748179018 -0.330582291 1.36267042 0.755800784 -0.330688089 1.37347591 0.743087351 -0.338790387 1.36999369 0.755800784 -0.330688089 1.37347591 0.750454664 -0.339231879 1.38446164 0.750454664 -0.339231879 1.38446164 0.75976038 -0.331036776 1.38541579 0.745030344 -0.344565749 1.39018106 0.745030344 -0.344565749 1.39018106 0.751417875 -0.33983925 1.39781189 0.745995045 -0.344560266 1.401371 0.681331813 -0.328786969 1.4385407 0.674052894 -0.330693245 1.43137813 0.678987682 -0.33753106 1.43240178 0.7041471 -0.328946143 1.44716573 0.697970927 -0.336972326 1.44296849 0.707062602 -0.336512804 1.44457531 0.75976038 -0.331036776 1.38541579 0.751417875 -0.33983925 1.39781189 0.745030344 -0.344565749 1.39018106 0.750454664 -0.339231879 1.38446164 0.755800784 -0.330688089 1.37347591 0.75976038 -0.331036776 1.38541579 0.751417875 -0.33983925 1.39781189 0.743405581 -0.344555378 1.41264701 0.745995045 -0.344560266 1.401371 0.75976038 -0.331036776 1.38541579 0.759142578 -0.33166188 1.39879262 0.751417875 -0.33983925 1.39781189 0.743405581 -0.344555378 1.41264701 0.749162018 -0.333352596 1.42353892 0.741603196 -0.344424576 1.41690004 0.743405581 -0.344555378 1.41264701 0.757077634 -0.332129329 1.40674877 0.749162018 -0.333352596 1.42353892 0.740163088 -0.334295064 1.43397486 0.729747176 -0.344555259 1.42948079 0.741603196 -0.344424576 1.41690004 0.743087351 -0.338790387 1.36999369 0.738966763 -0.344567865 1.37720156 0.733043194 -0.344559133 1.37090206 0.743087351 -0.338790387 1.36999369 0.733043194 -0.344559133 1.37090206 0.739411175 -0.337335974 1.36415374 0.748179018 -0.330582291 1.36267042 0.743087351 -0.338790387 1.36999369 0.739411175 -0.337335974 1.36415374 0.7041471 -0.328946143 1.44716573 0.697190523 -0.328549594 1.44599831 0.697970927 -0.336972326 1.44296849 0.739411175 -0.337335974 1.36415374 0.735527635 -0.331149608 1.35369205 0.741367519 -0.330962449 1.35713065 0.739411175 -0.337335974 1.36415374 0.741367519 -0.330962449 1.35713065 0.748179018 -0.330582291 1.36267042 0.661704779 -0.32868734 1.40807736 0.661790788 -0.331673801 1.40009177 0.663905442 -0.336879104 1.400594 0.733043194 -0.344559133 1.37090206 0.716638625 -0.344544411 1.36293662 0.726108789 -0.33790186 1.35756922 0.688660741 -0.331471264 1.44193053 0.678987682 -0.33753106 1.43240178 0.697970927 -0.336972326 1.44296849 0.733043194 -0.344559133 1.37090206 0.726108789 -0.33790186 1.35756922 0.739411175 -0.337335974 1.36415374 0.739411175 -0.337335974 1.36415374 0.726108789 -0.33790186 1.35756922 0.735527635 -0.331149608 1.35369205 0.716638625 -0.344544411 1.36293662 0.710270464 -0.344552636 1.36228633 0.726108789 -0.33790186 1.35756922 0.735527635 -0.331149608 1.35369205 0.726108789 -0.33790186 1.35756922 0.722200155 -0.331647992 1.35055327 0.726108789 -0.33790186 1.35756922 0.710270464 -0.344552636 1.36228633 0.722200155 -0.331647992 1.35055327 0.710270464 -0.344552636 1.36228633 0.699388325 -0.344535738 1.3636539 0.70863694 -0.332366586 1.35112953 0.722200155 -0.331647992 1.35055327 0.710270464 -0.344552636 1.36228633 0.70863694 -0.332366586 1.35112953 0.688660741 -0.331471264 1.44193053 0.681331813 -0.328786969 1.4385407 0.678987682 -0.33753106 1.43240178 0.713922203 -0.328248948 1.4474498 0.7041471 -0.328946143 1.44716573 0.707062602 -0.336512804 1.44457531 0.661704779 -0.32868734 1.40807736 0.663905442 -0.336879104 1.400594 0.667195022 -0.337415338 1.41518283 0.70863694 -0.332366586 1.35112953 0.699388325 -0.344535738 1.3636539 0.693592966 -0.333376855 1.35503531 0.67048806 -0.331581533 1.42655671 0.664245903 -0.326224685 1.41843367 0.671827793 -0.337556779 1.42404234 0.687755585 -0.344545066 1.3693887 0.693592966 -0.333376855 1.35503531 0.699388325 -0.344535738 1.3636539 0.687755585 -0.344545066 1.3693887 0.681478381 -0.334210783 1.36158299 0.693592966 -0.333376855 1.35503531 0.707062602 -0.336512804 1.44457531 0.698236525 -0.344550192 1.43397903 0.713402331 -0.344548762 1.4354881 0.707062602 -0.336512804 1.44457531 0.713402331 -0.344548762 1.4354881 0.720071495 -0.335824728 1.44369972 0.672163665 -0.335228384 1.37160194 0.681478381 -0.334210783 1.36158299 0.687755585 -0.344545066 1.3693887 0.730793536 -0.335056394 1.44007838 0.729747176 -0.344555259 1.42948079 0.740163088 -0.334295064 1.43397486 0.713402331 -0.344548762 1.4354881 0.729747176 -0.344555259 1.42948079 0.720071495 -0.335824728 1.44369972 0.720071495 -0.335824728 1.44369972 0.729747176 -0.344555259 1.42948079 0.730793536 -0.335056394 1.44007838 0.666341305 -0.336054355 1.38317072 0.672736704 -0.344552189 1.39652383 0.663905442 -0.336879104 1.400594 0.713922203 -0.328248948 1.4474498 0.707062602 -0.336512804 1.44457531 0.720071495 -0.335824728 1.44369972 0.671827793 -0.337556779 1.42404234 0.683814406 -0.344564259 1.42529762 0.678987682 -0.33753106 1.43240178 0.676605105 -0.344565094 1.41536748 0.671827793 -0.337556779 1.42404234 0.667195022 -0.337415338 1.41518283 0.676605105 -0.344565094 1.41536748 0.683814406 -0.344564259 1.42529762 0.671827793 -0.337556779 1.42404234 0.677337229 -0.344554156 1.38120568 0.674450755 -0.344561517 1.38779497 0.666341305 -0.336054355 1.38317072 0.677337229 -0.344554156 1.38120568 0.666341305 -0.336054355 1.38317072 0.672163665 -0.335228384 1.37160194 0.666341305 -0.336054355 1.38317072 0.674450755 -0.344561517 1.38779497 0.672736704 -0.344552189 1.39652383 0.72323364 -0.316766739 1.44823337 0.713922203 -0.328248948 1.4474498 0.720071495 -0.335824728 1.44369972 0.663905442 -0.336879104 1.400594 0.672736704 -0.344552189 1.39652383 0.673112333 -0.34455651 1.4042598 0.673112333 -0.34455651 1.4042598 0.667195022 -0.337415338 1.41518283 0.663905442 -0.336879104 1.400594 0.673112333 -0.34455651 1.4042598 0.676605105 -0.344565094 1.41536748 0.667195022 -0.337415338 1.41518283 0.678987682 -0.33753106 1.43240178 0.683814406 -0.344564259 1.42529762 0.698236525 -0.344550192 1.43397903 0.698236525 -0.344550192 1.43397903 0.697970927 -0.336972326 1.44296849 0.678987682 -0.33753106 1.43240178 0.697970927 -0.336972326 1.44296849 0.698236525 -0.344550192 1.43397903 0.707062602 -0.336512804 1.44457531 0.720071495 -0.335824728 1.44369972 0.730793536 -0.335056394 1.44007838 0.727902532 -0.328223944 1.44398713 0.720071495 -0.335824728 1.44369972 0.727902532 -0.328223944 1.44398713 0.72323364 -0.316766739 1.44823337 0.672163665 -0.335228384 1.37160194 0.687755585 -0.344545066 1.3693887 0.677337229 -0.344554156 1.38120568 0.749162018 -0.333352596 1.42353892 0.749273777 -0.327234626 1.42709267 0.740163088 -0.334295064 1.43397486 0.669231653 -0.331568182 1.37328649 0.670111418 -0.318160295 1.36665964 0.672163665 -0.335228384 1.37160194 0.748179018 -0.330582291 1.36267042 0.761952519 -0.314934403 1.36463439 0.755800784 -0.330688089 1.37347591 0.757656455 -0.325015217 1.41321754 0.763972223 -0.313848466 1.40626633 0.760487199 -0.308804363 1.4167372 0.669231653 -0.331568182 1.37328649 0.666341305 -0.336054355 1.38317072 0.665512562 -0.326704711 1.37709057 0.740163088 -0.334295064 1.43397486 0.749273777 -0.327234626 1.42709267 0.741829872 -0.327100456 1.43563867 0.761952519 -0.314934403 1.36463439 0.764257789 -0.315953732 1.37206769 0.755800784 -0.330688089 1.37347591 0.755800784 -0.330688089 1.37347591 0.764257789 -0.315953732 1.37206769 0.75976038 -0.331036776 1.38541579 0.75976038 -0.331036776 1.38541579 0.76361233 -0.324231386 1.38972819 0.759142578 -0.33166188 1.39879262 0.760487199 -0.308804363 1.4167372 0.755980194 -0.308852196 1.42443168 0.749273777 -0.327234626 1.42709267 0.662579298 -0.331111044 1.38926136 0.665512562 -0.326704711 1.37709057 0.666341305 -0.336054355 1.38317072 0.661790788 -0.331673801 1.40009177 0.662579298 -0.331111044 1.38926136 0.666341305 -0.336054355 1.38317072 0.661790788 -0.331673801 1.40009177 0.666341305 -0.336054355 1.38317072 0.663905442 -0.336879104 1.400594 0.75976038 -0.331036776 1.38541579 0.767054379 -0.316360533 1.38463795 0.76361233 -0.324231386 1.38972819 0.76361233 -0.324231386 1.38972819 0.767054379 -0.316360533 1.38463795 0.768438339 -0.31491679 1.38332343 0.67048806 -0.331581533 1.42655671 0.671827793 -0.337556779 1.42404234 0.678987682 -0.33753106 1.43240178 0.674052894 -0.330693245 1.43137813 0.67048806 -0.331581533 1.42655671 0.678987682 -0.33753106 1.43240178 0.749273777 -0.327234626 1.42709267 0.755980194 -0.308852196 1.42443168 0.748785675 -0.308552116 1.43377113 0.749273777 -0.327234626 1.42709267 0.748785675 -0.308552116 1.43377113 0.741829872 -0.327100456 1.43563867 0.741829872 -0.327100456 1.43563867 0.748785675 -0.308552116 1.43377113 0.739426911 -0.308699578 1.44220603 0.757077634 -0.332129329 1.40674877 0.757656455 -0.325015217 1.41321754 0.749162018 -0.333352596 1.42353892 0.664245903 -0.326224685 1.41843367 0.661704779 -0.32868734 1.40807736 0.667195022 -0.337415338 1.41518283 0.757077634 -0.332129329 1.40674877 0.763972223 -0.313848466 1.40626633 0.757656455 -0.325015217 1.41321754 0.749273777 -0.327234626 1.42709267 0.757656455 -0.325015217 1.41321754 0.760487199 -0.308804363 1.4167372 0.75976038 -0.331036776 1.38541579 0.764257789 -0.315953732 1.37206769 0.767054379 -0.316360533 1.38463795 0.759142578 -0.33166188 1.39879262 0.76361233 -0.324231386 1.38972819 0.757077634 -0.332129329 1.40674877 0.76361233 -0.324231386 1.38972819 0.763972223 -0.313848466 1.40626633 0.757077634 -0.332129329 1.40674877 0.76361233 -0.324231386 1.38972819 0.768438339 -0.31491679 1.38332343 0.763972223 -0.313848466 1.40626633 0.757656455 -0.325015217 1.41321754 0.749273777 -0.327234626 1.42709267 0.749162018 -0.333352596 1.42353892 0.741829872 -0.327100456 1.43563867 0.730793536 -0.335056394 1.44007838 0.740163088 -0.334295064 1.43397486 0.737086415 -0.328362107 1.43896437 0.727902532 -0.328223944 1.44398713 0.730793536 -0.335056394 1.44007838 0.737086415 -0.328362107 1.43896437 0.730793536 -0.335056394 1.44007838 0.741829872 -0.327100456 1.43563867 0.739426911 -0.308699578 1.44220603 0.737086415 -0.328362107 1.43896437 0.741829872 -0.327100456 1.43563867 0.727902532 -0.328223944 1.44398713 0.739426911 -0.308699578 1.44220603 0.726405382 -0.30853951 1.44877493 0.727902532 -0.328223944 1.44398713 0.737086415 -0.328362107 1.43896437 0.739426911 -0.308699578 1.44220603 0.682008505 -0.308612555 1.4438976 0.681331813 -0.328786969 1.4385407 0.688660741 -0.331471264 1.44193053 0.678350866 -0.308610171 1.3565104 0.680044413 -0.328368157 1.36021364 0.674723864 -0.308570921 1.35942137 0.664245903 -0.326224685 1.41843367 0.663626909 -0.308443606 1.42485428 0.659183741 -0.30852443 1.41469991 0.661790788 -0.331673801 1.40009177 0.661704779 -0.32868734 1.40807736 0.656789601 -0.308523029 1.39969647 0.656789601 -0.308523029 1.39969647 0.661704779 -0.32868734 1.40807736 0.657638133 -0.308717728 1.40839136 0.664245903 -0.326224685 1.41843367 0.659183741 -0.30852443 1.41469991 0.661704779 -0.32868734 1.40807736 0.681331813 -0.328786969 1.4385407 0.682008505 -0.308612555 1.4438976 0.676238954 -0.308754236 1.43984866 0.674723864 -0.308570921 1.35942137 0.680044413 -0.328368157 1.36021364 0.670111418 -0.318160295 1.36665964 0.670111418 -0.318160295 1.36665964 0.669231653 -0.331568182 1.37328649 0.665512562 -0.326704711 1.37709057 0.661409855 -0.308674932 1.37737894 0.665512562 -0.326704711 1.37709057 0.662579298 -0.331111044 1.38926136 0.659493506 -0.317724526 1.38870609 0.661409855 -0.308674932 1.37737894 0.662579298 -0.331111044 1.38926136 0.697190523 -0.328549594 1.44599831 0.697367013 -0.308530569 1.45019281 0.682008505 -0.308612555 1.4438976 0.661704779 -0.32868734 1.40807736 0.659183741 -0.30852443 1.41469991 0.657638133 -0.308717728 1.40839136 0.697190523 -0.328549594 1.44599831 0.7041471 -0.328946143 1.44716573 0.697367013 -0.308530569 1.45019281 0.664245903 -0.326224685 1.41843367 0.67048806 -0.331581533 1.42655671 0.663626909 -0.308443606 1.42485428 0.753514051 -0.3162359 1.35626495 0.747737885 -0.31491518 1.34985471 0.756501257 -0.314289093 1.35240722 0.7041471 -0.328946143 1.44716573 0.708501995 -0.308498234 1.45157266 0.697367013 -0.308530569 1.45019281 0.670022011 -0.308656335 1.4339056 0.674052894 -0.330693245 1.43137813 0.676238954 -0.308754236 1.43984866 0.676238954 -0.308754236 1.43984866 0.674052894 -0.330693245 1.43137813 0.681331813 -0.328786969 1.4385407 0.713922203 -0.328248948 1.4474498 0.718228877 -0.308553934 1.45083404 0.708501995 -0.308498234 1.45157266 0.737216949 -0.314970136 1.34464061 0.724920273 -0.316427946 1.34425426 0.725993991 -0.314533025 1.34161747 0.713922203 -0.328248948 1.4474498 0.72323364 -0.316766739 1.44823337 0.718228877 -0.308553934 1.45083404 0.688660741 -0.331471264 1.44193053 0.697190523 -0.328549594 1.44599831 0.682008505 -0.308612555 1.4438976 0.72323364 -0.316766739 1.44823337 0.726405382 -0.30853951 1.44877493 0.718228877 -0.308553934 1.45083404 0.708501995 -0.308498234 1.45157266 0.7041471 -0.328946143 1.44716573 0.713922203 -0.328248948 1.4474498 0.72323364 -0.316766739 1.44823337 0.727902532 -0.328223944 1.44398713 0.726405382 -0.30853951 1.44877493 0.737337589 -0.315962046 1.34596872 0.737216949 -0.314970136 1.34464061 0.747737885 -0.31491518 1.34985471 0.670111418 -0.318160295 1.36665964 0.665863752 -0.30853951 1.36945248 0.674723864 -0.308570921 1.35942137 0.670111418 -0.318160295 1.36665964 0.665512562 -0.326704711 1.37709057 0.665863752 -0.30853951 1.36945248 0.665512562 -0.326704711 1.37709057 0.661409855 -0.308674932 1.37737894 0.665863752 -0.30853951 1.36945248 0.659493506 -0.317724526 1.38870609 0.661790788 -0.331673801 1.40009177 0.656789601 -0.308523029 1.39969647 0.659493506 -0.317724526 1.38870609 0.657021046 -0.308507204 1.39410305 0.661409855 -0.308674932 1.37737894 0.659493506 -0.317724526 1.38870609 0.662579298 -0.331111044 1.38926136 0.661790788 -0.331673801 1.40009177 0.659493506 -0.317724526 1.38870609 0.656789601 -0.308523029 1.39969647 0.657021046 -0.308507204 1.39410305 0.67048806 -0.331581533 1.42655671 0.674052894 -0.330693245 1.43137813 0.670022011 -0.308656335 1.4339056 0.67048806 -0.331581533 1.42655671 0.670022011 -0.308656335 1.4339056 0.663626909 -0.308443606 1.42485428 0.733411252 -0.309136301 1.33617592 0.733016729 -0.314098626 1.33805203 0.713412523 -0.313864142 1.34419537 0.737216949 -0.314970136 1.34464061 0.725993991 -0.314533025 1.34161747 0.738278568 -0.314398557 1.3417722 0.713412523 -0.313864142 1.34419537 0.72103703 -0.308604419 1.3406471 0.733411252 -0.309136301 1.33617592 0.733016729 -0.314098626 1.33805203 0.742093801 -0.309092104 1.33639777 0.748394191 -0.31412828 1.34202719 0.733411252 -0.309136301 1.33617592 0.742093801 -0.309092104 1.33639777 0.733016729 -0.314098626 1.33805203 0.772994936 -0.309387088 1.36624742 0.766239882 -0.314098269 1.35801256 0.764693081 -0.309545249 1.35314 0.764693081 -0.309545249 1.35314 0.766239882 -0.314098269 1.35801256 0.760788262 -0.314197093 1.35148919 0.764693081 -0.309545249 1.35314 0.760788262 -0.314197093 1.35148919 0.757197142 -0.309537739 1.345649 0.748394191 -0.31412828 1.34202719 0.757197142 -0.309537739 1.345649 0.760788262 -0.314197093 1.35148919 0.777239382 -0.309171408 1.37899935 0.771866739 -0.314028442 1.36852908 0.772994936 -0.309387088 1.36624742 0.748394191 -0.31412828 1.34202719 0.742093801 -0.309092104 1.33639777 0.757197142 -0.309537739 1.345649 0.771866739 -0.314028442 1.36852908 0.766239882 -0.314098269 1.35801256 0.772994936 -0.309387088 1.36624742 0.777239382 -0.309171408 1.37899935 0.775116682 -0.314193934 1.38214409 0.771866739 -0.314028442 1.36852908 0.775116682 -0.314193934 1.38214409 0.777239382 -0.309171408 1.37899935 0.7761693 -0.308985174 1.38809109 0.768438339 -0.31491679 1.38332343 0.770057499 -0.314301789 1.38367677 0.766920507 -0.314630121 1.39904535 0.775116682 -0.314193934 1.38214409 0.7761693 -0.308985174 1.38809109 0.774291039 -0.314024895 1.38798368 0.764257789 -0.315953732 1.37206769 0.768438339 -0.31491679 1.38332343 0.767054379 -0.316360533 1.38463795 0.763972223 -0.313848466 1.40626633 0.7761693 -0.308985174 1.38809109 0.760487199 -0.308804363 1.4167372 0.763972223 -0.313848466 1.40626633 0.774291039 -0.314024895 1.38798368 0.7761693 -0.308985174 1.38809109 0.766920507 -0.314630121 1.39904535 0.763972223 -0.313848466 1.40626633 0.768438339 -0.31491679 1.38332343 0.761952519 -0.314934403 1.36463439 0.764910221 -0.314436585 1.36258936 0.768716455 -0.314435095 1.37047303 0.761952519 -0.314934403 1.36463439 0.768716455 -0.314435095 1.37047303 0.764257789 -0.315953732 1.37206769 </float_array>
          <technique_common>
            <accessor count="1080" offset="0" source="#mesh_0-positions-array" stride="3">
              <param name="X" type="float" />
              <param name="Y" type="float" />
              <param name="Z" type="float" />
            </accessor>
          </technique_common>
        </source>
        <vertices id="mesh_0-vertices">
          <input semantic="POSITION" source="#mesh_0-positions" />
        </vertices>
        <polylist count="360" material="defaultMaterial">
          <input offset="0" semantic="VERTEX" source="#mesh_0-vertices" />
          <vcount>3 3 3 3 3 3 3 3 3 3 3 3 3 3 3 3 3 3 3 3 3 3 3 3 3 3 3 3 3 3 3 3 3 3 3 3 3 3 3 3 3 3 3 3 3 3 3 3 3 3 3 3 3 3 3 3 3 3 3 3 3 3 3 3 3 3 3 3 3 3 3 3 3 3 3 3 3 3 3 3 3 3 3 3 3 3 3 3 3 3 3 3 3 3 3 3 3 3 3 3 3 3 3 3 3 3 3 3 3 3 3 3 3 3 3 3 3 3 3 3 3 3 3 3 3 3 3 3 3 3 3 3 3 3 3 3 3 3 3 3 3 3 3 3 3 3 3 3 3 3 3 3 3 3 3 3 3 3 3 3 3 3 3 3 3 3 3 3 3 3 3 3 3 3 3 3 3 3 3 3 3 3 3 3 3 3 3 3 3 3 3 3 3 3 3 3 3 3 3 3 3 3 3 3 3 3 3 3 3 3 3 3 3 3 3 3 3 3 3 3 3 3 3 3 3 3 3 3 3 3 3 3 3 3 3 3 3 3 3 3 3 3 3 3 3 3 3 3 3 3 3 3 3 3 3 3 3 3 3 3 3 3 3 3 3 3 3 3 3 3 3 3 3 3 3 3 3 3 3 3 3 3 3 3 3 3 3 3 3 3 3 3 3 3 3 3 3 3 3 3 3 3 3 3 3 3 3 3 3 3 3 3 3 3 3 3 3 3 3 3 3 3 3 3 3 3 3 3 3 3 3 3 3 3 3 3 3 3 3 3 3 3 3 3 3 3 3 3 3 3 3 3 3 3 3 3 3 3 3 3 </vcount>
          <p>0 1 2 3 4 5 6 7 8 9 10 11 12 13 14 15 16 17 18 19 20 21 22 23 24 25 26 27 28 29 30 31 32 33 34 35 36 37 38 39 40 41 42 43 44 45 46 47 48 49 50 51 52 53 54 55 56 57 58 59 60 61 62 63 64 65 66 67 68 69 70 71 72 73 74 75 76 77 78 79 80 81 82 83 84 85 86 87 88 89 90 91 92 93 94 95 96 97 98 99 100 101 102 103 104 105 106 107 108 109 110 111 112 113 114 115 116 117 118 119 120 121 122 123 124 125 126 127 128 129 130 131 132 133 134 135 136 137 138 139 140 141 142 143 144 145 146 147 148 149 150 151 152 153 154 155 156 157 158 159 160 161 162 163 164 165 166 167 168 169 170 171 172 173 174 175 176 177 178 179 180 181 182 183 184 185 186 187 188 189 190 191 192 193 194 195 196 197 198 199 200 201 202 203 204 205 206 207 208 209 210 211 212 213 214 215 216 217 218 219 220 221 222 223 224 225 226 227 228 229 230 231 232 233 234 235 236 237 238 239 240 241 242 243 244 245 246 247 248 249 250 251 252 253 254 255 256 257 258 259 260 261 262 263 264 265 266 267 268 269 270 271 272 273 274 275 276 277 278 279 280 281 282 283 284 285 286 287 288 289 290 291 292 293 294 295 296 297 298 299 300 301 302 303 304 305 306 307 308 309 310 311 312 313 314 315 316 317 318 319 320 321 322 323 324 325 326 327 328 329 330 331 332 333 334 335 336 337 338 339 340 341 342 343 344 345 346 347 348 349 350 351 352 353 354 355 356 357 358 359 360 361 362 363 364 365 366 367 368 369 370 371 372 373 374 375 376 377 378 379 380 381 382 383 384 385 386 387 388 389 390 391 392 393 394 395 396 397 398 399 400 401 402 403 404 405 406 407 408 409 410 411 412 413 414 415 416 417 418 419 420 421 422 423 424 425 426 427 428 429 430 431 432 433 434 435 436 437 438 439 440 441 442 443 444 445 446 447 448 449 450 451 452 453 454 455 456 457 458 459 460 461 462 463 464 465 466 467 468 469 470 471 472 473 474 475 476 477 478 479 480 481 482 483 484 485 486 487 488 489 490 491 492 493 494 495 496 497 498 499 500 501 502 503 504 505 506 507 508 509 510 511 512 513 514 515 516 517 518 519 520 521 522 523 524 525 526 527 528 529 530 531 532 533 534 535 536 537 538 539 540 541 542 543 544 545 546 547 548 549 550 551 552 553 554 555 556 557 558 559 560 561 562 563 564 565 566 567 568 569 570 571 572 573 574 575 576 577 578 579 580 581 582 583 584 585 586 587 588 589 590 591 592 593 594 595 596 597 598 599 600 601 602 603 604 605 606 607 608 609 610 611 612 613 614 615 616 617 618 619 620 621 622 623 624 625 626 627 628 629 630 631 632 633 634 635 636 637 638 639 640 641 642 643 644 645 646 647 648 649 650 651 652 653 654 655 656 657 658 659 660 661 662 663 664 665 666 667 668 669 670 671 672 673 674 675 676 677 678 679 680 681 682 683 684 685 686 687 688 689 690 691 692 693 694 695 696 697 698 699 700 701 702 703 704 705 706 707 708 709 710 711 712 713 714 715 716 717 718 719 720 721 722 723 724 725 726 727 728 729 730 731 732 733 734 735 736 737 738 739 740 741 742 743 744 745 746 747 748 749 750 751 752 753 754 755 756 757 758 759 760 761 762 763 764 765 766 767 768 769 770 771 772 773 774 775 776 777 778 779 780 781 782 783 784 785 786 787 788 789 790 791 792 793 794 795 796 797 798 799 800 801 802 803 804 805 806 807 808 809 810 811 812 813 814 815 816 817 818 819 820 821 822 823 824 825 826 827 828 829 830 831 832 833 834 835 836 837 838 839 840 841 842 843 844 845 846 847 848 849 850 851 852 853 854 855 856 857 858 859 860 861 862 863 864 865 866 867 868 869 870 871 872 873 874 875 876 877 878 879 880 881 882 883 884 885 886 887 888 889 890 891 892 893 894 895 896 897 898 899 900 901 902 903 904 905 906 907 908 909 910 911 912 913 914 915 916 917 918 919 920 921 922 923 924 925 926 927 928 929 930 931 932 933 934 935 936 937 938 939 940 941 942 943 944 945 946 947 948 949 950 951 952 953 954 955 956 957 958 959 960 961 962 963 964 965 966 967 968 969 970 971 972 973 974 975 976 977 978 979 980 981 982 983 984 985 986 987 988 989 990 991 992 993 994 995 996 997 998 999 1000 1001 1002 1003 1004 1005 1006 1007 1008 1009 1010 1011 1012 1013 1014 1015 1016 1017 1018 1019 1020 1021 1022 1023 1024 1025 1026 1027 1028 1029 1030 1031 1032 1033 1034 1035 1036 1037 1038 1039 1040 1041 1042 1043 1044 1045 1046 1047 1048 1049 1050 1051 1052 1053 1054 1055 1056 1057 1058 1059 1060 1061 1062 1063 1064 1065 1066 1067 1068 1069 1070 1071 1072 1073 1074 1075 1076 1077 1078 1079 </p>
        </polylist>
      </mesh>
    </geometry>
  </library_geometries>
  <library_controllers>
  </library_controllers>
  <library_visual_scenes>
    <visual_scene id="Scene" name="Scene">
      <node id="node" name="" type="NODE">
        <matrix sid="matrix">1 0 0 0 0 1 0 0 0 0 1 0 0 0 0 1</matrix>
        <instance_geometry url="#mesh_0">
          <bind_material>
            <technique_common>
              <instance_material symbol="defaultMaterial" target="#material_0">
              </instance_material>
            </technique_common>
          </bind_material>
        </instance_geometry>
      </node>
    </visual_scene>
  </library_visual_scenes>
  <scene>
    <instance_visual_scene url="#Scene" />
  </scene>
</COLLADA>
