<?xml version="1.0" encoding="UTF-8" standalone="no" ?>
<COLLADA xmlns="http://www.collada.org/2005/11/COLLADASchema" version="1.4.1">
  <asset>
    <contributor>
      <author>Assimp</author>
      <authoring_tool>Assimp Exporter</authoring_tool>
    </contributor>
    <created>2026-04-22T16:09:44</created>
    <modified>2026-04-22T16:09:44</modified>
    <unit name="meter" meter="1" />
    <up_axis>Y_UP</up_axis>
  </asset>
  <library_images>
  </library_images>
  <library_effects>
    <effect id="material_0-fx" name="">
      <profile_COMMON>
        <technique sid="standard">
          <phong>
            <emission>
              <color sid="emission">0   0   0   -1.87499988</color>
            </emission>
            <ambient>
              <color sid="ambient">0.100000001   0.100000001   0.100000001   -1.29087281</color>
            </ambient>
            <diffuse>
              <color sid="diffuse">0.100000001   0.100000001   0.100000001   -1.29087281</color>
            </diffuse>
            <specular>
              <color sid="specular">0.300000012   0.300000012   0.300000012   0.610321581</color>
            </specular>
          </phong>
        </technique>
      </profile_COMMON>
    </effect>
  </library_effects>
  <library_materials>
    <material id="material_0" name="">
      <instance_effect url="#material_0-fx"/>
    </material>
  </library_materials>
  <library_geometries>
    <geometry id="mesh_0" name="" >
      <mesh>
        <source id="mesh_0-positions" name="mesh_0-positions">
          <float_array id="mesh_0-positions-array" count="2358"> 0.701328814 -0.240618527 1.57548022 0.696665645 -0.234710157 1.57462919 0.701800942 -0.240148351 1.57312799 0.696665645 -0.234710157 1.57462919 0.696351707 -0.235021949 1.57283092 0.701800942 -0.240148351 1.57312799 0.696351707 -0.235021949 1.57283092 0.695325971 -0.236051306 1.57227588 0.701800942 -0.240148351 1.57312799 0.701800942 -0.240148351 1.57312799 0.695325971 -0.236051306 1.57227588 0.700113118 -0.241835564 1.57260931 0.695544422 -0.235830918 1.57580781 0.696665645 -0.234710157 1.57462919 0.701328814 -0.240618527 1.57548022 0.696880817 -0.23443532 1.57377422 0.69589895 -0.233358949 1.57362199 0.696443379 -0.234876081 1.57249093 0.69589895 -0.233358949 1.57362199 0.695136249 -0.234126702 1.57206082 0.696443379 -0.234876081 1.57249093 0.69489193 -0.23641935 1.57605171 0.694880486 -0.234364301 1.57616413 0.695896983 -0.235417143 1.57602572 0.696443379 -0.234876081 1.57249093 0.695136249 -0.234126702 1.57206082 0.695415199 -0.235903174 1.57192469 0.695896983 -0.235417143 1.57602572 0.694880486 -0.234364301 1.57616413 0.696686447 -0.234619766 1.57516372 0.694880486 -0.234364301 1.57616413 0.695764303 -0.233488351 1.57496536 0.696686447 -0.234619766 1.57516372 0.696686447 -0.234619766 1.57516372 0.695764303 -0.233488351 1.57496536 0.696880817 -0.23443532 1.57377422 0.695764303 -0.233488351 1.57496536 0.69589895 -0.233358949 1.57362199 0.696880817 -0.23443532 1.57377422 0.697442889 -0.233866766 1.57504857 0.697505534 -0.233802795 1.5733403 0.696498871 -0.232748136 1.57376409 0.697442889 -0.233866766 1.57504857 0.696498871 -0.232748136 1.57376409 0.696104288 -0.23313874 1.57577395 0.696672142 -0.234641775 1.5714916 0.694114387 -0.235126257 1.5710727 0.6956864 -0.233544067 1.57163095 0.696672142 -0.234641775 1.5714916 0.69503659 -0.236276478 1.57101119 0.694114387 -0.235126257 1.5710727 0.696663499 -0.234646827 1.57654631 0.697442889 -0.233866766 1.57504857 0.696104288 -0.23313874 1.57577395 0.696663499 -0.234646827 1.57654631 0.696104288 -0.23313874 1.57577395 0.695061386 -0.234196857 1.57687414 0.695388079 -0.235916749 1.57709932 0.696663499 -0.234646827 1.57654631 0.695061386 -0.234196857 1.57687414 0.695388079 -0.235916749 1.57709932 0.695061386 -0.234196857 1.57687414 0.693643272 -0.235601112 1.57689071 0.697505534 -0.233802795 1.5733403 0.696672142 -0.234641775 1.5714916 0.6956864 -0.233544067 1.57163095 0.697505534 -0.233802795 1.5733403 0.6956864 -0.233544067 1.57163095 0.696498871 -0.232748136 1.57376409 0.700534403 -0.244238764 1.57178164 0.69866699 -0.246015295 1.56532574 0.700500965 -0.244208857 1.5652982 0.700534403 -0.244238764 1.57178164 0.697089434 -0.247594893 1.5662725 0.69866699 -0.246015295 1.56532574 0.695948124 -0.248717979 1.56872237 0.697089434 -0.247594893 1.5662725 0.700534403 -0.244238764 1.57178164 0.695904255 -0.24879241 1.57176912 0.695948124 -0.248717979 1.56872237 0.700534403 -0.244238764 1.57178164 0.695864379 -0.248768732 1.582775 0.695899189 -0.248793483 1.5763129 0.700536728 -0.24422352 1.57629228 0.695864379 -0.248768732 1.582775 0.700536728 -0.24422352 1.57629228 0.700487256 -0.24420999 1.5827955 0.703734338 -0.241038904 1.57178402 0.703709364 -0.241000608 1.56530058 0.70609659 -0.238546163 1.56544459 0.703734338 -0.241038904 1.57178402 0.70609659 -0.238546163 1.56544459 0.707634926 -0.237078786 1.56713188 0.703734338 -0.241038904 1.57178402 0.707634926 -0.237078786 1.56713188 0.708243012 -0.236428007 1.56911063 0.703734338 -0.241038904 1.57178402 0.708243012 -0.236428007 1.56911063 0.70828867 -0.23640728 1.5717783 0.703702092 -0.240998715 1.58279717 0.703712046 -0.241045877 1.57629108 0.708287477 -0.236408025 1.57632625 0.703702092 -0.240998715 1.58279717 0.708287477 -0.236408025 1.57632625 0.708251595 -0.23635833 1.58278573 0.694738388 -0.247702211 1.57404029 0.695948124 -0.248717979 1.56872237 0.695904255 -0.24879241 1.57176912 0.694738388 -0.247702211 1.57404029 0.68925482 -0.242181256 1.56846595 0.695948124 -0.248717979 1.56872237 0.689167023 -0.242309883 1.58294678 0.68925482 -0.242181256 1.56846595 0.694738388 -0.247702211 1.57404029 0.695899189 -0.248793483 1.5763129 0.689167023 -0.242309883 1.58294678 0.694738388 -0.247702211 1.57404029 0.695864379 -0.248768732 1.582775 0.689167023 -0.242309883 1.58294678 0.695899189 -0.248793483 1.5763129 0.70719713 -0.235251948 1.57404959 0.70828867 -0.23640728 1.5717783 0.708243012 -0.236428007 1.56911063 0.701759875 -0.229684874 1.56914687 0.70719713 -0.235251948 1.57404959 0.708243012 -0.236428007 1.56911063 0.701797009 -0.229679197 1.58295619 0.708287477 -0.236408025 1.57632625 0.70719713 -0.235251948 1.57404959 0.701797009 -0.229679197 1.58295619 0.708251595 -0.23635833 1.58278573 0.708287477 -0.236408025 1.57632625 0.701797009 -0.229679197 1.58295619 0.70719713 -0.235251948 1.57404959 0.701759875 -0.229684874 1.56914687 0.700534403 -0.244238764 1.57178164 0.700500965 -0.244208857 1.5652982 0.700977147 -0.241476625 1.56524086 0.701021075 -0.241527185 1.57404494 0.700534403 -0.244238764 1.57178164 0.700977147 -0.241476625 1.56524086 0.700964034 -0.241476759 1.58284843 0.700487256 -0.24420999 1.5827955 0.700536728 -0.24422352 1.57629228 0.700964034 -0.241476759 1.58284843 0.700536728 -0.24422352 1.57629228 0.701021075 -0.241527185 1.57404494 0.703734338 -0.241038904 1.57178402 0.701021075 -0.241527185 1.57404494 0.700977147 -0.241476625 1.56524086 0.703734338 -0.241038904 1.57178402 0.700977147 -0.241476625 1.56524086 0.703709364 -0.241000608 1.56530058 0.700964034 -0.241476759 1.58284843 0.701021075 -0.241527185 1.57404494 0.703712046 -0.241045877 1.57629108 0.703702092 -0.240998715 1.58279717 0.700964034 -0.241476759 1.58284843 0.703712046 -0.241045877 1.57629108 0.701797009 -0.229679197 1.58295619 0.703702092 -0.240998715 1.58279717 0.708251595 -0.23635833 1.58278573 0.700964034 -0.241476759 1.58284843 0.703702092 -0.240998715 1.58279717 0.701797009 -0.229679197 1.58295619 0.689167023 -0.242309883 1.58294678 0.700487256 -0.24420999 1.5827955 0.700964034 -0.241476759 1.58284843 0.689167023 -0.242309883 1.58294678 0.695864379 -0.248768732 1.582775 0.700487256 -0.24420999 1.5827955 0.689167023 -0.242309883 1.58294678 0.700964034 -0.241476759 1.58284843 0.701797009 -0.229679197 1.58295619 0.700977147 -0.241476625 1.56524086 0.692122698 -0.239310741 1.56513941 0.699240565 -0.232187718 1.56522524 0.700977147 -0.241476625 1.56524086 0.699240565 -0.232187718 1.56522524 0.70609659 -0.238546163 1.56544459 0.700977147 -0.241476625 1.56524086 0.70609659 -0.238546163 1.56544459 0.703709364 -0.241000608 1.56530058 0.69866699 -0.246015295 1.56532574 0.700977147 -0.241476625 1.56524086 0.700500965 -0.244208857 1.5652982 0.69866699 -0.246015295 1.56532574 0.692122698 -0.239310741 1.56513941 0.700977147 -0.241476625 1.56524086 0.697442889 -0.233866766 1.57504857 0.697351038 -0.234030291 1.57710421 0.698215723 -0.233143225 1.57479012 0.697442889 -0.233866766 1.57504857 0.696663499 -0.234646827 1.57654631 0.697351038 -0.234030291 1.57710421 0.68925482 -0.242181256 1.56846595 0.690132022 -0.241234317 1.57478726 0.690129757 -0.24123767 1.57328415 0.693890393 -0.237484246 1.57066536 0.693602026 -0.237707019 1.57224202 0.69503659 -0.236276478 1.57101119 0.699240565 -0.232187718 1.56522524 0.700572193 -0.230808288 1.56835651 0.701022029 -0.230405211 1.5668546 0.690124452 -0.241239786 1.58153093 0.689167023 -0.242309883 1.58294678 0.694892585 -0.236470118 1.5815388 0.699240565 -0.232187718 1.56522524 0.698953152 -0.232421249 1.56660652 0.700572193 -0.230808288 1.56835651 0.690132022 -0.241234317 1.57478726 0.689167023 -0.242309883 1.58294678 0.690124452 -0.241239786 1.58153093 0.68925482 -0.242181256 1.56846595 0.689167023 -0.242309883 1.58294678 0.690132022 -0.241234317 1.57478726 0.689167023 -0.242309883 1.58294678 0.701797009 -0.229679197 1.58295619 0.694892585 -0.236470118 1.5815388 0.694892585 -0.236470118 1.5815388 0.701797009 -0.229679197 1.58295619 0.69596076 -0.235402942 1.58154058 0.700724781 -0.230639815 1.58154404 0.701797009 -0.229679197 1.58295619 0.700731337 -0.230635613 1.57479894 0.700731337 -0.230635613 1.57479894 0.701797009 -0.229679197 1.58295619 0.701759875 -0.229684874 1.56914687 0.701022029 -0.230405211 1.5668546 0.700572193 -0.230808288 1.56835651 0.701759875 -0.229684874 1.56914687 0.693890393 -0.237484246 1.57066536 0.693001747 -0.238377959 1.57198322 0.693602026 -0.237707019 1.57224202 0.690609396 -0.240822479 1.56593537 0.690227032 -0.241144538 1.56871116 0.691662908 -0.23972097 1.56668329 0.700572193 -0.230808288 1.56835651 0.700729012 -0.230638787 1.57329643 0.701759875 -0.229684874 1.56914687 0.699240565 -0.232187718 1.56522524 0.695968747 -0.235402808 1.56654501 0.698953152 -0.232421249 1.56660652 0.690609396 -0.240822479 1.56593537 0.68925482 -0.242181256 1.56846595 0.690227032 -0.241144538 1.56871116 0.695388079 -0.235916749 1.57709932 0.697351038 -0.234030291 1.57710421 0.696663499 -0.234646827 1.57654631 0.693001747 -0.238377959 1.57198322 0.692660451 -0.238713995 1.5733062 0.693602026 -0.237707019 1.57224202 0.695388079 -0.235916749 1.57709932 0.695946932 -0.235422239 1.57796216 0.697351038 -0.234030291 1.57710421 0.693602026 -0.237707019 1.57224202 0.692660451 -0.238713995 1.5733062 0.693254709 -0.23805733 1.57438743 0.699240565 -0.232187718 1.56522524 0.6949054 -0.236465573 1.56654906 0.695968747 -0.235402808 1.56654501 0.700729012 -0.230638787 1.57329643 0.700731337 -0.230635613 1.57479894 0.701759875 -0.229684874 1.56914687 0.692660451 -0.238713995 1.5733062 0.692659318 -0.238713712 1.57477319 0.693254709 -0.23805733 1.57438743 0.695388079 -0.235916749 1.57709932 0.694912791 -0.236459151 1.57796466 0.695946932 -0.235422239 1.57796216 0.693932295 -0.237377673 1.57636523 0.6939798 -0.237396926 1.5774858 0.695388079 -0.235916749 1.57709932 0.695388079 -0.235916749 1.57709932 0.6939798 -0.237396926 1.5774858 0.694912791 -0.236459151 1.57796466 0.692659318 -0.238713712 1.57477319 0.693045318 -0.238326237 1.5762254 0.693254709 -0.23805733 1.57438743 0.699240565 -0.232187718 1.56522524 0.692122698 -0.239310741 1.56513941 0.6949054 -0.236465573 1.56654906 0.6949054 -0.236465573 1.56654906 0.695954978 -0.235420734 1.57011926 0.695968747 -0.235402808 1.56654501 0.700729012 -0.230638787 1.57329643 0.698208332 -0.233165711 1.57331049 0.700731337 -0.230635613 1.57479894 0.693254709 -0.23805733 1.57438743 0.693045318 -0.238326237 1.5762254 0.693932295 -0.237377673 1.57636523 0.696892977 -0.234487653 1.57059801 0.696672142 -0.234641775 1.5714916 0.697821617 -0.233552545 1.57185829 0.693932295 -0.237377673 1.57636523 0.693045318 -0.238326237 1.5762254 0.6939798 -0.237396926 1.5774858 0.700724781 -0.230639815 1.58154404 0.69596076 -0.235402942 1.58154058 0.701797009 -0.229679197 1.58295619 0.692660451 -0.238713995 1.5733062 0.690129757 -0.24123767 1.57328415 0.692659318 -0.238713712 1.57477319 0.696672142 -0.234641775 1.5714916 0.697505534 -0.233802795 1.5733403 0.697821617 -0.233552545 1.57185829 0.68925482 -0.242181256 1.56846595 0.690129757 -0.24123767 1.57328415 0.690227032 -0.241144538 1.56871116 0.695954978 -0.235420734 1.57011926 0.696672142 -0.234641775 1.5714916 0.696892977 -0.234487653 1.57059801 0.697821617 -0.233552545 1.57185829 0.697505534 -0.233802795 1.5733403 0.698208332 -0.233165711 1.57331049 0.692122698 -0.239310741 1.56513941 0.691662908 -0.23972097 1.56668329 0.6949054 -0.236465573 1.56654906 0.695954978 -0.235420734 1.57011926 0.69503659 -0.236276478 1.57101119 0.696672142 -0.234641775 1.5714916 0.694912791 -0.236459151 1.57796466 0.694892585 -0.236470118 1.5815388 0.695946932 -0.235422239 1.57796216 0.6949054 -0.236465573 1.56654906 0.694917917 -0.236458376 1.57011831 0.695954978 -0.235420734 1.57011926 0.695946932 -0.235422239 1.57796216 0.694892585 -0.236470118 1.5815388 0.69596076 -0.235402942 1.58154058 0.698208332 -0.233165711 1.57331049 0.698215723 -0.233143225 1.57479012 0.700731337 -0.230635613 1.57479894 0.698208332 -0.233165711 1.57331049 0.697505534 -0.233802795 1.5733403 0.698215723 -0.233143225 1.57479012 0.694917917 -0.236458376 1.57011831 0.69503659 -0.236276478 1.57101119 0.695954978 -0.235420734 1.57011926 0.690129757 -0.24123767 1.57328415 0.690132022 -0.241234317 1.57478726 0.692659318 -0.238713712 1.57477319 0.697505534 -0.233802795 1.5733403 0.697442889 -0.233866766 1.57504857 0.698215723 -0.233143225 1.57479012 0.690609396 -0.240822479 1.56593537 0.691662908 -0.23972097 1.56668329 0.692122698 -0.239310741 1.56513941 0.693890393 -0.237484246 1.57066536 0.69503659 -0.236276478 1.57101119 0.694917917 -0.236458376 1.57011831 0.68925482 -0.242181256 1.56846595 0.690609396 -0.240822479 1.56593537 0.697089434 -0.247594893 1.5662725 0.68925482 -0.242181256 1.56846595 0.697089434 -0.247594893 1.5662725 0.695948124 -0.248717979 1.56872237 0.690609396 -0.240822479 1.56593537 0.69866699 -0.246015295 1.56532574 0.697089434 -0.247594893 1.5662725 0.690609396 -0.240822479 1.56593537 0.692122698 -0.239310741 1.56513941 0.69866699 -0.246015295 1.56532574 0.701022029 -0.230405211 1.5668546 0.707634926 -0.237078786 1.56713188 0.70609659 -0.238546163 1.56544459 0.699240565 -0.232187718 1.56522524 0.701022029 -0.230405211 1.5668546 0.70609659 -0.238546163 1.56544459 0.701759875 -0.229684874 1.56914687 0.708243012 -0.236428007 1.56911063 0.707634926 -0.237078786 1.56713188 0.701022029 -0.230405211 1.5668546 0.701759875 -0.229684874 1.56914687 0.707634926 -0.237078786 1.56713188 0.690132022 -0.241234317 1.57478726 0.695863962 -0.24674575 1.58136833 0.695870042 -0.246743992 1.57496071 0.690124452 -0.241239786 1.58153093 0.695863962 -0.24674575 1.58136833 0.690132022 -0.241234317 1.57478726 0.692659318 -0.238713712 1.57477319 0.695870042 -0.246743992 1.57496071 0.698149502 -0.244475946 1.57500172 0.690132022 -0.241234317 1.57478726 0.695870042 -0.246743992 1.57496071 0.692659318 -0.238713712 1.57477319 0.70040673 -0.242207393 1.57811987 0.694912791 -0.236459151 1.57796466 0.6939798 -0.237396926 1.5774858 0.699170351 -0.243461922 1.57733011 0.70040673 -0.242207393 1.57811987 0.6939798 -0.237396926 1.5774858 0.699170351 -0.243461922 1.57733011 0.6939798 -0.237396926 1.5774858 0.693045318 -0.238326237 1.5762254 0.698149502 -0.244475946 1.57500172 0.699170351 -0.243461922 1.57733011 0.693045318 -0.238326237 1.5762254 0.698149502 -0.244475946 1.57500172 0.693045318 -0.238326237 1.5762254 0.692659318 -0.238713712 1.57477319 0.700401187 -0.242208242 1.5813719 0.694912791 -0.236459151 1.57796466 0.70040673 -0.242207393 1.57811987 0.700401187 -0.242208242 1.5813719 0.694892585 -0.236470118 1.5815388 0.694912791 -0.236459151 1.57796466 0.695863962 -0.24674575 1.58136833 0.690124452 -0.241239786 1.58153093 0.700401187 -0.242208242 1.5813719 0.700401187 -0.242208242 1.5813719 0.690124452 -0.241239786 1.58153093 0.694892585 -0.236470118 1.5815388 0.699170351 -0.243461922 1.57733011 0.700401187 -0.242208242 1.5813719 0.70040673 -0.242207393 1.57811987 0.695863962 -0.24674575 1.58136833 0.700401187 -0.242208242 1.5813719 0.699170351 -0.243461922 1.57733011 0.695870042 -0.246743992 1.57496071 0.699170351 -0.243461922 1.57733011 0.698149502 -0.244475946 1.57500172 0.695870042 -0.246743992 1.57496071 0.695863962 -0.24674575 1.58136833 0.699170351 -0.243461922 1.57733011 0.706233978 -0.23637481 1.58137691 0.69596076 -0.235402942 1.58154058 0.700724781 -0.230639815 1.58154404 0.701697171 -0.240912706 1.58137262 0.69596076 -0.235402942 1.58154058 0.706233978 -0.23637481 1.58137691 0.695946932 -0.235422239 1.57796216 0.701697171 -0.240912706 1.58137262 0.701694727 -0.240917146 1.57811868 0.69596076 -0.235402942 1.58154058 0.701697171 -0.240912706 1.58137262 0.695946932 -0.235422239 1.57796216 0.703221381 -0.239422694 1.57709002 0.698215723 -0.233143225 1.57479012 0.697351038 -0.234030291 1.57710421 0.703221381 -0.239422694 1.57709002 0.703933835 -0.238679737 1.57495725 0.698215723 -0.233143225 1.57479012 0.701694727 -0.240917146 1.57811868 0.697351038 -0.234030291 1.57710421 0.695946932 -0.235422239 1.57796216 0.701694727 -0.240917146 1.57811868 0.703221381 -0.239422694 1.57709002 0.697351038 -0.234030291 1.57710421 0.698215723 -0.233143225 1.57479012 0.706237733 -0.236375064 1.57496905 0.700731337 -0.230635613 1.57479894 0.698215723 -0.233143225 1.57479012 0.703933835 -0.238679737 1.57495725 0.706237733 -0.236375064 1.57496905 0.706233978 -0.23637481 1.58137691 0.700731337 -0.230635613 1.57479894 0.706237733 -0.236375064 1.57496905 0.706233978 -0.23637481 1.58137691 0.700724781 -0.230639815 1.58154404 0.700731337 -0.230635613 1.57479894 0.703221381 -0.239422694 1.57709002 0.701697171 -0.240912706 1.58137262 0.706233978 -0.23637481 1.58137691 0.703221381 -0.239422694 1.57709002 0.706233978 -0.23637481 1.58137691 0.706237733 -0.236375064 1.57496905 0.701694727 -0.240917146 1.57811868 0.701697171 -0.240912706 1.58137262 0.703221381 -0.239422694 1.57709002 0.703933835 -0.238679737 1.57495725 0.703221381 -0.239422694 1.57709002 0.706237733 -0.236375064 1.57496905 0.706114709 -0.236517996 1.5686065 0.700572193 -0.230808288 1.56835651 0.704665422 -0.237966627 1.56681919 0.700572193 -0.230808288 1.56835651 0.698953152 -0.232421249 1.56660652 0.704665422 -0.237966627 1.56681919 0.706238568 -0.23637417 1.57312894 0.700572193 -0.230808288 1.56835651 0.706114709 -0.236517996 1.5686065 0.706238568 -0.23637417 1.57312894 0.700729012 -0.230638787 1.57329643 0.700572193 -0.230808288 1.56835651 0.706238568 -0.23637417 1.57312894 0.698208332 -0.233165711 1.57331049 0.700729012 -0.230638787 1.57329643 0.703970671 -0.238656297 1.57308805 0.698208332 -0.233165711 1.57331049 0.706238568 -0.23637417 1.57312894 0.701703966 -0.240915179 1.56996989 0.695954978 -0.235420734 1.57011926 0.696892977 -0.234487653 1.57059801 0.70295912 -0.23967883 1.57075942 0.701703966 -0.240915179 1.56996989 0.696892977 -0.234487653 1.57059801 0.70295912 -0.23967883 1.57075942 0.696892977 -0.234487653 1.57059801 0.697821617 -0.233552545 1.57185829 0.703970671 -0.238656297 1.57308805 0.70295912 -0.23967883 1.57075942 0.697821617 -0.233552545 1.57185829 0.703970671 -0.238656297 1.57308805 0.697821617 -0.233552545 1.57185829 0.698208332 -0.233165711 1.57331049 0.695954978 -0.235420734 1.57011926 0.70170629 -0.2409105 1.56671715 0.695968747 -0.235402808 1.56654501 0.695954978 -0.235420734 1.57011926 0.701703966 -0.240915179 1.56996989 0.70170629 -0.2409105 1.56671715 0.698953152 -0.232421249 1.56660652 0.70170629 -0.2409105 1.56671715 0.704665422 -0.237966627 1.56681919 0.695968747 -0.235402808 1.56654501 0.70170629 -0.2409105 1.56671715 0.698953152 -0.232421249 1.56660652 0.703970671 -0.238656297 1.57308805 0.706238568 -0.23637417 1.57312894 0.706114709 -0.236517996 1.5686065 0.70295912 -0.23967883 1.57075942 0.703970671 -0.238656297 1.57308805 0.706114709 -0.236517996 1.5686065 0.704665422 -0.237966627 1.56681919 0.70295912 -0.23967883 1.57075942 0.706114709 -0.236517996 1.5686065 0.704665422 -0.237966627 1.56681919 0.701703966 -0.240915179 1.56996989 0.70295912 -0.23967883 1.57075942 0.70170629 -0.2409105 1.56671715 0.701703966 -0.240915179 1.56996989 0.704665422 -0.237966627 1.56681919 0.696406245 -0.246252716 1.56787241 0.690227032 -0.241144538 1.56871116 0.69589287 -0.246732861 1.56945968 0.69757992 -0.245044813 1.56677878 0.691662908 -0.23972097 1.56668329 0.696406245 -0.246252716 1.56787241 0.691662908 -0.23972097 1.56668329 0.690227032 -0.241144538 1.56871116 0.696406245 -0.246252716 1.56787241 0.691662908 -0.23972097 1.56668329 0.700410545 -0.242205456 1.56671751 0.6949054 -0.236465573 1.56654906 0.691662908 -0.23972097 1.56668329 0.69757992 -0.245044813 1.56677878 0.700410545 -0.242205456 1.56671751 0.700410545 -0.242205456 1.56671751 0.694917917 -0.236458376 1.57011831 0.6949054 -0.236465573 1.56654906 0.700384617 -0.242243871 1.56992936 0.694917917 -0.236458376 1.57011831 0.700410545 -0.242205456 1.56671751 0.698174119 -0.244443178 1.5731293 0.692660451 -0.238713995 1.5733062 0.693001747 -0.238377959 1.57198322 0.698742449 -0.243895024 1.5713675 0.698174119 -0.244443178 1.5731293 0.693001747 -0.238377959 1.57198322 0.698742449 -0.243895024 1.5713675 0.693001747 -0.238377959 1.57198322 0.693890393 -0.237484246 1.57066536 0.700384617 -0.242243871 1.56992936 0.698742449 -0.243895024 1.5713675 0.693890393 -0.237484246 1.57066536 0.700384617 -0.242243871 1.56992936 0.693890393 -0.237484246 1.57066536 0.694917917 -0.236458376 1.57011831 0.695869505 -0.246743843 1.57312095 0.692660451 -0.238713995 1.5733062 0.698174119 -0.244443178 1.5731293 0.695869505 -0.246743843 1.57312095 0.690129757 -0.24123767 1.57328415 0.692660451 -0.238713995 1.5733062 0.690227032 -0.241144538 1.56871116 0.695869505 -0.246743843 1.57312095 0.69589287 -0.246732861 1.56945968 0.690129757 -0.24123767 1.57328415 0.695869505 -0.246743843 1.57312095 0.690227032 -0.241144538 1.56871116 0.69757992 -0.245044813 1.56677878 0.698742449 -0.243895024 1.5713675 0.700384617 -0.242243871 1.56992936 0.69757992 -0.245044813 1.56677878 0.700384617 -0.242243871 1.56992936 0.700410545 -0.242205456 1.56671751 0.69589287 -0.246732861 1.56945968 0.698174119 -0.244443178 1.5731293 0.698742449 -0.243895024 1.5713675 0.69589287 -0.246732861 1.56945968 0.695869505 -0.246743843 1.57312095 0.698174119 -0.244443178 1.5731293 0.696406245 -0.246252716 1.56787241 0.69589287 -0.246732861 1.56945968 0.698742449 -0.243895024 1.5713675 0.696406245 -0.246252716 1.56787241 0.698742449 -0.243895024 1.5713675 0.69757992 -0.245044813 1.56677878 0.694880486 -0.234364301 1.57616413 0.696104288 -0.23313874 1.57577395 0.695764303 -0.233488351 1.57496536 0.695764303 -0.233488351 1.57496536 0.696104288 -0.23313874 1.57577395 0.696498871 -0.232748136 1.57376409 0.694880486 -0.234364301 1.57616413 0.695061386 -0.234196857 1.57687414 0.696104288 -0.23313874 1.57577395 0.69589895 -0.233358949 1.57362199 0.695764303 -0.233488351 1.57496536 0.696498871 -0.232748136 1.57376409 0.694880486 -0.234364301 1.57616413 0.693643272 -0.235601112 1.57689071 0.695061386 -0.234196857 1.57687414 0.693677366 -0.235576868 1.57597435 0.693643272 -0.235601112 1.57689071 0.694880486 -0.234364301 1.57616413 0.69589895 -0.233358949 1.57362199 0.696498871 -0.232748136 1.57376409 0.6956864 -0.233544067 1.57163095 0.692954242 -0.236288145 1.57495427 0.693643272 -0.235601112 1.57689071 0.693677366 -0.235576868 1.57597435 0.692716122 -0.236540198 1.57586086 0.693643272 -0.235601112 1.57689071 0.692954242 -0.236288145 1.57495427 0.695136249 -0.234126702 1.57206082 0.69589895 -0.233358949 1.57362199 0.6956864 -0.233544067 1.57163095 0.69224751 -0.236994728 1.57439494 0.692716122 -0.236540198 1.57586086 0.692954242 -0.236288145 1.57495427 0.694114387 -0.235126257 1.5710727 0.693789184 -0.235462502 1.5720216 0.695136249 -0.234126702 1.57206082 0.694114387 -0.235126257 1.5710727 0.695136249 -0.234126702 1.57206082 0.6956864 -0.233544067 1.57163095 0.69224751 -0.236994728 1.57439494 0.692954242 -0.236288145 1.57495427 0.692938089 -0.236343816 1.57321572 0.692724705 -0.236536101 1.57208478 0.69224751 -0.236994728 1.57439494 0.692938089 -0.236343816 1.57321572 0.694114387 -0.235126257 1.5710727 0.692938089 -0.236343816 1.57321572 0.693789184 -0.235462502 1.5720216 0.692724705 -0.236536101 1.57208478 0.692938089 -0.236343816 1.57321572 0.694114387 -0.235126257 1.5710727 0.693602026 -0.237707019 1.57224202 0.693254709 -0.23805733 1.57438743 0.69224751 -0.236994728 1.57439494 0.693602026 -0.237707019 1.57224202 0.69224751 -0.236994728 1.57439494 0.692724705 -0.236536101 1.57208478 0.693932295 -0.237377673 1.57636523 0.695388079 -0.235916749 1.57709932 0.693643272 -0.235601112 1.57689071 0.69503659 -0.236276478 1.57101119 0.693602026 -0.237707019 1.57224202 0.692724705 -0.236536101 1.57208478 0.693932295 -0.237377673 1.57636523 0.693643272 -0.235601112 1.57689071 0.692716122 -0.236540198 1.57586086 0.69503659 -0.236276478 1.57101119 0.692724705 -0.236536101 1.57208478 0.694114387 -0.235126257 1.5710727 0.693932295 -0.237377673 1.57636523 0.692716122 -0.236540198 1.57586086 0.69224751 -0.236994728 1.57439494 0.693254709 -0.23805733 1.57438743 0.693932295 -0.237377673 1.57636523 0.69224751 -0.236994728 1.57439494 0.693890154 -0.237443358 1.57447648 0.692954242 -0.236288145 1.57495427 0.69489193 -0.23641935 1.57605171 0.695136249 -0.234126702 1.57206082 0.693789184 -0.235462502 1.5720216 0.695415199 -0.235903174 1.57192469 0.692954242 -0.236288145 1.57495427 0.693677366 -0.235576868 1.57597435 0.69489193 -0.23641935 1.57605171 0.695415199 -0.235903174 1.57192469 0.693789184 -0.235462502 1.5720216 0.694383383 -0.236936018 1.57247341 0.693677366 -0.235576868 1.57597435 0.694880486 -0.234364301 1.57616413 0.69489193 -0.23641935 1.57605171 0.693789184 -0.235462502 1.5720216 0.692938089 -0.236343816 1.57321572 0.694383383 -0.236936018 1.57247341 0.694383383 -0.236936018 1.57247341 0.692938089 -0.236343816 1.57321572 0.693890154 -0.237443358 1.57447648 0.692938089 -0.236343816 1.57321572 0.692954242 -0.236288145 1.57495427 0.693890154 -0.237443358 1.57447648 0.700113118 -0.241835564 1.57260931 0.694204569 -0.237171799 1.57345462 0.699641764 -0.24230653 1.57496154 0.694204569 -0.237171799 1.57345462 0.694515347 -0.236856893 1.57525277 0.699641764 -0.24230653 1.57496154 0.694515347 -0.236856893 1.57525277 0.695544422 -0.235830918 1.57580781 0.699641764 -0.24230653 1.57496154 0.699641764 -0.24230653 1.57496154 0.695544422 -0.235830918 1.57580781 0.701328814 -0.240618527 1.57548022 0.695325971 -0.236051306 1.57227588 0.694204569 -0.237171799 1.57345462 0.700113118 -0.241835564 1.57260931 0.696665645 -0.234710157 1.57462919 0.696686447 -0.234619766 1.57516372 0.696880817 -0.23443532 1.57377422 0.694515347 -0.236856893 1.57525277 0.693890154 -0.237443358 1.57447648 0.69489193 -0.23641935 1.57605171 0.695544422 -0.235830918 1.57580781 0.69489193 -0.23641935 1.57605171 0.695896983 -0.235417143 1.57602572 0.695415199 -0.235903174 1.57192469 0.696351707 -0.235021949 1.57283092 0.696443379 -0.234876081 1.57249093 0.694383383 -0.236936018 1.57247341 0.694204569 -0.237171799 1.57345462 0.695325971 -0.236051306 1.57227588 0.696351707 -0.235021949 1.57283092 0.696665645 -0.234710157 1.57462919 0.696443379 -0.234876081 1.57249093 0.696443379 -0.234876081 1.57249093 0.696665645 -0.234710157 1.57462919 0.696880817 -0.23443532 1.57377422 0.695415199 -0.235903174 1.57192469 0.695325971 -0.236051306 1.57227588 0.696351707 -0.235021949 1.57283092 0.696665645 -0.234710157 1.57462919 0.695896983 -0.235417143 1.57602572 0.696686447 -0.234619766 1.57516372 0.696665645 -0.234710157 1.57462919 0.695544422 -0.235830918 1.57580781 0.695896983 -0.235417143 1.57602572 0.694383383 -0.236936018 1.57247341 0.693890154 -0.237443358 1.57447648 0.694204569 -0.237171799 1.57345462 0.695415199 -0.235903174 1.57192469 0.694383383 -0.236936018 1.57247341 0.695325971 -0.236051306 1.57227588 0.694204569 -0.237171799 1.57345462 0.693890154 -0.237443358 1.57447648 0.694515347 -0.236856893 1.57525277 0.694515347 -0.236856893 1.57525277 0.69489193 -0.23641935 1.57605171 0.695544422 -0.235830918 1.57580781 0.700113118 -0.241835564 1.57260931 0.699641764 -0.24230653 1.57496154 0.701328814 -0.240618527 1.57548022 0.700113118 -0.241835564 1.57260931 0.701328814 -0.240618527 1.57548022 0.701800942 -0.240148351 1.57312799 0.703712046 -0.241045877 1.57629108 0.701021075 -0.241527185 1.57404494 0.70719713 -0.235251948 1.57404959 0.703712046 -0.241045877 1.57629108 0.70719713 -0.235251948 1.57404959 0.708287477 -0.236408025 1.57632625 0.703734338 -0.241038904 1.57178402 0.70828867 -0.23640728 1.5717783 0.70719713 -0.235251948 1.57404959 0.701021075 -0.241527185 1.57404494 0.703734338 -0.241038904 1.57178402 0.70719713 -0.235251948 1.57404959 0.694738388 -0.247702211 1.57404029 0.695904255 -0.24879241 1.57176912 0.700534403 -0.244238764 1.57178164 0.694738388 -0.247702211 1.57404029 0.700534403 -0.244238764 1.57178164 0.701021075 -0.241527185 1.57404494 0.694738388 -0.247702211 1.57404029 0.701021075 -0.241527185 1.57404494 0.700536728 -0.24422352 1.57629228 0.695899189 -0.248793483 1.5763129 0.694738388 -0.247702211 1.57404029 0.700536728 -0.24422352 1.57629228 </float_array>
          <technique_common>
            <accessor count="786" offset="0" source="#mesh_0-positions-array" stride="3">
              <param name="X" type="float" />
              <param name="Y" type="float" />
              <param name="Z" type="float" />
            </accessor>
          </technique_common>
        </source>
        <vertices id="mesh_0-vertices">
          <input semantic="POSITION" source="#mesh_0-positions" />
        </vertices>
        <polylist count="262" material="defaultMaterial">
          <input offset="0" semantic="VERTEX" source="#mesh_0-vertices" />
          <vcount>3 3 3 3 3 3 3 3 3 3 3 3 3 3 3 3 3 3 3 3 3 3 3 3 3 3 3 3 3 3 3 3 3 3 3 3 3 3 3 3 3 3 3 3 3 3 3 3 3 3 3 3 3 3 3 3 3 3 3 3 3 3 3 3 3 3 3 3 3 3 3 3 3 3 3 3 3 3 3 3 3 3 3 3 3 3 3 3 3 3 3 3 3 3 3 3 3 3 3 3 3 3 3 3 3 3 3 3 3 3 3 3 3 3 3 3 3 3 3 3 3 3 3 3 3 3 3 3 3 3 3 3 3 3 3 3 3 3 3 3 3 3 3 3 3 3 3 3 3 3 3 3 3 3 3 3 3 3 3 3 3 3 3 3 3 3 3 3 3 3 3 3 3 3 3 3 3 3 3 3 3 3 3 3 3 3 3 3 3 3 3 3 3 3 3 3 3 3 3 3 3 3 3 3 3 3 3 3 3 3 3 3 3 3 3 3 3 3 3 3 3 3 3 3 3 3 3 3 3 3 3 3 3 3 3 3 3 3 3 3 3 3 3 3 3 3 3 3 3 3 3 3 3 3 3 3 3 3 3 3 3 3 </vcount>
          <p>0 1 2 3 4 5 6 7 8 9 10 11 12 13 14 15 16 17 18 19 20 21 22 23 24 25 26 27 28 29 30 31 32 33 34 35 36 37 38 39 40 41 42 43 44 45 46 47 48 49 50 51 52 53 54 55 56 57 58 59 60 61 62 63 64 65 66 67 68 69 70 71 72 73 74 75 76 77 78 79 80 81 82 83 84 85 86 87 88 89 90 91 92 93 94 95 96 97 98 99 100 101 102 103 104 105 106 107 108 109 110 111 112 113 114 115 116 117 118 119 120 121 122 123 124 125 126 127 128 129 130 131 132 133 134 135 136 137 138 139 140 141 142 143 144 145 146 147 148 149 150 151 152 153 154 155 156 157 158 159 160 161 162 163 164 165 166 167 168 169 170 171 172 173 174 175 176 177 178 179 180 181 182 183 184 185 186 187 188 189 190 191 192 193 194 195 196 197 198 199 200 201 202 203 204 205 206 207 208 209 210 211 212 213 214 215 216 217 218 219 220 221 222 223 224 225 226 227 228 229 230 231 232 233 234 235 236 237 238 239 240 241 242 243 244 245 246 247 248 249 250 251 252 253 254 255 256 257 258 259 260 261 262 263 264 265 266 267 268 269 270 271 272 273 274 275 276 277 278 279 280 281 282 283 284 285 286 287 288 289 290 291 292 293 294 295 296 297 298 299 300 301 302 303 304 305 306 307 308 309 310 311 312 313 314 315 316 317 318 319 320 321 322 323 324 325 326 327 328 329 330 331 332 333 334 335 336 337 338 339 340 341 342 343 344 345 346 347 348 349 350 351 352 353 354 355 356 357 358 359 360 361 362 363 364 365 366 367 368 369 370 371 372 373 374 375 376 377 378 379 380 381 382 383 384 385 386 387 388 389 390 391 392 393 394 395 396 397 398 399 400 401 402 403 404 405 406 407 408 409 410 411 412 413 414 415 416 417 418 419 420 421 422 423 424 425 426 427 428 429 430 431 432 433 434 435 436 437 438 439 440 441 442 443 444 445 446 447 448 449 450 451 452 453 454 455 456 457 458 459 460 461 462 463 464 465 466 467 468 469 470 471 472 473 474 475 476 477 478 479 480 481 482 483 484 485 486 487 488 489 490 491 492 493 494 495 496 497 498 499 500 501 502 503 504 505 506 507 508 509 510 511 512 513 514 515 516 517 518 519 520 521 522 523 524 525 526 527 528 529 530 531 532 533 534 535 536 537 538 539 540 541 542 543 544 545 546 547 548 549 550 551 552 553 554 555 556 557 558 559 560 561 562 563 564 565 566 567 568 569 570 571 572 573 574 575 576 577 578 579 580 581 582 583 584 585 586 587 588 589 590 591 592 593 594 595 596 597 598 599 600 601 602 603 604 605 606 607 608 609 610 611 612 613 614 615 616 617 618 619 620 621 622 623 624 625 626 627 628 629 630 631 632 633 634 635 636 637 638 639 640 641 642 643 644 645 646 647 648 649 650 651 652 653 654 655 656 657 658 659 660 661 662 663 664 665 666 667 668 669 670 671 672 673 674 675 676 677 678 679 680 681 682 683 684 685 686 687 688 689 690 691 692 693 694 695 696 697 698 699 700 701 702 703 704 705 706 707 708 709 710 711 712 713 714 715 716 717 718 719 720 721 722 723 724 725 726 727 728 729 730 731 732 733 734 735 736 737 738 739 740 741 742 743 744 745 746 747 748 749 750 751 752 753 754 755 756 757 758 759 760 761 762 763 764 765 766 767 768 769 770 771 772 773 774 775 776 777 778 779 780 781 782 783 784 785 </p>
        </polylist>
      </mesh>
    </geometry>
  </library_geometries>
  <library_controllers>
  </library_controllers>
  <library_visual_scenes>
    <visual_scene id="Scene" name="Scene">
      <node id="node" name="" type="NODE">
        <matrix sid="matrix">1 0 0 0 0 1 0 0 0 0 1 0 0 0 0 1</matrix>
        <instance_geometry url="#mesh_0">
          <bind_material>
            <technique_common>
              <instance_material symbol="defaultMaterial" target="#material_0">
              </instance_material>
            </technique_common>
          </bind_material>
        </instance_geometry>
      </node>
    </visual_scene>
  </library_visual_scenes>
  <scene>
    <instance_visual_scene url="#Scene" />
  </scene>
</COLLADA>
