<?xml version="1.0" encoding="UTF-8" standalone="no" ?>
<COLLADA xmlns="http://www.collada.org/2005/11/COLLADASchema" version="1.4.1">
  <asset>
    <contributor>
      <author>Assimp</author>
      <authoring_tool>Assimp Exporter</authoring_tool>
    </contributor>
    <created>2026-04-22T16:09:44</created>
    <modified>2026-04-22T16:09:44</modified>
    <unit name="meter" meter="1" />
    <up_axis>Y_UP</up_axis>
  </asset>
  <library_images>
  </library_images>
  <library_effects>
    <effect id="material_0-fx" name="">
      <profile_COMMON>
        <technique sid="standard">
          <phong>
            <emission>
              <color sid="emission">0   0   0   -1.29948092</color>
            </emission>
            <ambient>
              <color sid="ambient">0.400000006   0.400000006   0.400000006   -1.40118456</color>
            </ambient>
            <diffuse>
              <color sid="diffuse">0.400000006   0.400000006   0.400000006   -1.40118456</color>
            </diffuse>
            <specular>
              <color sid="specular">0.25   0.25   0.25   -0.337564439</color>
            </specular>
          </phong>
        </technique>
      </profile_COMMON>
    </effect>
  </library_effects>
  <library_materials>
    <material id="material_0" name="">
      <instance_effect url="#material_0-fx"/>
    </material>
  </library_materials>
  <library_geometries>
    <geometry id="mesh_0" name="" >
      <mesh>
        <source id="mesh_0-positions" name="mesh_0-positions">
          <float_array id="mesh_0-positions-array" count="360"> -0.100798018 -0.000815320062 1.7143755 -0.105762355 0.00140691584 1.71690154 -0.105372116 -0.0090409331 1.71489489 -0.100619897 -0.00354426308 1.7141304 -0.100798018 -0.000815320062 1.7143755 -0.105372116 -0.0090409331 1.71489489 -0.117232218 -0.0120849647 1.71694767 -0.111239657 -0.0158976074 1.71464288 -0.105372116 -0.0090409331 1.71489489 -0.117232218 -0.0120849647 1.71694767 -0.105372116 -0.0090409331 1.71489489 -0.105762355 0.00140691584 1.71690154 -0.108809493 0.00350635359 1.71374011 -0.120548368 -0.0114590852 1.71359384 -0.11931821 -0.0105179707 1.71418655 -0.111239657 -0.0158976074 1.71464288 -0.117232218 -0.0120849647 1.71694767 -0.117974147 -0.0132856583 1.71597457 -0.117974147 -0.0132856583 1.71597457 -0.117232218 -0.0120849647 1.71694767 -0.118206233 -0.0115287965 1.71636963 -0.105771832 0.0027741245 1.71604562 -0.118206233 -0.0115287965 1.71636963 -0.117232218 -0.0120849647 1.71694767 -0.105771832 0.0027741245 1.71604562 -0.117232218 -0.0120849647 1.71694767 -0.105762355 0.00140691584 1.71690154 -0.105762355 0.00140691584 1.71690154 -0.100798018 -0.000815320062 1.7143755 -0.105771832 0.0027741245 1.71604562 -0.112501927 -0.016944807 1.71399069 -0.107141949 -0.0112336101 1.71122754 -0.111239657 -0.0158976074 1.71464288 -0.111239657 -0.0158976074 1.71464288 -0.107141949 -0.0112336101 1.71122754 -0.105372116 -0.0090409331 1.71489489 -0.105372116 -0.0090409331 1.71489489 -0.107141949 -0.0112336101 1.71122754 -0.100619897 -0.00354426308 1.7141304 -0.111239657 -0.0158976074 1.71464288 -0.117974147 -0.0132856583 1.71597457 -0.112501927 -0.016944807 1.71399069 -0.108809493 0.00350635359 1.71374011 -0.11931821 -0.0105179707 1.71418655 -0.107512996 0.00249349838 1.71397579 -0.119713724 -0.0138439927 1.7128222 -0.112956539 -0.0178279225 1.71054828 -0.120548368 -0.0114590852 1.71359384 -0.112956539 -0.0178279225 1.71054828 -0.117974147 -0.0132856583 1.71597457 -0.120548368 -0.0114590852 1.71359384 -0.118206233 -0.0115287965 1.71636963 -0.11931821 -0.0105179707 1.71418655 -0.117974147 -0.0132856583 1.71597457 -0.117974147 -0.0132856583 1.71597457 -0.11931821 -0.0105179707 1.71418655 -0.120548368 -0.0114590852 1.71359384 -0.10602428 0.00479503674 1.71339166 -0.105392151 0.00311115501 1.71360207 -0.0994347334 -0.0012251141 1.71075118 -0.105771832 0.0027741245 1.71604562 -0.107512996 0.00249349838 1.71397579 -0.113581888 -0.0056492649 1.71380889 -0.105771832 0.0027741245 1.71604562 -0.113581888 -0.0056492649 1.71380889 -0.118206233 -0.0115287965 1.71636963 -0.105392151 0.00311115501 1.71360207 -0.10602428 0.00479503674 1.71339166 -0.107512996 0.00249349838 1.71397579 -0.118206233 -0.0115287965 1.71636963 -0.113581888 -0.0056492649 1.71380889 -0.11931821 -0.0105179707 1.71418655 -0.100798018 -0.000815320062 1.7143755 -0.105392151 0.00311115501 1.71360207 -0.105771832 0.0027741245 1.71604562 -0.105771832 0.0027741245 1.71604562 -0.105392151 0.00311115501 1.71360207 -0.107512996 0.00249349838 1.71397579 -0.100798018 -0.000815320062 1.7143755 -0.10131593 -0.000283331028 1.71199548 -0.105392151 0.00311115501 1.71360207 -0.100619897 -0.00354426308 1.7141304 -0.0994347334 -0.0012251141 1.71075118 -0.10131593 -0.000283331028 1.71199548 -0.100619897 -0.00354426308 1.7141304 -0.10131593 -0.000283331028 1.71199548 -0.100798018 -0.000815320062 1.7143755 -0.107512996 0.00249349838 1.71397579 -0.10602428 0.00479503674 1.71339166 -0.108809493 0.00350635359 1.71374011 -0.112501927 -0.016944807 1.71399069 -0.11195045 -0.0160439108 1.71141338 -0.107141949 -0.0112336101 1.71122754 -0.100619897 -0.00354426308 1.7141304 -0.107141949 -0.0112336101 1.71122754 -0.0994347334 -0.0012251141 1.71075118 -0.112501927 -0.016944807 1.71399069 -0.112956539 -0.0178279225 1.71054828 -0.11195045 -0.0160439108 1.71141338 -0.117974147 -0.0132856583 1.71597457 -0.112956539 -0.0178279225 1.71054828 -0.112501927 -0.016944807 1.71399069 -0.0994347334 -0.0012251141 1.71075118 -0.105392151 0.00311115501 1.71360207 -0.10131593 -0.000283331028 1.71199548 -0.0994347334 -0.0012251141 1.71075118 -0.107141949 -0.0112336101 1.71122754 -0.100998528 -0.00517218746 1.71037745 -0.100998528 -0.00517218746 1.71037745 -0.107141949 -0.0112336101 1.71122754 -0.109784089 -0.0156425294 1.71039128 -0.107512996 0.00249349838 1.71397579 -0.11931821 -0.0105179707 1.71418655 -0.113581888 -0.0056492649 1.71380889 -0.107141949 -0.0112336101 1.71122754 -0.11195045 -0.0160439108 1.71141338 -0.109784089 -0.0156425294 1.71039128 -0.109784089 -0.0156425294 1.71039128 -0.11195045 -0.0160439108 1.71141338 -0.112956539 -0.0178279225 1.71054828 </float_array>
          <technique_common>
            <accessor count="120" offset="0" source="#mesh_0-positions-array" stride="3">
              <param name="X" type="float" />
              <param name="Y" type="float" />
              <param name="Z" type="float" />
            </accessor>
          </technique_common>
        </source>
        <vertices id="mesh_0-vertices">
          <input semantic="POSITION" source="#mesh_0-positions" />
        </vertices>
        <polylist count="40" material="defaultMaterial">
          <input offset="0" semantic="VERTEX" source="#mesh_0-vertices" />
          <vcount>3 3 3 3 3 3 3 3 3 3 3 3 3 3 3 3 3 3 3 3 3 3 3 3 3 3 3 3 3 3 3 3 3 3 3 3 3 3 3 3 </vcount>
          <p>0 1 2 3 4 5 6 7 8 9 10 11 12 13 14 15 16 17 18 19 20 21 22 23 24 25 26 27 28 29 30 31 32 33 34 35 36 37 38 39 40 41 42 43 44 45 46 47 48 49 50 51 52 53 54 55 56 57 58 59 60 61 62 63 64 65 66 67 68 69 70 71 72 73 74 75 76 77 78 79 80 81 82 83 84 85 86 87 88 89 90 91 92 93 94 95 96 97 98 99 100 101 102 103 104 105 106 107 108 109 110 111 112 113 114 115 116 117 118 119 </p>
        </polylist>
      </mesh>
    </geometry>
  </library_geometries>
  <library_controllers>
  </library_controllers>
  <library_visual_scenes>
    <visual_scene id="Scene" name="Scene">
      <node id="node" name="" type="NODE">
        <matrix sid="matrix">1 0 0 0 0 1 0 0 0 0 1 0 0 0 0 1</matrix>
        <instance_geometry url="#mesh_0">
          <bind_material>
            <technique_common>
              <instance_material symbol="defaultMaterial" target="#material_0">
              </instance_material>
            </technique_common>
          </bind_material>
        </instance_geometry>
      </node>
    </visual_scene>
  </library_visual_scenes>
  <scene>
    <instance_visual_scene url="#Scene" />
  </scene>
</COLLADA>
