<?xml version="1.0" encoding="UTF-8" standalone="no" ?>
<COLLADA xmlns="http://www.collada.org/2005/11/COLLADASchema" version="1.4.1">
  <asset>
    <contributor>
      <author>Assimp</author>
      <authoring_tool>Assimp Exporter</authoring_tool>
    </contributor>
    <created>2026-04-22T16:09:44</created>
    <modified>2026-04-22T16:09:44</modified>
    <unit name="meter" meter="1" />
    <up_axis>Y_UP</up_axis>
  </asset>
  <library_images>
  </library_images>
  <library_effects>
    <effect id="material_0-fx" name="">
      <profile_COMMON>
        <technique sid="standard">
          <phong>
            <emission>
              <color sid="emission">0   0   0   -1.87499988</color>
            </emission>
            <ambient>
              <color sid="ambient">0.100000001   0.100000001   0.100000001   -1.29087281</color>
            </ambient>
            <diffuse>
              <color sid="diffuse">0.100000001   0.100000001   0.100000001   -1.29087281</color>
            </diffuse>
            <specular>
              <color sid="specular">0.300000012   0.300000012   0.300000012   0.610321581</color>
            </specular>
          </phong>
        </technique>
      </profile_COMMON>
    </effect>
  </library_effects>
  <library_materials>
    <material id="material_0" name="">
      <instance_effect url="#material_0-fx"/>
    </material>
  </library_materials>
  <library_geometries>
    <geometry id="mesh_0" name="" >
      <mesh>
        <source id="mesh_0-positions" name="mesh_0-positions">
          <float_array id="mesh_0-positions-array" count="2358"> 0.702817082 -0.244542003 1.57548189 0.707481325 -0.250450224 1.57463574 0.702347934 -0.245011732 1.57312894 0.707481325 -0.250450224 1.57463574 0.707797587 -0.250138074 1.57283795 0.702347934 -0.245011732 1.57312894 0.707797587 -0.250138074 1.57283795 0.708824039 -0.249108627 1.57228446 0.702347934 -0.245011732 1.57312894 0.702347934 -0.245011732 1.57312894 0.708824039 -0.249108627 1.57228446 0.704036474 -0.243324414 1.57261276 0.708600998 -0.249329686 1.57581615 0.707481325 -0.250450224 1.57463574 0.702817082 -0.244542003 1.57548189 0.707267225 -0.250724882 1.57378042 0.708249331 -0.251801223 1.57362926 0.707706332 -0.250283867 1.57249784 0.708249331 -0.251801223 1.57362926 0.709014058 -0.251033187 1.57206929 0.707706332 -0.250283867 1.57249784 0.709253132 -0.248741299 1.57606101 0.709264457 -0.250796348 1.57617295 0.708248138 -0.249743491 1.57603347 0.707706332 -0.250283867 1.57249784 0.709014058 -0.251033187 1.57206929 0.708735228 -0.249256685 1.57193315 0.708248138 -0.249743491 1.57603347 0.709264457 -0.250796348 1.57617295 0.707459807 -0.250540704 1.57517028 0.709264457 -0.250796348 1.57617295 0.708382189 -0.251672089 1.57497287 0.707459807 -0.250540704 1.57517028 0.707459807 -0.250540704 1.57517028 0.708382189 -0.251672089 1.57497287 0.707267225 -0.250724882 1.57378042 0.708382189 -0.251672089 1.57497287 0.708249331 -0.251801223 1.57362926 0.707267225 -0.250724882 1.57378042 0.706703544 -0.251293689 1.57505405 0.706643105 -0.251357347 1.57334566 0.707649171 -0.252412081 1.57377052 0.706703544 -0.251293689 1.57505405 0.707649171 -0.252412081 1.57377052 0.708041131 -0.252021849 1.57578099 0.707478881 -0.250517994 1.57149816 0.710037172 -0.250033438 1.57108271 0.708464444 -0.251615733 1.57163858 0.707478881 -0.250517994 1.57149816 0.709115088 -0.248883203 1.57102013 0.710037172 -0.250033438 1.57108271 0.707480967 -0.250513911 1.57655287 0.706703544 -0.251293689 1.57505405 0.708041131 -0.252021849 1.57578099 0.707480967 -0.250513911 1.57655287 0.708041131 -0.252021849 1.57578099 0.709082663 -0.250963926 1.57688272 0.708755672 -0.249244094 1.57710779 0.707480967 -0.250513911 1.57655287 0.709082663 -0.250963926 1.57688272 0.708755672 -0.249244094 1.57710779 0.709082663 -0.250963926 1.57688272 0.710500777 -0.2495597 1.57690144 0.706643105 -0.251357347 1.57334566 0.707478881 -0.250517994 1.57149816 0.708464444 -0.251615733 1.57163858 0.706643105 -0.251357347 1.57334566 0.708464444 -0.251615733 1.57163858 0.707649171 -0.252412081 1.57377052 0.703616261 -0.240921065 1.57178497 0.70549202 -0.239143312 1.56533182 0.703658104 -0.240949735 1.56530154 0.703616261 -0.240921065 1.57178497 0.707068384 -0.237563908 1.56628096 0.70549202 -0.239143312 1.56533182 0.708206475 -0.236441284 1.5687325 0.707068384 -0.237563908 1.56628096 0.703616261 -0.240921065 1.57178497 0.708246469 -0.236367419 1.57177937 0.708206475 -0.236441284 1.5687325 0.703616261 -0.240921065 1.57178497 0.70827198 -0.236393169 1.58278525 0.708245575 -0.236367196 1.57632315 0.703608036 -0.240937158 1.57629561 0.70827198 -0.236393169 1.58278525 0.703608036 -0.240937158 1.57629561 0.703649104 -0.240951911 1.58279896 0.700416327 -0.244120911 1.57178271 0.700449765 -0.244157985 1.56529915 0.698062301 -0.246612459 1.56543958 0.700416327 -0.244120911 1.57178271 0.698062301 -0.246612459 1.56543958 0.696521819 -0.248080149 1.56712461 0.700416327 -0.244120911 1.57178271 0.696521819 -0.248080149 1.56712461 0.695911109 -0.2487313 1.56910253 0.700416327 -0.244120911 1.57178271 0.695911109 -0.2487313 1.56910253 0.695861995 -0.248752534 1.57177007 0.700434268 -0.244163185 1.58279574 0.700432718 -0.244114801 1.57628977 0.695857286 -0.248752654 1.57631803 0.700434268 -0.244163185 1.58279574 0.695857286 -0.248752654 1.57631803 0.695884764 -0.248803556 1.5827775 0.709409356 -0.23745805 1.57405186 0.708206475 -0.236441284 1.5687325 0.708246469 -0.236367419 1.57177937 0.709409356 -0.23745805 1.57405186 0.714900136 -0.242977962 1.56848359 0.708206475 -0.236441284 1.5687325 0.714969158 -0.242852062 1.58296454 0.714900136 -0.242977962 1.56848359 0.709409356 -0.23745805 1.57405186 0.708245575 -0.236367196 1.57632315 0.714969158 -0.242852062 1.58296454 0.709409356 -0.23745805 1.57405186 0.70827198 -0.236393169 1.58278525 0.714969158 -0.242852062 1.58296454 0.708245575 -0.236367196 1.57632315 0.696950555 -0.249908298 1.57404256 0.695861995 -0.248752534 1.57177007 0.695911109 -0.2487313 1.56910253 0.702394247 -0.255474448 1.56914592 0.696950555 -0.249908298 1.57404256 0.695911109 -0.2487313 1.56910253 0.702339113 -0.255482733 1.58295512 0.695857286 -0.248752654 1.57631803 0.696950555 -0.249908298 1.57404256 0.702339113 -0.255482733 1.58295512 0.695884764 -0.248803556 1.5827775 0.695857286 -0.248752654 1.57631803 0.702339113 -0.255482733 1.58295512 0.696950555 -0.249908298 1.57404256 0.702394247 -0.255474448 1.56914592 0.703616261 -0.240921065 1.57178497 0.703658104 -0.240949735 1.56530154 0.703182042 -0.243681967 1.56524312 0.703126669 -0.243633077 1.57404721 0.703616261 -0.240921065 1.57178497 0.703182042 -0.243681967 1.56524312 0.703172207 -0.243685156 1.58285069 0.703649104 -0.240951911 1.58279896 0.703608036 -0.240937158 1.57629561 0.703172207 -0.243685156 1.58285069 0.703608036 -0.240937158 1.57629561 0.703126669 -0.243633077 1.57404721 0.700416327 -0.244120911 1.57178271 0.703126669 -0.243633077 1.57404721 0.703182042 -0.243681967 1.56524312 0.700416327 -0.244120911 1.57178271 0.703182042 -0.243681967 1.56524312 0.700449765 -0.244157985 1.56529915 0.703172207 -0.243685156 1.58285069 0.703126669 -0.243633077 1.57404721 0.700432718 -0.244114801 1.57628977 0.700434268 -0.244163185 1.58279574 0.703172207 -0.243685156 1.58285069 0.700432718 -0.244114801 1.57628977 0.702339113 -0.255482733 1.58295512 0.700434268 -0.244163185 1.58279574 0.695884764 -0.248803556 1.5827775 0.703172207 -0.243685156 1.58285069 0.700434268 -0.244163185 1.58279574 0.702339113 -0.255482733 1.58295512 0.714969158 -0.242852062 1.58296454 0.703649104 -0.240951911 1.58279896 0.703172207 -0.243685156 1.58285069 0.714969158 -0.242852062 1.58296454 0.70827198 -0.236393169 1.58278525 0.703649104 -0.240951911 1.58279896 0.714969158 -0.242852062 1.58296454 0.703172207 -0.243685156 1.58285069 0.702339113 -0.255482733 1.58295512 0.703182042 -0.243681967 1.56524312 0.71203655 -0.245847851 1.56515288 0.704918623 -0.252970874 1.56522799 0.703182042 -0.243681967 1.56524312 0.704918623 -0.252970874 1.56522799 0.698062301 -0.246612459 1.56543958 0.703182042 -0.243681967 1.56524312 0.698062301 -0.246612459 1.56543958 0.700449765 -0.244157985 1.56529915 0.70549202 -0.239143312 1.56533182 0.703182042 -0.243681967 1.56524312 0.703658104 -0.240949735 1.56530154 0.70549202 -0.239143312 1.56533182 0.71203655 -0.245847851 1.56515288 0.703182042 -0.243681967 1.56524312 0.706703544 -0.251293689 1.57505405 0.706792653 -0.251130551 1.57710981 0.705931008 -0.25201717 1.57479441 0.706703544 -0.251293689 1.57505405 0.707480967 -0.250513911 1.57655287 0.706792653 -0.251130551 1.57710981 0.714900136 -0.242977962 1.56848359 0.714014709 -0.243926093 1.57480359 0.714018941 -0.243922472 1.57330048 0.710261703 -0.247675374 1.57067609 0.710548043 -0.247452915 1.57225311 0.709115088 -0.248883203 1.57102013 0.704918623 -0.252970874 1.56522799 0.703582942 -0.254350901 1.56835723 0.703135014 -0.254753679 1.56685472 0.714013517 -0.243921906 1.58154726 0.714969158 -0.242852062 1.58296454 0.709245384 -0.248691559 1.58154809 0.704918623 -0.252970874 1.56522799 0.705204248 -0.252737612 1.56660974 0.703582942 -0.254350901 1.56835723 0.714014709 -0.243926093 1.57480359 0.714969158 -0.242852062 1.58296454 0.714013517 -0.243921906 1.58154726 0.714900136 -0.242977962 1.56848359 0.714969158 -0.242852062 1.58296454 0.714014709 -0.243926093 1.57480359 0.714969158 -0.242852062 1.58296454 0.702339113 -0.255482733 1.58295512 0.709245384 -0.248691559 1.58154809 0.709245384 -0.248691559 1.58154809 0.702339113 -0.255482733 1.58295512 0.708177209 -0.249758735 1.58154821 0.703413188 -0.254521847 1.58154452 0.702339113 -0.255482733 1.58295512 0.703415394 -0.254524797 1.57479942 0.703415394 -0.254524797 1.57479942 0.702339113 -0.255482733 1.58295512 0.702394247 -0.255474448 1.56914592 0.703135014 -0.254753679 1.56685472 0.703582942 -0.254350901 1.56835723 0.702394247 -0.255474448 1.56914592 0.710261703 -0.247675374 1.57067609 0.71114862 -0.246781915 1.57199526 0.710548043 -0.247452915 1.57225311 0.713548839 -0.244336262 1.56595099 0.713927627 -0.244014725 1.56872737 0.712494373 -0.245437905 1.56669736 0.703582942 -0.254350901 1.56835723 0.703419685 -0.25452131 1.57329702 0.702394247 -0.255474448 1.56914592 0.704918623 -0.252970874 1.56522799 0.708188713 -0.249756038 1.56655264 0.705204248 -0.252737612 1.56660974 0.713548839 -0.244336262 1.56595099 0.714900136 -0.242977962 1.56848359 0.713927627 -0.244014725 1.56872737 0.708755672 -0.249244094 1.57710779 0.706792653 -0.251130551 1.57710981 0.707480967 -0.250513911 1.57655287 0.71114862 -0.246781915 1.57199526 0.711488247 -0.246446133 1.57331872 0.710548043 -0.247452915 1.57225311 0.708755672 -0.249244094 1.57710779 0.708195686 -0.249738768 1.57796979 0.706792653 -0.251130551 1.57710981 0.710548043 -0.247452915 1.57225311 0.711488247 -0.246446133 1.57331872 0.710892558 -0.247102991 1.57439899 0.704918623 -0.252970874 1.56522799 0.709252059 -0.248693272 1.56655824 0.708188713 -0.249756038 1.56655264 0.703419685 -0.25452131 1.57329702 0.703415394 -0.254524797 1.57479942 0.702394247 -0.255474448 1.56914592 0.711488247 -0.246446133 1.57331872 0.711487472 -0.246446684 1.57478571 0.710892558 -0.247102991 1.57439899 0.708755672 -0.249244094 1.57710779 0.709229827 -0.248701856 1.57797384 0.708195686 -0.249738768 1.57796979 0.71021235 -0.247783035 1.57637584 0.710163414 -0.247763991 1.57749629 0.708755672 -0.249244094 1.57710779 0.708755672 -0.249244094 1.57710779 0.710163414 -0.247763991 1.57749629 0.709229827 -0.248701856 1.57797384 0.711487472 -0.246446684 1.57478571 0.711099565 -0.246834427 1.57623732 0.710892558 -0.247102991 1.57439899 0.704918623 -0.252970874 1.56522799 0.71203655 -0.245847851 1.56515288 0.709252059 -0.248693272 1.56655824 0.709252059 -0.248693272 1.56655824 0.708197832 -0.249738783 1.57012689 0.708188713 -0.249756038 1.56655264 0.703419685 -0.25452131 1.57329702 0.705940366 -0.251994401 1.57331479 0.703415394 -0.254524797 1.57479942 0.710892558 -0.247102991 1.57439899 0.711099565 -0.246834427 1.57623732 0.71021235 -0.247783035 1.57637584 0.707259238 -0.250671953 1.57060421 0.707478881 -0.250517994 1.57149816 0.706328988 -0.251607299 1.57186317 0.71021235 -0.247783035 1.57637584 0.711099565 -0.246834427 1.57623732 0.710163414 -0.247763991 1.57749629 0.703413188 -0.254521847 1.58154452 0.708177209 -0.249758735 1.58154821 0.702339113 -0.255482733 1.58295512 0.711488247 -0.246446133 1.57331872 0.714018941 -0.243922472 1.57330048 0.711487472 -0.246446684 1.57478571 0.707478881 -0.250517994 1.57149816 0.706643105 -0.251357347 1.57334566 0.706328988 -0.251607299 1.57186317 0.714900136 -0.242977962 1.56848359 0.714018941 -0.243922472 1.57330048 0.713927627 -0.244014725 1.56872737 0.708197832 -0.249738783 1.57012689 0.707478881 -0.250517994 1.57149816 0.707259238 -0.250671953 1.57060421 0.706328988 -0.251607299 1.57186317 0.706643105 -0.251357347 1.57334566 0.705940366 -0.251994401 1.57331479 0.71203655 -0.245847851 1.56515288 0.712494373 -0.245437905 1.56669736 0.709252059 -0.248693272 1.56655824 0.708197832 -0.249738783 1.57012689 0.709115088 -0.248883203 1.57102013 0.707478881 -0.250517994 1.57149816 0.709229827 -0.248701856 1.57797384 0.709245384 -0.248691559 1.58154809 0.708195686 -0.249738768 1.57796979 0.709252059 -0.248693272 1.56655824 0.709234953 -0.24870114 1.57012749 0.708197832 -0.249738783 1.57012689 0.708195686 -0.249738768 1.57796979 0.709245384 -0.248691559 1.58154809 0.708177209 -0.249758735 1.58154821 0.705940366 -0.251994401 1.57331479 0.705931008 -0.25201717 1.57479441 0.703415394 -0.254524797 1.57479942 0.705940366 -0.251994401 1.57331479 0.706643105 -0.251357347 1.57334566 0.705931008 -0.25201717 1.57479441 0.709234953 -0.24870114 1.57012749 0.709115088 -0.248883203 1.57102013 0.708197832 -0.249738783 1.57012689 0.714018941 -0.243922472 1.57330048 0.714014709 -0.243926093 1.57480359 0.711487472 -0.246446684 1.57478571 0.706643105 -0.251357347 1.57334566 0.706703544 -0.251293689 1.57505405 0.705931008 -0.25201717 1.57479441 0.713548839 -0.244336262 1.56595099 0.712494373 -0.245437905 1.56669736 0.71203655 -0.245847851 1.56515288 0.710261703 -0.247675374 1.57067609 0.709115088 -0.248883203 1.57102013 0.709234953 -0.24870114 1.57012749 0.714900136 -0.242977962 1.56848359 0.713548839 -0.244336262 1.56595099 0.707068384 -0.237563908 1.56628096 0.714900136 -0.242977962 1.56848359 0.707068384 -0.237563908 1.56628096 0.708206475 -0.236441284 1.5687325 0.713548839 -0.244336262 1.56595099 0.70549202 -0.239143312 1.56533182 0.707068384 -0.237563908 1.56628096 0.713548839 -0.244336262 1.56595099 0.71203655 -0.245847851 1.56515288 0.70549202 -0.239143312 1.56533182 0.703135014 -0.254753679 1.56685472 0.696521819 -0.248080149 1.56712461 0.698062301 -0.246612459 1.56543958 0.704918623 -0.252970874 1.56522799 0.703135014 -0.254753679 1.56685472 0.698062301 -0.246612459 1.56543958 0.702394247 -0.255474448 1.56914592 0.695911109 -0.2487313 1.56910253 0.696521819 -0.248080149 1.56712461 0.703135014 -0.254753679 1.56685472 0.702394247 -0.255474448 1.56914592 0.696521819 -0.248080149 1.56712461 0.714014709 -0.243926093 1.57480359 0.708274245 -0.238415882 1.58137822 0.70827651 -0.238416448 1.5749706 0.714013517 -0.243921906 1.58154726 0.708274245 -0.238415882 1.58137822 0.714014709 -0.243926093 1.57480359 0.711487472 -0.246446684 1.57478571 0.70827651 -0.238416448 1.5749706 0.70599699 -0.240684494 1.57500827 0.714014709 -0.243926093 1.57480359 0.70827651 -0.238416448 1.5749706 0.711487472 -0.246446684 1.57478571 0.703735709 -0.242953628 1.57812297 0.709229827 -0.248701856 1.57797384 0.710163414 -0.247763991 1.57749629 0.704973102 -0.241698951 1.57733512 0.703735709 -0.242953628 1.57812297 0.710163414 -0.247763991 1.57749629 0.704973102 -0.241698951 1.57733512 0.710163414 -0.247763991 1.57749629 0.711099565 -0.246834427 1.57623732 0.70599699 -0.240684494 1.57500827 0.704973102 -0.241698951 1.57733512 0.711099565 -0.246834427 1.57623732 0.70599699 -0.240684494 1.57500827 0.711099565 -0.246834427 1.57623732 0.711487472 -0.246446684 1.57478571 0.70373702 -0.242953405 1.581375 0.709229827 -0.248701856 1.57797384 0.703735709 -0.242953628 1.57812297 0.70373702 -0.242953405 1.581375 0.709245384 -0.248691559 1.58154809 0.709229827 -0.248701856 1.57797384 0.708274245 -0.238415882 1.58137822 0.714013517 -0.243921906 1.58154726 0.70373702 -0.242953405 1.581375 0.70373702 -0.242953405 1.581375 0.714013517 -0.243921906 1.58154726 0.709245384 -0.248691559 1.58154809 0.704973102 -0.241698951 1.57733512 0.70373702 -0.242953405 1.581375 0.703735709 -0.242953628 1.57812297 0.708274245 -0.238415882 1.58137822 0.70373702 -0.242953405 1.581375 0.704973102 -0.241698951 1.57733512 0.70827651 -0.238416448 1.5749706 0.704973102 -0.241698951 1.57733512 0.70599699 -0.240684494 1.57500827 0.70827651 -0.238416448 1.5749706 0.708274245 -0.238415882 1.58137822 0.704973102 -0.241698951 1.57733512 0.697904229 -0.248786822 1.58137143 0.708177209 -0.249758735 1.58154821 0.703413188 -0.254521847 1.58154452 0.702440977 -0.244248927 1.58137393 0.708177209 -0.249758735 1.58154821 0.697904229 -0.248786822 1.58137143 0.708195686 -0.249738768 1.57796979 0.702440977 -0.244248927 1.58137393 0.702447712 -0.244243875 1.57811999 0.708177209 -0.249758735 1.58154821 0.702440977 -0.244248927 1.58137393 0.708195686 -0.249738768 1.57796979 0.70092237 -0.245738134 1.57708895 0.705931008 -0.25201717 1.57479441 0.706792653 -0.251130551 1.57710981 0.70092237 -0.245738134 1.57708895 0.700212657 -0.246480674 1.57495511 0.705931008 -0.25201717 1.57479441 0.702447712 -0.244243875 1.57811999 0.706792653 -0.251130551 1.57710981 0.708195686 -0.249738768 1.57796979 0.702447712 -0.244243875 1.57811999 0.70092237 -0.245738134 1.57708895 0.706792653 -0.251130551 1.57710981 0.705931008 -0.25201717 1.57479441 0.697908759 -0.248785347 1.57496345 0.703415394 -0.254524797 1.57479942 0.705931008 -0.25201717 1.57479441 0.700212657 -0.246480674 1.57495511 0.697908759 -0.248785347 1.57496345 0.697904229 -0.248786822 1.58137143 0.703415394 -0.254524797 1.57479942 0.697908759 -0.248785347 1.57496345 0.697904229 -0.248786822 1.58137143 0.703413188 -0.254521847 1.58154452 0.703415394 -0.254524797 1.57479942 0.70092237 -0.245738134 1.57708895 0.702440977 -0.244248927 1.58137393 0.697904229 -0.248786822 1.58137143 0.70092237 -0.245738134 1.57708895 0.697904229 -0.248786822 1.58137143 0.697908759 -0.248785347 1.57496345 0.702447712 -0.244243875 1.57811999 0.702440977 -0.244248927 1.58137393 0.70092237 -0.245738134 1.57708895 0.700212657 -0.246480674 1.57495511 0.70092237 -0.245738134 1.57708895 0.697908759 -0.248785347 1.57496345 0.698040068 -0.248641223 1.56860113 0.703582942 -0.254350901 1.56835723 0.699491739 -0.247192249 1.56681597 0.703582942 -0.254350901 1.56835723 0.705204248 -0.252737612 1.56660974 0.699491739 -0.247192249 1.56681597 0.697910309 -0.248785898 1.57312346 0.703582942 -0.254350901 1.56835723 0.698040068 -0.248641223 1.56860113 0.697910309 -0.248785898 1.57312346 0.703419685 -0.25452131 1.57329702 0.703582942 -0.254350901 1.56835723 0.697910309 -0.248785898 1.57312346 0.705940366 -0.251994401 1.57331479 0.703419685 -0.25452131 1.57329702 0.700178325 -0.24650377 1.5730859 0.705940366 -0.251994401 1.57331479 0.697910309 -0.248785898 1.57312346 0.702449024 -0.244244307 1.56997108 0.708197832 -0.249738783 1.57012689 0.707259238 -0.250671953 1.57060421 0.701192856 -0.245480806 1.57075882 0.702449024 -0.244244307 1.56997108 0.707259238 -0.250671953 1.57060421 0.701192856 -0.245480806 1.57075882 0.707259238 -0.250671953 1.57060421 0.706328988 -0.251607299 1.57186317 0.700178325 -0.24650377 1.5730859 0.701192856 -0.245480806 1.57075882 0.706328988 -0.251607299 1.57186317 0.700178325 -0.24650377 1.5730859 0.706328988 -0.251607299 1.57186317 0.705940366 -0.251994401 1.57331479 0.708197832 -0.249738783 1.57012689 0.702450931 -0.244248375 1.56671846 0.708188713 -0.249756038 1.56655264 0.708197832 -0.249738783 1.57012689 0.702449024 -0.244244307 1.56997108 0.702450931 -0.244248375 1.56671846 0.705204248 -0.252737612 1.56660974 0.702450931 -0.244248375 1.56671846 0.699491739 -0.247192249 1.56681597 0.708188713 -0.249756038 1.56655264 0.702450931 -0.244248375 1.56671846 0.705204248 -0.252737612 1.56660974 0.700178325 -0.24650377 1.5730859 0.697910309 -0.248785898 1.57312346 0.698040068 -0.248641223 1.56860113 0.701192856 -0.245480806 1.57075882 0.700178325 -0.24650377 1.5730859 0.698040068 -0.248641223 1.56860113 0.699491739 -0.247192249 1.56681597 0.701192856 -0.245480806 1.57075882 0.698040068 -0.248641223 1.56860113 0.699491739 -0.247192249 1.56681597 0.702449024 -0.244244307 1.56997108 0.701192856 -0.245480806 1.57075882 0.702450931 -0.244248375 1.56671846 0.702449024 -0.244244307 1.56997108 0.699491739 -0.247192249 1.56681597 0.707749486 -0.238906384 1.56788146 0.713927627 -0.244014725 1.56872737 0.708260834 -0.238426536 1.56946957 0.706577241 -0.240114078 1.56678617 0.712494373 -0.245437905 1.56669736 0.707749486 -0.238906384 1.56788146 0.712494373 -0.245437905 1.56669736 0.713927627 -0.244014725 1.56872737 0.707749486 -0.238906384 1.56788146 0.712494373 -0.245437905 1.56669736 0.703746676 -0.24295342 1.5667206 0.709252059 -0.248693272 1.56655824 0.712494373 -0.245437905 1.56669736 0.706577241 -0.240114078 1.56678617 0.703746676 -0.24295342 1.5667206 0.703746676 -0.24295342 1.5667206 0.709234953 -0.24870114 1.57012749 0.709252059 -0.248693272 1.56655824 0.703768492 -0.242915601 1.56993246 0.709234953 -0.24870114 1.57012749 0.703746676 -0.24295342 1.5667206 0.705974817 -0.240716904 1.57313573 0.711488247 -0.246446133 1.57331872 0.71114862 -0.246781915 1.57199526 0.705408752 -0.241264731 1.57137311 0.705974817 -0.240716904 1.57313573 0.71114862 -0.246781915 1.57199526 0.705408752 -0.241264731 1.57137311 0.71114862 -0.246781915 1.57199526 0.710261703 -0.247675374 1.57067609 0.703768492 -0.242915601 1.56993246 0.705408752 -0.241264731 1.57137311 0.710261703 -0.247675374 1.57067609 0.703768492 -0.242915601 1.56993246 0.710261703 -0.247675374 1.57067609 0.709234953 -0.24870114 1.57012749 0.708279431 -0.23841624 1.57313085 0.711488247 -0.246446133 1.57331872 0.705974817 -0.240716904 1.57313573 0.708279431 -0.23841624 1.57313085 0.714018941 -0.243922472 1.57330048 0.711488247 -0.246446133 1.57331872 0.713927627 -0.244014725 1.56872737 0.708279431 -0.23841624 1.57313085 0.708260834 -0.238426536 1.56946957 0.714018941 -0.243922472 1.57330048 0.708279431 -0.23841624 1.57313085 0.713927627 -0.244014725 1.56872737 0.706577241 -0.240114078 1.56678617 0.705408752 -0.241264731 1.57137311 0.703768492 -0.242915601 1.56993246 0.706577241 -0.240114078 1.56678617 0.703768492 -0.242915601 1.56993246 0.703746676 -0.24295342 1.5667206 0.708260834 -0.238426536 1.56946957 0.705974817 -0.240716904 1.57313573 0.705408752 -0.241264731 1.57137311 0.708260834 -0.238426536 1.56946957 0.708279431 -0.23841624 1.57313085 0.705974817 -0.240716904 1.57313573 0.707749486 -0.238906384 1.56788146 0.708260834 -0.238426536 1.56946957 0.705408752 -0.241264731 1.57137311 0.707749486 -0.238906384 1.56788146 0.705408752 -0.241264731 1.57137311 0.706577241 -0.240114078 1.56678617 0.709264457 -0.250796348 1.57617295 0.708041131 -0.252021849 1.57578099 0.708382189 -0.251672089 1.57497287 0.708382189 -0.251672089 1.57497287 0.708041131 -0.252021849 1.57578099 0.707649171 -0.252412081 1.57377052 0.709264457 -0.250796348 1.57617295 0.709082663 -0.250963926 1.57688272 0.708041131 -0.252021849 1.57578099 0.708249331 -0.251801223 1.57362926 0.708382189 -0.251672089 1.57497287 0.707649171 -0.252412081 1.57377052 0.709264457 -0.250796348 1.57617295 0.710500777 -0.2495597 1.57690144 0.709082663 -0.250963926 1.57688272 0.710467815 -0.249583766 1.57598507 0.710500777 -0.2495597 1.57690144 0.709264457 -0.250796348 1.57617295 0.708249331 -0.251801223 1.57362926 0.707649171 -0.252412081 1.57377052 0.708464444 -0.251615733 1.57163858 0.71119231 -0.248872295 1.57496595 0.710500777 -0.2495597 1.57690144 0.710467815 -0.249583766 1.57598507 0.711429238 -0.248620421 1.5758729 0.710500777 -0.2495597 1.57690144 0.71119231 -0.248872295 1.57496595 0.709014058 -0.251033187 1.57206929 0.708249331 -0.251801223 1.57362926 0.708464444 -0.251615733 1.57163858 0.711899757 -0.248165607 1.5744077 0.711429238 -0.248620421 1.5758729 0.71119231 -0.248872295 1.57496595 0.710037172 -0.250033438 1.57108271 0.710361123 -0.249697372 1.57203209 0.709014058 -0.251033187 1.57206929 0.710037172 -0.250033438 1.57108271 0.709014058 -0.251033187 1.57206929 0.708464444 -0.251615733 1.57163858 0.711899757 -0.248165607 1.5744077 0.71119231 -0.248872295 1.57496595 0.711210668 -0.248816282 1.57322752 0.711425543 -0.248623788 1.57209682 0.711899757 -0.248165607 1.5744077 0.711210668 -0.248816282 1.57322752 0.710037172 -0.250033438 1.57108271 0.711210668 -0.248816282 1.57322752 0.710361123 -0.249697372 1.57203209 0.711425543 -0.248623788 1.57209682 0.711210668 -0.248816282 1.57322752 0.710037172 -0.250033438 1.57108271 0.710548043 -0.247452915 1.57225311 0.710892558 -0.247102991 1.57439899 0.711899757 -0.248165607 1.5744077 0.710548043 -0.247452915 1.57225311 0.711899757 -0.248165607 1.5744077 0.711425543 -0.248623788 1.57209682 0.71021235 -0.247783035 1.57637584 0.708755672 -0.249244094 1.57710779 0.710500777 -0.2495597 1.57690144 0.709115088 -0.248883203 1.57102013 0.710548043 -0.247452915 1.57225311 0.711425543 -0.248623788 1.57209682 0.71021235 -0.247783035 1.57637584 0.710500777 -0.2495597 1.57690144 0.711429238 -0.248620421 1.5758729 0.709115088 -0.248883203 1.57102013 0.711425543 -0.248623788 1.57209682 0.710037172 -0.250033438 1.57108271 0.71021235 -0.247783035 1.57637584 0.711429238 -0.248620421 1.5758729 0.711899757 -0.248165607 1.5744077 0.710892558 -0.247102991 1.57439899 0.71021235 -0.247783035 1.57637584 0.711899757 -0.248165607 1.5744077 0.710256994 -0.247716978 1.57448721 0.71119231 -0.248872295 1.57496595 0.709253132 -0.248741299 1.57606101 0.709014058 -0.251033187 1.57206929 0.710361123 -0.249697372 1.57203209 0.708735228 -0.249256685 1.57193315 0.71119231 -0.248872295 1.57496595 0.710467815 -0.249583766 1.57598507 0.709253132 -0.248741299 1.57606101 0.708735228 -0.249256685 1.57193315 0.710361123 -0.249697372 1.57203209 0.709766388 -0.248223945 1.57248342 0.710467815 -0.249583766 1.57598507 0.709264457 -0.250796348 1.57617295 0.709253132 -0.248741299 1.57606101 0.710361123 -0.249697372 1.57203209 0.711210668 -0.248816282 1.57322752 0.709766388 -0.248223945 1.57248342 0.709766388 -0.248223945 1.57248342 0.711210668 -0.248816282 1.57322752 0.710256994 -0.247716978 1.57448721 0.711210668 -0.248816282 1.57322752 0.71119231 -0.248872295 1.57496595 0.710256994 -0.247716978 1.57448721 0.704036474 -0.243324414 1.57261276 0.70994395 -0.247988358 1.57346487 0.704504788 -0.242853895 1.57496572 0.70994395 -0.247988358 1.57346487 0.709630787 -0.248303607 1.57526267 0.704504788 -0.242853895 1.57496572 0.709630787 -0.248303607 1.57526267 0.708600998 -0.249329686 1.57581615 0.704504788 -0.242853895 1.57496572 0.704504788 -0.242853895 1.57496572 0.708600998 -0.249329686 1.57581615 0.702817082 -0.244542003 1.57548189 0.708824039 -0.249108627 1.57228446 0.70994395 -0.247988358 1.57346487 0.704036474 -0.243324414 1.57261276 0.707481325 -0.250450224 1.57463574 0.707459807 -0.250540704 1.57517028 0.707267225 -0.250724882 1.57378042 0.709630787 -0.248303607 1.57526267 0.710256994 -0.247716978 1.57448721 0.709253132 -0.248741299 1.57606101 0.708600998 -0.249329686 1.57581615 0.709253132 -0.248741299 1.57606101 0.708248138 -0.249743491 1.57603347 0.708735228 -0.249256685 1.57193315 0.707797587 -0.250138074 1.57283795 0.707706332 -0.250283867 1.57249784 0.709766388 -0.248223945 1.57248342 0.70994395 -0.247988358 1.57346487 0.708824039 -0.249108627 1.57228446 0.707797587 -0.250138074 1.57283795 0.707481325 -0.250450224 1.57463574 0.707706332 -0.250283867 1.57249784 0.707706332 -0.250283867 1.57249784 0.707481325 -0.250450224 1.57463574 0.707267225 -0.250724882 1.57378042 0.708735228 -0.249256685 1.57193315 0.708824039 -0.249108627 1.57228446 0.707797587 -0.250138074 1.57283795 0.707481325 -0.250450224 1.57463574 0.708248138 -0.249743491 1.57603347 0.707459807 -0.250540704 1.57517028 0.707481325 -0.250450224 1.57463574 0.708600998 -0.249329686 1.57581615 0.708248138 -0.249743491 1.57603347 0.709766388 -0.248223945 1.57248342 0.710256994 -0.247716978 1.57448721 0.70994395 -0.247988358 1.57346487 0.708735228 -0.249256685 1.57193315 0.709766388 -0.248223945 1.57248342 0.708824039 -0.249108627 1.57228446 0.70994395 -0.247988358 1.57346487 0.710256994 -0.247716978 1.57448721 0.709630787 -0.248303607 1.57526267 0.709630787 -0.248303607 1.57526267 0.709253132 -0.248741299 1.57606101 0.708600998 -0.249329686 1.57581615 0.704036474 -0.243324414 1.57261276 0.704504788 -0.242853895 1.57496572 0.702817082 -0.244542003 1.57548189 0.704036474 -0.243324414 1.57261276 0.702817082 -0.244542003 1.57548189 0.702347934 -0.245011732 1.57312894 0.700432718 -0.244114801 1.57628977 0.703126669 -0.243633077 1.57404721 0.696950555 -0.249908298 1.57404256 0.700432718 -0.244114801 1.57628977 0.696950555 -0.249908298 1.57404256 0.695857286 -0.248752654 1.57631803 0.700416327 -0.244120911 1.57178271 0.695861995 -0.248752534 1.57177007 0.696950555 -0.249908298 1.57404256 0.703126669 -0.243633077 1.57404721 0.700416327 -0.244120911 1.57178271 0.696950555 -0.249908298 1.57404256 0.709409356 -0.23745805 1.57405186 0.708246469 -0.236367419 1.57177937 0.703616261 -0.240921065 1.57178497 0.709409356 -0.23745805 1.57405186 0.703616261 -0.240921065 1.57178497 0.703126669 -0.243633077 1.57404721 0.709409356 -0.23745805 1.57405186 0.703126669 -0.243633077 1.57404721 0.703608036 -0.240937158 1.57629561 0.708245575 -0.236367196 1.57632315 0.709409356 -0.23745805 1.57405186 0.703608036 -0.240937158 1.57629561 </float_array>
          <technique_common>
            <accessor count="786" offset="0" source="#mesh_0-positions-array" stride="3">
              <param name="X" type="float" />
              <param name="Y" type="float" />
              <param name="Z" type="float" />
            </accessor>
          </technique_common>
        </source>
        <vertices id="mesh_0-vertices">
          <input semantic="POSITION" source="#mesh_0-positions" />
        </vertices>
        <polylist count="262" material="defaultMaterial">
          <input offset="0" semantic="VERTEX" source="#mesh_0-vertices" />
          <vcount>3 3 3 3 3 3 3 3 3 3 3 3 3 3 3 3 3 3 3 3 3 3 3 3 3 3 3 3 3 3 3 3 3 3 3 3 3 3 3 3 3 3 3 3 3 3 3 3 3 3 3 3 3 3 3 3 3 3 3 3 3 3 3 3 3 3 3 3 3 3 3 3 3 3 3 3 3 3 3 3 3 3 3 3 3 3 3 3 3 3 3 3 3 3 3 3 3 3 3 3 3 3 3 3 3 3 3 3 3 3 3 3 3 3 3 3 3 3 3 3 3 3 3 3 3 3 3 3 3 3 3 3 3 3 3 3 3 3 3 3 3 3 3 3 3 3 3 3 3 3 3 3 3 3 3 3 3 3 3 3 3 3 3 3 3 3 3 3 3 3 3 3 3 3 3 3 3 3 3 3 3 3 3 3 3 3 3 3 3 3 3 3 3 3 3 3 3 3 3 3 3 3 3 3 3 3 3 3 3 3 3 3 3 3 3 3 3 3 3 3 3 3 3 3 3 3 3 3 3 3 3 3 3 3 3 3 3 3 3 3 3 3 3 3 3 3 3 3 3 3 3 3 3 3 3 3 3 3 3 3 3 3 </vcount>
          <p>0 1 2 3 4 5 6 7 8 9 10 11 12 13 14 15 16 17 18 19 20 21 22 23 24 25 26 27 28 29 30 31 32 33 34 35 36 37 38 39 40 41 42 43 44 45 46 47 48 49 50 51 52 53 54 55 56 57 58 59 60 61 62 63 64 65 66 67 68 69 70 71 72 73 74 75 76 77 78 79 80 81 82 83 84 85 86 87 88 89 90 91 92 93 94 95 96 97 98 99 100 101 102 103 104 105 106 107 108 109 110 111 112 113 114 115 116 117 118 119 120 121 122 123 124 125 126 127 128 129 130 131 132 133 134 135 136 137 138 139 140 141 142 143 144 145 146 147 148 149 150 151 152 153 154 155 156 157 158 159 160 161 162 163 164 165 166 167 168 169 170 171 172 173 174 175 176 177 178 179 180 181 182 183 184 185 186 187 188 189 190 191 192 193 194 195 196 197 198 199 200 201 202 203 204 205 206 207 208 209 210 211 212 213 214 215 216 217 218 219 220 221 222 223 224 225 226 227 228 229 230 231 232 233 234 235 236 237 238 239 240 241 242 243 244 245 246 247 248 249 250 251 252 253 254 255 256 257 258 259 260 261 262 263 264 265 266 267 268 269 270 271 272 273 274 275 276 277 278 279 280 281 282 283 284 285 286 287 288 289 290 291 292 293 294 295 296 297 298 299 300 301 302 303 304 305 306 307 308 309 310 311 312 313 314 315 316 317 318 319 320 321 322 323 324 325 326 327 328 329 330 331 332 333 334 335 336 337 338 339 340 341 342 343 344 345 346 347 348 349 350 351 352 353 354 355 356 357 358 359 360 361 362 363 364 365 366 367 368 369 370 371 372 373 374 375 376 377 378 379 380 381 382 383 384 385 386 387 388 389 390 391 392 393 394 395 396 397 398 399 400 401 402 403 404 405 406 407 408 409 410 411 412 413 414 415 416 417 418 419 420 421 422 423 424 425 426 427 428 429 430 431 432 433 434 435 436 437 438 439 440 441 442 443 444 445 446 447 448 449 450 451 452 453 454 455 456 457 458 459 460 461 462 463 464 465 466 467 468 469 470 471 472 473 474 475 476 477 478 479 480 481 482 483 484 485 486 487 488 489 490 491 492 493 494 495 496 497 498 499 500 501 502 503 504 505 506 507 508 509 510 511 512 513 514 515 516 517 518 519 520 521 522 523 524 525 526 527 528 529 530 531 532 533 534 535 536 537 538 539 540 541 542 543 544 545 546 547 548 549 550 551 552 553 554 555 556 557 558 559 560 561 562 563 564 565 566 567 568 569 570 571 572 573 574 575 576 577 578 579 580 581 582 583 584 585 586 587 588 589 590 591 592 593 594 595 596 597 598 599 600 601 602 603 604 605 606 607 608 609 610 611 612 613 614 615 616 617 618 619 620 621 622 623 624 625 626 627 628 629 630 631 632 633 634 635 636 637 638 639 640 641 642 643 644 645 646 647 648 649 650 651 652 653 654 655 656 657 658 659 660 661 662 663 664 665 666 667 668 669 670 671 672 673 674 675 676 677 678 679 680 681 682 683 684 685 686 687 688 689 690 691 692 693 694 695 696 697 698 699 700 701 702 703 704 705 706 707 708 709 710 711 712 713 714 715 716 717 718 719 720 721 722 723 724 725 726 727 728 729 730 731 732 733 734 735 736 737 738 739 740 741 742 743 744 745 746 747 748 749 750 751 752 753 754 755 756 757 758 759 760 761 762 763 764 765 766 767 768 769 770 771 772 773 774 775 776 777 778 779 780 781 782 783 784 785 </p>
        </polylist>
      </mesh>
    </geometry>
  </library_geometries>
  <library_controllers>
  </library_controllers>
  <library_visual_scenes>
    <visual_scene id="Scene" name="Scene">
      <node id="node" name="" type="NODE">
        <matrix sid="matrix">1 0 0 0 0 1 0 0 0 0 1 0 0 0 0 1</matrix>
        <instance_geometry url="#mesh_0">
          <bind_material>
            <technique_common>
              <instance_material symbol="defaultMaterial" target="#material_0">
              </instance_material>
            </technique_common>
          </bind_material>
        </instance_geometry>
      </node>
    </visual_scene>
  </library_visual_scenes>
  <scene>
    <instance_visual_scene url="#Scene" />
  </scene>
</COLLADA>
