<?xml version="1.0" encoding="UTF-8" standalone="no" ?>
<COLLADA xmlns="http://www.collada.org/2005/11/COLLADASchema" version="1.4.1">
  <asset>
    <contributor>
      <author>Assimp</author>
      <authoring_tool>Assimp Exporter</authoring_tool>
    </contributor>
    <created>2026-04-22T16:09:44</created>
    <modified>2026-04-22T16:09:44</modified>
    <unit name="meter" meter="1" />
    <up_axis>Y_UP</up_axis>
  </asset>
  <library_images>
  </library_images>
  <library_effects>
    <effect id="material_0-fx" name="">
      <profile_COMMON>
        <technique sid="standard">
          <phong>
            <emission>
              <color sid="emission">0   0   0   1.24774945</color>
            </emission>
            <ambient>
              <color sid="ambient">0.699999988   0.699999988   0.699999988   1.40256</color>
            </ambient>
            <diffuse>
              <color sid="diffuse">0.699999988   0.699999988   0.699999988   1.40256</color>
            </diffuse>
            <specular>
              <color sid="specular">0.300000012   0.300000012   0.300000012   -1.80161154</color>
            </specular>
          </phong>
        </technique>
      </profile_COMMON>
    </effect>
  </library_effects>
  <library_materials>
    <material id="material_0" name="">
      <instance_effect url="#material_0-fx"/>
    </material>
  </library_materials>
  <library_geometries>
    <geometry id="mesh_0" name="" >
      <mesh>
        <source id="mesh_0-positions" name="mesh_0-positions">
          <float_array id="mesh_0-positions-array" count="378"> -0.0918930769 -0.00188642507 1.66591156 -0.0902677104 -0.00327148964 1.65052974 -0.195154369 0.0847369656 1.65065789 -0.109879576 -0.0266444664 1.65056312 -0.111504242 -0.0252585746 1.66594493 -0.214765936 0.0613643564 1.65069127 -0.0896067396 -0.00382604194 1.65073526 -0.0902677104 -0.00327148964 1.65052974 -0.0875763744 -0.00552399782 1.65483153 -0.195154369 0.0847369656 1.65065789 -0.196046054 0.0854855105 1.65096104 -0.196935058 0.0862325355 1.65177429 -0.196935058 0.0862325355 1.65177429 -0.197546691 0.0867472291 1.65286434 -0.197838068 0.0869942307 1.65440941 -0.197838068 0.0869942307 1.65440941 -0.197746888 0.0869193077 1.65551317 -0.196935058 0.0862325355 1.65177429 -0.196896657 0.0862115622 1.65947974 -0.195782155 0.0852828473 1.66389036 -0.193542078 0.0834051892 1.66602314 -0.195141375 0.0847463608 1.66498613 -0.194462508 0.0841776952 1.66560698 -0.195782155 0.0852828473 1.66389036 -0.193542078 0.0834051892 1.66602314 -0.0918930769 -0.00188642507 1.66591156 -0.195154369 0.0847369656 1.65065789 -0.0909427404 -0.0026852719 1.66550851 -0.0901204273 -0.0033755973 1.66472566 -0.0895385817 -0.00386638544 1.66358066 -0.0895385817 -0.00386638544 1.66358066 -0.0918930769 -0.00188642507 1.66591156 -0.0909427404 -0.0026852719 1.66550851 -0.0875763744 -0.00552399782 1.65483153 -0.0876313895 -0.00547932228 1.65373421 -0.0896067396 -0.00382604194 1.65073526 -0.0878933147 -0.00526105892 1.65267718 -0.0884118229 -0.00482723722 1.65174484 -0.0876313895 -0.00547932228 1.65373421 -0.0889618695 -0.00436656456 1.65114224 -0.0896067396 -0.00382604194 1.65073526 -0.0884118229 -0.00482723722 1.65174484 -0.195154369 0.0847369656 1.65065789 -0.196935058 0.0862325355 1.65177429 -0.197746888 0.0869193077 1.65551317 -0.197746888 0.0869193077 1.65551317 -0.196896657 0.0862115622 1.65947974 -0.195154369 0.0847369656 1.65065789 -0.194462508 0.0841776952 1.66560698 -0.193542078 0.0834051892 1.66602314 -0.195782155 0.0852828473 1.66389036 -0.0895385817 -0.00386638544 1.66358066 -0.0883589238 -0.00486323889 1.65876114 -0.0918930769 -0.00188642507 1.66591156 -0.0876313895 -0.00547932228 1.65373421 -0.0884118229 -0.00482723722 1.65174484 -0.0896067396 -0.00382604194 1.65073526 -0.0902677104 -0.00327148964 1.65052974 -0.0918930769 -0.00188642507 1.66591156 -0.0883589238 -0.00486323889 1.65876114 -0.196896657 0.0862115622 1.65947974 -0.193542078 0.0834051892 1.66602314 -0.195154369 0.0847369656 1.65065789 -0.0883589238 -0.00486323889 1.65876114 -0.0875763744 -0.00552399782 1.65483153 -0.0902677104 -0.00327148964 1.65052974 -0.214073986 0.0608051755 1.66564023 -0.214752778 0.0613739341 1.66501951 -0.215393946 0.0619099624 1.66392374 -0.215393946 0.0619099624 1.66392374 -0.216508299 0.0628388599 1.65951312 -0.213152781 0.0600335896 1.66605651 -0.21735853 0.0635466054 1.65554655 -0.217449695 0.0636215284 1.65444279 -0.216546461 0.0628601089 1.65180755 -0.21715802 0.0633748993 1.65289772 -0.216546461 0.0628601089 1.65180755 -0.217449695 0.0636215284 1.65444279 -0.215657532 0.0621129945 1.65099442 -0.214765936 0.0613643564 1.65069127 -0.216546461 0.0628601089 1.65180755 -0.109879576 -0.0266444664 1.65056312 -0.109218374 -0.0271987431 1.65076864 -0.107242949 -0.0288519301 1.65376759 -0.108573496 -0.0277392659 1.65117562 -0.108023457 -0.0281999391 1.65177822 -0.109218374 -0.0271987431 1.65076864 -0.107504867 -0.0286336672 1.65271056 -0.107242949 -0.0288519301 1.65376759 -0.108023457 -0.0281999391 1.65177822 -0.107187852 -0.0288965143 1.65486491 -0.109879576 -0.0266444664 1.65056312 -0.107242949 -0.0288519301 1.65376759 -0.109148748 -0.0272373408 1.66361392 -0.109731518 -0.0267476551 1.66475904 -0.110553063 -0.0260564107 1.66554189 -0.110553063 -0.0260564107 1.66554189 -0.111504242 -0.0252585746 1.66594493 -0.109148748 -0.0272373408 1.66361392 -0.213152781 0.0600335896 1.66605651 -0.214073986 0.0608051755 1.66564023 -0.215393946 0.0619099624 1.66392374 -0.216508299 0.0628388599 1.65951312 -0.21735853 0.0635466054 1.65554655 -0.214765936 0.0613643564 1.65069127 -0.216546461 0.0628601089 1.65180755 -0.214765936 0.0613643564 1.65069127 -0.21735853 0.0635466054 1.65554655 -0.109218374 -0.0271987431 1.65076864 -0.108023457 -0.0281999391 1.65177822 -0.107242949 -0.0288519301 1.65376759 -0.107187852 -0.0288965143 1.65486491 -0.107968949 -0.0282340255 1.65879452 -0.109879576 -0.0266444664 1.65056312 -0.109148748 -0.0272373408 1.66361392 -0.111504242 -0.0252585746 1.66594493 -0.107968949 -0.0282340255 1.65879452 -0.213152781 0.0600335896 1.66605651 -0.216508299 0.0628388599 1.65951312 -0.214765936 0.0613643564 1.65069127 -0.214765936 0.0613643564 1.65069127 -0.111504242 -0.0252585746 1.66594493 -0.213152781 0.0600335896 1.66605651 -0.107968949 -0.0282340255 1.65879452 -0.111504242 -0.0252585746 1.66594493 -0.109879576 -0.0266444664 1.65056312 </float_array>
          <technique_common>
            <accessor count="126" offset="0" source="#mesh_0-positions-array" stride="3">
              <param name="X" type="float" />
              <param name="Y" type="float" />
              <param name="Z" type="float" />
            </accessor>
          </technique_common>
        </source>
        <vertices id="mesh_0-vertices">
          <input semantic="POSITION" source="#mesh_0-positions" />
        </vertices>
        <polylist count="42" material="defaultMaterial">
          <input offset="0" semantic="VERTEX" source="#mesh_0-vertices" />
          <vcount>3 3 3 3 3 3 3 3 3 3 3 3 3 3 3 3 3 3 3 3 3 3 3 3 3 3 3 3 3 3 3 3 3 3 3 3 3 3 3 3 3 3 </vcount>
          <p>0 1 2 3 4 5 6 7 8 9 10 11 12 13 14 15 16 17 18 19 20 21 22 23 24 25 26 27 28 29 30 31 32 33 34 35 36 37 38 39 40 41 42 43 44 45 46 47 48 49 50 51 52 53 54 55 56 57 58 59 60 61 62 63 64 65 66 67 68 69 70 71 72 73 74 75 76 77 78 79 80 81 82 83 84 85 86 87 88 89 90 91 92 93 94 95 96 97 98 99 100 101 102 103 104 105 106 107 108 109 110 111 112 113 114 115 116 117 118 119 120 121 122 123 124 125 </p>
        </polylist>
      </mesh>
    </geometry>
  </library_geometries>
  <library_controllers>
  </library_controllers>
  <library_visual_scenes>
    <visual_scene id="Scene" name="Scene">
      <node id="node" name="" type="NODE">
        <matrix sid="matrix">1 0 0 0 0 1 0 0 0 0 1 0 0 0 0 1</matrix>
        <instance_geometry url="#mesh_0">
          <bind_material>
            <technique_common>
              <instance_material symbol="defaultMaterial" target="#material_0">
              </instance_material>
            </technique_common>
          </bind_material>
        </instance_geometry>
      </node>
    </visual_scene>
  </library_visual_scenes>
  <scene>
    <instance_visual_scene url="#Scene" />
  </scene>
</COLLADA>
