<?xml version="1.0" encoding="UTF-8" standalone="no" ?>
<COLLADA xmlns="http://www.collada.org/2005/11/COLLADASchema" version="1.4.1">
  <asset>
    <contributor>
      <author>Assimp</author>
      <authoring_tool>Assimp Exporter</authoring_tool>
    </contributor>
    <created>2026-04-22T16:09:44</created>
    <modified>2026-04-22T16:09:44</modified>
    <unit name="meter" meter="1" />
    <up_axis>Y_UP</up_axis>
  </asset>
  <library_images>
  </library_images>
  <library_effects>
    <effect id="material_0-fx" name="">
      <profile_COMMON>
        <technique sid="standard">
          <phong>
            <emission>
              <color sid="emission">0   0   0   4.19744942e-41</color>
            </emission>
            <ambient>
              <color sid="ambient">0.949018478   0.605675161   0.758588374   4.19730929e-41</color>
            </ambient>
            <diffuse>
              <color sid="diffuse">0.949018478   0.605675161   0.758588374   4.19730929e-41</color>
            </diffuse>
            <specular>
              <color sid="specular">0.25   0.25   0.25   4.19744942e-41</color>
            </specular>
          </phong>
        </technique>
      </profile_COMMON>
    </effect>
  </library_effects>
  <library_materials>
    <material id="material_0" name="">
      <instance_effect url="#material_0-fx"/>
    </material>
  </library_materials>
  <library_geometries>
    <geometry id="mesh_0" name="" >
      <mesh>
        <source id="mesh_0-positions" name="mesh_0-positions">
          <float_array id="mesh_0-positions-array" count="2700"> -0.129442662 -0.0619412102 1.35915864 -0.117057398 -0.0609253831 1.36952806 -0.123581469 -0.0687064826 1.37439907 -0.123581469 -0.0687064826 1.37439907 -0.117057398 -0.0609253831 1.36952806 -0.108690225 -0.0602935515 1.38477671 -0.1870002 0.0209336672 1.5227592 -0.227290511 -0.031183809 1.52280259 -0.207135454 -0.0206110831 1.52278256 -0.114887521 0.0322623588 1.430354 -0.19966349 0.0579243824 1.52276468 -0.188920662 0.0374703966 1.52275848 -0.250567377 0.076934129 1.52277946 -0.1870002 0.0209336672 1.5227592 -0.238652304 0.0773478225 1.52279711 -0.207135454 -0.0206110831 1.52278256 -0.227290511 -0.031183809 1.52280259 -0.129485756 -0.0692070201 1.42865646 -0.1870002 0.0209336672 1.5227592 -0.114887521 0.0322623588 1.430354 -0.188920662 0.0374703966 1.52275848 -0.218757227 0.0724431723 1.5227921 -0.188920662 0.0374703966 1.52275848 -0.19966349 0.0579243824 1.52276468 -0.116560765 -0.032276988 1.36221135 -0.123786211 -0.0524970368 1.35944295 -0.128044039 -0.0337370746 1.35299456 -0.116560765 -0.032276988 1.36221135 -0.128044039 -0.0337370746 1.35299456 -0.126113579 0.0318583921 1.35509324 -0.116560765 -0.032276988 1.36221135 -0.114148051 -0.0513512976 1.36881864 -0.123786211 -0.0524970368 1.35944295 -0.264591724 -0.0283830781 1.52284145 -0.24710387 -0.0326807946 1.52282274 -0.1870002 0.0209336672 1.5227592 -0.116195895 -0.0680300817 1.38785827 -0.123581469 -0.0687064826 1.37439907 -0.108690225 -0.0602935515 1.38477671 -0.134116873 -0.077062048 1.39110351 -0.123581469 -0.0687064826 1.37439907 -0.116195895 -0.0680300817 1.38785827 -0.117057398 -0.0609253831 1.36952806 -0.109054178 -0.0534846522 1.3784579 -0.108690225 -0.0602935515 1.38477671 -0.218757227 0.0724431723 1.5227921 -0.238652304 0.0773478225 1.52279711 -0.1870002 0.0209336672 1.5227592 -0.218757227 0.0724431723 1.5227921 -0.1870002 0.0209336672 1.5227592 -0.188920662 0.0374703966 1.52275848 -0.137561023 0.0308377407 1.34829712 -0.240244076 0.0678654611 1.4386282 -0.126113579 0.0318583921 1.35509324 -0.116313361 0.0327349119 1.3651402 -0.126113579 0.0318583921 1.35509324 -0.240244076 0.0678654611 1.4386282 -0.227290511 -0.031183809 1.52280259 -0.149192989 -0.0707914159 1.43639886 -0.129485756 -0.0692070201 1.42865646 -0.190644324 0.000999040669 1.52276373 -0.113063887 -0.033006411 1.43105257 -0.1870002 0.0209336672 1.5227592 -0.10584715 0.0335311405 1.40905452 -0.105760559 -0.0317337178 1.41912019 -0.101718053 -0.0306400191 1.4005245 -0.123786211 -0.0524970368 1.35944295 -0.133967564 -0.0555395856 1.35435236 -0.128044039 -0.0337370746 1.35299456 -0.116560765 -0.032276988 1.36221135 -0.126113579 0.0318583921 1.35509324 -0.116313361 0.0327349119 1.3651402 -0.116560765 -0.032276988 1.36221135 -0.109106079 -0.0317791738 1.37198472 -0.114148051 -0.0513512976 1.36881864 -0.109106079 -0.0317791738 1.37198472 -0.116560765 -0.032276988 1.36221135 -0.116313361 0.0327349119 1.3651402 -0.129442662 -0.0619412102 1.35915864 -0.123786211 -0.0524970368 1.35944295 -0.117057398 -0.0609253831 1.36952806 -0.123786211 -0.0524970368 1.35944295 -0.114148051 -0.0513512976 1.36881864 -0.117057398 -0.0609253831 1.36952806 -0.116313361 0.0327349119 1.3651402 -0.240244076 0.0678654611 1.4386282 -0.237575993 0.0734032169 1.4682802 -0.237575993 0.0734032169 1.4682802 -0.233194262 0.0750139356 1.48729444 -0.109809168 0.0331976637 1.3758291 -0.278477997 -0.0179616902 1.49438167 -0.186075345 -0.0741167217 1.38671494 -0.188148662 -0.0742562935 1.4015162 -0.165681973 -0.0801388621 1.40786052 -0.24710387 -0.0326807946 1.52282274 -0.264591724 -0.0283830781 1.52284145 -0.264591724 -0.0283830781 1.52284145 -0.183694214 -0.073927775 1.41618884 -0.165681973 -0.0801388621 1.40786052 -0.278477997 -0.0179616902 1.49438167 -0.27635628 -0.021224482 1.52281642 -0.285940796 -0.0114881527 1.52282822 -0.264591724 -0.0283830781 1.52284145 -0.188148662 -0.0742562935 1.4015162 -0.183694214 -0.073927775 1.41618884 -0.188148662 -0.0742562935 1.4015162 -0.165681973 -0.0801388621 1.40786052 -0.183694214 -0.073927775 1.41618884 -0.114148051 -0.0513512976 1.36881864 -0.109054178 -0.0534846522 1.3784579 -0.117057398 -0.0609253831 1.36952806 -0.108690225 -0.0602935515 1.38477671 -0.106491111 -0.059164755 1.40326095 -0.114688329 -0.0679375678 1.40230107 -0.106491111 -0.059164755 1.40326095 -0.108690225 -0.0602935515 1.38477671 -0.104567863 -0.053445857 1.40198302 -0.131533504 -0.0765158832 1.40028703 -0.116195895 -0.0680300817 1.38785827 -0.114688329 -0.0679375678 1.40230107 -0.116195895 -0.0680300817 1.38785827 -0.131533504 -0.0765158832 1.40028703 -0.134116873 -0.077062048 1.39110351 -0.116195895 -0.0680300817 1.38785827 -0.108690225 -0.0602935515 1.38477671 -0.114688329 -0.0679375678 1.40230107 -0.123581469 -0.0687064826 1.37439907 -0.134116873 -0.077062048 1.39110351 -0.137774587 -0.0768461674 1.38360989 -0.146625161 -0.0805748999 1.39165509 -0.134116873 -0.077062048 1.39110351 -0.141599447 -0.0799182951 1.40120518 -0.137906015 -0.069997333 1.36438227 -0.129442662 -0.0619412102 1.35915864 -0.123581469 -0.0687064826 1.37439907 -0.186075345 -0.0741167217 1.38671494 -0.276381314 -0.00949793309 1.44239044 -0.193955809 -0.0635707751 1.37783325 -0.179912657 -0.0736276656 1.37572491 -0.163836971 -0.0802906826 1.38885987 -0.186075345 -0.0741167217 1.38671494 -0.227290511 -0.031183809 1.52280259 -0.1870002 0.0209336672 1.5227592 -0.24710387 -0.0326807946 1.52282274 -0.227290511 -0.031183809 1.52280259 -0.24710387 -0.0326807946 1.52282274 -0.149192989 -0.0707914159 1.43639886 -0.149192989 -0.0707914159 1.43639886 -0.24710387 -0.0326807946 1.52282274 -0.15635857 -0.0787576288 1.41695857 -0.296739817 0.0142240925 1.52286124 -0.295396417 0.00958246831 1.503438 -0.292504102 -0.000390968286 1.52284217 -0.238652304 0.0773478225 1.52279711 -0.218757227 0.0724431723 1.5227921 -0.227976978 0.075190559 1.50671756 -0.236846894 0.0767874047 1.50456536 -0.227976978 0.075190559 1.50671756 -0.233194262 0.0750139356 1.48729444 -0.267562807 0.0712841824 1.5228225 -0.277049214 0.0651024356 1.52282143 -0.1870002 0.0209336672 1.5227592 -0.1870002 0.0209336672 1.5227592 -0.250567377 0.076934129 1.52277946 -0.267562807 0.0712841824 1.5228225 -0.250567377 0.076934129 1.52277946 -0.238652304 0.0773478225 1.52279711 -0.236846894 0.0767874047 1.50456536 -0.233194262 0.0750139356 1.48729444 -0.227976978 0.075190559 1.50671756 -0.106188521 0.0336050428 1.38742018 -0.207135454 -0.0206110831 1.52278256 -0.190644324 0.000999040669 1.52276373 -0.1870002 0.0209336672 1.5227592 -0.218757227 0.0724431723 1.5227921 -0.10584715 0.0335311405 1.40905452 -0.105078332 0.0336614996 1.39586616 -0.109943233 0.0332471915 1.4218291 -0.10584715 0.0335311405 1.40905452 -0.218757227 0.0724431723 1.5227921 -0.105760559 -0.0317337178 1.41912019 -0.114887521 0.0322623588 1.430354 -0.113063887 -0.033006411 1.43105257 -0.106188521 0.0336050428 1.38742018 -0.109809168 0.0331976637 1.3758291 -0.233194262 0.0750139356 1.48729444 -0.251418471 0.0740800202 1.47842383 -0.246755838 0.075959675 1.49172878 -0.237575993 0.0734032169 1.4682802 -0.126113579 0.0318583921 1.35509324 -0.128044039 -0.0337370746 1.35299456 -0.137561023 0.0308377407 1.34829712 -0.128044039 -0.0337370746 1.35299456 -0.133967564 -0.0555395856 1.35435236 -0.145279467 -0.0349938869 1.3466469 -0.129442662 -0.0619412102 1.35915864 -0.133967564 -0.0555395856 1.35435236 -0.123786211 -0.0524970368 1.35944295 -0.109106079 -0.0317791738 1.37198472 -0.116313361 0.0327349119 1.3651402 -0.109809168 0.0331976637 1.3758291 -0.264591724 -0.0283830781 1.52284145 -0.27635628 -0.021224482 1.52281642 -0.188148662 -0.0742562935 1.4015162 -0.264591724 -0.0283830781 1.52284145 -0.1870002 0.0209336672 1.5227592 -0.27635628 -0.021224482 1.52281642 -0.27635628 -0.021224482 1.52281642 -0.278477997 -0.0179616902 1.49438167 -0.188148662 -0.0742562935 1.4015162 -0.279432088 0.037602555 1.42781544 -0.276037663 0.04349133 1.42745793 -0.191572741 0.0257958248 1.35356772 -0.166498736 -0.0806930736 1.40004766 -0.186075345 -0.0741167217 1.38671494 -0.163836971 -0.0802906826 1.38885987 -0.104567863 -0.053445857 1.40198302 -0.109728612 -0.0587119088 1.41701376 -0.106491111 -0.059164755 1.40326095 -0.104567863 -0.053445857 1.40198302 -0.107708856 -0.0518343523 1.4170202 -0.109728612 -0.0587119088 1.41701376 -0.109054178 -0.0534846522 1.3784579 -0.109106079 -0.0317791738 1.37198472 -0.103892446 -0.0324193649 1.38394487 -0.109054178 -0.0534846522 1.3784579 -0.114148051 -0.0513512976 1.36881864 -0.109106079 -0.0317791738 1.37198472 -0.105259769 -0.0522684976 1.38911867 -0.109054178 -0.0534846522 1.3784579 -0.103892446 -0.0324193649 1.38394487 -0.105259769 -0.0522684976 1.38911867 -0.104567863 -0.053445857 1.40198302 -0.108690225 -0.0602935515 1.38477671 -0.105259769 -0.0522684976 1.38911867 -0.103892446 -0.0324193649 1.38394487 -0.101718053 -0.0306400191 1.4005245 -0.165681973 -0.0801388621 1.40786052 -0.15635857 -0.0787576288 1.41695857 -0.24710387 -0.0326807946 1.52282274 -0.142918184 -0.0777157098 1.41591644 -0.129485756 -0.0692070201 1.42865646 -0.149192989 -0.0707914159 1.43639886 -0.163836971 -0.0802906826 1.38885987 -0.146625161 -0.0805748999 1.39165509 -0.154701799 -0.0815762058 1.40170443 -0.141599447 -0.0799182951 1.40120518 -0.131533504 -0.0765158832 1.40028703 -0.13537544 -0.0771783665 1.40873706 -0.179912657 -0.0736276656 1.37572491 -0.186075345 -0.0741167217 1.38671494 -0.193955809 -0.0635707751 1.37783325 -0.184894681 -0.0630921796 1.3648535 -0.179912657 -0.0736276656 1.37572491 -0.193955809 -0.0635707751 1.37783325 -0.279165536 -0.00332642463 1.43635571 -0.184894681 -0.0630921796 1.3648535 -0.193955809 -0.0635707751 1.37783325 -0.176595941 -0.0384227186 1.35113227 -0.183481768 0.0267602913 1.34878695 -0.170698211 0.0279342402 1.34445405 -0.146898031 -0.0558914356 1.35056484 -0.145279467 -0.0349938869 1.3466469 -0.133967564 -0.0555395856 1.35435236 -0.1870002 0.0209336672 1.5227592 -0.292504102 -0.000390968286 1.52284217 -0.285940796 -0.0114881527 1.52282822 -0.1870002 0.0209336672 1.5227592 -0.285940796 -0.0114881527 1.52282822 -0.27635628 -0.021224482 1.52281642 -0.296739817 0.0142240925 1.52286124 -0.292504102 -0.000390968286 1.52284217 -0.1870002 0.0209336672 1.5227592 -0.238652304 0.0773478225 1.52279711 -0.227976978 0.075190559 1.50671756 -0.236846894 0.0767874047 1.50456536 -0.293648183 0.0418564491 1.52285469 -0.296860158 0.0289263371 1.52285945 -0.1870002 0.0209336672 1.5227592 -0.293648183 0.0418564491 1.52285469 -0.1870002 0.0209336672 1.5227592 -0.287819296 0.0530592799 1.52284956 -0.240244076 0.0678654611 1.4386282 -0.145163 0.030161975 1.34558141 -0.155995756 0.0291595366 1.34357917 -0.155995756 0.0291595366 1.34357917 -0.249606863 0.0665877536 1.43638515 -0.240244076 0.0678654611 1.4386282 -0.240244076 0.0678654611 1.4386282 -0.137561023 0.0308377407 1.34829712 -0.145163 0.030161975 1.34558141 -0.207135454 -0.0206110831 1.52278256 -0.129485756 -0.0692070201 1.42865646 -0.120379008 -0.0591209531 1.43256617 -0.113063887 -0.033006411 1.43105257 -0.114887521 0.0322623588 1.430354 -0.1870002 0.0209336672 1.5227592 -0.109943233 0.0332471915 1.4218291 -0.19966349 0.0579243824 1.52276468 -0.114887521 0.0322623588 1.430354 -0.109943233 0.0332471915 1.4218291 -0.218757227 0.0724431723 1.5227921 -0.19966349 0.0579243824 1.52276468 -0.105078332 0.0336614996 1.39586616 -0.101718053 -0.0306400191 1.4005245 -0.106188521 0.0336050428 1.38742018 -0.10584715 0.0335311405 1.40905452 -0.109943233 0.0332471915 1.4218291 -0.105760559 -0.0317337178 1.41912019 -0.107708856 -0.0518343523 1.4170202 -0.104567863 -0.053445857 1.40198302 -0.105760559 -0.0317337178 1.41912019 -0.105760559 -0.0317337178 1.41912019 -0.104567863 -0.053445857 1.40198302 -0.101718053 -0.0306400191 1.4005245 -0.155995756 0.0291595366 1.34357917 -0.170698211 0.0279342402 1.34445405 -0.249606863 0.0665877536 1.43638515 -0.270309657 0.0522479452 1.4290334 -0.258211166 0.0607681088 1.4297688 -0.183481768 0.0267602913 1.34878695 -0.276037663 0.04349133 1.42745793 -0.270309657 0.0522479452 1.4290334 -0.191572741 0.0257958248 1.35356772 -0.270309657 0.0522479452 1.4290334 -0.183481768 0.0267602913 1.34878695 -0.191572741 0.0257958248 1.35356772 -0.258211166 0.0607681088 1.4297688 -0.249606863 0.0665877536 1.43638515 -0.170698211 0.0279342402 1.34445405 -0.246755838 0.075959675 1.49172878 -0.250567377 0.076934129 1.52277946 -0.236846894 0.0767874047 1.50456536 -0.103892446 -0.0324193649 1.38394487 -0.109809168 0.0331976637 1.3758291 -0.106188521 0.0336050428 1.38742018 -0.145279467 -0.0349938869 1.3466469 -0.137561023 0.0308377407 1.34829712 -0.128044039 -0.0337370746 1.35299456 -0.237575993 0.0734032169 1.4682802 -0.109809168 0.0331976637 1.3758291 -0.116313361 0.0327349119 1.3651402 -0.186139762 -0.0399380624 1.3571887 -0.184894681 -0.0630921796 1.3648535 -0.279978037 0.0158411358 1.42550302 -0.290790945 0.000360456121 1.48412919 -0.286498368 0.0029179391 1.45127499 -0.284649491 -0.00542537728 1.46403146 -0.286480755 -0.00891677104 1.49477506 -0.278590858 -0.0148018347 1.47337031 -0.278477997 -0.0179616902 1.49438167 -0.284975976 0.0396963507 1.44096148 -0.286542028 0.0276069157 1.43524468 -0.291370392 0.0312643647 1.46003592 -0.284162194 0.0363648571 1.43466699 -0.286542028 0.0276069157 1.43524468 -0.284975976 0.0396963507 1.44096148 -0.191572741 0.0257958248 1.35356772 -0.279978037 0.0158411358 1.42550302 -0.280891806 0.0284448378 1.42651892 -0.280891806 0.0284448378 1.42651892 -0.279432088 0.037602555 1.42781544 -0.191572741 0.0257958248 1.35356772 -0.279978037 0.0158411358 1.42550302 -0.191572741 0.0257958248 1.35356772 -0.186139762 -0.0399380624 1.3571887 -0.186075345 -0.0741167217 1.38671494 -0.166498736 -0.0806930736 1.40004766 -0.188148662 -0.0742562935 1.4015162 -0.114380561 -0.0525336675 1.42847347 -0.105760559 -0.0317337178 1.41912019 -0.113063887 -0.033006411 1.43105257 -0.105259769 -0.0522684976 1.38911867 -0.108690225 -0.0602935515 1.38477671 -0.109054178 -0.0534846522 1.3784579 -0.154701799 -0.0815762058 1.40170443 -0.165681973 -0.0801388621 1.40786052 -0.166498736 -0.0806930736 1.40004766 -0.141599447 -0.0799182951 1.40120518 -0.142918184 -0.0777157098 1.41591644 -0.147712797 -0.079783909 1.41102266 -0.141599447 -0.0799182951 1.40120518 -0.13537544 -0.0771783665 1.40873706 -0.142918184 -0.0777157098 1.41591644 -0.131533504 -0.0765158832 1.40028703 -0.114688329 -0.0679375678 1.40230107 -0.118842162 -0.0683128685 1.41585577 -0.13537544 -0.0771783665 1.40873706 -0.131533504 -0.0765158832 1.40028703 -0.118842162 -0.0683128685 1.41585577 -0.129485756 -0.0692070201 1.42865646 -0.142918184 -0.0777157098 1.41591644 -0.13537544 -0.0771783665 1.40873706 -0.163836971 -0.0802906826 1.38885987 -0.155374303 -0.0793316811 1.38215959 -0.146625161 -0.0805748999 1.39165509 -0.134116873 -0.077062048 1.39110351 -0.131533504 -0.0765158832 1.40028703 -0.141599447 -0.0799182951 1.40120518 -0.167402402 -0.0725306347 1.3654809 -0.152592301 -0.0712239817 1.36195171 -0.155374303 -0.0793316811 1.38215959 -0.167402402 -0.0725306347 1.3654809 -0.158721924 -0.0623005442 1.352525 -0.152592301 -0.0712239817 1.36195171 -0.167402402 -0.0725306347 1.3654809 -0.163836971 -0.0802906826 1.38885987 -0.179912657 -0.0736276656 1.37572491 -0.167402402 -0.0725306347 1.3654809 -0.155374303 -0.0793316811 1.38215959 -0.163836971 -0.0802906826 1.38885987 -0.161583453 -0.0379091837 1.34661853 -0.176595941 -0.0384227186 1.35113227 -0.170698211 0.0279342402 1.34445405 -0.227976978 0.075190559 1.50671756 -0.218757227 0.0724431723 1.5227921 -0.105078332 0.0336614996 1.39586616 -0.258514822 0.0745144561 1.50522709 -0.267562807 0.0712841824 1.5228225 -0.250567377 0.076934129 1.52277946 -0.296569526 0.0211984962 1.49785459 -0.295396417 0.00958246831 1.503438 -0.296739817 0.0142240925 1.52286124 -0.28789708 0.0227118824 1.43869674 -0.290455788 0.0195121132 1.45106816 -0.291370392 0.0312643647 1.46003592 -0.287819296 0.0530592799 1.52284956 -0.1870002 0.0209336672 1.5227592 -0.277049214 0.0651024356 1.52282143 -0.237575993 0.0734032169 1.4682802 -0.245015934 0.0713587776 1.45543122 -0.251418471 0.0740800202 1.47842383 -0.155995756 0.0291595366 1.34357917 -0.145163 0.030161975 1.34558141 -0.145279467 -0.0349938869 1.3466469 -0.120379008 -0.0591209531 1.43256617 -0.190644324 0.000999040669 1.52276373 -0.207135454 -0.0206110831 1.52278256 -0.190644324 0.000999040669 1.52276373 -0.120379008 -0.0591209531 1.43256617 -0.114380561 -0.0525336675 1.42847347 -0.114380561 -0.0525336675 1.42847347 -0.113063887 -0.033006411 1.43105257 -0.190644324 0.000999040669 1.52276373 -0.142918184 -0.0777157098 1.41591644 -0.149192989 -0.0707914159 1.43639886 -0.15635857 -0.0787576288 1.41695857 -0.109943233 0.0332471915 1.4218291 -0.114887521 0.0322623588 1.430354 -0.105760559 -0.0317337178 1.41912019 -0.105078332 0.0336614996 1.39586616 -0.10584715 0.0335311405 1.40905452 -0.101718053 -0.0306400191 1.4005245 -0.155995756 0.0291595366 1.34357917 -0.145279467 -0.0349938869 1.3466469 -0.161583453 -0.0379091837 1.34661853 -0.276267499 0.0521536358 1.43752146 -0.268017143 0.0579334684 1.43428946 -0.270309657 0.0522479452 1.4290334 -0.261715144 0.0717926845 1.48406434 -0.268665999 0.0668548271 1.47215211 -0.268928975 0.0697363988 1.5011549 -0.258211166 0.0607681088 1.4297688 -0.170698211 0.0279342402 1.34445405 -0.183481768 0.0267602913 1.34878695 -0.259337574 0.0641568899 1.43718624 -0.258211166 0.0607681088 1.4297688 -0.268017143 0.0579334684 1.43428946 -0.109106079 -0.0317791738 1.37198472 -0.109809168 0.0331976637 1.3758291 -0.103892446 -0.0324193649 1.38394487 -0.103892446 -0.0324193649 1.38394487 -0.106188521 0.0336050428 1.38742018 -0.101718053 -0.0306400191 1.4005245 -0.279165536 -0.00332642463 1.43635571 -0.283343345 0.00380276726 1.43689466 -0.280047208 0.0045637805 1.43009567 -0.280047208 0.0045637805 1.43009567 -0.184894681 -0.0630921796 1.3648535 -0.279165536 -0.00332642463 1.43635571 -0.290790945 0.000360456121 1.48412919 -0.294197112 0.0114948526 1.48310506 -0.291236132 0.0109227039 1.46227145 -0.276381314 -0.00949793309 1.44239044 -0.284649491 -0.00542537728 1.46403146 -0.279165536 -0.00332642463 1.43635571 -0.286480755 -0.00891677104 1.49477506 -0.284649491 -0.00542537728 1.46403146 -0.278590858 -0.0148018347 1.47337031 -0.278477997 -0.0179616902 1.49438167 -0.278590858 -0.0148018347 1.47337031 -0.186075345 -0.0741167217 1.38671494 -0.286480755 -0.00891677104 1.49477506 -0.290790945 0.000360456121 1.48412919 -0.284649491 -0.00542537728 1.46403146 -0.285940796 -0.0114881527 1.52282822 -0.286480755 -0.00891677104 1.49477506 -0.278477997 -0.0179616902 1.49438167 -0.291236132 0.0109227039 1.46227145 -0.286498368 0.0029179391 1.45127499 -0.290790945 0.000360456121 1.48412919 -0.290790945 0.000360456121 1.48412919 -0.295396417 0.00958246831 1.503438 -0.294197112 0.0114948526 1.48310506 -0.288720816 0.0421530902 1.46360016 -0.284975976 0.0396963507 1.44096148 -0.291370392 0.0312643647 1.46003592 -0.166498736 -0.0806930736 1.40004766 -0.163836971 -0.0802906826 1.38885987 -0.154701799 -0.0815762058 1.40170443 -0.188148662 -0.0742562935 1.4015162 -0.166498736 -0.0806930736 1.40004766 -0.165681973 -0.0801388621 1.40786052 -0.105760559 -0.0317337178 1.41912019 -0.114380561 -0.0525336675 1.42847347 -0.107708856 -0.0518343523 1.4170202 -0.104567863 -0.053445857 1.40198302 -0.105259769 -0.0522684976 1.38911867 -0.101718053 -0.0306400191 1.4005245 -0.154701799 -0.0815762058 1.40170443 -0.147712797 -0.079783909 1.41102266 -0.15635857 -0.0787576288 1.41695857 -0.15635857 -0.0787576288 1.41695857 -0.165681973 -0.0801388621 1.40786052 -0.154701799 -0.0815762058 1.40170443 -0.118842162 -0.0683128685 1.41585577 -0.129485756 -0.0692070201 1.42865646 -0.13537544 -0.0771783665 1.40873706 -0.120379008 -0.0591209531 1.43256617 -0.129485756 -0.0692070201 1.42865646 -0.118842162 -0.0683128685 1.41585577 -0.144885018 -0.0626387596 1.35351229 -0.129442662 -0.0619412102 1.35915864 -0.137906015 -0.069997333 1.36438227 -0.144885018 -0.0626387596 1.35351229 -0.133967564 -0.0555395856 1.35435236 -0.129442662 -0.0619412102 1.35915864 -0.146898031 -0.0558914356 1.35056484 -0.133967564 -0.0555395856 1.35435236 -0.144885018 -0.0626387596 1.35351229 -0.137774587 -0.0768461674 1.38360989 -0.137906015 -0.069997333 1.36438227 -0.123581469 -0.0687064826 1.37439907 -0.137906015 -0.069997333 1.36438227 -0.137774587 -0.0768461674 1.38360989 -0.14657788 -0.0777144358 1.37971735 -0.152592301 -0.0712239817 1.36195171 -0.158721924 -0.0623005442 1.352525 -0.144885018 -0.0626387596 1.35351229 -0.152592301 -0.0712239817 1.36195171 -0.144885018 -0.0626387596 1.35351229 -0.137906015 -0.069997333 1.36438227 -0.161583453 -0.0379091837 1.34661853 -0.169764906 -0.0626003891 1.35525084 -0.176595941 -0.0384227186 1.35113227 -0.176595941 -0.0384227186 1.35113227 -0.186139762 -0.0399380624 1.3571887 -0.191572741 0.0257958248 1.35356772 -0.191572741 0.0257958248 1.35356772 -0.183481768 0.0267602913 1.34878695 -0.176595941 -0.0384227186 1.35113227 -0.161583453 -0.0379091837 1.34661853 -0.146898031 -0.0558914356 1.35056484 -0.158721924 -0.0623005442 1.352525 -0.167402402 -0.0725306347 1.3654809 -0.178270385 -0.0630523413 1.35974646 -0.169764906 -0.0626003891 1.35525084 -0.178270385 -0.0630523413 1.35974646 -0.179912657 -0.0736276656 1.37572491 -0.184894681 -0.0630921796 1.3648535 -0.178270385 -0.0630523413 1.35974646 -0.167402402 -0.0725306347 1.3654809 -0.179912657 -0.0736276656 1.37572491 -0.236846894 0.0767874047 1.50456536 -0.237575993 0.0734032169 1.4682802 -0.246755838 0.075959675 1.49172878 -0.295396417 0.00958246831 1.503438 -0.290790945 0.000360456121 1.48412919 -0.292504102 -0.000390968286 1.52284217 -0.288720816 0.0421530902 1.46360016 -0.291370392 0.0312643647 1.46003592 -0.292975962 0.0387075432 1.48594797 -0.291638732 0.0456992015 1.50507855 -0.293648183 0.0418564491 1.52285469 -0.287819296 0.0530592799 1.52284956 -0.236846894 0.0767874047 1.50456536 -0.233194262 0.0750139356 1.48729444 -0.237575993 0.0734032169 1.4682802 -0.245015934 0.0713587776 1.45543122 -0.237575993 0.0734032169 1.4682802 -0.240244076 0.0678654611 1.4386282 -0.109728612 -0.0587119088 1.41701376 -0.114688329 -0.0679375678 1.40230107 -0.106491111 -0.059164755 1.40326095 -0.118842162 -0.0683128685 1.41585577 -0.114688329 -0.0679375678 1.40230107 -0.109728612 -0.0587119088 1.41701376 -0.161583453 -0.0379091837 1.34661853 -0.145279467 -0.0349938869 1.3466469 -0.146898031 -0.0558914356 1.35056484 -0.170698211 0.0279342402 1.34445405 -0.155995756 0.0291595366 1.34357917 -0.161583453 -0.0379091837 1.34661853 -0.268017143 0.0579334684 1.43428946 -0.276267499 0.0521536358 1.43752146 -0.268587887 0.0603181608 1.44115806 -0.258211166 0.0607681088 1.4297688 -0.270309657 0.0522479452 1.4290334 -0.268017143 0.0579334684 1.43428946 -0.268928975 0.0697363988 1.5011549 -0.277049214 0.0651024356 1.52282143 -0.267562807 0.0712841824 1.5228225 -0.137561023 0.0308377407 1.34829712 -0.145279467 -0.0349938869 1.3466469 -0.145163 0.030161975 1.34558141 -0.286346883 0.0123505499 1.43710554 -0.286542028 0.0276069157 1.43524468 -0.2839095 0.0152551979 1.43085003 -0.28789708 0.0227118824 1.43869674 -0.286542028 0.0276069157 1.43524468 -0.286346883 0.0123505499 1.43710554 -0.280047208 0.0045637805 1.43009567 -0.279978037 0.0158411358 1.42550302 -0.184894681 -0.0630921796 1.3648535 -0.295396417 0.00958246831 1.503438 -0.296569526 0.0211984962 1.49785459 -0.294197112 0.0114948526 1.48310506 -0.286346883 0.0123505499 1.43710554 -0.283343345 0.00380276726 1.43689466 -0.286498368 0.0029179391 1.45127499 -0.193955809 -0.0635707751 1.37783325 -0.276381314 -0.00949793309 1.44239044 -0.279165536 -0.00332642463 1.43635571 -0.276381314 -0.00949793309 1.44239044 -0.278590858 -0.0148018347 1.47337031 -0.284649491 -0.00542537728 1.46403146 -0.284975976 0.0396963507 1.44096148 -0.279952258 0.0462110229 1.43561757 -0.284162194 0.0363648571 1.43466699 -0.120379008 -0.0591209531 1.43256617 -0.118842162 -0.0683128685 1.41585577 -0.109728612 -0.0587119088 1.41701376 -0.109728612 -0.0587119088 1.41701376 -0.114380561 -0.0525336675 1.42847347 -0.120379008 -0.0591209531 1.43256617 -0.107708856 -0.0518343523 1.4170202 -0.114380561 -0.0525336675 1.42847347 -0.109728612 -0.0587119088 1.41701376 -0.146625161 -0.0805748999 1.39165509 -0.141599447 -0.0799182951 1.40120518 -0.154701799 -0.0815762058 1.40170443 -0.154701799 -0.0815762058 1.40170443 -0.141599447 -0.0799182951 1.40120518 -0.147712797 -0.079783909 1.41102266 -0.14657788 -0.0777144358 1.37971735 -0.137774587 -0.0768461674 1.38360989 -0.146625161 -0.0805748999 1.39165509 -0.146625161 -0.0805748999 1.39165509 -0.155374303 -0.0793316811 1.38215959 -0.14657788 -0.0777144358 1.37971735 -0.14657788 -0.0777144358 1.37971735 -0.152592301 -0.0712239817 1.36195171 -0.137906015 -0.069997333 1.36438227 -0.186139762 -0.0399380624 1.3571887 -0.178270385 -0.0630523413 1.35974646 -0.184894681 -0.0630921796 1.3648535 -0.178270385 -0.0630523413 1.35974646 -0.176595941 -0.0384227186 1.35113227 -0.169764906 -0.0626003891 1.35525084 -0.178270385 -0.0630523413 1.35974646 -0.186139762 -0.0399380624 1.3571887 -0.176595941 -0.0384227186 1.35113227 -0.158721924 -0.0623005442 1.352525 -0.169764906 -0.0626003891 1.35525084 -0.161583453 -0.0379091837 1.34661853 -0.158721924 -0.0623005442 1.352525 -0.167402402 -0.0725306347 1.3654809 -0.169764906 -0.0626003891 1.35525084 -0.292504102 -0.000390968286 1.52284217 -0.286480755 -0.00891677104 1.49477506 -0.285940796 -0.0114881527 1.52282822 -0.296860158 0.0289263371 1.52285945 -0.296739817 0.0142240925 1.52286124 -0.1870002 0.0209336672 1.5227592 -0.296860158 0.0289263371 1.52285945 -0.296569526 0.0211984962 1.49785459 -0.296739817 0.0142240925 1.52286124 -0.296008974 0.0293154381 1.49616694 -0.296569526 0.0211984962 1.49785459 -0.296860158 0.0289263371 1.52285945 -0.294125348 0.022008948 1.47319937 -0.294197112 0.0114948526 1.48310506 -0.296569526 0.0211984962 1.49785459 -0.291370392 0.0312643647 1.46003592 -0.290455788 0.0195121132 1.45106816 -0.294125348 0.022008948 1.47319937 -0.28789708 0.0227118824 1.43869674 -0.291370392 0.0312643647 1.46003592 -0.286542028 0.0276069157 1.43524468 -0.279952258 0.0462110229 1.43561757 -0.281860143 0.0504262708 1.45287848 -0.276267499 0.0521536358 1.43752146 -0.281860143 0.0504262708 1.45287848 -0.279952258 0.0462110229 1.43561757 -0.284975976 0.0396963507 1.44096148 -0.281860143 0.0504262708 1.45287848 -0.284975976 0.0396963507 1.44096148 -0.288720816 0.0421530902 1.46360016 -0.286744207 0.0510309935 1.48131466 -0.288720816 0.0421530902 1.46360016 -0.292975962 0.0387075432 1.48594797 -0.284752637 0.0565423481 1.50110686 -0.287819296 0.0530592799 1.52284956 -0.277049214 0.0651024356 1.52282143 -0.291638732 0.0456992015 1.50507855 -0.287819296 0.0530592799 1.52284956 -0.284752637 0.0565423481 1.50110686 -0.286744207 0.0510309935 1.48131466 -0.291638732 0.0456992015 1.50507855 -0.284752637 0.0565423481 1.50110686 -0.261715144 0.0717926845 1.48406434 -0.267562807 0.0712841824 1.5228225 -0.258514822 0.0745144561 1.50522709 -0.268928975 0.0697363988 1.5011549 -0.267562807 0.0712841824 1.5228225 -0.261715144 0.0717926845 1.48406434 -0.268665999 0.0668548271 1.47215211 -0.277713746 0.0622938126 1.48659813 -0.268928975 0.0697363988 1.5011549 -0.276000798 0.0588639118 1.45909917 -0.268587887 0.0603181608 1.44115806 -0.276267499 0.0521536358 1.43752146 -0.286744207 0.0510309935 1.48131466 -0.284752637 0.0565423481 1.50110686 -0.277713746 0.0622938126 1.48659813 -0.286346883 0.0123505499 1.43710554 -0.290455788 0.0195121132 1.45106816 -0.28789708 0.0227118824 1.43869674 -0.2839095 0.0152551979 1.43085003 -0.279978037 0.0158411358 1.42550302 -0.280047208 0.0045637805 1.43009567 -0.290455788 0.0195121132 1.45106816 -0.286346883 0.0123505499 1.43710554 -0.291236132 0.0109227039 1.46227145 -0.291236132 0.0109227039 1.46227145 -0.286346883 0.0123505499 1.43710554 -0.286498368 0.0029179391 1.45127499 -0.286498368 0.0029179391 1.45127499 -0.279165536 -0.00332642463 1.43635571 -0.284649491 -0.00542537728 1.46403146 -0.286498368 0.0029179391 1.45127499 -0.283343345 0.00380276726 1.43689466 -0.279165536 -0.00332642463 1.43635571 -0.276381314 -0.00949793309 1.44239044 -0.186075345 -0.0741167217 1.38671494 -0.278590858 -0.0148018347 1.47337031 -0.286480755 -0.00891677104 1.49477506 -0.292504102 -0.000390968286 1.52284217 -0.290790945 0.000360456121 1.48412919 -0.284162194 0.0363648571 1.43466699 -0.280891806 0.0284448378 1.42651892 -0.286542028 0.0276069157 1.43524468 -0.280891806 0.0284448378 1.42651892 -0.284162194 0.0363648571 1.43466699 -0.279432088 0.037602555 1.42781544 -0.15635857 -0.0787576288 1.41695857 -0.147712797 -0.079783909 1.41102266 -0.142918184 -0.0777157098 1.41591644 -0.134116873 -0.077062048 1.39110351 -0.146625161 -0.0805748999 1.39165509 -0.137774587 -0.0768461674 1.38360989 -0.152592301 -0.0712239817 1.36195171 -0.14657788 -0.0777144358 1.37971735 -0.155374303 -0.0793316811 1.38215959 -0.158721924 -0.0623005442 1.352525 -0.146898031 -0.0558914356 1.35056484 -0.144885018 -0.0626387596 1.35351229 -0.227976978 0.075190559 1.50671756 -0.105078332 0.0336614996 1.39586616 -0.106188521 0.0336050428 1.38742018 -0.293648183 0.0418564491 1.52285469 -0.294931442 0.0369293094 1.50673771 -0.296860158 0.0289263371 1.52285945 -0.281860143 0.0504262708 1.45287848 -0.276000798 0.0588639118 1.45909917 -0.276267499 0.0521536358 1.43752146 -0.292975962 0.0387075432 1.48594797 -0.291638732 0.0456992015 1.50507855 -0.286744207 0.0510309935 1.48131466 -0.268017143 0.0579334684 1.43428946 -0.268587887 0.0603181608 1.44115806 -0.259337574 0.0641568899 1.43718624 -0.259337574 0.0641568899 1.43718624 -0.268587887 0.0603181608 1.44115806 -0.257489264 0.0683416352 1.45189083 -0.257489264 0.0683416352 1.45189083 -0.268587887 0.0603181608 1.44115806 -0.268665999 0.0668548271 1.47215211 -0.286744207 0.0510309935 1.48131466 -0.276000798 0.0588639118 1.45909917 -0.281860143 0.0504262708 1.45287848 -0.286744207 0.0510309935 1.48131466 -0.277713746 0.0622938126 1.48659813 -0.276000798 0.0588639118 1.45909917 -0.286744207 0.0510309935 1.48131466 -0.281860143 0.0504262708 1.45287848 -0.288720816 0.0421530902 1.46360016 -0.291236132 0.0109227039 1.46227145 -0.294125348 0.022008948 1.47319937 -0.290455788 0.0195121132 1.45106816 -0.280891806 0.0284448378 1.42651892 -0.2839095 0.0152551979 1.43085003 -0.286542028 0.0276069157 1.43524468 -0.293648183 0.0418564491 1.52285469 -0.291638732 0.0456992015 1.50507855 -0.294931442 0.0369293094 1.50673771 -0.258211166 0.0607681088 1.4297688 -0.259337574 0.0641568899 1.43718624 -0.249606863 0.0665877536 1.43638515 -0.259337574 0.0641568899 1.43718624 -0.257489264 0.0683416352 1.45189083 -0.249606863 0.0665877536 1.43638515 -0.276000798 0.0588639118 1.45909917 -0.277713746 0.0622938126 1.48659813 -0.268665999 0.0668548271 1.47215211 -0.277049214 0.0651024356 1.52282143 -0.277713746 0.0622938126 1.48659813 -0.284752637 0.0565423481 1.50110686 -0.277049214 0.0651024356 1.52282143 -0.268928975 0.0697363988 1.5011549 -0.277713746 0.0622938126 1.48659813 -0.294197112 0.0114948526 1.48310506 -0.294125348 0.022008948 1.47319937 -0.291236132 0.0109227039 1.46227145 -0.291370392 0.0312643647 1.46003592 -0.296008974 0.0293154381 1.49616694 -0.292975962 0.0387075432 1.48594797 -0.2839095 0.0152551979 1.43085003 -0.280891806 0.0284448378 1.42651892 -0.279978037 0.0158411358 1.42550302 -0.250567377 0.076934129 1.52277946 -0.246755838 0.075959675 1.49172878 -0.251418471 0.0740800202 1.47842383 -0.251418471 0.0740800202 1.47842383 -0.258514822 0.0745144561 1.50522709 -0.250567377 0.076934129 1.52277946 -0.279432088 0.037602555 1.42781544 -0.279952258 0.0462110229 1.43561757 -0.276037663 0.04349133 1.42745793 -0.279952258 0.0462110229 1.43561757 -0.279432088 0.037602555 1.42781544 -0.284162194 0.0363648571 1.43466699 -0.268665999 0.0668548271 1.47215211 -0.268587887 0.0603181608 1.44115806 -0.276000798 0.0588639118 1.45909917 -0.257489264 0.0683416352 1.45189083 -0.261715144 0.0717926845 1.48406434 -0.251418471 0.0740800202 1.47842383 -0.280047208 0.0045637805 1.43009567 -0.286346883 0.0123505499 1.43710554 -0.2839095 0.0152551979 1.43085003 -0.280047208 0.0045637805 1.43009567 -0.283343345 0.00380276726 1.43689466 -0.286346883 0.0123505499 1.43710554 -0.294931442 0.0369293094 1.50673771 -0.296008974 0.0293154381 1.49616694 -0.296860158 0.0289263371 1.52285945 -0.291370392 0.0312643647 1.46003592 -0.294125348 0.022008948 1.47319937 -0.296008974 0.0293154381 1.49616694 -0.292975962 0.0387075432 1.48594797 -0.296008974 0.0293154381 1.49616694 -0.294931442 0.0369293094 1.50673771 -0.291638732 0.0456992015 1.50507855 -0.292975962 0.0387075432 1.48594797 -0.294931442 0.0369293094 1.50673771 -0.268665999 0.0668548271 1.47215211 -0.261715144 0.0717926845 1.48406434 -0.257489264 0.0683416352 1.45189083 -0.251418471 0.0740800202 1.47842383 -0.261715144 0.0717926845 1.48406434 -0.258514822 0.0745144561 1.50522709 -0.296008974 0.0293154381 1.49616694 -0.294125348 0.022008948 1.47319937 -0.296569526 0.0211984962 1.49785459 -0.249606863 0.0665877536 1.43638515 -0.257489264 0.0683416352 1.45189083 -0.245015934 0.0713587776 1.45543122 -0.249606863 0.0665877536 1.43638515 -0.245015934 0.0713587776 1.45543122 -0.240244076 0.0678654611 1.4386282 -0.270309657 0.0522479452 1.4290334 -0.279952258 0.0462110229 1.43561757 -0.276267499 0.0521536358 1.43752146 -0.279952258 0.0462110229 1.43561757 -0.270309657 0.0522479452 1.4290334 -0.276037663 0.04349133 1.42745793 -0.257489264 0.0683416352 1.45189083 -0.251418471 0.0740800202 1.47842383 -0.245015934 0.0713587776 1.45543122 </float_array>
          <technique_common>
            <accessor count="900" offset="0" source="#mesh_0-positions-array" stride="3">
              <param name="X" type="float" />
              <param name="Y" type="float" />
              <param name="Z" type="float" />
            </accessor>
          </technique_common>
        </source>
        <vertices id="mesh_0-vertices">
          <input semantic="POSITION" source="#mesh_0-positions" />
        </vertices>
        <polylist count="300" material="defaultMaterial">
          <input offset="0" semantic="VERTEX" source="#mesh_0-vertices" />
          <vcount>3 3 3 3 3 3 3 3 3 3 3 3 3 3 3 3 3 3 3 3 3 3 3 3 3 3 3 3 3 3 3 3 3 3 3 3 3 3 3 3 3 3 3 3 3 3 3 3 3 3 3 3 3 3 3 3 3 3 3 3 3 3 3 3 3 3 3 3 3 3 3 3 3 3 3 3 3 3 3 3 3 3 3 3 3 3 3 3 3 3 3 3 3 3 3 3 3 3 3 3 3 3 3 3 3 3 3 3 3 3 3 3 3 3 3 3 3 3 3 3 3 3 3 3 3 3 3 3 3 3 3 3 3 3 3 3 3 3 3 3 3 3 3 3 3 3 3 3 3 3 3 3 3 3 3 3 3 3 3 3 3 3 3 3 3 3 3 3 3 3 3 3 3 3 3 3 3 3 3 3 3 3 3 3 3 3 3 3 3 3 3 3 3 3 3 3 3 3 3 3 3 3 3 3 3 3 3 3 3 3 3 3 3 3 3 3 3 3 3 3 3 3 3 3 3 3 3 3 3 3 3 3 3 3 3 3 3 3 3 3 3 3 3 3 3 3 3 3 3 3 3 3 3 3 3 3 3 3 3 3 3 3 3 3 3 3 3 3 3 3 3 3 3 3 3 3 3 3 3 3 3 3 3 3 3 3 3 3 3 3 3 3 3 3 3 3 3 3 3 3 </vcount>
          <p>0 1 2 3 4 5 6 7 8 9 10 11 12 13 14 15 16 17 18 19 20 21 22 23 24 25 26 27 28 29 30 31 32 33 34 35 36 37 38 39 40 41 42 43 44 45 46 47 48 49 50 51 52 53 54 55 56 57 58 59 60 61 62 63 64 65 66 67 68 69 70 71 72 73 74 75 76 77 78 79 80 81 82 83 84 85 86 87 88 89 90 91 92 93 94 95 96 97 98 99 100 101 102 103 104 105 106 107 108 109 110 111 112 113 114 115 116 117 118 119 120 121 122 123 124 125 126 127 128 129 130 131 132 133 134 135 136 137 138 139 140 141 142 143 144 145 146 147 148 149 150 151 152 153 154 155 156 157 158 159 160 161 162 163 164 165 166 167 168 169 170 171 172 173 174 175 176 177 178 179 180 181 182 183 184 185 186 187 188 189 190 191 192 193 194 195 196 197 198 199 200 201 202 203 204 205 206 207 208 209 210 211 212 213 214 215 216 217 218 219 220 221 222 223 224 225 226 227 228 229 230 231 232 233 234 235 236 237 238 239 240 241 242 243 244 245 246 247 248 249 250 251 252 253 254 255 256 257 258 259 260 261 262 263 264 265 266 267 268 269 270 271 272 273 274 275 276 277 278 279 280 281 282 283 284 285 286 287 288 289 290 291 292 293 294 295 296 297 298 299 300 301 302 303 304 305 306 307 308 309 310 311 312 313 314 315 316 317 318 319 320 321 322 323 324 325 326 327 328 329 330 331 332 333 334 335 336 337 338 339 340 341 342 343 344 345 346 347 348 349 350 351 352 353 354 355 356 357 358 359 360 361 362 363 364 365 366 367 368 369 370 371 372 373 374 375 376 377 378 379 380 381 382 383 384 385 386 387 388 389 390 391 392 393 394 395 396 397 398 399 400 401 402 403 404 405 406 407 408 409 410 411 412 413 414 415 416 417 418 419 420 421 422 423 424 425 426 427 428 429 430 431 432 433 434 435 436 437 438 439 440 441 442 443 444 445 446 447 448 449 450 451 452 453 454 455 456 457 458 459 460 461 462 463 464 465 466 467 468 469 470 471 472 473 474 475 476 477 478 479 480 481 482 483 484 485 486 487 488 489 490 491 492 493 494 495 496 497 498 499 500 501 502 503 504 505 506 507 508 509 510 511 512 513 514 515 516 517 518 519 520 521 522 523 524 525 526 527 528 529 530 531 532 533 534 535 536 537 538 539 540 541 542 543 544 545 546 547 548 549 550 551 552 553 554 555 556 557 558 559 560 561 562 563 564 565 566 567 568 569 570 571 572 573 574 575 576 577 578 579 580 581 582 583 584 585 586 587 588 589 590 591 592 593 594 595 596 597 598 599 600 601 602 603 604 605 606 607 608 609 610 611 612 613 614 615 616 617 618 619 620 621 622 623 624 625 626 627 628 629 630 631 632 633 634 635 636 637 638 639 640 641 642 643 644 645 646 647 648 649 650 651 652 653 654 655 656 657 658 659 660 661 662 663 664 665 666 667 668 669 670 671 672 673 674 675 676 677 678 679 680 681 682 683 684 685 686 687 688 689 690 691 692 693 694 695 696 697 698 699 700 701 702 703 704 705 706 707 708 709 710 711 712 713 714 715 716 717 718 719 720 721 722 723 724 725 726 727 728 729 730 731 732 733 734 735 736 737 738 739 740 741 742 743 744 745 746 747 748 749 750 751 752 753 754 755 756 757 758 759 760 761 762 763 764 765 766 767 768 769 770 771 772 773 774 775 776 777 778 779 780 781 782 783 784 785 786 787 788 789 790 791 792 793 794 795 796 797 798 799 800 801 802 803 804 805 806 807 808 809 810 811 812 813 814 815 816 817 818 819 820 821 822 823 824 825 826 827 828 829 830 831 832 833 834 835 836 837 838 839 840 841 842 843 844 845 846 847 848 849 850 851 852 853 854 855 856 857 858 859 860 861 862 863 864 865 866 867 868 869 870 871 872 873 874 875 876 877 878 879 880 881 882 883 884 885 886 887 888 889 890 891 892 893 894 895 896 897 898 899 </p>
        </polylist>
      </mesh>
    </geometry>
  </library_geometries>
  <library_controllers>
  </library_controllers>
  <library_visual_scenes>
    <visual_scene id="Scene" name="Scene">
      <node id="node" name="" type="NODE">
        <matrix sid="matrix">1 0 0 0 0 1 0 0 0 0 1 0 0 0 0 1</matrix>
        <instance_geometry url="#mesh_0">
          <bind_material>
            <technique_common>
              <instance_material symbol="defaultMaterial" target="#material_0">
              </instance_material>
            </technique_common>
          </bind_material>
        </instance_geometry>
      </node>
    </visual_scene>
  </library_visual_scenes>
  <scene>
    <instance_visual_scene url="#Scene" />
  </scene>
</COLLADA>
