<?xml version="1.0" encoding="UTF-8" standalone="no" ?>
<COLLADA xmlns="http://www.collada.org/2005/11/COLLADASchema" version="1.4.1">
  <asset>
    <contributor>
      <author>Assimp</author>
      <authoring_tool>Assimp Exporter</authoring_tool>
    </contributor>
    <created>2026-04-22T16:09:43</created>
    <modified>2026-04-22T16:09:43</modified>
    <unit name="meter" meter="1" />
    <up_axis>Y_UP</up_axis>
  </asset>
  <library_images>
  </library_images>
  <library_effects>
    <effect id="material_0-fx" name="">
      <profile_COMMON>
        <technique sid="standard">
          <phong>
            <emission>
              <color sid="emission">0   0   0   4.19744942e-41</color>
            </emission>
            <ambient>
              <color sid="ambient">0.360000014   0.670545638   0.61352545   4.19744942e-41</color>
            </ambient>
            <diffuse>
              <color sid="diffuse">0.360000014   0.670545638   0.61352545   4.19744942e-41</color>
            </diffuse>
            <specular>
              <color sid="specular">0.25   0.25   0.25   4.19744942e-41</color>
            </specular>
          </phong>
        </technique>
      </profile_COMMON>
    </effect>
  </library_effects>
  <library_materials>
    <material id="material_0" name="">
      <instance_effect url="#material_0-fx"/>
    </material>
  </library_materials>
  <library_geometries>
    <geometry id="mesh_0" name="" >
      <mesh>
        <source id="mesh_0-positions" name="mesh_0-positions">
          <float_array id="mesh_0-positions-array" count="1800"> 0.793268621 -0.148995608 0.75018239 0.720961094 -0.252055466 0.751554668 0.720474958 -0.242335469 0.751564145 0.792559266 -0.338279814 0.750208199 0.720961094 -0.252055466 0.751554668 0.793268621 -0.148995608 0.75018239 0.720474958 -0.242335469 0.751564145 0.721377313 -0.232046813 0.751548111 0.793268621 -0.148995608 0.75018239 0.927173138 -0.177738488 0.757734776 0.928346753 -0.17766355 0.750215232 0.923666596 -0.174810067 0.750214398 0.737706602 -0.196660548 0.751262724 0.793268621 -0.148995608 0.75018239 0.730097055 -0.207630903 0.751395941 0.793268621 -0.148995608 0.75018239 0.724682629 -0.219082341 0.75149101 0.730097055 -0.207630903 0.751395941 0.739390194 -0.227253512 0.890214682 0.737187207 -0.248081252 0.890214741 0.847008526 -0.247066632 0.89021492 0.737187207 -0.248081252 0.890214741 0.752940416 -0.282358527 0.89021492 0.847008526 -0.247066632 0.89021492 0.720961094 -0.252055466 0.751554668 0.737187207 -0.248081252 0.890214741 0.720474958 -0.242335469 0.751564145 0.78426379 -0.152537674 0.758676827 0.737706602 -0.196660548 0.751262724 0.752475381 -0.20513995 0.890217662 0.847008526 -0.247066632 0.89021492 0.821378887 -0.196964383 0.890215635 0.791692615 -0.188527629 0.890214682 0.723423421 -0.264427215 0.751512468 0.720961094 -0.252055466 0.751554668 0.792559266 -0.338279814 0.750208199 0.728454888 -0.276602507 0.751424611 0.723423421 -0.264427215 0.751512468 0.792559266 -0.338279814 0.750208199 0.739463687 -0.292380452 0.751232266 0.733451962 -0.284850687 0.751337349 0.792559266 -0.338279814 0.750208199 0.733451962 -0.284850687 0.751337349 0.728454888 -0.276602507 0.751424611 0.792559266 -0.338279814 0.750208199 0.793268621 -0.148995608 0.75018239 0.721377313 -0.232046813 0.751548111 0.724682629 -0.219082341 0.75149101 0.737187207 -0.248081252 0.890214741 0.74109441 -0.264398217 0.890214622 0.752940416 -0.282358527 0.89021492 0.723423421 -0.264427215 0.751512468 0.728454888 -0.276602507 0.751424611 0.74109441 -0.264398217 0.890214622 0.813894808 -0.294294387 0.890214443 0.823747873 -0.288619459 0.890214741 0.847008526 -0.247066632 0.89021492 0.752940416 -0.282358527 0.89021492 0.760325789 -0.288660318 0.890214801 0.847008526 -0.247066632 0.89021492 0.847008526 -0.247066632 0.89021492 0.787184298 -0.298567712 0.890214205 0.813894808 -0.294294387 0.890214443 0.800907314 -0.297968149 0.890216768 0.813894808 -0.294294387 0.890214443 0.787184298 -0.298567712 0.890214205 0.764361322 -0.195929691 0.89021498 0.752475381 -0.20513995 0.890217662 0.847008526 -0.247066632 0.89021492 0.846807837 -0.238143593 0.890215039 0.844925702 -0.228024453 0.890214503 0.847008526 -0.247066632 0.89021492 0.914656699 -0.249245256 0.811363518 0.914753377 -0.237465009 0.81117183 0.847008526 -0.247066632 0.89021492 0.847008526 -0.247066632 0.89021492 0.914753377 -0.237465009 0.81117183 0.846807837 -0.238143593 0.890215039 0.777671754 -0.19036071 0.890214086 0.764361322 -0.195929691 0.89021498 0.847008526 -0.247066632 0.89021492 0.791692615 -0.188527629 0.890214682 0.777671754 -0.19036071 0.890214086 0.847008526 -0.247066632 0.89021492 0.863716841 -0.167988822 0.807735264 0.821378887 -0.196964383 0.890215635 0.903276742 -0.196132064 0.809270024 0.928346753 -0.17766355 0.750215232 0.927173138 -0.177738488 0.757734776 0.929865718 -0.181172967 0.757767618 0.92574054 -0.310541302 0.757629752 0.927872121 -0.309924304 0.75021559 0.928334832 -0.308226317 0.757781088 0.923654139 -0.312456429 0.750215471 0.927872121 -0.309924304 0.75021559 0.92574054 -0.310541302 0.757629752 0.792559266 -0.338279814 0.750208199 0.788870454 -0.336959034 0.758846104 0.787955582 -0.337591112 0.750385344 0.752475381 -0.20513995 0.890217662 0.744565725 -0.215683758 0.89021486 0.847008526 -0.247066632 0.89021492 0.737706602 -0.196660548 0.751262724 0.744565725 -0.215683758 0.89021486 0.752475381 -0.20513995 0.890217662 0.730097055 -0.207630903 0.751395941 0.744565725 -0.215683758 0.89021486 0.737706602 -0.196660548 0.751262724 0.847008526 -0.247066632 0.89021492 0.744565725 -0.215683758 0.89021486 0.739390194 -0.227253512 0.890214682 0.724682629 -0.219082341 0.75149101 0.744565725 -0.215683758 0.89021486 0.730097055 -0.207630903 0.751395941 0.739390194 -0.227253512 0.890214682 0.744565725 -0.215683758 0.89021486 0.724682629 -0.219082341 0.75149101 0.728454888 -0.276602507 0.751424611 0.733451962 -0.284850687 0.751337349 0.745794475 -0.273642182 0.890214682 0.737187207 -0.248081252 0.890214741 0.737165153 -0.239043757 0.890214622 0.720474958 -0.242335469 0.751564145 0.739390194 -0.227253512 0.890214682 0.737165153 -0.239043757 0.890214622 0.737187207 -0.248081252 0.890214741 0.813894808 -0.294294387 0.890214443 0.800907314 -0.297968149 0.890216768 0.921201169 -0.312292784 0.757659614 0.847008526 -0.247066632 0.89021492 0.839745641 -0.271205783 0.890214682 0.844902813 -0.259320021 0.890214741 0.77202177 -0.295055777 0.890213966 0.787184298 -0.298567712 0.890214205 0.847008526 -0.247066632 0.89021492 0.760325789 -0.288660318 0.890214801 0.77202177 -0.295055777 0.890213966 0.847008526 -0.247066632 0.89021492 0.785553098 -0.317128718 0.831294715 0.800907314 -0.297968149 0.890216768 0.787184298 -0.298567712 0.890214205 0.737706602 -0.196660548 0.751262724 0.783773959 -0.151784688 0.750457764 0.793268621 -0.148995608 0.75018239 0.844925702 -0.228024453 0.890214503 0.838478982 -0.213705763 0.890214622 0.847008526 -0.247066632 0.89021492 0.932085097 -0.304331899 0.750214577 0.928334832 -0.308226317 0.757781088 0.927872121 -0.309924304 0.75021559 0.784347594 -0.335880876 0.750448942 0.787955582 -0.337591112 0.750385344 0.788870454 -0.336959034 0.758846104 0.792559266 -0.338279814 0.750208199 0.787955582 -0.337591112 0.750385344 0.784347594 -0.335880876 0.750448942 0.793641448 -0.33724159 0.75870645 0.788870454 -0.336959034 0.758846104 0.792559266 -0.338279814 0.750208199 0.785553098 -0.317128718 0.831294715 0.788870454 -0.336959034 0.758846104 0.793641448 -0.33724159 0.75870645 0.784347594 -0.335880876 0.750448942 0.739463687 -0.292380452 0.751232266 0.792559266 -0.338279814 0.750208199 0.784347594 -0.335880876 0.750448942 0.784698069 -0.335055977 0.758532405 0.739463687 -0.292380452 0.751232266 0.784698069 -0.335055977 0.758532405 0.752940416 -0.282358527 0.89021492 0.739463687 -0.292380452 0.751232266 0.940849483 -0.201554522 0.750214815 0.941285968 -0.206423119 0.758032024 0.944620252 -0.218791574 0.750215054 0.74109441 -0.264398217 0.890214622 0.745794475 -0.273642182 0.890214682 0.752940416 -0.282358527 0.89021492 0.74109441 -0.264398217 0.890214622 0.728454888 -0.276602507 0.751424611 0.745794475 -0.273642182 0.890214682 0.737165153 -0.239043757 0.890214622 0.721377313 -0.232046813 0.751548111 0.720474958 -0.242335469 0.751564145 0.721377313 -0.232046813 0.751548111 0.739390194 -0.227253512 0.890214682 0.724682629 -0.219082341 0.75149101 0.921201169 -0.312292784 0.757659614 0.792559266 -0.338279814 0.750208199 0.923654139 -0.312456429 0.750215471 0.792559266 -0.338279814 0.750208199 0.921201169 -0.312292784 0.757659614 0.793641448 -0.33724159 0.75870645 0.800907314 -0.297968149 0.890216768 0.785553098 -0.317128718 0.831294715 0.793641448 -0.33724159 0.75870645 0.92574054 -0.310541302 0.757629752 0.823747873 -0.288619459 0.890214741 0.813894808 -0.294294387 0.890214443 0.77202177 -0.295055777 0.890213966 0.760325789 -0.288660318 0.890214801 0.782965541 -0.317324579 0.828669548 0.737706602 -0.196660548 0.751262724 0.78426379 -0.152537674 0.758676827 0.783773959 -0.151784688 0.750457764 0.914753377 -0.237465009 0.81117183 0.913715184 -0.228872612 0.811632633 0.846807837 -0.238143593 0.890215039 0.777671754 -0.19036071 0.890214086 0.791692615 -0.188527629 0.890214682 0.785260141 -0.170077905 0.831190526 0.903276742 -0.196132064 0.809270024 0.927173138 -0.177738488 0.757734776 0.863716841 -0.167988822 0.807735264 0.923666596 -0.174810067 0.750214398 0.922992647 -0.17546913 0.757882953 0.927173138 -0.177738488 0.757734776 0.927173138 -0.177738488 0.757734776 0.922992647 -0.17546913 0.757882953 0.863716841 -0.167988822 0.807735264 0.821378887 -0.196964383 0.890215635 0.810959041 -0.191854551 0.890214622 0.791692615 -0.188527629 0.890214682 0.801126063 -0.189312428 0.890214562 0.791692615 -0.188527629 0.890214682 0.810959041 -0.191854551 0.890214622 0.810959041 -0.191854551 0.890214622 0.857940316 -0.167061687 0.809194207 0.801126063 -0.189312428 0.890214562 0.903276742 -0.196132064 0.809270024 0.829737425 -0.203471839 0.890214801 0.838478982 -0.213705763 0.890214622 0.935513556 -0.188747466 0.750214875 0.937493801 -0.195013076 0.757897377 0.940849483 -0.201554522 0.750214815 0.91234231 -0.220064461 0.811724782 0.910651028 -0.212559298 0.811554909 0.844925702 -0.228024453 0.890214503 0.838478982 -0.213705763 0.890214622 0.906803191 -0.20164305 0.810393274 0.903276742 -0.196132064 0.809270024 0.784347594 -0.335880876 0.750448942 0.788870454 -0.336959034 0.758846104 0.784698069 -0.335055977 0.758532405 0.94612062 -0.238067508 0.750214458 0.944767237 -0.229809985 0.758406281 0.945207477 -0.241573438 0.758565605 0.944620252 -0.218791574 0.750215054 0.944767237 -0.229809985 0.758406281 0.94612062 -0.238067508 0.750214458 0.9341591 -0.2991561 0.757843137 0.928334832 -0.308226317 0.757781088 0.932085097 -0.304331899 0.750214577 0.738487542 -0.256428063 0.890214682 0.74109441 -0.264398217 0.890214622 0.737187207 -0.248081252 0.890214741 0.74109441 -0.264398217 0.890214622 0.738487542 -0.256428063 0.890214682 0.723423421 -0.264427215 0.751512468 0.720961094 -0.252055466 0.751554668 0.738487542 -0.256428063 0.890214682 0.737187207 -0.248081252 0.890214741 0.723423421 -0.264427215 0.751512468 0.738487542 -0.256428063 0.890214682 0.720961094 -0.252055466 0.751554668 0.752940416 -0.282358527 0.89021492 0.745794475 -0.273642182 0.890214682 0.739463687 -0.292380452 0.751232266 0.739463687 -0.292380452 0.751232266 0.745794475 -0.273642182 0.890214682 0.733451962 -0.284850687 0.751337349 0.737165153 -0.239043757 0.890214622 0.739390194 -0.227253512 0.890214682 0.721377313 -0.232046813 0.751548111 0.813894808 -0.294294387 0.890214443 0.921201169 -0.312292784 0.757659614 0.92574054 -0.310541302 0.757629752 0.793641448 -0.33724159 0.75870645 0.921201169 -0.312292784 0.757659614 0.800907314 -0.297968149 0.890216768 0.92574054 -0.310541302 0.757629752 0.902025282 -0.292220503 0.80909431 0.823747873 -0.288619459 0.890214741 0.784698069 -0.335055977 0.758532405 0.788870454 -0.336959034 0.758846104 0.782965541 -0.317324579 0.828669548 0.784698069 -0.335055977 0.758532405 0.782965541 -0.317324579 0.828669548 0.760325789 -0.288660318 0.890214801 0.788372397 -0.150360197 0.758690536 0.783773959 -0.151784688 0.750457764 0.78426379 -0.152537674 0.758676827 0.788372397 -0.150360197 0.758690536 0.788546205 -0.149393663 0.750392675 0.783773959 -0.151784688 0.750457764 0.783773959 -0.151784688 0.750457764 0.788546205 -0.149393663 0.750392675 0.793268621 -0.148995608 0.75018239 0.78426379 -0.152537674 0.758676827 0.782975972 -0.169901505 0.828811109 0.788372397 -0.150360197 0.758690536 0.764361322 -0.195929691 0.89021498 0.782975972 -0.169901505 0.828811109 0.78426379 -0.152537674 0.758676827 0.863716841 -0.167988822 0.807735264 0.810959041 -0.191854551 0.890214622 0.821378887 -0.196964383 0.890215635 0.857940316 -0.167061687 0.809194207 0.810959041 -0.191854551 0.890214622 0.863716841 -0.167988822 0.807735264 0.923666596 -0.174810067 0.750214398 0.863716841 -0.167988822 0.807735264 0.922992647 -0.17546913 0.757882953 0.793268621 -0.148995608 0.75018239 0.863716841 -0.167988822 0.807735264 0.923666596 -0.174810067 0.750214398 0.857940316 -0.167061687 0.809194207 0.863716841 -0.167988822 0.807735264 0.793268621 -0.148995608 0.75018239 0.903276742 -0.196132064 0.809270024 0.821378887 -0.196964383 0.890215635 0.829737425 -0.203471839 0.890214801 0.829737425 -0.203471839 0.890214801 0.821378887 -0.196964383 0.890215635 0.847008526 -0.247066632 0.89021492 0.838478982 -0.213705763 0.890214622 0.829737425 -0.203471839 0.890214801 0.847008526 -0.247066632 0.89021492 0.937493801 -0.195013076 0.757897377 0.906803191 -0.20164305 0.810393274 0.909046233 -0.206971511 0.81105125 0.928346753 -0.17766355 0.750215232 0.929865718 -0.181172967 0.757767618 0.935513556 -0.188747466 0.750214875 0.940849483 -0.201554522 0.750214815 0.937493801 -0.195013076 0.757897377 0.941285968 -0.206423119 0.758032024 0.784698069 -0.335055977 0.758532405 0.760325789 -0.288660318 0.890214801 0.752940416 -0.282358527 0.89021492 0.944620252 -0.218791574 0.750215054 0.941285968 -0.206423119 0.758032024 0.943629324 -0.218775928 0.758262634 0.943629324 -0.218775928 0.758262634 0.944767237 -0.229809985 0.758406281 0.944620252 -0.218791574 0.750215054 0.944452107 -0.269436687 0.750214815 0.945883393 -0.254184902 0.750214815 0.944062412 -0.265389621 0.758324325 0.844902813 -0.259320021 0.890214741 0.913190603 -0.261747062 0.811785102 0.847008526 -0.247066632 0.89021492 0.92574054 -0.310541302 0.757629752 0.921201169 -0.312292784 0.757659614 0.923654139 -0.312456429 0.750215471 0.847008526 -0.247066632 0.89021492 0.823747873 -0.288619459 0.890214741 0.832127213 -0.281443179 0.890214622 0.92574054 -0.310541302 0.757629752 0.928334832 -0.308226317 0.757781088 0.902025282 -0.292220503 0.80909431 0.928334832 -0.308226317 0.757781088 0.905279815 -0.288324267 0.809899569 0.902025282 -0.292220503 0.80909431 0.785553098 -0.317128718 0.831294715 0.782965541 -0.317324579 0.828669548 0.788870454 -0.336959034 0.758846104 0.77202177 -0.295055777 0.890213966 0.785553098 -0.317128718 0.831294715 0.787184298 -0.298567712 0.890214205 0.782965541 -0.317324579 0.828669548 0.785553098 -0.317128718 0.831294715 0.77202177 -0.295055777 0.890213966 0.764361322 -0.195929691 0.89021498 0.78426379 -0.152537674 0.758676827 0.752475381 -0.20513995 0.890217662 0.785260141 -0.170077905 0.831190526 0.782975972 -0.169901505 0.828811109 0.777671754 -0.19036071 0.890214086 0.764361322 -0.195929691 0.89021498 0.777671754 -0.19036071 0.890214086 0.782975972 -0.169901505 0.828811109 0.857940316 -0.167061687 0.809194207 0.793268621 -0.148995608 0.75018239 0.79290843 -0.149872512 0.758393168 0.788546205 -0.149393663 0.750392675 0.79290843 -0.149872512 0.758393168 0.793268621 -0.148995608 0.75018239 0.906803191 -0.20164305 0.810393274 0.937493801 -0.195013076 0.757897377 0.933884203 -0.18764998 0.757831931 0.933884203 -0.18764998 0.757831931 0.937493801 -0.195013076 0.757897377 0.935513556 -0.188747466 0.750214875 0.927173138 -0.177738488 0.757734776 0.903276742 -0.196132064 0.809270024 0.906803191 -0.20164305 0.810393274 0.929865718 -0.181172967 0.757767618 0.933884203 -0.18764998 0.757831931 0.935513556 -0.188747466 0.750214875 0.909046233 -0.206971511 0.81105125 0.838478982 -0.213705763 0.890214622 0.844925702 -0.228024453 0.890214503 0.910651028 -0.212559298 0.811554909 0.909046233 -0.206971511 0.81105125 0.844925702 -0.228024453 0.890214503 0.944452107 -0.269436687 0.750214815 0.941676497 -0.279190809 0.758083582 0.941332102 -0.283859134 0.750215054 0.914656699 -0.249245256 0.811363518 0.944991052 -0.253678113 0.758434653 0.945207477 -0.241573438 0.758565605 0.94612062 -0.238067508 0.750214458 0.944991052 -0.253678113 0.758434653 0.945883393 -0.254184902 0.750214815 0.945207477 -0.241573438 0.758565605 0.944991052 -0.253678113 0.758434653 0.94612062 -0.238067508 0.750214458 0.945883393 -0.254184902 0.750214815 0.944991052 -0.253678113 0.758434653 0.944062412 -0.265389621 0.758324325 0.937418818 -0.294501603 0.750214636 0.9341591 -0.2991561 0.757843137 0.932085097 -0.304331899 0.750214577 0.832127213 -0.281443179 0.890214622 0.839745641 -0.271205783 0.890214682 0.847008526 -0.247066632 0.89021492 0.839745641 -0.271205783 0.890214682 0.905279815 -0.288324267 0.809899569 0.907751679 -0.28320381 0.810925901 0.832127213 -0.281443179 0.890214622 0.905279815 -0.288324267 0.809899569 0.839745641 -0.271205783 0.890214682 0.823747873 -0.288619459 0.890214741 0.902025282 -0.292220503 0.80909431 0.832127213 -0.281443179 0.890214622 0.905279815 -0.288324267 0.809899569 0.832127213 -0.281443179 0.890214622 0.902025282 -0.292220503 0.80909431 0.91234231 -0.220064461 0.811724782 0.913715184 -0.228872612 0.811632633 0.943629324 -0.218775928 0.758262634 0.785260141 -0.170077905 0.831190526 0.788372397 -0.150360197 0.758690536 0.782975972 -0.169901505 0.828811109 0.79290843 -0.149872512 0.758393168 0.785260141 -0.170077905 0.831190526 0.815153003 -0.167636961 0.819183171 0.933884203 -0.18764998 0.757831931 0.929865718 -0.181172967 0.757767618 0.906803191 -0.20164305 0.810393274 0.937493801 -0.195013076 0.757897377 0.909046233 -0.206971511 0.81105125 0.941285968 -0.206423119 0.758032024 0.941285968 -0.206423119 0.758032024 0.909046233 -0.206971511 0.81105125 0.910651028 -0.212559298 0.811554909 0.941285968 -0.206423119 0.758032024 0.910651028 -0.212559298 0.811554909 0.91234231 -0.220064461 0.811724782 0.914656699 -0.249245256 0.811363518 0.945207477 -0.241573438 0.758565605 0.914753377 -0.237465009 0.81117183 0.914753377 -0.237465009 0.81117183 0.944767237 -0.229809985 0.758406281 0.913715184 -0.228872612 0.811632633 0.907751679 -0.28320381 0.810925901 0.905279815 -0.288324267 0.809899569 0.9341591 -0.2991561 0.757843137 0.9341591 -0.2991561 0.757843137 0.909275055 -0.279490381 0.81117177 0.907751679 -0.28320381 0.810925901 0.937418818 -0.294501603 0.750214636 0.938214242 -0.290362149 0.757919133 0.9341591 -0.2991561 0.757843137 0.941332102 -0.283859134 0.750215054 0.938214242 -0.290362149 0.757919133 0.937418818 -0.294501603 0.750214636 0.913715184 -0.228872612 0.811632633 0.91234231 -0.220064461 0.811724782 0.846807837 -0.238143593 0.890215039 0.91234231 -0.220064461 0.811724782 0.844925702 -0.228024453 0.890214503 0.846807837 -0.238143593 0.890215039 0.857940316 -0.167061687 0.809194207 0.79290843 -0.149872512 0.758393168 0.815153003 -0.167636961 0.819183171 0.791692615 -0.188527629 0.890214682 0.857940316 -0.167061687 0.809194207 0.815153003 -0.167636961 0.819183171 0.801126063 -0.189312428 0.890214562 0.857940316 -0.167061687 0.809194207 0.791692615 -0.188527629 0.890214682 0.79290843 -0.149872512 0.758393168 0.788372397 -0.150360197 0.758690536 0.785260141 -0.170077905 0.831190526 0.79290843 -0.149872512 0.758393168 0.788546205 -0.149393663 0.750392675 0.788372397 -0.150360197 0.758690536 0.815153003 -0.167636961 0.819183171 0.785260141 -0.170077905 0.831190526 0.791692615 -0.188527629 0.890214682 0.909046233 -0.206971511 0.81105125 0.906803191 -0.20164305 0.810393274 0.838478982 -0.213705763 0.890214622 0.929865718 -0.181172967 0.757767618 0.927173138 -0.177738488 0.757734776 0.906803191 -0.20164305 0.810393274 0.913715184 -0.228872612 0.811632633 0.944767237 -0.229809985 0.758406281 0.943629324 -0.218775928 0.758262634 0.944767237 -0.229809985 0.758406281 0.914753377 -0.237465009 0.81117183 0.945207477 -0.241573438 0.758565605 0.943629324 -0.218775928 0.758262634 0.941285968 -0.206423119 0.758032024 0.91234231 -0.220064461 0.811724782 0.944452107 -0.269436687 0.750214815 0.944062412 -0.265389621 0.758324325 0.941676497 -0.279190809 0.758083582 0.9341591 -0.2991561 0.757843137 0.938214242 -0.290362149 0.757919133 0.909275055 -0.279490381 0.81117177 0.911455631 -0.272399634 0.811354458 0.913190603 -0.261747062 0.811785102 0.844902813 -0.259320021 0.890214741 0.914656699 -0.249245256 0.811363518 0.847008526 -0.247066632 0.89021492 0.913190603 -0.261747062 0.811785102 0.905279815 -0.288324267 0.809899569 0.928334832 -0.308226317 0.757781088 0.9341591 -0.2991561 0.757843137 0.941332102 -0.283859134 0.750215054 0.941676497 -0.279190809 0.758083582 0.938214242 -0.290362149 0.757919133 0.839745641 -0.271205783 0.890214682 0.907751679 -0.28320381 0.810925901 0.844902813 -0.259320021 0.890214741 0.909275055 -0.279490381 0.81117177 0.844902813 -0.259320021 0.890214741 0.907751679 -0.28320381 0.810925901 0.911455631 -0.272399634 0.811354458 0.844902813 -0.259320021 0.890214741 0.909275055 -0.279490381 0.81117177 0.944062412 -0.265389621 0.758324325 0.944991052 -0.253678113 0.758434653 0.914656699 -0.249245256 0.811363518 0.914656699 -0.249245256 0.811363518 0.913190603 -0.261747062 0.811785102 0.944062412 -0.265389621 0.758324325 0.938214242 -0.290362149 0.757919133 0.911455631 -0.272399634 0.811354458 0.909275055 -0.279490381 0.81117177 0.941676497 -0.279190809 0.758083582 0.944062412 -0.265389621 0.758324325 0.911455631 -0.272399634 0.811354458 0.913190603 -0.261747062 0.811785102 0.911455631 -0.272399634 0.811354458 0.944062412 -0.265389621 0.758324325 0.938214242 -0.290362149 0.757919133 0.941676497 -0.279190809 0.758083582 0.911455631 -0.272399634 0.811354458 0.792559266 -0.338279814 0.750208199 0.793268621 -0.148995608 0.75018239 0.944452107 -0.269436687 0.750214815 0.792559266 -0.338279814 0.750208199 0.944452107 -0.269436687 0.750214815 0.923654139 -0.312456429 0.750215471 0.793268621 -0.148995608 0.75018239 0.923666596 -0.174810067 0.750214398 0.944452107 -0.269436687 0.750214815 0.940849483 -0.201554522 0.750214815 0.944452107 -0.269436687 0.750214815 0.935513556 -0.188747466 0.750214875 0.94612062 -0.238067508 0.750214458 0.944452107 -0.269436687 0.750214815 0.944620252 -0.218791574 0.750215054 0.932085097 -0.304331899 0.750214577 0.944452107 -0.269436687 0.750214815 0.937418818 -0.294501603 0.750214636 0.932085097 -0.304331899 0.750214577 0.927872121 -0.309924304 0.75021559 0.944452107 -0.269436687 0.750214815 0.923654139 -0.312456429 0.750215471 0.944452107 -0.269436687 0.750214815 0.927872121 -0.309924304 0.75021559 0.923666596 -0.174810067 0.750214398 0.928346753 -0.17766355 0.750215232 0.944452107 -0.269436687 0.750214815 0.944620252 -0.218791574 0.750215054 0.944452107 -0.269436687 0.750214815 0.940849483 -0.201554522 0.750214815 0.937418818 -0.294501603 0.750214636 0.944452107 -0.269436687 0.750214815 0.941332102 -0.283859134 0.750215054 0.935513556 -0.188747466 0.750214875 0.944452107 -0.269436687 0.750214815 0.928346753 -0.17766355 0.750215232 0.945883393 -0.254184902 0.750214815 0.944452107 -0.269436687 0.750214815 0.94612062 -0.238067508 0.750214458 </float_array>
          <technique_common>
            <accessor count="600" offset="0" source="#mesh_0-positions-array" stride="3">
              <param name="X" type="float" />
              <param name="Y" type="float" />
              <param name="Z" type="float" />
            </accessor>
          </technique_common>
        </source>
        <vertices id="mesh_0-vertices">
          <input semantic="POSITION" source="#mesh_0-positions" />
        </vertices>
        <polylist count="200" material="defaultMaterial">
          <input offset="0" semantic="VERTEX" source="#mesh_0-vertices" />
          <vcount>3 3 3 3 3 3 3 3 3 3 3 3 3 3 3 3 3 3 3 3 3 3 3 3 3 3 3 3 3 3 3 3 3 3 3 3 3 3 3 3 3 3 3 3 3 3 3 3 3 3 3 3 3 3 3 3 3 3 3 3 3 3 3 3 3 3 3 3 3 3 3 3 3 3 3 3 3 3 3 3 3 3 3 3 3 3 3 3 3 3 3 3 3 3 3 3 3 3 3 3 3 3 3 3 3 3 3 3 3 3 3 3 3 3 3 3 3 3 3 3 3 3 3 3 3 3 3 3 3 3 3 3 3 3 3 3 3 3 3 3 3 3 3 3 3 3 3 3 3 3 3 3 3 3 3 3 3 3 3 3 3 3 3 3 3 3 3 3 3 3 3 3 3 3 3 3 3 3 3 3 3 3 3 3 3 3 3 3 3 3 3 3 3 3 3 3 3 3 3 3 </vcount>
          <p>0 1 2 3 4 5 6 7 8 9 10 11 12 13 14 15 16 17 18 19 20 21 22 23 24 25 26 27 28 29 30 31 32 33 34 35 36 37 38 39 40 41 42 43 44 45 46 47 48 49 50 51 52 53 54 55 56 57 58 59 60 61 62 63 64 65 66 67 68 69 70 71 72 73 74 75 76 77 78 79 80 81 82 83 84 85 86 87 88 89 90 91 92 93 94 95 96 97 98 99 100 101 102 103 104 105 106 107 108 109 110 111 112 113 114 115 116 117 118 119 120 121 122 123 124 125 126 127 128 129 130 131 132 133 134 135 136 137 138 139 140 141 142 143 144 145 146 147 148 149 150 151 152 153 154 155 156 157 158 159 160 161 162 163 164 165 166 167 168 169 170 171 172 173 174 175 176 177 178 179 180 181 182 183 184 185 186 187 188 189 190 191 192 193 194 195 196 197 198 199 200 201 202 203 204 205 206 207 208 209 210 211 212 213 214 215 216 217 218 219 220 221 222 223 224 225 226 227 228 229 230 231 232 233 234 235 236 237 238 239 240 241 242 243 244 245 246 247 248 249 250 251 252 253 254 255 256 257 258 259 260 261 262 263 264 265 266 267 268 269 270 271 272 273 274 275 276 277 278 279 280 281 282 283 284 285 286 287 288 289 290 291 292 293 294 295 296 297 298 299 300 301 302 303 304 305 306 307 308 309 310 311 312 313 314 315 316 317 318 319 320 321 322 323 324 325 326 327 328 329 330 331 332 333 334 335 336 337 338 339 340 341 342 343 344 345 346 347 348 349 350 351 352 353 354 355 356 357 358 359 360 361 362 363 364 365 366 367 368 369 370 371 372 373 374 375 376 377 378 379 380 381 382 383 384 385 386 387 388 389 390 391 392 393 394 395 396 397 398 399 400 401 402 403 404 405 406 407 408 409 410 411 412 413 414 415 416 417 418 419 420 421 422 423 424 425 426 427 428 429 430 431 432 433 434 435 436 437 438 439 440 441 442 443 444 445 446 447 448 449 450 451 452 453 454 455 456 457 458 459 460 461 462 463 464 465 466 467 468 469 470 471 472 473 474 475 476 477 478 479 480 481 482 483 484 485 486 487 488 489 490 491 492 493 494 495 496 497 498 499 500 501 502 503 504 505 506 507 508 509 510 511 512 513 514 515 516 517 518 519 520 521 522 523 524 525 526 527 528 529 530 531 532 533 534 535 536 537 538 539 540 541 542 543 544 545 546 547 548 549 550 551 552 553 554 555 556 557 558 559 560 561 562 563 564 565 566 567 568 569 570 571 572 573 574 575 576 577 578 579 580 581 582 583 584 585 586 587 588 589 590 591 592 593 594 595 596 597 598 599 </p>
        </polylist>
      </mesh>
    </geometry>
  </library_geometries>
  <library_controllers>
  </library_controllers>
  <library_visual_scenes>
    <visual_scene id="Scene" name="Scene">
      <node id="node" name="" type="NODE">
        <matrix sid="matrix">1 0 0 0 0 1 0 0 0 0 1 0 0 0 0 1</matrix>
        <instance_geometry url="#mesh_0">
          <bind_material>
            <technique_common>
              <instance_material symbol="defaultMaterial" target="#material_0">
              </instance_material>
            </technique_common>
          </bind_material>
        </instance_geometry>
      </node>
    </visual_scene>
  </library_visual_scenes>
  <scene>
    <instance_visual_scene url="#Scene" />
  </scene>
</COLLADA>
